<?xml version="1.0" standalone="no"?>
 <!DOCTYPE svg PUBLIC "-//W3C//DTD SVG 1.1//EN" 
 "http://www.w3.org/Graphics/SVG/1.1/DTD/svg11.dtd"> 
<svg
  xmlns:svg="http://www.w3.org/2000/svg"
  xmlns="http://www.w3.org/2000/svg"
  xmlns:xlink="http://www.w3.org/1999/xlink"
  version="1.1"
  width="297.0022mm" height="210.0072mm" viewBox="0.0000 0.0000 297.0022 210.0072">
<title>SVG Image created as travaulta plate topre-B_Adhesive.svg date 2023/03/22 13:30:31 </title>
  <desc>Image generated by PCBNEW </desc>
<g style="fill:#000000; fill-opacity:1.0000;stroke:#000000; stroke-opacity:1.0000;
stroke-linecap:round; stroke-linejoin:round;"
 transform="translate(0 0) scale(1 1)">
</g>
<g style="fill:#000000; fill-opacity:0.0; 
stroke:#000000; stroke-width:0.0000; stroke-opacity:1; 
stroke-linecap:round; stroke-linejoin:round;">
</g>
<g style="fill:#000000; fill-opacity:0.0; 
stroke:#000000; stroke-width:0.0212; stroke-opacity:1; 
stroke-linecap:round; stroke-linejoin:round;">
</g>
<g style="fill:#000000; fill-opacity:0.0; 
stroke:#000000; stroke-width:0.1500; stroke-opacity:1; 
stroke-linecap:round; stroke-linejoin:round;">
<path d="M177.0022 166.0072
L285.0022 166.0072
L285.0022 198.0072
L177.0022 198.0072
L177.0022 166.0072
" />
</g>
<g style="fill:#000000; fill-opacity:0.0; 
stroke:#000000; stroke-width:0.0212; stroke-opacity:1; 
stroke-linecap:round; stroke-linejoin:round;">
</g>
<g style="fill:#000000; fill-opacity:0.0; 
stroke:#000000; stroke-width:0.1500; stroke-opacity:1; 
stroke-linecap:round; stroke-linejoin:round;">
<path d="M10.0000 10.0000
L287.0022 10.0000
L287.0022 200.0072
L10.0000 200.0072
L10.0000 10.0000
" />
</g>
<g style="fill:#000000; fill-opacity:0.0; 
stroke:#000000; stroke-width:0.0212; stroke-opacity:1; 
stroke-linecap:round; stroke-linejoin:round;">
</g>
<g style="fill:#000000; fill-opacity:0.0; 
stroke:#000000; stroke-width:0.1500; stroke-opacity:1; 
stroke-linecap:round; stroke-linejoin:round;">
<path d="M12.0000 12.0000
L285.0022 12.0000
L285.0022 198.0072
L12.0000 198.0072
L12.0000 12.0000
" />
</g>
<g style="fill:#000000; fill-opacity:0.0; 
stroke:#000000; stroke-width:0.0212; stroke-opacity:1; 
stroke-linecap:round; stroke-linejoin:round;">
</g>
<g style="fill:#000000; fill-opacity:0.0; 
stroke:#000000; stroke-width:0.1500; stroke-opacity:1; 
stroke-linecap:round; stroke-linejoin:round;">
<path d="M60.0000 12.0000
L60.0000 10.0000
" />
</g>
<g style="fill:#000000; fill-opacity:0.0; 
stroke:#000000; stroke-width:0.0212; stroke-opacity:1; 
stroke-linecap:round; stroke-linejoin:round;">
</g>
<g style="fill:#000000; fill-opacity:0.0; 
stroke:#000000; stroke-width:0.1500; stroke-opacity:1; 
stroke-linecap:round; stroke-linejoin:round;">
<path d="M110.0000 12.0000
L110.0000 10.0000
" />
</g>
<g style="fill:#000000; fill-opacity:0.0; 
stroke:#000000; stroke-width:0.0212; stroke-opacity:1; 
stroke-linecap:round; stroke-linejoin:round;">
</g>
<g style="fill:#000000; fill-opacity:0.0; 
stroke:#000000; stroke-width:0.1500; stroke-opacity:1; 
stroke-linecap:round; stroke-linejoin:round;">
<path d="M160.0000 12.0000
L160.0000 10.0000
" />
</g>
<g style="fill:#000000; fill-opacity:0.0; 
stroke:#000000; stroke-width:0.0212; stroke-opacity:1; 
stroke-linecap:round; stroke-linejoin:round;">
</g>
<g style="fill:#000000; fill-opacity:0.0; 
stroke:#000000; stroke-width:0.1500; stroke-opacity:1; 
stroke-linecap:round; stroke-linejoin:round;">
<path d="M210.0000 12.0000
L210.0000 10.0000
" />
</g>
<g style="fill:#000000; fill-opacity:0.0; 
stroke:#000000; stroke-width:0.0212; stroke-opacity:1; 
stroke-linecap:round; stroke-linejoin:round;">
</g>
<g style="fill:#000000; fill-opacity:0.0; 
stroke:#000000; stroke-width:0.1500; stroke-opacity:1; 
stroke-linecap:round; stroke-linejoin:round;">
<path d="M260.0000 12.0000
L260.0000 10.0000
" />
</g>
<g style="fill:#000000; fill-opacity:0.0; 
stroke:#000000; stroke-width:0.0212; stroke-opacity:1; 
stroke-linecap:round; stroke-linejoin:round;">
</g>
<g style="fill:#000000; fill-opacity:0.0; 
stroke:#000000; stroke-width:0.1500; stroke-opacity:1; 
stroke-linecap:round; stroke-linejoin:round;">
<text x="35.0000" y="11.6500"
textLength="1.3531" font-size="1.7333" lengthAdjust="spacingAndGlyphs"
text-anchor="start" opacity="0">1</text>
<g class="stroked-text"><desc>1</desc>
<path d="M35.9905 11.4776
L35.2476 11.4776
" />
<path d="M35.6190 11.4776
L35.6190 10.1776
" />
<path d="M35.6190 10.1776
L35.4952 10.3633
" />
<path d="M35.4952 10.3633
L35.3714 10.4871
" />
<path d="M35.3714 10.4871
L35.2476 10.5490
" />
</g></g>
<g style="fill:#000000; fill-opacity:0.0; 
stroke:#000000; stroke-width:0.0212; stroke-opacity:1; 
stroke-linecap:round; stroke-linejoin:round;">
</g>
<g style="fill:#000000; fill-opacity:0.0; 
stroke:#000000; stroke-width:0.1500; stroke-opacity:1; 
stroke-linecap:round; stroke-linejoin:round;">
<text x="85.0000" y="11.6500"
textLength="1.3531" font-size="1.7333" lengthAdjust="spacingAndGlyphs"
text-anchor="start" opacity="0">2</text>
<g class="stroked-text"><desc>2</desc>
<path d="M85.2476 10.3014
L85.3095 10.2395
" />
<path d="M85.3095 10.2395
L85.4333 10.1776
" />
<path d="M85.4333 10.1776
L85.7429 10.1776
" />
<path d="M85.7429 10.1776
L85.8667 10.2395
" />
<path d="M85.8667 10.2395
L85.9286 10.3014
" />
<path d="M85.9286 10.3014
L85.9905 10.4252
" />
<path d="M85.9905 10.4252
L85.9905 10.5490
" />
<path d="M85.9905 10.5490
L85.9286 10.7347
" />
<path d="M85.9286 10.7347
L85.1857 11.4776
" />
<path d="M85.1857 11.4776
L85.9905 11.4776
" />
</g></g>
<g style="fill:#000000; fill-opacity:0.0; 
stroke:#000000; stroke-width:0.0212; stroke-opacity:1; 
stroke-linecap:round; stroke-linejoin:round;">
</g>
<g style="fill:#000000; fill-opacity:0.0; 
stroke:#000000; stroke-width:0.1500; stroke-opacity:1; 
stroke-linecap:round; stroke-linejoin:round;">
<text x="135.0000" y="11.6500"
textLength="1.3531" font-size="1.7333" lengthAdjust="spacingAndGlyphs"
text-anchor="start" opacity="0">3</text>
<g class="stroked-text"><desc>3</desc>
<path d="M135.1857 10.1776
L135.9905 10.1776
" />
<path d="M135.9905 10.1776
L135.5571 10.6728
" />
<path d="M135.5571 10.6728
L135.7429 10.6728
" />
<path d="M135.7429 10.6728
L135.8667 10.7347
" />
<path d="M135.8667 10.7347
L135.9286 10.7966
" />
<path d="M135.9286 10.7966
L135.9905 10.9205
" />
<path d="M135.9905 10.9205
L135.9905 11.2300
" />
<path d="M135.9905 11.2300
L135.9286 11.3538
" />
<path d="M135.9286 11.3538
L135.8667 11.4157
" />
<path d="M135.8667 11.4157
L135.7429 11.4776
" />
<path d="M135.7429 11.4776
L135.3714 11.4776
" />
<path d="M135.3714 11.4776
L135.2476 11.4157
" />
<path d="M135.2476 11.4157
L135.1857 11.3538
" />
</g></g>
<g style="fill:#000000; fill-opacity:0.0; 
stroke:#000000; stroke-width:0.0212; stroke-opacity:1; 
stroke-linecap:round; stroke-linejoin:round;">
</g>
<g style="fill:#000000; fill-opacity:0.0; 
stroke:#000000; stroke-width:0.1500; stroke-opacity:1; 
stroke-linecap:round; stroke-linejoin:round;">
<text x="185.0000" y="11.6500"
textLength="1.3531" font-size="1.7333" lengthAdjust="spacingAndGlyphs"
text-anchor="start" opacity="0">4</text>
<g class="stroked-text"><desc>4</desc>
<path d="M185.8667 10.6109
L185.8667 11.4776
" />
<path d="M185.5571 10.1157
L185.2476 11.0443
" />
<path d="M185.2476 11.0443
L186.0524 11.0443
" />
</g></g>
<g style="fill:#000000; fill-opacity:0.0; 
stroke:#000000; stroke-width:0.0212; stroke-opacity:1; 
stroke-linecap:round; stroke-linejoin:round;">
</g>
<g style="fill:#000000; fill-opacity:0.0; 
stroke:#000000; stroke-width:0.1500; stroke-opacity:1; 
stroke-linecap:round; stroke-linejoin:round;">
<text x="235.0000" y="11.6500"
textLength="1.3531" font-size="1.7333" lengthAdjust="spacingAndGlyphs"
text-anchor="start" opacity="0">5</text>
<g class="stroked-text"><desc>5</desc>
<path d="M235.9286 10.1776
L235.3095 10.1776
" />
<path d="M235.3095 10.1776
L235.2476 10.7966
" />
<path d="M235.2476 10.7966
L235.3095 10.7347
" />
<path d="M235.3095 10.7347
L235.4333 10.6728
" />
<path d="M235.4333 10.6728
L235.7429 10.6728
" />
<path d="M235.7429 10.6728
L235.8667 10.7347
" />
<path d="M235.8667 10.7347
L235.9286 10.7966
" />
<path d="M235.9286 10.7966
L235.9905 10.9205
" />
<path d="M235.9905 10.9205
L235.9905 11.2300
" />
<path d="M235.9905 11.2300
L235.9286 11.3538
" />
<path d="M235.9286 11.3538
L235.8667 11.4157
" />
<path d="M235.8667 11.4157
L235.7429 11.4776
" />
<path d="M235.7429 11.4776
L235.4333 11.4776
" />
<path d="M235.4333 11.4776
L235.3095 11.4157
" />
<path d="M235.3095 11.4157
L235.2476 11.3538
" />
</g></g>
<g style="fill:#000000; fill-opacity:0.0; 
stroke:#000000; stroke-width:0.0212; stroke-opacity:1; 
stroke-linecap:round; stroke-linejoin:round;">
</g>
<g style="fill:#000000; fill-opacity:0.0; 
stroke:#000000; stroke-width:0.1500; stroke-opacity:1; 
stroke-linecap:round; stroke-linejoin:round;">
<text x="285.0000" y="11.6500"
textLength="1.3531" font-size="1.7333" lengthAdjust="spacingAndGlyphs"
text-anchor="start" opacity="0">6</text>
<g class="stroked-text"><desc>6</desc>
<path d="M285.8667 10.1776
L285.6190 10.1776
" />
<path d="M285.6190 10.1776
L285.4952 10.2395
" />
<path d="M285.4952 10.2395
L285.4333 10.3014
" />
<path d="M285.4333 10.3014
L285.3095 10.4871
" />
<path d="M285.3095 10.4871
L285.2476 10.7347
" />
<path d="M285.2476 10.7347
L285.2476 11.2300
" />
<path d="M285.2476 11.2300
L285.3095 11.3538
" />
<path d="M285.3095 11.3538
L285.3714 11.4157
" />
<path d="M285.3714 11.4157
L285.4952 11.4776
" />
<path d="M285.4952 11.4776
L285.7429 11.4776
" />
<path d="M285.7429 11.4776
L285.8667 11.4157
" />
<path d="M285.8667 11.4157
L285.9286 11.3538
" />
<path d="M285.9286 11.3538
L285.9905 11.2300
" />
<path d="M285.9905 11.2300
L285.9905 10.9205
" />
<path d="M285.9905 10.9205
L285.9286 10.7966
" />
<path d="M285.9286 10.7966
L285.8667 10.7347
" />
<path d="M285.8667 10.7347
L285.7429 10.6728
" />
<path d="M285.7429 10.6728
L285.4952 10.6728
" />
<path d="M285.4952 10.6728
L285.3714 10.7347
" />
<path d="M285.3714 10.7347
L285.3095 10.7966
" />
<path d="M285.3095 10.7966
L285.2476 10.9205
" />
</g></g>
<g style="fill:#000000; fill-opacity:0.0; 
stroke:#000000; stroke-width:0.0212; stroke-opacity:1; 
stroke-linecap:round; stroke-linejoin:round;">
</g>
<g style="fill:#000000; fill-opacity:0.0; 
stroke:#000000; stroke-width:0.1500; stroke-opacity:1; 
stroke-linecap:round; stroke-linejoin:round;">
<path d="M60.0000 198.0072
L60.0000 200.0072
" />
</g>
<g style="fill:#000000; fill-opacity:0.0; 
stroke:#000000; stroke-width:0.0212; stroke-opacity:1; 
stroke-linecap:round; stroke-linejoin:round;">
</g>
<g style="fill:#000000; fill-opacity:0.0; 
stroke:#000000; stroke-width:0.1500; stroke-opacity:1; 
stroke-linecap:round; stroke-linejoin:round;">
<path d="M110.0000 198.0072
L110.0000 200.0072
" />
</g>
<g style="fill:#000000; fill-opacity:0.0; 
stroke:#000000; stroke-width:0.0212; stroke-opacity:1; 
stroke-linecap:round; stroke-linejoin:round;">
</g>
<g style="fill:#000000; fill-opacity:0.0; 
stroke:#000000; stroke-width:0.1500; stroke-opacity:1; 
stroke-linecap:round; stroke-linejoin:round;">
<path d="M160.0000 198.0072
L160.0000 200.0072
" />
</g>
<g style="fill:#000000; fill-opacity:0.0; 
stroke:#000000; stroke-width:0.0212; stroke-opacity:1; 
stroke-linecap:round; stroke-linejoin:round;">
</g>
<g style="fill:#000000; fill-opacity:0.0; 
stroke:#000000; stroke-width:0.1500; stroke-opacity:1; 
stroke-linecap:round; stroke-linejoin:round;">
<path d="M210.0000 198.0072
L210.0000 200.0072
" />
</g>
<g style="fill:#000000; fill-opacity:0.0; 
stroke:#000000; stroke-width:0.0212; stroke-opacity:1; 
stroke-linecap:round; stroke-linejoin:round;">
</g>
<g style="fill:#000000; fill-opacity:0.0; 
stroke:#000000; stroke-width:0.1500; stroke-opacity:1; 
stroke-linecap:round; stroke-linejoin:round;">
<path d="M260.0000 198.0072
L260.0000 200.0072
" />
</g>
<g style="fill:#000000; fill-opacity:0.0; 
stroke:#000000; stroke-width:0.0212; stroke-opacity:1; 
stroke-linecap:round; stroke-linejoin:round;">
</g>
<g style="fill:#000000; fill-opacity:0.0; 
stroke:#000000; stroke-width:0.1500; stroke-opacity:1; 
stroke-linecap:round; stroke-linejoin:round;">
<text x="35.0000" y="199.6572"
textLength="1.3531" font-size="1.7333" lengthAdjust="spacingAndGlyphs"
text-anchor="start" opacity="0">1</text>
<g class="stroked-text"><desc>1</desc>
<path d="M35.9905 199.4848
L35.2476 199.4848
" />
<path d="M35.6190 199.4848
L35.6190 198.1848
" />
<path d="M35.6190 198.1848
L35.4952 198.3705
" />
<path d="M35.4952 198.3705
L35.3714 198.4943
" />
<path d="M35.3714 198.4943
L35.2476 198.5562
" />
</g></g>
<g style="fill:#000000; fill-opacity:0.0; 
stroke:#000000; stroke-width:0.0212; stroke-opacity:1; 
stroke-linecap:round; stroke-linejoin:round;">
</g>
<g style="fill:#000000; fill-opacity:0.0; 
stroke:#000000; stroke-width:0.1500; stroke-opacity:1; 
stroke-linecap:round; stroke-linejoin:round;">
<text x="85.0000" y="199.6572"
textLength="1.3531" font-size="1.7333" lengthAdjust="spacingAndGlyphs"
text-anchor="start" opacity="0">2</text>
<g class="stroked-text"><desc>2</desc>
<path d="M85.2476 198.3086
L85.3095 198.2467
" />
<path d="M85.3095 198.2467
L85.4333 198.1848
" />
<path d="M85.4333 198.1848
L85.7429 198.1848
" />
<path d="M85.7429 198.1848
L85.8667 198.2467
" />
<path d="M85.8667 198.2467
L85.9286 198.3086
" />
<path d="M85.9286 198.3086
L85.9905 198.4324
" />
<path d="M85.9905 198.4324
L85.9905 198.5562
" />
<path d="M85.9905 198.5562
L85.9286 198.7419
" />
<path d="M85.9286 198.7419
L85.1857 199.4848
" />
<path d="M85.1857 199.4848
L85.9905 199.4848
" />
</g></g>
<g style="fill:#000000; fill-opacity:0.0; 
stroke:#000000; stroke-width:0.0212; stroke-opacity:1; 
stroke-linecap:round; stroke-linejoin:round;">
</g>
<g style="fill:#000000; fill-opacity:0.0; 
stroke:#000000; stroke-width:0.1500; stroke-opacity:1; 
stroke-linecap:round; stroke-linejoin:round;">
<text x="135.0000" y="199.6572"
textLength="1.3531" font-size="1.7333" lengthAdjust="spacingAndGlyphs"
text-anchor="start" opacity="0">3</text>
<g class="stroked-text"><desc>3</desc>
<path d="M135.1857 198.1848
L135.9905 198.1848
" />
<path d="M135.9905 198.1848
L135.5571 198.6800
" />
<path d="M135.5571 198.6800
L135.7429 198.6800
" />
<path d="M135.7429 198.6800
L135.8667 198.7419
" />
<path d="M135.8667 198.7419
L135.9286 198.8038
" />
<path d="M135.9286 198.8038
L135.9905 198.9277
" />
<path d="M135.9905 198.9277
L135.9905 199.2372
" />
<path d="M135.9905 199.2372
L135.9286 199.3610
" />
<path d="M135.9286 199.3610
L135.8667 199.4229
" />
<path d="M135.8667 199.4229
L135.7429 199.4848
" />
<path d="M135.7429 199.4848
L135.3714 199.4848
" />
<path d="M135.3714 199.4848
L135.2476 199.4229
" />
<path d="M135.2476 199.4229
L135.1857 199.3610
" />
</g></g>
<g style="fill:#000000; fill-opacity:0.0; 
stroke:#000000; stroke-width:0.0212; stroke-opacity:1; 
stroke-linecap:round; stroke-linejoin:round;">
</g>
<g style="fill:#000000; fill-opacity:0.0; 
stroke:#000000; stroke-width:0.1500; stroke-opacity:1; 
stroke-linecap:round; stroke-linejoin:round;">
<text x="185.0000" y="199.6572"
textLength="1.3531" font-size="1.7333" lengthAdjust="spacingAndGlyphs"
text-anchor="start" opacity="0">4</text>
<g class="stroked-text"><desc>4</desc>
<path d="M185.8667 198.6181
L185.8667 199.4848
" />
<path d="M185.5571 198.1229
L185.2476 199.0515
" />
<path d="M185.2476 199.0515
L186.0524 199.0515
" />
</g></g>
<g style="fill:#000000; fill-opacity:0.0; 
stroke:#000000; stroke-width:0.0212; stroke-opacity:1; 
stroke-linecap:round; stroke-linejoin:round;">
</g>
<g style="fill:#000000; fill-opacity:0.0; 
stroke:#000000; stroke-width:0.1500; stroke-opacity:1; 
stroke-linecap:round; stroke-linejoin:round;">
<text x="235.0000" y="199.6572"
textLength="1.3531" font-size="1.7333" lengthAdjust="spacingAndGlyphs"
text-anchor="start" opacity="0">5</text>
<g class="stroked-text"><desc>5</desc>
<path d="M235.9286 198.1848
L235.3095 198.1848
" />
<path d="M235.3095 198.1848
L235.2476 198.8038
" />
<path d="M235.2476 198.8038
L235.3095 198.7419
" />
<path d="M235.3095 198.7419
L235.4333 198.6800
" />
<path d="M235.4333 198.6800
L235.7429 198.6800
" />
<path d="M235.7429 198.6800
L235.8667 198.7419
" />
<path d="M235.8667 198.7419
L235.9286 198.8038
" />
<path d="M235.9286 198.8038
L235.9905 198.9277
" />
<path d="M235.9905 198.9277
L235.9905 199.2372
" />
<path d="M235.9905 199.2372
L235.9286 199.3610
" />
<path d="M235.9286 199.3610
L235.8667 199.4229
" />
<path d="M235.8667 199.4229
L235.7429 199.4848
" />
<path d="M235.7429 199.4848
L235.4333 199.4848
" />
<path d="M235.4333 199.4848
L235.3095 199.4229
" />
<path d="M235.3095 199.4229
L235.2476 199.3610
" />
</g></g>
<g style="fill:#000000; fill-opacity:0.0; 
stroke:#000000; stroke-width:0.0212; stroke-opacity:1; 
stroke-linecap:round; stroke-linejoin:round;">
</g>
<g style="fill:#000000; fill-opacity:0.0; 
stroke:#000000; stroke-width:0.1500; stroke-opacity:1; 
stroke-linecap:round; stroke-linejoin:round;">
<text x="285.0000" y="199.6572"
textLength="1.3531" font-size="1.7333" lengthAdjust="spacingAndGlyphs"
text-anchor="start" opacity="0">6</text>
<g class="stroked-text"><desc>6</desc>
<path d="M285.8667 198.1848
L285.6190 198.1848
" />
<path d="M285.6190 198.1848
L285.4952 198.2467
" />
<path d="M285.4952 198.2467
L285.4333 198.3086
" />
<path d="M285.4333 198.3086
L285.3095 198.4943
" />
<path d="M285.3095 198.4943
L285.2476 198.7419
" />
<path d="M285.2476 198.7419
L285.2476 199.2372
" />
<path d="M285.2476 199.2372
L285.3095 199.3610
" />
<path d="M285.3095 199.3610
L285.3714 199.4229
" />
<path d="M285.3714 199.4229
L285.4952 199.4848
" />
<path d="M285.4952 199.4848
L285.7429 199.4848
" />
<path d="M285.7429 199.4848
L285.8667 199.4229
" />
<path d="M285.8667 199.4229
L285.9286 199.3610
" />
<path d="M285.9286 199.3610
L285.9905 199.2372
" />
<path d="M285.9905 199.2372
L285.9905 198.9277
" />
<path d="M285.9905 198.9277
L285.9286 198.8038
" />
<path d="M285.9286 198.8038
L285.8667 198.7419
" />
<path d="M285.8667 198.7419
L285.7429 198.6800
" />
<path d="M285.7429 198.6800
L285.4952 198.6800
" />
<path d="M285.4952 198.6800
L285.3714 198.7419
" />
<path d="M285.3714 198.7419
L285.3095 198.8038
" />
<path d="M285.3095 198.8038
L285.2476 198.9277
" />
</g></g>
<g style="fill:#000000; fill-opacity:0.0; 
stroke:#000000; stroke-width:0.0212; stroke-opacity:1; 
stroke-linecap:round; stroke-linejoin:round;">
</g>
<g style="fill:#000000; fill-opacity:0.0; 
stroke:#000000; stroke-width:0.1500; stroke-opacity:1; 
stroke-linecap:round; stroke-linejoin:round;">
<path d="M10.0000 60.0000
L12.0000 60.0000
" />
</g>
<g style="fill:#000000; fill-opacity:0.0; 
stroke:#000000; stroke-width:0.0212; stroke-opacity:1; 
stroke-linecap:round; stroke-linejoin:round;">
</g>
<g style="fill:#000000; fill-opacity:0.0; 
stroke:#000000; stroke-width:0.1500; stroke-opacity:1; 
stroke-linecap:round; stroke-linejoin:round;">
<path d="M10.0000 110.0000
L12.0000 110.0000
" />
</g>
<g style="fill:#000000; fill-opacity:0.0; 
stroke:#000000; stroke-width:0.0212; stroke-opacity:1; 
stroke-linecap:round; stroke-linejoin:round;">
</g>
<g style="fill:#000000; fill-opacity:0.0; 
stroke:#000000; stroke-width:0.1500; stroke-opacity:1; 
stroke-linecap:round; stroke-linejoin:round;">
<path d="M10.0000 160.0000
L12.0000 160.0000
" />
</g>
<g style="fill:#000000; fill-opacity:0.0; 
stroke:#000000; stroke-width:0.0212; stroke-opacity:1; 
stroke-linecap:round; stroke-linejoin:round;">
</g>
<g style="fill:#000000; fill-opacity:0.0; 
stroke:#000000; stroke-width:0.1500; stroke-opacity:1; 
stroke-linecap:round; stroke-linejoin:round;">
<text x="11.0000" y="35.6500"
textLength="1.2293" font-size="1.7333" lengthAdjust="spacingAndGlyphs"
text-anchor="middle" opacity="0">A</text>
<g class="stroked-text"><desc>A</desc>
<path d="M10.6905 35.1062
L11.3095 35.1062
" />
<path d="M10.5667 35.4776
L11.0000 34.1776
" />
<path d="M11.0000 34.1776
L11.4333 35.4776
" />
</g></g>
<g style="fill:#000000; fill-opacity:0.0; 
stroke:#000000; stroke-width:0.0212; stroke-opacity:1; 
stroke-linecap:round; stroke-linejoin:round;">
</g>
<g style="fill:#000000; fill-opacity:0.0; 
stroke:#000000; stroke-width:0.1500; stroke-opacity:1; 
stroke-linecap:round; stroke-linejoin:round;">
<text x="11.0000" y="85.6500"
textLength="1.4150" font-size="1.7333" lengthAdjust="spacingAndGlyphs"
text-anchor="middle" opacity="0">B</text>
<g class="stroked-text"><desc>B</desc>
<path d="M11.0929 84.7966
L11.2786 84.8585
" />
<path d="M11.2786 84.8585
L11.3405 84.9205
" />
<path d="M11.3405 84.9205
L11.4024 85.0443
" />
<path d="M11.4024 85.0443
L11.4024 85.2300
" />
<path d="M11.4024 85.2300
L11.3405 85.3538
" />
<path d="M11.3405 85.3538
L11.2786 85.4157
" />
<path d="M11.2786 85.4157
L11.1548 85.4776
" />
<path d="M11.1548 85.4776
L10.6595 85.4776
" />
<path d="M10.6595 85.4776
L10.6595 84.1776
" />
<path d="M10.6595 84.1776
L11.0929 84.1776
" />
<path d="M11.0929 84.1776
L11.2167 84.2395
" />
<path d="M11.2167 84.2395
L11.2786 84.3014
" />
<path d="M11.2786 84.3014
L11.3405 84.4252
" />
<path d="M11.3405 84.4252
L11.3405 84.5490
" />
<path d="M11.3405 84.5490
L11.2786 84.6728
" />
<path d="M11.2786 84.6728
L11.2167 84.7347
" />
<path d="M11.2167 84.7347
L11.0929 84.7966
" />
<path d="M11.0929 84.7966
L10.6595 84.7966
" />
</g></g>
<g style="fill:#000000; fill-opacity:0.0; 
stroke:#000000; stroke-width:0.0212; stroke-opacity:1; 
stroke-linecap:round; stroke-linejoin:round;">
</g>
<g style="fill:#000000; fill-opacity:0.0; 
stroke:#000000; stroke-width:0.1500; stroke-opacity:1; 
stroke-linecap:round; stroke-linejoin:round;">
<text x="11.0000" y="135.6500"
textLength="1.4150" font-size="1.7333" lengthAdjust="spacingAndGlyphs"
text-anchor="middle" opacity="0">C</text>
<g class="stroked-text"><desc>C</desc>
<path d="M11.4024 135.3538
L11.3405 135.4157
" />
<path d="M11.3405 135.4157
L11.1548 135.4776
" />
<path d="M11.1548 135.4776
L11.0310 135.4776
" />
<path d="M11.0310 135.4776
L10.8452 135.4157
" />
<path d="M10.8452 135.4157
L10.7214 135.2919
" />
<path d="M10.7214 135.2919
L10.6595 135.1681
" />
<path d="M10.6595 135.1681
L10.5976 134.9205
" />
<path d="M10.5976 134.9205
L10.5976 134.7347
" />
<path d="M10.5976 134.7347
L10.6595 134.4871
" />
<path d="M10.6595 134.4871
L10.7214 134.3633
" />
<path d="M10.7214 134.3633
L10.8452 134.2395
" />
<path d="M10.8452 134.2395
L11.0310 134.1776
" />
<path d="M11.0310 134.1776
L11.1548 134.1776
" />
<path d="M11.1548 134.1776
L11.3405 134.2395
" />
<path d="M11.3405 134.2395
L11.4024 134.3014
" />
</g></g>
<g style="fill:#000000; fill-opacity:0.0; 
stroke:#000000; stroke-width:0.0212; stroke-opacity:1; 
stroke-linecap:round; stroke-linejoin:round;">
</g>
<g style="fill:#000000; fill-opacity:0.0; 
stroke:#000000; stroke-width:0.1500; stroke-opacity:1; 
stroke-linecap:round; stroke-linejoin:round;">
<text x="11.0000" y="185.6500"
textLength="1.4150" font-size="1.7333" lengthAdjust="spacingAndGlyphs"
text-anchor="middle" opacity="0">D</text>
<g class="stroked-text"><desc>D</desc>
<path d="M10.6595 185.4776
L10.6595 184.1776
" />
<path d="M10.6595 184.1776
L10.9690 184.1776
" />
<path d="M10.9690 184.1776
L11.1548 184.2395
" />
<path d="M11.1548 184.2395
L11.2786 184.3633
" />
<path d="M11.2786 184.3633
L11.3405 184.4871
" />
<path d="M11.3405 184.4871
L11.4024 184.7347
" />
<path d="M11.4024 184.7347
L11.4024 184.9205
" />
<path d="M11.4024 184.9205
L11.3405 185.1681
" />
<path d="M11.3405 185.1681
L11.2786 185.2919
" />
<path d="M11.2786 185.2919
L11.1548 185.4157
" />
<path d="M11.1548 185.4157
L10.9690 185.4776
" />
<path d="M10.9690 185.4776
L10.6595 185.4776
" />
</g></g>
<g style="fill:#000000; fill-opacity:0.0; 
stroke:#000000; stroke-width:0.0212; stroke-opacity:1; 
stroke-linecap:round; stroke-linejoin:round;">
</g>
<g style="fill:#000000; fill-opacity:0.0; 
stroke:#000000; stroke-width:0.1500; stroke-opacity:1; 
stroke-linecap:round; stroke-linejoin:round;">
<path d="M287.0022 60.0000
L285.0022 60.0000
" />
</g>
<g style="fill:#000000; fill-opacity:0.0; 
stroke:#000000; stroke-width:0.0212; stroke-opacity:1; 
stroke-linecap:round; stroke-linejoin:round;">
</g>
<g style="fill:#000000; fill-opacity:0.0; 
stroke:#000000; stroke-width:0.1500; stroke-opacity:1; 
stroke-linecap:round; stroke-linejoin:round;">
<path d="M287.0022 110.0000
L285.0022 110.0000
" />
</g>
<g style="fill:#000000; fill-opacity:0.0; 
stroke:#000000; stroke-width:0.0212; stroke-opacity:1; 
stroke-linecap:round; stroke-linejoin:round;">
</g>
<g style="fill:#000000; fill-opacity:0.0; 
stroke:#000000; stroke-width:0.1500; stroke-opacity:1; 
stroke-linecap:round; stroke-linejoin:round;">
<path d="M287.0022 160.0000
L285.0022 160.0000
" />
</g>
<g style="fill:#000000; fill-opacity:0.0; 
stroke:#000000; stroke-width:0.0212; stroke-opacity:1; 
stroke-linecap:round; stroke-linejoin:round;">
</g>
<g style="fill:#000000; fill-opacity:0.0; 
stroke:#000000; stroke-width:0.1500; stroke-opacity:1; 
stroke-linecap:round; stroke-linejoin:round;">
<text x="286.0022" y="35.6500"
textLength="1.2293" font-size="1.7333" lengthAdjust="spacingAndGlyphs"
text-anchor="middle" opacity="0">A</text>
<g class="stroked-text"><desc>A</desc>
<path d="M285.6927 35.1062
L286.3117 35.1062
" />
<path d="M285.5689 35.4776
L286.0022 34.1776
" />
<path d="M286.0022 34.1776
L286.4355 35.4776
" />
</g></g>
<g style="fill:#000000; fill-opacity:0.0; 
stroke:#000000; stroke-width:0.0212; stroke-opacity:1; 
stroke-linecap:round; stroke-linejoin:round;">
</g>
<g style="fill:#000000; fill-opacity:0.0; 
stroke:#000000; stroke-width:0.1500; stroke-opacity:1; 
stroke-linecap:round; stroke-linejoin:round;">
<text x="286.0022" y="85.6500"
textLength="1.4150" font-size="1.7333" lengthAdjust="spacingAndGlyphs"
text-anchor="middle" opacity="0">B</text>
<g class="stroked-text"><desc>B</desc>
<path d="M286.0951 84.7966
L286.2808 84.8585
" />
<path d="M286.2808 84.8585
L286.3427 84.9205
" />
<path d="M286.3427 84.9205
L286.4046 85.0443
" />
<path d="M286.4046 85.0443
L286.4046 85.2300
" />
<path d="M286.4046 85.2300
L286.3427 85.3538
" />
<path d="M286.3427 85.3538
L286.2808 85.4157
" />
<path d="M286.2808 85.4157
L286.1570 85.4776
" />
<path d="M286.1570 85.4776
L285.6617 85.4776
" />
<path d="M285.6617 85.4776
L285.6617 84.1776
" />
<path d="M285.6617 84.1776
L286.0951 84.1776
" />
<path d="M286.0951 84.1776
L286.2189 84.2395
" />
<path d="M286.2189 84.2395
L286.2808 84.3014
" />
<path d="M286.2808 84.3014
L286.3427 84.4252
" />
<path d="M286.3427 84.4252
L286.3427 84.5490
" />
<path d="M286.3427 84.5490
L286.2808 84.6728
" />
<path d="M286.2808 84.6728
L286.2189 84.7347
" />
<path d="M286.2189 84.7347
L286.0951 84.7966
" />
<path d="M286.0951 84.7966
L285.6617 84.7966
" />
</g></g>
<g style="fill:#000000; fill-opacity:0.0; 
stroke:#000000; stroke-width:0.0212; stroke-opacity:1; 
stroke-linecap:round; stroke-linejoin:round;">
</g>
<g style="fill:#000000; fill-opacity:0.0; 
stroke:#000000; stroke-width:0.1500; stroke-opacity:1; 
stroke-linecap:round; stroke-linejoin:round;">
<text x="286.0022" y="135.6500"
textLength="1.4150" font-size="1.7333" lengthAdjust="spacingAndGlyphs"
text-anchor="middle" opacity="0">C</text>
<g class="stroked-text"><desc>C</desc>
<path d="M286.4046 135.3538
L286.3427 135.4157
" />
<path d="M286.3427 135.4157
L286.1570 135.4776
" />
<path d="M286.1570 135.4776
L286.0332 135.4776
" />
<path d="M286.0332 135.4776
L285.8474 135.4157
" />
<path d="M285.8474 135.4157
L285.7236 135.2919
" />
<path d="M285.7236 135.2919
L285.6617 135.1681
" />
<path d="M285.6617 135.1681
L285.5998 134.9205
" />
<path d="M285.5998 134.9205
L285.5998 134.7347
" />
<path d="M285.5998 134.7347
L285.6617 134.4871
" />
<path d="M285.6617 134.4871
L285.7236 134.3633
" />
<path d="M285.7236 134.3633
L285.8474 134.2395
" />
<path d="M285.8474 134.2395
L286.0332 134.1776
" />
<path d="M286.0332 134.1776
L286.1570 134.1776
" />
<path d="M286.1570 134.1776
L286.3427 134.2395
" />
<path d="M286.3427 134.2395
L286.4046 134.3014
" />
</g></g>
<g style="fill:#000000; fill-opacity:0.0; 
stroke:#000000; stroke-width:0.0212; stroke-opacity:1; 
stroke-linecap:round; stroke-linejoin:round;">
</g>
<g style="fill:#000000; fill-opacity:0.0; 
stroke:#000000; stroke-width:0.1500; stroke-opacity:1; 
stroke-linecap:round; stroke-linejoin:round;">
<text x="286.0022" y="185.6500"
textLength="1.4150" font-size="1.7333" lengthAdjust="spacingAndGlyphs"
text-anchor="middle" opacity="0">D</text>
<g class="stroked-text"><desc>D</desc>
<path d="M285.6617 185.4776
L285.6617 184.1776
" />
<path d="M285.6617 184.1776
L285.9712 184.1776
" />
<path d="M285.9712 184.1776
L286.1570 184.2395
" />
<path d="M286.1570 184.2395
L286.2808 184.3633
" />
<path d="M286.2808 184.3633
L286.3427 184.4871
" />
<path d="M286.3427 184.4871
L286.4046 184.7347
" />
<path d="M286.4046 184.7347
L286.4046 184.9205
" />
<path d="M286.4046 184.9205
L286.3427 185.1681
" />
<path d="M286.3427 185.1681
L286.2808 185.2919
" />
<path d="M286.2808 185.2919
L286.1570 185.4157
" />
<path d="M286.1570 185.4157
L285.9712 185.4776
" />
<path d="M285.9712 185.4776
L285.6617 185.4776
" />
</g></g>
<g style="fill:#000000; fill-opacity:0.0; 
stroke:#000000; stroke-width:0.0212; stroke-opacity:1; 
stroke-linecap:round; stroke-linejoin:round;">
</g>
<g style="fill:#000000; fill-opacity:0.0; 
stroke:#000000; stroke-width:0.1500; stroke-opacity:1; 
stroke-linecap:round; stroke-linejoin:round;">
<text x="200.0022" y="193.8572"
textLength="6.6893" font-size="2.0000" lengthAdjust="spacingAndGlyphs"
text-anchor="start" opacity="0">Date: </text>
<g class="stroked-text"><desc>Date: </desc>
<path d="M200.3593 193.6583
L200.3593 192.1583
" />
<path d="M200.3593 192.1583
L200.7165 192.1583
" />
<path d="M200.7165 192.1583
L200.9308 192.2297
" />
<path d="M200.9308 192.2297
L201.0736 192.3726
" />
<path d="M201.0736 192.3726
L201.1451 192.5154
" />
<path d="M201.1451 192.5154
L201.2165 192.8011
" />
<path d="M201.2165 192.8011
L201.2165 193.0154
" />
<path d="M201.2165 193.0154
L201.1451 193.3011
" />
<path d="M201.1451 193.3011
L201.0736 193.4440
" />
<path d="M201.0736 193.4440
L200.9308 193.5868
" />
<path d="M200.9308 193.5868
L200.7165 193.6583
" />
<path d="M200.7165 193.6583
L200.3593 193.6583
" />
<path d="M202.5022 193.6583
L202.5022 192.8726
" />
<path d="M202.5022 192.8726
L202.4308 192.7297
" />
<path d="M202.4308 192.7297
L202.2879 192.6583
" />
<path d="M202.2879 192.6583
L202.0022 192.6583
" />
<path d="M202.0022 192.6583
L201.8593 192.7297
" />
<path d="M202.5022 193.5868
L202.3593 193.6583
" />
<path d="M202.3593 193.6583
L202.0022 193.6583
" />
<path d="M202.0022 193.6583
L201.8593 193.5868
" />
<path d="M201.8593 193.5868
L201.7879 193.4440
" />
<path d="M201.7879 193.4440
L201.7879 193.3011
" />
<path d="M201.7879 193.3011
L201.8593 193.1583
" />
<path d="M201.8593 193.1583
L202.0022 193.0868
" />
<path d="M202.0022 193.0868
L202.3593 193.0868
" />
<path d="M202.3593 193.0868
L202.5022 193.0154
" />
<path d="M203.0022 192.6583
L203.5736 192.6583
" />
<path d="M203.2165 192.1583
L203.2165 193.4440
" />
<path d="M203.2165 193.4440
L203.2879 193.5868
" />
<path d="M203.2879 193.5868
L203.4308 193.6583
" />
<path d="M203.4308 193.6583
L203.5736 193.6583
" />
<path d="M204.6451 193.5868
L204.5022 193.6583
" />
<path d="M204.5022 193.6583
L204.2165 193.6583
" />
<path d="M204.2165 193.6583
L204.0736 193.5868
" />
<path d="M204.0736 193.5868
L204.0022 193.4440
" />
<path d="M204.0022 193.4440
L204.0022 192.8726
" />
<path d="M204.0022 192.8726
L204.0736 192.7297
" />
<path d="M204.0736 192.7297
L204.2165 192.6583
" />
<path d="M204.2165 192.6583
L204.5022 192.6583
" />
<path d="M204.5022 192.6583
L204.6451 192.7297
" />
<path d="M204.6451 192.7297
L204.7165 192.8726
" />
<path d="M204.7165 192.8726
L204.7165 193.0154
" />
<path d="M204.7165 193.0154
L204.0022 193.1583
" />
<path d="M205.3593 193.5154
L205.4308 193.5868
" />
<path d="M205.4308 193.5868
L205.3593 193.6583
" />
<path d="M205.3593 193.6583
L205.2879 193.5868
" />
<path d="M205.2879 193.5868
L205.3593 193.5154
" />
<path d="M205.3593 193.5154
L205.3593 193.6583
" />
<path d="M205.3593 192.7297
L205.4308 192.8011
" />
<path d="M205.4308 192.8011
L205.3593 192.8726
" />
<path d="M205.3593 192.8726
L205.2879 192.8011
" />
<path d="M205.2879 192.8011
L205.3593 192.7297
" />
<path d="M205.3593 192.7297
L205.3593 192.8726
" />
</g></g>
<g style="fill:#000000; fill-opacity:0.0; 
stroke:#000000; stroke-width:0.0212; stroke-opacity:1; 
stroke-linecap:round; stroke-linejoin:round;">
</g>
<g style="fill:#000000; fill-opacity:0.0; 
stroke:#000000; stroke-width:0.1500; stroke-opacity:1; 
stroke-linecap:round; stroke-linejoin:round;">
<path d="M177.0022 194.5072
L285.0022 194.5072
" />
</g>
<g style="fill:#000000; fill-opacity:0.0; 
stroke:#000000; stroke-width:0.0212; stroke-opacity:1; 
stroke-linecap:round; stroke-linejoin:round;">
</g>
<g style="fill:#000000; fill-opacity:0.0; 
stroke:#000000; stroke-width:0.1500; stroke-opacity:1; 
stroke-linecap:round; stroke-linejoin:round;">
<text x="178.0022" y="196.6572"
textLength="32.3179" font-size="2.0000" lengthAdjust="spacingAndGlyphs"
text-anchor="start" opacity="0">KiCad E.D.A.  pcbnew (7.0.0)</text>
<g class="stroked-text"><desc>KiCad E.D.A.  pcbnew (7.0.0)</desc>
<path d="M178.3593 196.4583
L178.3593 194.9583
" />
<path d="M179.2165 196.4583
L178.5736 195.6011
" />
<path d="M179.2165 194.9583
L178.3593 195.8154
" />
<path d="M179.8593 196.4583
L179.8593 195.4583
" />
<path d="M179.8593 194.9583
L179.7879 195.0297
" />
<path d="M179.7879 195.0297
L179.8593 195.1011
" />
<path d="M179.8593 195.1011
L179.9308 195.0297
" />
<path d="M179.9308 195.0297
L179.8593 194.9583
" />
<path d="M179.8593 194.9583
L179.8593 195.1011
" />
<path d="M181.4308 196.3154
L181.3593 196.3868
" />
<path d="M181.3593 196.3868
L181.1451 196.4583
" />
<path d="M181.1451 196.4583
L181.0022 196.4583
" />
<path d="M181.0022 196.4583
L180.7879 196.3868
" />
<path d="M180.7879 196.3868
L180.6451 196.2440
" />
<path d="M180.6451 196.2440
L180.5736 196.1011
" />
<path d="M180.5736 196.1011
L180.5022 195.8154
" />
<path d="M180.5022 195.8154
L180.5022 195.6011
" />
<path d="M180.5022 195.6011
L180.5736 195.3154
" />
<path d="M180.5736 195.3154
L180.6451 195.1726
" />
<path d="M180.6451 195.1726
L180.7879 195.0297
" />
<path d="M180.7879 195.0297
L181.0022 194.9583
" />
<path d="M181.0022 194.9583
L181.1451 194.9583
" />
<path d="M181.1451 194.9583
L181.3593 195.0297
" />
<path d="M181.3593 195.0297
L181.4308 195.1011
" />
<path d="M182.7165 196.4583
L182.7165 195.6726
" />
<path d="M182.7165 195.6726
L182.6451 195.5297
" />
<path d="M182.6451 195.5297
L182.5022 195.4583
" />
<path d="M182.5022 195.4583
L182.2165 195.4583
" />
<path d="M182.2165 195.4583
L182.0736 195.5297
" />
<path d="M182.7165 196.3868
L182.5736 196.4583
" />
<path d="M182.5736 196.4583
L182.2165 196.4583
" />
<path d="M182.2165 196.4583
L182.0736 196.3868
" />
<path d="M182.0736 196.3868
L182.0022 196.2440
" />
<path d="M182.0022 196.2440
L182.0022 196.1011
" />
<path d="M182.0022 196.1011
L182.0736 195.9583
" />
<path d="M182.0736 195.9583
L182.2165 195.8868
" />
<path d="M182.2165 195.8868
L182.5736 195.8868
" />
<path d="M182.5736 195.8868
L182.7165 195.8154
" />
<path d="M184.0736 196.4583
L184.0736 194.9583
" />
<path d="M184.0736 196.3868
L183.9308 196.4583
" />
<path d="M183.9308 196.4583
L183.6451 196.4583
" />
<path d="M183.6451 196.4583
L183.5022 196.3868
" />
<path d="M183.5022 196.3868
L183.4308 196.3154
" />
<path d="M183.4308 196.3154
L183.3593 196.1726
" />
<path d="M183.3593 196.1726
L183.3593 195.7440
" />
<path d="M183.3593 195.7440
L183.4308 195.6011
" />
<path d="M183.4308 195.6011
L183.5022 195.5297
" />
<path d="M183.5022 195.5297
L183.6451 195.4583
" />
<path d="M183.6451 195.4583
L183.9308 195.4583
" />
<path d="M183.9308 195.4583
L184.0736 195.5297
" />
<path d="M185.6879 195.6726
L186.1879 195.6726
" />
<path d="M186.4022 196.4583
L185.6879 196.4583
" />
<path d="M185.6879 196.4583
L185.6879 194.9583
" />
<path d="M185.6879 194.9583
L186.4022 194.9583
" />
<path d="M187.0451 196.3154
L187.1165 196.3868
" />
<path d="M187.1165 196.3868
L187.0451 196.4583
" />
<path d="M187.0451 196.4583
L186.9736 196.3868
" />
<path d="M186.9736 196.3868
L187.0451 196.3154
" />
<path d="M187.0451 196.3154
L187.0451 196.4583
" />
<path d="M187.7593 196.4583
L187.7593 194.9583
" />
<path d="M187.7593 194.9583
L188.1165 194.9583
" />
<path d="M188.1165 194.9583
L188.3308 195.0297
" />
<path d="M188.3308 195.0297
L188.4736 195.1726
" />
<path d="M188.4736 195.1726
L188.5451 195.3154
" />
<path d="M188.5451 195.3154
L188.6165 195.6011
" />
<path d="M188.6165 195.6011
L188.6165 195.8154
" />
<path d="M188.6165 195.8154
L188.5451 196.1011
" />
<path d="M188.5451 196.1011
L188.4736 196.2440
" />
<path d="M188.4736 196.2440
L188.3308 196.3868
" />
<path d="M188.3308 196.3868
L188.1165 196.4583
" />
<path d="M188.1165 196.4583
L187.7593 196.4583
" />
<path d="M189.2593 196.3154
L189.3308 196.3868
" />
<path d="M189.3308 196.3868
L189.2593 196.4583
" />
<path d="M189.2593 196.4583
L189.1879 196.3868
" />
<path d="M189.1879 196.3868
L189.2593 196.3154
" />
<path d="M189.2593 196.3154
L189.2593 196.4583
" />
<path d="M189.9022 196.0297
L190.6165 196.0297
" />
<path d="M189.7593 196.4583
L190.2593 194.9583
" />
<path d="M190.2593 194.9583
L190.7593 196.4583
" />
<path d="M191.2593 196.3154
L191.3308 196.3868
" />
<path d="M191.3308 196.3868
L191.2593 196.4583
" />
<path d="M191.2593 196.4583
L191.1879 196.3868
" />
<path d="M191.1879 196.3868
L191.2593 196.3154
" />
<path d="M191.2593 196.3154
L191.2593 196.4583
" />
<path d="M193.7736 195.4583
L193.7736 196.9583
" />
<path d="M193.7736 195.5297
L193.9165 195.4583
" />
<path d="M193.9165 195.4583
L194.2022 195.4583
" />
<path d="M194.2022 195.4583
L194.3451 195.5297
" />
<path d="M194.3451 195.5297
L194.4165 195.6011
" />
<path d="M194.4165 195.6011
L194.4879 195.7440
" />
<path d="M194.4879 195.7440
L194.4879 196.1726
" />
<path d="M194.4879 196.1726
L194.4165 196.3154
" />
<path d="M194.4165 196.3154
L194.3451 196.3868
" />
<path d="M194.3451 196.3868
L194.2022 196.4583
" />
<path d="M194.2022 196.4583
L193.9165 196.4583
" />
<path d="M193.9165 196.4583
L193.7736 196.3868
" />
<path d="M195.7736 196.3868
L195.6308 196.4583
" />
<path d="M195.6308 196.4583
L195.3451 196.4583
" />
<path d="M195.3451 196.4583
L195.2022 196.3868
" />
<path d="M195.2022 196.3868
L195.1308 196.3154
" />
<path d="M195.1308 196.3154
L195.0593 196.1726
" />
<path d="M195.0593 196.1726
L195.0593 195.7440
" />
<path d="M195.0593 195.7440
L195.1308 195.6011
" />
<path d="M195.1308 195.6011
L195.2022 195.5297
" />
<path d="M195.2022 195.5297
L195.3451 195.4583
" />
<path d="M195.3451 195.4583
L195.6308 195.4583
" />
<path d="M195.6308 195.4583
L195.7736 195.5297
" />
<path d="M196.4165 196.4583
L196.4165 194.9583
" />
<path d="M196.4165 195.5297
L196.5593 195.4583
" />
<path d="M196.5593 195.4583
L196.8451 195.4583
" />
<path d="M196.8451 195.4583
L196.9879 195.5297
" />
<path d="M196.9879 195.5297
L197.0593 195.6011
" />
<path d="M197.0593 195.6011
L197.1308 195.7440
" />
<path d="M197.1308 195.7440
L197.1308 196.1726
" />
<path d="M197.1308 196.1726
L197.0593 196.3154
" />
<path d="M197.0593 196.3154
L196.9879 196.3868
" />
<path d="M196.9879 196.3868
L196.8451 196.4583
" />
<path d="M196.8451 196.4583
L196.5593 196.4583
" />
<path d="M196.5593 196.4583
L196.4165 196.3868
" />
<path d="M197.7736 195.4583
L197.7736 196.4583
" />
<path d="M197.7736 195.6011
L197.8451 195.5297
" />
<path d="M197.8451 195.5297
L197.9879 195.4583
" />
<path d="M197.9879 195.4583
L198.2022 195.4583
" />
<path d="M198.2022 195.4583
L198.3451 195.5297
" />
<path d="M198.3451 195.5297
L198.4165 195.6726
" />
<path d="M198.4165 195.6726
L198.4165 196.4583
" />
<path d="M199.7022 196.3868
L199.5593 196.4583
" />
<path d="M199.5593 196.4583
L199.2736 196.4583
" />
<path d="M199.2736 196.4583
L199.1308 196.3868
" />
<path d="M199.1308 196.3868
L199.0593 196.2440
" />
<path d="M199.0593 196.2440
L199.0593 195.6726
" />
<path d="M199.0593 195.6726
L199.1308 195.5297
" />
<path d="M199.1308 195.5297
L199.2736 195.4583
" />
<path d="M199.2736 195.4583
L199.5593 195.4583
" />
<path d="M199.5593 195.4583
L199.7022 195.5297
" />
<path d="M199.7022 195.5297
L199.7736 195.6726
" />
<path d="M199.7736 195.6726
L199.7736 195.8154
" />
<path d="M199.7736 195.8154
L199.0593 195.9583
" />
<path d="M200.2736 195.4583
L200.5593 196.4583
" />
<path d="M200.5593 196.4583
L200.8451 195.7440
" />
<path d="M200.8451 195.7440
L201.1308 196.4583
" />
<path d="M201.1308 196.4583
L201.4165 195.4583
" />
<path d="M203.3165 197.0297
L203.2451 196.9583
" />
<path d="M203.2451 196.9583
L203.1022 196.7440
" />
<path d="M203.1022 196.7440
L203.0308 196.6011
" />
<path d="M203.0308 196.6011
L202.9593 196.3868
" />
<path d="M202.9593 196.3868
L202.8879 196.0297
" />
<path d="M202.8879 196.0297
L202.8879 195.7440
" />
<path d="M202.8879 195.7440
L202.9593 195.3868
" />
<path d="M202.9593 195.3868
L203.0308 195.1726
" />
<path d="M203.0308 195.1726
L203.1022 195.0297
" />
<path d="M203.1022 195.0297
L203.2451 194.8154
" />
<path d="M203.2451 194.8154
L203.3165 194.7440
" />
<path d="M203.7451 194.9583
L204.7451 194.9583
" />
<path d="M204.7451 194.9583
L204.1022 196.4583
" />
<path d="M205.3165 196.3154
L205.3879 196.3868
" />
<path d="M205.3879 196.3868
L205.3165 196.4583
" />
<path d="M205.3165 196.4583
L205.2451 196.3868
" />
<path d="M205.2451 196.3868
L205.3165 196.3154
" />
<path d="M205.3165 196.3154
L205.3165 196.4583
" />
<path d="M206.3165 194.9583
L206.4593 194.9583
" />
<path d="M206.4593 194.9583
L206.6022 195.0297
" />
<path d="M206.6022 195.0297
L206.6736 195.1011
" />
<path d="M206.6736 195.1011
L206.7451 195.2440
" />
<path d="M206.7451 195.2440
L206.8165 195.5297
" />
<path d="M206.8165 195.5297
L206.8165 195.8868
" />
<path d="M206.8165 195.8868
L206.7451 196.1726
" />
<path d="M206.7451 196.1726
L206.6736 196.3154
" />
<path d="M206.6736 196.3154
L206.6022 196.3868
" />
<path d="M206.6022 196.3868
L206.4593 196.4583
" />
<path d="M206.4593 196.4583
L206.3165 196.4583
" />
<path d="M206.3165 196.4583
L206.1736 196.3868
" />
<path d="M206.1736 196.3868
L206.1022 196.3154
" />
<path d="M206.1022 196.3154
L206.0308 196.1726
" />
<path d="M206.0308 196.1726
L205.9593 195.8868
" />
<path d="M205.9593 195.8868
L205.9593 195.5297
" />
<path d="M205.9593 195.5297
L206.0308 195.2440
" />
<path d="M206.0308 195.2440
L206.1022 195.1011
" />
<path d="M206.1022 195.1011
L206.1736 195.0297
" />
<path d="M206.1736 195.0297
L206.3165 194.9583
" />
<path d="M207.4593 196.3154
L207.5308 196.3868
" />
<path d="M207.5308 196.3868
L207.4593 196.4583
" />
<path d="M207.4593 196.4583
L207.3879 196.3868
" />
<path d="M207.3879 196.3868
L207.4593 196.3154
" />
<path d="M207.4593 196.3154
L207.4593 196.4583
" />
<path d="M208.4593 194.9583
L208.6022 194.9583
" />
<path d="M208.6022 194.9583
L208.7451 195.0297
" />
<path d="M208.7451 195.0297
L208.8165 195.1011
" />
<path d="M208.8165 195.1011
L208.8879 195.2440
" />
<path d="M208.8879 195.2440
L208.9593 195.5297
" />
<path d="M208.9593 195.5297
L208.9593 195.8868
" />
<path d="M208.9593 195.8868
L208.8879 196.1726
" />
<path d="M208.8879 196.1726
L208.8165 196.3154
" />
<path d="M208.8165 196.3154
L208.7451 196.3868
" />
<path d="M208.7451 196.3868
L208.6022 196.4583
" />
<path d="M208.6022 196.4583
L208.4593 196.4583
" />
<path d="M208.4593 196.4583
L208.3165 196.3868
" />
<path d="M208.3165 196.3868
L208.2451 196.3154
" />
<path d="M208.2451 196.3154
L208.1736 196.1726
" />
<path d="M208.1736 196.1726
L208.1022 195.8868
" />
<path d="M208.1022 195.8868
L208.1022 195.5297
" />
<path d="M208.1022 195.5297
L208.1736 195.2440
" />
<path d="M208.1736 195.2440
L208.2451 195.1011
" />
<path d="M208.2451 195.1011
L208.3165 195.0297
" />
<path d="M208.3165 195.0297
L208.4593 194.9583
" />
<path d="M209.4593 197.0297
L209.5308 196.9583
" />
<path d="M209.5308 196.9583
L209.6736 196.7440
" />
<path d="M209.6736 196.7440
L209.7451 196.6011
" />
<path d="M209.7451 196.6011
L209.8165 196.3868
" />
<path d="M209.8165 196.3868
L209.8879 196.0297
" />
<path d="M209.8879 196.0297
L209.8879 195.7440
" />
<path d="M209.8879 195.7440
L209.8165 195.3868
" />
<path d="M209.8165 195.3868
L209.7451 195.1726
" />
<path d="M209.7451 195.1726
L209.6736 195.0297
" />
<path d="M209.6736 195.0297
L209.5308 194.8154
" />
<path d="M209.5308 194.8154
L209.4593 194.7440
" />
</g></g>
<g style="fill:#000000; fill-opacity:0.0; 
stroke:#000000; stroke-width:0.0212; stroke-opacity:1; 
stroke-linecap:round; stroke-linejoin:round;">
</g>
<g style="fill:#000000; fill-opacity:0.0; 
stroke:#000000; stroke-width:0.1500; stroke-opacity:1; 
stroke-linecap:round; stroke-linejoin:round;">
<path d="M177.0022 191.5072
L285.0022 191.5072
" />
</g>
<g style="fill:#000000; fill-opacity:0.0; 
stroke:#000000; stroke-width:0.0212; stroke-opacity:1; 
stroke-linecap:round; stroke-linejoin:round;">
</g>
<g style="fill:#000000; fill-opacity:0.0; 
stroke:#000000; stroke-width:0.3000; stroke-opacity:1; 
stroke-linecap:round; stroke-linejoin:round;">
<text x="263.0022" y="193.8572"
textLength="5.9929" font-size="2.0000" lengthAdjust="spacingAndGlyphs"
text-anchor="start" opacity="0">Rev: </text>
<g class="stroked-text"><desc>Rev: </desc>
<path d="M264.2165 193.6583
L263.7165 192.9440
" />
<path d="M263.3593 193.6583
L263.3593 192.1583
" />
<path d="M263.3593 192.1583
L263.9308 192.1583
" />
<path d="M263.9308 192.1583
L264.0736 192.2297
" />
<path d="M264.0736 192.2297
L264.1451 192.3011
" />
<path d="M264.1451 192.3011
L264.2165 192.4440
" />
<path d="M264.2165 192.4440
L264.2165 192.6583
" />
<path d="M264.2165 192.6583
L264.1451 192.8011
" />
<path d="M264.1451 192.8011
L264.0736 192.8726
" />
<path d="M264.0736 192.8726
L263.9308 192.9440
" />
<path d="M263.9308 192.9440
L263.3593 192.9440
" />
<path d="M265.4308 193.5868
L265.2879 193.6583
" />
<path d="M265.2879 193.6583
L265.0022 193.6583
" />
<path d="M265.0022 193.6583
L264.8593 193.5868
" />
<path d="M264.8593 193.5868
L264.7879 193.4440
" />
<path d="M264.7879 193.4440
L264.7879 192.8726
" />
<path d="M264.7879 192.8726
L264.8593 192.7297
" />
<path d="M264.8593 192.7297
L265.0022 192.6583
" />
<path d="M265.0022 192.6583
L265.2879 192.6583
" />
<path d="M265.2879 192.6583
L265.4308 192.7297
" />
<path d="M265.4308 192.7297
L265.5022 192.8726
" />
<path d="M265.5022 192.8726
L265.5022 193.0154
" />
<path d="M265.5022 193.0154
L264.7879 193.1583
" />
<path d="M266.0022 192.6583
L266.3593 193.6583
" />
<path d="M266.3593 193.6583
L266.7165 192.6583
" />
<path d="M267.2879 193.5154
L267.3593 193.5868
" />
<path d="M267.3593 193.5868
L267.2879 193.6583
" />
<path d="M267.2879 193.6583
L267.2165 193.5868
" />
<path d="M267.2165 193.5868
L267.2879 193.5154
" />
<path d="M267.2879 193.5154
L267.2879 193.6583
" />
<path d="M267.2879 192.7297
L267.3593 192.8011
" />
<path d="M267.3593 192.8011
L267.2879 192.8726
" />
<path d="M267.2879 192.8726
L267.2165 192.8011
" />
<path d="M267.2165 192.8011
L267.2879 192.7297
" />
<path d="M267.2879 192.7297
L267.2879 192.8726
" />
</g></g>
<g style="fill:#000000; fill-opacity:0.0; 
stroke:#000000; stroke-width:0.0212; stroke-opacity:1; 
stroke-linecap:round; stroke-linejoin:round;">
</g>
<g style="fill:#000000; fill-opacity:0.0; 
stroke:#000000; stroke-width:0.1500; stroke-opacity:1; 
stroke-linecap:round; stroke-linejoin:round;">
<text x="178.0022" y="193.8572"
textLength="9.0464" font-size="2.0000" lengthAdjust="spacingAndGlyphs"
text-anchor="start" opacity="0">Size: A4</text>
<g class="stroked-text"><desc>Size: A4</desc>
<path d="M178.2879 193.5868
L178.5022 193.6583
" />
<path d="M178.5022 193.6583
L178.8593 193.6583
" />
<path d="M178.8593 193.6583
L179.0022 193.5868
" />
<path d="M179.0022 193.5868
L179.0736 193.5154
" />
<path d="M179.0736 193.5154
L179.1451 193.3726
" />
<path d="M179.1451 193.3726
L179.1451 193.2297
" />
<path d="M179.1451 193.2297
L179.0736 193.0868
" />
<path d="M179.0736 193.0868
L179.0022 193.0154
" />
<path d="M179.0022 193.0154
L178.8593 192.9440
" />
<path d="M178.8593 192.9440
L178.5736 192.8726
" />
<path d="M178.5736 192.8726
L178.4308 192.8011
" />
<path d="M178.4308 192.8011
L178.3593 192.7297
" />
<path d="M178.3593 192.7297
L178.2879 192.5868
" />
<path d="M178.2879 192.5868
L178.2879 192.4440
" />
<path d="M178.2879 192.4440
L178.3593 192.3011
" />
<path d="M178.3593 192.3011
L178.4308 192.2297
" />
<path d="M178.4308 192.2297
L178.5736 192.1583
" />
<path d="M178.5736 192.1583
L178.9308 192.1583
" />
<path d="M178.9308 192.1583
L179.1451 192.2297
" />
<path d="M179.7879 193.6583
L179.7879 192.6583
" />
<path d="M179.7879 192.1583
L179.7165 192.2297
" />
<path d="M179.7165 192.2297
L179.7879 192.3011
" />
<path d="M179.7879 192.3011
L179.8593 192.2297
" />
<path d="M179.8593 192.2297
L179.7879 192.1583
" />
<path d="M179.7879 192.1583
L179.7879 192.3011
" />
<path d="M180.3593 192.6583
L181.1451 192.6583
" />
<path d="M181.1451 192.6583
L180.3593 193.6583
" />
<path d="M180.3593 193.6583
L181.1451 193.6583
" />
<path d="M182.2879 193.5868
L182.1451 193.6583
" />
<path d="M182.1451 193.6583
L181.8593 193.6583
" />
<path d="M181.8593 193.6583
L181.7165 193.5868
" />
<path d="M181.7165 193.5868
L181.6451 193.4440
" />
<path d="M181.6451 193.4440
L181.6451 192.8726
" />
<path d="M181.6451 192.8726
L181.7165 192.7297
" />
<path d="M181.7165 192.7297
L181.8593 192.6583
" />
<path d="M181.8593 192.6583
L182.1451 192.6583
" />
<path d="M182.1451 192.6583
L182.2879 192.7297
" />
<path d="M182.2879 192.7297
L182.3593 192.8726
" />
<path d="M182.3593 192.8726
L182.3593 193.0154
" />
<path d="M182.3593 193.0154
L181.6451 193.1583
" />
<path d="M183.0022 193.5154
L183.0736 193.5868
" />
<path d="M183.0736 193.5868
L183.0022 193.6583
" />
<path d="M183.0022 193.6583
L182.9308 193.5868
" />
<path d="M182.9308 193.5868
L183.0022 193.5154
" />
<path d="M183.0022 193.5154
L183.0022 193.6583
" />
<path d="M183.0022 192.7297
L183.0736 192.8011
" />
<path d="M183.0736 192.8011
L183.0022 192.8726
" />
<path d="M183.0022 192.8726
L182.9308 192.8011
" />
<path d="M182.9308 192.8011
L183.0022 192.7297
" />
<path d="M183.0022 192.7297
L183.0022 192.8726
" />
<path d="M184.5451 193.2297
L185.2593 193.2297
" />
<path d="M184.4022 193.6583
L184.9022 192.1583
" />
<path d="M184.9022 192.1583
L185.4022 193.6583
" />
<path d="M186.5451 192.6583
L186.5451 193.6583
" />
<path d="M186.1879 192.0868
L185.8308 193.1583
" />
<path d="M185.8308 193.1583
L186.7593 193.1583
" />
</g></g>
<g style="fill:#000000; fill-opacity:0.0; 
stroke:#000000; stroke-width:0.0212; stroke-opacity:1; 
stroke-linecap:round; stroke-linejoin:round;">
</g>
<g style="fill:#000000; fill-opacity:0.0; 
stroke:#000000; stroke-width:0.1500; stroke-opacity:1; 
stroke-linecap:round; stroke-linejoin:round;">
<text x="263.0022" y="196.6572"
textLength="8.1893" font-size="2.0000" lengthAdjust="spacingAndGlyphs"
text-anchor="start" opacity="0">Id: 1/1</text>
<g class="stroked-text"><desc>Id: 1/1</desc>
<path d="M263.3593 196.4583
L263.3593 194.9583
" />
<path d="M264.7165 196.4583
L264.7165 194.9583
" />
<path d="M264.7165 196.3868
L264.5736 196.4583
" />
<path d="M264.5736 196.4583
L264.2879 196.4583
" />
<path d="M264.2879 196.4583
L264.1451 196.3868
" />
<path d="M264.1451 196.3868
L264.0736 196.3154
" />
<path d="M264.0736 196.3154
L264.0022 196.1726
" />
<path d="M264.0022 196.1726
L264.0022 195.7440
" />
<path d="M264.0022 195.7440
L264.0736 195.6011
" />
<path d="M264.0736 195.6011
L264.1451 195.5297
" />
<path d="M264.1451 195.5297
L264.2879 195.4583
" />
<path d="M264.2879 195.4583
L264.5736 195.4583
" />
<path d="M264.5736 195.4583
L264.7165 195.5297
" />
<path d="M265.4308 196.3154
L265.5022 196.3868
" />
<path d="M265.5022 196.3868
L265.4308 196.4583
" />
<path d="M265.4308 196.4583
L265.3593 196.3868
" />
<path d="M265.3593 196.3868
L265.4308 196.3154
" />
<path d="M265.4308 196.3154
L265.4308 196.4583
" />
<path d="M265.4308 195.5297
L265.5022 195.6011
" />
<path d="M265.5022 195.6011
L265.4308 195.6726
" />
<path d="M265.4308 195.6726
L265.3593 195.6011
" />
<path d="M265.3593 195.6011
L265.4308 195.5297
" />
<path d="M265.4308 195.5297
L265.4308 195.6726
" />
<path d="M267.8308 196.4583
L266.9736 196.4583
" />
<path d="M267.4022 196.4583
L267.4022 194.9583
" />
<path d="M267.4022 194.9583
L267.2593 195.1726
" />
<path d="M267.2593 195.1726
L267.1165 195.3154
" />
<path d="M267.1165 195.3154
L266.9736 195.3868
" />
<path d="M269.5451 194.8868
L268.2593 196.8154
" />
<path d="M270.8308 196.4583
L269.9736 196.4583
" />
<path d="M270.4022 196.4583
L270.4022 194.9583
" />
<path d="M270.4022 194.9583
L270.2593 195.1726
" />
<path d="M270.2593 195.1726
L270.1165 195.3154
" />
<path d="M270.1165 195.3154
L269.9736 195.3868
" />
</g></g>
<g style="fill:#000000; fill-opacity:0.0; 
stroke:#000000; stroke-width:0.0212; stroke-opacity:1; 
stroke-linecap:round; stroke-linejoin:round;">
</g>
<g style="fill:#000000; fill-opacity:0.0; 
stroke:#000000; stroke-width:0.1500; stroke-opacity:1; 
stroke-linecap:round; stroke-linejoin:round;">
<path d="M177.0022 187.5072
L285.0022 187.5072
" />
</g>
<g style="fill:#000000; fill-opacity:0.0; 
stroke:#000000; stroke-width:0.0212; stroke-opacity:1; 
stroke-linecap:round; stroke-linejoin:round;">
</g>
<g style="fill:#000000; fill-opacity:0.0; 
stroke:#000000; stroke-width:0.4000; stroke-opacity:1; 
stroke-linecap:round; stroke-linejoin:round;">
<text x="178.0022" y="190.3072"
textLength="9.1333" font-size="2.6667" lengthAdjust="spacingAndGlyphs"
text-anchor="start" opacity="0">Title: </text>
<g class="stroked-text"><desc>Title: </desc>
<path d="M178.4546 188.0420
L179.5974 188.0420
" />
<path d="M178.7760 190.0420
L179.0260 188.0420
" />
<path d="M180.0141 190.0420
L180.1808 188.7086
" />
<path d="M180.2641 188.0420
L180.1570 188.1372
" />
<path d="M180.1570 188.1372
L180.2403 188.2324
" />
<path d="M180.2403 188.2324
L180.3474 188.1372
" />
<path d="M180.3474 188.1372
L180.2641 188.0420
" />
<path d="M180.2641 188.0420
L180.2403 188.2324
" />
<path d="M180.8474 188.7086
L181.6093 188.7086
" />
<path d="M181.2165 188.0420
L181.0022 189.7562
" />
<path d="M181.0022 189.7562
L181.0736 189.9467
" />
<path d="M181.0736 189.9467
L181.2522 190.0420
" />
<path d="M181.2522 190.0420
L181.4427 190.0420
" />
<path d="M182.3951 190.0420
L182.2165 189.9467
" />
<path d="M182.2165 189.9467
L182.1451 189.7562
" />
<path d="M182.1451 189.7562
L182.3593 188.0420
" />
<path d="M183.9308 189.9467
L183.7284 190.0420
" />
<path d="M183.7284 190.0420
L183.3474 190.0420
" />
<path d="M183.3474 190.0420
L183.1689 189.9467
" />
<path d="M183.1689 189.9467
L183.0974 189.7562
" />
<path d="M183.0974 189.7562
L183.1927 188.9943
" />
<path d="M183.1927 188.9943
L183.3117 188.8039
" />
<path d="M183.3117 188.8039
L183.5141 188.7086
" />
<path d="M183.5141 188.7086
L183.8951 188.7086
" />
<path d="M183.8951 188.7086
L184.0736 188.8039
" />
<path d="M184.0736 188.8039
L184.1451 188.9943
" />
<path d="M184.1451 188.9943
L184.1212 189.1848
" />
<path d="M184.1212 189.1848
L183.1451 189.3753
" />
<path d="M184.8951 189.8515
L184.9784 189.9467
" />
<path d="M184.9784 189.9467
L184.8712 190.0420
" />
<path d="M184.8712 190.0420
L184.7879 189.9467
" />
<path d="M184.7879 189.9467
L184.8951 189.8515
" />
<path d="M184.8951 189.8515
L184.8712 190.0420
" />
<path d="M185.0260 188.8039
L185.1093 188.8991
" />
<path d="M185.1093 188.8991
L185.0022 188.9943
" />
<path d="M185.0022 188.9943
L184.9189 188.8991
" />
<path d="M184.9189 188.8991
L185.0260 188.8039
" />
<path d="M185.0260 188.8039
L185.0022 188.9943
" />
</g></g>
<g style="fill:#000000; fill-opacity:0.0; 
stroke:#000000; stroke-width:0.0212; stroke-opacity:1; 
stroke-linecap:round; stroke-linejoin:round;">
</g>
<g style="fill:#000000; fill-opacity:0.0; 
stroke:#000000; stroke-width:0.1500; stroke-opacity:1; 
stroke-linecap:round; stroke-linejoin:round;">
<text x="178.0022" y="186.4572"
textLength="40.7750" font-size="2.0000" lengthAdjust="spacingAndGlyphs"
text-anchor="start" opacity="0">File: travaulta plate topre.kicad_pcb</text>
<g class="stroked-text"><desc>File: travaulta plate topre.kicad_pcb</desc>
<path d="M178.8593 185.4726
L178.3593 185.4726
" />
<path d="M178.3593 186.2583
L178.3593 184.7583
" />
<path d="M178.3593 184.7583
L179.0736 184.7583
" />
<path d="M179.6451 186.2583
L179.6451 185.2583
" />
<path d="M179.6451 184.7583
L179.5736 184.8297
" />
<path d="M179.5736 184.8297
L179.6451 184.9011
" />
<path d="M179.6451 184.9011
L179.7165 184.8297
" />
<path d="M179.7165 184.8297
L179.6451 184.7583
" />
<path d="M179.6451 184.7583
L179.6451 184.9011
" />
<path d="M180.5736 186.2583
L180.4308 186.1868
" />
<path d="M180.4308 186.1868
L180.3593 186.0440
" />
<path d="M180.3593 186.0440
L180.3593 184.7583
" />
<path d="M181.7165 186.1868
L181.5736 186.2583
" />
<path d="M181.5736 186.2583
L181.2879 186.2583
" />
<path d="M181.2879 186.2583
L181.1451 186.1868
" />
<path d="M181.1451 186.1868
L181.0736 186.0440
" />
<path d="M181.0736 186.0440
L181.0736 185.4726
" />
<path d="M181.0736 185.4726
L181.1451 185.3297
" />
<path d="M181.1451 185.3297
L181.2879 185.2583
" />
<path d="M181.2879 185.2583
L181.5736 185.2583
" />
<path d="M181.5736 185.2583
L181.7165 185.3297
" />
<path d="M181.7165 185.3297
L181.7879 185.4726
" />
<path d="M181.7879 185.4726
L181.7879 185.6154
" />
<path d="M181.7879 185.6154
L181.0736 185.7583
" />
<path d="M182.4308 186.1154
L182.5022 186.1868
" />
<path d="M182.5022 186.1868
L182.4308 186.2583
" />
<path d="M182.4308 186.2583
L182.3593 186.1868
" />
<path d="M182.3593 186.1868
L182.4308 186.1154
" />
<path d="M182.4308 186.1154
L182.4308 186.2583
" />
<path d="M182.4308 185.3297
L182.5022 185.4011
" />
<path d="M182.5022 185.4011
L182.4308 185.4726
" />
<path d="M182.4308 185.4726
L182.3593 185.4011
" />
<path d="M182.3593 185.4011
L182.4308 185.3297
" />
<path d="M182.4308 185.3297
L182.4308 185.4726
" />
<path d="M183.8308 185.2583
L184.4022 185.2583
" />
<path d="M184.0451 184.7583
L184.0451 186.0440
" />
<path d="M184.0451 186.0440
L184.1165 186.1868
" />
<path d="M184.1165 186.1868
L184.2593 186.2583
" />
<path d="M184.2593 186.2583
L184.4022 186.2583
" />
<path d="M184.9022 186.2583
L184.9022 185.2583
" />
<path d="M184.9022 185.5440
L184.9736 185.4011
" />
<path d="M184.9736 185.4011
L185.0451 185.3297
" />
<path d="M185.0451 185.3297
L185.1879 185.2583
" />
<path d="M185.1879 185.2583
L185.3308 185.2583
" />
<path d="M186.4736 186.2583
L186.4736 185.4726
" />
<path d="M186.4736 185.4726
L186.4022 185.3297
" />
<path d="M186.4022 185.3297
L186.2593 185.2583
" />
<path d="M186.2593 185.2583
L185.9736 185.2583
" />
<path d="M185.9736 185.2583
L185.8308 185.3297
" />
<path d="M186.4736 186.1868
L186.3308 186.2583
" />
<path d="M186.3308 186.2583
L185.9736 186.2583
" />
<path d="M185.9736 186.2583
L185.8308 186.1868
" />
<path d="M185.8308 186.1868
L185.7593 186.0440
" />
<path d="M185.7593 186.0440
L185.7593 185.9011
" />
<path d="M185.7593 185.9011
L185.8308 185.7583
" />
<path d="M185.8308 185.7583
L185.9736 185.6868
" />
<path d="M185.9736 185.6868
L186.3308 185.6868
" />
<path d="M186.3308 185.6868
L186.4736 185.6154
" />
<path d="M187.0451 185.2583
L187.4022 186.2583
" />
<path d="M187.4022 186.2583
L187.7593 185.2583
" />
<path d="M188.9736 186.2583
L188.9736 185.4726
" />
<path d="M188.9736 185.4726
L188.9022 185.3297
" />
<path d="M188.9022 185.3297
L188.7593 185.2583
" />
<path d="M188.7593 185.2583
L188.4736 185.2583
" />
<path d="M188.4736 185.2583
L188.3308 185.3297
" />
<path d="M188.9736 186.1868
L188.8308 186.2583
" />
<path d="M188.8308 186.2583
L188.4736 186.2583
" />
<path d="M188.4736 186.2583
L188.3308 186.1868
" />
<path d="M188.3308 186.1868
L188.2593 186.0440
" />
<path d="M188.2593 186.0440
L188.2593 185.9011
" />
<path d="M188.2593 185.9011
L188.3308 185.7583
" />
<path d="M188.3308 185.7583
L188.4736 185.6868
" />
<path d="M188.4736 185.6868
L188.8308 185.6868
" />
<path d="M188.8308 185.6868
L188.9736 185.6154
" />
<path d="M190.3308 185.2583
L190.3308 186.2583
" />
<path d="M189.6879 185.2583
L189.6879 186.0440
" />
<path d="M189.6879 186.0440
L189.7593 186.1868
" />
<path d="M189.7593 186.1868
L189.9022 186.2583
" />
<path d="M189.9022 186.2583
L190.1165 186.2583
" />
<path d="M190.1165 186.2583
L190.2593 186.1868
" />
<path d="M190.2593 186.1868
L190.3308 186.1154
" />
<path d="M191.2593 186.2583
L191.1165 186.1868
" />
<path d="M191.1165 186.1868
L191.0451 186.0440
" />
<path d="M191.0451 186.0440
L191.0451 184.7583
" />
<path d="M191.6165 185.2583
L192.1879 185.2583
" />
<path d="M191.8308 184.7583
L191.8308 186.0440
" />
<path d="M191.8308 186.0440
L191.9022 186.1868
" />
<path d="M191.9022 186.1868
L192.0451 186.2583
" />
<path d="M192.0451 186.2583
L192.1879 186.2583
" />
<path d="M193.3308 186.2583
L193.3308 185.4726
" />
<path d="M193.3308 185.4726
L193.2593 185.3297
" />
<path d="M193.2593 185.3297
L193.1165 185.2583
" />
<path d="M193.1165 185.2583
L192.8308 185.2583
" />
<path d="M192.8308 185.2583
L192.6879 185.3297
" />
<path d="M193.3308 186.1868
L193.1879 186.2583
" />
<path d="M193.1879 186.2583
L192.8308 186.2583
" />
<path d="M192.8308 186.2583
L192.6879 186.1868
" />
<path d="M192.6879 186.1868
L192.6165 186.0440
" />
<path d="M192.6165 186.0440
L192.6165 185.9011
" />
<path d="M192.6165 185.9011
L192.6879 185.7583
" />
<path d="M192.6879 185.7583
L192.8308 185.6868
" />
<path d="M192.8308 185.6868
L193.1879 185.6868
" />
<path d="M193.1879 185.6868
L193.3308 185.6154
" />
<path d="M194.9451 185.2583
L194.9451 186.7583
" />
<path d="M194.9451 185.3297
L195.0879 185.2583
" />
<path d="M195.0879 185.2583
L195.3736 185.2583
" />
<path d="M195.3736 185.2583
L195.5165 185.3297
" />
<path d="M195.5165 185.3297
L195.5879 185.4011
" />
<path d="M195.5879 185.4011
L195.6593 185.5440
" />
<path d="M195.6593 185.5440
L195.6593 185.9726
" />
<path d="M195.6593 185.9726
L195.5879 186.1154
" />
<path d="M195.5879 186.1154
L195.5165 186.1868
" />
<path d="M195.5165 186.1868
L195.3736 186.2583
" />
<path d="M195.3736 186.2583
L195.0879 186.2583
" />
<path d="M195.0879 186.2583
L194.9451 186.1868
" />
<path d="M196.5165 186.2583
L196.3736 186.1868
" />
<path d="M196.3736 186.1868
L196.3022 186.0440
" />
<path d="M196.3022 186.0440
L196.3022 184.7583
" />
<path d="M197.7308 186.2583
L197.7308 185.4726
" />
<path d="M197.7308 185.4726
L197.6593 185.3297
" />
<path d="M197.6593 185.3297
L197.5165 185.2583
" />
<path d="M197.5165 185.2583
L197.2308 185.2583
" />
<path d="M197.2308 185.2583
L197.0879 185.3297
" />
<path d="M197.7308 186.1868
L197.5879 186.2583
" />
<path d="M197.5879 186.2583
L197.2308 186.2583
" />
<path d="M197.2308 186.2583
L197.0879 186.1868
" />
<path d="M197.0879 186.1868
L197.0165 186.0440
" />
<path d="M197.0165 186.0440
L197.0165 185.9011
" />
<path d="M197.0165 185.9011
L197.0879 185.7583
" />
<path d="M197.0879 185.7583
L197.2308 185.6868
" />
<path d="M197.2308 185.6868
L197.5879 185.6868
" />
<path d="M197.5879 185.6868
L197.7308 185.6154
" />
<path d="M198.2308 185.2583
L198.8022 185.2583
" />
<path d="M198.4451 184.7583
L198.4451 186.0440
" />
<path d="M198.4451 186.0440
L198.5165 186.1868
" />
<path d="M198.5165 186.1868
L198.6593 186.2583
" />
<path d="M198.6593 186.2583
L198.8022 186.2583
" />
<path d="M199.8736 186.1868
L199.7308 186.2583
" />
<path d="M199.7308 186.2583
L199.4451 186.2583
" />
<path d="M199.4451 186.2583
L199.3022 186.1868
" />
<path d="M199.3022 186.1868
L199.2308 186.0440
" />
<path d="M199.2308 186.0440
L199.2308 185.4726
" />
<path d="M199.2308 185.4726
L199.3022 185.3297
" />
<path d="M199.3022 185.3297
L199.4451 185.2583
" />
<path d="M199.4451 185.2583
L199.7308 185.2583
" />
<path d="M199.7308 185.2583
L199.8736 185.3297
" />
<path d="M199.8736 185.3297
L199.9451 185.4726
" />
<path d="M199.9451 185.4726
L199.9451 185.6154
" />
<path d="M199.9451 185.6154
L199.2308 185.7583
" />
<path d="M201.2736 185.2583
L201.8451 185.2583
" />
<path d="M201.4879 184.7583
L201.4879 186.0440
" />
<path d="M201.4879 186.0440
L201.5593 186.1868
" />
<path d="M201.5593 186.1868
L201.7022 186.2583
" />
<path d="M201.7022 186.2583
L201.8451 186.2583
" />
<path d="M202.5593 186.2583
L202.4165 186.1868
" />
<path d="M202.4165 186.1868
L202.3451 186.1154
" />
<path d="M202.3451 186.1154
L202.2736 185.9726
" />
<path d="M202.2736 185.9726
L202.2736 185.5440
" />
<path d="M202.2736 185.5440
L202.3451 185.4011
" />
<path d="M202.3451 185.4011
L202.4165 185.3297
" />
<path d="M202.4165 185.3297
L202.5593 185.2583
" />
<path d="M202.5593 185.2583
L202.7736 185.2583
" />
<path d="M202.7736 185.2583
L202.9165 185.3297
" />
<path d="M202.9165 185.3297
L202.9879 185.4011
" />
<path d="M202.9879 185.4011
L203.0593 185.5440
" />
<path d="M203.0593 185.5440
L203.0593 185.9726
" />
<path d="M203.0593 185.9726
L202.9879 186.1154
" />
<path d="M202.9879 186.1154
L202.9165 186.1868
" />
<path d="M202.9165 186.1868
L202.7736 186.2583
" />
<path d="M202.7736 186.2583
L202.5593 186.2583
" />
<path d="M203.7022 185.2583
L203.7022 186.7583
" />
<path d="M203.7022 185.3297
L203.8451 185.2583
" />
<path d="M203.8451 185.2583
L204.1308 185.2583
" />
<path d="M204.1308 185.2583
L204.2736 185.3297
" />
<path d="M204.2736 185.3297
L204.3451 185.4011
" />
<path d="M204.3451 185.4011
L204.4165 185.5440
" />
<path d="M204.4165 185.5440
L204.4165 185.9726
" />
<path d="M204.4165 185.9726
L204.3451 186.1154
" />
<path d="M204.3451 186.1154
L204.2736 186.1868
" />
<path d="M204.2736 186.1868
L204.1308 186.2583
" />
<path d="M204.1308 186.2583
L203.8451 186.2583
" />
<path d="M203.8451 186.2583
L203.7022 186.1868
" />
<path d="M205.0593 186.2583
L205.0593 185.2583
" />
<path d="M205.0593 185.5440
L205.1308 185.4011
" />
<path d="M205.1308 185.4011
L205.2022 185.3297
" />
<path d="M205.2022 185.3297
L205.3451 185.2583
" />
<path d="M205.3451 185.2583
L205.4879 185.2583
" />
<path d="M206.5593 186.1868
L206.4165 186.2583
" />
<path d="M206.4165 186.2583
L206.1308 186.2583
" />
<path d="M206.1308 186.2583
L205.9879 186.1868
" />
<path d="M205.9879 186.1868
L205.9165 186.0440
" />
<path d="M205.9165 186.0440
L205.9165 185.4726
" />
<path d="M205.9165 185.4726
L205.9879 185.3297
" />
<path d="M205.9879 185.3297
L206.1308 185.2583
" />
<path d="M206.1308 185.2583
L206.4165 185.2583
" />
<path d="M206.4165 185.2583
L206.5593 185.3297
" />
<path d="M206.5593 185.3297
L206.6308 185.4726
" />
<path d="M206.6308 185.4726
L206.6308 185.6154
" />
<path d="M206.6308 185.6154
L205.9165 185.7583
" />
<path d="M207.2736 186.1154
L207.3451 186.1868
" />
<path d="M207.3451 186.1868
L207.2736 186.2583
" />
<path d="M207.2736 186.2583
L207.2022 186.1868
" />
<path d="M207.2022 186.1868
L207.2736 186.1154
" />
<path d="M207.2736 186.1154
L207.2736 186.2583
" />
<path d="M207.9879 186.2583
L207.9879 184.7583
" />
<path d="M208.1308 185.6868
L208.5593 186.2583
" />
<path d="M208.5593 185.2583
L207.9879 185.8297
" />
<path d="M209.2022 186.2583
L209.2022 185.2583
" />
<path d="M209.2022 184.7583
L209.1308 184.8297
" />
<path d="M209.1308 184.8297
L209.2022 184.9011
" />
<path d="M209.2022 184.9011
L209.2736 184.8297
" />
<path d="M209.2736 184.8297
L209.2022 184.7583
" />
<path d="M209.2022 184.7583
L209.2022 184.9011
" />
<path d="M210.5593 186.1868
L210.4165 186.2583
" />
<path d="M210.4165 186.2583
L210.1308 186.2583
" />
<path d="M210.1308 186.2583
L209.9879 186.1868
" />
<path d="M209.9879 186.1868
L209.9165 186.1154
" />
<path d="M209.9165 186.1154
L209.8451 185.9726
" />
<path d="M209.8451 185.9726
L209.8451 185.5440
" />
<path d="M209.8451 185.5440
L209.9165 185.4011
" />
<path d="M209.9165 185.4011
L209.9879 185.3297
" />
<path d="M209.9879 185.3297
L210.1308 185.2583
" />
<path d="M210.1308 185.2583
L210.4165 185.2583
" />
<path d="M210.4165 185.2583
L210.5593 185.3297
" />
<path d="M211.8451 186.2583
L211.8451 185.4726
" />
<path d="M211.8451 185.4726
L211.7736 185.3297
" />
<path d="M211.7736 185.3297
L211.6308 185.2583
" />
<path d="M211.6308 185.2583
L211.3451 185.2583
" />
<path d="M211.3451 185.2583
L211.2022 185.3297
" />
<path d="M211.8451 186.1868
L211.7022 186.2583
" />
<path d="M211.7022 186.2583
L211.3451 186.2583
" />
<path d="M211.3451 186.2583
L211.2022 186.1868
" />
<path d="M211.2022 186.1868
L211.1308 186.0440
" />
<path d="M211.1308 186.0440
L211.1308 185.9011
" />
<path d="M211.1308 185.9011
L211.2022 185.7583
" />
<path d="M211.2022 185.7583
L211.3451 185.6868
" />
<path d="M211.3451 185.6868
L211.7022 185.6868
" />
<path d="M211.7022 185.6868
L211.8451 185.6154
" />
<path d="M213.2022 186.2583
L213.2022 184.7583
" />
<path d="M213.2022 186.1868
L213.0593 186.2583
" />
<path d="M213.0593 186.2583
L212.7736 186.2583
" />
<path d="M212.7736 186.2583
L212.6308 186.1868
" />
<path d="M212.6308 186.1868
L212.5593 186.1154
" />
<path d="M212.5593 186.1154
L212.4879 185.9726
" />
<path d="M212.4879 185.9726
L212.4879 185.5440
" />
<path d="M212.4879 185.5440
L212.5593 185.4011
" />
<path d="M212.5593 185.4011
L212.6308 185.3297
" />
<path d="M212.6308 185.3297
L212.7736 185.2583
" />
<path d="M212.7736 185.2583
L213.0593 185.2583
" />
<path d="M213.0593 185.2583
L213.2022 185.3297
" />
<path d="M213.5593 186.4011
L214.7022 186.4011
" />
<path d="M215.0593 185.2583
L215.0593 186.7583
" />
<path d="M215.0593 185.3297
L215.2022 185.2583
" />
<path d="M215.2022 185.2583
L215.4879 185.2583
" />
<path d="M215.4879 185.2583
L215.6308 185.3297
" />
<path d="M215.6308 185.3297
L215.7022 185.4011
" />
<path d="M215.7022 185.4011
L215.7736 185.5440
" />
<path d="M215.7736 185.5440
L215.7736 185.9726
" />
<path d="M215.7736 185.9726
L215.7022 186.1154
" />
<path d="M215.7022 186.1154
L215.6308 186.1868
" />
<path d="M215.6308 186.1868
L215.4879 186.2583
" />
<path d="M215.4879 186.2583
L215.2022 186.2583
" />
<path d="M215.2022 186.2583
L215.0593 186.1868
" />
<path d="M217.0593 186.1868
L216.9165 186.2583
" />
<path d="M216.9165 186.2583
L216.6308 186.2583
" />
<path d="M216.6308 186.2583
L216.4879 186.1868
" />
<path d="M216.4879 186.1868
L216.4165 186.1154
" />
<path d="M216.4165 186.1154
L216.3451 185.9726
" />
<path d="M216.3451 185.9726
L216.3451 185.5440
" />
<path d="M216.3451 185.5440
L216.4165 185.4011
" />
<path d="M216.4165 185.4011
L216.4879 185.3297
" />
<path d="M216.4879 185.3297
L216.6308 185.2583
" />
<path d="M216.6308 185.2583
L216.9165 185.2583
" />
<path d="M216.9165 185.2583
L217.0593 185.3297
" />
<path d="M217.7022 186.2583
L217.7022 184.7583
" />
<path d="M217.7022 185.3297
L217.8451 185.2583
" />
<path d="M217.8451 185.2583
L218.1308 185.2583
" />
<path d="M218.1308 185.2583
L218.2736 185.3297
" />
<path d="M218.2736 185.3297
L218.3451 185.4011
" />
<path d="M218.3451 185.4011
L218.4165 185.5440
" />
<path d="M218.4165 185.5440
L218.4165 185.9726
" />
<path d="M218.4165 185.9726
L218.3451 186.1154
" />
<path d="M218.3451 186.1154
L218.2736 186.1868
" />
<path d="M218.2736 186.1868
L218.1308 186.2583
" />
<path d="M218.1308 186.2583
L217.8451 186.2583
" />
<path d="M217.8451 186.2583
L217.7022 186.1868
" />
</g></g>
<g style="fill:#000000; fill-opacity:0.0; 
stroke:#000000; stroke-width:0.0212; stroke-opacity:1; 
stroke-linecap:round; stroke-linejoin:round;">
</g>
<g style="fill:#000000; fill-opacity:0.0; 
stroke:#000000; stroke-width:0.1500; stroke-opacity:1; 
stroke-linecap:round; stroke-linejoin:round;">
<path d="M177.0022 181.5072
L285.0022 181.5072
" />
</g>
<g style="fill:#000000; fill-opacity:0.0; 
stroke:#000000; stroke-width:0.0212; stroke-opacity:1; 
stroke-linecap:round; stroke-linejoin:round;">
</g>
<g style="fill:#000000; fill-opacity:0.0; 
stroke:#000000; stroke-width:0.1500; stroke-opacity:1; 
stroke-linecap:round; stroke-linejoin:round;">
<text x="178.0022" y="183.7572"
textLength="7.9036" font-size="2.0000" lengthAdjust="spacingAndGlyphs"
text-anchor="start" opacity="0">Sheet: </text>
<g class="stroked-text"><desc>Sheet: </desc>
<path d="M178.2879 183.4868
L178.5022 183.5583
" />
<path d="M178.5022 183.5583
L178.8593 183.5583
" />
<path d="M178.8593 183.5583
L179.0022 183.4868
" />
<path d="M179.0022 183.4868
L179.0736 183.4154
" />
<path d="M179.0736 183.4154
L179.1451 183.2726
" />
<path d="M179.1451 183.2726
L179.1451 183.1297
" />
<path d="M179.1451 183.1297
L179.0736 182.9868
" />
<path d="M179.0736 182.9868
L179.0022 182.9154
" />
<path d="M179.0022 182.9154
L178.8593 182.8440
" />
<path d="M178.8593 182.8440
L178.5736 182.7726
" />
<path d="M178.5736 182.7726
L178.4308 182.7011
" />
<path d="M178.4308 182.7011
L178.3593 182.6297
" />
<path d="M178.3593 182.6297
L178.2879 182.4868
" />
<path d="M178.2879 182.4868
L178.2879 182.3440
" />
<path d="M178.2879 182.3440
L178.3593 182.2011
" />
<path d="M178.3593 182.2011
L178.4308 182.1297
" />
<path d="M178.4308 182.1297
L178.5736 182.0583
" />
<path d="M178.5736 182.0583
L178.9308 182.0583
" />
<path d="M178.9308 182.0583
L179.1451 182.1297
" />
<path d="M179.7879 183.5583
L179.7879 182.0583
" />
<path d="M180.4308 183.5583
L180.4308 182.7726
" />
<path d="M180.4308 182.7726
L180.3593 182.6297
" />
<path d="M180.3593 182.6297
L180.2165 182.5583
" />
<path d="M180.2165 182.5583
L180.0022 182.5583
" />
<path d="M180.0022 182.5583
L179.8593 182.6297
" />
<path d="M179.8593 182.6297
L179.7879 182.7011
" />
<path d="M181.7165 183.4868
L181.5736 183.5583
" />
<path d="M181.5736 183.5583
L181.2879 183.5583
" />
<path d="M181.2879 183.5583
L181.1451 183.4868
" />
<path d="M181.1451 183.4868
L181.0736 183.3440
" />
<path d="M181.0736 183.3440
L181.0736 182.7726
" />
<path d="M181.0736 182.7726
L181.1451 182.6297
" />
<path d="M181.1451 182.6297
L181.2879 182.5583
" />
<path d="M181.2879 182.5583
L181.5736 182.5583
" />
<path d="M181.5736 182.5583
L181.7165 182.6297
" />
<path d="M181.7165 182.6297
L181.7879 182.7726
" />
<path d="M181.7879 182.7726
L181.7879 182.9154
" />
<path d="M181.7879 182.9154
L181.0736 183.0583
" />
<path d="M183.0022 183.4868
L182.8593 183.5583
" />
<path d="M182.8593 183.5583
L182.5736 183.5583
" />
<path d="M182.5736 183.5583
L182.4308 183.4868
" />
<path d="M182.4308 183.4868
L182.3593 183.3440
" />
<path d="M182.3593 183.3440
L182.3593 182.7726
" />
<path d="M182.3593 182.7726
L182.4308 182.6297
" />
<path d="M182.4308 182.6297
L182.5736 182.5583
" />
<path d="M182.5736 182.5583
L182.8593 182.5583
" />
<path d="M182.8593 182.5583
L183.0022 182.6297
" />
<path d="M183.0022 182.6297
L183.0736 182.7726
" />
<path d="M183.0736 182.7726
L183.0736 182.9154
" />
<path d="M183.0736 182.9154
L182.3593 183.0583
" />
<path d="M183.5022 182.5583
L184.0736 182.5583
" />
<path d="M183.7165 182.0583
L183.7165 183.3440
" />
<path d="M183.7165 183.3440
L183.7879 183.4868
" />
<path d="M183.7879 183.4868
L183.9308 183.5583
" />
<path d="M183.9308 183.5583
L184.0736 183.5583
" />
<path d="M184.5736 183.4154
L184.6451 183.4868
" />
<path d="M184.6451 183.4868
L184.5736 183.5583
" />
<path d="M184.5736 183.5583
L184.5022 183.4868
" />
<path d="M184.5022 183.4868
L184.5736 183.4154
" />
<path d="M184.5736 183.4154
L184.5736 183.5583
" />
<path d="M184.5736 182.6297
L184.6451 182.7011
" />
<path d="M184.6451 182.7011
L184.5736 182.7726
" />
<path d="M184.5736 182.7726
L184.5022 182.7011
" />
<path d="M184.5022 182.7011
L184.5736 182.6297
" />
<path d="M184.5736 182.6297
L184.5736 182.7726
" />
</g></g>
<g style="fill:#000000; fill-opacity:0.0; 
stroke:#000000; stroke-width:0.0212; stroke-opacity:1; 
stroke-linecap:round; stroke-linejoin:round;">
</g>
<g style="fill:#000000; fill-opacity:0.0; 
stroke:#000000; stroke-width:0.3000; stroke-opacity:1; 
stroke-linecap:round; stroke-linejoin:round;">
<text x="178.0022" y="180.7572"
textLength="0.7500" font-size="2.0000" lengthAdjust="spacingAndGlyphs"
text-anchor="start" opacity="0"></text>
<g class="stroked-text"><desc></desc>
</g></g>
<g style="fill:#000000; fill-opacity:0.0; 
stroke:#000000; stroke-width:0.0212; stroke-opacity:1; 
stroke-linecap:round; stroke-linejoin:round;">
</g>
<g style="fill:#000000; fill-opacity:0.0; 
stroke:#000000; stroke-width:0.1500; stroke-opacity:1; 
stroke-linecap:round; stroke-linejoin:round;">
<text x="178.0022" y="177.7572"
textLength="0.3750" font-size="2.0000" lengthAdjust="spacingAndGlyphs"
text-anchor="start" opacity="0"></text>
<g class="stroked-text"><desc></desc>
</g></g>
<g style="fill:#000000; fill-opacity:0.0; 
stroke:#000000; stroke-width:0.0212; stroke-opacity:1; 
stroke-linecap:round; stroke-linejoin:round;">
</g>
<g style="fill:#000000; fill-opacity:0.0; 
stroke:#000000; stroke-width:0.1500; stroke-opacity:1; 
stroke-linecap:round; stroke-linejoin:round;">
<text x="178.0022" y="174.7572"
textLength="0.3750" font-size="2.0000" lengthAdjust="spacingAndGlyphs"
text-anchor="start" opacity="0"></text>
<g class="stroked-text"><desc></desc>
</g></g>
<g style="fill:#000000; fill-opacity:0.0; 
stroke:#000000; stroke-width:0.0212; stroke-opacity:1; 
stroke-linecap:round; stroke-linejoin:round;">
</g>
<g style="fill:#000000; fill-opacity:0.0; 
stroke:#000000; stroke-width:0.1500; stroke-opacity:1; 
stroke-linecap:round; stroke-linejoin:round;">
<text x="178.0022" y="171.7572"
textLength="0.3750" font-size="2.0000" lengthAdjust="spacingAndGlyphs"
text-anchor="start" opacity="0"></text>
<g class="stroked-text"><desc></desc>
</g></g>
<g style="fill:#000000; fill-opacity:0.0; 
stroke:#000000; stroke-width:0.0212; stroke-opacity:1; 
stroke-linecap:round; stroke-linejoin:round;">
</g>
<g style="fill:#000000; fill-opacity:0.0; 
stroke:#000000; stroke-width:0.1500; stroke-opacity:1; 
stroke-linecap:round; stroke-linejoin:round;">
<text x="178.0022" y="168.7572"
textLength="0.3750" font-size="2.0000" lengthAdjust="spacingAndGlyphs"
text-anchor="start" opacity="0"></text>
<g class="stroked-text"><desc></desc>
</g></g>
<g style="fill:#000000; fill-opacity:0.0; 
stroke:#000000; stroke-width:0.0212; stroke-opacity:1; 
stroke-linecap:round; stroke-linejoin:round;">
</g>
<g style="fill:#000000; fill-opacity:0.0; 
stroke:#000000; stroke-width:0.1500; stroke-opacity:1; 
stroke-linecap:round; stroke-linejoin:round;">
<path d="M197.0022 191.5072
L197.0022 194.5072
" />
</g>
<g style="fill:#000000; fill-opacity:0.0; 
stroke:#000000; stroke-width:0.0212; stroke-opacity:1; 
stroke-linecap:round; stroke-linejoin:round;">
</g>
<g style="fill:#000000; fill-opacity:0.0; 
stroke:#000000; stroke-width:0.1500; stroke-opacity:1; 
stroke-linecap:round; stroke-linejoin:round;">
<path d="M261.0022 191.5072
L261.0022 198.0072
" />
<g >
</g>
<g >
</g>
<g >
</g>
<g >
</g>
<g >
</g>
<g >
</g>
<g >
</g>
<g >
</g>
<g >
</g>
<g >
</g>
<g >
</g>
<g >
</g>
<g >
</g>
<g >
</g>
<g >
</g>
<g >
</g>
<g >
</g>
<g >
</g>
<g >
</g>
<g >
</g>
<g >
</g>
<g >
</g>
<g >
</g>
<g >
</g>
<g >
</g>
<g >
</g>
<g >
</g>
<g >
</g>
<g >
</g>
<g >
</g>
<g >
</g>
<g >
</g>
<g >
</g>
<g >
</g>
<g >
</g>
<g >
</g>
<g >
</g>
<g >
</g>
<g >
</g>
<g >
</g>
<g >
</g>
<g >
</g>
<g >
</g>
<g >
</g>
<g >
</g>
<g >
</g>
<g >
</g>
<g >
</g>
<g >
</g>
<g >
</g>
<g >
</g>
<g >
</g>
<g >
</g>
<g >
</g>
<g >
</g>
<g >
</g>
<g >
</g>
<g >
</g>
</g>
<g style="fill:#000000; fill-opacity:0.0; 
stroke:#000000; stroke-width:0.1500; stroke-opacity:1; 
stroke-linecap:round; stroke-linejoin:round;">
</g>
<g style="fill:#D0D2CD; fill-opacity:0.0; 
stroke:#D0D2CD; stroke-width:0.1500; stroke-opacity:1; 
stroke-linecap:round; stroke-linejoin:round;">
</g>
<g style="fill:#D0D2CD; fill-opacity:0.0; 
stroke:#D0D2CD; stroke-width:0.2000; stroke-opacity:1; 
stroke-linecap:round; stroke-linejoin:round;">
<path d="M72.4500 121.7250
L72.4500 106.9750
" />
<circle cx="251.7344" cy="102.9340" r="1.1500" /> 
</g>
<g style="fill:#D0D2CD; fill-opacity:1.0000; 
stroke:#D0D2CD; stroke-width:0.0000; stroke-opacity:1; 
stroke-linecap:round; stroke-linejoin:round;">
<circle cx="61.0870" cy="50.9270" r="0.0250" /> 
</g>
<g style="fill:#D0D2CD; fill-opacity:0.0; 
stroke:#D0D2CD; stroke-width:0.2000; stroke-opacity:1; 
stroke-linecap:round; stroke-linejoin:round;">
<circle cx="46.7160" cy="102.9340" r="1.1500" /> 
<path d="M251.4750 105.7750 A3.1000 3.1000 0.0 0 0 254.5750 102.6750" />
<path d="M72.4500 106.9750 A1.2000 1.2000 0.0 0 0 71.2500 105.7750" />
<path d="M46.9750 47.4750
L251.4750 47.4750
" />
<path d="M226.0000 106.9750
L226.0000 121.7250
" />
<path d="M222.9000 124.8250
L75.5500 124.8250
" />
<circle cx="63.5000" cy="50.5750" r="1.1500" /> 
<circle cx="234.9500" cy="50.5750" r="1.1500" /> 
<path d="M43.8750 102.6750 A3.1000 3.1000 0.0 0 0 46.9750 105.7750" />
<path d="M254.5750 50.5750 A3.1000 3.1000 0.0 0 0 251.4750 47.4750" />
<path d="M227.2000 105.7750 A1.2000 1.2000 0.0 0 0 226.0000 106.9750" />
<path d="M222.9000 124.8250 A3.1000 3.1000 0.0 0 0 226.0000 121.7250" />
<path d="M254.5750 50.5750
L254.5750 102.6750
" />
<path d="M46.9750 47.4750 A3.1000 3.1000 0.0 0 0 43.8750 50.5750" />
<path d="M71.2500 105.7750
L46.9750 105.7750
" />
<path d="M251.4750 105.7750
L227.2000 105.7750
" />
<path d="M72.4500 121.7250 A3.1000 3.1000 0.0 0 0 75.5500 124.8250" />
<path d="M43.8750 102.6750
L43.8750 50.5750
" />
</g>
<g style="fill:#D0D2CD; fill-opacity:0.0; 
stroke:#D0D2CD; stroke-width:0.1200; stroke-opacity:1; 
stroke-linecap:round; stroke-linejoin:round;">
<path d="M208.6000 108.3000
L208.6000 120.3000
" />
<path d="M208.6000 120.3000
L209.6000 121.3000
" />
<path d="M209.6000 107.3000
L208.6000 108.3000
" />
<path d="M209.6000 121.3000
L222.2000 121.3000
" />
<path d="M222.2000 107.3000
L209.6000 107.3000
" />
<path d="M222.2000 107.3000
L223.2000 108.3000
" />
<path d="M222.2000 121.3000
L223.2000 120.3000
" />
<path d="M223.2000 120.3000
L223.2000 108.3000
" />
<path d="M213.3625 89.2500
L213.3625 101.2500
" />
<path d="M213.3625 101.2500
L214.3625 102.2500
" />
<path d="M214.3625 88.2500
L213.3625 89.2500
" />
<path d="M214.3625 102.2500
L226.9625 102.2500
" />
<path d="M226.9625 88.2500
L214.3625 88.2500
" />
<path d="M226.9625 88.2500
L227.9625 89.2500
" />
<path d="M226.9625 102.2500
L227.9625 101.2500
" />
<path d="M227.9625 101.2500
L227.9625 89.2500
" />
<path d="M125.2550 108.3000
L125.2550 120.3000
" />
<path d="M125.2550 120.3000
L126.2550 121.3000
" />
<path d="M126.2550 107.3000
L125.2550 108.3000
" />
<path d="M126.2550 121.3000
L138.8550 121.3000
" />
<path d="M138.8550 107.3000
L126.2550 107.3000
" />
<path d="M138.8550 107.3000
L139.8550 108.3000
" />
<path d="M138.8550 121.3000
L139.8550 120.3000
" />
<path d="M139.8550 120.3000
L139.8550 108.3000
" />
<path d="M165.7375 70.2000
L165.7375 82.2000
" />
<path d="M165.7375 82.2000
L166.7375 83.2000
" />
<path d="M166.7375 69.2000
L165.7375 70.2000
" />
<path d="M166.7375 83.2000
L179.3375 83.2000
" />
<path d="M179.3375 69.2000
L166.7375 69.2000
" />
<path d="M179.3375 69.2000
L180.3375 70.2000
" />
<path d="M179.3375 83.2000
L180.3375 82.2000
" />
<path d="M180.3375 82.2000
L180.3375 70.2000
" />
<path d="M96.6800 108.3000
L96.6800 120.3000
" />
<path d="M96.6800 120.3000
L97.6800 121.3000
" />
<path d="M97.6800 107.3000
L96.6800 108.3000
" />
<path d="M97.6800 121.3000
L110.2800 121.3000
" />
<path d="M110.2800 107.3000
L97.6800 107.3000
" />
<path d="M110.2800 107.3000
L111.2800 108.3000
" />
<path d="M110.2800 121.3000
L111.2800 120.3000
" />
<path d="M111.2800 120.3000
L111.2800 108.3000
" />
<path d="M108.5875 70.2000
L108.5875 82.2000
" />
<path d="M108.5875 82.2000
L109.5875 83.2000
" />
<path d="M109.5875 69.2000
L108.5875 70.2000
" />
<path d="M109.5875 83.2000
L122.1875 83.2000
" />
<path d="M122.1875 69.2000
L109.5875 69.2000
" />
<path d="M122.1875 69.2000
L123.1875 70.2000
" />
<path d="M122.1875 83.2000
L123.1875 82.2000
" />
<path d="M123.1875 82.2000
L123.1875 70.2000
" />
<path d="M75.2500 108.3000
L75.2500 120.3000
" />
<path d="M75.2500 120.3000
L76.2500 121.3000
" />
<path d="M76.2500 107.3000
L75.2500 108.3000
" />
<path d="M76.2500 121.3000
L88.8500 121.3000
" />
<path d="M88.8500 107.3000
L76.2500 107.3000
" />
<path d="M88.8500 107.3000
L89.8500 108.3000
" />
<path d="M88.8500 121.3000
L89.8500 120.3000
" />
<path d="M89.8500 120.3000
L89.8500 108.3000
" />
<path d="M49.0580 70.2000
L49.0580 82.2000
" />
<path d="M49.0580 82.2000
L50.0580 83.2000
" />
<path d="M50.0580 69.2000
L49.0580 70.2000
" />
<path d="M50.0580 83.2000
L62.6580 83.2000
" />
<path d="M62.6580 69.2000
L50.0580 69.2000
" />
<path d="M62.6580 69.2000
L63.6580 70.2000
" />
<path d="M62.6580 83.2000
L63.6580 82.2000
" />
<path d="M63.6580 82.2000
L63.6580 70.2000
" />
<path d="M70.4875 70.2000
L70.4875 82.2000
" />
<path d="M70.4875 82.2000
L71.4875 83.2000
" />
<path d="M71.4875 69.2000
L70.4875 70.2000
" />
<path d="M71.4875 83.2000
L84.0875 83.2000
" />
<path d="M84.0875 69.2000
L71.4875 69.2000
" />
<path d="M84.0875 69.2000
L85.0875 70.2000
" />
<path d="M84.0875 83.2000
L85.0875 82.2000
" />
<path d="M85.0875 82.2000
L85.0875 70.2000
" />
<path d="M230.0300 70.2000
L230.0300 82.2000
" />
<path d="M230.0300 82.2000
L231.0300 83.2000
" />
<path d="M231.0300 69.2000
L230.0300 70.2000
" />
<path d="M231.0300 83.2000
L243.6300 83.2000
" />
<path d="M243.6300 69.2000
L231.0300 69.2000
" />
<path d="M243.6300 69.2000
L244.6300 70.2000
" />
<path d="M243.6300 83.2000
L244.6300 82.2000
" />
<path d="M244.6300 82.2000
L244.6300 70.2000
" />
<path d="M122.8750 51.1500
L122.8750 63.1500
" />
<path d="M122.8750 63.1500
L123.8750 64.1500
" />
<path d="M123.8750 50.1500
L122.8750 51.1500
" />
<path d="M123.8750 64.1500
L136.4750 64.1500
" />
<path d="M136.4750 50.1500
L123.8750 50.1500
" />
<path d="M136.4750 50.1500
L137.4750 51.1500
" />
<path d="M136.4750 64.1500
L137.4750 63.1500
" />
<path d="M137.4750 63.1500
L137.4750 51.1500
" />
<path d="M158.5920 108.3000
L158.5920 120.3000
" />
<path d="M158.5920 120.3000
L159.5920 121.3000
" />
<path d="M159.5920 107.3000
L158.5920 108.3000
" />
<path d="M159.5920 121.3000
L172.1920 121.3000
" />
<path d="M172.1920 107.3000
L159.5920 107.3000
" />
<path d="M172.1920 107.3000
L173.1920 108.3000
" />
<path d="M172.1920 121.3000
L173.1920 120.3000
" />
<path d="M173.1920 120.3000
L173.1920 108.3000
" />
<path d="M194.3125 89.2500
L194.3125 101.2500
" />
<path d="M194.3125 101.2500
L195.3125 102.2500
" />
<path d="M195.3125 88.2500
L194.3125 89.2500
" />
<path d="M195.3125 102.2500
L207.9125 102.2500
" />
<path d="M207.9125 88.2500
L195.3125 88.2500
" />
<path d="M207.9125 88.2500
L208.9125 89.2500
" />
<path d="M207.9125 102.2500
L208.9125 101.2500
" />
<path d="M208.9125 101.2500
L208.9125 89.2500
" />
<path d="M218.1250 51.1500
L218.1250 63.1500
" />
<path d="M218.1250 63.1500
L219.1250 64.1500
" />
<path d="M219.1250 50.1500
L218.1250 51.1500
" />
<path d="M219.1250 64.1500
L231.7250 64.1500
" />
<path d="M231.7250 50.1500
L219.1250 50.1500
" />
<path d="M231.7250 50.1500
L232.7250 51.1500
" />
<path d="M231.7250 64.1500
L232.7250 63.1500
" />
<path d="M232.7250 63.1500
L232.7250 51.1500
" />
<path d="M80.0125 89.2500
L80.0125 101.2500
" />
<path d="M80.0125 101.2500
L81.0125 102.2500
" />
<path d="M81.0125 88.2500
L80.0125 89.2500
" />
<path d="M81.0125 102.2500
L93.6125 102.2500
" />
<path d="M93.6125 88.2500
L81.0125 88.2500
" />
<path d="M93.6125 88.2500
L94.6125 89.2500
" />
<path d="M93.6125 102.2500
L94.6125 101.2500
" />
<path d="M94.6125 101.2500
L94.6125 89.2500
" />
<path d="M160.9750 51.1500
L160.9750 63.1500
" />
<path d="M160.9750 63.1500
L161.9750 64.1500
" />
<path d="M161.9750 50.1500
L160.9750 51.1500
" />
<path d="M161.9750 64.1500
L174.5750 64.1500
" />
<path d="M174.5750 50.1500
L161.9750 50.1500
" />
<path d="M174.5750 50.1500
L175.5750 51.1500
" />
<path d="M174.5750 64.1500
L175.5750 63.1500
" />
<path d="M175.5750 63.1500
L175.5750 51.1500
" />
<path d="M137.1625 89.2500
L137.1625 101.2500
" />
<path d="M137.1625 101.2500
L138.1625 102.2500
" />
<path d="M138.1625 88.2500
L137.1625 89.2500
" />
<path d="M138.1625 102.2500
L150.7625 102.2500
" />
<path d="M150.7625 88.2500
L138.1625 88.2500
" />
<path d="M150.7625 88.2500
L151.7625 89.2500
" />
<path d="M150.7625 102.2500
L151.7625 101.2500
" />
<path d="M151.7625 101.2500
L151.7625 89.2500
" />
<path d="M118.1125 89.2500
L118.1125 101.2500
" />
<path d="M118.1125 101.2500
L119.1125 102.2500
" />
<path d="M119.1125 88.2500
L118.1125 89.2500
" />
<path d="M119.1125 102.2500
L131.7125 102.2500
" />
<path d="M131.7125 88.2500
L119.1125 88.2500
" />
<path d="M131.7125 88.2500
L132.7125 89.2500
" />
<path d="M131.7125 102.2500
L132.7125 101.2500
" />
<path d="M132.7125 101.2500
L132.7125 89.2500
" />
<path d="M46.6750 51.1500
L46.6750 63.1500
" />
<path d="M46.6750 63.1500
L47.6750 64.1500
" />
<path d="M47.6750 50.1500
L46.6750 51.1500
" />
<path d="M47.6750 64.1500
L60.2750 64.1500
" />
<path d="M60.2750 50.1500
L47.6750 50.1500
" />
<path d="M60.2750 50.1500
L61.2750 51.1500
" />
<path d="M60.2750 64.1500
L61.2750 63.1500
" />
<path d="M61.2750 63.1500
L61.2750 51.1500
" />
<path d="M203.8375 70.2000
L203.8375 82.2000
" />
<path d="M203.8375 82.2000
L204.8375 83.2000
" />
<path d="M204.8375 69.2000
L203.8375 70.2000
" />
<path d="M204.8375 83.2000
L217.4375 83.2000
" />
<path d="M217.4375 69.2000
L204.8375 69.2000
" />
<path d="M217.4375 69.2000
L218.4375 70.2000
" />
<path d="M217.4375 83.2000
L218.4375 82.2000
" />
<path d="M218.4375 82.2000
L218.4375 70.2000
" />
<path d="M89.5375 70.2000
L89.5375 82.2000
" />
<path d="M89.5375 82.2000
L90.5375 83.2000
" />
<path d="M90.5375 69.2000
L89.5375 70.2000
" />
<path d="M90.5375 83.2000
L103.1375 83.2000
" />
<path d="M103.1375 69.2000
L90.5375 69.2000
" />
<path d="M103.1375 69.2000
L104.1375 70.2000
" />
<path d="M103.1375 83.2000
L104.1375 82.2000
" />
<path d="M104.1375 82.2000
L104.1375 70.2000
" />
<path d="M156.2125 89.2500
L156.2125 101.2500
" />
<path d="M156.2125 101.2500
L157.2125 102.2500
" />
<path d="M157.2125 88.2500
L156.2125 89.2500
" />
<path d="M157.2125 102.2500
L169.8125 102.2500
" />
<path d="M169.8125 88.2500
L157.2125 88.2500
" />
<path d="M169.8125 88.2500
L170.8125 89.2500
" />
<path d="M169.8125 102.2500
L170.8125 101.2500
" />
<path d="M170.8125 101.2500
L170.8125 89.2500
" />
<path d="M184.7875 70.2000
L184.7875 82.2000
" />
<path d="M184.7875 82.2000
L185.7875 83.2000
" />
<path d="M185.7875 69.2000
L184.7875 70.2000
" />
<path d="M185.7875 83.2000
L198.3875 83.2000
" />
<path d="M198.3875 69.2000
L185.7875 69.2000
" />
<path d="M198.3875 69.2000
L199.3875 70.2000
" />
<path d="M198.3875 83.2000
L199.3875 82.2000
" />
<path d="M199.3875 82.2000
L199.3875 70.2000
" />
<path d="M103.8250 51.1500
L103.8250 63.1500
" />
<path d="M103.8250 63.1500
L104.8250 64.1500
" />
<path d="M104.8250 50.1500
L103.8250 51.1500
" />
<path d="M104.8250 64.1500
L117.4250 64.1500
" />
<path d="M117.4250 50.1500
L104.8250 50.1500
" />
<path d="M117.4250 50.1500
L118.4250 51.1500
" />
<path d="M117.4250 64.1500
L118.4250 63.1500
" />
<path d="M118.4250 63.1500
L118.4250 51.1500
" />
<path d="M175.2625 89.2500
L175.2625 101.2500
" />
<path d="M175.2625 101.2500
L176.2625 102.2500
" />
<path d="M176.2625 88.2500
L175.2625 89.2500
" />
<path d="M176.2625 102.2500
L188.8625 102.2500
" />
<path d="M188.8625 88.2500
L176.2625 88.2500
" />
<path d="M188.8625 88.2500
L189.8625 89.2500
" />
<path d="M188.8625 102.2500
L189.8625 101.2500
" />
<path d="M189.8625 101.2500
L189.8625 89.2500
" />
<path d="M180.0250 51.1500
L180.0250 63.1500
" />
<path d="M180.0250 63.1500
L181.0250 64.1500
" />
<path d="M181.0250 50.1500
L180.0250 51.1500
" />
<path d="M181.0250 64.1500
L193.6250 64.1500
" />
<path d="M193.6250 50.1500
L181.0250 50.1500
" />
<path d="M193.6250 50.1500
L194.6250 51.1500
" />
<path d="M193.6250 64.1500
L194.6250 63.1500
" />
<path d="M194.6250 63.1500
L194.6250 51.1500
" />
<path d="M187.1700 108.3000
L187.1700 120.3000
" />
<path d="M187.1700 120.3000
L188.1700 121.3000
" />
<path d="M188.1700 107.3000
L187.1700 108.3000
" />
<path d="M188.1700 121.3000
L200.7700 121.3000
" />
<path d="M200.7700 107.3000
L188.1700 107.3000
" />
<path d="M200.7700 107.3000
L201.7700 108.3000
" />
<path d="M200.7700 121.3000
L201.7700 120.3000
" />
<path d="M201.7700 120.3000
L201.7700 108.3000
" />
<path d="M237.1750 51.1500
L237.1750 63.1500
" />
<path d="M237.1750 63.1500
L238.1750 64.1500
" />
<path d="M238.1750 50.1500
L237.1750 51.1500
" />
<path d="M238.1750 64.1500
L250.7750 64.1500
" />
<path d="M250.7750 50.1500
L238.1750 50.1500
" />
<path d="M250.7750 50.1500
L251.7750 51.1500
" />
<path d="M250.7750 64.1500
L251.7750 63.1500
" />
<path d="M251.7750 63.1500
L251.7750 51.1500
" />
<path d="M141.9250 51.1500
L141.9250 63.1500
" />
<path d="M141.9250 63.1500
L142.9250 64.1500
" />
<path d="M142.9250 50.1500
L141.9250 51.1500
" />
<path d="M142.9250 64.1500
L155.5250 64.1500
" />
<path d="M155.5250 50.1500
L142.9250 50.1500
" />
<path d="M155.5250 50.1500
L156.5250 51.1500
" />
<path d="M155.5250 64.1500
L156.5250 63.1500
" />
<path d="M156.5250 63.1500
L156.5250 51.1500
" />
<path d="M53.8200 89.2500
L53.8200 101.2500
" />
<path d="M53.8200 101.2500
L54.8200 102.2500
" />
<path d="M54.8200 88.2500
L53.8200 89.2500
" />
<path d="M54.8200 102.2500
L67.4200 102.2500
" />
<path d="M67.4200 88.2500
L54.8200 88.2500
" />
<path d="M67.4200 88.2500
L68.4200 89.2500
" />
<path d="M67.4200 102.2500
L68.4200 101.2500
" />
<path d="M68.4200 101.2500
L68.4200 89.2500
" />
<path d="M84.7750 51.1500
L84.7750 63.1500
" />
<path d="M84.7750 63.1500
L85.7750 64.1500
" />
<path d="M85.7750 50.1500
L84.7750 51.1500
" />
<path d="M85.7750 64.1500
L98.3750 64.1500
" />
<path d="M98.3750 50.1500
L85.7750 50.1500
" />
<path d="M98.3750 50.1500
L99.3750 51.1500
" />
<path d="M98.3750 64.1500
L99.3750 63.1500
" />
<path d="M99.3750 63.1500
L99.3750 51.1500
" />
<path d="M65.7250 51.1500
L65.7250 63.1500
" />
<path d="M65.7250 63.1500
L66.7250 64.1500
" />
<path d="M66.7250 50.1500
L65.7250 51.1500
" />
<path d="M66.7250 64.1500
L79.3250 64.1500
" />
<path d="M79.3250 50.1500
L66.7250 50.1500
" />
<path d="M79.3250 50.1500
L80.3250 51.1500
" />
<path d="M79.3250 64.1500
L80.3250 63.1500
" />
<path d="M80.3250 63.1500
L80.3250 51.1500
" />
<path d="M127.6375 70.2000
L127.6375 82.2000
" />
<path d="M127.6375 82.2000
L128.6375 83.2000
" />
<path d="M128.6375 69.2000
L127.6375 70.2000
" />
<path d="M128.6375 83.2000
L141.2375 83.2000
" />
<path d="M141.2375 69.2000
L128.6375 69.2000
" />
<path d="M141.2375 69.2000
L142.2375 70.2000
" />
<path d="M141.2375 83.2000
L142.2375 82.2000
" />
<path d="M142.2375 82.2000
L142.2375 70.2000
" />
<path d="M234.7950 89.2500
L234.7950 101.2500
" />
<path d="M234.7950 101.2500
L235.7950 102.2500
" />
<path d="M235.7950 88.2500
L234.7950 89.2500
" />
<path d="M235.7950 102.2500
L248.3950 102.2500
" />
<path d="M248.3950 88.2500
L235.7950 88.2500
" />
<path d="M248.3950 88.2500
L249.3950 89.2500
" />
<path d="M248.3950 102.2500
L249.3950 101.2500
" />
<path d="M249.3950 101.2500
L249.3950 89.2500
" />
<path d="M99.0625 89.2500
L99.0625 101.2500
" />
<path d="M99.0625 101.2500
L100.0625 102.2500
" />
<path d="M100.0625 88.2500
L99.0625 89.2500
" />
<path d="M100.0625 102.2500
L112.6625 102.2500
" />
<path d="M112.6625 88.2500
L100.0625 88.2500
" />
<path d="M112.6625 88.2500
L113.6625 89.2500
" />
<path d="M112.6625 102.2500
L113.6625 101.2500
" />
<path d="M113.6625 101.2500
L113.6625 89.2500
" />
<path d="M199.0750 51.1500
L199.0750 63.1500
" />
<path d="M199.0750 63.1500
L200.0750 64.1500
" />
<path d="M200.0750 50.1500
L199.0750 51.1500
" />
<path d="M200.0750 64.1500
L212.6750 64.1500
" />
<path d="M212.6750 50.1500
L200.0750 50.1500
" />
<path d="M212.6750 50.1500
L213.6750 51.1500
" />
<path d="M212.6750 64.1500
L213.6750 63.1500
" />
<path d="M213.6750 63.1500
L213.6750 51.1500
" />
<path d="M146.6875 70.2000
L146.6875 82.2000
" />
<path d="M146.6875 82.2000
L147.6875 83.2000
" />
<path d="M147.6875 69.2000
L146.6875 70.2000
" />
<path d="M147.6875 83.2000
L160.2875 83.2000
" />
<path d="M160.2875 69.2000
L147.6875 69.2000
" />
<path d="M160.2875 69.2000
L161.2875 70.2000
" />
<path d="M160.2875 83.2000
L161.2875 82.2000
" />
<path d="M161.2875 82.2000
L161.2875 70.2000
" />
<g >
</g>
<g >
</g>
<g >
</g>
<g >
</g>
<g >
</g>
<g >
</g>
<g >
</g>
<g >
</g>
<g >
</g>
<g >
</g>
<g >
</g>
<g >
</g>
<g >
</g>
<g >
</g>
<g >
</g>
<g >
</g>
<g >
</g>
<g >
</g>
<g >
</g>
<g >
</g>
<g >
</g>
<g >
</g>
<g >
</g>
<g >
</g>
<g >
</g>
<g >
</g>
<g >
</g>
<g >
</g>
<g >
</g>
<g >
</g>
<g >
</g>
<g >
</g>
<g >
</g>
<g >
</g>
<g >
</g>
<g >
</g>
<g >
</g>
<g >
</g>
<g >
</g>
<g >
</g>
<g >
</g>
<g >
</g>
<g >
</g>
<g >
</g>
<g >
</g>
<g >
</g>
<g >
</g>
<g >
</g>
<g >
</g>
<g >
</g>
<g >
</g>
<g >
</g>
<g >
</g>
<g >
</g>
<g >
</g>
<g >
</g>
<g >
</g>
<g >
</g>
</g> 
</svg>
