  0
SECTION
  2
HEADER
  9
$ANGBASE
  50
0.0
  9
$ANGDIR
  70
1
  9
$MEASUREMENT
  70
0
  0
ENDSEC
  0
SECTION
  2
TABLES
  0
TABLE
  2
LTYPE
  70
4
  0
LTYPE
  5
40F
  2
CONTINUOUS
  70
0
  3
Solid line
  72
65
  73
0
  40
0.0
  0
LTYPE
  5
410
  2
DASHDOT
 70
0
  3
Dash Dot ____ _ ____ _
 72
65
 73
4
 40
2.0
 49
1.25
 49
-0.25
 49
0.25
 49
-0.25
  0
LTYPE
  5
411
  2
DASHED
 70
0
  3
Dashed __ __ __ __ __
 72
65
 73
2
 40
0.75
 49
0.5
 49
-0.25
  0
LTYPE
  5
43B
  2
DOTTED
 70
0
  3
Dotted .  .  .  .
 72
65
 73
2
 40
0.2
 49
0.0
 49
-0.2
  0
ENDTAB
  0
TABLE
  2
STYLE
  70
4
  0
STYLE
  2
KICAD
  70
0
  40
0
  41
1
  42
1
  50
0
  71
0
  3
isocp.shx
  0
STYLE
  2
KICADB
  70
0
  40
0
  41
1
  42
1
  50
0
  71
0
  3
isocp.shx
  0
STYLE
  2
KICADI
  70
0
  40
0
  41
1
  42
1
  50
15
  71
0
  3
isocp.shx
  0
STYLE
  2
KICADBI
  70
0
  40
0
  41
1
  42
1
  50
15
  71
0
  3
isocp.shx
  0
ENDTAB
  0
TABLE
  2
LAYER
  70
1
  0
LAYER
  2
BLACK
  70
0
  62
7
  6
CONTINUOUS
  0
ENDTAB
  0
ENDSEC
  0
SECTION
  2
ENTITIES
0
LINE
8
BLACK
6
CONTINUOUS
10
8.13685
20
-4.45835
11
8.1443
21
-4.46123
0
LINE
8
BLACK
6
CONTINUOUS
10
8.1443
20
-4.46123
11
8.1511
21
-4.46544
0
LINE
8
BLACK
6
CONTINUOUS
10
8.1511
20
-4.46544
11
8.157
21
-4.47082
0
LINE
8
BLACK
6
CONTINUOUS
10
8.157
20
-4.47082
11
8.16182
21
-4.4772
0
LINE
8
BLACK
6
CONTINUOUS
10
8.16182
20
-4.4772
11
8.16538
21
-4.48436
0
LINE
8
BLACK
6
CONTINUOUS
10
8.16538
20
-4.48436
11
8.16757
21
-4.49204
0
LINE
8
BLACK
6
CONTINUOUS
10
8.16757
20
-4.49204
11
8.16831
21
-4.5
0
LINE
8
BLACK
6
CONTINUOUS
10
8.16831
20
-4.5
11
8.16757
21
-4.50796
0
LINE
8
BLACK
6
CONTINUOUS
10
8.16757
20
-4.50796
11
8.16538
21
-4.51564
0
LINE
8
BLACK
6
CONTINUOUS
10
8.16538
20
-4.51564
11
8.16182
21
-4.5228
0
LINE
8
BLACK
6
CONTINUOUS
10
8.16182
20
-4.5228
11
8.157
21
-4.52918
0
LINE
8
BLACK
6
CONTINUOUS
10
8.157
20
-4.52918
11
8.1511
21
-4.53456
0
LINE
8
BLACK
6
CONTINUOUS
10
8.1511
20
-4.53456
11
8.1443
21
-4.53877
0
LINE
8
BLACK
6
CONTINUOUS
10
8.1443
20
-4.53877
11
8.13685
21
-4.54165
0
LINE
8
BLACK
6
CONTINUOUS
10
8.13685
20
-4.54165
11
8.129
21
-4.54312
0
LINE
8
BLACK
6
CONTINUOUS
10
8.129
20
-4.54312
11
8.121
21
-4.54312
0
LINE
8
BLACK
6
CONTINUOUS
10
8.121
20
-4.54312
11
8.11315
21
-4.54165
0
LINE
8
BLACK
6
CONTINUOUS
10
8.11315
20
-4.54165
11
8.1057
21
-4.53877
0
LINE
8
BLACK
6
CONTINUOUS
10
8.1057
20
-4.53877
11
8.0989
21
-4.53456
0
LINE
8
BLACK
6
CONTINUOUS
10
8.0989
20
-4.53456
11
8.093
21
-4.52918
0
LINE
8
BLACK
6
CONTINUOUS
10
8.093
20
-4.52918
11
8.08818
21
-4.5228
0
LINE
8
BLACK
6
CONTINUOUS
10
8.08818
20
-4.5228
11
8.08462
21
-4.51564
0
LINE
8
BLACK
6
CONTINUOUS
10
8.08462
20
-4.51564
11
8.08243
21
-4.50796
0
LINE
8
BLACK
6
CONTINUOUS
10
8.08243
20
-4.50796
11
8.08169
21
-4.5
0
LINE
8
BLACK
6
CONTINUOUS
10
8.08169
20
-4.5
11
8.08243
21
-4.49204
0
LINE
8
BLACK
6
CONTINUOUS
10
8.08243
20
-4.49204
11
8.08462
21
-4.48436
0
LINE
8
BLACK
6
CONTINUOUS
10
8.08462
20
-4.48436
11
8.08818
21
-4.4772
0
LINE
8
BLACK
6
CONTINUOUS
10
8.08818
20
-4.4772
11
8.093
21
-4.47082
0
LINE
8
BLACK
6
CONTINUOUS
10
8.093
20
-4.47082
11
8.0989
21
-4.46544
0
LINE
8
BLACK
6
CONTINUOUS
10
8.0989
20
-4.46544
11
8.1057
21
-4.46123
0
LINE
8
BLACK
6
CONTINUOUS
10
8.1057
20
-4.46123
11
8.11315
21
-4.45835
0
LINE
8
BLACK
6
CONTINUOUS
10
8.11315
20
-4.45835
11
8.121
21
-4.45688
0
LINE
8
BLACK
6
CONTINUOUS
10
8.121
20
-4.45688
11
8.129
21
-4.45688
0
LINE
8
BLACK
6
CONTINUOUS
10
8.129
20
-4.45688
11
8.13685
21
-4.45835
0
LINE
8
BLACK
6
CONTINUOUS
10
6.94935
20
-4.45835
11
6.9568
21
-4.46123
0
LINE
8
BLACK
6
CONTINUOUS
10
6.9568
20
-4.46123
11
6.9636
21
-4.46544
0
LINE
8
BLACK
6
CONTINUOUS
10
6.9636
20
-4.46544
11
6.9695
21
-4.47082
0
LINE
8
BLACK
6
CONTINUOUS
10
6.9695
20
-4.47082
11
6.97432
21
-4.4772
0
LINE
8
BLACK
6
CONTINUOUS
10
6.97432
20
-4.4772
11
6.97788
21
-4.48436
0
LINE
8
BLACK
6
CONTINUOUS
10
6.97788
20
-4.48436
11
6.98007
21
-4.49204
0
LINE
8
BLACK
6
CONTINUOUS
10
6.98007
20
-4.49204
11
6.98081
21
-4.5
0
LINE
8
BLACK
6
CONTINUOUS
10
6.98081
20
-4.5
11
6.98007
21
-4.50796
0
LINE
8
BLACK
6
CONTINUOUS
10
6.98007
20
-4.50796
11
6.97788
21
-4.51564
0
LINE
8
BLACK
6
CONTINUOUS
10
6.97788
20
-4.51564
11
6.97432
21
-4.5228
0
LINE
8
BLACK
6
CONTINUOUS
10
6.97432
20
-4.5228
11
6.9695
21
-4.52918
0
LINE
8
BLACK
6
CONTINUOUS
10
6.9695
20
-4.52918
11
6.9636
21
-4.53456
0
LINE
8
BLACK
6
CONTINUOUS
10
6.9636
20
-4.53456
11
6.9568
21
-4.53877
0
LINE
8
BLACK
6
CONTINUOUS
10
6.9568
20
-4.53877
11
6.94935
21
-4.54165
0
LINE
8
BLACK
6
CONTINUOUS
10
6.94935
20
-4.54165
11
6.9415
21
-4.54312
0
LINE
8
BLACK
6
CONTINUOUS
10
6.9415
20
-4.54312
11
6.9335
21
-4.54312
0
LINE
8
BLACK
6
CONTINUOUS
10
6.9335
20
-4.54312
11
6.92565
21
-4.54165
0
LINE
8
BLACK
6
CONTINUOUS
10
6.92565
20
-4.54165
11
6.9182
21
-4.53877
0
LINE
8
BLACK
6
CONTINUOUS
10
6.9182
20
-4.53877
11
6.9114
21
-4.53456
0
LINE
8
BLACK
6
CONTINUOUS
10
6.9114
20
-4.53456
11
6.9055
21
-4.52918
0
LINE
8
BLACK
6
CONTINUOUS
10
6.9055
20
-4.52918
11
6.90068
21
-4.5228
0
LINE
8
BLACK
6
CONTINUOUS
10
6.90068
20
-4.5228
11
6.89712
21
-4.51564
0
LINE
8
BLACK
6
CONTINUOUS
10
6.89712
20
-4.51564
11
6.89493
21
-4.50796
0
LINE
8
BLACK
6
CONTINUOUS
10
6.89493
20
-4.50796
11
6.89419
21
-4.5
0
LINE
8
BLACK
6
CONTINUOUS
10
6.89419
20
-4.5
11
6.89493
21
-4.49204
0
LINE
8
BLACK
6
CONTINUOUS
10
6.89493
20
-4.49204
11
6.89712
21
-4.48436
0
LINE
8
BLACK
6
CONTINUOUS
10
6.89712
20
-4.48436
11
6.90068
21
-4.4772
0
LINE
8
BLACK
6
CONTINUOUS
10
6.90068
20
-4.4772
11
6.9055
21
-4.47082
0
LINE
8
BLACK
6
CONTINUOUS
10
6.9055
20
-4.47082
11
6.9114
21
-4.46544
0
LINE
8
BLACK
6
CONTINUOUS
10
6.9114
20
-4.46544
11
6.9182
21
-4.46123
0
LINE
8
BLACK
6
CONTINUOUS
10
6.9182
20
-4.46123
11
6.92565
21
-4.45835
0
LINE
8
BLACK
6
CONTINUOUS
10
6.92565
20
-4.45835
11
6.9335
21
-4.45688
0
LINE
8
BLACK
6
CONTINUOUS
10
6.9335
20
-4.45688
11
6.9415
21
-4.45688
0
LINE
8
BLACK
6
CONTINUOUS
10
6.9415
20
-4.45688
11
6.94935
21
-4.45835
0
LINE
8
BLACK
6
CONTINUOUS
10
4.82435
20
-4.45835
11
4.8318
21
-4.46123
0
LINE
8
BLACK
6
CONTINUOUS
10
4.8318
20
-4.46123
11
4.8386
21
-4.46544
0
LINE
8
BLACK
6
CONTINUOUS
10
4.8386
20
-4.46544
11
4.8445
21
-4.47082
0
LINE
8
BLACK
6
CONTINUOUS
10
4.8445
20
-4.47082
11
4.84932
21
-4.4772
0
LINE
8
BLACK
6
CONTINUOUS
10
4.84932
20
-4.4772
11
4.85288
21
-4.48436
0
LINE
8
BLACK
6
CONTINUOUS
10
4.85288
20
-4.48436
11
4.85507
21
-4.49204
0
LINE
8
BLACK
6
CONTINUOUS
10
4.85507
20
-4.49204
11
4.85581
21
-4.5
0
LINE
8
BLACK
6
CONTINUOUS
10
4.85581
20
-4.5
11
4.85507
21
-4.50796
0
LINE
8
BLACK
6
CONTINUOUS
10
4.85507
20
-4.50796
11
4.85288
21
-4.51564
0
LINE
8
BLACK
6
CONTINUOUS
10
4.85288
20
-4.51564
11
4.84932
21
-4.5228
0
LINE
8
BLACK
6
CONTINUOUS
10
4.84932
20
-4.5228
11
4.8445
21
-4.52918
0
LINE
8
BLACK
6
CONTINUOUS
10
4.8445
20
-4.52918
11
4.8386
21
-4.53456
0
LINE
8
BLACK
6
CONTINUOUS
10
4.8386
20
-4.53456
11
4.8318
21
-4.53877
0
LINE
8
BLACK
6
CONTINUOUS
10
4.8318
20
-4.53877
11
4.82435
21
-4.54165
0
LINE
8
BLACK
6
CONTINUOUS
10
4.82435
20
-4.54165
11
4.8165
21
-4.54312
0
LINE
8
BLACK
6
CONTINUOUS
10
4.8165
20
-4.54312
11
4.8085
21
-4.54312
0
LINE
8
BLACK
6
CONTINUOUS
10
4.8085
20
-4.54312
11
4.80065
21
-4.54165
0
LINE
8
BLACK
6
CONTINUOUS
10
4.80065
20
-4.54165
11
4.7932
21
-4.53877
0
LINE
8
BLACK
6
CONTINUOUS
10
4.7932
20
-4.53877
11
4.7864
21
-4.53456
0
LINE
8
BLACK
6
CONTINUOUS
10
4.7864
20
-4.53456
11
4.7805
21
-4.52918
0
LINE
8
BLACK
6
CONTINUOUS
10
4.7805
20
-4.52918
11
4.77568
21
-4.5228
0
LINE
8
BLACK
6
CONTINUOUS
10
4.77568
20
-4.5228
11
4.77212
21
-4.51564
0
LINE
8
BLACK
6
CONTINUOUS
10
4.77212
20
-4.51564
11
4.76993
21
-4.50796
0
LINE
8
BLACK
6
CONTINUOUS
10
4.76993
20
-4.50796
11
4.76919
21
-4.5
0
LINE
8
BLACK
6
CONTINUOUS
10
4.76919
20
-4.5
11
4.76993
21
-4.49204
0
LINE
8
BLACK
6
CONTINUOUS
10
4.76993
20
-4.49204
11
4.77212
21
-4.48436
0
LINE
8
BLACK
6
CONTINUOUS
10
4.77212
20
-4.48436
11
4.77568
21
-4.4772
0
LINE
8
BLACK
6
CONTINUOUS
10
4.77568
20
-4.4772
11
4.7805
21
-4.47082
0
LINE
8
BLACK
6
CONTINUOUS
10
4.7805
20
-4.47082
11
4.7864
21
-4.46544
0
LINE
8
BLACK
6
CONTINUOUS
10
4.7864
20
-4.46544
11
4.7932
21
-4.46123
0
LINE
8
BLACK
6
CONTINUOUS
10
4.7932
20
-4.46123
11
4.80065
21
-4.45835
0
LINE
8
BLACK
6
CONTINUOUS
10
4.80065
20
-4.45835
11
4.8085
21
-4.45688
0
LINE
8
BLACK
6
CONTINUOUS
10
4.8085
20
-4.45688
11
4.8165
21
-4.45688
0
LINE
8
BLACK
6
CONTINUOUS
10
4.8165
20
-4.45688
11
4.82435
21
-4.45835
0
LINE
8
BLACK
6
CONTINUOUS
10
3.63685
20
-4.45835
11
3.6443
21
-4.46123
0
LINE
8
BLACK
6
CONTINUOUS
10
3.6443
20
-4.46123
11
3.6511
21
-4.46544
0
LINE
8
BLACK
6
CONTINUOUS
10
3.6511
20
-4.46544
11
3.657
21
-4.47082
0
LINE
8
BLACK
6
CONTINUOUS
10
3.657
20
-4.47082
11
3.66182
21
-4.4772
0
LINE
8
BLACK
6
CONTINUOUS
10
3.66182
20
-4.4772
11
3.66538
21
-4.48436
0
LINE
8
BLACK
6
CONTINUOUS
10
3.66538
20
-4.48436
11
3.66757
21
-4.49204
0
LINE
8
BLACK
6
CONTINUOUS
10
3.66757
20
-4.49204
11
3.66831
21
-4.5
0
LINE
8
BLACK
6
CONTINUOUS
10
3.66831
20
-4.5
11
3.66757
21
-4.50796
0
LINE
8
BLACK
6
CONTINUOUS
10
3.66757
20
-4.50796
11
3.66538
21
-4.51564
0
LINE
8
BLACK
6
CONTINUOUS
10
3.66538
20
-4.51564
11
3.66182
21
-4.5228
0
LINE
8
BLACK
6
CONTINUOUS
10
3.66182
20
-4.5228
11
3.657
21
-4.52918
0
LINE
8
BLACK
6
CONTINUOUS
10
3.657
20
-4.52918
11
3.6511
21
-4.53456
0
LINE
8
BLACK
6
CONTINUOUS
10
3.6511
20
-4.53456
11
3.6443
21
-4.53877
0
LINE
8
BLACK
6
CONTINUOUS
10
3.6443
20
-4.53877
11
3.63685
21
-4.54165
0
LINE
8
BLACK
6
CONTINUOUS
10
3.63685
20
-4.54165
11
3.629
21
-4.54312
0
LINE
8
BLACK
6
CONTINUOUS
10
3.629
20
-4.54312
11
3.621
21
-4.54312
0
LINE
8
BLACK
6
CONTINUOUS
10
3.621
20
-4.54312
11
3.61315
21
-4.54165
0
LINE
8
BLACK
6
CONTINUOUS
10
3.61315
20
-4.54165
11
3.6057
21
-4.53877
0
LINE
8
BLACK
6
CONTINUOUS
10
3.6057
20
-4.53877
11
3.5989
21
-4.53456
0
LINE
8
BLACK
6
CONTINUOUS
10
3.5989
20
-4.53456
11
3.593
21
-4.52918
0
LINE
8
BLACK
6
CONTINUOUS
10
3.593
20
-4.52918
11
3.58818
21
-4.5228
0
LINE
8
BLACK
6
CONTINUOUS
10
3.58818
20
-4.5228
11
3.58462
21
-4.51564
0
LINE
8
BLACK
6
CONTINUOUS
10
3.58462
20
-4.51564
11
3.58243
21
-4.50796
0
LINE
8
BLACK
6
CONTINUOUS
10
3.58243
20
-4.50796
11
3.58169
21
-4.5
0
LINE
8
BLACK
6
CONTINUOUS
10
3.58169
20
-4.5
11
3.58243
21
-4.49204
0
LINE
8
BLACK
6
CONTINUOUS
10
3.58243
20
-4.49204
11
3.58462
21
-4.48436
0
LINE
8
BLACK
6
CONTINUOUS
10
3.58462
20
-4.48436
11
3.58818
21
-4.4772
0
LINE
8
BLACK
6
CONTINUOUS
10
3.58818
20
-4.4772
11
3.593
21
-4.47082
0
LINE
8
BLACK
6
CONTINUOUS
10
3.593
20
-4.47082
11
3.5989
21
-4.46544
0
LINE
8
BLACK
6
CONTINUOUS
10
3.5989
20
-4.46544
11
3.6057
21
-4.46123
0
LINE
8
BLACK
6
CONTINUOUS
10
3.6057
20
-4.46123
11
3.61315
21
-4.45835
0
LINE
8
BLACK
6
CONTINUOUS
10
3.61315
20
-4.45835
11
3.621
21
-4.45688
0
LINE
8
BLACK
6
CONTINUOUS
10
3.621
20
-4.45688
11
3.629
21
-4.45688
0
LINE
8
BLACK
6
CONTINUOUS
10
3.629
20
-4.45688
11
3.63685
21
-4.45835
0
LINE
8
BLACK
6
CONTINUOUS
10
9.13685
20
-3.70835
11
9.1443
21
-3.71123
0
LINE
8
BLACK
6
CONTINUOUS
10
9.1443
20
-3.71123
11
9.1511
21
-3.71544
0
LINE
8
BLACK
6
CONTINUOUS
10
9.1511
20
-3.71544
11
9.157
21
-3.72082
0
LINE
8
BLACK
6
CONTINUOUS
10
9.157
20
-3.72082
11
9.16182
21
-3.7272
0
LINE
8
BLACK
6
CONTINUOUS
10
9.16182
20
-3.7272
11
9.16538
21
-3.73436
0
LINE
8
BLACK
6
CONTINUOUS
10
9.16538
20
-3.73436
11
9.16757
21
-3.74204
0
LINE
8
BLACK
6
CONTINUOUS
10
9.16757
20
-3.74204
11
9.16831
21
-3.75
0
LINE
8
BLACK
6
CONTINUOUS
10
9.16831
20
-3.75
11
9.16757
21
-3.75796
0
LINE
8
BLACK
6
CONTINUOUS
10
9.16757
20
-3.75796
11
9.16538
21
-3.76564
0
LINE
8
BLACK
6
CONTINUOUS
10
9.16538
20
-3.76564
11
9.16182
21
-3.7728
0
LINE
8
BLACK
6
CONTINUOUS
10
9.16182
20
-3.7728
11
9.157
21
-3.77918
0
LINE
8
BLACK
6
CONTINUOUS
10
9.157
20
-3.77918
11
9.1511
21
-3.78456
0
LINE
8
BLACK
6
CONTINUOUS
10
9.1511
20
-3.78456
11
9.1443
21
-3.78877
0
LINE
8
BLACK
6
CONTINUOUS
10
9.1443
20
-3.78877
11
9.13685
21
-3.79165
0
LINE
8
BLACK
6
CONTINUOUS
10
9.13685
20
-3.79165
11
9.129
21
-3.79312
0
LINE
8
BLACK
6
CONTINUOUS
10
9.129
20
-3.79312
11
9.121
21
-3.79312
0
LINE
8
BLACK
6
CONTINUOUS
10
9.121
20
-3.79312
11
9.11315
21
-3.79165
0
LINE
8
BLACK
6
CONTINUOUS
10
9.11315
20
-3.79165
11
9.1057
21
-3.78877
0
LINE
8
BLACK
6
CONTINUOUS
10
9.1057
20
-3.78877
11
9.0989
21
-3.78456
0
LINE
8
BLACK
6
CONTINUOUS
10
9.0989
20
-3.78456
11
9.093
21
-3.77918
0
LINE
8
BLACK
6
CONTINUOUS
10
9.093
20
-3.77918
11
9.08818
21
-3.7728
0
LINE
8
BLACK
6
CONTINUOUS
10
9.08818
20
-3.7728
11
9.08462
21
-3.76564
0
LINE
8
BLACK
6
CONTINUOUS
10
9.08462
20
-3.76564
11
9.08243
21
-3.75796
0
LINE
8
BLACK
6
CONTINUOUS
10
9.08243
20
-3.75796
11
9.08169
21
-3.75
0
LINE
8
BLACK
6
CONTINUOUS
10
9.08169
20
-3.75
11
9.08243
21
-3.74204
0
LINE
8
BLACK
6
CONTINUOUS
10
9.08243
20
-3.74204
11
9.08462
21
-3.73436
0
LINE
8
BLACK
6
CONTINUOUS
10
9.08462
20
-3.73436
11
9.08818
21
-3.7272
0
LINE
8
BLACK
6
CONTINUOUS
10
9.08818
20
-3.7272
11
9.093
21
-3.72082
0
LINE
8
BLACK
6
CONTINUOUS
10
9.093
20
-3.72082
11
9.0989
21
-3.71544
0
LINE
8
BLACK
6
CONTINUOUS
10
9.0989
20
-3.71544
11
9.1057
21
-3.71123
0
LINE
8
BLACK
6
CONTINUOUS
10
9.1057
20
-3.71123
11
9.11315
21
-3.70835
0
LINE
8
BLACK
6
CONTINUOUS
10
9.11315
20
-3.70835
11
9.121
21
-3.70688
0
LINE
8
BLACK
6
CONTINUOUS
10
9.121
20
-3.70688
11
9.129
21
-3.70688
0
LINE
8
BLACK
6
CONTINUOUS
10
9.129
20
-3.70688
11
9.13685
21
-3.70835
0
LINE
8
BLACK
6
CONTINUOUS
10
7.57435
20
-3.70835
11
7.5818
21
-3.71123
0
LINE
8
BLACK
6
CONTINUOUS
10
7.5818
20
-3.71123
11
7.5886
21
-3.71544
0
LINE
8
BLACK
6
CONTINUOUS
10
7.5886
20
-3.71544
11
7.5945
21
-3.72082
0
LINE
8
BLACK
6
CONTINUOUS
10
7.5945
20
-3.72082
11
7.59932
21
-3.7272
0
LINE
8
BLACK
6
CONTINUOUS
10
7.59932
20
-3.7272
11
7.60288
21
-3.73436
0
LINE
8
BLACK
6
CONTINUOUS
10
7.60288
20
-3.73436
11
7.60507
21
-3.74204
0
LINE
8
BLACK
6
CONTINUOUS
10
7.60507
20
-3.74204
11
7.60581
21
-3.75
0
LINE
8
BLACK
6
CONTINUOUS
10
7.60581
20
-3.75
11
7.60507
21
-3.75796
0
LINE
8
BLACK
6
CONTINUOUS
10
7.60507
20
-3.75796
11
7.60288
21
-3.76564
0
LINE
8
BLACK
6
CONTINUOUS
10
7.60288
20
-3.76564
11
7.59932
21
-3.7728
0
LINE
8
BLACK
6
CONTINUOUS
10
7.59932
20
-3.7728
11
7.5945
21
-3.77918
0
LINE
8
BLACK
6
CONTINUOUS
10
7.5945
20
-3.77918
11
7.5886
21
-3.78456
0
LINE
8
BLACK
6
CONTINUOUS
10
7.5886
20
-3.78456
11
7.5818
21
-3.78877
0
LINE
8
BLACK
6
CONTINUOUS
10
7.5818
20
-3.78877
11
7.57435
21
-3.79165
0
LINE
8
BLACK
6
CONTINUOUS
10
7.57435
20
-3.79165
11
7.5665
21
-3.79312
0
LINE
8
BLACK
6
CONTINUOUS
10
7.5665
20
-3.79312
11
7.5585
21
-3.79312
0
LINE
8
BLACK
6
CONTINUOUS
10
7.5585
20
-3.79312
11
7.55065
21
-3.79165
0
LINE
8
BLACK
6
CONTINUOUS
10
7.55065
20
-3.79165
11
7.5432
21
-3.78877
0
LINE
8
BLACK
6
CONTINUOUS
10
7.5432
20
-3.78877
11
7.5364
21
-3.78456
0
LINE
8
BLACK
6
CONTINUOUS
10
7.5364
20
-3.78456
11
7.5305
21
-3.77918
0
LINE
8
BLACK
6
CONTINUOUS
10
7.5305
20
-3.77918
11
7.52568
21
-3.7728
0
LINE
8
BLACK
6
CONTINUOUS
10
7.52568
20
-3.7728
11
7.52212
21
-3.76564
0
LINE
8
BLACK
6
CONTINUOUS
10
7.52212
20
-3.76564
11
7.51993
21
-3.75796
0
LINE
8
BLACK
6
CONTINUOUS
10
7.51993
20
-3.75796
11
7.51919
21
-3.75
0
LINE
8
BLACK
6
CONTINUOUS
10
7.51919
20
-3.75
11
7.51993
21
-3.74204
0
LINE
8
BLACK
6
CONTINUOUS
10
7.51993
20
-3.74204
11
7.52212
21
-3.73436
0
LINE
8
BLACK
6
CONTINUOUS
10
7.52212
20
-3.73436
11
7.52568
21
-3.7272
0
LINE
8
BLACK
6
CONTINUOUS
10
7.52568
20
-3.7272
11
7.5305
21
-3.72082
0
LINE
8
BLACK
6
CONTINUOUS
10
7.5305
20
-3.72082
11
7.5364
21
-3.71544
0
LINE
8
BLACK
6
CONTINUOUS
10
7.5364
20
-3.71544
11
7.5432
21
-3.71123
0
LINE
8
BLACK
6
CONTINUOUS
10
7.5432
20
-3.71123
11
7.55065
21
-3.70835
0
LINE
8
BLACK
6
CONTINUOUS
10
7.55065
20
-3.70835
11
7.5585
21
-3.70688
0
LINE
8
BLACK
6
CONTINUOUS
10
7.5585
20
-3.70688
11
7.5665
21
-3.70688
0
LINE
8
BLACK
6
CONTINUOUS
10
7.5665
20
-3.70688
11
7.57435
21
-3.70835
0
LINE
8
BLACK
6
CONTINUOUS
10
6.07435
20
-3.70835
11
6.0818
21
-3.71123
0
LINE
8
BLACK
6
CONTINUOUS
10
6.0818
20
-3.71123
11
6.0886
21
-3.71544
0
LINE
8
BLACK
6
CONTINUOUS
10
6.0886
20
-3.71544
11
6.0945
21
-3.72082
0
LINE
8
BLACK
6
CONTINUOUS
10
6.0945
20
-3.72082
11
6.09932
21
-3.7272
0
LINE
8
BLACK
6
CONTINUOUS
10
6.09932
20
-3.7272
11
6.10288
21
-3.73436
0
LINE
8
BLACK
6
CONTINUOUS
10
6.10288
20
-3.73436
11
6.10507
21
-3.74204
0
LINE
8
BLACK
6
CONTINUOUS
10
6.10507
20
-3.74204
11
6.10581
21
-3.75
0
LINE
8
BLACK
6
CONTINUOUS
10
6.10581
20
-3.75
11
6.10507
21
-3.75796
0
LINE
8
BLACK
6
CONTINUOUS
10
6.10507
20
-3.75796
11
6.10288
21
-3.76564
0
LINE
8
BLACK
6
CONTINUOUS
10
6.10288
20
-3.76564
11
6.09932
21
-3.7728
0
LINE
8
BLACK
6
CONTINUOUS
10
6.09932
20
-3.7728
11
6.0945
21
-3.77918
0
LINE
8
BLACK
6
CONTINUOUS
10
6.0945
20
-3.77918
11
6.0886
21
-3.78456
0
LINE
8
BLACK
6
CONTINUOUS
10
6.0886
20
-3.78456
11
6.0818
21
-3.78877
0
LINE
8
BLACK
6
CONTINUOUS
10
6.0818
20
-3.78877
11
6.07435
21
-3.79165
0
LINE
8
BLACK
6
CONTINUOUS
10
6.07435
20
-3.79165
11
6.0665
21
-3.79312
0
LINE
8
BLACK
6
CONTINUOUS
10
6.0665
20
-3.79312
11
6.0585
21
-3.79312
0
LINE
8
BLACK
6
CONTINUOUS
10
6.0585
20
-3.79312
11
6.05065
21
-3.79165
0
LINE
8
BLACK
6
CONTINUOUS
10
6.05065
20
-3.79165
11
6.0432
21
-3.78877
0
LINE
8
BLACK
6
CONTINUOUS
10
6.0432
20
-3.78877
11
6.0364
21
-3.78456
0
LINE
8
BLACK
6
CONTINUOUS
10
6.0364
20
-3.78456
11
6.0305
21
-3.77918
0
LINE
8
BLACK
6
CONTINUOUS
10
6.0305
20
-3.77918
11
6.02568
21
-3.7728
0
LINE
8
BLACK
6
CONTINUOUS
10
6.02568
20
-3.7728
11
6.02212
21
-3.76564
0
LINE
8
BLACK
6
CONTINUOUS
10
6.02212
20
-3.76564
11
6.01993
21
-3.75796
0
LINE
8
BLACK
6
CONTINUOUS
10
6.01993
20
-3.75796
11
6.01919
21
-3.75
0
LINE
8
BLACK
6
CONTINUOUS
10
6.01919
20
-3.75
11
6.01993
21
-3.74204
0
LINE
8
BLACK
6
CONTINUOUS
10
6.01993
20
-3.74204
11
6.02212
21
-3.73436
0
LINE
8
BLACK
6
CONTINUOUS
10
6.02212
20
-3.73436
11
6.02568
21
-3.7272
0
LINE
8
BLACK
6
CONTINUOUS
10
6.02568
20
-3.7272
11
6.0305
21
-3.72082
0
LINE
8
BLACK
6
CONTINUOUS
10
6.0305
20
-3.72082
11
6.0364
21
-3.71544
0
LINE
8
BLACK
6
CONTINUOUS
10
6.0364
20
-3.71544
11
6.0432
21
-3.71123
0
LINE
8
BLACK
6
CONTINUOUS
10
6.0432
20
-3.71123
11
6.05065
21
-3.70835
0
LINE
8
BLACK
6
CONTINUOUS
10
6.05065
20
-3.70835
11
6.0585
21
-3.70688
0
LINE
8
BLACK
6
CONTINUOUS
10
6.0585
20
-3.70688
11
6.0665
21
-3.70688
0
LINE
8
BLACK
6
CONTINUOUS
10
6.0665
20
-3.70688
11
6.07435
21
-3.70835
0
LINE
8
BLACK
6
CONTINUOUS
10
4.57435
20
-3.70835
11
4.5818
21
-3.71123
0
LINE
8
BLACK
6
CONTINUOUS
10
4.5818
20
-3.71123
11
4.5886
21
-3.71544
0
LINE
8
BLACK
6
CONTINUOUS
10
4.5886
20
-3.71544
11
4.5945
21
-3.72082
0
LINE
8
BLACK
6
CONTINUOUS
10
4.5945
20
-3.72082
11
4.59932
21
-3.7272
0
LINE
8
BLACK
6
CONTINUOUS
10
4.59932
20
-3.7272
11
4.60288
21
-3.73436
0
LINE
8
BLACK
6
CONTINUOUS
10
4.60288
20
-3.73436
11
4.60507
21
-3.74204
0
LINE
8
BLACK
6
CONTINUOUS
10
4.60507
20
-3.74204
11
4.60581
21
-3.75
0
LINE
8
BLACK
6
CONTINUOUS
10
4.60581
20
-3.75
11
4.60507
21
-3.75796
0
LINE
8
BLACK
6
CONTINUOUS
10
4.60507
20
-3.75796
11
4.60288
21
-3.76564
0
LINE
8
BLACK
6
CONTINUOUS
10
4.60288
20
-3.76564
11
4.59932
21
-3.7728
0
LINE
8
BLACK
6
CONTINUOUS
10
4.59932
20
-3.7728
11
4.5945
21
-3.77918
0
LINE
8
BLACK
6
CONTINUOUS
10
4.5945
20
-3.77918
11
4.5886
21
-3.78456
0
LINE
8
BLACK
6
CONTINUOUS
10
4.5886
20
-3.78456
11
4.5818
21
-3.78877
0
LINE
8
BLACK
6
CONTINUOUS
10
4.5818
20
-3.78877
11
4.57435
21
-3.79165
0
LINE
8
BLACK
6
CONTINUOUS
10
4.57435
20
-3.79165
11
4.5665
21
-3.79312
0
LINE
8
BLACK
6
CONTINUOUS
10
4.5665
20
-3.79312
11
4.5585
21
-3.79312
0
LINE
8
BLACK
6
CONTINUOUS
10
4.5585
20
-3.79312
11
4.55065
21
-3.79165
0
LINE
8
BLACK
6
CONTINUOUS
10
4.55065
20
-3.79165
11
4.5432
21
-3.78877
0
LINE
8
BLACK
6
CONTINUOUS
10
4.5432
20
-3.78877
11
4.5364
21
-3.78456
0
LINE
8
BLACK
6
CONTINUOUS
10
4.5364
20
-3.78456
11
4.5305
21
-3.77918
0
LINE
8
BLACK
6
CONTINUOUS
10
4.5305
20
-3.77918
11
4.52568
21
-3.7728
0
LINE
8
BLACK
6
CONTINUOUS
10
4.52568
20
-3.7728
11
4.52212
21
-3.76564
0
LINE
8
BLACK
6
CONTINUOUS
10
4.52212
20
-3.76564
11
4.51993
21
-3.75796
0
LINE
8
BLACK
6
CONTINUOUS
10
4.51993
20
-3.75796
11
4.51919
21
-3.75
0
LINE
8
BLACK
6
CONTINUOUS
10
4.51919
20
-3.75
11
4.51993
21
-3.74204
0
LINE
8
BLACK
6
CONTINUOUS
10
4.51993
20
-3.74204
11
4.52212
21
-3.73436
0
LINE
8
BLACK
6
CONTINUOUS
10
4.52212
20
-3.73436
11
4.52568
21
-3.7272
0
LINE
8
BLACK
6
CONTINUOUS
10
4.52568
20
-3.7272
11
4.5305
21
-3.72082
0
LINE
8
BLACK
6
CONTINUOUS
10
4.5305
20
-3.72082
11
4.5364
21
-3.71544
0
LINE
8
BLACK
6
CONTINUOUS
10
4.5364
20
-3.71544
11
4.5432
21
-3.71123
0
LINE
8
BLACK
6
CONTINUOUS
10
4.5432
20
-3.71123
11
4.55065
21
-3.70835
0
LINE
8
BLACK
6
CONTINUOUS
10
4.55065
20
-3.70835
11
4.5585
21
-3.70688
0
LINE
8
BLACK
6
CONTINUOUS
10
4.5585
20
-3.70688
11
4.5665
21
-3.70688
0
LINE
8
BLACK
6
CONTINUOUS
10
4.5665
20
-3.70688
11
4.57435
21
-3.70835
0
LINE
8
BLACK
6
CONTINUOUS
10
2.82435
20
-3.70835
11
2.8318
21
-3.71123
0
LINE
8
BLACK
6
CONTINUOUS
10
2.8318
20
-3.71123
11
2.8386
21
-3.71544
0
LINE
8
BLACK
6
CONTINUOUS
10
2.8386
20
-3.71544
11
2.8445
21
-3.72082
0
LINE
8
BLACK
6
CONTINUOUS
10
2.8445
20
-3.72082
11
2.84932
21
-3.7272
0
LINE
8
BLACK
6
CONTINUOUS
10
2.84932
20
-3.7272
11
2.85288
21
-3.73436
0
LINE
8
BLACK
6
CONTINUOUS
10
2.85288
20
-3.73436
11
2.85507
21
-3.74204
0
LINE
8
BLACK
6
CONTINUOUS
10
2.85507
20
-3.74204
11
2.85581
21
-3.75
0
LINE
8
BLACK
6
CONTINUOUS
10
2.85581
20
-3.75
11
2.85507
21
-3.75796
0
LINE
8
BLACK
6
CONTINUOUS
10
2.85507
20
-3.75796
11
2.85288
21
-3.76564
0
LINE
8
BLACK
6
CONTINUOUS
10
2.85288
20
-3.76564
11
2.84932
21
-3.7728
0
LINE
8
BLACK
6
CONTINUOUS
10
2.84932
20
-3.7728
11
2.8445
21
-3.77918
0
LINE
8
BLACK
6
CONTINUOUS
10
2.8445
20
-3.77918
11
2.8386
21
-3.78456
0
LINE
8
BLACK
6
CONTINUOUS
10
2.8386
20
-3.78456
11
2.8318
21
-3.78877
0
LINE
8
BLACK
6
CONTINUOUS
10
2.8318
20
-3.78877
11
2.82435
21
-3.79165
0
LINE
8
BLACK
6
CONTINUOUS
10
2.82435
20
-3.79165
11
2.8165
21
-3.79312
0
LINE
8
BLACK
6
CONTINUOUS
10
2.8165
20
-3.79312
11
2.8085
21
-3.79312
0
LINE
8
BLACK
6
CONTINUOUS
10
2.8085
20
-3.79312
11
2.80065
21
-3.79165
0
LINE
8
BLACK
6
CONTINUOUS
10
2.80065
20
-3.79165
11
2.7932
21
-3.78877
0
LINE
8
BLACK
6
CONTINUOUS
10
2.7932
20
-3.78877
11
2.7864
21
-3.78456
0
LINE
8
BLACK
6
CONTINUOUS
10
2.7864
20
-3.78456
11
2.7805
21
-3.77918
0
LINE
8
BLACK
6
CONTINUOUS
10
2.7805
20
-3.77918
11
2.77568
21
-3.7728
0
LINE
8
BLACK
6
CONTINUOUS
10
2.77568
20
-3.7728
11
2.77212
21
-3.76564
0
LINE
8
BLACK
6
CONTINUOUS
10
2.77212
20
-3.76564
11
2.76993
21
-3.75796
0
LINE
8
BLACK
6
CONTINUOUS
10
2.76993
20
-3.75796
11
2.76919
21
-3.75
0
LINE
8
BLACK
6
CONTINUOUS
10
2.76919
20
-3.75
11
2.76993
21
-3.74204
0
LINE
8
BLACK
6
CONTINUOUS
10
2.76993
20
-3.74204
11
2.77212
21
-3.73436
0
LINE
8
BLACK
6
CONTINUOUS
10
2.77212
20
-3.73436
11
2.77568
21
-3.7272
0
LINE
8
BLACK
6
CONTINUOUS
10
2.77568
20
-3.7272
11
2.7805
21
-3.72082
0
LINE
8
BLACK
6
CONTINUOUS
10
2.7805
20
-3.72082
11
2.7864
21
-3.71544
0
LINE
8
BLACK
6
CONTINUOUS
10
2.7864
20
-3.71544
11
2.7932
21
-3.71123
0
LINE
8
BLACK
6
CONTINUOUS
10
2.7932
20
-3.71123
11
2.80065
21
-3.70835
0
LINE
8
BLACK
6
CONTINUOUS
10
2.80065
20
-3.70835
11
2.8085
21
-3.70688
0
LINE
8
BLACK
6
CONTINUOUS
10
2.8085
20
-3.70688
11
2.8165
21
-3.70688
0
LINE
8
BLACK
6
CONTINUOUS
10
2.8165
20
-3.70688
11
2.82435
21
-3.70835
0
LINE
8
BLACK
6
CONTINUOUS
10
8.69935
20
-2.95835
11
8.7068
21
-2.96123
0
LINE
8
BLACK
6
CONTINUOUS
10
8.7068
20
-2.96123
11
8.7136
21
-2.96544
0
LINE
8
BLACK
6
CONTINUOUS
10
8.7136
20
-2.96544
11
8.7195
21
-2.97082
0
LINE
8
BLACK
6
CONTINUOUS
10
8.7195
20
-2.97082
11
8.72432
21
-2.9772
0
LINE
8
BLACK
6
CONTINUOUS
10
8.72432
20
-2.9772
11
8.72788
21
-2.98436
0
LINE
8
BLACK
6
CONTINUOUS
10
8.72788
20
-2.98436
11
8.73007
21
-2.99204
0
LINE
8
BLACK
6
CONTINUOUS
10
8.73007
20
-2.99204
11
8.73081
21
-3
0
LINE
8
BLACK
6
CONTINUOUS
10
8.73081
20
-3
11
8.73007
21
-3.00796
0
LINE
8
BLACK
6
CONTINUOUS
10
8.73007
20
-3.00796
11
8.72788
21
-3.01564
0
LINE
8
BLACK
6
CONTINUOUS
10
8.72788
20
-3.01564
11
8.72432
21
-3.0228
0
LINE
8
BLACK
6
CONTINUOUS
10
8.72432
20
-3.0228
11
8.7195
21
-3.02918
0
LINE
8
BLACK
6
CONTINUOUS
10
8.7195
20
-3.02918
11
8.7136
21
-3.03456
0
LINE
8
BLACK
6
CONTINUOUS
10
8.7136
20
-3.03456
11
8.7068
21
-3.03877
0
LINE
8
BLACK
6
CONTINUOUS
10
8.7068
20
-3.03877
11
8.69935
21
-3.04165
0
LINE
8
BLACK
6
CONTINUOUS
10
8.69935
20
-3.04165
11
8.6915
21
-3.04312
0
LINE
8
BLACK
6
CONTINUOUS
10
8.6915
20
-3.04312
11
8.6835
21
-3.04312
0
LINE
8
BLACK
6
CONTINUOUS
10
8.6835
20
-3.04312
11
8.67565
21
-3.04165
0
LINE
8
BLACK
6
CONTINUOUS
10
8.67565
20
-3.04165
11
8.6682
21
-3.03877
0
LINE
8
BLACK
6
CONTINUOUS
10
8.6682
20
-3.03877
11
8.6614
21
-3.03456
0
LINE
8
BLACK
6
CONTINUOUS
10
8.6614
20
-3.03456
11
8.6555
21
-3.02918
0
LINE
8
BLACK
6
CONTINUOUS
10
8.6555
20
-3.02918
11
8.65068
21
-3.0228
0
LINE
8
BLACK
6
CONTINUOUS
10
8.65068
20
-3.0228
11
8.64712
21
-3.01564
0
LINE
8
BLACK
6
CONTINUOUS
10
8.64712
20
-3.01564
11
8.64493
21
-3.00796
0
LINE
8
BLACK
6
CONTINUOUS
10
8.64493
20
-3.00796
11
8.64419
21
-3
0
LINE
8
BLACK
6
CONTINUOUS
10
8.64419
20
-3
11
8.64493
21
-2.99204
0
LINE
8
BLACK
6
CONTINUOUS
10
8.64493
20
-2.99204
11
8.64712
21
-2.98436
0
LINE
8
BLACK
6
CONTINUOUS
10
8.64712
20
-2.98436
11
8.65068
21
-2.9772
0
LINE
8
BLACK
6
CONTINUOUS
10
8.65068
20
-2.9772
11
8.6555
21
-2.97082
0
LINE
8
BLACK
6
CONTINUOUS
10
8.6555
20
-2.97082
11
8.6614
21
-2.96544
0
LINE
8
BLACK
6
CONTINUOUS
10
8.6614
20
-2.96544
11
8.6682
21
-2.96123
0
LINE
8
BLACK
6
CONTINUOUS
10
8.6682
20
-2.96123
11
8.67565
21
-2.95835
0
LINE
8
BLACK
6
CONTINUOUS
10
8.67565
20
-2.95835
11
8.6835
21
-2.95688
0
LINE
8
BLACK
6
CONTINUOUS
10
8.6835
20
-2.95688
11
8.6915
21
-2.95688
0
LINE
8
BLACK
6
CONTINUOUS
10
8.6915
20
-2.95688
11
8.69935
21
-2.95835
0
LINE
8
BLACK
6
CONTINUOUS
10
7.19935
20
-2.95835
11
7.2068
21
-2.96123
0
LINE
8
BLACK
6
CONTINUOUS
10
7.2068
20
-2.96123
11
7.2136
21
-2.96544
0
LINE
8
BLACK
6
CONTINUOUS
10
7.2136
20
-2.96544
11
7.2195
21
-2.97082
0
LINE
8
BLACK
6
CONTINUOUS
10
7.2195
20
-2.97082
11
7.22432
21
-2.9772
0
LINE
8
BLACK
6
CONTINUOUS
10
7.22432
20
-2.9772
11
7.22788
21
-2.98436
0
LINE
8
BLACK
6
CONTINUOUS
10
7.22788
20
-2.98436
11
7.23007
21
-2.99204
0
LINE
8
BLACK
6
CONTINUOUS
10
7.23007
20
-2.99204
11
7.23081
21
-3
0
LINE
8
BLACK
6
CONTINUOUS
10
7.23081
20
-3
11
7.23007
21
-3.00796
0
LINE
8
BLACK
6
CONTINUOUS
10
7.23007
20
-3.00796
11
7.22788
21
-3.01564
0
LINE
8
BLACK
6
CONTINUOUS
10
7.22788
20
-3.01564
11
7.22432
21
-3.0228
0
LINE
8
BLACK
6
CONTINUOUS
10
7.22432
20
-3.0228
11
7.2195
21
-3.02918
0
LINE
8
BLACK
6
CONTINUOUS
10
7.2195
20
-3.02918
11
7.2136
21
-3.03456
0
LINE
8
BLACK
6
CONTINUOUS
10
7.2136
20
-3.03456
11
7.2068
21
-3.03877
0
LINE
8
BLACK
6
CONTINUOUS
10
7.2068
20
-3.03877
11
7.19935
21
-3.04165
0
LINE
8
BLACK
6
CONTINUOUS
10
7.19935
20
-3.04165
11
7.1915
21
-3.04312
0
LINE
8
BLACK
6
CONTINUOUS
10
7.1915
20
-3.04312
11
7.1835
21
-3.04312
0
LINE
8
BLACK
6
CONTINUOUS
10
7.1835
20
-3.04312
11
7.17565
21
-3.04165
0
LINE
8
BLACK
6
CONTINUOUS
10
7.17565
20
-3.04165
11
7.1682
21
-3.03877
0
LINE
8
BLACK
6
CONTINUOUS
10
7.1682
20
-3.03877
11
7.1614
21
-3.03456
0
LINE
8
BLACK
6
CONTINUOUS
10
7.1614
20
-3.03456
11
7.1555
21
-3.02918
0
LINE
8
BLACK
6
CONTINUOUS
10
7.1555
20
-3.02918
11
7.15068
21
-3.0228
0
LINE
8
BLACK
6
CONTINUOUS
10
7.15068
20
-3.0228
11
7.14712
21
-3.01564
0
LINE
8
BLACK
6
CONTINUOUS
10
7.14712
20
-3.01564
11
7.14493
21
-3.00796
0
LINE
8
BLACK
6
CONTINUOUS
10
7.14493
20
-3.00796
11
7.14419
21
-3
0
LINE
8
BLACK
6
CONTINUOUS
10
7.14419
20
-3
11
7.14493
21
-2.99204
0
LINE
8
BLACK
6
CONTINUOUS
10
7.14493
20
-2.99204
11
7.14712
21
-2.98436
0
LINE
8
BLACK
6
CONTINUOUS
10
7.14712
20
-2.98436
11
7.15068
21
-2.9772
0
LINE
8
BLACK
6
CONTINUOUS
10
7.15068
20
-2.9772
11
7.1555
21
-2.97082
0
LINE
8
BLACK
6
CONTINUOUS
10
7.1555
20
-2.97082
11
7.1614
21
-2.96544
0
LINE
8
BLACK
6
CONTINUOUS
10
7.1614
20
-2.96544
11
7.1682
21
-2.96123
0
LINE
8
BLACK
6
CONTINUOUS
10
7.1682
20
-2.96123
11
7.17565
21
-2.95835
0
LINE
8
BLACK
6
CONTINUOUS
10
7.17565
20
-2.95835
11
7.1835
21
-2.95688
0
LINE
8
BLACK
6
CONTINUOUS
10
7.1835
20
-2.95688
11
7.1915
21
-2.95688
0
LINE
8
BLACK
6
CONTINUOUS
10
7.1915
20
-2.95688
11
7.19935
21
-2.95835
0
LINE
8
BLACK
6
CONTINUOUS
10
4.94935
20
-2.95835
11
4.9568
21
-2.96123
0
LINE
8
BLACK
6
CONTINUOUS
10
4.9568
20
-2.96123
11
4.9636
21
-2.96544
0
LINE
8
BLACK
6
CONTINUOUS
10
4.9636
20
-2.96544
11
4.9695
21
-2.97082
0
LINE
8
BLACK
6
CONTINUOUS
10
4.9695
20
-2.97082
11
4.97432
21
-2.9772
0
LINE
8
BLACK
6
CONTINUOUS
10
4.97432
20
-2.9772
11
4.97788
21
-2.98436
0
LINE
8
BLACK
6
CONTINUOUS
10
4.97788
20
-2.98436
11
4.98007
21
-2.99204
0
LINE
8
BLACK
6
CONTINUOUS
10
4.98007
20
-2.99204
11
4.98081
21
-3
0
LINE
8
BLACK
6
CONTINUOUS
10
4.98081
20
-3
11
4.98007
21
-3.00796
0
LINE
8
BLACK
6
CONTINUOUS
10
4.98007
20
-3.00796
11
4.97788
21
-3.01564
0
LINE
8
BLACK
6
CONTINUOUS
10
4.97788
20
-3.01564
11
4.97432
21
-3.0228
0
LINE
8
BLACK
6
CONTINUOUS
10
4.97432
20
-3.0228
11
4.9695
21
-3.02918
0
LINE
8
BLACK
6
CONTINUOUS
10
4.9695
20
-3.02918
11
4.9636
21
-3.03456
0
LINE
8
BLACK
6
CONTINUOUS
10
4.9636
20
-3.03456
11
4.9568
21
-3.03877
0
LINE
8
BLACK
6
CONTINUOUS
10
4.9568
20
-3.03877
11
4.94935
21
-3.04165
0
LINE
8
BLACK
6
CONTINUOUS
10
4.94935
20
-3.04165
11
4.9415
21
-3.04312
0
LINE
8
BLACK
6
CONTINUOUS
10
4.9415
20
-3.04312
11
4.9335
21
-3.04312
0
LINE
8
BLACK
6
CONTINUOUS
10
4.9335
20
-3.04312
11
4.92565
21
-3.04165
0
LINE
8
BLACK
6
CONTINUOUS
10
4.92565
20
-3.04165
11
4.9182
21
-3.03877
0
LINE
8
BLACK
6
CONTINUOUS
10
4.9182
20
-3.03877
11
4.9114
21
-3.03456
0
LINE
8
BLACK
6
CONTINUOUS
10
4.9114
20
-3.03456
11
4.9055
21
-3.02918
0
LINE
8
BLACK
6
CONTINUOUS
10
4.9055
20
-3.02918
11
4.90068
21
-3.0228
0
LINE
8
BLACK
6
CONTINUOUS
10
4.90068
20
-3.0228
11
4.89712
21
-3.01564
0
LINE
8
BLACK
6
CONTINUOUS
10
4.89712
20
-3.01564
11
4.89493
21
-3.00796
0
LINE
8
BLACK
6
CONTINUOUS
10
4.89493
20
-3.00796
11
4.89419
21
-3
0
LINE
8
BLACK
6
CONTINUOUS
10
4.89419
20
-3
11
4.89493
21
-2.99204
0
LINE
8
BLACK
6
CONTINUOUS
10
4.89493
20
-2.99204
11
4.89712
21
-2.98436
0
LINE
8
BLACK
6
CONTINUOUS
10
4.89712
20
-2.98436
11
4.90068
21
-2.9772
0
LINE
8
BLACK
6
CONTINUOUS
10
4.90068
20
-2.9772
11
4.9055
21
-2.97082
0
LINE
8
BLACK
6
CONTINUOUS
10
4.9055
20
-2.97082
11
4.9114
21
-2.96544
0
LINE
8
BLACK
6
CONTINUOUS
10
4.9114
20
-2.96544
11
4.9182
21
-2.96123
0
LINE
8
BLACK
6
CONTINUOUS
10
4.9182
20
-2.96123
11
4.92565
21
-2.95835
0
LINE
8
BLACK
6
CONTINUOUS
10
4.92565
20
-2.95835
11
4.9335
21
-2.95688
0
LINE
8
BLACK
6
CONTINUOUS
10
4.9335
20
-2.95688
11
4.9415
21
-2.95688
0
LINE
8
BLACK
6
CONTINUOUS
10
4.9415
20
-2.95688
11
4.94935
21
-2.95835
0
LINE
8
BLACK
6
CONTINUOUS
10
3.44935
20
-2.95835
11
3.4568
21
-2.96123
0
LINE
8
BLACK
6
CONTINUOUS
10
3.4568
20
-2.96123
11
3.4636
21
-2.96544
0
LINE
8
BLACK
6
CONTINUOUS
10
3.4636
20
-2.96544
11
3.4695
21
-2.97082
0
LINE
8
BLACK
6
CONTINUOUS
10
3.4695
20
-2.97082
11
3.47432
21
-2.9772
0
LINE
8
BLACK
6
CONTINUOUS
10
3.47432
20
-2.9772
11
3.47788
21
-2.98436
0
LINE
8
BLACK
6
CONTINUOUS
10
3.47788
20
-2.98436
11
3.48007
21
-2.99204
0
LINE
8
BLACK
6
CONTINUOUS
10
3.48007
20
-2.99204
11
3.48081
21
-3
0
LINE
8
BLACK
6
CONTINUOUS
10
3.48081
20
-3
11
3.48007
21
-3.00796
0
LINE
8
BLACK
6
CONTINUOUS
10
3.48007
20
-3.00796
11
3.47788
21
-3.01564
0
LINE
8
BLACK
6
CONTINUOUS
10
3.47788
20
-3.01564
11
3.47432
21
-3.0228
0
LINE
8
BLACK
6
CONTINUOUS
10
3.47432
20
-3.0228
11
3.4695
21
-3.02918
0
LINE
8
BLACK
6
CONTINUOUS
10
3.4695
20
-3.02918
11
3.4636
21
-3.03456
0
LINE
8
BLACK
6
CONTINUOUS
10
3.4636
20
-3.03456
11
3.4568
21
-3.03877
0
LINE
8
BLACK
6
CONTINUOUS
10
3.4568
20
-3.03877
11
3.44935
21
-3.04165
0
LINE
8
BLACK
6
CONTINUOUS
10
3.44935
20
-3.04165
11
3.4415
21
-3.04312
0
LINE
8
BLACK
6
CONTINUOUS
10
3.4415
20
-3.04312
11
3.4335
21
-3.04312
0
LINE
8
BLACK
6
CONTINUOUS
10
3.4335
20
-3.04312
11
3.42565
21
-3.04165
0
LINE
8
BLACK
6
CONTINUOUS
10
3.42565
20
-3.04165
11
3.4182
21
-3.03877
0
LINE
8
BLACK
6
CONTINUOUS
10
3.4182
20
-3.03877
11
3.4114
21
-3.03456
0
LINE
8
BLACK
6
CONTINUOUS
10
3.4114
20
-3.03456
11
3.4055
21
-3.02918
0
LINE
8
BLACK
6
CONTINUOUS
10
3.4055
20
-3.02918
11
3.40068
21
-3.0228
0
LINE
8
BLACK
6
CONTINUOUS
10
3.40068
20
-3.0228
11
3.39712
21
-3.01564
0
LINE
8
BLACK
6
CONTINUOUS
10
3.39712
20
-3.01564
11
3.39493
21
-3.00796
0
LINE
8
BLACK
6
CONTINUOUS
10
3.39493
20
-3.00796
11
3.39419
21
-3
0
LINE
8
BLACK
6
CONTINUOUS
10
3.39419
20
-3
11
3.39493
21
-2.99204
0
LINE
8
BLACK
6
CONTINUOUS
10
3.39493
20
-2.99204
11
3.39712
21
-2.98436
0
LINE
8
BLACK
6
CONTINUOUS
10
3.39712
20
-2.98436
11
3.40068
21
-2.9772
0
LINE
8
BLACK
6
CONTINUOUS
10
3.40068
20
-2.9772
11
3.4055
21
-2.97082
0
LINE
8
BLACK
6
CONTINUOUS
10
3.4055
20
-2.97082
11
3.4114
21
-2.96544
0
LINE
8
BLACK
6
CONTINUOUS
10
3.4114
20
-2.96544
11
3.4182
21
-2.96123
0
LINE
8
BLACK
6
CONTINUOUS
10
3.4182
20
-2.96123
11
3.42565
21
-2.95835
0
LINE
8
BLACK
6
CONTINUOUS
10
3.42565
20
-2.95835
11
3.4335
21
-2.95688
0
LINE
8
BLACK
6
CONTINUOUS
10
3.4335
20
-2.95688
11
3.4415
21
-2.95688
0
LINE
8
BLACK
6
CONTINUOUS
10
3.4415
20
-2.95688
11
3.44935
21
-2.95835
0
LINE
8
BLACK
6
CONTINUOUS
10
9.26185
20
-2.20835
11
9.2693
21
-2.21123
0
LINE
8
BLACK
6
CONTINUOUS
10
9.2693
20
-2.21123
11
9.2761
21
-2.21544
0
LINE
8
BLACK
6
CONTINUOUS
10
9.2761
20
-2.21544
11
9.282
21
-2.22082
0
LINE
8
BLACK
6
CONTINUOUS
10
9.282
20
-2.22082
11
9.28682
21
-2.2272
0
LINE
8
BLACK
6
CONTINUOUS
10
9.28682
20
-2.2272
11
9.29038
21
-2.23436
0
LINE
8
BLACK
6
CONTINUOUS
10
9.29038
20
-2.23436
11
9.29257
21
-2.24204
0
LINE
8
BLACK
6
CONTINUOUS
10
9.29257
20
-2.24204
11
9.29331
21
-2.25
0
LINE
8
BLACK
6
CONTINUOUS
10
9.29331
20
-2.25
11
9.29257
21
-2.25796
0
LINE
8
BLACK
6
CONTINUOUS
10
9.29257
20
-2.25796
11
9.29038
21
-2.26564
0
LINE
8
BLACK
6
CONTINUOUS
10
9.29038
20
-2.26564
11
9.28682
21
-2.2728
0
LINE
8
BLACK
6
CONTINUOUS
10
9.28682
20
-2.2728
11
9.282
21
-2.27918
0
LINE
8
BLACK
6
CONTINUOUS
10
9.282
20
-2.27918
11
9.2761
21
-2.28456
0
LINE
8
BLACK
6
CONTINUOUS
10
9.2761
20
-2.28456
11
9.2693
21
-2.28877
0
LINE
8
BLACK
6
CONTINUOUS
10
9.2693
20
-2.28877
11
9.26185
21
-2.29165
0
LINE
8
BLACK
6
CONTINUOUS
10
9.26185
20
-2.29165
11
9.254
21
-2.29312
0
LINE
8
BLACK
6
CONTINUOUS
10
9.254
20
-2.29312
11
9.246
21
-2.29312
0
LINE
8
BLACK
6
CONTINUOUS
10
9.246
20
-2.29312
11
9.23815
21
-2.29165
0
LINE
8
BLACK
6
CONTINUOUS
10
9.23815
20
-2.29165
11
9.2307
21
-2.28877
0
LINE
8
BLACK
6
CONTINUOUS
10
9.2307
20
-2.28877
11
9.2239
21
-2.28456
0
LINE
8
BLACK
6
CONTINUOUS
10
9.2239
20
-2.28456
11
9.218
21
-2.27918
0
LINE
8
BLACK
6
CONTINUOUS
10
9.218
20
-2.27918
11
9.21318
21
-2.2728
0
LINE
8
BLACK
6
CONTINUOUS
10
9.21318
20
-2.2728
11
9.20962
21
-2.26564
0
LINE
8
BLACK
6
CONTINUOUS
10
9.20962
20
-2.26564
11
9.20743
21
-2.25796
0
LINE
8
BLACK
6
CONTINUOUS
10
9.20743
20
-2.25796
11
9.20669
21
-2.25
0
LINE
8
BLACK
6
CONTINUOUS
10
9.20669
20
-2.25
11
9.20743
21
-2.24204
0
LINE
8
BLACK
6
CONTINUOUS
10
9.20743
20
-2.24204
11
9.20962
21
-2.23436
0
LINE
8
BLACK
6
CONTINUOUS
10
9.20962
20
-2.23436
11
9.21318
21
-2.2272
0
LINE
8
BLACK
6
CONTINUOUS
10
9.21318
20
-2.2272
11
9.218
21
-2.22082
0
LINE
8
BLACK
6
CONTINUOUS
10
9.218
20
-2.22082
11
9.2239
21
-2.21544
0
LINE
8
BLACK
6
CONTINUOUS
10
9.2239
20
-2.21544
11
9.2307
21
-2.21123
0
LINE
8
BLACK
6
CONTINUOUS
10
9.2307
20
-2.21123
11
9.23815
21
-2.20835
0
LINE
8
BLACK
6
CONTINUOUS
10
9.23815
20
-2.20835
11
9.246
21
-2.20688
0
LINE
8
BLACK
6
CONTINUOUS
10
9.246
20
-2.20688
11
9.254
21
-2.20688
0
LINE
8
BLACK
6
CONTINUOUS
10
9.254
20
-2.20688
11
9.26185
21
-2.20835
0
LINE
8
BLACK
6
CONTINUOUS
10
7.01185
20
-2.20835
11
7.0193
21
-2.21123
0
LINE
8
BLACK
6
CONTINUOUS
10
7.0193
20
-2.21123
11
7.0261
21
-2.21544
0
LINE
8
BLACK
6
CONTINUOUS
10
7.0261
20
-2.21544
11
7.032
21
-2.22082
0
LINE
8
BLACK
6
CONTINUOUS
10
7.032
20
-2.22082
11
7.03682
21
-2.2272
0
LINE
8
BLACK
6
CONTINUOUS
10
7.03682
20
-2.2272
11
7.04038
21
-2.23436
0
LINE
8
BLACK
6
CONTINUOUS
10
7.04038
20
-2.23436
11
7.04257
21
-2.24204
0
LINE
8
BLACK
6
CONTINUOUS
10
7.04257
20
-2.24204
11
7.04331
21
-2.25
0
LINE
8
BLACK
6
CONTINUOUS
10
7.04331
20
-2.25
11
7.04257
21
-2.25796
0
LINE
8
BLACK
6
CONTINUOUS
10
7.04257
20
-2.25796
11
7.04038
21
-2.26564
0
LINE
8
BLACK
6
CONTINUOUS
10
7.04038
20
-2.26564
11
7.03682
21
-2.2728
0
LINE
8
BLACK
6
CONTINUOUS
10
7.03682
20
-2.2728
11
7.032
21
-2.27918
0
LINE
8
BLACK
6
CONTINUOUS
10
7.032
20
-2.27918
11
7.0261
21
-2.28456
0
LINE
8
BLACK
6
CONTINUOUS
10
7.0261
20
-2.28456
11
7.0193
21
-2.28877
0
LINE
8
BLACK
6
CONTINUOUS
10
7.0193
20
-2.28877
11
7.01185
21
-2.29165
0
LINE
8
BLACK
6
CONTINUOUS
10
7.01185
20
-2.29165
11
7.004
21
-2.29312
0
LINE
8
BLACK
6
CONTINUOUS
10
7.004
20
-2.29312
11
6.996
21
-2.29312
0
LINE
8
BLACK
6
CONTINUOUS
10
6.996
20
-2.29312
11
6.98815
21
-2.29165
0
LINE
8
BLACK
6
CONTINUOUS
10
6.98815
20
-2.29165
11
6.9807
21
-2.28877
0
LINE
8
BLACK
6
CONTINUOUS
10
6.9807
20
-2.28877
11
6.9739
21
-2.28456
0
LINE
8
BLACK
6
CONTINUOUS
10
6.9739
20
-2.28456
11
6.968
21
-2.27918
0
LINE
8
BLACK
6
CONTINUOUS
10
6.968
20
-2.27918
11
6.96318
21
-2.2728
0
LINE
8
BLACK
6
CONTINUOUS
10
6.96318
20
-2.2728
11
6.95962
21
-2.26564
0
LINE
8
BLACK
6
CONTINUOUS
10
6.95962
20
-2.26564
11
6.95743
21
-2.25796
0
LINE
8
BLACK
6
CONTINUOUS
10
6.95743
20
-2.25796
11
6.95669
21
-2.25
0
LINE
8
BLACK
6
CONTINUOUS
10
6.95669
20
-2.25
11
6.95743
21
-2.24204
0
LINE
8
BLACK
6
CONTINUOUS
10
6.95743
20
-2.24204
11
6.95962
21
-2.23436
0
LINE
8
BLACK
6
CONTINUOUS
10
6.95962
20
-2.23436
11
6.96318
21
-2.2272
0
LINE
8
BLACK
6
CONTINUOUS
10
6.96318
20
-2.2272
11
6.968
21
-2.22082
0
LINE
8
BLACK
6
CONTINUOUS
10
6.968
20
-2.22082
11
6.9739
21
-2.21544
0
LINE
8
BLACK
6
CONTINUOUS
10
6.9739
20
-2.21544
11
6.9807
21
-2.21123
0
LINE
8
BLACK
6
CONTINUOUS
10
6.9807
20
-2.21123
11
6.98815
21
-2.20835
0
LINE
8
BLACK
6
CONTINUOUS
10
6.98815
20
-2.20835
11
6.996
21
-2.20688
0
LINE
8
BLACK
6
CONTINUOUS
10
6.996
20
-2.20688
11
7.004
21
-2.20688
0
LINE
8
BLACK
6
CONTINUOUS
10
7.004
20
-2.20688
11
7.01185
21
-2.20835
0
LINE
8
BLACK
6
CONTINUOUS
10
4.76185
20
-2.20835
11
4.7693
21
-2.21123
0
LINE
8
BLACK
6
CONTINUOUS
10
4.7693
20
-2.21123
11
4.7761
21
-2.21544
0
LINE
8
BLACK
6
CONTINUOUS
10
4.7761
20
-2.21544
11
4.782
21
-2.22082
0
LINE
8
BLACK
6
CONTINUOUS
10
4.782
20
-2.22082
11
4.78682
21
-2.2272
0
LINE
8
BLACK
6
CONTINUOUS
10
4.78682
20
-2.2272
11
4.79038
21
-2.23436
0
LINE
8
BLACK
6
CONTINUOUS
10
4.79038
20
-2.23436
11
4.79257
21
-2.24204
0
LINE
8
BLACK
6
CONTINUOUS
10
4.79257
20
-2.24204
11
4.79331
21
-2.25
0
LINE
8
BLACK
6
CONTINUOUS
10
4.79331
20
-2.25
11
4.79257
21
-2.25796
0
LINE
8
BLACK
6
CONTINUOUS
10
4.79257
20
-2.25796
11
4.79038
21
-2.26564
0
LINE
8
BLACK
6
CONTINUOUS
10
4.79038
20
-2.26564
11
4.78682
21
-2.2728
0
LINE
8
BLACK
6
CONTINUOUS
10
4.78682
20
-2.2728
11
4.782
21
-2.27918
0
LINE
8
BLACK
6
CONTINUOUS
10
4.782
20
-2.27918
11
4.7761
21
-2.28456
0
LINE
8
BLACK
6
CONTINUOUS
10
4.7761
20
-2.28456
11
4.7693
21
-2.28877
0
LINE
8
BLACK
6
CONTINUOUS
10
4.7693
20
-2.28877
11
4.76185
21
-2.29165
0
LINE
8
BLACK
6
CONTINUOUS
10
4.76185
20
-2.29165
11
4.754
21
-2.29312
0
LINE
8
BLACK
6
CONTINUOUS
10
4.754
20
-2.29312
11
4.746
21
-2.29312
0
LINE
8
BLACK
6
CONTINUOUS
10
4.746
20
-2.29312
11
4.73815
21
-2.29165
0
LINE
8
BLACK
6
CONTINUOUS
10
4.73815
20
-2.29165
11
4.7307
21
-2.28877
0
LINE
8
BLACK
6
CONTINUOUS
10
4.7307
20
-2.28877
11
4.7239
21
-2.28456
0
LINE
8
BLACK
6
CONTINUOUS
10
4.7239
20
-2.28456
11
4.718
21
-2.27918
0
LINE
8
BLACK
6
CONTINUOUS
10
4.718
20
-2.27918
11
4.71318
21
-2.2728
0
LINE
8
BLACK
6
CONTINUOUS
10
4.71318
20
-2.2728
11
4.70962
21
-2.26564
0
LINE
8
BLACK
6
CONTINUOUS
10
4.70962
20
-2.26564
11
4.70743
21
-2.25796
0
LINE
8
BLACK
6
CONTINUOUS
10
4.70743
20
-2.25796
11
4.70669
21
-2.25
0
LINE
8
BLACK
6
CONTINUOUS
10
4.70669
20
-2.25
11
4.70743
21
-2.24204
0
LINE
8
BLACK
6
CONTINUOUS
10
4.70743
20
-2.24204
11
4.70962
21
-2.23436
0
LINE
8
BLACK
6
CONTINUOUS
10
4.70962
20
-2.23436
11
4.71318
21
-2.2272
0
LINE
8
BLACK
6
CONTINUOUS
10
4.71318
20
-2.2272
11
4.718
21
-2.22082
0
LINE
8
BLACK
6
CONTINUOUS
10
4.718
20
-2.22082
11
4.7239
21
-2.21544
0
LINE
8
BLACK
6
CONTINUOUS
10
4.7239
20
-2.21544
11
4.7307
21
-2.21123
0
LINE
8
BLACK
6
CONTINUOUS
10
4.7307
20
-2.21123
11
4.73815
21
-2.20835
0
LINE
8
BLACK
6
CONTINUOUS
10
4.73815
20
-2.20835
11
4.746
21
-2.20688
0
LINE
8
BLACK
6
CONTINUOUS
10
4.746
20
-2.20688
11
4.754
21
-2.20688
0
LINE
8
BLACK
6
CONTINUOUS
10
4.754
20
-2.20688
11
4.76185
21
-2.20835
0
LINE
8
BLACK
6
CONTINUOUS
10
2.51185
20
-2.20835
11
2.5193
21
-2.21123
0
LINE
8
BLACK
6
CONTINUOUS
10
2.5193
20
-2.21123
11
2.5261
21
-2.21544
0
LINE
8
BLACK
6
CONTINUOUS
10
2.5261
20
-2.21544
11
2.532
21
-2.22082
0
LINE
8
BLACK
6
CONTINUOUS
10
2.532
20
-2.22082
11
2.53682
21
-2.2272
0
LINE
8
BLACK
6
CONTINUOUS
10
2.53682
20
-2.2272
11
2.54038
21
-2.23436
0
LINE
8
BLACK
6
CONTINUOUS
10
2.54038
20
-2.23436
11
2.54257
21
-2.24204
0
LINE
8
BLACK
6
CONTINUOUS
10
2.54257
20
-2.24204
11
2.54331
21
-2.25
0
LINE
8
BLACK
6
CONTINUOUS
10
2.54331
20
-2.25
11
2.54257
21
-2.25796
0
LINE
8
BLACK
6
CONTINUOUS
10
2.54257
20
-2.25796
11
2.54038
21
-2.26564
0
LINE
8
BLACK
6
CONTINUOUS
10
2.54038
20
-2.26564
11
2.53682
21
-2.2728
0
LINE
8
BLACK
6
CONTINUOUS
10
2.53682
20
-2.2728
11
2.532
21
-2.27918
0
LINE
8
BLACK
6
CONTINUOUS
10
2.532
20
-2.27918
11
2.5261
21
-2.28456
0
LINE
8
BLACK
6
CONTINUOUS
10
2.5261
20
-2.28456
11
2.5193
21
-2.28877
0
LINE
8
BLACK
6
CONTINUOUS
10
2.5193
20
-2.28877
11
2.51185
21
-2.29165
0
LINE
8
BLACK
6
CONTINUOUS
10
2.51185
20
-2.29165
11
2.504
21
-2.29312
0
LINE
8
BLACK
6
CONTINUOUS
10
2.504
20
-2.29312
11
2.496
21
-2.29312
0
LINE
8
BLACK
6
CONTINUOUS
10
2.496
20
-2.29312
11
2.48815
21
-2.29165
0
LINE
8
BLACK
6
CONTINUOUS
10
2.48815
20
-2.29165
11
2.4807
21
-2.28877
0
LINE
8
BLACK
6
CONTINUOUS
10
2.4807
20
-2.28877
11
2.4739
21
-2.28456
0
LINE
8
BLACK
6
CONTINUOUS
10
2.4739
20
-2.28456
11
2.468
21
-2.27918
0
LINE
8
BLACK
6
CONTINUOUS
10
2.468
20
-2.27918
11
2.46318
21
-2.2728
0
LINE
8
BLACK
6
CONTINUOUS
10
2.46318
20
-2.2728
11
2.45962
21
-2.26564
0
LINE
8
BLACK
6
CONTINUOUS
10
2.45962
20
-2.26564
11
2.45743
21
-2.25796
0
LINE
8
BLACK
6
CONTINUOUS
10
2.45743
20
-2.25796
11
2.45669
21
-2.25
0
LINE
8
BLACK
6
CONTINUOUS
10
2.45669
20
-2.25
11
2.45743
21
-2.24204
0
LINE
8
BLACK
6
CONTINUOUS
10
2.45743
20
-2.24204
11
2.45962
21
-2.23436
0
LINE
8
BLACK
6
CONTINUOUS
10
2.45962
20
-2.23436
11
2.46318
21
-2.2272
0
LINE
8
BLACK
6
CONTINUOUS
10
2.46318
20
-2.2272
11
2.468
21
-2.22082
0
LINE
8
BLACK
6
CONTINUOUS
10
2.468
20
-2.22082
11
2.4739
21
-2.21544
0
LINE
8
BLACK
6
CONTINUOUS
10
2.4739
20
-2.21544
11
2.4807
21
-2.21123
0
LINE
8
BLACK
6
CONTINUOUS
10
2.4807
20
-2.21123
11
2.48815
21
-2.20835
0
LINE
8
BLACK
6
CONTINUOUS
10
2.48815
20
-2.20835
11
2.496
21
-2.20688
0
LINE
8
BLACK
6
CONTINUOUS
10
2.496
20
-2.20688
11
2.504
21
-2.20688
0
LINE
8
BLACK
6
CONTINUOUS
10
2.504
20
-2.20688
11
2.51185
21
-2.20835
  0
ENDSEC
  0
EOF
