%TF.GenerationSoftware,KiCad,Pcbnew,(7.0.0)*%
%TF.CreationDate,2023-04-11T20:59:51+02:00*%
%TF.ProjectId,travaulta plate niz,74726176-6175-46c7-9461-20706c617465,rev?*%
%TF.SameCoordinates,Original*%
%TF.FileFunction,Copper,L1,Top*%
%TF.FilePolarity,Positive*%
%FSLAX46Y46*%
G04 Gerber Fmt 4.6, Leading zero omitted, Abs format (unit mm)*
G04 Created by KiCad (PCBNEW (7.0.0)) date 2023-04-11 20:59:51*
%MOMM*%
%LPD*%
G01*
G04 APERTURE LIST*
G04 APERTURE END LIST*
%TA.AperFunction,NonConductor*%
G36*
X251478300Y-47475671D02*
G01*
X251608167Y-47482477D01*
X251799654Y-47493232D01*
X251812264Y-47494581D01*
X251964380Y-47518674D01*
X251965493Y-47518857D01*
X252131775Y-47547109D01*
X252143251Y-47549616D01*
X252296276Y-47590618D01*
X252298429Y-47591217D01*
X252456103Y-47636642D01*
X252466353Y-47640079D01*
X252615939Y-47697500D01*
X252618871Y-47698670D01*
X252768778Y-47760763D01*
X252777717Y-47764883D01*
X252921345Y-47838065D01*
X252925015Y-47840014D01*
X253066156Y-47918020D01*
X253073807Y-47922611D01*
X253209386Y-48010657D01*
X253213627Y-48013536D01*
X253344691Y-48106531D01*
X253344746Y-48106570D01*
X253351127Y-48111411D01*
X253476920Y-48213276D01*
X253481582Y-48217242D01*
X253601260Y-48324192D01*
X253601282Y-48324212D01*
X253606417Y-48329068D01*
X253720930Y-48443581D01*
X253725786Y-48448716D01*
X253832746Y-48568404D01*
X253836712Y-48573066D01*
X253938610Y-48698899D01*
X253943417Y-48705237D01*
X254036464Y-48836373D01*
X254039342Y-48840612D01*
X254127388Y-48976192D01*
X254131984Y-48983851D01*
X254132008Y-48983894D01*
X254209957Y-49124934D01*
X254211944Y-49128678D01*
X254285099Y-49272250D01*
X254289242Y-49281236D01*
X254351296Y-49431048D01*
X254352518Y-49434112D01*
X254409918Y-49583645D01*
X254413363Y-49593918D01*
X254458765Y-49751512D01*
X254459396Y-49753781D01*
X254500377Y-49906722D01*
X254502890Y-49918228D01*
X254531124Y-50084400D01*
X254531353Y-50085795D01*
X254555415Y-50237715D01*
X254556768Y-50250361D01*
X254567530Y-50441994D01*
X254567555Y-50442465D01*
X254574327Y-50571680D01*
X254574500Y-50578274D01*
X254574500Y-102671706D01*
X254574326Y-102678300D01*
X254571750Y-102727483D01*
X254567546Y-102807695D01*
X254567521Y-102808167D01*
X254556766Y-102999638D01*
X254555413Y-103012282D01*
X254531356Y-103164178D01*
X254531127Y-103165573D01*
X254502890Y-103331767D01*
X254500377Y-103343274D01*
X254459396Y-103496215D01*
X254458765Y-103498484D01*
X254413362Y-103656081D01*
X254409917Y-103666354D01*
X254352516Y-103815889D01*
X254351294Y-103818953D01*
X254289246Y-103968752D01*
X254285104Y-103977737D01*
X254211946Y-104121317D01*
X254209957Y-104125063D01*
X254131989Y-104266134D01*
X254127384Y-104273809D01*
X254039357Y-104409360D01*
X254036445Y-104413648D01*
X253943422Y-104544752D01*
X253938581Y-104551134D01*
X253836729Y-104676911D01*
X253832760Y-104681577D01*
X253725784Y-104801283D01*
X253720928Y-104806418D01*
X253606417Y-104920929D01*
X253601282Y-104925785D01*
X253481586Y-105032752D01*
X253476920Y-105036721D01*
X253351127Y-105138586D01*
X253344745Y-105143427D01*
X253213642Y-105236449D01*
X253209355Y-105239360D01*
X253073819Y-105327379D01*
X253066143Y-105331985D01*
X252925038Y-105409971D01*
X252921291Y-105411960D01*
X252777757Y-105485093D01*
X252768774Y-105489235D01*
X252618911Y-105551311D01*
X252615847Y-105552533D01*
X252466365Y-105609914D01*
X252456091Y-105613359D01*
X252298487Y-105658764D01*
X252296217Y-105659395D01*
X252143265Y-105700378D01*
X252131760Y-105702891D01*
X251965633Y-105731117D01*
X251964238Y-105731346D01*
X251812282Y-105755414D01*
X251799636Y-105756767D01*
X251608101Y-105767523D01*
X251607631Y-105767548D01*
X251478320Y-105774326D01*
X251471725Y-105774499D01*
X227199901Y-105774499D01*
X227199899Y-105774499D01*
X227199897Y-105774500D01*
X227105519Y-105774500D01*
X227100638Y-105775273D01*
X227100626Y-105775274D01*
X226923769Y-105803285D01*
X226923756Y-105803287D01*
X226918882Y-105804060D01*
X226914182Y-105805586D01*
X226914174Y-105805589D01*
X226743880Y-105860921D01*
X226743869Y-105860925D01*
X226739168Y-105862453D01*
X226734760Y-105864698D01*
X226734755Y-105864701D01*
X226575216Y-105945990D01*
X226575211Y-105945992D01*
X226570801Y-105948240D01*
X226566791Y-105951153D01*
X226566790Y-105951154D01*
X226493251Y-106004584D01*
X226417927Y-106059310D01*
X226414429Y-106062807D01*
X226414423Y-106062813D01*
X226287806Y-106189429D01*
X226287799Y-106189436D01*
X226284310Y-106192926D01*
X226281409Y-106196918D01*
X226281402Y-106196927D01*
X226176155Y-106341788D01*
X226176150Y-106341795D01*
X226173241Y-106345800D01*
X226170993Y-106350210D01*
X226170991Y-106350215D01*
X226089701Y-106509754D01*
X226089698Y-106509759D01*
X226087453Y-106514167D01*
X226085925Y-106518867D01*
X226085921Y-106518879D01*
X226030591Y-106689171D01*
X226029061Y-106693881D01*
X226028288Y-106698759D01*
X226028286Y-106698769D01*
X226000274Y-106875627D01*
X226000273Y-106875635D01*
X225999500Y-106880518D01*
X225999500Y-106885471D01*
X225999500Y-121721706D01*
X225999327Y-121728300D01*
X225992546Y-121857695D01*
X225992521Y-121858167D01*
X225981766Y-122049638D01*
X225980413Y-122062282D01*
X225956356Y-122214178D01*
X225956127Y-122215573D01*
X225927890Y-122381767D01*
X225925377Y-122393274D01*
X225884396Y-122546215D01*
X225883765Y-122548484D01*
X225838362Y-122706081D01*
X225834917Y-122716354D01*
X225777516Y-122865889D01*
X225776294Y-122868953D01*
X225714246Y-123018752D01*
X225710104Y-123027737D01*
X225636946Y-123171317D01*
X225634957Y-123175063D01*
X225556989Y-123316134D01*
X225552384Y-123323809D01*
X225464357Y-123459360D01*
X225461445Y-123463648D01*
X225368422Y-123594752D01*
X225363581Y-123601134D01*
X225261729Y-123726911D01*
X225257760Y-123731577D01*
X225150784Y-123851283D01*
X225145928Y-123856418D01*
X225031417Y-123970929D01*
X225026282Y-123975785D01*
X224906586Y-124082752D01*
X224901920Y-124086721D01*
X224776127Y-124188586D01*
X224769745Y-124193427D01*
X224638642Y-124286449D01*
X224634355Y-124289360D01*
X224498819Y-124377379D01*
X224491143Y-124381985D01*
X224350038Y-124459971D01*
X224346291Y-124461960D01*
X224202757Y-124535093D01*
X224193774Y-124539235D01*
X224043911Y-124601311D01*
X224040847Y-124602533D01*
X223891365Y-124659914D01*
X223881091Y-124663359D01*
X223723487Y-124708764D01*
X223721217Y-124709395D01*
X223568265Y-124750378D01*
X223556760Y-124752891D01*
X223390633Y-124781117D01*
X223389238Y-124781346D01*
X223237282Y-124805414D01*
X223224636Y-124806767D01*
X223033101Y-124817523D01*
X223032631Y-124817548D01*
X222903320Y-124824326D01*
X222896725Y-124824499D01*
X75553293Y-124824499D01*
X75546699Y-124824326D01*
X75535665Y-124823747D01*
X75417011Y-124817529D01*
X75416541Y-124817504D01*
X75225381Y-124806769D01*
X75212735Y-124805416D01*
X75060622Y-124781323D01*
X75059227Y-124781094D01*
X74893249Y-124752893D01*
X74881744Y-124750380D01*
X74728712Y-124709375D01*
X74726442Y-124708744D01*
X74568927Y-124663365D01*
X74558654Y-124659920D01*
X74409067Y-124602499D01*
X74406003Y-124601277D01*
X74256260Y-124539252D01*
X74247275Y-124535110D01*
X74103659Y-124461933D01*
X74099914Y-124459945D01*
X73958873Y-124381996D01*
X73951196Y-124377389D01*
X73815578Y-124289317D01*
X73811290Y-124286405D01*
X73680299Y-124193461D01*
X73673918Y-124188621D01*
X73548034Y-124086682D01*
X73543369Y-124082713D01*
X73423745Y-123975811D01*
X73418609Y-123970955D01*
X73304043Y-123856389D01*
X73299187Y-123851254D01*
X73192273Y-123731617D01*
X73188304Y-123726951D01*
X73086387Y-123601094D01*
X73081557Y-123594727D01*
X72988566Y-123463669D01*
X72985676Y-123459412D01*
X72985642Y-123459360D01*
X72897600Y-123323787D01*
X72892998Y-123316116D01*
X72815038Y-123175058D01*
X72813097Y-123171402D01*
X72739881Y-123027709D01*
X72735750Y-123018749D01*
X72673713Y-122868978D01*
X72672503Y-122865942D01*
X72672483Y-122865889D01*
X72615069Y-122716321D01*
X72611633Y-122706075D01*
X72566265Y-122548596D01*
X72565635Y-122546327D01*
X72524617Y-122393250D01*
X72522107Y-122381764D01*
X72493902Y-122215757D01*
X72493676Y-122214381D01*
X72493644Y-122214178D01*
X72469580Y-122062245D01*
X72468230Y-122049632D01*
X72457496Y-121858480D01*
X72450673Y-121728281D01*
X72450500Y-121721687D01*
X72450500Y-120800000D01*
X75549500Y-120800000D01*
X75549507Y-120849311D01*
X75549507Y-120849318D01*
X75549509Y-120856390D01*
X75551083Y-120863282D01*
X75551084Y-120863289D01*
X75573046Y-120959445D01*
X75573047Y-120959450D01*
X75574621Y-120966338D01*
X75623563Y-121067945D01*
X75693882Y-121156118D01*
X75782055Y-121226437D01*
X75883662Y-121275379D01*
X75993610Y-121300491D01*
X76049900Y-121300499D01*
X76049899Y-121303582D01*
X76049901Y-121303582D01*
X76049901Y-121300500D01*
X89099315Y-121300500D01*
X89106393Y-121300500D01*
X89216351Y-121275403D01*
X89317967Y-121226467D01*
X89406146Y-121156146D01*
X89476467Y-121067967D01*
X89525403Y-120966351D01*
X89550500Y-120856393D01*
X89550500Y-120800000D01*
X96979500Y-120800000D01*
X96979507Y-120849311D01*
X96979507Y-120849318D01*
X96979509Y-120856390D01*
X96981083Y-120863282D01*
X96981084Y-120863289D01*
X97003046Y-120959445D01*
X97003047Y-120959450D01*
X97004621Y-120966338D01*
X97053563Y-121067945D01*
X97123882Y-121156118D01*
X97212055Y-121226437D01*
X97313662Y-121275379D01*
X97423610Y-121300491D01*
X97479900Y-121300499D01*
X97479899Y-121303582D01*
X97479901Y-121303582D01*
X97479901Y-121300500D01*
X110529315Y-121300500D01*
X110536393Y-121300500D01*
X110646351Y-121275403D01*
X110747967Y-121226467D01*
X110836146Y-121156146D01*
X110906467Y-121067967D01*
X110955403Y-120966351D01*
X110980500Y-120856393D01*
X110980500Y-120800000D01*
X125554500Y-120800000D01*
X125554507Y-120849311D01*
X125554507Y-120849318D01*
X125554509Y-120856390D01*
X125556083Y-120863282D01*
X125556084Y-120863289D01*
X125578046Y-120959445D01*
X125578047Y-120959450D01*
X125579621Y-120966338D01*
X125628563Y-121067945D01*
X125698882Y-121156118D01*
X125787055Y-121226437D01*
X125888662Y-121275379D01*
X125998610Y-121300491D01*
X126054900Y-121300499D01*
X126054899Y-121303582D01*
X126054901Y-121303582D01*
X126054901Y-121300500D01*
X139104315Y-121300500D01*
X139111393Y-121300500D01*
X139221351Y-121275403D01*
X139322967Y-121226467D01*
X139411146Y-121156146D01*
X139481467Y-121067967D01*
X139530403Y-120966351D01*
X139555500Y-120856393D01*
X139555500Y-120800000D01*
X158891500Y-120800000D01*
X158891507Y-120849311D01*
X158891507Y-120849318D01*
X158891509Y-120856390D01*
X158893083Y-120863282D01*
X158893084Y-120863289D01*
X158915046Y-120959445D01*
X158915047Y-120959450D01*
X158916621Y-120966338D01*
X158965563Y-121067945D01*
X159035882Y-121156118D01*
X159124055Y-121226437D01*
X159225662Y-121275379D01*
X159335610Y-121300491D01*
X159391900Y-121300499D01*
X159391899Y-121303582D01*
X159391901Y-121303582D01*
X159391901Y-121300500D01*
X172441315Y-121300500D01*
X172448393Y-121300500D01*
X172558351Y-121275403D01*
X172659967Y-121226467D01*
X172748146Y-121156146D01*
X172818467Y-121067967D01*
X172867403Y-120966351D01*
X172892500Y-120856393D01*
X172892500Y-120800000D01*
X187469500Y-120800000D01*
X187469507Y-120849311D01*
X187469507Y-120849318D01*
X187469509Y-120856390D01*
X187471083Y-120863282D01*
X187471084Y-120863289D01*
X187493046Y-120959445D01*
X187493047Y-120959450D01*
X187494621Y-120966338D01*
X187543563Y-121067945D01*
X187613882Y-121156118D01*
X187702055Y-121226437D01*
X187803662Y-121275379D01*
X187913610Y-121300491D01*
X187969900Y-121300499D01*
X187969899Y-121303582D01*
X187969901Y-121303582D01*
X187969901Y-121300500D01*
X201019315Y-121300500D01*
X201026393Y-121300500D01*
X201136351Y-121275403D01*
X201237967Y-121226467D01*
X201326146Y-121156146D01*
X201396467Y-121067967D01*
X201445403Y-120966351D01*
X201470500Y-120856393D01*
X201470500Y-120800000D01*
X208899500Y-120800000D01*
X208899507Y-120849311D01*
X208899507Y-120849318D01*
X208899509Y-120856390D01*
X208901083Y-120863282D01*
X208901084Y-120863289D01*
X208923046Y-120959445D01*
X208923047Y-120959450D01*
X208924621Y-120966338D01*
X208973563Y-121067945D01*
X209043882Y-121156118D01*
X209132055Y-121226437D01*
X209233662Y-121275379D01*
X209343610Y-121300491D01*
X209399900Y-121300499D01*
X209399899Y-121303582D01*
X209399901Y-121303582D01*
X209399901Y-121300500D01*
X222449315Y-121300500D01*
X222456393Y-121300500D01*
X222566351Y-121275403D01*
X222667967Y-121226467D01*
X222756146Y-121156146D01*
X222826467Y-121067967D01*
X222875403Y-120966351D01*
X222900500Y-120856393D01*
X222900500Y-120800000D01*
X222900500Y-120799500D01*
X222900500Y-107799901D01*
X222903582Y-107799901D01*
X222903582Y-107799899D01*
X222900499Y-107799900D01*
X222900491Y-107743610D01*
X222875379Y-107633662D01*
X222826437Y-107532055D01*
X222756118Y-107443882D01*
X222667945Y-107373563D01*
X222661570Y-107370492D01*
X222661568Y-107370491D01*
X222572709Y-107327690D01*
X222572710Y-107327690D01*
X222566338Y-107324621D01*
X222559450Y-107323047D01*
X222559445Y-107323046D01*
X222463289Y-107301084D01*
X222463282Y-107301083D01*
X222456390Y-107299509D01*
X222449318Y-107299507D01*
X222449311Y-107299507D01*
X222400099Y-107299500D01*
X209400500Y-107299500D01*
X209400000Y-107299500D01*
X209343607Y-107299500D01*
X209336715Y-107301072D01*
X209336706Y-107301074D01*
X209240550Y-107323021D01*
X209240542Y-107323023D01*
X209233649Y-107324597D01*
X209227279Y-107327664D01*
X209227272Y-107327667D01*
X209138405Y-107370464D01*
X209138402Y-107370465D01*
X209132033Y-107373533D01*
X209126504Y-107377941D01*
X209126501Y-107377944D01*
X209049384Y-107439443D01*
X209049379Y-107439447D01*
X209043854Y-107443854D01*
X209039447Y-107449379D01*
X209039443Y-107449384D01*
X208977944Y-107526501D01*
X208977941Y-107526504D01*
X208973533Y-107532033D01*
X208970465Y-107538402D01*
X208970464Y-107538405D01*
X208927667Y-107627272D01*
X208927664Y-107627279D01*
X208924597Y-107633649D01*
X208923023Y-107640542D01*
X208923021Y-107640550D01*
X208901074Y-107736706D01*
X208901072Y-107736715D01*
X208899500Y-107743607D01*
X208899500Y-107750685D01*
X208899500Y-120800000D01*
X201470500Y-120800000D01*
X201470500Y-120799500D01*
X201470500Y-114300000D01*
X204769551Y-114300000D01*
X204769939Y-114304930D01*
X204788928Y-114546214D01*
X204788929Y-114546222D01*
X204789317Y-114551148D01*
X204790471Y-114555956D01*
X204790472Y-114555960D01*
X204846971Y-114791298D01*
X204846972Y-114791303D01*
X204848127Y-114796111D01*
X204944534Y-115028859D01*
X205076164Y-115243659D01*
X205239776Y-115435224D01*
X205431341Y-115598836D01*
X205646141Y-115730466D01*
X205878889Y-115826873D01*
X206123852Y-115885683D01*
X206312118Y-115900500D01*
X206435413Y-115900500D01*
X206437882Y-115900500D01*
X206626148Y-115885683D01*
X206871111Y-115826873D01*
X207103859Y-115730466D01*
X207318659Y-115598836D01*
X207510224Y-115435224D01*
X207673836Y-115243659D01*
X207805466Y-115028859D01*
X207901873Y-114796111D01*
X207960683Y-114551148D01*
X207980449Y-114300000D01*
X207960683Y-114048852D01*
X207901873Y-113803889D01*
X207805466Y-113571141D01*
X207673836Y-113356341D01*
X207510224Y-113164776D01*
X207318659Y-113001164D01*
X207103859Y-112869534D01*
X206871111Y-112773127D01*
X206866303Y-112771972D01*
X206866298Y-112771971D01*
X206630960Y-112715472D01*
X206630956Y-112715471D01*
X206626148Y-112714317D01*
X206621222Y-112713929D01*
X206621214Y-112713928D01*
X206440338Y-112699693D01*
X206440330Y-112699692D01*
X206437882Y-112699500D01*
X206312118Y-112699500D01*
X206309670Y-112699692D01*
X206309661Y-112699693D01*
X206128785Y-112713928D01*
X206128775Y-112713929D01*
X206123852Y-112714317D01*
X206119045Y-112715471D01*
X206119039Y-112715472D01*
X205883701Y-112771971D01*
X205883692Y-112771973D01*
X205878889Y-112773127D01*
X205874321Y-112775018D01*
X205874315Y-112775021D01*
X205650715Y-112867639D01*
X205650710Y-112867641D01*
X205646141Y-112869534D01*
X205641926Y-112872116D01*
X205641920Y-112872120D01*
X205435558Y-112998579D01*
X205435550Y-112998584D01*
X205431341Y-113001164D01*
X205427580Y-113004375D01*
X205427576Y-113004379D01*
X205243538Y-113161562D01*
X205243531Y-113161568D01*
X205239776Y-113164776D01*
X205236568Y-113168531D01*
X205236562Y-113168538D01*
X205079379Y-113352576D01*
X205079375Y-113352580D01*
X205076164Y-113356341D01*
X205073584Y-113360550D01*
X205073579Y-113360558D01*
X204947120Y-113566920D01*
X204947116Y-113566926D01*
X204944534Y-113571141D01*
X204942641Y-113575710D01*
X204942639Y-113575715D01*
X204850021Y-113799315D01*
X204850018Y-113799321D01*
X204848127Y-113803889D01*
X204846973Y-113808692D01*
X204846971Y-113808701D01*
X204790472Y-114044039D01*
X204789317Y-114048852D01*
X204788929Y-114053775D01*
X204788928Y-114053785D01*
X204769939Y-114295070D01*
X204769551Y-114300000D01*
X201470500Y-114300000D01*
X201470500Y-107799901D01*
X201473582Y-107799901D01*
X201473582Y-107799899D01*
X201470499Y-107799900D01*
X201470491Y-107743610D01*
X201445379Y-107633662D01*
X201396437Y-107532055D01*
X201326118Y-107443882D01*
X201237945Y-107373563D01*
X201231570Y-107370492D01*
X201231568Y-107370491D01*
X201142709Y-107327690D01*
X201142710Y-107327690D01*
X201136338Y-107324621D01*
X201129450Y-107323047D01*
X201129445Y-107323046D01*
X201033289Y-107301084D01*
X201033282Y-107301083D01*
X201026390Y-107299509D01*
X201019318Y-107299507D01*
X201019311Y-107299507D01*
X200970099Y-107299500D01*
X187970500Y-107299500D01*
X187970000Y-107299500D01*
X187913607Y-107299500D01*
X187906715Y-107301072D01*
X187906706Y-107301074D01*
X187810550Y-107323021D01*
X187810542Y-107323023D01*
X187803649Y-107324597D01*
X187797279Y-107327664D01*
X187797272Y-107327667D01*
X187708405Y-107370464D01*
X187708402Y-107370465D01*
X187702033Y-107373533D01*
X187696504Y-107377941D01*
X187696501Y-107377944D01*
X187619384Y-107439443D01*
X187619379Y-107439447D01*
X187613854Y-107443854D01*
X187609447Y-107449379D01*
X187609443Y-107449384D01*
X187547944Y-107526501D01*
X187547941Y-107526504D01*
X187543533Y-107532033D01*
X187540465Y-107538402D01*
X187540464Y-107538405D01*
X187497667Y-107627272D01*
X187497664Y-107627279D01*
X187494597Y-107633649D01*
X187493023Y-107640542D01*
X187493021Y-107640550D01*
X187471074Y-107736706D01*
X187471072Y-107736715D01*
X187469500Y-107743607D01*
X187469500Y-107750685D01*
X187469500Y-120800000D01*
X172892500Y-120800000D01*
X172892500Y-120799500D01*
X172892500Y-114300000D01*
X174607051Y-114300000D01*
X174607439Y-114304930D01*
X174626428Y-114546214D01*
X174626429Y-114546222D01*
X174626817Y-114551148D01*
X174627971Y-114555956D01*
X174627972Y-114555960D01*
X174684471Y-114791298D01*
X174684472Y-114791303D01*
X174685627Y-114796111D01*
X174782034Y-115028859D01*
X174913664Y-115243659D01*
X175077276Y-115435224D01*
X175268841Y-115598836D01*
X175483641Y-115730466D01*
X175716389Y-115826873D01*
X175961352Y-115885683D01*
X176149618Y-115900500D01*
X176272913Y-115900500D01*
X176275382Y-115900500D01*
X176463648Y-115885683D01*
X176708611Y-115826873D01*
X176941359Y-115730466D01*
X177156159Y-115598836D01*
X177347724Y-115435224D01*
X177511336Y-115243659D01*
X177642966Y-115028859D01*
X177739373Y-114796111D01*
X177798183Y-114551148D01*
X177817949Y-114300000D01*
X177798183Y-114048852D01*
X177739373Y-113803889D01*
X177642966Y-113571141D01*
X177511336Y-113356341D01*
X177347724Y-113164776D01*
X177156159Y-113001164D01*
X176941359Y-112869534D01*
X176708611Y-112773127D01*
X176703803Y-112771972D01*
X176703798Y-112771971D01*
X176468460Y-112715472D01*
X176468456Y-112715471D01*
X176463648Y-112714317D01*
X176458722Y-112713929D01*
X176458714Y-112713928D01*
X176277838Y-112699693D01*
X176277830Y-112699692D01*
X176275382Y-112699500D01*
X176149618Y-112699500D01*
X176147170Y-112699692D01*
X176147161Y-112699693D01*
X175966285Y-112713928D01*
X175966275Y-112713929D01*
X175961352Y-112714317D01*
X175956545Y-112715471D01*
X175956539Y-112715472D01*
X175721201Y-112771971D01*
X175721192Y-112771973D01*
X175716389Y-112773127D01*
X175711821Y-112775018D01*
X175711815Y-112775021D01*
X175488215Y-112867639D01*
X175488210Y-112867641D01*
X175483641Y-112869534D01*
X175479426Y-112872116D01*
X175479420Y-112872120D01*
X175273058Y-112998579D01*
X175273050Y-112998584D01*
X175268841Y-113001164D01*
X175265080Y-113004375D01*
X175265076Y-113004379D01*
X175081038Y-113161562D01*
X175081031Y-113161568D01*
X175077276Y-113164776D01*
X175074068Y-113168531D01*
X175074062Y-113168538D01*
X174916879Y-113352576D01*
X174916875Y-113352580D01*
X174913664Y-113356341D01*
X174911084Y-113360550D01*
X174911079Y-113360558D01*
X174784620Y-113566920D01*
X174784616Y-113566926D01*
X174782034Y-113571141D01*
X174780141Y-113575710D01*
X174780139Y-113575715D01*
X174687521Y-113799315D01*
X174687518Y-113799321D01*
X174685627Y-113803889D01*
X174684473Y-113808692D01*
X174684471Y-113808701D01*
X174627972Y-114044039D01*
X174626817Y-114048852D01*
X174626429Y-114053775D01*
X174626428Y-114053785D01*
X174607439Y-114295070D01*
X174607051Y-114300000D01*
X172892500Y-114300000D01*
X172892500Y-107799901D01*
X172895582Y-107799901D01*
X172895582Y-107799899D01*
X172892499Y-107799900D01*
X172892491Y-107743610D01*
X172867379Y-107633662D01*
X172818437Y-107532055D01*
X172748118Y-107443882D01*
X172659945Y-107373563D01*
X172653570Y-107370492D01*
X172653568Y-107370491D01*
X172564709Y-107327690D01*
X172564710Y-107327690D01*
X172558338Y-107324621D01*
X172551450Y-107323047D01*
X172551445Y-107323046D01*
X172455289Y-107301084D01*
X172455282Y-107301083D01*
X172448390Y-107299509D01*
X172441318Y-107299507D01*
X172441311Y-107299507D01*
X172392099Y-107299500D01*
X159392500Y-107299500D01*
X159392000Y-107299500D01*
X159335607Y-107299500D01*
X159328715Y-107301072D01*
X159328706Y-107301074D01*
X159232550Y-107323021D01*
X159232542Y-107323023D01*
X159225649Y-107324597D01*
X159219279Y-107327664D01*
X159219272Y-107327667D01*
X159130405Y-107370464D01*
X159130402Y-107370465D01*
X159124033Y-107373533D01*
X159118504Y-107377941D01*
X159118501Y-107377944D01*
X159041384Y-107439443D01*
X159041379Y-107439447D01*
X159035854Y-107443854D01*
X159031447Y-107449379D01*
X159031443Y-107449384D01*
X158969944Y-107526501D01*
X158969941Y-107526504D01*
X158965533Y-107532033D01*
X158962465Y-107538402D01*
X158962464Y-107538405D01*
X158919667Y-107627272D01*
X158919664Y-107627279D01*
X158916597Y-107633649D01*
X158915023Y-107640542D01*
X158915021Y-107640550D01*
X158893074Y-107736706D01*
X158893072Y-107736715D01*
X158891500Y-107743607D01*
X158891500Y-107750685D01*
X158891500Y-120800000D01*
X139555500Y-120800000D01*
X139555500Y-120799500D01*
X139555500Y-107799901D01*
X139558582Y-107799901D01*
X139558582Y-107799899D01*
X139555499Y-107799900D01*
X139555491Y-107743610D01*
X139530379Y-107633662D01*
X139481437Y-107532055D01*
X139411118Y-107443882D01*
X139322945Y-107373563D01*
X139316570Y-107370492D01*
X139316568Y-107370491D01*
X139227709Y-107327690D01*
X139227710Y-107327690D01*
X139221338Y-107324621D01*
X139214450Y-107323047D01*
X139214445Y-107323046D01*
X139118289Y-107301084D01*
X139118282Y-107301083D01*
X139111390Y-107299509D01*
X139104318Y-107299507D01*
X139104311Y-107299507D01*
X139055099Y-107299500D01*
X126055500Y-107299500D01*
X126055000Y-107299500D01*
X125998607Y-107299500D01*
X125991715Y-107301072D01*
X125991706Y-107301074D01*
X125895550Y-107323021D01*
X125895542Y-107323023D01*
X125888649Y-107324597D01*
X125882279Y-107327664D01*
X125882272Y-107327667D01*
X125793405Y-107370464D01*
X125793402Y-107370465D01*
X125787033Y-107373533D01*
X125781504Y-107377941D01*
X125781501Y-107377944D01*
X125704384Y-107439443D01*
X125704379Y-107439447D01*
X125698854Y-107443854D01*
X125694447Y-107449379D01*
X125694443Y-107449384D01*
X125632944Y-107526501D01*
X125632941Y-107526504D01*
X125628533Y-107532033D01*
X125625465Y-107538402D01*
X125625464Y-107538405D01*
X125582667Y-107627272D01*
X125582664Y-107627279D01*
X125579597Y-107633649D01*
X125578023Y-107640542D01*
X125578021Y-107640550D01*
X125556074Y-107736706D01*
X125556072Y-107736715D01*
X125554500Y-107743607D01*
X125554500Y-107750685D01*
X125554500Y-120800000D01*
X110980500Y-120800000D01*
X110980500Y-120799500D01*
X110980500Y-114300000D01*
X120632051Y-114300000D01*
X120632439Y-114304930D01*
X120651428Y-114546214D01*
X120651429Y-114546222D01*
X120651817Y-114551148D01*
X120652971Y-114555956D01*
X120652972Y-114555960D01*
X120709471Y-114791298D01*
X120709472Y-114791303D01*
X120710627Y-114796111D01*
X120807034Y-115028859D01*
X120938664Y-115243659D01*
X121102276Y-115435224D01*
X121293841Y-115598836D01*
X121508641Y-115730466D01*
X121741389Y-115826873D01*
X121986352Y-115885683D01*
X122174618Y-115900500D01*
X122297913Y-115900500D01*
X122300382Y-115900500D01*
X122488648Y-115885683D01*
X122733611Y-115826873D01*
X122966359Y-115730466D01*
X123181159Y-115598836D01*
X123372724Y-115435224D01*
X123536336Y-115243659D01*
X123667966Y-115028859D01*
X123764373Y-114796111D01*
X123823183Y-114551148D01*
X123842949Y-114300000D01*
X123823183Y-114048852D01*
X123764373Y-113803889D01*
X123667966Y-113571141D01*
X123536336Y-113356341D01*
X123372724Y-113164776D01*
X123181159Y-113001164D01*
X122966359Y-112869534D01*
X122733611Y-112773127D01*
X122728803Y-112771972D01*
X122728798Y-112771971D01*
X122493460Y-112715472D01*
X122493456Y-112715471D01*
X122488648Y-112714317D01*
X122483722Y-112713929D01*
X122483714Y-112713928D01*
X122302838Y-112699693D01*
X122302830Y-112699692D01*
X122300382Y-112699500D01*
X122174618Y-112699500D01*
X122172170Y-112699692D01*
X122172161Y-112699693D01*
X121991285Y-112713928D01*
X121991275Y-112713929D01*
X121986352Y-112714317D01*
X121981545Y-112715471D01*
X121981539Y-112715472D01*
X121746201Y-112771971D01*
X121746192Y-112771973D01*
X121741389Y-112773127D01*
X121736821Y-112775018D01*
X121736815Y-112775021D01*
X121513215Y-112867639D01*
X121513210Y-112867641D01*
X121508641Y-112869534D01*
X121504426Y-112872116D01*
X121504420Y-112872120D01*
X121298058Y-112998579D01*
X121298050Y-112998584D01*
X121293841Y-113001164D01*
X121290080Y-113004375D01*
X121290076Y-113004379D01*
X121106038Y-113161562D01*
X121106031Y-113161568D01*
X121102276Y-113164776D01*
X121099068Y-113168531D01*
X121099062Y-113168538D01*
X120941879Y-113352576D01*
X120941875Y-113352580D01*
X120938664Y-113356341D01*
X120936084Y-113360550D01*
X120936079Y-113360558D01*
X120809620Y-113566920D01*
X120809616Y-113566926D01*
X120807034Y-113571141D01*
X120805141Y-113575710D01*
X120805139Y-113575715D01*
X120712521Y-113799315D01*
X120712518Y-113799321D01*
X120710627Y-113803889D01*
X120709473Y-113808692D01*
X120709471Y-113808701D01*
X120652972Y-114044039D01*
X120651817Y-114048852D01*
X120651429Y-114053775D01*
X120651428Y-114053785D01*
X120632439Y-114295070D01*
X120632051Y-114300000D01*
X110980500Y-114300000D01*
X110980500Y-107799901D01*
X110983582Y-107799901D01*
X110983582Y-107799899D01*
X110980499Y-107799900D01*
X110980491Y-107743610D01*
X110955379Y-107633662D01*
X110906437Y-107532055D01*
X110836118Y-107443882D01*
X110747945Y-107373563D01*
X110741570Y-107370492D01*
X110741568Y-107370491D01*
X110652709Y-107327690D01*
X110652710Y-107327690D01*
X110646338Y-107324621D01*
X110639450Y-107323047D01*
X110639445Y-107323046D01*
X110543289Y-107301084D01*
X110543282Y-107301083D01*
X110536390Y-107299509D01*
X110529318Y-107299507D01*
X110529311Y-107299507D01*
X110480099Y-107299500D01*
X97480500Y-107299500D01*
X97480000Y-107299500D01*
X97423607Y-107299500D01*
X97416715Y-107301072D01*
X97416706Y-107301074D01*
X97320550Y-107323021D01*
X97320542Y-107323023D01*
X97313649Y-107324597D01*
X97307279Y-107327664D01*
X97307272Y-107327667D01*
X97218405Y-107370464D01*
X97218402Y-107370465D01*
X97212033Y-107373533D01*
X97206504Y-107377941D01*
X97206501Y-107377944D01*
X97129384Y-107439443D01*
X97129379Y-107439447D01*
X97123854Y-107443854D01*
X97119447Y-107449379D01*
X97119443Y-107449384D01*
X97057944Y-107526501D01*
X97057941Y-107526504D01*
X97053533Y-107532033D01*
X97050465Y-107538402D01*
X97050464Y-107538405D01*
X97007667Y-107627272D01*
X97007664Y-107627279D01*
X97004597Y-107633649D01*
X97003023Y-107640542D01*
X97003021Y-107640550D01*
X96981074Y-107736706D01*
X96981072Y-107736715D01*
X96979500Y-107743607D01*
X96979500Y-107750685D01*
X96979500Y-120800000D01*
X89550500Y-120800000D01*
X89550500Y-120799500D01*
X89550500Y-114300000D01*
X90469551Y-114300000D01*
X90469939Y-114304930D01*
X90488928Y-114546214D01*
X90488929Y-114546222D01*
X90489317Y-114551148D01*
X90490471Y-114555956D01*
X90490472Y-114555960D01*
X90546971Y-114791298D01*
X90546972Y-114791303D01*
X90548127Y-114796111D01*
X90644534Y-115028859D01*
X90776164Y-115243659D01*
X90939776Y-115435224D01*
X91131341Y-115598836D01*
X91346141Y-115730466D01*
X91578889Y-115826873D01*
X91823852Y-115885683D01*
X92012118Y-115900500D01*
X92135413Y-115900500D01*
X92137882Y-115900500D01*
X92326148Y-115885683D01*
X92571111Y-115826873D01*
X92803859Y-115730466D01*
X93018659Y-115598836D01*
X93210224Y-115435224D01*
X93373836Y-115243659D01*
X93505466Y-115028859D01*
X93601873Y-114796111D01*
X93660683Y-114551148D01*
X93680449Y-114300000D01*
X93660683Y-114048852D01*
X93601873Y-113803889D01*
X93505466Y-113571141D01*
X93373836Y-113356341D01*
X93210224Y-113164776D01*
X93018659Y-113001164D01*
X92803859Y-112869534D01*
X92571111Y-112773127D01*
X92566303Y-112771972D01*
X92566298Y-112771971D01*
X92330960Y-112715472D01*
X92330956Y-112715471D01*
X92326148Y-112714317D01*
X92321222Y-112713929D01*
X92321214Y-112713928D01*
X92140338Y-112699693D01*
X92140330Y-112699692D01*
X92137882Y-112699500D01*
X92012118Y-112699500D01*
X92009670Y-112699692D01*
X92009661Y-112699693D01*
X91828785Y-112713928D01*
X91828775Y-112713929D01*
X91823852Y-112714317D01*
X91819045Y-112715471D01*
X91819039Y-112715472D01*
X91583701Y-112771971D01*
X91583692Y-112771973D01*
X91578889Y-112773127D01*
X91574321Y-112775018D01*
X91574315Y-112775021D01*
X91350715Y-112867639D01*
X91350710Y-112867641D01*
X91346141Y-112869534D01*
X91341926Y-112872116D01*
X91341920Y-112872120D01*
X91135558Y-112998579D01*
X91135550Y-112998584D01*
X91131341Y-113001164D01*
X91127580Y-113004375D01*
X91127576Y-113004379D01*
X90943538Y-113161562D01*
X90943531Y-113161568D01*
X90939776Y-113164776D01*
X90936568Y-113168531D01*
X90936562Y-113168538D01*
X90779379Y-113352576D01*
X90779375Y-113352580D01*
X90776164Y-113356341D01*
X90773584Y-113360550D01*
X90773579Y-113360558D01*
X90647120Y-113566920D01*
X90647116Y-113566926D01*
X90644534Y-113571141D01*
X90642641Y-113575710D01*
X90642639Y-113575715D01*
X90550021Y-113799315D01*
X90550018Y-113799321D01*
X90548127Y-113803889D01*
X90546973Y-113808692D01*
X90546971Y-113808701D01*
X90490472Y-114044039D01*
X90489317Y-114048852D01*
X90488929Y-114053775D01*
X90488928Y-114053785D01*
X90469939Y-114295070D01*
X90469551Y-114300000D01*
X89550500Y-114300000D01*
X89550500Y-107799901D01*
X89553582Y-107799901D01*
X89553582Y-107799899D01*
X89550499Y-107799900D01*
X89550491Y-107743610D01*
X89525379Y-107633662D01*
X89476437Y-107532055D01*
X89406118Y-107443882D01*
X89317945Y-107373563D01*
X89311570Y-107370492D01*
X89311568Y-107370491D01*
X89222709Y-107327690D01*
X89222710Y-107327690D01*
X89216338Y-107324621D01*
X89209450Y-107323047D01*
X89209445Y-107323046D01*
X89113289Y-107301084D01*
X89113282Y-107301083D01*
X89106390Y-107299509D01*
X89099318Y-107299507D01*
X89099311Y-107299507D01*
X89050099Y-107299500D01*
X76050500Y-107299500D01*
X76050000Y-107299500D01*
X75993607Y-107299500D01*
X75986715Y-107301072D01*
X75986706Y-107301074D01*
X75890550Y-107323021D01*
X75890542Y-107323023D01*
X75883649Y-107324597D01*
X75877279Y-107327664D01*
X75877272Y-107327667D01*
X75788405Y-107370464D01*
X75788402Y-107370465D01*
X75782033Y-107373533D01*
X75776504Y-107377941D01*
X75776501Y-107377944D01*
X75699384Y-107439443D01*
X75699379Y-107439447D01*
X75693854Y-107443854D01*
X75689447Y-107449379D01*
X75689443Y-107449384D01*
X75627944Y-107526501D01*
X75627941Y-107526504D01*
X75623533Y-107532033D01*
X75620465Y-107538402D01*
X75620464Y-107538405D01*
X75577667Y-107627272D01*
X75577664Y-107627279D01*
X75574597Y-107633649D01*
X75573023Y-107640542D01*
X75573021Y-107640550D01*
X75551074Y-107736706D01*
X75551072Y-107736715D01*
X75549500Y-107743607D01*
X75549500Y-107750685D01*
X75549500Y-120800000D01*
X72450500Y-120800000D01*
X72450500Y-106975003D01*
X72450500Y-106974999D01*
X72450501Y-106974999D01*
X72450501Y-106880518D01*
X72420940Y-106693881D01*
X72362547Y-106514167D01*
X72276760Y-106345800D01*
X72165690Y-106192926D01*
X72032073Y-106059309D01*
X71879199Y-105948239D01*
X71710832Y-105862452D01*
X71706126Y-105860922D01*
X71706119Y-105860920D01*
X71535825Y-105805588D01*
X71535820Y-105805586D01*
X71531118Y-105804059D01*
X71526240Y-105803286D01*
X71526230Y-105803284D01*
X71349373Y-105775273D01*
X71349362Y-105775272D01*
X71344481Y-105774499D01*
X71339527Y-105774499D01*
X46978293Y-105774499D01*
X46971699Y-105774326D01*
X46960665Y-105773747D01*
X46842011Y-105767529D01*
X46841541Y-105767504D01*
X46650381Y-105756769D01*
X46637735Y-105755416D01*
X46485622Y-105731323D01*
X46484227Y-105731094D01*
X46318249Y-105702893D01*
X46306744Y-105700380D01*
X46153712Y-105659375D01*
X46151442Y-105658744D01*
X45993927Y-105613365D01*
X45983654Y-105609920D01*
X45834067Y-105552499D01*
X45831003Y-105551277D01*
X45681260Y-105489252D01*
X45672275Y-105485110D01*
X45528659Y-105411933D01*
X45524914Y-105409945D01*
X45383873Y-105331996D01*
X45376196Y-105327389D01*
X45240578Y-105239317D01*
X45236290Y-105236405D01*
X45105299Y-105143461D01*
X45098918Y-105138621D01*
X44973034Y-105036682D01*
X44968369Y-105032713D01*
X44848745Y-104925811D01*
X44843609Y-104920955D01*
X44729043Y-104806389D01*
X44724187Y-104801254D01*
X44617273Y-104681617D01*
X44613304Y-104676951D01*
X44511387Y-104551094D01*
X44506557Y-104544727D01*
X44413566Y-104413669D01*
X44410676Y-104409412D01*
X44410642Y-104409360D01*
X44322600Y-104273787D01*
X44317998Y-104266116D01*
X44240038Y-104125058D01*
X44238097Y-104121402D01*
X44164881Y-103977709D01*
X44160750Y-103968749D01*
X44098713Y-103818978D01*
X44097503Y-103815942D01*
X44097483Y-103815889D01*
X44040069Y-103666321D01*
X44036633Y-103656075D01*
X43991265Y-103498596D01*
X43990635Y-103496327D01*
X43949617Y-103343250D01*
X43947107Y-103331764D01*
X43918902Y-103165757D01*
X43918676Y-103164381D01*
X43918644Y-103164178D01*
X43894580Y-103012245D01*
X43893230Y-102999632D01*
X43889544Y-102933999D01*
X45560571Y-102933999D01*
X45580244Y-103146309D01*
X45581836Y-103151907D01*
X45581837Y-103151908D01*
X45585777Y-103165757D01*
X45638595Y-103351388D01*
X45641186Y-103356592D01*
X45641189Y-103356599D01*
X45710765Y-103496327D01*
X45733634Y-103542254D01*
X45737142Y-103546899D01*
X45737145Y-103546904D01*
X45819588Y-103656075D01*
X45862128Y-103712406D01*
X45866430Y-103716328D01*
X45866433Y-103716331D01*
X46015394Y-103852128D01*
X46015398Y-103852131D01*
X46019698Y-103856051D01*
X46200981Y-103968297D01*
X46206411Y-103970400D01*
X46206414Y-103970402D01*
X46278229Y-103998222D01*
X46399802Y-104045320D01*
X46609390Y-104084499D01*
X46816783Y-104084499D01*
X46822610Y-104084499D01*
X47032198Y-104045320D01*
X47231019Y-103968297D01*
X47412302Y-103856051D01*
X47569872Y-103712406D01*
X47698366Y-103542254D01*
X47793405Y-103351388D01*
X47851756Y-103146309D01*
X47871429Y-102933999D01*
X250578946Y-102933999D01*
X250598619Y-103146309D01*
X250600211Y-103151907D01*
X250600212Y-103151908D01*
X250604152Y-103165757D01*
X250656970Y-103351388D01*
X250659561Y-103356592D01*
X250659564Y-103356599D01*
X250729140Y-103496327D01*
X250752009Y-103542254D01*
X250755517Y-103546899D01*
X250755520Y-103546904D01*
X250837963Y-103656075D01*
X250880503Y-103712406D01*
X250884805Y-103716328D01*
X250884808Y-103716331D01*
X251033769Y-103852128D01*
X251033773Y-103852131D01*
X251038073Y-103856051D01*
X251219356Y-103968297D01*
X251224786Y-103970400D01*
X251224789Y-103970402D01*
X251296604Y-103998222D01*
X251418177Y-104045320D01*
X251627765Y-104084499D01*
X251835158Y-104084499D01*
X251840985Y-104084499D01*
X252050573Y-104045320D01*
X252249394Y-103968297D01*
X252430677Y-103856051D01*
X252588247Y-103712406D01*
X252716741Y-103542254D01*
X252811780Y-103351388D01*
X252870131Y-103146309D01*
X252889804Y-102933999D01*
X252870131Y-102721689D01*
X252811780Y-102516610D01*
X252716741Y-102325744D01*
X252588247Y-102155592D01*
X252583943Y-102151669D01*
X252583941Y-102151666D01*
X252434980Y-102015869D01*
X252434975Y-102015865D01*
X252430677Y-102011947D01*
X252357612Y-101966707D01*
X252254350Y-101902769D01*
X252254344Y-101902766D01*
X252249394Y-101899701D01*
X252243967Y-101897598D01*
X252243960Y-101897595D01*
X252056002Y-101824781D01*
X252056000Y-101824780D01*
X252050573Y-101822678D01*
X252044851Y-101821608D01*
X252044850Y-101821608D01*
X251846710Y-101784569D01*
X251846707Y-101784568D01*
X251840985Y-101783499D01*
X251627765Y-101783499D01*
X251622043Y-101784568D01*
X251622039Y-101784569D01*
X251423899Y-101821608D01*
X251423895Y-101821609D01*
X251418177Y-101822678D01*
X251412752Y-101824779D01*
X251412747Y-101824781D01*
X251224789Y-101897595D01*
X251224777Y-101897600D01*
X251219356Y-101899701D01*
X251214409Y-101902763D01*
X251214399Y-101902769D01*
X251043024Y-102008881D01*
X251043020Y-102008883D01*
X251038073Y-102011947D01*
X251033779Y-102015861D01*
X251033769Y-102015869D01*
X250884808Y-102151666D01*
X250884800Y-102151674D01*
X250880503Y-102155592D01*
X250876994Y-102160238D01*
X250876990Y-102160243D01*
X250755520Y-102321093D01*
X250755514Y-102321102D01*
X250752009Y-102325744D01*
X250749415Y-102330951D01*
X250749412Y-102330958D01*
X250659564Y-102511398D01*
X250659559Y-102511409D01*
X250656970Y-102516610D01*
X250655378Y-102522203D01*
X250655376Y-102522210D01*
X250610964Y-102678300D01*
X250598619Y-102721689D01*
X250598082Y-102727481D01*
X250598082Y-102727483D01*
X250590615Y-102808065D01*
X250578946Y-102933999D01*
X47871429Y-102933999D01*
X47851756Y-102721689D01*
X47793405Y-102516610D01*
X47698366Y-102325744D01*
X47569872Y-102155592D01*
X47565568Y-102151669D01*
X47565566Y-102151666D01*
X47416605Y-102015869D01*
X47416600Y-102015865D01*
X47412302Y-102011947D01*
X47339237Y-101966707D01*
X47235975Y-101902769D01*
X47235969Y-101902766D01*
X47231019Y-101899701D01*
X47225592Y-101897598D01*
X47225585Y-101897595D01*
X47037627Y-101824781D01*
X47037625Y-101824780D01*
X47032198Y-101822678D01*
X47026476Y-101821608D01*
X47026475Y-101821608D01*
X46828335Y-101784569D01*
X46828332Y-101784568D01*
X46822610Y-101783499D01*
X46609390Y-101783499D01*
X46603668Y-101784568D01*
X46603664Y-101784569D01*
X46405524Y-101821608D01*
X46405520Y-101821609D01*
X46399802Y-101822678D01*
X46394377Y-101824779D01*
X46394372Y-101824781D01*
X46206414Y-101897595D01*
X46206402Y-101897600D01*
X46200981Y-101899701D01*
X46196034Y-101902763D01*
X46196024Y-101902769D01*
X46024649Y-102008881D01*
X46024645Y-102008883D01*
X46019698Y-102011947D01*
X46015404Y-102015861D01*
X46015394Y-102015869D01*
X45866433Y-102151666D01*
X45866425Y-102151674D01*
X45862128Y-102155592D01*
X45858619Y-102160238D01*
X45858615Y-102160243D01*
X45737145Y-102321093D01*
X45737139Y-102321102D01*
X45733634Y-102325744D01*
X45731040Y-102330951D01*
X45731037Y-102330958D01*
X45641189Y-102511398D01*
X45641184Y-102511409D01*
X45638595Y-102516610D01*
X45637003Y-102522203D01*
X45637001Y-102522210D01*
X45592589Y-102678300D01*
X45580244Y-102721689D01*
X45579707Y-102727481D01*
X45579707Y-102727483D01*
X45572240Y-102808065D01*
X45560571Y-102933999D01*
X43889544Y-102933999D01*
X43882496Y-102808480D01*
X43875673Y-102678281D01*
X43875500Y-102671687D01*
X43875500Y-101750000D01*
X54119500Y-101750000D01*
X54119507Y-101799311D01*
X54119507Y-101799318D01*
X54119509Y-101806390D01*
X54121083Y-101813282D01*
X54121084Y-101813289D01*
X54143046Y-101909445D01*
X54143047Y-101909450D01*
X54144621Y-101916338D01*
X54193563Y-102017945D01*
X54263882Y-102106118D01*
X54352055Y-102176437D01*
X54453662Y-102225379D01*
X54563610Y-102250491D01*
X54619899Y-102250498D01*
X54619900Y-102250499D01*
X54619899Y-102253582D01*
X54619901Y-102253582D01*
X54619901Y-102250500D01*
X67669315Y-102250500D01*
X67676393Y-102250500D01*
X67786351Y-102225403D01*
X67887967Y-102176467D01*
X67976146Y-102106146D01*
X68046467Y-102017967D01*
X68095403Y-101916351D01*
X68120500Y-101806393D01*
X68120500Y-101750000D01*
X80312000Y-101750000D01*
X80312007Y-101799311D01*
X80312007Y-101799318D01*
X80312009Y-101806390D01*
X80313583Y-101813282D01*
X80313584Y-101813289D01*
X80335546Y-101909445D01*
X80335547Y-101909450D01*
X80337121Y-101916338D01*
X80386063Y-102017945D01*
X80456382Y-102106118D01*
X80544555Y-102176437D01*
X80646162Y-102225379D01*
X80756110Y-102250491D01*
X80812399Y-102250498D01*
X80812400Y-102250499D01*
X80812399Y-102253582D01*
X80812401Y-102253582D01*
X80812401Y-102250500D01*
X93861815Y-102250500D01*
X93868893Y-102250500D01*
X93978851Y-102225403D01*
X94080467Y-102176467D01*
X94168646Y-102106146D01*
X94238967Y-102017967D01*
X94287903Y-101916351D01*
X94313000Y-101806393D01*
X94313000Y-101750000D01*
X99362000Y-101750000D01*
X99362007Y-101799311D01*
X99362007Y-101799318D01*
X99362009Y-101806390D01*
X99363583Y-101813282D01*
X99363584Y-101813289D01*
X99385546Y-101909445D01*
X99385547Y-101909450D01*
X99387121Y-101916338D01*
X99436063Y-102017945D01*
X99506382Y-102106118D01*
X99594555Y-102176437D01*
X99696162Y-102225379D01*
X99806110Y-102250491D01*
X99862399Y-102250498D01*
X99862400Y-102250499D01*
X99862399Y-102253582D01*
X99862401Y-102253582D01*
X99862401Y-102250500D01*
X112911815Y-102250500D01*
X112918893Y-102250500D01*
X113028851Y-102225403D01*
X113130467Y-102176467D01*
X113218646Y-102106146D01*
X113288967Y-102017967D01*
X113337903Y-101916351D01*
X113363000Y-101806393D01*
X113363000Y-101750000D01*
X118412000Y-101750000D01*
X118412007Y-101799311D01*
X118412007Y-101799318D01*
X118412009Y-101806390D01*
X118413583Y-101813282D01*
X118413584Y-101813289D01*
X118435546Y-101909445D01*
X118435547Y-101909450D01*
X118437121Y-101916338D01*
X118486063Y-102017945D01*
X118556382Y-102106118D01*
X118644555Y-102176437D01*
X118746162Y-102225379D01*
X118856110Y-102250491D01*
X118912399Y-102250498D01*
X118912400Y-102250499D01*
X118912399Y-102253582D01*
X118912401Y-102253582D01*
X118912401Y-102250500D01*
X131961815Y-102250500D01*
X131968893Y-102250500D01*
X132078851Y-102225403D01*
X132180467Y-102176467D01*
X132268646Y-102106146D01*
X132338967Y-102017967D01*
X132387903Y-101916351D01*
X132413000Y-101806393D01*
X132413000Y-101750000D01*
X137462000Y-101750000D01*
X137462007Y-101799311D01*
X137462007Y-101799318D01*
X137462009Y-101806390D01*
X137463583Y-101813282D01*
X137463584Y-101813289D01*
X137485546Y-101909445D01*
X137485547Y-101909450D01*
X137487121Y-101916338D01*
X137536063Y-102017945D01*
X137606382Y-102106118D01*
X137694555Y-102176437D01*
X137796162Y-102225379D01*
X137906110Y-102250491D01*
X137962399Y-102250498D01*
X137962400Y-102250499D01*
X137962399Y-102253582D01*
X137962401Y-102253582D01*
X137962401Y-102250500D01*
X151011815Y-102250500D01*
X151018893Y-102250500D01*
X151128851Y-102225403D01*
X151230467Y-102176467D01*
X151318646Y-102106146D01*
X151388967Y-102017967D01*
X151437903Y-101916351D01*
X151463000Y-101806393D01*
X151463000Y-101750000D01*
X156512000Y-101750000D01*
X156512007Y-101799311D01*
X156512007Y-101799318D01*
X156512009Y-101806390D01*
X156513583Y-101813282D01*
X156513584Y-101813289D01*
X156535546Y-101909445D01*
X156535547Y-101909450D01*
X156537121Y-101916338D01*
X156586063Y-102017945D01*
X156656382Y-102106118D01*
X156744555Y-102176437D01*
X156846162Y-102225379D01*
X156956110Y-102250491D01*
X157012399Y-102250498D01*
X157012400Y-102250499D01*
X157012399Y-102253582D01*
X157012401Y-102253582D01*
X157012401Y-102250500D01*
X170061815Y-102250500D01*
X170068893Y-102250500D01*
X170178851Y-102225403D01*
X170280467Y-102176467D01*
X170368646Y-102106146D01*
X170438967Y-102017967D01*
X170487903Y-101916351D01*
X170513000Y-101806393D01*
X170513000Y-101750000D01*
X175562000Y-101750000D01*
X175562007Y-101799311D01*
X175562007Y-101799318D01*
X175562009Y-101806390D01*
X175563583Y-101813282D01*
X175563584Y-101813289D01*
X175585546Y-101909445D01*
X175585547Y-101909450D01*
X175587121Y-101916338D01*
X175636063Y-102017945D01*
X175706382Y-102106118D01*
X175794555Y-102176437D01*
X175896162Y-102225379D01*
X176006110Y-102250491D01*
X176062399Y-102250498D01*
X176062400Y-102250499D01*
X176062399Y-102253582D01*
X176062401Y-102253582D01*
X176062401Y-102250500D01*
X189111815Y-102250500D01*
X189118893Y-102250500D01*
X189228851Y-102225403D01*
X189330467Y-102176467D01*
X189418646Y-102106146D01*
X189488967Y-102017967D01*
X189537903Y-101916351D01*
X189563000Y-101806393D01*
X189563000Y-101750000D01*
X194612000Y-101750000D01*
X194612007Y-101799311D01*
X194612007Y-101799318D01*
X194612009Y-101806390D01*
X194613583Y-101813282D01*
X194613584Y-101813289D01*
X194635546Y-101909445D01*
X194635547Y-101909450D01*
X194637121Y-101916338D01*
X194686063Y-102017945D01*
X194756382Y-102106118D01*
X194844555Y-102176437D01*
X194946162Y-102225379D01*
X195056110Y-102250491D01*
X195112399Y-102250498D01*
X195112400Y-102250499D01*
X195112399Y-102253582D01*
X195112401Y-102253582D01*
X195112401Y-102250500D01*
X208161815Y-102250500D01*
X208168893Y-102250500D01*
X208278851Y-102225403D01*
X208380467Y-102176467D01*
X208468646Y-102106146D01*
X208538967Y-102017967D01*
X208587903Y-101916351D01*
X208613000Y-101806393D01*
X208613000Y-101750000D01*
X213662000Y-101750000D01*
X213662007Y-101799311D01*
X213662007Y-101799318D01*
X213662009Y-101806390D01*
X213663583Y-101813282D01*
X213663584Y-101813289D01*
X213685546Y-101909445D01*
X213685547Y-101909450D01*
X213687121Y-101916338D01*
X213736063Y-102017945D01*
X213806382Y-102106118D01*
X213894555Y-102176437D01*
X213996162Y-102225379D01*
X214106110Y-102250491D01*
X214162399Y-102250498D01*
X214162400Y-102250499D01*
X214162399Y-102253582D01*
X214162401Y-102253582D01*
X214162401Y-102250500D01*
X227211815Y-102250500D01*
X227218893Y-102250500D01*
X227328851Y-102225403D01*
X227430467Y-102176467D01*
X227518646Y-102106146D01*
X227588967Y-102017967D01*
X227637903Y-101916351D01*
X227663000Y-101806393D01*
X227663000Y-101750000D01*
X235094500Y-101750000D01*
X235094507Y-101799311D01*
X235094507Y-101799318D01*
X235094509Y-101806390D01*
X235096083Y-101813282D01*
X235096084Y-101813289D01*
X235118046Y-101909445D01*
X235118047Y-101909450D01*
X235119621Y-101916338D01*
X235168563Y-102017945D01*
X235238882Y-102106118D01*
X235327055Y-102176437D01*
X235428662Y-102225379D01*
X235538610Y-102250491D01*
X235594899Y-102250498D01*
X235594900Y-102250499D01*
X235594899Y-102253582D01*
X235594901Y-102253582D01*
X235594901Y-102250500D01*
X248644315Y-102250500D01*
X248651393Y-102250500D01*
X248761351Y-102225403D01*
X248862967Y-102176467D01*
X248951146Y-102106146D01*
X249021467Y-102017967D01*
X249070403Y-101916351D01*
X249095500Y-101806393D01*
X249095500Y-101750000D01*
X249095500Y-101749500D01*
X249095500Y-88749901D01*
X249098582Y-88749901D01*
X249098582Y-88749899D01*
X249095499Y-88749900D01*
X249095491Y-88693610D01*
X249070379Y-88583662D01*
X249021437Y-88482055D01*
X248951118Y-88393882D01*
X248862945Y-88323563D01*
X248856570Y-88320492D01*
X248856568Y-88320491D01*
X248767709Y-88277690D01*
X248767710Y-88277690D01*
X248761338Y-88274621D01*
X248754450Y-88273047D01*
X248754445Y-88273046D01*
X248658289Y-88251084D01*
X248658282Y-88251083D01*
X248651390Y-88249509D01*
X248644318Y-88249507D01*
X248644311Y-88249507D01*
X248595099Y-88249500D01*
X235595500Y-88249500D01*
X235595000Y-88249500D01*
X235538607Y-88249500D01*
X235531715Y-88251072D01*
X235531706Y-88251074D01*
X235435550Y-88273021D01*
X235435542Y-88273023D01*
X235428649Y-88274597D01*
X235422279Y-88277664D01*
X235422272Y-88277667D01*
X235333405Y-88320464D01*
X235333402Y-88320465D01*
X235327033Y-88323533D01*
X235321504Y-88327941D01*
X235321501Y-88327944D01*
X235244384Y-88389443D01*
X235244379Y-88389447D01*
X235238854Y-88393854D01*
X235234447Y-88399379D01*
X235234443Y-88399384D01*
X235172944Y-88476501D01*
X235172941Y-88476504D01*
X235168533Y-88482033D01*
X235165465Y-88488402D01*
X235165464Y-88488405D01*
X235122667Y-88577272D01*
X235122664Y-88577279D01*
X235119597Y-88583649D01*
X235118023Y-88590542D01*
X235118021Y-88590550D01*
X235096074Y-88686706D01*
X235096072Y-88686715D01*
X235094500Y-88693607D01*
X235094500Y-88700685D01*
X235094500Y-101750000D01*
X227663000Y-101750000D01*
X227663000Y-101749500D01*
X227663000Y-95250000D01*
X230169551Y-95250000D01*
X230169939Y-95254930D01*
X230188928Y-95496214D01*
X230188929Y-95496222D01*
X230189317Y-95501148D01*
X230190471Y-95505956D01*
X230190472Y-95505960D01*
X230246971Y-95741298D01*
X230246972Y-95741303D01*
X230248127Y-95746111D01*
X230344534Y-95978859D01*
X230476164Y-96193659D01*
X230639776Y-96385224D01*
X230831341Y-96548836D01*
X231046141Y-96680466D01*
X231278889Y-96776873D01*
X231523852Y-96835683D01*
X231712118Y-96850500D01*
X231835413Y-96850500D01*
X231837882Y-96850500D01*
X232026148Y-96835683D01*
X232271111Y-96776873D01*
X232503859Y-96680466D01*
X232718659Y-96548836D01*
X232910224Y-96385224D01*
X233073836Y-96193659D01*
X233205466Y-95978859D01*
X233301873Y-95746111D01*
X233360683Y-95501148D01*
X233380449Y-95250000D01*
X233360683Y-94998852D01*
X233301873Y-94753889D01*
X233205466Y-94521141D01*
X233073836Y-94306341D01*
X232910224Y-94114776D01*
X232718659Y-93951164D01*
X232503859Y-93819534D01*
X232271111Y-93723127D01*
X232266303Y-93721972D01*
X232266298Y-93721971D01*
X232030960Y-93665472D01*
X232030956Y-93665471D01*
X232026148Y-93664317D01*
X232021222Y-93663929D01*
X232021214Y-93663928D01*
X231840338Y-93649693D01*
X231840330Y-93649692D01*
X231837882Y-93649500D01*
X231712118Y-93649500D01*
X231709670Y-93649692D01*
X231709661Y-93649693D01*
X231528785Y-93663928D01*
X231528775Y-93663929D01*
X231523852Y-93664317D01*
X231519045Y-93665471D01*
X231519039Y-93665472D01*
X231283701Y-93721971D01*
X231283692Y-93721973D01*
X231278889Y-93723127D01*
X231274321Y-93725018D01*
X231274315Y-93725021D01*
X231050715Y-93817639D01*
X231050710Y-93817641D01*
X231046141Y-93819534D01*
X231041926Y-93822116D01*
X231041920Y-93822120D01*
X230835558Y-93948579D01*
X230835550Y-93948584D01*
X230831341Y-93951164D01*
X230827580Y-93954375D01*
X230827576Y-93954379D01*
X230643538Y-94111562D01*
X230643531Y-94111568D01*
X230639776Y-94114776D01*
X230636568Y-94118531D01*
X230636562Y-94118538D01*
X230479379Y-94302576D01*
X230479375Y-94302580D01*
X230476164Y-94306341D01*
X230473584Y-94310550D01*
X230473579Y-94310558D01*
X230347120Y-94516920D01*
X230347116Y-94516926D01*
X230344534Y-94521141D01*
X230342641Y-94525710D01*
X230342639Y-94525715D01*
X230250021Y-94749315D01*
X230250018Y-94749321D01*
X230248127Y-94753889D01*
X230246973Y-94758692D01*
X230246971Y-94758701D01*
X230190472Y-94994039D01*
X230189317Y-94998852D01*
X230188929Y-95003775D01*
X230188928Y-95003785D01*
X230169939Y-95245070D01*
X230169551Y-95250000D01*
X227663000Y-95250000D01*
X227663000Y-88749901D01*
X227666082Y-88749901D01*
X227666082Y-88749899D01*
X227662999Y-88749900D01*
X227662991Y-88693610D01*
X227637879Y-88583662D01*
X227588937Y-88482055D01*
X227518618Y-88393882D01*
X227430445Y-88323563D01*
X227424070Y-88320492D01*
X227424068Y-88320491D01*
X227335209Y-88277690D01*
X227335210Y-88277690D01*
X227328838Y-88274621D01*
X227321950Y-88273047D01*
X227321945Y-88273046D01*
X227225789Y-88251084D01*
X227225782Y-88251083D01*
X227218890Y-88249509D01*
X227211818Y-88249507D01*
X227211811Y-88249507D01*
X227162599Y-88249500D01*
X214163000Y-88249500D01*
X214162500Y-88249500D01*
X214106107Y-88249500D01*
X214099215Y-88251072D01*
X214099206Y-88251074D01*
X214003050Y-88273021D01*
X214003042Y-88273023D01*
X213996149Y-88274597D01*
X213989779Y-88277664D01*
X213989772Y-88277667D01*
X213900905Y-88320464D01*
X213900902Y-88320465D01*
X213894533Y-88323533D01*
X213889004Y-88327941D01*
X213889001Y-88327944D01*
X213811884Y-88389443D01*
X213811879Y-88389447D01*
X213806354Y-88393854D01*
X213801947Y-88399379D01*
X213801943Y-88399384D01*
X213740444Y-88476501D01*
X213740441Y-88476504D01*
X213736033Y-88482033D01*
X213732965Y-88488402D01*
X213732964Y-88488405D01*
X213690167Y-88577272D01*
X213690164Y-88577279D01*
X213687097Y-88583649D01*
X213685523Y-88590542D01*
X213685521Y-88590550D01*
X213663574Y-88686706D01*
X213663572Y-88686715D01*
X213662000Y-88693607D01*
X213662000Y-88700685D01*
X213662000Y-101750000D01*
X208613000Y-101750000D01*
X208613000Y-101749500D01*
X208613000Y-88749901D01*
X208616082Y-88749901D01*
X208616082Y-88749899D01*
X208612999Y-88749900D01*
X208612991Y-88693610D01*
X208587879Y-88583662D01*
X208538937Y-88482055D01*
X208468618Y-88393882D01*
X208380445Y-88323563D01*
X208374070Y-88320492D01*
X208374068Y-88320491D01*
X208285209Y-88277690D01*
X208285210Y-88277690D01*
X208278838Y-88274621D01*
X208271950Y-88273047D01*
X208271945Y-88273046D01*
X208175789Y-88251084D01*
X208175782Y-88251083D01*
X208168890Y-88249509D01*
X208161818Y-88249507D01*
X208161811Y-88249507D01*
X208112599Y-88249500D01*
X195113000Y-88249500D01*
X195112500Y-88249500D01*
X195056107Y-88249500D01*
X195049215Y-88251072D01*
X195049206Y-88251074D01*
X194953050Y-88273021D01*
X194953042Y-88273023D01*
X194946149Y-88274597D01*
X194939779Y-88277664D01*
X194939772Y-88277667D01*
X194850905Y-88320464D01*
X194850902Y-88320465D01*
X194844533Y-88323533D01*
X194839004Y-88327941D01*
X194839001Y-88327944D01*
X194761884Y-88389443D01*
X194761879Y-88389447D01*
X194756354Y-88393854D01*
X194751947Y-88399379D01*
X194751943Y-88399384D01*
X194690444Y-88476501D01*
X194690441Y-88476504D01*
X194686033Y-88482033D01*
X194682965Y-88488402D01*
X194682964Y-88488405D01*
X194640167Y-88577272D01*
X194640164Y-88577279D01*
X194637097Y-88583649D01*
X194635523Y-88590542D01*
X194635521Y-88590550D01*
X194613574Y-88686706D01*
X194613572Y-88686715D01*
X194612000Y-88693607D01*
X194612000Y-88700685D01*
X194612000Y-101750000D01*
X189563000Y-101750000D01*
X189563000Y-101749500D01*
X189563000Y-95250000D01*
X190482051Y-95250000D01*
X190482439Y-95254930D01*
X190501428Y-95496214D01*
X190501429Y-95496222D01*
X190501817Y-95501148D01*
X190502971Y-95505956D01*
X190502972Y-95505960D01*
X190559471Y-95741298D01*
X190559472Y-95741303D01*
X190560627Y-95746111D01*
X190657034Y-95978859D01*
X190788664Y-96193659D01*
X190952276Y-96385224D01*
X191143841Y-96548836D01*
X191358641Y-96680466D01*
X191591389Y-96776873D01*
X191836352Y-96835683D01*
X192024618Y-96850500D01*
X192147913Y-96850500D01*
X192150382Y-96850500D01*
X192338648Y-96835683D01*
X192583611Y-96776873D01*
X192816359Y-96680466D01*
X193031159Y-96548836D01*
X193222724Y-96385224D01*
X193386336Y-96193659D01*
X193517966Y-95978859D01*
X193614373Y-95746111D01*
X193673183Y-95501148D01*
X193692949Y-95250000D01*
X193673183Y-94998852D01*
X193614373Y-94753889D01*
X193517966Y-94521141D01*
X193386336Y-94306341D01*
X193222724Y-94114776D01*
X193031159Y-93951164D01*
X192816359Y-93819534D01*
X192583611Y-93723127D01*
X192578803Y-93721972D01*
X192578798Y-93721971D01*
X192343460Y-93665472D01*
X192343456Y-93665471D01*
X192338648Y-93664317D01*
X192333722Y-93663929D01*
X192333714Y-93663928D01*
X192152838Y-93649693D01*
X192152830Y-93649692D01*
X192150382Y-93649500D01*
X192024618Y-93649500D01*
X192022170Y-93649692D01*
X192022161Y-93649693D01*
X191841285Y-93663928D01*
X191841275Y-93663929D01*
X191836352Y-93664317D01*
X191831545Y-93665471D01*
X191831539Y-93665472D01*
X191596201Y-93721971D01*
X191596192Y-93721973D01*
X191591389Y-93723127D01*
X191586821Y-93725018D01*
X191586815Y-93725021D01*
X191363215Y-93817639D01*
X191363210Y-93817641D01*
X191358641Y-93819534D01*
X191354426Y-93822116D01*
X191354420Y-93822120D01*
X191148058Y-93948579D01*
X191148050Y-93948584D01*
X191143841Y-93951164D01*
X191140080Y-93954375D01*
X191140076Y-93954379D01*
X190956038Y-94111562D01*
X190956031Y-94111568D01*
X190952276Y-94114776D01*
X190949068Y-94118531D01*
X190949062Y-94118538D01*
X190791879Y-94302576D01*
X190791875Y-94302580D01*
X190788664Y-94306341D01*
X190786084Y-94310550D01*
X190786079Y-94310558D01*
X190659620Y-94516920D01*
X190659616Y-94516926D01*
X190657034Y-94521141D01*
X190655141Y-94525710D01*
X190655139Y-94525715D01*
X190562521Y-94749315D01*
X190562518Y-94749321D01*
X190560627Y-94753889D01*
X190559473Y-94758692D01*
X190559471Y-94758701D01*
X190502972Y-94994039D01*
X190501817Y-94998852D01*
X190501429Y-95003775D01*
X190501428Y-95003785D01*
X190482439Y-95245070D01*
X190482051Y-95250000D01*
X189563000Y-95250000D01*
X189563000Y-88749901D01*
X189566082Y-88749901D01*
X189566082Y-88749899D01*
X189562999Y-88749900D01*
X189562991Y-88693610D01*
X189537879Y-88583662D01*
X189488937Y-88482055D01*
X189418618Y-88393882D01*
X189330445Y-88323563D01*
X189324070Y-88320492D01*
X189324068Y-88320491D01*
X189235209Y-88277690D01*
X189235210Y-88277690D01*
X189228838Y-88274621D01*
X189221950Y-88273047D01*
X189221945Y-88273046D01*
X189125789Y-88251084D01*
X189125782Y-88251083D01*
X189118890Y-88249509D01*
X189111818Y-88249507D01*
X189111811Y-88249507D01*
X189062599Y-88249500D01*
X176063000Y-88249500D01*
X176062500Y-88249500D01*
X176006107Y-88249500D01*
X175999215Y-88251072D01*
X175999206Y-88251074D01*
X175903050Y-88273021D01*
X175903042Y-88273023D01*
X175896149Y-88274597D01*
X175889779Y-88277664D01*
X175889772Y-88277667D01*
X175800905Y-88320464D01*
X175800902Y-88320465D01*
X175794533Y-88323533D01*
X175789004Y-88327941D01*
X175789001Y-88327944D01*
X175711884Y-88389443D01*
X175711879Y-88389447D01*
X175706354Y-88393854D01*
X175701947Y-88399379D01*
X175701943Y-88399384D01*
X175640444Y-88476501D01*
X175640441Y-88476504D01*
X175636033Y-88482033D01*
X175632965Y-88488402D01*
X175632964Y-88488405D01*
X175590167Y-88577272D01*
X175590164Y-88577279D01*
X175587097Y-88583649D01*
X175585523Y-88590542D01*
X175585521Y-88590550D01*
X175563574Y-88686706D01*
X175563572Y-88686715D01*
X175562000Y-88693607D01*
X175562000Y-88700685D01*
X175562000Y-101750000D01*
X170513000Y-101750000D01*
X170513000Y-101749500D01*
X170513000Y-88749901D01*
X170516082Y-88749901D01*
X170516082Y-88749899D01*
X170512999Y-88749900D01*
X170512991Y-88693610D01*
X170487879Y-88583662D01*
X170438937Y-88482055D01*
X170368618Y-88393882D01*
X170280445Y-88323563D01*
X170274070Y-88320492D01*
X170274068Y-88320491D01*
X170185209Y-88277690D01*
X170185210Y-88277690D01*
X170178838Y-88274621D01*
X170171950Y-88273047D01*
X170171945Y-88273046D01*
X170075789Y-88251084D01*
X170075782Y-88251083D01*
X170068890Y-88249509D01*
X170061818Y-88249507D01*
X170061811Y-88249507D01*
X170012599Y-88249500D01*
X157013000Y-88249500D01*
X157012500Y-88249500D01*
X156956107Y-88249500D01*
X156949215Y-88251072D01*
X156949206Y-88251074D01*
X156853050Y-88273021D01*
X156853042Y-88273023D01*
X156846149Y-88274597D01*
X156839779Y-88277664D01*
X156839772Y-88277667D01*
X156750905Y-88320464D01*
X156750902Y-88320465D01*
X156744533Y-88323533D01*
X156739004Y-88327941D01*
X156739001Y-88327944D01*
X156661884Y-88389443D01*
X156661879Y-88389447D01*
X156656354Y-88393854D01*
X156651947Y-88399379D01*
X156651943Y-88399384D01*
X156590444Y-88476501D01*
X156590441Y-88476504D01*
X156586033Y-88482033D01*
X156582965Y-88488402D01*
X156582964Y-88488405D01*
X156540167Y-88577272D01*
X156540164Y-88577279D01*
X156537097Y-88583649D01*
X156535523Y-88590542D01*
X156535521Y-88590550D01*
X156513574Y-88686706D01*
X156513572Y-88686715D01*
X156512000Y-88693607D01*
X156512000Y-88700685D01*
X156512000Y-101750000D01*
X151463000Y-101750000D01*
X151463000Y-101749500D01*
X151463000Y-95250000D01*
X152382051Y-95250000D01*
X152382439Y-95254930D01*
X152401428Y-95496214D01*
X152401429Y-95496222D01*
X152401817Y-95501148D01*
X152402971Y-95505956D01*
X152402972Y-95505960D01*
X152459471Y-95741298D01*
X152459472Y-95741303D01*
X152460627Y-95746111D01*
X152557034Y-95978859D01*
X152688664Y-96193659D01*
X152852276Y-96385224D01*
X153043841Y-96548836D01*
X153258641Y-96680466D01*
X153491389Y-96776873D01*
X153736352Y-96835683D01*
X153924618Y-96850500D01*
X154047913Y-96850500D01*
X154050382Y-96850500D01*
X154238648Y-96835683D01*
X154483611Y-96776873D01*
X154716359Y-96680466D01*
X154931159Y-96548836D01*
X155122724Y-96385224D01*
X155286336Y-96193659D01*
X155417966Y-95978859D01*
X155514373Y-95746111D01*
X155573183Y-95501148D01*
X155592949Y-95250000D01*
X155573183Y-94998852D01*
X155514373Y-94753889D01*
X155417966Y-94521141D01*
X155286336Y-94306341D01*
X155122724Y-94114776D01*
X154931159Y-93951164D01*
X154716359Y-93819534D01*
X154483611Y-93723127D01*
X154478803Y-93721972D01*
X154478798Y-93721971D01*
X154243460Y-93665472D01*
X154243456Y-93665471D01*
X154238648Y-93664317D01*
X154233722Y-93663929D01*
X154233714Y-93663928D01*
X154052838Y-93649693D01*
X154052830Y-93649692D01*
X154050382Y-93649500D01*
X153924618Y-93649500D01*
X153922170Y-93649692D01*
X153922161Y-93649693D01*
X153741285Y-93663928D01*
X153741275Y-93663929D01*
X153736352Y-93664317D01*
X153731545Y-93665471D01*
X153731539Y-93665472D01*
X153496201Y-93721971D01*
X153496192Y-93721973D01*
X153491389Y-93723127D01*
X153486821Y-93725018D01*
X153486815Y-93725021D01*
X153263215Y-93817639D01*
X153263210Y-93817641D01*
X153258641Y-93819534D01*
X153254426Y-93822116D01*
X153254420Y-93822120D01*
X153048058Y-93948579D01*
X153048050Y-93948584D01*
X153043841Y-93951164D01*
X153040080Y-93954375D01*
X153040076Y-93954379D01*
X152856038Y-94111562D01*
X152856031Y-94111568D01*
X152852276Y-94114776D01*
X152849068Y-94118531D01*
X152849062Y-94118538D01*
X152691879Y-94302576D01*
X152691875Y-94302580D01*
X152688664Y-94306341D01*
X152686084Y-94310550D01*
X152686079Y-94310558D01*
X152559620Y-94516920D01*
X152559616Y-94516926D01*
X152557034Y-94521141D01*
X152555141Y-94525710D01*
X152555139Y-94525715D01*
X152462521Y-94749315D01*
X152462518Y-94749321D01*
X152460627Y-94753889D01*
X152459473Y-94758692D01*
X152459471Y-94758701D01*
X152402972Y-94994039D01*
X152401817Y-94998852D01*
X152401429Y-95003775D01*
X152401428Y-95003785D01*
X152382439Y-95245070D01*
X152382051Y-95250000D01*
X151463000Y-95250000D01*
X151463000Y-88749901D01*
X151466082Y-88749901D01*
X151466082Y-88749899D01*
X151462999Y-88749900D01*
X151462991Y-88693610D01*
X151437879Y-88583662D01*
X151388937Y-88482055D01*
X151318618Y-88393882D01*
X151230445Y-88323563D01*
X151224070Y-88320492D01*
X151224068Y-88320491D01*
X151135209Y-88277690D01*
X151135210Y-88277690D01*
X151128838Y-88274621D01*
X151121950Y-88273047D01*
X151121945Y-88273046D01*
X151025789Y-88251084D01*
X151025782Y-88251083D01*
X151018890Y-88249509D01*
X151011818Y-88249507D01*
X151011811Y-88249507D01*
X150962599Y-88249500D01*
X137963000Y-88249500D01*
X137962500Y-88249500D01*
X137906107Y-88249500D01*
X137899215Y-88251072D01*
X137899206Y-88251074D01*
X137803050Y-88273021D01*
X137803042Y-88273023D01*
X137796149Y-88274597D01*
X137789779Y-88277664D01*
X137789772Y-88277667D01*
X137700905Y-88320464D01*
X137700902Y-88320465D01*
X137694533Y-88323533D01*
X137689004Y-88327941D01*
X137689001Y-88327944D01*
X137611884Y-88389443D01*
X137611879Y-88389447D01*
X137606354Y-88393854D01*
X137601947Y-88399379D01*
X137601943Y-88399384D01*
X137540444Y-88476501D01*
X137540441Y-88476504D01*
X137536033Y-88482033D01*
X137532965Y-88488402D01*
X137532964Y-88488405D01*
X137490167Y-88577272D01*
X137490164Y-88577279D01*
X137487097Y-88583649D01*
X137485523Y-88590542D01*
X137485521Y-88590550D01*
X137463574Y-88686706D01*
X137463572Y-88686715D01*
X137462000Y-88693607D01*
X137462000Y-88700685D01*
X137462000Y-101750000D01*
X132413000Y-101750000D01*
X132413000Y-101749500D01*
X132413000Y-88749901D01*
X132416082Y-88749901D01*
X132416082Y-88749899D01*
X132412999Y-88749900D01*
X132412991Y-88693610D01*
X132387879Y-88583662D01*
X132338937Y-88482055D01*
X132268618Y-88393882D01*
X132180445Y-88323563D01*
X132174070Y-88320492D01*
X132174068Y-88320491D01*
X132085209Y-88277690D01*
X132085210Y-88277690D01*
X132078838Y-88274621D01*
X132071950Y-88273047D01*
X132071945Y-88273046D01*
X131975789Y-88251084D01*
X131975782Y-88251083D01*
X131968890Y-88249509D01*
X131961818Y-88249507D01*
X131961811Y-88249507D01*
X131912599Y-88249500D01*
X118913000Y-88249500D01*
X118912500Y-88249500D01*
X118856107Y-88249500D01*
X118849215Y-88251072D01*
X118849206Y-88251074D01*
X118753050Y-88273021D01*
X118753042Y-88273023D01*
X118746149Y-88274597D01*
X118739779Y-88277664D01*
X118739772Y-88277667D01*
X118650905Y-88320464D01*
X118650902Y-88320465D01*
X118644533Y-88323533D01*
X118639004Y-88327941D01*
X118639001Y-88327944D01*
X118561884Y-88389443D01*
X118561879Y-88389447D01*
X118556354Y-88393854D01*
X118551947Y-88399379D01*
X118551943Y-88399384D01*
X118490444Y-88476501D01*
X118490441Y-88476504D01*
X118486033Y-88482033D01*
X118482965Y-88488402D01*
X118482964Y-88488405D01*
X118440167Y-88577272D01*
X118440164Y-88577279D01*
X118437097Y-88583649D01*
X118435523Y-88590542D01*
X118435521Y-88590550D01*
X118413574Y-88686706D01*
X118413572Y-88686715D01*
X118412000Y-88693607D01*
X118412000Y-88700685D01*
X118412000Y-101750000D01*
X113363000Y-101750000D01*
X113363000Y-101749500D01*
X113363000Y-95250000D01*
X114282051Y-95250000D01*
X114282439Y-95254930D01*
X114301428Y-95496214D01*
X114301429Y-95496222D01*
X114301817Y-95501148D01*
X114302971Y-95505956D01*
X114302972Y-95505960D01*
X114359471Y-95741298D01*
X114359472Y-95741303D01*
X114360627Y-95746111D01*
X114457034Y-95978859D01*
X114588664Y-96193659D01*
X114752276Y-96385224D01*
X114943841Y-96548836D01*
X115158641Y-96680466D01*
X115391389Y-96776873D01*
X115636352Y-96835683D01*
X115824618Y-96850500D01*
X115947913Y-96850500D01*
X115950382Y-96850500D01*
X116138648Y-96835683D01*
X116383611Y-96776873D01*
X116616359Y-96680466D01*
X116831159Y-96548836D01*
X117022724Y-96385224D01*
X117186336Y-96193659D01*
X117317966Y-95978859D01*
X117414373Y-95746111D01*
X117473183Y-95501148D01*
X117492949Y-95250000D01*
X117473183Y-94998852D01*
X117414373Y-94753889D01*
X117317966Y-94521141D01*
X117186336Y-94306341D01*
X117022724Y-94114776D01*
X116831159Y-93951164D01*
X116616359Y-93819534D01*
X116383611Y-93723127D01*
X116378803Y-93721972D01*
X116378798Y-93721971D01*
X116143460Y-93665472D01*
X116143456Y-93665471D01*
X116138648Y-93664317D01*
X116133722Y-93663929D01*
X116133714Y-93663928D01*
X115952838Y-93649693D01*
X115952830Y-93649692D01*
X115950382Y-93649500D01*
X115824618Y-93649500D01*
X115822170Y-93649692D01*
X115822161Y-93649693D01*
X115641285Y-93663928D01*
X115641275Y-93663929D01*
X115636352Y-93664317D01*
X115631545Y-93665471D01*
X115631539Y-93665472D01*
X115396201Y-93721971D01*
X115396192Y-93721973D01*
X115391389Y-93723127D01*
X115386821Y-93725018D01*
X115386815Y-93725021D01*
X115163215Y-93817639D01*
X115163210Y-93817641D01*
X115158641Y-93819534D01*
X115154426Y-93822116D01*
X115154420Y-93822120D01*
X114948058Y-93948579D01*
X114948050Y-93948584D01*
X114943841Y-93951164D01*
X114940080Y-93954375D01*
X114940076Y-93954379D01*
X114756038Y-94111562D01*
X114756031Y-94111568D01*
X114752276Y-94114776D01*
X114749068Y-94118531D01*
X114749062Y-94118538D01*
X114591879Y-94302576D01*
X114591875Y-94302580D01*
X114588664Y-94306341D01*
X114586084Y-94310550D01*
X114586079Y-94310558D01*
X114459620Y-94516920D01*
X114459616Y-94516926D01*
X114457034Y-94521141D01*
X114455141Y-94525710D01*
X114455139Y-94525715D01*
X114362521Y-94749315D01*
X114362518Y-94749321D01*
X114360627Y-94753889D01*
X114359473Y-94758692D01*
X114359471Y-94758701D01*
X114302972Y-94994039D01*
X114301817Y-94998852D01*
X114301429Y-95003775D01*
X114301428Y-95003785D01*
X114282439Y-95245070D01*
X114282051Y-95250000D01*
X113363000Y-95250000D01*
X113363000Y-88749901D01*
X113366082Y-88749901D01*
X113366082Y-88749899D01*
X113362999Y-88749900D01*
X113362991Y-88693610D01*
X113337879Y-88583662D01*
X113288937Y-88482055D01*
X113218618Y-88393882D01*
X113130445Y-88323563D01*
X113124070Y-88320492D01*
X113124068Y-88320491D01*
X113035209Y-88277690D01*
X113035210Y-88277690D01*
X113028838Y-88274621D01*
X113021950Y-88273047D01*
X113021945Y-88273046D01*
X112925789Y-88251084D01*
X112925782Y-88251083D01*
X112918890Y-88249509D01*
X112911818Y-88249507D01*
X112911811Y-88249507D01*
X112862599Y-88249500D01*
X99863000Y-88249500D01*
X99862500Y-88249500D01*
X99806107Y-88249500D01*
X99799215Y-88251072D01*
X99799206Y-88251074D01*
X99703050Y-88273021D01*
X99703042Y-88273023D01*
X99696149Y-88274597D01*
X99689779Y-88277664D01*
X99689772Y-88277667D01*
X99600905Y-88320464D01*
X99600902Y-88320465D01*
X99594533Y-88323533D01*
X99589004Y-88327941D01*
X99589001Y-88327944D01*
X99511884Y-88389443D01*
X99511879Y-88389447D01*
X99506354Y-88393854D01*
X99501947Y-88399379D01*
X99501943Y-88399384D01*
X99440444Y-88476501D01*
X99440441Y-88476504D01*
X99436033Y-88482033D01*
X99432965Y-88488402D01*
X99432964Y-88488405D01*
X99390167Y-88577272D01*
X99390164Y-88577279D01*
X99387097Y-88583649D01*
X99385523Y-88590542D01*
X99385521Y-88590550D01*
X99363574Y-88686706D01*
X99363572Y-88686715D01*
X99362000Y-88693607D01*
X99362000Y-88700685D01*
X99362000Y-101750000D01*
X94313000Y-101750000D01*
X94313000Y-101749500D01*
X94313000Y-88749901D01*
X94316082Y-88749901D01*
X94316082Y-88749899D01*
X94312999Y-88749900D01*
X94312991Y-88693610D01*
X94287879Y-88583662D01*
X94238937Y-88482055D01*
X94168618Y-88393882D01*
X94080445Y-88323563D01*
X94074070Y-88320492D01*
X94074068Y-88320491D01*
X93985209Y-88277690D01*
X93985210Y-88277690D01*
X93978838Y-88274621D01*
X93971950Y-88273047D01*
X93971945Y-88273046D01*
X93875789Y-88251084D01*
X93875782Y-88251083D01*
X93868890Y-88249509D01*
X93861818Y-88249507D01*
X93861811Y-88249507D01*
X93812599Y-88249500D01*
X80813000Y-88249500D01*
X80812500Y-88249500D01*
X80756107Y-88249500D01*
X80749215Y-88251072D01*
X80749206Y-88251074D01*
X80653050Y-88273021D01*
X80653042Y-88273023D01*
X80646149Y-88274597D01*
X80639779Y-88277664D01*
X80639772Y-88277667D01*
X80550905Y-88320464D01*
X80550902Y-88320465D01*
X80544533Y-88323533D01*
X80539004Y-88327941D01*
X80539001Y-88327944D01*
X80461884Y-88389443D01*
X80461879Y-88389447D01*
X80456354Y-88393854D01*
X80451947Y-88399379D01*
X80451943Y-88399384D01*
X80390444Y-88476501D01*
X80390441Y-88476504D01*
X80386033Y-88482033D01*
X80382965Y-88488402D01*
X80382964Y-88488405D01*
X80340167Y-88577272D01*
X80340164Y-88577279D01*
X80337097Y-88583649D01*
X80335523Y-88590542D01*
X80335521Y-88590550D01*
X80313574Y-88686706D01*
X80313572Y-88686715D01*
X80312000Y-88693607D01*
X80312000Y-88700685D01*
X80312000Y-101750000D01*
X68120500Y-101750000D01*
X68120500Y-101749500D01*
X68120500Y-95250000D01*
X69832051Y-95250000D01*
X69832439Y-95254930D01*
X69851428Y-95496214D01*
X69851429Y-95496222D01*
X69851817Y-95501148D01*
X69852971Y-95505956D01*
X69852972Y-95505960D01*
X69909471Y-95741298D01*
X69909472Y-95741303D01*
X69910627Y-95746111D01*
X70007034Y-95978859D01*
X70138664Y-96193659D01*
X70302276Y-96385224D01*
X70493841Y-96548836D01*
X70708641Y-96680466D01*
X70941389Y-96776873D01*
X71186352Y-96835683D01*
X71374618Y-96850500D01*
X71497913Y-96850500D01*
X71500382Y-96850500D01*
X71688648Y-96835683D01*
X71933611Y-96776873D01*
X72166359Y-96680466D01*
X72381159Y-96548836D01*
X72572724Y-96385224D01*
X72736336Y-96193659D01*
X72867966Y-95978859D01*
X72964373Y-95746111D01*
X73023183Y-95501148D01*
X73042949Y-95250000D01*
X73023183Y-94998852D01*
X72964373Y-94753889D01*
X72867966Y-94521141D01*
X72736336Y-94306341D01*
X72572724Y-94114776D01*
X72381159Y-93951164D01*
X72166359Y-93819534D01*
X71933611Y-93723127D01*
X71928803Y-93721972D01*
X71928798Y-93721971D01*
X71693460Y-93665472D01*
X71693456Y-93665471D01*
X71688648Y-93664317D01*
X71683722Y-93663929D01*
X71683714Y-93663928D01*
X71502838Y-93649693D01*
X71502830Y-93649692D01*
X71500382Y-93649500D01*
X71374618Y-93649500D01*
X71372170Y-93649692D01*
X71372161Y-93649693D01*
X71191285Y-93663928D01*
X71191275Y-93663929D01*
X71186352Y-93664317D01*
X71181545Y-93665471D01*
X71181539Y-93665472D01*
X70946201Y-93721971D01*
X70946192Y-93721973D01*
X70941389Y-93723127D01*
X70936821Y-93725018D01*
X70936815Y-93725021D01*
X70713215Y-93817639D01*
X70713210Y-93817641D01*
X70708641Y-93819534D01*
X70704426Y-93822116D01*
X70704420Y-93822120D01*
X70498058Y-93948579D01*
X70498050Y-93948584D01*
X70493841Y-93951164D01*
X70490080Y-93954375D01*
X70490076Y-93954379D01*
X70306038Y-94111562D01*
X70306031Y-94111568D01*
X70302276Y-94114776D01*
X70299068Y-94118531D01*
X70299062Y-94118538D01*
X70141879Y-94302576D01*
X70141875Y-94302580D01*
X70138664Y-94306341D01*
X70136084Y-94310550D01*
X70136079Y-94310558D01*
X70009620Y-94516920D01*
X70009616Y-94516926D01*
X70007034Y-94521141D01*
X70005141Y-94525710D01*
X70005139Y-94525715D01*
X69912521Y-94749315D01*
X69912518Y-94749321D01*
X69910627Y-94753889D01*
X69909473Y-94758692D01*
X69909471Y-94758701D01*
X69852972Y-94994039D01*
X69851817Y-94998852D01*
X69851429Y-95003775D01*
X69851428Y-95003785D01*
X69832439Y-95245070D01*
X69832051Y-95250000D01*
X68120500Y-95250000D01*
X68120500Y-88749901D01*
X68123582Y-88749901D01*
X68123582Y-88749899D01*
X68120499Y-88749900D01*
X68120491Y-88693610D01*
X68095379Y-88583662D01*
X68046437Y-88482055D01*
X67976118Y-88393882D01*
X67887945Y-88323563D01*
X67881570Y-88320492D01*
X67881568Y-88320491D01*
X67792709Y-88277690D01*
X67792710Y-88277690D01*
X67786338Y-88274621D01*
X67779450Y-88273047D01*
X67779445Y-88273046D01*
X67683289Y-88251084D01*
X67683282Y-88251083D01*
X67676390Y-88249509D01*
X67669318Y-88249507D01*
X67669311Y-88249507D01*
X67620099Y-88249500D01*
X54620500Y-88249500D01*
X54620000Y-88249500D01*
X54563607Y-88249500D01*
X54556715Y-88251072D01*
X54556706Y-88251074D01*
X54460550Y-88273021D01*
X54460542Y-88273023D01*
X54453649Y-88274597D01*
X54447279Y-88277664D01*
X54447272Y-88277667D01*
X54358405Y-88320464D01*
X54358402Y-88320465D01*
X54352033Y-88323533D01*
X54346504Y-88327941D01*
X54346501Y-88327944D01*
X54269384Y-88389443D01*
X54269379Y-88389447D01*
X54263854Y-88393854D01*
X54259447Y-88399379D01*
X54259443Y-88399384D01*
X54197944Y-88476501D01*
X54197941Y-88476504D01*
X54193533Y-88482033D01*
X54190465Y-88488402D01*
X54190464Y-88488405D01*
X54147667Y-88577272D01*
X54147664Y-88577279D01*
X54144597Y-88583649D01*
X54143023Y-88590542D01*
X54143021Y-88590550D01*
X54121074Y-88686706D01*
X54121072Y-88686715D01*
X54119500Y-88693607D01*
X54119500Y-88700685D01*
X54119500Y-101750000D01*
X43875500Y-101750000D01*
X43875500Y-82700000D01*
X49357500Y-82700000D01*
X49357507Y-82749311D01*
X49357507Y-82749318D01*
X49357509Y-82756390D01*
X49359083Y-82763282D01*
X49359084Y-82763289D01*
X49381046Y-82859445D01*
X49381047Y-82859450D01*
X49382621Y-82866338D01*
X49431563Y-82967945D01*
X49501882Y-83056118D01*
X49590055Y-83126437D01*
X49691662Y-83175379D01*
X49801610Y-83200491D01*
X49857899Y-83200498D01*
X49857900Y-83200499D01*
X49857899Y-83203582D01*
X49857901Y-83203582D01*
X49857901Y-83200500D01*
X62907315Y-83200500D01*
X62914393Y-83200500D01*
X63024351Y-83175403D01*
X63125967Y-83126467D01*
X63214146Y-83056146D01*
X63284467Y-82967967D01*
X63333403Y-82866351D01*
X63358500Y-82756393D01*
X63358500Y-82700000D01*
X70787000Y-82700000D01*
X70787007Y-82749311D01*
X70787007Y-82749318D01*
X70787009Y-82756390D01*
X70788583Y-82763282D01*
X70788584Y-82763289D01*
X70810546Y-82859445D01*
X70810547Y-82859450D01*
X70812121Y-82866338D01*
X70861063Y-82967945D01*
X70931382Y-83056118D01*
X71019555Y-83126437D01*
X71121162Y-83175379D01*
X71231110Y-83200491D01*
X71287399Y-83200498D01*
X71287400Y-83200499D01*
X71287399Y-83203582D01*
X71287401Y-83203582D01*
X71287401Y-83200500D01*
X84336815Y-83200500D01*
X84343893Y-83200500D01*
X84453851Y-83175403D01*
X84555467Y-83126467D01*
X84643646Y-83056146D01*
X84713967Y-82967967D01*
X84762903Y-82866351D01*
X84788000Y-82756393D01*
X84788000Y-82700000D01*
X89837000Y-82700000D01*
X89837007Y-82749311D01*
X89837007Y-82749318D01*
X89837009Y-82756390D01*
X89838583Y-82763282D01*
X89838584Y-82763289D01*
X89860546Y-82859445D01*
X89860547Y-82859450D01*
X89862121Y-82866338D01*
X89911063Y-82967945D01*
X89981382Y-83056118D01*
X90069555Y-83126437D01*
X90171162Y-83175379D01*
X90281110Y-83200491D01*
X90337399Y-83200498D01*
X90337400Y-83200499D01*
X90337399Y-83203582D01*
X90337401Y-83203582D01*
X90337401Y-83200500D01*
X103386815Y-83200500D01*
X103393893Y-83200500D01*
X103503851Y-83175403D01*
X103605467Y-83126467D01*
X103693646Y-83056146D01*
X103763967Y-82967967D01*
X103812903Y-82866351D01*
X103838000Y-82756393D01*
X103838000Y-82700000D01*
X108887000Y-82700000D01*
X108887007Y-82749311D01*
X108887007Y-82749318D01*
X108887009Y-82756390D01*
X108888583Y-82763282D01*
X108888584Y-82763289D01*
X108910546Y-82859445D01*
X108910547Y-82859450D01*
X108912121Y-82866338D01*
X108961063Y-82967945D01*
X109031382Y-83056118D01*
X109119555Y-83126437D01*
X109221162Y-83175379D01*
X109331110Y-83200491D01*
X109387399Y-83200498D01*
X109387400Y-83200499D01*
X109387399Y-83203582D01*
X109387401Y-83203582D01*
X109387401Y-83200500D01*
X122436815Y-83200500D01*
X122443893Y-83200500D01*
X122553851Y-83175403D01*
X122655467Y-83126467D01*
X122743646Y-83056146D01*
X122813967Y-82967967D01*
X122862903Y-82866351D01*
X122888000Y-82756393D01*
X122888000Y-82700000D01*
X127937000Y-82700000D01*
X127937007Y-82749311D01*
X127937007Y-82749318D01*
X127937009Y-82756390D01*
X127938583Y-82763282D01*
X127938584Y-82763289D01*
X127960546Y-82859445D01*
X127960547Y-82859450D01*
X127962121Y-82866338D01*
X128011063Y-82967945D01*
X128081382Y-83056118D01*
X128169555Y-83126437D01*
X128271162Y-83175379D01*
X128381110Y-83200491D01*
X128437399Y-83200498D01*
X128437400Y-83200499D01*
X128437399Y-83203582D01*
X128437401Y-83203582D01*
X128437401Y-83200500D01*
X141486815Y-83200500D01*
X141493893Y-83200500D01*
X141603851Y-83175403D01*
X141705467Y-83126467D01*
X141793646Y-83056146D01*
X141863967Y-82967967D01*
X141912903Y-82866351D01*
X141938000Y-82756393D01*
X141938000Y-82700000D01*
X146987000Y-82700000D01*
X146987007Y-82749311D01*
X146987007Y-82749318D01*
X146987009Y-82756390D01*
X146988583Y-82763282D01*
X146988584Y-82763289D01*
X147010546Y-82859445D01*
X147010547Y-82859450D01*
X147012121Y-82866338D01*
X147061063Y-82967945D01*
X147131382Y-83056118D01*
X147219555Y-83126437D01*
X147321162Y-83175379D01*
X147431110Y-83200491D01*
X147487399Y-83200498D01*
X147487400Y-83200499D01*
X147487399Y-83203582D01*
X147487401Y-83203582D01*
X147487401Y-83200500D01*
X160536815Y-83200500D01*
X160543893Y-83200500D01*
X160653851Y-83175403D01*
X160755467Y-83126467D01*
X160843646Y-83056146D01*
X160913967Y-82967967D01*
X160962903Y-82866351D01*
X160988000Y-82756393D01*
X160988000Y-82700000D01*
X166037000Y-82700000D01*
X166037007Y-82749311D01*
X166037007Y-82749318D01*
X166037009Y-82756390D01*
X166038583Y-82763282D01*
X166038584Y-82763289D01*
X166060546Y-82859445D01*
X166060547Y-82859450D01*
X166062121Y-82866338D01*
X166111063Y-82967945D01*
X166181382Y-83056118D01*
X166269555Y-83126437D01*
X166371162Y-83175379D01*
X166481110Y-83200491D01*
X166537399Y-83200498D01*
X166537400Y-83200499D01*
X166537399Y-83203582D01*
X166537401Y-83203582D01*
X166537401Y-83200500D01*
X179586815Y-83200500D01*
X179593893Y-83200500D01*
X179703851Y-83175403D01*
X179805467Y-83126467D01*
X179893646Y-83056146D01*
X179963967Y-82967967D01*
X180012903Y-82866351D01*
X180038000Y-82756393D01*
X180038000Y-82700000D01*
X185087000Y-82700000D01*
X185087007Y-82749311D01*
X185087007Y-82749318D01*
X185087009Y-82756390D01*
X185088583Y-82763282D01*
X185088584Y-82763289D01*
X185110546Y-82859445D01*
X185110547Y-82859450D01*
X185112121Y-82866338D01*
X185161063Y-82967945D01*
X185231382Y-83056118D01*
X185319555Y-83126437D01*
X185421162Y-83175379D01*
X185531110Y-83200491D01*
X185587399Y-83200498D01*
X185587400Y-83200499D01*
X185587399Y-83203582D01*
X185587401Y-83203582D01*
X185587401Y-83200500D01*
X198636815Y-83200500D01*
X198643893Y-83200500D01*
X198753851Y-83175403D01*
X198855467Y-83126467D01*
X198943646Y-83056146D01*
X199013967Y-82967967D01*
X199062903Y-82866351D01*
X199088000Y-82756393D01*
X199088000Y-82700000D01*
X204137000Y-82700000D01*
X204137007Y-82749311D01*
X204137007Y-82749318D01*
X204137009Y-82756390D01*
X204138583Y-82763282D01*
X204138584Y-82763289D01*
X204160546Y-82859445D01*
X204160547Y-82859450D01*
X204162121Y-82866338D01*
X204211063Y-82967945D01*
X204281382Y-83056118D01*
X204369555Y-83126437D01*
X204471162Y-83175379D01*
X204581110Y-83200491D01*
X204637399Y-83200498D01*
X204637400Y-83200499D01*
X204637399Y-83203582D01*
X204637401Y-83203582D01*
X204637401Y-83200500D01*
X217686815Y-83200500D01*
X217693893Y-83200500D01*
X217803851Y-83175403D01*
X217905467Y-83126467D01*
X217993646Y-83056146D01*
X218063967Y-82967967D01*
X218112903Y-82866351D01*
X218138000Y-82756393D01*
X218138000Y-82700000D01*
X230329500Y-82700000D01*
X230329507Y-82749311D01*
X230329507Y-82749318D01*
X230329509Y-82756390D01*
X230331083Y-82763282D01*
X230331084Y-82763289D01*
X230353046Y-82859445D01*
X230353047Y-82859450D01*
X230354621Y-82866338D01*
X230403563Y-82967945D01*
X230473882Y-83056118D01*
X230562055Y-83126437D01*
X230663662Y-83175379D01*
X230773610Y-83200491D01*
X230829899Y-83200498D01*
X230829900Y-83200499D01*
X230829899Y-83203582D01*
X230829901Y-83203582D01*
X230829901Y-83200500D01*
X243879315Y-83200500D01*
X243886393Y-83200500D01*
X243996351Y-83175403D01*
X244097967Y-83126467D01*
X244186146Y-83056146D01*
X244256467Y-82967967D01*
X244305403Y-82866351D01*
X244330500Y-82756393D01*
X244330500Y-82700000D01*
X244330500Y-82699500D01*
X244330500Y-69699901D01*
X244333582Y-69699901D01*
X244333582Y-69699899D01*
X244330499Y-69699900D01*
X244330491Y-69643610D01*
X244305379Y-69533662D01*
X244256437Y-69432055D01*
X244186118Y-69343882D01*
X244097945Y-69273563D01*
X244091570Y-69270492D01*
X244091568Y-69270491D01*
X244002709Y-69227690D01*
X244002710Y-69227690D01*
X243996338Y-69224621D01*
X243989450Y-69223047D01*
X243989445Y-69223046D01*
X243893289Y-69201084D01*
X243893282Y-69201083D01*
X243886390Y-69199509D01*
X243879318Y-69199507D01*
X243879311Y-69199507D01*
X243830099Y-69199500D01*
X230830500Y-69199500D01*
X230830000Y-69199500D01*
X230773607Y-69199500D01*
X230766715Y-69201072D01*
X230766706Y-69201074D01*
X230670550Y-69223021D01*
X230670542Y-69223023D01*
X230663649Y-69224597D01*
X230657279Y-69227664D01*
X230657272Y-69227667D01*
X230568405Y-69270464D01*
X230568402Y-69270465D01*
X230562033Y-69273533D01*
X230556504Y-69277941D01*
X230556501Y-69277944D01*
X230479384Y-69339443D01*
X230479379Y-69339447D01*
X230473854Y-69343854D01*
X230469447Y-69349379D01*
X230469443Y-69349384D01*
X230407944Y-69426501D01*
X230407941Y-69426504D01*
X230403533Y-69432033D01*
X230400465Y-69438402D01*
X230400464Y-69438405D01*
X230357667Y-69527272D01*
X230357664Y-69527279D01*
X230354597Y-69533649D01*
X230353023Y-69540542D01*
X230353021Y-69540550D01*
X230331074Y-69636706D01*
X230331072Y-69636715D01*
X230329500Y-69643607D01*
X230329500Y-69650685D01*
X230329500Y-82700000D01*
X218138000Y-82700000D01*
X218138000Y-82699500D01*
X218138000Y-76200000D01*
X219057051Y-76200000D01*
X219057439Y-76204930D01*
X219076428Y-76446214D01*
X219076429Y-76446222D01*
X219076817Y-76451148D01*
X219077971Y-76455956D01*
X219077972Y-76455960D01*
X219134471Y-76691298D01*
X219134472Y-76691303D01*
X219135627Y-76696111D01*
X219232034Y-76928859D01*
X219363664Y-77143659D01*
X219527276Y-77335224D01*
X219718841Y-77498836D01*
X219933641Y-77630466D01*
X220166389Y-77726873D01*
X220411352Y-77785683D01*
X220599618Y-77800500D01*
X220722913Y-77800500D01*
X220725382Y-77800500D01*
X220913648Y-77785683D01*
X221158611Y-77726873D01*
X221391359Y-77630466D01*
X221606159Y-77498836D01*
X221797724Y-77335224D01*
X221961336Y-77143659D01*
X222092966Y-76928859D01*
X222189373Y-76696111D01*
X222248183Y-76451148D01*
X222267949Y-76200000D01*
X222248183Y-75948852D01*
X222189373Y-75703889D01*
X222092966Y-75471141D01*
X221961336Y-75256341D01*
X221797724Y-75064776D01*
X221606159Y-74901164D01*
X221391359Y-74769534D01*
X221158611Y-74673127D01*
X221153803Y-74671972D01*
X221153798Y-74671971D01*
X220918460Y-74615472D01*
X220918456Y-74615471D01*
X220913648Y-74614317D01*
X220908722Y-74613929D01*
X220908714Y-74613928D01*
X220727838Y-74599693D01*
X220727830Y-74599692D01*
X220725382Y-74599500D01*
X220599618Y-74599500D01*
X220597170Y-74599692D01*
X220597161Y-74599693D01*
X220416285Y-74613928D01*
X220416275Y-74613929D01*
X220411352Y-74614317D01*
X220406545Y-74615471D01*
X220406539Y-74615472D01*
X220171201Y-74671971D01*
X220171192Y-74671973D01*
X220166389Y-74673127D01*
X220161821Y-74675018D01*
X220161815Y-74675021D01*
X219938215Y-74767639D01*
X219938210Y-74767641D01*
X219933641Y-74769534D01*
X219929426Y-74772116D01*
X219929420Y-74772120D01*
X219723058Y-74898579D01*
X219723050Y-74898584D01*
X219718841Y-74901164D01*
X219715080Y-74904375D01*
X219715076Y-74904379D01*
X219531038Y-75061562D01*
X219531031Y-75061568D01*
X219527276Y-75064776D01*
X219524068Y-75068531D01*
X219524062Y-75068538D01*
X219366879Y-75252576D01*
X219366875Y-75252580D01*
X219363664Y-75256341D01*
X219361084Y-75260550D01*
X219361079Y-75260558D01*
X219234620Y-75466920D01*
X219234616Y-75466926D01*
X219232034Y-75471141D01*
X219230141Y-75475710D01*
X219230139Y-75475715D01*
X219137521Y-75699315D01*
X219137518Y-75699321D01*
X219135627Y-75703889D01*
X219134473Y-75708692D01*
X219134471Y-75708701D01*
X219077972Y-75944039D01*
X219076817Y-75948852D01*
X219076429Y-75953775D01*
X219076428Y-75953785D01*
X219057439Y-76195070D01*
X219057051Y-76200000D01*
X218138000Y-76200000D01*
X218138000Y-69699901D01*
X218141082Y-69699901D01*
X218141082Y-69699899D01*
X218137999Y-69699900D01*
X218137991Y-69643610D01*
X218112879Y-69533662D01*
X218063937Y-69432055D01*
X217993618Y-69343882D01*
X217905445Y-69273563D01*
X217899070Y-69270492D01*
X217899068Y-69270491D01*
X217810209Y-69227690D01*
X217810210Y-69227690D01*
X217803838Y-69224621D01*
X217796950Y-69223047D01*
X217796945Y-69223046D01*
X217700789Y-69201084D01*
X217700782Y-69201083D01*
X217693890Y-69199509D01*
X217686818Y-69199507D01*
X217686811Y-69199507D01*
X217637599Y-69199500D01*
X204638000Y-69199500D01*
X204637500Y-69199500D01*
X204581107Y-69199500D01*
X204574215Y-69201072D01*
X204574206Y-69201074D01*
X204478050Y-69223021D01*
X204478042Y-69223023D01*
X204471149Y-69224597D01*
X204464779Y-69227664D01*
X204464772Y-69227667D01*
X204375905Y-69270464D01*
X204375902Y-69270465D01*
X204369533Y-69273533D01*
X204364004Y-69277941D01*
X204364001Y-69277944D01*
X204286884Y-69339443D01*
X204286879Y-69339447D01*
X204281354Y-69343854D01*
X204276947Y-69349379D01*
X204276943Y-69349384D01*
X204215444Y-69426501D01*
X204215441Y-69426504D01*
X204211033Y-69432033D01*
X204207965Y-69438402D01*
X204207964Y-69438405D01*
X204165167Y-69527272D01*
X204165164Y-69527279D01*
X204162097Y-69533649D01*
X204160523Y-69540542D01*
X204160521Y-69540550D01*
X204138574Y-69636706D01*
X204138572Y-69636715D01*
X204137000Y-69643607D01*
X204137000Y-69650685D01*
X204137000Y-82700000D01*
X199088000Y-82700000D01*
X199088000Y-82699500D01*
X199088000Y-69699901D01*
X199091082Y-69699901D01*
X199091082Y-69699899D01*
X199087999Y-69699900D01*
X199087991Y-69643610D01*
X199062879Y-69533662D01*
X199013937Y-69432055D01*
X198943618Y-69343882D01*
X198855445Y-69273563D01*
X198849070Y-69270492D01*
X198849068Y-69270491D01*
X198760209Y-69227690D01*
X198760210Y-69227690D01*
X198753838Y-69224621D01*
X198746950Y-69223047D01*
X198746945Y-69223046D01*
X198650789Y-69201084D01*
X198650782Y-69201083D01*
X198643890Y-69199509D01*
X198636818Y-69199507D01*
X198636811Y-69199507D01*
X198587599Y-69199500D01*
X185588000Y-69199500D01*
X185587500Y-69199500D01*
X185531107Y-69199500D01*
X185524215Y-69201072D01*
X185524206Y-69201074D01*
X185428050Y-69223021D01*
X185428042Y-69223023D01*
X185421149Y-69224597D01*
X185414779Y-69227664D01*
X185414772Y-69227667D01*
X185325905Y-69270464D01*
X185325902Y-69270465D01*
X185319533Y-69273533D01*
X185314004Y-69277941D01*
X185314001Y-69277944D01*
X185236884Y-69339443D01*
X185236879Y-69339447D01*
X185231354Y-69343854D01*
X185226947Y-69349379D01*
X185226943Y-69349384D01*
X185165444Y-69426501D01*
X185165441Y-69426504D01*
X185161033Y-69432033D01*
X185157965Y-69438402D01*
X185157964Y-69438405D01*
X185115167Y-69527272D01*
X185115164Y-69527279D01*
X185112097Y-69533649D01*
X185110523Y-69540542D01*
X185110521Y-69540550D01*
X185088574Y-69636706D01*
X185088572Y-69636715D01*
X185087000Y-69643607D01*
X185087000Y-69650685D01*
X185087000Y-82700000D01*
X180038000Y-82700000D01*
X180038000Y-82699500D01*
X180038000Y-76200000D01*
X180957051Y-76200000D01*
X180957439Y-76204930D01*
X180976428Y-76446214D01*
X180976429Y-76446222D01*
X180976817Y-76451148D01*
X180977971Y-76455956D01*
X180977972Y-76455960D01*
X181034471Y-76691298D01*
X181034472Y-76691303D01*
X181035627Y-76696111D01*
X181132034Y-76928859D01*
X181263664Y-77143659D01*
X181427276Y-77335224D01*
X181618841Y-77498836D01*
X181833641Y-77630466D01*
X182066389Y-77726873D01*
X182311352Y-77785683D01*
X182499618Y-77800500D01*
X182622913Y-77800500D01*
X182625382Y-77800500D01*
X182813648Y-77785683D01*
X183058611Y-77726873D01*
X183291359Y-77630466D01*
X183506159Y-77498836D01*
X183697724Y-77335224D01*
X183861336Y-77143659D01*
X183992966Y-76928859D01*
X184089373Y-76696111D01*
X184148183Y-76451148D01*
X184167949Y-76200000D01*
X184148183Y-75948852D01*
X184089373Y-75703889D01*
X183992966Y-75471141D01*
X183861336Y-75256341D01*
X183697724Y-75064776D01*
X183506159Y-74901164D01*
X183291359Y-74769534D01*
X183058611Y-74673127D01*
X183053803Y-74671972D01*
X183053798Y-74671971D01*
X182818460Y-74615472D01*
X182818456Y-74615471D01*
X182813648Y-74614317D01*
X182808722Y-74613929D01*
X182808714Y-74613928D01*
X182627838Y-74599693D01*
X182627830Y-74599692D01*
X182625382Y-74599500D01*
X182499618Y-74599500D01*
X182497170Y-74599692D01*
X182497161Y-74599693D01*
X182316285Y-74613928D01*
X182316275Y-74613929D01*
X182311352Y-74614317D01*
X182306545Y-74615471D01*
X182306539Y-74615472D01*
X182071201Y-74671971D01*
X182071192Y-74671973D01*
X182066389Y-74673127D01*
X182061821Y-74675018D01*
X182061815Y-74675021D01*
X181838215Y-74767639D01*
X181838210Y-74767641D01*
X181833641Y-74769534D01*
X181829426Y-74772116D01*
X181829420Y-74772120D01*
X181623058Y-74898579D01*
X181623050Y-74898584D01*
X181618841Y-74901164D01*
X181615080Y-74904375D01*
X181615076Y-74904379D01*
X181431038Y-75061562D01*
X181431031Y-75061568D01*
X181427276Y-75064776D01*
X181424068Y-75068531D01*
X181424062Y-75068538D01*
X181266879Y-75252576D01*
X181266875Y-75252580D01*
X181263664Y-75256341D01*
X181261084Y-75260550D01*
X181261079Y-75260558D01*
X181134620Y-75466920D01*
X181134616Y-75466926D01*
X181132034Y-75471141D01*
X181130141Y-75475710D01*
X181130139Y-75475715D01*
X181037521Y-75699315D01*
X181037518Y-75699321D01*
X181035627Y-75703889D01*
X181034473Y-75708692D01*
X181034471Y-75708701D01*
X180977972Y-75944039D01*
X180976817Y-75948852D01*
X180976429Y-75953775D01*
X180976428Y-75953785D01*
X180957439Y-76195070D01*
X180957051Y-76200000D01*
X180038000Y-76200000D01*
X180038000Y-69699901D01*
X180041082Y-69699901D01*
X180041082Y-69699899D01*
X180037999Y-69699900D01*
X180037991Y-69643610D01*
X180012879Y-69533662D01*
X179963937Y-69432055D01*
X179893618Y-69343882D01*
X179805445Y-69273563D01*
X179799070Y-69270492D01*
X179799068Y-69270491D01*
X179710209Y-69227690D01*
X179710210Y-69227690D01*
X179703838Y-69224621D01*
X179696950Y-69223047D01*
X179696945Y-69223046D01*
X179600789Y-69201084D01*
X179600782Y-69201083D01*
X179593890Y-69199509D01*
X179586818Y-69199507D01*
X179586811Y-69199507D01*
X179537599Y-69199500D01*
X166538000Y-69199500D01*
X166537500Y-69199500D01*
X166481107Y-69199500D01*
X166474215Y-69201072D01*
X166474206Y-69201074D01*
X166378050Y-69223021D01*
X166378042Y-69223023D01*
X166371149Y-69224597D01*
X166364779Y-69227664D01*
X166364772Y-69227667D01*
X166275905Y-69270464D01*
X166275902Y-69270465D01*
X166269533Y-69273533D01*
X166264004Y-69277941D01*
X166264001Y-69277944D01*
X166186884Y-69339443D01*
X166186879Y-69339447D01*
X166181354Y-69343854D01*
X166176947Y-69349379D01*
X166176943Y-69349384D01*
X166115444Y-69426501D01*
X166115441Y-69426504D01*
X166111033Y-69432033D01*
X166107965Y-69438402D01*
X166107964Y-69438405D01*
X166065167Y-69527272D01*
X166065164Y-69527279D01*
X166062097Y-69533649D01*
X166060523Y-69540542D01*
X166060521Y-69540550D01*
X166038574Y-69636706D01*
X166038572Y-69636715D01*
X166037000Y-69643607D01*
X166037000Y-69650685D01*
X166037000Y-82700000D01*
X160988000Y-82700000D01*
X160988000Y-82699500D01*
X160988000Y-69699901D01*
X160991082Y-69699901D01*
X160991082Y-69699899D01*
X160987999Y-69699900D01*
X160987991Y-69643610D01*
X160962879Y-69533662D01*
X160913937Y-69432055D01*
X160843618Y-69343882D01*
X160755445Y-69273563D01*
X160749070Y-69270492D01*
X160749068Y-69270491D01*
X160660209Y-69227690D01*
X160660210Y-69227690D01*
X160653838Y-69224621D01*
X160646950Y-69223047D01*
X160646945Y-69223046D01*
X160550789Y-69201084D01*
X160550782Y-69201083D01*
X160543890Y-69199509D01*
X160536818Y-69199507D01*
X160536811Y-69199507D01*
X160487599Y-69199500D01*
X147488000Y-69199500D01*
X147487500Y-69199500D01*
X147431107Y-69199500D01*
X147424215Y-69201072D01*
X147424206Y-69201074D01*
X147328050Y-69223021D01*
X147328042Y-69223023D01*
X147321149Y-69224597D01*
X147314779Y-69227664D01*
X147314772Y-69227667D01*
X147225905Y-69270464D01*
X147225902Y-69270465D01*
X147219533Y-69273533D01*
X147214004Y-69277941D01*
X147214001Y-69277944D01*
X147136884Y-69339443D01*
X147136879Y-69339447D01*
X147131354Y-69343854D01*
X147126947Y-69349379D01*
X147126943Y-69349384D01*
X147065444Y-69426501D01*
X147065441Y-69426504D01*
X147061033Y-69432033D01*
X147057965Y-69438402D01*
X147057964Y-69438405D01*
X147015167Y-69527272D01*
X147015164Y-69527279D01*
X147012097Y-69533649D01*
X147010523Y-69540542D01*
X147010521Y-69540550D01*
X146988574Y-69636706D01*
X146988572Y-69636715D01*
X146987000Y-69643607D01*
X146987000Y-69650685D01*
X146987000Y-82700000D01*
X141938000Y-82700000D01*
X141938000Y-82699500D01*
X141938000Y-69699901D01*
X141941082Y-69699901D01*
X141941082Y-69699899D01*
X141937999Y-69699900D01*
X141937991Y-69643610D01*
X141912879Y-69533662D01*
X141863937Y-69432055D01*
X141793618Y-69343882D01*
X141705445Y-69273563D01*
X141699070Y-69270492D01*
X141699068Y-69270491D01*
X141610209Y-69227690D01*
X141610210Y-69227690D01*
X141603838Y-69224621D01*
X141596950Y-69223047D01*
X141596945Y-69223046D01*
X141500789Y-69201084D01*
X141500782Y-69201083D01*
X141493890Y-69199509D01*
X141486818Y-69199507D01*
X141486811Y-69199507D01*
X141437599Y-69199500D01*
X128438000Y-69199500D01*
X128437500Y-69199500D01*
X128381107Y-69199500D01*
X128374215Y-69201072D01*
X128374206Y-69201074D01*
X128278050Y-69223021D01*
X128278042Y-69223023D01*
X128271149Y-69224597D01*
X128264779Y-69227664D01*
X128264772Y-69227667D01*
X128175905Y-69270464D01*
X128175902Y-69270465D01*
X128169533Y-69273533D01*
X128164004Y-69277941D01*
X128164001Y-69277944D01*
X128086884Y-69339443D01*
X128086879Y-69339447D01*
X128081354Y-69343854D01*
X128076947Y-69349379D01*
X128076943Y-69349384D01*
X128015444Y-69426501D01*
X128015441Y-69426504D01*
X128011033Y-69432033D01*
X128007965Y-69438402D01*
X128007964Y-69438405D01*
X127965167Y-69527272D01*
X127965164Y-69527279D01*
X127962097Y-69533649D01*
X127960523Y-69540542D01*
X127960521Y-69540550D01*
X127938574Y-69636706D01*
X127938572Y-69636715D01*
X127937000Y-69643607D01*
X127937000Y-69650685D01*
X127937000Y-82700000D01*
X122888000Y-82700000D01*
X122888000Y-82699500D01*
X122888000Y-76200000D01*
X123807051Y-76200000D01*
X123807439Y-76204930D01*
X123826428Y-76446214D01*
X123826429Y-76446222D01*
X123826817Y-76451148D01*
X123827971Y-76455956D01*
X123827972Y-76455960D01*
X123884471Y-76691298D01*
X123884472Y-76691303D01*
X123885627Y-76696111D01*
X123982034Y-76928859D01*
X124113664Y-77143659D01*
X124277276Y-77335224D01*
X124468841Y-77498836D01*
X124683641Y-77630466D01*
X124916389Y-77726873D01*
X125161352Y-77785683D01*
X125349618Y-77800500D01*
X125472913Y-77800500D01*
X125475382Y-77800500D01*
X125663648Y-77785683D01*
X125908611Y-77726873D01*
X126141359Y-77630466D01*
X126356159Y-77498836D01*
X126547724Y-77335224D01*
X126711336Y-77143659D01*
X126842966Y-76928859D01*
X126939373Y-76696111D01*
X126998183Y-76451148D01*
X127017949Y-76200000D01*
X126998183Y-75948852D01*
X126939373Y-75703889D01*
X126842966Y-75471141D01*
X126711336Y-75256341D01*
X126547724Y-75064776D01*
X126356159Y-74901164D01*
X126141359Y-74769534D01*
X125908611Y-74673127D01*
X125903803Y-74671972D01*
X125903798Y-74671971D01*
X125668460Y-74615472D01*
X125668456Y-74615471D01*
X125663648Y-74614317D01*
X125658722Y-74613929D01*
X125658714Y-74613928D01*
X125477838Y-74599693D01*
X125477830Y-74599692D01*
X125475382Y-74599500D01*
X125349618Y-74599500D01*
X125347170Y-74599692D01*
X125347161Y-74599693D01*
X125166285Y-74613928D01*
X125166275Y-74613929D01*
X125161352Y-74614317D01*
X125156545Y-74615471D01*
X125156539Y-74615472D01*
X124921201Y-74671971D01*
X124921192Y-74671973D01*
X124916389Y-74673127D01*
X124911821Y-74675018D01*
X124911815Y-74675021D01*
X124688215Y-74767639D01*
X124688210Y-74767641D01*
X124683641Y-74769534D01*
X124679426Y-74772116D01*
X124679420Y-74772120D01*
X124473058Y-74898579D01*
X124473050Y-74898584D01*
X124468841Y-74901164D01*
X124465080Y-74904375D01*
X124465076Y-74904379D01*
X124281038Y-75061562D01*
X124281031Y-75061568D01*
X124277276Y-75064776D01*
X124274068Y-75068531D01*
X124274062Y-75068538D01*
X124116879Y-75252576D01*
X124116875Y-75252580D01*
X124113664Y-75256341D01*
X124111084Y-75260550D01*
X124111079Y-75260558D01*
X123984620Y-75466920D01*
X123984616Y-75466926D01*
X123982034Y-75471141D01*
X123980141Y-75475710D01*
X123980139Y-75475715D01*
X123887521Y-75699315D01*
X123887518Y-75699321D01*
X123885627Y-75703889D01*
X123884473Y-75708692D01*
X123884471Y-75708701D01*
X123827972Y-75944039D01*
X123826817Y-75948852D01*
X123826429Y-75953775D01*
X123826428Y-75953785D01*
X123807439Y-76195070D01*
X123807051Y-76200000D01*
X122888000Y-76200000D01*
X122888000Y-69699901D01*
X122891082Y-69699901D01*
X122891082Y-69699899D01*
X122887999Y-69699900D01*
X122887991Y-69643610D01*
X122862879Y-69533662D01*
X122813937Y-69432055D01*
X122743618Y-69343882D01*
X122655445Y-69273563D01*
X122649070Y-69270492D01*
X122649068Y-69270491D01*
X122560209Y-69227690D01*
X122560210Y-69227690D01*
X122553838Y-69224621D01*
X122546950Y-69223047D01*
X122546945Y-69223046D01*
X122450789Y-69201084D01*
X122450782Y-69201083D01*
X122443890Y-69199509D01*
X122436818Y-69199507D01*
X122436811Y-69199507D01*
X122387599Y-69199500D01*
X109388000Y-69199500D01*
X109387500Y-69199500D01*
X109331107Y-69199500D01*
X109324215Y-69201072D01*
X109324206Y-69201074D01*
X109228050Y-69223021D01*
X109228042Y-69223023D01*
X109221149Y-69224597D01*
X109214779Y-69227664D01*
X109214772Y-69227667D01*
X109125905Y-69270464D01*
X109125902Y-69270465D01*
X109119533Y-69273533D01*
X109114004Y-69277941D01*
X109114001Y-69277944D01*
X109036884Y-69339443D01*
X109036879Y-69339447D01*
X109031354Y-69343854D01*
X109026947Y-69349379D01*
X109026943Y-69349384D01*
X108965444Y-69426501D01*
X108965441Y-69426504D01*
X108961033Y-69432033D01*
X108957965Y-69438402D01*
X108957964Y-69438405D01*
X108915167Y-69527272D01*
X108915164Y-69527279D01*
X108912097Y-69533649D01*
X108910523Y-69540542D01*
X108910521Y-69540550D01*
X108888574Y-69636706D01*
X108888572Y-69636715D01*
X108887000Y-69643607D01*
X108887000Y-69650685D01*
X108887000Y-82700000D01*
X103838000Y-82700000D01*
X103838000Y-82699500D01*
X103838000Y-69699901D01*
X103841082Y-69699901D01*
X103841082Y-69699899D01*
X103837999Y-69699900D01*
X103837991Y-69643610D01*
X103812879Y-69533662D01*
X103763937Y-69432055D01*
X103693618Y-69343882D01*
X103605445Y-69273563D01*
X103599070Y-69270492D01*
X103599068Y-69270491D01*
X103510209Y-69227690D01*
X103510210Y-69227690D01*
X103503838Y-69224621D01*
X103496950Y-69223047D01*
X103496945Y-69223046D01*
X103400789Y-69201084D01*
X103400782Y-69201083D01*
X103393890Y-69199509D01*
X103386818Y-69199507D01*
X103386811Y-69199507D01*
X103337599Y-69199500D01*
X90338000Y-69199500D01*
X90337500Y-69199500D01*
X90281107Y-69199500D01*
X90274215Y-69201072D01*
X90274206Y-69201074D01*
X90178050Y-69223021D01*
X90178042Y-69223023D01*
X90171149Y-69224597D01*
X90164779Y-69227664D01*
X90164772Y-69227667D01*
X90075905Y-69270464D01*
X90075902Y-69270465D01*
X90069533Y-69273533D01*
X90064004Y-69277941D01*
X90064001Y-69277944D01*
X89986884Y-69339443D01*
X89986879Y-69339447D01*
X89981354Y-69343854D01*
X89976947Y-69349379D01*
X89976943Y-69349384D01*
X89915444Y-69426501D01*
X89915441Y-69426504D01*
X89911033Y-69432033D01*
X89907965Y-69438402D01*
X89907964Y-69438405D01*
X89865167Y-69527272D01*
X89865164Y-69527279D01*
X89862097Y-69533649D01*
X89860523Y-69540542D01*
X89860521Y-69540550D01*
X89838574Y-69636706D01*
X89838572Y-69636715D01*
X89837000Y-69643607D01*
X89837000Y-69650685D01*
X89837000Y-82700000D01*
X84788000Y-82700000D01*
X84788000Y-82699500D01*
X84788000Y-76200000D01*
X85707051Y-76200000D01*
X85707439Y-76204930D01*
X85726428Y-76446214D01*
X85726429Y-76446222D01*
X85726817Y-76451148D01*
X85727971Y-76455956D01*
X85727972Y-76455960D01*
X85784471Y-76691298D01*
X85784472Y-76691303D01*
X85785627Y-76696111D01*
X85882034Y-76928859D01*
X86013664Y-77143659D01*
X86177276Y-77335224D01*
X86368841Y-77498836D01*
X86583641Y-77630466D01*
X86816389Y-77726873D01*
X87061352Y-77785683D01*
X87249618Y-77800500D01*
X87372913Y-77800500D01*
X87375382Y-77800500D01*
X87563648Y-77785683D01*
X87808611Y-77726873D01*
X88041359Y-77630466D01*
X88256159Y-77498836D01*
X88447724Y-77335224D01*
X88611336Y-77143659D01*
X88742966Y-76928859D01*
X88839373Y-76696111D01*
X88898183Y-76451148D01*
X88917949Y-76200000D01*
X88898183Y-75948852D01*
X88839373Y-75703889D01*
X88742966Y-75471141D01*
X88611336Y-75256341D01*
X88447724Y-75064776D01*
X88256159Y-74901164D01*
X88041359Y-74769534D01*
X87808611Y-74673127D01*
X87803803Y-74671972D01*
X87803798Y-74671971D01*
X87568460Y-74615472D01*
X87568456Y-74615471D01*
X87563648Y-74614317D01*
X87558722Y-74613929D01*
X87558714Y-74613928D01*
X87377838Y-74599693D01*
X87377830Y-74599692D01*
X87375382Y-74599500D01*
X87249618Y-74599500D01*
X87247170Y-74599692D01*
X87247161Y-74599693D01*
X87066285Y-74613928D01*
X87066275Y-74613929D01*
X87061352Y-74614317D01*
X87056545Y-74615471D01*
X87056539Y-74615472D01*
X86821201Y-74671971D01*
X86821192Y-74671973D01*
X86816389Y-74673127D01*
X86811821Y-74675018D01*
X86811815Y-74675021D01*
X86588215Y-74767639D01*
X86588210Y-74767641D01*
X86583641Y-74769534D01*
X86579426Y-74772116D01*
X86579420Y-74772120D01*
X86373058Y-74898579D01*
X86373050Y-74898584D01*
X86368841Y-74901164D01*
X86365080Y-74904375D01*
X86365076Y-74904379D01*
X86181038Y-75061562D01*
X86181031Y-75061568D01*
X86177276Y-75064776D01*
X86174068Y-75068531D01*
X86174062Y-75068538D01*
X86016879Y-75252576D01*
X86016875Y-75252580D01*
X86013664Y-75256341D01*
X86011084Y-75260550D01*
X86011079Y-75260558D01*
X85884620Y-75466920D01*
X85884616Y-75466926D01*
X85882034Y-75471141D01*
X85880141Y-75475710D01*
X85880139Y-75475715D01*
X85787521Y-75699315D01*
X85787518Y-75699321D01*
X85785627Y-75703889D01*
X85784473Y-75708692D01*
X85784471Y-75708701D01*
X85727972Y-75944039D01*
X85726817Y-75948852D01*
X85726429Y-75953775D01*
X85726428Y-75953785D01*
X85707439Y-76195070D01*
X85707051Y-76200000D01*
X84788000Y-76200000D01*
X84788000Y-69699901D01*
X84791082Y-69699901D01*
X84791082Y-69699899D01*
X84787999Y-69699900D01*
X84787991Y-69643610D01*
X84762879Y-69533662D01*
X84713937Y-69432055D01*
X84643618Y-69343882D01*
X84555445Y-69273563D01*
X84549070Y-69270492D01*
X84549068Y-69270491D01*
X84460209Y-69227690D01*
X84460210Y-69227690D01*
X84453838Y-69224621D01*
X84446950Y-69223047D01*
X84446945Y-69223046D01*
X84350789Y-69201084D01*
X84350782Y-69201083D01*
X84343890Y-69199509D01*
X84336818Y-69199507D01*
X84336811Y-69199507D01*
X84287599Y-69199500D01*
X71288000Y-69199500D01*
X71287500Y-69199500D01*
X71231107Y-69199500D01*
X71224215Y-69201072D01*
X71224206Y-69201074D01*
X71128050Y-69223021D01*
X71128042Y-69223023D01*
X71121149Y-69224597D01*
X71114779Y-69227664D01*
X71114772Y-69227667D01*
X71025905Y-69270464D01*
X71025902Y-69270465D01*
X71019533Y-69273533D01*
X71014004Y-69277941D01*
X71014001Y-69277944D01*
X70936884Y-69339443D01*
X70936879Y-69339447D01*
X70931354Y-69343854D01*
X70926947Y-69349379D01*
X70926943Y-69349384D01*
X70865444Y-69426501D01*
X70865441Y-69426504D01*
X70861033Y-69432033D01*
X70857965Y-69438402D01*
X70857964Y-69438405D01*
X70815167Y-69527272D01*
X70815164Y-69527279D01*
X70812097Y-69533649D01*
X70810523Y-69540542D01*
X70810521Y-69540550D01*
X70788574Y-69636706D01*
X70788572Y-69636715D01*
X70787000Y-69643607D01*
X70787000Y-69650685D01*
X70787000Y-82700000D01*
X63358500Y-82700000D01*
X63358500Y-82699500D01*
X63358500Y-69699901D01*
X63361582Y-69699901D01*
X63361582Y-69699899D01*
X63358499Y-69699900D01*
X63358491Y-69643610D01*
X63333379Y-69533662D01*
X63284437Y-69432055D01*
X63214118Y-69343882D01*
X63125945Y-69273563D01*
X63119570Y-69270492D01*
X63119568Y-69270491D01*
X63030709Y-69227690D01*
X63030710Y-69227690D01*
X63024338Y-69224621D01*
X63017450Y-69223047D01*
X63017445Y-69223046D01*
X62921289Y-69201084D01*
X62921282Y-69201083D01*
X62914390Y-69199509D01*
X62907318Y-69199507D01*
X62907311Y-69199507D01*
X62858099Y-69199500D01*
X49858500Y-69199500D01*
X49858000Y-69199500D01*
X49801607Y-69199500D01*
X49794715Y-69201072D01*
X49794706Y-69201074D01*
X49698550Y-69223021D01*
X49698542Y-69223023D01*
X49691649Y-69224597D01*
X49685279Y-69227664D01*
X49685272Y-69227667D01*
X49596405Y-69270464D01*
X49596402Y-69270465D01*
X49590033Y-69273533D01*
X49584504Y-69277941D01*
X49584501Y-69277944D01*
X49507384Y-69339443D01*
X49507379Y-69339447D01*
X49501854Y-69343854D01*
X49497447Y-69349379D01*
X49497443Y-69349384D01*
X49435944Y-69426501D01*
X49435941Y-69426504D01*
X49431533Y-69432033D01*
X49428465Y-69438402D01*
X49428464Y-69438405D01*
X49385667Y-69527272D01*
X49385664Y-69527279D01*
X49382597Y-69533649D01*
X49381023Y-69540542D01*
X49381021Y-69540550D01*
X49359074Y-69636706D01*
X49359072Y-69636715D01*
X49357500Y-69643607D01*
X49357500Y-69650685D01*
X49357500Y-82700000D01*
X43875500Y-82700000D01*
X43875500Y-63650000D01*
X46974500Y-63650000D01*
X46974507Y-63699311D01*
X46974507Y-63699318D01*
X46974509Y-63706390D01*
X46976083Y-63713282D01*
X46976084Y-63713289D01*
X46998046Y-63809445D01*
X46998047Y-63809450D01*
X46999621Y-63816338D01*
X47048563Y-63917945D01*
X47118882Y-64006118D01*
X47207055Y-64076437D01*
X47308662Y-64125379D01*
X47418610Y-64150491D01*
X47474900Y-64150499D01*
X47474899Y-64153582D01*
X47474901Y-64153582D01*
X47474901Y-64150500D01*
X60524315Y-64150500D01*
X60531393Y-64150500D01*
X60641351Y-64125403D01*
X60742967Y-64076467D01*
X60831146Y-64006146D01*
X60901467Y-63917967D01*
X60950403Y-63816351D01*
X60975500Y-63706393D01*
X60975500Y-63650000D01*
X66024500Y-63650000D01*
X66024507Y-63699311D01*
X66024507Y-63699318D01*
X66024509Y-63706390D01*
X66026083Y-63713282D01*
X66026084Y-63713289D01*
X66048046Y-63809445D01*
X66048047Y-63809450D01*
X66049621Y-63816338D01*
X66098563Y-63917945D01*
X66168882Y-64006118D01*
X66257055Y-64076437D01*
X66358662Y-64125379D01*
X66468610Y-64150491D01*
X66524900Y-64150499D01*
X66524899Y-64153582D01*
X66524901Y-64153582D01*
X66524901Y-64150500D01*
X79574315Y-64150500D01*
X79581393Y-64150500D01*
X79691351Y-64125403D01*
X79792967Y-64076467D01*
X79881146Y-64006146D01*
X79951467Y-63917967D01*
X80000403Y-63816351D01*
X80025500Y-63706393D01*
X80025500Y-63650000D01*
X85074500Y-63650000D01*
X85074507Y-63699311D01*
X85074507Y-63699318D01*
X85074509Y-63706390D01*
X85076083Y-63713282D01*
X85076084Y-63713289D01*
X85098046Y-63809445D01*
X85098047Y-63809450D01*
X85099621Y-63816338D01*
X85148563Y-63917945D01*
X85218882Y-64006118D01*
X85307055Y-64076437D01*
X85408662Y-64125379D01*
X85518610Y-64150491D01*
X85574900Y-64150499D01*
X85574899Y-64153582D01*
X85574901Y-64153582D01*
X85574901Y-64150500D01*
X98624315Y-64150500D01*
X98631393Y-64150500D01*
X98741351Y-64125403D01*
X98842967Y-64076467D01*
X98931146Y-64006146D01*
X99001467Y-63917967D01*
X99050403Y-63816351D01*
X99075500Y-63706393D01*
X99075500Y-63650000D01*
X104124500Y-63650000D01*
X104124507Y-63699311D01*
X104124507Y-63699318D01*
X104124509Y-63706390D01*
X104126083Y-63713282D01*
X104126084Y-63713289D01*
X104148046Y-63809445D01*
X104148047Y-63809450D01*
X104149621Y-63816338D01*
X104198563Y-63917945D01*
X104268882Y-64006118D01*
X104357055Y-64076437D01*
X104458662Y-64125379D01*
X104568610Y-64150491D01*
X104624900Y-64150499D01*
X104624899Y-64153582D01*
X104624901Y-64153582D01*
X104624901Y-64150500D01*
X117674315Y-64150500D01*
X117681393Y-64150500D01*
X117791351Y-64125403D01*
X117892967Y-64076467D01*
X117981146Y-64006146D01*
X118051467Y-63917967D01*
X118100403Y-63816351D01*
X118125500Y-63706393D01*
X118125500Y-63650000D01*
X123174500Y-63650000D01*
X123174507Y-63699311D01*
X123174507Y-63699318D01*
X123174509Y-63706390D01*
X123176083Y-63713282D01*
X123176084Y-63713289D01*
X123198046Y-63809445D01*
X123198047Y-63809450D01*
X123199621Y-63816338D01*
X123248563Y-63917945D01*
X123318882Y-64006118D01*
X123407055Y-64076437D01*
X123508662Y-64125379D01*
X123618610Y-64150491D01*
X123674900Y-64150499D01*
X123674899Y-64153582D01*
X123674901Y-64153582D01*
X123674901Y-64150500D01*
X136724315Y-64150500D01*
X136731393Y-64150500D01*
X136841351Y-64125403D01*
X136942967Y-64076467D01*
X137031146Y-64006146D01*
X137101467Y-63917967D01*
X137150403Y-63816351D01*
X137175500Y-63706393D01*
X137175500Y-63650000D01*
X142224500Y-63650000D01*
X142224507Y-63699311D01*
X142224507Y-63699318D01*
X142224509Y-63706390D01*
X142226083Y-63713282D01*
X142226084Y-63713289D01*
X142248046Y-63809445D01*
X142248047Y-63809450D01*
X142249621Y-63816338D01*
X142298563Y-63917945D01*
X142368882Y-64006118D01*
X142457055Y-64076437D01*
X142558662Y-64125379D01*
X142668610Y-64150491D01*
X142724900Y-64150499D01*
X142724899Y-64153582D01*
X142724901Y-64153582D01*
X142724901Y-64150500D01*
X155774315Y-64150500D01*
X155781393Y-64150500D01*
X155891351Y-64125403D01*
X155992967Y-64076467D01*
X156081146Y-64006146D01*
X156151467Y-63917967D01*
X156200403Y-63816351D01*
X156225500Y-63706393D01*
X156225500Y-63650000D01*
X161274500Y-63650000D01*
X161274507Y-63699311D01*
X161274507Y-63699318D01*
X161274509Y-63706390D01*
X161276083Y-63713282D01*
X161276084Y-63713289D01*
X161298046Y-63809445D01*
X161298047Y-63809450D01*
X161299621Y-63816338D01*
X161348563Y-63917945D01*
X161418882Y-64006118D01*
X161507055Y-64076437D01*
X161608662Y-64125379D01*
X161718610Y-64150491D01*
X161774900Y-64150499D01*
X161774899Y-64153582D01*
X161774901Y-64153582D01*
X161774901Y-64150500D01*
X174824315Y-64150500D01*
X174831393Y-64150500D01*
X174941351Y-64125403D01*
X175042967Y-64076467D01*
X175131146Y-64006146D01*
X175201467Y-63917967D01*
X175250403Y-63816351D01*
X175275500Y-63706393D01*
X175275500Y-63650000D01*
X180324500Y-63650000D01*
X180324507Y-63699311D01*
X180324507Y-63699318D01*
X180324509Y-63706390D01*
X180326083Y-63713282D01*
X180326084Y-63713289D01*
X180348046Y-63809445D01*
X180348047Y-63809450D01*
X180349621Y-63816338D01*
X180398563Y-63917945D01*
X180468882Y-64006118D01*
X180557055Y-64076437D01*
X180658662Y-64125379D01*
X180768610Y-64150491D01*
X180824900Y-64150499D01*
X180824899Y-64153582D01*
X180824901Y-64153582D01*
X180824901Y-64150500D01*
X193874315Y-64150500D01*
X193881393Y-64150500D01*
X193991351Y-64125403D01*
X194092967Y-64076467D01*
X194181146Y-64006146D01*
X194251467Y-63917967D01*
X194300403Y-63816351D01*
X194325500Y-63706393D01*
X194325500Y-63650000D01*
X199374500Y-63650000D01*
X199374507Y-63699311D01*
X199374507Y-63699318D01*
X199374509Y-63706390D01*
X199376083Y-63713282D01*
X199376084Y-63713289D01*
X199398046Y-63809445D01*
X199398047Y-63809450D01*
X199399621Y-63816338D01*
X199448563Y-63917945D01*
X199518882Y-64006118D01*
X199607055Y-64076437D01*
X199708662Y-64125379D01*
X199818610Y-64150491D01*
X199874900Y-64150499D01*
X199874899Y-64153582D01*
X199874901Y-64153582D01*
X199874901Y-64150500D01*
X212924315Y-64150500D01*
X212931393Y-64150500D01*
X213041351Y-64125403D01*
X213142967Y-64076467D01*
X213231146Y-64006146D01*
X213301467Y-63917967D01*
X213350403Y-63816351D01*
X213375500Y-63706393D01*
X213375500Y-63650000D01*
X218424500Y-63650000D01*
X218424507Y-63699311D01*
X218424507Y-63699318D01*
X218424509Y-63706390D01*
X218426083Y-63713282D01*
X218426084Y-63713289D01*
X218448046Y-63809445D01*
X218448047Y-63809450D01*
X218449621Y-63816338D01*
X218498563Y-63917945D01*
X218568882Y-64006118D01*
X218657055Y-64076437D01*
X218758662Y-64125379D01*
X218868610Y-64150491D01*
X218924900Y-64150499D01*
X218924899Y-64153582D01*
X218924901Y-64153582D01*
X218924901Y-64150500D01*
X231974315Y-64150500D01*
X231981393Y-64150500D01*
X232091351Y-64125403D01*
X232192967Y-64076467D01*
X232281146Y-64006146D01*
X232351467Y-63917967D01*
X232400403Y-63816351D01*
X232425500Y-63706393D01*
X232425500Y-63650000D01*
X237474500Y-63650000D01*
X237474507Y-63699311D01*
X237474507Y-63699318D01*
X237474509Y-63706390D01*
X237476083Y-63713282D01*
X237476084Y-63713289D01*
X237498046Y-63809445D01*
X237498047Y-63809450D01*
X237499621Y-63816338D01*
X237548563Y-63917945D01*
X237618882Y-64006118D01*
X237707055Y-64076437D01*
X237808662Y-64125379D01*
X237918610Y-64150491D01*
X237974900Y-64150499D01*
X237974899Y-64153582D01*
X237974901Y-64153582D01*
X237974901Y-64150500D01*
X251024315Y-64150500D01*
X251031393Y-64150500D01*
X251141351Y-64125403D01*
X251242967Y-64076467D01*
X251331146Y-64006146D01*
X251401467Y-63917967D01*
X251450403Y-63816351D01*
X251475500Y-63706393D01*
X251475500Y-63650000D01*
X251475500Y-63649500D01*
X251475500Y-50649901D01*
X251478582Y-50649901D01*
X251478582Y-50649899D01*
X251475499Y-50649900D01*
X251475491Y-50593610D01*
X251450379Y-50483662D01*
X251401437Y-50382055D01*
X251331118Y-50293882D01*
X251242945Y-50223563D01*
X251236570Y-50220492D01*
X251236568Y-50220491D01*
X251147709Y-50177690D01*
X251147710Y-50177690D01*
X251141338Y-50174621D01*
X251134450Y-50173047D01*
X251134445Y-50173046D01*
X251038289Y-50151084D01*
X251038282Y-50151083D01*
X251031390Y-50149509D01*
X251024318Y-50149507D01*
X251024311Y-50149507D01*
X250975099Y-50149500D01*
X237975500Y-50149500D01*
X237975000Y-50149500D01*
X237918607Y-50149500D01*
X237911715Y-50151072D01*
X237911706Y-50151074D01*
X237815550Y-50173021D01*
X237815542Y-50173023D01*
X237808649Y-50174597D01*
X237802279Y-50177664D01*
X237802272Y-50177667D01*
X237713405Y-50220464D01*
X237713402Y-50220465D01*
X237707033Y-50223533D01*
X237701504Y-50227941D01*
X237701501Y-50227944D01*
X237624384Y-50289443D01*
X237624379Y-50289447D01*
X237618854Y-50293854D01*
X237614447Y-50299379D01*
X237614443Y-50299384D01*
X237552944Y-50376501D01*
X237552941Y-50376504D01*
X237548533Y-50382033D01*
X237545465Y-50388402D01*
X237545464Y-50388405D01*
X237502667Y-50477272D01*
X237502664Y-50477279D01*
X237499597Y-50483649D01*
X237498023Y-50490542D01*
X237498021Y-50490550D01*
X237476074Y-50586706D01*
X237476072Y-50586715D01*
X237474500Y-50593607D01*
X237474500Y-50600685D01*
X237474500Y-63650000D01*
X232425500Y-63650000D01*
X232425500Y-63649500D01*
X232425500Y-57150000D01*
X233344551Y-57150000D01*
X233344939Y-57154930D01*
X233363928Y-57396214D01*
X233363929Y-57396222D01*
X233364317Y-57401148D01*
X233365471Y-57405956D01*
X233365472Y-57405960D01*
X233421971Y-57641298D01*
X233421972Y-57641303D01*
X233423127Y-57646111D01*
X233519534Y-57878859D01*
X233651164Y-58093659D01*
X233814776Y-58285224D01*
X234006341Y-58448836D01*
X234221141Y-58580466D01*
X234453889Y-58676873D01*
X234698852Y-58735683D01*
X234887118Y-58750500D01*
X235010413Y-58750500D01*
X235012882Y-58750500D01*
X235201148Y-58735683D01*
X235446111Y-58676873D01*
X235678859Y-58580466D01*
X235893659Y-58448836D01*
X236085224Y-58285224D01*
X236248836Y-58093659D01*
X236380466Y-57878859D01*
X236476873Y-57646111D01*
X236535683Y-57401148D01*
X236555449Y-57150000D01*
X236535683Y-56898852D01*
X236476873Y-56653889D01*
X236380466Y-56421141D01*
X236248836Y-56206341D01*
X236085224Y-56014776D01*
X235893659Y-55851164D01*
X235678859Y-55719534D01*
X235446111Y-55623127D01*
X235441303Y-55621972D01*
X235441298Y-55621971D01*
X235205960Y-55565472D01*
X235205956Y-55565471D01*
X235201148Y-55564317D01*
X235196222Y-55563929D01*
X235196214Y-55563928D01*
X235015338Y-55549693D01*
X235015330Y-55549692D01*
X235012882Y-55549500D01*
X234887118Y-55549500D01*
X234884670Y-55549692D01*
X234884661Y-55549693D01*
X234703785Y-55563928D01*
X234703775Y-55563929D01*
X234698852Y-55564317D01*
X234694045Y-55565471D01*
X234694039Y-55565472D01*
X234458701Y-55621971D01*
X234458692Y-55621973D01*
X234453889Y-55623127D01*
X234449321Y-55625018D01*
X234449315Y-55625021D01*
X234225715Y-55717639D01*
X234225710Y-55717641D01*
X234221141Y-55719534D01*
X234216926Y-55722116D01*
X234216920Y-55722120D01*
X234010558Y-55848579D01*
X234010550Y-55848584D01*
X234006341Y-55851164D01*
X234002580Y-55854375D01*
X234002576Y-55854379D01*
X233818538Y-56011562D01*
X233818531Y-56011568D01*
X233814776Y-56014776D01*
X233811568Y-56018531D01*
X233811562Y-56018538D01*
X233654379Y-56202576D01*
X233654375Y-56202580D01*
X233651164Y-56206341D01*
X233648584Y-56210550D01*
X233648579Y-56210558D01*
X233522120Y-56416920D01*
X233522116Y-56416926D01*
X233519534Y-56421141D01*
X233517641Y-56425710D01*
X233517639Y-56425715D01*
X233425021Y-56649315D01*
X233425018Y-56649321D01*
X233423127Y-56653889D01*
X233421973Y-56658692D01*
X233421971Y-56658701D01*
X233365472Y-56894039D01*
X233364317Y-56898852D01*
X233363929Y-56903775D01*
X233363928Y-56903785D01*
X233344939Y-57145070D01*
X233344551Y-57150000D01*
X232425500Y-57150000D01*
X232425500Y-50649901D01*
X232428582Y-50649901D01*
X232428582Y-50649899D01*
X232425499Y-50649900D01*
X232425491Y-50593610D01*
X232421240Y-50574999D01*
X233794571Y-50574999D01*
X233814244Y-50787309D01*
X233872595Y-50992388D01*
X233875186Y-50997592D01*
X233875189Y-50997599D01*
X233965037Y-51178039D01*
X233967634Y-51183254D01*
X233971142Y-51187899D01*
X233971145Y-51187904D01*
X234080751Y-51333044D01*
X234096128Y-51353406D01*
X234100430Y-51357328D01*
X234100433Y-51357331D01*
X234249394Y-51493128D01*
X234249398Y-51493131D01*
X234253698Y-51497051D01*
X234434981Y-51609297D01*
X234440411Y-51611400D01*
X234440414Y-51611402D01*
X234512229Y-51639222D01*
X234633802Y-51686320D01*
X234843390Y-51725499D01*
X235050783Y-51725499D01*
X235056610Y-51725499D01*
X235266198Y-51686320D01*
X235465019Y-51609297D01*
X235646302Y-51497051D01*
X235803872Y-51353406D01*
X235932366Y-51183254D01*
X236027405Y-50992388D01*
X236085756Y-50787309D01*
X236105429Y-50574999D01*
X236085756Y-50362689D01*
X236027405Y-50157610D01*
X236024155Y-50151084D01*
X235934962Y-49971958D01*
X235932366Y-49966744D01*
X235803872Y-49796592D01*
X235799568Y-49792669D01*
X235799566Y-49792666D01*
X235650605Y-49656869D01*
X235650600Y-49656865D01*
X235646302Y-49652947D01*
X235607284Y-49628788D01*
X235469975Y-49543769D01*
X235469969Y-49543766D01*
X235465019Y-49540701D01*
X235459592Y-49538598D01*
X235459585Y-49538595D01*
X235271627Y-49465781D01*
X235271625Y-49465780D01*
X235266198Y-49463678D01*
X235260476Y-49462608D01*
X235260475Y-49462608D01*
X235062335Y-49425569D01*
X235062332Y-49425568D01*
X235056610Y-49424499D01*
X234843390Y-49424499D01*
X234837668Y-49425568D01*
X234837664Y-49425569D01*
X234639524Y-49462608D01*
X234639520Y-49462609D01*
X234633802Y-49463678D01*
X234628377Y-49465779D01*
X234628372Y-49465781D01*
X234440414Y-49538595D01*
X234440402Y-49538600D01*
X234434981Y-49540701D01*
X234430034Y-49543763D01*
X234430024Y-49543769D01*
X234258649Y-49649881D01*
X234258645Y-49649883D01*
X234253698Y-49652947D01*
X234249404Y-49656861D01*
X234249394Y-49656869D01*
X234100433Y-49792666D01*
X234100425Y-49792674D01*
X234096128Y-49796592D01*
X234092619Y-49801238D01*
X234092615Y-49801243D01*
X233971145Y-49962093D01*
X233971139Y-49962102D01*
X233967634Y-49966744D01*
X233965040Y-49971951D01*
X233965037Y-49971958D01*
X233875189Y-50152398D01*
X233875184Y-50152409D01*
X233872595Y-50157610D01*
X233871003Y-50163203D01*
X233871001Y-50163210D01*
X233832256Y-50299384D01*
X233814244Y-50362689D01*
X233813707Y-50368481D01*
X233813707Y-50368483D01*
X233811861Y-50388405D01*
X233794571Y-50574999D01*
X232421240Y-50574999D01*
X232400379Y-50483662D01*
X232351437Y-50382055D01*
X232281118Y-50293882D01*
X232192945Y-50223563D01*
X232186570Y-50220492D01*
X232186568Y-50220491D01*
X232097709Y-50177690D01*
X232097710Y-50177690D01*
X232091338Y-50174621D01*
X232084450Y-50173047D01*
X232084445Y-50173046D01*
X231988289Y-50151084D01*
X231988282Y-50151083D01*
X231981390Y-50149509D01*
X231974318Y-50149507D01*
X231974311Y-50149507D01*
X231925099Y-50149500D01*
X218925500Y-50149500D01*
X218925000Y-50149500D01*
X218868607Y-50149500D01*
X218861715Y-50151072D01*
X218861706Y-50151074D01*
X218765550Y-50173021D01*
X218765542Y-50173023D01*
X218758649Y-50174597D01*
X218752279Y-50177664D01*
X218752272Y-50177667D01*
X218663405Y-50220464D01*
X218663402Y-50220465D01*
X218657033Y-50223533D01*
X218651504Y-50227941D01*
X218651501Y-50227944D01*
X218574384Y-50289443D01*
X218574379Y-50289447D01*
X218568854Y-50293854D01*
X218564447Y-50299379D01*
X218564443Y-50299384D01*
X218502944Y-50376501D01*
X218502941Y-50376504D01*
X218498533Y-50382033D01*
X218495465Y-50388402D01*
X218495464Y-50388405D01*
X218452667Y-50477272D01*
X218452664Y-50477279D01*
X218449597Y-50483649D01*
X218448023Y-50490542D01*
X218448021Y-50490550D01*
X218426074Y-50586706D01*
X218426072Y-50586715D01*
X218424500Y-50593607D01*
X218424500Y-50600685D01*
X218424500Y-63650000D01*
X213375500Y-63650000D01*
X213375500Y-63649500D01*
X213375500Y-50649901D01*
X213378582Y-50649901D01*
X213378582Y-50649899D01*
X213375499Y-50649900D01*
X213375491Y-50593610D01*
X213350379Y-50483662D01*
X213301437Y-50382055D01*
X213231118Y-50293882D01*
X213142945Y-50223563D01*
X213136570Y-50220492D01*
X213136568Y-50220491D01*
X213047709Y-50177690D01*
X213047710Y-50177690D01*
X213041338Y-50174621D01*
X213034450Y-50173047D01*
X213034445Y-50173046D01*
X212938289Y-50151084D01*
X212938282Y-50151083D01*
X212931390Y-50149509D01*
X212924318Y-50149507D01*
X212924311Y-50149507D01*
X212875099Y-50149500D01*
X199875500Y-50149500D01*
X199875000Y-50149500D01*
X199818607Y-50149500D01*
X199811715Y-50151072D01*
X199811706Y-50151074D01*
X199715550Y-50173021D01*
X199715542Y-50173023D01*
X199708649Y-50174597D01*
X199702279Y-50177664D01*
X199702272Y-50177667D01*
X199613405Y-50220464D01*
X199613402Y-50220465D01*
X199607033Y-50223533D01*
X199601504Y-50227941D01*
X199601501Y-50227944D01*
X199524384Y-50289443D01*
X199524379Y-50289447D01*
X199518854Y-50293854D01*
X199514447Y-50299379D01*
X199514443Y-50299384D01*
X199452944Y-50376501D01*
X199452941Y-50376504D01*
X199448533Y-50382033D01*
X199445465Y-50388402D01*
X199445464Y-50388405D01*
X199402667Y-50477272D01*
X199402664Y-50477279D01*
X199399597Y-50483649D01*
X199398023Y-50490542D01*
X199398021Y-50490550D01*
X199376074Y-50586706D01*
X199376072Y-50586715D01*
X199374500Y-50593607D01*
X199374500Y-50600685D01*
X199374500Y-63650000D01*
X194325500Y-63650000D01*
X194325500Y-63649500D01*
X194325500Y-50649901D01*
X194328582Y-50649901D01*
X194328582Y-50649899D01*
X194325499Y-50649900D01*
X194325491Y-50593610D01*
X194300379Y-50483662D01*
X194251437Y-50382055D01*
X194181118Y-50293882D01*
X194092945Y-50223563D01*
X194086570Y-50220492D01*
X194086568Y-50220491D01*
X193997709Y-50177690D01*
X193997710Y-50177690D01*
X193991338Y-50174621D01*
X193984450Y-50173047D01*
X193984445Y-50173046D01*
X193888289Y-50151084D01*
X193888282Y-50151083D01*
X193881390Y-50149509D01*
X193874318Y-50149507D01*
X193874311Y-50149507D01*
X193825099Y-50149500D01*
X180825500Y-50149500D01*
X180825000Y-50149500D01*
X180768607Y-50149500D01*
X180761715Y-50151072D01*
X180761706Y-50151074D01*
X180665550Y-50173021D01*
X180665542Y-50173023D01*
X180658649Y-50174597D01*
X180652279Y-50177664D01*
X180652272Y-50177667D01*
X180563405Y-50220464D01*
X180563402Y-50220465D01*
X180557033Y-50223533D01*
X180551504Y-50227941D01*
X180551501Y-50227944D01*
X180474384Y-50289443D01*
X180474379Y-50289447D01*
X180468854Y-50293854D01*
X180464447Y-50299379D01*
X180464443Y-50299384D01*
X180402944Y-50376501D01*
X180402941Y-50376504D01*
X180398533Y-50382033D01*
X180395465Y-50388402D01*
X180395464Y-50388405D01*
X180352667Y-50477272D01*
X180352664Y-50477279D01*
X180349597Y-50483649D01*
X180348023Y-50490542D01*
X180348021Y-50490550D01*
X180326074Y-50586706D01*
X180326072Y-50586715D01*
X180324500Y-50593607D01*
X180324500Y-50600685D01*
X180324500Y-63650000D01*
X175275500Y-63650000D01*
X175275500Y-63649500D01*
X175275500Y-57150000D01*
X176194551Y-57150000D01*
X176194939Y-57154930D01*
X176213928Y-57396214D01*
X176213929Y-57396222D01*
X176214317Y-57401148D01*
X176215471Y-57405956D01*
X176215472Y-57405960D01*
X176271971Y-57641298D01*
X176271972Y-57641303D01*
X176273127Y-57646111D01*
X176369534Y-57878859D01*
X176501164Y-58093659D01*
X176664776Y-58285224D01*
X176856341Y-58448836D01*
X177071141Y-58580466D01*
X177303889Y-58676873D01*
X177548852Y-58735683D01*
X177737118Y-58750500D01*
X177860413Y-58750500D01*
X177862882Y-58750500D01*
X178051148Y-58735683D01*
X178296111Y-58676873D01*
X178528859Y-58580466D01*
X178743659Y-58448836D01*
X178935224Y-58285224D01*
X179098836Y-58093659D01*
X179230466Y-57878859D01*
X179326873Y-57646111D01*
X179385683Y-57401148D01*
X179405449Y-57150000D01*
X179385683Y-56898852D01*
X179326873Y-56653889D01*
X179230466Y-56421141D01*
X179098836Y-56206341D01*
X178935224Y-56014776D01*
X178743659Y-55851164D01*
X178528859Y-55719534D01*
X178296111Y-55623127D01*
X178291303Y-55621972D01*
X178291298Y-55621971D01*
X178055960Y-55565472D01*
X178055956Y-55565471D01*
X178051148Y-55564317D01*
X178046222Y-55563929D01*
X178046214Y-55563928D01*
X177865338Y-55549693D01*
X177865330Y-55549692D01*
X177862882Y-55549500D01*
X177737118Y-55549500D01*
X177734670Y-55549692D01*
X177734661Y-55549693D01*
X177553785Y-55563928D01*
X177553775Y-55563929D01*
X177548852Y-55564317D01*
X177544045Y-55565471D01*
X177544039Y-55565472D01*
X177308701Y-55621971D01*
X177308692Y-55621973D01*
X177303889Y-55623127D01*
X177299321Y-55625018D01*
X177299315Y-55625021D01*
X177075715Y-55717639D01*
X177075710Y-55717641D01*
X177071141Y-55719534D01*
X177066926Y-55722116D01*
X177066920Y-55722120D01*
X176860558Y-55848579D01*
X176860550Y-55848584D01*
X176856341Y-55851164D01*
X176852580Y-55854375D01*
X176852576Y-55854379D01*
X176668538Y-56011562D01*
X176668531Y-56011568D01*
X176664776Y-56014776D01*
X176661568Y-56018531D01*
X176661562Y-56018538D01*
X176504379Y-56202576D01*
X176504375Y-56202580D01*
X176501164Y-56206341D01*
X176498584Y-56210550D01*
X176498579Y-56210558D01*
X176372120Y-56416920D01*
X176372116Y-56416926D01*
X176369534Y-56421141D01*
X176367641Y-56425710D01*
X176367639Y-56425715D01*
X176275021Y-56649315D01*
X176275018Y-56649321D01*
X176273127Y-56653889D01*
X176271973Y-56658692D01*
X176271971Y-56658701D01*
X176215472Y-56894039D01*
X176214317Y-56898852D01*
X176213929Y-56903775D01*
X176213928Y-56903785D01*
X176194939Y-57145070D01*
X176194551Y-57150000D01*
X175275500Y-57150000D01*
X175275500Y-50649901D01*
X175278582Y-50649901D01*
X175278582Y-50649899D01*
X175275499Y-50649900D01*
X175275491Y-50593610D01*
X175250379Y-50483662D01*
X175201437Y-50382055D01*
X175131118Y-50293882D01*
X175042945Y-50223563D01*
X175036570Y-50220492D01*
X175036568Y-50220491D01*
X174947709Y-50177690D01*
X174947710Y-50177690D01*
X174941338Y-50174621D01*
X174934450Y-50173047D01*
X174934445Y-50173046D01*
X174838289Y-50151084D01*
X174838282Y-50151083D01*
X174831390Y-50149509D01*
X174824318Y-50149507D01*
X174824311Y-50149507D01*
X174775099Y-50149500D01*
X161775500Y-50149500D01*
X161775000Y-50149500D01*
X161718607Y-50149500D01*
X161711715Y-50151072D01*
X161711706Y-50151074D01*
X161615550Y-50173021D01*
X161615542Y-50173023D01*
X161608649Y-50174597D01*
X161602279Y-50177664D01*
X161602272Y-50177667D01*
X161513405Y-50220464D01*
X161513402Y-50220465D01*
X161507033Y-50223533D01*
X161501504Y-50227941D01*
X161501501Y-50227944D01*
X161424384Y-50289443D01*
X161424379Y-50289447D01*
X161418854Y-50293854D01*
X161414447Y-50299379D01*
X161414443Y-50299384D01*
X161352944Y-50376501D01*
X161352941Y-50376504D01*
X161348533Y-50382033D01*
X161345465Y-50388402D01*
X161345464Y-50388405D01*
X161302667Y-50477272D01*
X161302664Y-50477279D01*
X161299597Y-50483649D01*
X161298023Y-50490542D01*
X161298021Y-50490550D01*
X161276074Y-50586706D01*
X161276072Y-50586715D01*
X161274500Y-50593607D01*
X161274500Y-50600685D01*
X161274500Y-63650000D01*
X156225500Y-63650000D01*
X156225500Y-63649500D01*
X156225500Y-50649901D01*
X156228582Y-50649901D01*
X156228582Y-50649899D01*
X156225499Y-50649900D01*
X156225491Y-50593610D01*
X156200379Y-50483662D01*
X156151437Y-50382055D01*
X156081118Y-50293882D01*
X155992945Y-50223563D01*
X155986570Y-50220492D01*
X155986568Y-50220491D01*
X155897709Y-50177690D01*
X155897710Y-50177690D01*
X155891338Y-50174621D01*
X155884450Y-50173047D01*
X155884445Y-50173046D01*
X155788289Y-50151084D01*
X155788282Y-50151083D01*
X155781390Y-50149509D01*
X155774318Y-50149507D01*
X155774311Y-50149507D01*
X155725099Y-50149500D01*
X142725500Y-50149500D01*
X142725000Y-50149500D01*
X142668607Y-50149500D01*
X142661715Y-50151072D01*
X142661706Y-50151074D01*
X142565550Y-50173021D01*
X142565542Y-50173023D01*
X142558649Y-50174597D01*
X142552279Y-50177664D01*
X142552272Y-50177667D01*
X142463405Y-50220464D01*
X142463402Y-50220465D01*
X142457033Y-50223533D01*
X142451504Y-50227941D01*
X142451501Y-50227944D01*
X142374384Y-50289443D01*
X142374379Y-50289447D01*
X142368854Y-50293854D01*
X142364447Y-50299379D01*
X142364443Y-50299384D01*
X142302944Y-50376501D01*
X142302941Y-50376504D01*
X142298533Y-50382033D01*
X142295465Y-50388402D01*
X142295464Y-50388405D01*
X142252667Y-50477272D01*
X142252664Y-50477279D01*
X142249597Y-50483649D01*
X142248023Y-50490542D01*
X142248021Y-50490550D01*
X142226074Y-50586706D01*
X142226072Y-50586715D01*
X142224500Y-50593607D01*
X142224500Y-50600685D01*
X142224500Y-63650000D01*
X137175500Y-63650000D01*
X137175500Y-63649500D01*
X137175500Y-50649901D01*
X137178582Y-50649901D01*
X137178582Y-50649899D01*
X137175499Y-50649900D01*
X137175491Y-50593610D01*
X137150379Y-50483662D01*
X137101437Y-50382055D01*
X137031118Y-50293882D01*
X136942945Y-50223563D01*
X136936570Y-50220492D01*
X136936568Y-50220491D01*
X136847709Y-50177690D01*
X136847710Y-50177690D01*
X136841338Y-50174621D01*
X136834450Y-50173047D01*
X136834445Y-50173046D01*
X136738289Y-50151084D01*
X136738282Y-50151083D01*
X136731390Y-50149509D01*
X136724318Y-50149507D01*
X136724311Y-50149507D01*
X136675099Y-50149500D01*
X123675500Y-50149500D01*
X123675000Y-50149500D01*
X123618607Y-50149500D01*
X123611715Y-50151072D01*
X123611706Y-50151074D01*
X123515550Y-50173021D01*
X123515542Y-50173023D01*
X123508649Y-50174597D01*
X123502279Y-50177664D01*
X123502272Y-50177667D01*
X123413405Y-50220464D01*
X123413402Y-50220465D01*
X123407033Y-50223533D01*
X123401504Y-50227941D01*
X123401501Y-50227944D01*
X123324384Y-50289443D01*
X123324379Y-50289447D01*
X123318854Y-50293854D01*
X123314447Y-50299379D01*
X123314443Y-50299384D01*
X123252944Y-50376501D01*
X123252941Y-50376504D01*
X123248533Y-50382033D01*
X123245465Y-50388402D01*
X123245464Y-50388405D01*
X123202667Y-50477272D01*
X123202664Y-50477279D01*
X123199597Y-50483649D01*
X123198023Y-50490542D01*
X123198021Y-50490550D01*
X123176074Y-50586706D01*
X123176072Y-50586715D01*
X123174500Y-50593607D01*
X123174500Y-50600685D01*
X123174500Y-63650000D01*
X118125500Y-63650000D01*
X118125500Y-63649500D01*
X118125500Y-57150000D01*
X119044551Y-57150000D01*
X119044939Y-57154930D01*
X119063928Y-57396214D01*
X119063929Y-57396222D01*
X119064317Y-57401148D01*
X119065471Y-57405956D01*
X119065472Y-57405960D01*
X119121971Y-57641298D01*
X119121972Y-57641303D01*
X119123127Y-57646111D01*
X119219534Y-57878859D01*
X119351164Y-58093659D01*
X119514776Y-58285224D01*
X119706341Y-58448836D01*
X119921141Y-58580466D01*
X120153889Y-58676873D01*
X120398852Y-58735683D01*
X120587118Y-58750500D01*
X120710413Y-58750500D01*
X120712882Y-58750500D01*
X120901148Y-58735683D01*
X121146111Y-58676873D01*
X121378859Y-58580466D01*
X121593659Y-58448836D01*
X121785224Y-58285224D01*
X121948836Y-58093659D01*
X122080466Y-57878859D01*
X122176873Y-57646111D01*
X122235683Y-57401148D01*
X122255449Y-57150000D01*
X122235683Y-56898852D01*
X122176873Y-56653889D01*
X122080466Y-56421141D01*
X121948836Y-56206341D01*
X121785224Y-56014776D01*
X121593659Y-55851164D01*
X121378859Y-55719534D01*
X121146111Y-55623127D01*
X121141303Y-55621972D01*
X121141298Y-55621971D01*
X120905960Y-55565472D01*
X120905956Y-55565471D01*
X120901148Y-55564317D01*
X120896222Y-55563929D01*
X120896214Y-55563928D01*
X120715338Y-55549693D01*
X120715330Y-55549692D01*
X120712882Y-55549500D01*
X120587118Y-55549500D01*
X120584670Y-55549692D01*
X120584661Y-55549693D01*
X120403785Y-55563928D01*
X120403775Y-55563929D01*
X120398852Y-55564317D01*
X120394045Y-55565471D01*
X120394039Y-55565472D01*
X120158701Y-55621971D01*
X120158692Y-55621973D01*
X120153889Y-55623127D01*
X120149321Y-55625018D01*
X120149315Y-55625021D01*
X119925715Y-55717639D01*
X119925710Y-55717641D01*
X119921141Y-55719534D01*
X119916926Y-55722116D01*
X119916920Y-55722120D01*
X119710558Y-55848579D01*
X119710550Y-55848584D01*
X119706341Y-55851164D01*
X119702580Y-55854375D01*
X119702576Y-55854379D01*
X119518538Y-56011562D01*
X119518531Y-56011568D01*
X119514776Y-56014776D01*
X119511568Y-56018531D01*
X119511562Y-56018538D01*
X119354379Y-56202576D01*
X119354375Y-56202580D01*
X119351164Y-56206341D01*
X119348584Y-56210550D01*
X119348579Y-56210558D01*
X119222120Y-56416920D01*
X119222116Y-56416926D01*
X119219534Y-56421141D01*
X119217641Y-56425710D01*
X119217639Y-56425715D01*
X119125021Y-56649315D01*
X119125018Y-56649321D01*
X119123127Y-56653889D01*
X119121973Y-56658692D01*
X119121971Y-56658701D01*
X119065472Y-56894039D01*
X119064317Y-56898852D01*
X119063929Y-56903775D01*
X119063928Y-56903785D01*
X119044939Y-57145070D01*
X119044551Y-57150000D01*
X118125500Y-57150000D01*
X118125500Y-50649901D01*
X118128582Y-50649901D01*
X118128582Y-50649899D01*
X118125499Y-50649900D01*
X118125491Y-50593610D01*
X118100379Y-50483662D01*
X118051437Y-50382055D01*
X117981118Y-50293882D01*
X117892945Y-50223563D01*
X117886570Y-50220492D01*
X117886568Y-50220491D01*
X117797709Y-50177690D01*
X117797710Y-50177690D01*
X117791338Y-50174621D01*
X117784450Y-50173047D01*
X117784445Y-50173046D01*
X117688289Y-50151084D01*
X117688282Y-50151083D01*
X117681390Y-50149509D01*
X117674318Y-50149507D01*
X117674311Y-50149507D01*
X117625099Y-50149500D01*
X104625500Y-50149500D01*
X104625000Y-50149500D01*
X104568607Y-50149500D01*
X104561715Y-50151072D01*
X104561706Y-50151074D01*
X104465550Y-50173021D01*
X104465542Y-50173023D01*
X104458649Y-50174597D01*
X104452279Y-50177664D01*
X104452272Y-50177667D01*
X104363405Y-50220464D01*
X104363402Y-50220465D01*
X104357033Y-50223533D01*
X104351504Y-50227941D01*
X104351501Y-50227944D01*
X104274384Y-50289443D01*
X104274379Y-50289447D01*
X104268854Y-50293854D01*
X104264447Y-50299379D01*
X104264443Y-50299384D01*
X104202944Y-50376501D01*
X104202941Y-50376504D01*
X104198533Y-50382033D01*
X104195465Y-50388402D01*
X104195464Y-50388405D01*
X104152667Y-50477272D01*
X104152664Y-50477279D01*
X104149597Y-50483649D01*
X104148023Y-50490542D01*
X104148021Y-50490550D01*
X104126074Y-50586706D01*
X104126072Y-50586715D01*
X104124500Y-50593607D01*
X104124500Y-50600685D01*
X104124500Y-63650000D01*
X99075500Y-63650000D01*
X99075500Y-63649500D01*
X99075500Y-50649901D01*
X99078582Y-50649901D01*
X99078582Y-50649899D01*
X99075499Y-50649900D01*
X99075491Y-50593610D01*
X99050379Y-50483662D01*
X99001437Y-50382055D01*
X98931118Y-50293882D01*
X98842945Y-50223563D01*
X98836570Y-50220492D01*
X98836568Y-50220491D01*
X98747709Y-50177690D01*
X98747710Y-50177690D01*
X98741338Y-50174621D01*
X98734450Y-50173047D01*
X98734445Y-50173046D01*
X98638289Y-50151084D01*
X98638282Y-50151083D01*
X98631390Y-50149509D01*
X98624318Y-50149507D01*
X98624311Y-50149507D01*
X98575099Y-50149500D01*
X85575500Y-50149500D01*
X85575000Y-50149500D01*
X85518607Y-50149500D01*
X85511715Y-50151072D01*
X85511706Y-50151074D01*
X85415550Y-50173021D01*
X85415542Y-50173023D01*
X85408649Y-50174597D01*
X85402279Y-50177664D01*
X85402272Y-50177667D01*
X85313405Y-50220464D01*
X85313402Y-50220465D01*
X85307033Y-50223533D01*
X85301504Y-50227941D01*
X85301501Y-50227944D01*
X85224384Y-50289443D01*
X85224379Y-50289447D01*
X85218854Y-50293854D01*
X85214447Y-50299379D01*
X85214443Y-50299384D01*
X85152944Y-50376501D01*
X85152941Y-50376504D01*
X85148533Y-50382033D01*
X85145465Y-50388402D01*
X85145464Y-50388405D01*
X85102667Y-50477272D01*
X85102664Y-50477279D01*
X85099597Y-50483649D01*
X85098023Y-50490542D01*
X85098021Y-50490550D01*
X85076074Y-50586706D01*
X85076072Y-50586715D01*
X85074500Y-50593607D01*
X85074500Y-50600685D01*
X85074500Y-63650000D01*
X80025500Y-63650000D01*
X80025500Y-63649500D01*
X80025500Y-50649901D01*
X80028582Y-50649901D01*
X80028582Y-50649899D01*
X80025499Y-50649900D01*
X80025491Y-50593610D01*
X80000379Y-50483662D01*
X79951437Y-50382055D01*
X79881118Y-50293882D01*
X79792945Y-50223563D01*
X79786570Y-50220492D01*
X79786568Y-50220491D01*
X79697709Y-50177690D01*
X79697710Y-50177690D01*
X79691338Y-50174621D01*
X79684450Y-50173047D01*
X79684445Y-50173046D01*
X79588289Y-50151084D01*
X79588282Y-50151083D01*
X79581390Y-50149509D01*
X79574318Y-50149507D01*
X79574311Y-50149507D01*
X79525099Y-50149500D01*
X66525500Y-50149500D01*
X66525000Y-50149500D01*
X66468607Y-50149500D01*
X66461715Y-50151072D01*
X66461706Y-50151074D01*
X66365550Y-50173021D01*
X66365542Y-50173023D01*
X66358649Y-50174597D01*
X66352279Y-50177664D01*
X66352272Y-50177667D01*
X66263405Y-50220464D01*
X66263402Y-50220465D01*
X66257033Y-50223533D01*
X66251504Y-50227941D01*
X66251501Y-50227944D01*
X66174384Y-50289443D01*
X66174379Y-50289447D01*
X66168854Y-50293854D01*
X66164447Y-50299379D01*
X66164443Y-50299384D01*
X66102944Y-50376501D01*
X66102941Y-50376504D01*
X66098533Y-50382033D01*
X66095465Y-50388402D01*
X66095464Y-50388405D01*
X66052667Y-50477272D01*
X66052664Y-50477279D01*
X66049597Y-50483649D01*
X66048023Y-50490542D01*
X66048021Y-50490550D01*
X66026074Y-50586706D01*
X66026072Y-50586715D01*
X66024500Y-50593607D01*
X66024500Y-50600685D01*
X66024500Y-63650000D01*
X60975500Y-63650000D01*
X60975500Y-63649500D01*
X60975500Y-57150000D01*
X61894551Y-57150000D01*
X61894939Y-57154930D01*
X61913928Y-57396214D01*
X61913929Y-57396222D01*
X61914317Y-57401148D01*
X61915471Y-57405956D01*
X61915472Y-57405960D01*
X61971971Y-57641298D01*
X61971972Y-57641303D01*
X61973127Y-57646111D01*
X62069534Y-57878859D01*
X62201164Y-58093659D01*
X62364776Y-58285224D01*
X62556341Y-58448836D01*
X62771141Y-58580466D01*
X63003889Y-58676873D01*
X63248852Y-58735683D01*
X63437118Y-58750500D01*
X63560413Y-58750500D01*
X63562882Y-58750500D01*
X63751148Y-58735683D01*
X63996111Y-58676873D01*
X64228859Y-58580466D01*
X64443659Y-58448836D01*
X64635224Y-58285224D01*
X64798836Y-58093659D01*
X64930466Y-57878859D01*
X65026873Y-57646111D01*
X65085683Y-57401148D01*
X65105449Y-57150000D01*
X65085683Y-56898852D01*
X65026873Y-56653889D01*
X64930466Y-56421141D01*
X64798836Y-56206341D01*
X64635224Y-56014776D01*
X64443659Y-55851164D01*
X64228859Y-55719534D01*
X63996111Y-55623127D01*
X63991303Y-55621972D01*
X63991298Y-55621971D01*
X63755960Y-55565472D01*
X63755956Y-55565471D01*
X63751148Y-55564317D01*
X63746222Y-55563929D01*
X63746214Y-55563928D01*
X63565338Y-55549693D01*
X63565330Y-55549692D01*
X63562882Y-55549500D01*
X63437118Y-55549500D01*
X63434670Y-55549692D01*
X63434661Y-55549693D01*
X63253785Y-55563928D01*
X63253775Y-55563929D01*
X63248852Y-55564317D01*
X63244045Y-55565471D01*
X63244039Y-55565472D01*
X63008701Y-55621971D01*
X63008692Y-55621973D01*
X63003889Y-55623127D01*
X62999321Y-55625018D01*
X62999315Y-55625021D01*
X62775715Y-55717639D01*
X62775710Y-55717641D01*
X62771141Y-55719534D01*
X62766926Y-55722116D01*
X62766920Y-55722120D01*
X62560558Y-55848579D01*
X62560550Y-55848584D01*
X62556341Y-55851164D01*
X62552580Y-55854375D01*
X62552576Y-55854379D01*
X62368538Y-56011562D01*
X62368531Y-56011568D01*
X62364776Y-56014776D01*
X62361568Y-56018531D01*
X62361562Y-56018538D01*
X62204379Y-56202576D01*
X62204375Y-56202580D01*
X62201164Y-56206341D01*
X62198584Y-56210550D01*
X62198579Y-56210558D01*
X62072120Y-56416920D01*
X62072116Y-56416926D01*
X62069534Y-56421141D01*
X62067641Y-56425710D01*
X62067639Y-56425715D01*
X61975021Y-56649315D01*
X61975018Y-56649321D01*
X61973127Y-56653889D01*
X61971973Y-56658692D01*
X61971971Y-56658701D01*
X61915472Y-56894039D01*
X61914317Y-56898852D01*
X61913929Y-56903775D01*
X61913928Y-56903785D01*
X61894939Y-57145070D01*
X61894551Y-57150000D01*
X60975500Y-57150000D01*
X60975500Y-50649901D01*
X60978582Y-50649901D01*
X60978582Y-50649899D01*
X60975499Y-50649900D01*
X60975491Y-50593610D01*
X60971240Y-50574999D01*
X62344571Y-50574999D01*
X62364244Y-50787309D01*
X62422595Y-50992388D01*
X62425186Y-50997592D01*
X62425189Y-50997599D01*
X62515037Y-51178039D01*
X62517634Y-51183254D01*
X62521142Y-51187899D01*
X62521145Y-51187904D01*
X62630751Y-51333044D01*
X62646128Y-51353406D01*
X62650430Y-51357328D01*
X62650433Y-51357331D01*
X62799394Y-51493128D01*
X62799398Y-51493131D01*
X62803698Y-51497051D01*
X62984981Y-51609297D01*
X62990411Y-51611400D01*
X62990414Y-51611402D01*
X63062229Y-51639222D01*
X63183802Y-51686320D01*
X63393390Y-51725499D01*
X63600783Y-51725499D01*
X63606610Y-51725499D01*
X63816198Y-51686320D01*
X64015019Y-51609297D01*
X64196302Y-51497051D01*
X64353872Y-51353406D01*
X64482366Y-51183254D01*
X64577405Y-50992388D01*
X64635756Y-50787309D01*
X64655429Y-50574999D01*
X64635756Y-50362689D01*
X64577405Y-50157610D01*
X64574155Y-50151084D01*
X64484962Y-49971958D01*
X64482366Y-49966744D01*
X64353872Y-49796592D01*
X64349568Y-49792669D01*
X64349566Y-49792666D01*
X64200605Y-49656869D01*
X64200600Y-49656865D01*
X64196302Y-49652947D01*
X64157284Y-49628788D01*
X64019975Y-49543769D01*
X64019969Y-49543766D01*
X64015019Y-49540701D01*
X64009592Y-49538598D01*
X64009585Y-49538595D01*
X63821627Y-49465781D01*
X63821625Y-49465780D01*
X63816198Y-49463678D01*
X63810476Y-49462608D01*
X63810475Y-49462608D01*
X63612335Y-49425569D01*
X63612332Y-49425568D01*
X63606610Y-49424499D01*
X63393390Y-49424499D01*
X63387668Y-49425568D01*
X63387664Y-49425569D01*
X63189524Y-49462608D01*
X63189520Y-49462609D01*
X63183802Y-49463678D01*
X63178377Y-49465779D01*
X63178372Y-49465781D01*
X62990414Y-49538595D01*
X62990402Y-49538600D01*
X62984981Y-49540701D01*
X62980034Y-49543763D01*
X62980024Y-49543769D01*
X62808649Y-49649881D01*
X62808645Y-49649883D01*
X62803698Y-49652947D01*
X62799404Y-49656861D01*
X62799394Y-49656869D01*
X62650433Y-49792666D01*
X62650425Y-49792674D01*
X62646128Y-49796592D01*
X62642619Y-49801238D01*
X62642615Y-49801243D01*
X62521145Y-49962093D01*
X62521139Y-49962102D01*
X62517634Y-49966744D01*
X62515040Y-49971951D01*
X62515037Y-49971958D01*
X62425189Y-50152398D01*
X62425184Y-50152409D01*
X62422595Y-50157610D01*
X62421003Y-50163203D01*
X62421001Y-50163210D01*
X62382256Y-50299384D01*
X62364244Y-50362689D01*
X62363707Y-50368481D01*
X62363707Y-50368483D01*
X62361861Y-50388405D01*
X62344571Y-50574999D01*
X60971240Y-50574999D01*
X60950379Y-50483662D01*
X60901437Y-50382055D01*
X60831118Y-50293882D01*
X60742945Y-50223563D01*
X60736570Y-50220492D01*
X60736568Y-50220491D01*
X60647709Y-50177690D01*
X60647710Y-50177690D01*
X60641338Y-50174621D01*
X60634450Y-50173047D01*
X60634445Y-50173046D01*
X60538289Y-50151084D01*
X60538282Y-50151083D01*
X60531390Y-50149509D01*
X60524318Y-50149507D01*
X60524311Y-50149507D01*
X60475099Y-50149500D01*
X47475500Y-50149500D01*
X47475000Y-50149500D01*
X47418607Y-50149500D01*
X47411715Y-50151072D01*
X47411706Y-50151074D01*
X47315550Y-50173021D01*
X47315542Y-50173023D01*
X47308649Y-50174597D01*
X47302279Y-50177664D01*
X47302272Y-50177667D01*
X47213405Y-50220464D01*
X47213402Y-50220465D01*
X47207033Y-50223533D01*
X47201504Y-50227941D01*
X47201501Y-50227944D01*
X47124384Y-50289443D01*
X47124379Y-50289447D01*
X47118854Y-50293854D01*
X47114447Y-50299379D01*
X47114443Y-50299384D01*
X47052944Y-50376501D01*
X47052941Y-50376504D01*
X47048533Y-50382033D01*
X47045465Y-50388402D01*
X47045464Y-50388405D01*
X47002667Y-50477272D01*
X47002664Y-50477279D01*
X46999597Y-50483649D01*
X46998023Y-50490542D01*
X46998021Y-50490550D01*
X46976074Y-50586706D01*
X46976072Y-50586715D01*
X46974500Y-50593607D01*
X46974500Y-50600685D01*
X46974500Y-63650000D01*
X43875500Y-63650000D01*
X43875500Y-50578292D01*
X43875673Y-50571699D01*
X43879925Y-50490554D01*
X43882493Y-50441551D01*
X43893230Y-50250359D01*
X43894578Y-50237757D01*
X43918704Y-50085436D01*
X43918874Y-50084400D01*
X43947109Y-49918228D01*
X43949611Y-49906769D01*
X43990656Y-49753585D01*
X43991241Y-49751483D01*
X44036637Y-49593908D01*
X44040064Y-49583690D01*
X44097535Y-49433971D01*
X44098702Y-49431048D01*
X44160759Y-49281229D01*
X44164882Y-49272286D01*
X44238085Y-49128620D01*
X44240041Y-49124934D01*
X44318024Y-48983833D01*
X44322569Y-48976259D01*
X44410731Y-48840500D01*
X44413549Y-48836352D01*
X44506580Y-48705237D01*
X44511341Y-48698960D01*
X44613346Y-48572994D01*
X44617230Y-48568429D01*
X44724229Y-48448697D01*
X44729016Y-48443635D01*
X44843638Y-48329013D01*
X44848719Y-48324209D01*
X44968369Y-48217284D01*
X44973033Y-48213315D01*
X45098943Y-48111355D01*
X45105279Y-48106550D01*
X45236359Y-48013544D01*
X45240488Y-48010740D01*
X45376235Y-47922584D01*
X45383855Y-47918012D01*
X45524983Y-47840013D01*
X45528559Y-47838115D01*
X45672297Y-47764877D01*
X45681236Y-47760755D01*
X45831138Y-47698664D01*
X45833927Y-47697552D01*
X45983693Y-47640062D01*
X45993904Y-47636639D01*
X46151600Y-47591207D01*
X46153472Y-47590686D01*
X46306766Y-47549611D01*
X46318232Y-47547107D01*
X46484299Y-47518891D01*
X46485539Y-47518687D01*
X46637758Y-47494578D01*
X46650360Y-47493230D01*
X46841280Y-47482507D01*
X46964997Y-47476024D01*
X46971719Y-47475672D01*
X46978312Y-47475499D01*
X251471709Y-47475499D01*
X251478300Y-47475671D01*
G37*
%TD.AperFunction*%
M02*
