%TF.GenerationSoftware,KiCad,Pcbnew,(7.0.0)*%
%TF.CreationDate,2023-04-11T20:59:51+02:00*%
%TF.ProjectId,travaulta plate niz,74726176-6175-46c7-9461-20706c617465,rev?*%
%TF.SameCoordinates,Original*%
%TF.FileFunction,Profile,NP*%
%FSLAX46Y46*%
G04 Gerber Fmt 4.6, Leading zero omitted, Abs format (unit mm)*
G04 Created by KiCad (PCBNEW (7.0.0)) date 2023-04-11 20:59:51*
%MOMM*%
%LPD*%
G01*
G04 APERTURE LIST*
%TA.AperFunction,Profile*%
%ADD10C,0.200000*%
%TD*%
%TA.AperFunction,Profile*%
%ADD11C,0.100000*%
%TD*%
G04 APERTURE END LIST*
D10*
X254575000Y-50574999D02*
X254575000Y-102674999D01*
X46975000Y-47475000D02*
G75*
G03*
X43875000Y-50574999I0J-3100000D01*
G01*
X251475000Y-105774999D02*
X227200000Y-105774999D01*
X227200000Y-105775000D02*
G75*
G03*
X226000000Y-106974999I0J-1200000D01*
G01*
X72450001Y-106974999D02*
G75*
G03*
X71250000Y-105774999I-1200001J-1D01*
G01*
X222900000Y-124824999D02*
X75550000Y-124824999D01*
X72450000Y-121724999D02*
X72450000Y-106974999D01*
X72450001Y-121724999D02*
G75*
G03*
X75550000Y-124824999I3099999J-1D01*
G01*
X236100000Y-50574999D02*
G75*
G03*
X236100000Y-50574999I-1150000J0D01*
G01*
X43875000Y-102674999D02*
X43875000Y-50574999D01*
X254575001Y-50574999D02*
G75*
G03*
X251475000Y-47474999I-3100001J-1D01*
G01*
X64650000Y-50574999D02*
G75*
G03*
X64650000Y-50574999I-1150000J0D01*
G01*
X251475000Y-105775000D02*
G75*
G03*
X254575000Y-102674999I0J3100000D01*
G01*
X46975000Y-47474999D02*
X251475000Y-47474999D01*
X226000000Y-106974999D02*
X226000000Y-121724999D01*
X222900000Y-124825000D02*
G75*
G03*
X226000000Y-121724999I0J3100000D01*
G01*
X47866000Y-102933999D02*
G75*
G03*
X47866000Y-102933999I-1150000J0D01*
G01*
X252884375Y-102933999D02*
G75*
G03*
X252884375Y-102933999I-1150000J0D01*
G01*
X43875001Y-102674999D02*
G75*
G03*
X46975000Y-105774999I3099999J-1D01*
G01*
X71250000Y-105774999D02*
X46975000Y-105774999D01*
D11*
%TO.C,REF\u002A\u002A*%
X185087500Y-69700000D02*
X185087500Y-82700000D01*
X185587500Y-69200000D02*
X198587500Y-69200000D01*
X185587500Y-83200000D02*
X198587500Y-83200000D01*
X199087500Y-69700000D02*
X199087500Y-82700000D01*
X185587500Y-69200000D02*
G75*
G03*
X185087500Y-69700000I1J-500001D01*
G01*
X185087500Y-82700000D02*
G75*
G03*
X185587500Y-83200000I500094J94D01*
G01*
X199087500Y-69700000D02*
G75*
G03*
X198587500Y-69200000I-500100J-100D01*
G01*
X198587500Y-83200000D02*
G75*
G03*
X199087500Y-82700000I0J500000D01*
G01*
X118412500Y-88750000D02*
X118412500Y-101750000D01*
X118912500Y-88250000D02*
X131912500Y-88250000D01*
X118912500Y-102250000D02*
X131912500Y-102250000D01*
X132412500Y-88750000D02*
X132412500Y-101750000D01*
X118912500Y-88250000D02*
G75*
G03*
X118412500Y-88750000I1J-500001D01*
G01*
X118412500Y-101750000D02*
G75*
G03*
X118912500Y-102250000I500094J94D01*
G01*
X132412500Y-88750000D02*
G75*
G03*
X131912500Y-88250000I-500100J-100D01*
G01*
X131912500Y-102250000D02*
G75*
G03*
X132412500Y-101750000I0J500000D01*
G01*
X180325000Y-50650000D02*
X180325000Y-63650000D01*
X180825000Y-50150000D02*
X193825000Y-50150000D01*
X180825000Y-64150000D02*
X193825000Y-64150000D01*
X194325000Y-50650000D02*
X194325000Y-63650000D01*
X180825000Y-50150000D02*
G75*
G03*
X180325000Y-50650000I1J-500001D01*
G01*
X180325000Y-63650000D02*
G75*
G03*
X180825000Y-64150000I500094J94D01*
G01*
X194325000Y-50650000D02*
G75*
G03*
X193825000Y-50150000I-500100J-100D01*
G01*
X193825000Y-64150000D02*
G75*
G03*
X194325000Y-63650000I0J500000D01*
G01*
X127937500Y-69700000D02*
X127937500Y-82700000D01*
X128437500Y-69200000D02*
X141437500Y-69200000D01*
X128437500Y-83200000D02*
X141437500Y-83200000D01*
X141937500Y-69700000D02*
X141937500Y-82700000D01*
X128437500Y-69200000D02*
G75*
G03*
X127937500Y-69700000I1J-500001D01*
G01*
X127937500Y-82700000D02*
G75*
G03*
X128437500Y-83200000I500094J94D01*
G01*
X141937500Y-69700000D02*
G75*
G03*
X141437500Y-69200000I-500100J-100D01*
G01*
X141437500Y-83200000D02*
G75*
G03*
X141937500Y-82700000I0J500000D01*
G01*
X89837500Y-69700000D02*
X89837500Y-82700000D01*
X90337500Y-69200000D02*
X103337500Y-69200000D01*
X90337500Y-83200000D02*
X103337500Y-83200000D01*
X103837500Y-69700000D02*
X103837500Y-82700000D01*
X90337500Y-69200000D02*
G75*
G03*
X89837500Y-69700000I1J-500001D01*
G01*
X89837500Y-82700000D02*
G75*
G03*
X90337500Y-83200000I500094J94D01*
G01*
X103837500Y-69700000D02*
G75*
G03*
X103337500Y-69200000I-500100J-100D01*
G01*
X103337500Y-83200000D02*
G75*
G03*
X103837500Y-82700000I0J500000D01*
G01*
X108887500Y-69700000D02*
X108887500Y-82700000D01*
X109387500Y-69200000D02*
X122387500Y-69200000D01*
X109387500Y-83200000D02*
X122387500Y-83200000D01*
X122887500Y-69700000D02*
X122887500Y-82700000D01*
X109387500Y-69200000D02*
G75*
G03*
X108887500Y-69700000I1J-500001D01*
G01*
X108887500Y-82700000D02*
G75*
G03*
X109387500Y-83200000I500094J94D01*
G01*
X122887500Y-69700000D02*
G75*
G03*
X122387500Y-69200000I-500100J-100D01*
G01*
X122387500Y-83200000D02*
G75*
G03*
X122887500Y-82700000I0J500000D01*
G01*
X187470000Y-107800000D02*
X187470000Y-120800000D01*
X187970000Y-107300000D02*
X200970000Y-107300000D01*
X187970000Y-121300000D02*
X200970000Y-121300000D01*
X201470000Y-107800000D02*
X201470000Y-120800000D01*
X187970000Y-107300000D02*
G75*
G03*
X187470000Y-107800000I1J-500001D01*
G01*
X187470000Y-120800000D02*
G75*
G03*
X187970000Y-121300000I500094J94D01*
G01*
X201470000Y-107800000D02*
G75*
G03*
X200970000Y-107300000I-500100J-100D01*
G01*
X200970000Y-121300000D02*
G75*
G03*
X201470000Y-120800000I0J500000D01*
G01*
X158892000Y-107800000D02*
X158892000Y-120800000D01*
X159392000Y-107300000D02*
X172392000Y-107300000D01*
X159392000Y-121300000D02*
X172392000Y-121300000D01*
X172892000Y-107800000D02*
X172892000Y-120800000D01*
X159392000Y-107300000D02*
G75*
G03*
X158892000Y-107800000I1J-500001D01*
G01*
X158892000Y-120800000D02*
G75*
G03*
X159392000Y-121300000I500094J94D01*
G01*
X172892000Y-107800000D02*
G75*
G03*
X172392000Y-107300000I-500100J-100D01*
G01*
X172392000Y-121300000D02*
G75*
G03*
X172892000Y-120800000I0J500000D01*
G01*
X70787500Y-69700000D02*
X70787500Y-82700000D01*
X71287500Y-69200000D02*
X84287500Y-69200000D01*
X71287500Y-83200000D02*
X84287500Y-83200000D01*
X84787500Y-69700000D02*
X84787500Y-82700000D01*
X71287500Y-69200000D02*
G75*
G03*
X70787500Y-69700000I1J-500001D01*
G01*
X70787500Y-82700000D02*
G75*
G03*
X71287500Y-83200000I500094J94D01*
G01*
X84787500Y-69700000D02*
G75*
G03*
X84287500Y-69200000I-500100J-100D01*
G01*
X84287500Y-83200000D02*
G75*
G03*
X84787500Y-82700000I0J500000D01*
G01*
X125555000Y-107800000D02*
X125555000Y-120800000D01*
X126055000Y-107300000D02*
X139055000Y-107300000D01*
X126055000Y-121300000D02*
X139055000Y-121300000D01*
X139555000Y-107800000D02*
X139555000Y-120800000D01*
X126055000Y-107300000D02*
G75*
G03*
X125555000Y-107800000I1J-500001D01*
G01*
X125555000Y-120800000D02*
G75*
G03*
X126055000Y-121300000I500094J94D01*
G01*
X139555000Y-107800000D02*
G75*
G03*
X139055000Y-107300000I-500100J-100D01*
G01*
X139055000Y-121300000D02*
G75*
G03*
X139555000Y-120800000I0J500000D01*
G01*
X156512500Y-88750000D02*
X156512500Y-101750000D01*
X157012500Y-88250000D02*
X170012500Y-88250000D01*
X157012500Y-102250000D02*
X170012500Y-102250000D01*
X170512500Y-88750000D02*
X170512500Y-101750000D01*
X157012500Y-88250000D02*
G75*
G03*
X156512500Y-88750000I1J-500001D01*
G01*
X156512500Y-101750000D02*
G75*
G03*
X157012500Y-102250000I500094J94D01*
G01*
X170512500Y-88750000D02*
G75*
G03*
X170012500Y-88250000I-500100J-100D01*
G01*
X170012500Y-102250000D02*
G75*
G03*
X170512500Y-101750000I0J500000D01*
G01*
X75550000Y-107800000D02*
X75550000Y-120800000D01*
X76050000Y-107300000D02*
X89050000Y-107300000D01*
X76050000Y-121300000D02*
X89050000Y-121300000D01*
X89550000Y-107800000D02*
X89550000Y-120800000D01*
X76050000Y-107300000D02*
G75*
G03*
X75550000Y-107800000I1J-500001D01*
G01*
X75550000Y-120800000D02*
G75*
G03*
X76050000Y-121300000I500094J94D01*
G01*
X89550000Y-107800000D02*
G75*
G03*
X89050000Y-107300000I-500100J-100D01*
G01*
X89050000Y-121300000D02*
G75*
G03*
X89550000Y-120800000I0J500000D01*
G01*
X146987500Y-69700000D02*
X146987500Y-82700000D01*
X147487500Y-69200000D02*
X160487500Y-69200000D01*
X147487500Y-83200000D02*
X160487500Y-83200000D01*
X160987500Y-69700000D02*
X160987500Y-82700000D01*
X147487500Y-69200000D02*
G75*
G03*
X146987500Y-69700000I1J-500001D01*
G01*
X146987500Y-82700000D02*
G75*
G03*
X147487500Y-83200000I500094J94D01*
G01*
X160987500Y-69700000D02*
G75*
G03*
X160487500Y-69200000I-500100J-100D01*
G01*
X160487500Y-83200000D02*
G75*
G03*
X160987500Y-82700000I0J500000D01*
G01*
X218425000Y-50650000D02*
X218425000Y-63650000D01*
X218925000Y-50150000D02*
X231925000Y-50150000D01*
X218925000Y-64150000D02*
X231925000Y-64150000D01*
X232425000Y-50650000D02*
X232425000Y-63650000D01*
X218925000Y-50150000D02*
G75*
G03*
X218425000Y-50650000I1J-500001D01*
G01*
X218425000Y-63650000D02*
G75*
G03*
X218925000Y-64150000I500094J94D01*
G01*
X232425000Y-50650000D02*
G75*
G03*
X231925000Y-50150000I-500100J-100D01*
G01*
X231925000Y-64150000D02*
G75*
G03*
X232425000Y-63650000I0J500000D01*
G01*
X54120000Y-88750000D02*
X54120000Y-101750000D01*
X54620000Y-88250000D02*
X67620000Y-88250000D01*
X54620000Y-102250000D02*
X67620000Y-102250000D01*
X68120000Y-88750000D02*
X68120000Y-101750000D01*
X54620000Y-88250000D02*
G75*
G03*
X54120000Y-88750000I1J-500001D01*
G01*
X54120000Y-101750000D02*
G75*
G03*
X54620000Y-102250000I500094J94D01*
G01*
X68120000Y-88750000D02*
G75*
G03*
X67620000Y-88250000I-500100J-100D01*
G01*
X67620000Y-102250000D02*
G75*
G03*
X68120000Y-101750000I0J500000D01*
G01*
X161275000Y-50650000D02*
X161275000Y-63650000D01*
X161775000Y-50150000D02*
X174775000Y-50150000D01*
X161775000Y-64150000D02*
X174775000Y-64150000D01*
X175275000Y-50650000D02*
X175275000Y-63650000D01*
X161775000Y-50150000D02*
G75*
G03*
X161275000Y-50650000I1J-500001D01*
G01*
X161275000Y-63650000D02*
G75*
G03*
X161775000Y-64150000I500094J94D01*
G01*
X175275000Y-50650000D02*
G75*
G03*
X174775000Y-50150000I-500100J-100D01*
G01*
X174775000Y-64150000D02*
G75*
G03*
X175275000Y-63650000I0J500000D01*
G01*
X194612500Y-88750000D02*
X194612500Y-101750000D01*
X195112500Y-88250000D02*
X208112500Y-88250000D01*
X195112500Y-102250000D02*
X208112500Y-102250000D01*
X208612500Y-88750000D02*
X208612500Y-101750000D01*
X195112500Y-88250000D02*
G75*
G03*
X194612500Y-88750000I1J-500001D01*
G01*
X194612500Y-101750000D02*
G75*
G03*
X195112500Y-102250000I500094J94D01*
G01*
X208612500Y-88750000D02*
G75*
G03*
X208112500Y-88250000I-500100J-100D01*
G01*
X208112500Y-102250000D02*
G75*
G03*
X208612500Y-101750000I0J500000D01*
G01*
X230330000Y-69700000D02*
X230330000Y-82700000D01*
X230830000Y-69200000D02*
X243830000Y-69200000D01*
X230830000Y-83200000D02*
X243830000Y-83200000D01*
X244330000Y-69700000D02*
X244330000Y-82700000D01*
X230830000Y-69200000D02*
G75*
G03*
X230330000Y-69700000I1J-500001D01*
G01*
X230330000Y-82700000D02*
G75*
G03*
X230830000Y-83200000I500094J94D01*
G01*
X244330000Y-69700000D02*
G75*
G03*
X243830000Y-69200000I-500100J-100D01*
G01*
X243830000Y-83200000D02*
G75*
G03*
X244330000Y-82700000I0J500000D01*
G01*
X46975000Y-50650000D02*
X46975000Y-63650000D01*
X47475000Y-50150000D02*
X60475000Y-50150000D01*
X47475000Y-64150000D02*
X60475000Y-64150000D01*
X60975000Y-50650000D02*
X60975000Y-63650000D01*
X47475000Y-50150000D02*
G75*
G03*
X46975000Y-50650000I1J-500001D01*
G01*
X46975000Y-63650000D02*
G75*
G03*
X47475000Y-64150000I500094J94D01*
G01*
X60975000Y-50650000D02*
G75*
G03*
X60475000Y-50150000I-500100J-100D01*
G01*
X60475000Y-64150000D02*
G75*
G03*
X60975000Y-63650000I0J500000D01*
G01*
X213662500Y-88750000D02*
X213662500Y-101750000D01*
X214162500Y-88250000D02*
X227162500Y-88250000D01*
X214162500Y-102250000D02*
X227162500Y-102250000D01*
X227662500Y-88750000D02*
X227662500Y-101750000D01*
X214162500Y-88250000D02*
G75*
G03*
X213662500Y-88750000I1J-500001D01*
G01*
X213662500Y-101750000D02*
G75*
G03*
X214162500Y-102250000I500094J94D01*
G01*
X227662500Y-88750000D02*
G75*
G03*
X227162500Y-88250000I-500100J-100D01*
G01*
X227162500Y-102250000D02*
G75*
G03*
X227662500Y-101750000I0J500000D01*
G01*
X166037500Y-69700000D02*
X166037500Y-82700000D01*
X166537500Y-69200000D02*
X179537500Y-69200000D01*
X166537500Y-83200000D02*
X179537500Y-83200000D01*
X180037500Y-69700000D02*
X180037500Y-82700000D01*
X166537500Y-69200000D02*
G75*
G03*
X166037500Y-69700000I1J-500001D01*
G01*
X166037500Y-82700000D02*
G75*
G03*
X166537500Y-83200000I500094J94D01*
G01*
X180037500Y-69700000D02*
G75*
G03*
X179537500Y-69200000I-500100J-100D01*
G01*
X179537500Y-83200000D02*
G75*
G03*
X180037500Y-82700000I0J500000D01*
G01*
X208900000Y-107800000D02*
X208900000Y-120800000D01*
X209400000Y-107300000D02*
X222400000Y-107300000D01*
X209400000Y-121300000D02*
X222400000Y-121300000D01*
X222900000Y-107800000D02*
X222900000Y-120800000D01*
X209400000Y-107300000D02*
G75*
G03*
X208900000Y-107800000I1J-500001D01*
G01*
X208900000Y-120800000D02*
G75*
G03*
X209400000Y-121300000I500094J94D01*
G01*
X222900000Y-107800000D02*
G75*
G03*
X222400000Y-107300000I-500100J-100D01*
G01*
X222400000Y-121300000D02*
G75*
G03*
X222900000Y-120800000I0J500000D01*
G01*
X99362500Y-88750000D02*
X99362500Y-101750000D01*
X99862500Y-88250000D02*
X112862500Y-88250000D01*
X99862500Y-102250000D02*
X112862500Y-102250000D01*
X113362500Y-88750000D02*
X113362500Y-101750000D01*
X99862500Y-88250000D02*
G75*
G03*
X99362500Y-88750000I1J-500001D01*
G01*
X99362500Y-101750000D02*
G75*
G03*
X99862500Y-102250000I500094J94D01*
G01*
X113362500Y-88750000D02*
G75*
G03*
X112862500Y-88250000I-500100J-100D01*
G01*
X112862500Y-102250000D02*
G75*
G03*
X113362500Y-101750000I0J500000D01*
G01*
X104125000Y-50650000D02*
X104125000Y-63650000D01*
X104625000Y-50150000D02*
X117625000Y-50150000D01*
X104625000Y-64150000D02*
X117625000Y-64150000D01*
X118125000Y-50650000D02*
X118125000Y-63650000D01*
X104625000Y-50150000D02*
G75*
G03*
X104125000Y-50650000I1J-500001D01*
G01*
X104125000Y-63650000D02*
G75*
G03*
X104625000Y-64150000I500094J94D01*
G01*
X118125000Y-50650000D02*
G75*
G03*
X117625000Y-50150000I-500100J-100D01*
G01*
X117625000Y-64150000D02*
G75*
G03*
X118125000Y-63650000I0J500000D01*
G01*
X235095000Y-88750000D02*
X235095000Y-101750000D01*
X235595000Y-88250000D02*
X248595000Y-88250000D01*
X235595000Y-102250000D02*
X248595000Y-102250000D01*
X249095000Y-88750000D02*
X249095000Y-101750000D01*
X235595000Y-88250000D02*
G75*
G03*
X235095000Y-88750000I1J-500001D01*
G01*
X235095000Y-101750000D02*
G75*
G03*
X235595000Y-102250000I500094J94D01*
G01*
X249095000Y-88750000D02*
G75*
G03*
X248595000Y-88250000I-500100J-100D01*
G01*
X248595000Y-102250000D02*
G75*
G03*
X249095000Y-101750000I0J500000D01*
G01*
X175562500Y-88750000D02*
X175562500Y-101750000D01*
X176062500Y-88250000D02*
X189062500Y-88250000D01*
X176062500Y-102250000D02*
X189062500Y-102250000D01*
X189562500Y-88750000D02*
X189562500Y-101750000D01*
X176062500Y-88250000D02*
G75*
G03*
X175562500Y-88750000I1J-500001D01*
G01*
X175562500Y-101750000D02*
G75*
G03*
X176062500Y-102250000I500094J94D01*
G01*
X189562500Y-88750000D02*
G75*
G03*
X189062500Y-88250000I-500100J-100D01*
G01*
X189062500Y-102250000D02*
G75*
G03*
X189562500Y-101750000I0J500000D01*
G01*
X137462500Y-88750000D02*
X137462500Y-101750000D01*
X137962500Y-88250000D02*
X150962500Y-88250000D01*
X137962500Y-102250000D02*
X150962500Y-102250000D01*
X151462500Y-88750000D02*
X151462500Y-101750000D01*
X137962500Y-88250000D02*
G75*
G03*
X137462500Y-88750000I1J-500001D01*
G01*
X137462500Y-101750000D02*
G75*
G03*
X137962500Y-102250000I500094J94D01*
G01*
X151462500Y-88750000D02*
G75*
G03*
X150962500Y-88250000I-500100J-100D01*
G01*
X150962500Y-102250000D02*
G75*
G03*
X151462500Y-101750000I0J500000D01*
G01*
X49358000Y-69700000D02*
X49358000Y-82700000D01*
X49858000Y-69200000D02*
X62858000Y-69200000D01*
X49858000Y-83200000D02*
X62858000Y-83200000D01*
X63358000Y-69700000D02*
X63358000Y-82700000D01*
X49858000Y-69200000D02*
G75*
G03*
X49358000Y-69700000I1J-500001D01*
G01*
X49358000Y-82700000D02*
G75*
G03*
X49858000Y-83200000I500094J94D01*
G01*
X63358000Y-69700000D02*
G75*
G03*
X62858000Y-69200000I-500100J-100D01*
G01*
X62858000Y-83200000D02*
G75*
G03*
X63358000Y-82700000I0J500000D01*
G01*
X66025000Y-50650000D02*
X66025000Y-63650000D01*
X66525000Y-50150000D02*
X79525000Y-50150000D01*
X66525000Y-64150000D02*
X79525000Y-64150000D01*
X80025000Y-50650000D02*
X80025000Y-63650000D01*
X66525000Y-50150000D02*
G75*
G03*
X66025000Y-50650000I1J-500001D01*
G01*
X66025000Y-63650000D02*
G75*
G03*
X66525000Y-64150000I500094J94D01*
G01*
X80025000Y-50650000D02*
G75*
G03*
X79525000Y-50150000I-500100J-100D01*
G01*
X79525000Y-64150000D02*
G75*
G03*
X80025000Y-63650000I0J500000D01*
G01*
X142225000Y-50650000D02*
X142225000Y-63650000D01*
X142725000Y-50150000D02*
X155725000Y-50150000D01*
X142725000Y-64150000D02*
X155725000Y-64150000D01*
X156225000Y-50650000D02*
X156225000Y-63650000D01*
X142725000Y-50150000D02*
G75*
G03*
X142225000Y-50650000I1J-500001D01*
G01*
X142225000Y-63650000D02*
G75*
G03*
X142725000Y-64150000I500094J94D01*
G01*
X156225000Y-50650000D02*
G75*
G03*
X155725000Y-50150000I-500100J-100D01*
G01*
X155725000Y-64150000D02*
G75*
G03*
X156225000Y-63650000I0J500000D01*
G01*
X123175000Y-50650000D02*
X123175000Y-63650000D01*
X123675000Y-50150000D02*
X136675000Y-50150000D01*
X123675000Y-64150000D02*
X136675000Y-64150000D01*
X137175000Y-50650000D02*
X137175000Y-63650000D01*
X123675000Y-50150000D02*
G75*
G03*
X123175000Y-50650000I1J-500001D01*
G01*
X123175000Y-63650000D02*
G75*
G03*
X123675000Y-64150000I500094J94D01*
G01*
X137175000Y-50650000D02*
G75*
G03*
X136675000Y-50150000I-500100J-100D01*
G01*
X136675000Y-64150000D02*
G75*
G03*
X137175000Y-63650000I0J500000D01*
G01*
X80312500Y-88750000D02*
X80312500Y-101750000D01*
X80812500Y-88250000D02*
X93812500Y-88250000D01*
X80812500Y-102250000D02*
X93812500Y-102250000D01*
X94312500Y-88750000D02*
X94312500Y-101750000D01*
X80812500Y-88250000D02*
G75*
G03*
X80312500Y-88750000I1J-500001D01*
G01*
X80312500Y-101750000D02*
G75*
G03*
X80812500Y-102250000I500094J94D01*
G01*
X94312500Y-88750000D02*
G75*
G03*
X93812500Y-88250000I-500100J-100D01*
G01*
X93812500Y-102250000D02*
G75*
G03*
X94312500Y-101750000I0J500000D01*
G01*
X237475000Y-50650000D02*
X237475000Y-63650000D01*
X237975000Y-50150000D02*
X250975000Y-50150000D01*
X237975000Y-64150000D02*
X250975000Y-64150000D01*
X251475000Y-50650000D02*
X251475000Y-63650000D01*
X237975000Y-50150000D02*
G75*
G03*
X237475000Y-50650000I1J-500001D01*
G01*
X237475000Y-63650000D02*
G75*
G03*
X237975000Y-64150000I500094J94D01*
G01*
X251475000Y-50650000D02*
G75*
G03*
X250975000Y-50150000I-500100J-100D01*
G01*
X250975000Y-64150000D02*
G75*
G03*
X251475000Y-63650000I0J500000D01*
G01*
X85075000Y-50650000D02*
X85075000Y-63650000D01*
X85575000Y-50150000D02*
X98575000Y-50150000D01*
X85575000Y-64150000D02*
X98575000Y-64150000D01*
X99075000Y-50650000D02*
X99075000Y-63650000D01*
X85575000Y-50150000D02*
G75*
G03*
X85075000Y-50650000I1J-500001D01*
G01*
X85075000Y-63650000D02*
G75*
G03*
X85575000Y-64150000I500094J94D01*
G01*
X99075000Y-50650000D02*
G75*
G03*
X98575000Y-50150000I-500100J-100D01*
G01*
X98575000Y-64150000D02*
G75*
G03*
X99075000Y-63650000I0J500000D01*
G01*
X96980000Y-107800000D02*
X96980000Y-120800000D01*
X97480000Y-107300000D02*
X110480000Y-107300000D01*
X97480000Y-121300000D02*
X110480000Y-121300000D01*
X110980000Y-107800000D02*
X110980000Y-120800000D01*
X97480000Y-107300000D02*
G75*
G03*
X96980000Y-107800000I1J-500001D01*
G01*
X96980000Y-120800000D02*
G75*
G03*
X97480000Y-121300000I500094J94D01*
G01*
X110980000Y-107800000D02*
G75*
G03*
X110480000Y-107300000I-500100J-100D01*
G01*
X110480000Y-121300000D02*
G75*
G03*
X110980000Y-120800000I0J500000D01*
G01*
X204137500Y-69700000D02*
X204137500Y-82700000D01*
X204637500Y-69200000D02*
X217637500Y-69200000D01*
X204637500Y-83200000D02*
X217637500Y-83200000D01*
X218137500Y-69700000D02*
X218137500Y-82700000D01*
X204637500Y-69200000D02*
G75*
G03*
X204137500Y-69700000I1J-500001D01*
G01*
X204137500Y-82700000D02*
G75*
G03*
X204637500Y-83200000I500094J94D01*
G01*
X218137500Y-69700000D02*
G75*
G03*
X217637500Y-69200000I-500100J-100D01*
G01*
X217637500Y-83200000D02*
G75*
G03*
X218137500Y-82700000I0J500000D01*
G01*
X199375000Y-50650000D02*
X199375000Y-63650000D01*
X199875000Y-50150000D02*
X212875000Y-50150000D01*
X199875000Y-64150000D02*
X212875000Y-64150000D01*
X213375000Y-50650000D02*
X213375000Y-63650000D01*
X199875000Y-50150000D02*
G75*
G03*
X199375000Y-50650000I1J-500001D01*
G01*
X199375000Y-63650000D02*
G75*
G03*
X199875000Y-64150000I500094J94D01*
G01*
X213375000Y-50650000D02*
G75*
G03*
X212875000Y-50150000I-500100J-100D01*
G01*
X212875000Y-64150000D02*
G75*
G03*
X213375000Y-63650000I0J500000D01*
G01*
%TD*%
M02*
