  0
SECTION
  2
HEADER
  9
$ANGBASE
  50
0.0
  9
$ANGDIR
  70
1
  9
$MEASUREMENT
  70
0
  0
ENDSEC
  0
SECTION
  2
TABLES
  0
TABLE
  2
LTYPE
  70
4
  0
LTYPE
  5
40F
  2
CONTINUOUS
  70
0
  3
Solid line
  72
65
  73
0
  40
0.0
  0
LTYPE
  5
410
  2
DASHDOT
 70
0
  3
Dash Dot ____ _ ____ _
 72
65
 73
4
 40
2.0
 49
1.25
 49
-0.25
 49
0.25
 49
-0.25
  0
LTYPE
  5
411
  2
DASHED
 70
0
  3
Dashed __ __ __ __ __
 72
65
 73
2
 40
0.75
 49
0.5
 49
-0.25
  0
LTYPE
  5
43B
  2
DOTTED
 70
0
  3
Dotted .  .  .  .
 72
65
 73
2
 40
0.2
 49
0.0
 49
-0.2
  0
ENDTAB
  0
TABLE
  2
STYLE
  70
4
  0
STYLE
  2
KICAD
  70
0
  40
0
  41
1
  42
1
  50
0
  71
0
  3
isocp.shx
  0
STYLE
  2
KICADB
  70
0
  40
0
  41
1
  42
1
  50
0
  71
0
  3
isocp.shx
  0
STYLE
  2
KICADI
  70
0
  40
0
  41
1
  42
1
  50
15
  71
0
  3
isocp.shx
  0
STYLE
  2
KICADBI
  70
0
  40
0
  41
1
  42
1
  50
15
  71
0
  3
isocp.shx
  0
ENDTAB
  0
TABLE
  2
LAYER
  70
1
  0
LAYER
  2
BLACK
  70
0
  62
7
  6
CONTINUOUS
  0
ENDTAB
  0
ENDSEC
  0
SECTION
  2
ENTITIES
0
LINE
8
BLACK
6
CONTINUOUS
10
8.7497
20
-4.22274
11
8.7497
21
-4.22274
0
LINE
8
BLACK
6
CONTINUOUS
10
8.7497
20
-4.22274
11
8.78907
21
-4.26211
0
LINE
8
BLACK
6
CONTINUOUS
10
8.78907
20
-4.26211
11
8.78976
21
-4.26378
0
LINE
8
BLACK
6
CONTINUOUS
10
8.78976
20
-4.26378
11
8.78976
21
-4.26378
0
LINE
8
BLACK
6
CONTINUOUS
10
8.78976
20
-4.26378
11
8.78976
21
-4.73622
0
LINE
8
BLACK
6
CONTINUOUS
10
8.78976
20
-4.73622
11
8.78907
21
-4.73789
0
LINE
8
BLACK
6
CONTINUOUS
10
8.78907
20
-4.73789
11
8.7497
21
-4.77726
0
LINE
8
BLACK
6
CONTINUOUS
10
8.7497
20
-4.77726
11
8.74803
21
-4.77795
0
LINE
8
BLACK
6
CONTINUOUS
10
8.74803
20
-4.77795
11
8.25197
21
-4.77795
0
LINE
8
BLACK
6
CONTINUOUS
10
8.25197
20
-4.77795
11
8.2503
21
-4.77726
0
LINE
8
BLACK
6
CONTINUOUS
10
8.2503
20
-4.77726
11
8.21093
21
-4.73789
0
LINE
8
BLACK
6
CONTINUOUS
10
8.21093
20
-4.73789
11
8.21024
21
-4.73622
0
LINE
8
BLACK
6
CONTINUOUS
10
8.21024
20
-4.73622
11
8.21024
21
-4.26378
0
LINE
8
BLACK
6
CONTINUOUS
10
8.21024
20
-4.26378
11
8.21093
21
-4.26211
0
LINE
8
BLACK
6
CONTINUOUS
10
8.21093
20
-4.26211
11
8.2503
21
-4.22274
0
LINE
8
BLACK
6
CONTINUOUS
10
8.2503
20
-4.22274
11
8.25197
21
-4.22205
0
LINE
8
BLACK
6
CONTINUOUS
10
8.25197
20
-4.22205
11
8.74803
21
-4.22205
0
LINE
8
BLACK
6
CONTINUOUS
10
8.74803
20
-4.22205
11
8.7497
21
-4.22274
0
LINE
8
BLACK
6
CONTINUOUS
10
8.25295
20
-4.22677
11
8.21496
21
-4.26476
0
LINE
8
BLACK
6
CONTINUOUS
10
8.21496
20
-4.26476
11
8.21496
21
-4.73524
0
LINE
8
BLACK
6
CONTINUOUS
10
8.21496
20
-4.73524
11
8.25295
21
-4.77323
0
LINE
8
BLACK
6
CONTINUOUS
10
8.25295
20
-4.77323
11
8.74705
21
-4.77323
0
LINE
8
BLACK
6
CONTINUOUS
10
8.74705
20
-4.77323
11
8.78504
21
-4.73524
0
LINE
8
BLACK
6
CONTINUOUS
10
8.78504
20
-4.73524
11
8.78504
21
-4.26476
0
LINE
8
BLACK
6
CONTINUOUS
10
8.78504
20
-4.26476
11
8.74705
21
-4.22677
0
LINE
8
BLACK
6
CONTINUOUS
10
8.74705
20
-4.22677
11
8.25295
21
-4.22677
0
LINE
8
BLACK
6
CONTINUOUS
10
7.906
20
-4.22274
11
7.906
21
-4.22274
0
LINE
8
BLACK
6
CONTINUOUS
10
7.906
20
-4.22274
11
7.94537
21
-4.26211
0
LINE
8
BLACK
6
CONTINUOUS
10
7.94537
20
-4.26211
11
7.94606
21
-4.26378
0
LINE
8
BLACK
6
CONTINUOUS
10
7.94606
20
-4.26378
11
7.94606
21
-4.26378
0
LINE
8
BLACK
6
CONTINUOUS
10
7.94606
20
-4.26378
11
7.94606
21
-4.73622
0
LINE
8
BLACK
6
CONTINUOUS
10
7.94606
20
-4.73622
11
7.94537
21
-4.73789
0
LINE
8
BLACK
6
CONTINUOUS
10
7.94537
20
-4.73789
11
7.906
21
-4.77726
0
LINE
8
BLACK
6
CONTINUOUS
10
7.906
20
-4.77726
11
7.90433
21
-4.77795
0
LINE
8
BLACK
6
CONTINUOUS
10
7.90433
20
-4.77795
11
7.40827
21
-4.77795
0
LINE
8
BLACK
6
CONTINUOUS
10
7.40827
20
-4.77795
11
7.4066
21
-4.77726
0
LINE
8
BLACK
6
CONTINUOUS
10
7.4066
20
-4.77726
11
7.36723
21
-4.73789
0
LINE
8
BLACK
6
CONTINUOUS
10
7.36723
20
-4.73789
11
7.36654
21
-4.73622
0
LINE
8
BLACK
6
CONTINUOUS
10
7.36654
20
-4.73622
11
7.36654
21
-4.26378
0
LINE
8
BLACK
6
CONTINUOUS
10
7.36654
20
-4.26378
11
7.36723
21
-4.26211
0
LINE
8
BLACK
6
CONTINUOUS
10
7.36723
20
-4.26211
11
7.4066
21
-4.22274
0
LINE
8
BLACK
6
CONTINUOUS
10
7.4066
20
-4.22274
11
7.40827
21
-4.22205
0
LINE
8
BLACK
6
CONTINUOUS
10
7.40827
20
-4.22205
11
7.90433
21
-4.22205
0
LINE
8
BLACK
6
CONTINUOUS
10
7.90433
20
-4.22205
11
7.906
21
-4.22274
0
LINE
8
BLACK
6
CONTINUOUS
10
7.40925
20
-4.22677
11
7.37126
21
-4.26476
0
LINE
8
BLACK
6
CONTINUOUS
10
7.37126
20
-4.26476
11
7.37126
21
-4.73524
0
LINE
8
BLACK
6
CONTINUOUS
10
7.37126
20
-4.73524
11
7.40925
21
-4.77323
0
LINE
8
BLACK
6
CONTINUOUS
10
7.40925
20
-4.77323
11
7.90335
21
-4.77323
0
LINE
8
BLACK
6
CONTINUOUS
10
7.90335
20
-4.77323
11
7.94134
21
-4.73524
0
LINE
8
BLACK
6
CONTINUOUS
10
7.94134
20
-4.73524
11
7.94134
21
-4.26476
0
LINE
8
BLACK
6
CONTINUOUS
10
7.94134
20
-4.26476
11
7.90335
21
-4.22677
0
LINE
8
BLACK
6
CONTINUOUS
10
7.90335
20
-4.22677
11
7.40925
21
-4.22677
0
LINE
8
BLACK
6
CONTINUOUS
10
6.78088
20
-4.22274
11
6.78088
21
-4.22274
0
LINE
8
BLACK
6
CONTINUOUS
10
6.78088
20
-4.22274
11
6.82025
21
-4.26211
0
LINE
8
BLACK
6
CONTINUOUS
10
6.82025
20
-4.26211
11
6.82094
21
-4.26378
0
LINE
8
BLACK
6
CONTINUOUS
10
6.82094
20
-4.26378
11
6.82094
21
-4.26378
0
LINE
8
BLACK
6
CONTINUOUS
10
6.82094
20
-4.26378
11
6.82094
21
-4.73622
0
LINE
8
BLACK
6
CONTINUOUS
10
6.82094
20
-4.73622
11
6.82025
21
-4.73789
0
LINE
8
BLACK
6
CONTINUOUS
10
6.82025
20
-4.73789
11
6.78088
21
-4.77726
0
LINE
8
BLACK
6
CONTINUOUS
10
6.78088
20
-4.77726
11
6.77921
21
-4.77795
0
LINE
8
BLACK
6
CONTINUOUS
10
6.77921
20
-4.77795
11
6.28315
21
-4.77795
0
LINE
8
BLACK
6
CONTINUOUS
10
6.28315
20
-4.77795
11
6.28148
21
-4.77726
0
LINE
8
BLACK
6
CONTINUOUS
10
6.28148
20
-4.77726
11
6.24211
21
-4.73789
0
LINE
8
BLACK
6
CONTINUOUS
10
6.24211
20
-4.73789
11
6.24142
21
-4.73622
0
LINE
8
BLACK
6
CONTINUOUS
10
6.24142
20
-4.73622
11
6.24142
21
-4.26378
0
LINE
8
BLACK
6
CONTINUOUS
10
6.24142
20
-4.26378
11
6.24211
21
-4.26211
0
LINE
8
BLACK
6
CONTINUOUS
10
6.24211
20
-4.26211
11
6.24211
21
-4.26211
0
LINE
8
BLACK
6
CONTINUOUS
10
6.24211
20
-4.26211
11
6.28148
21
-4.22274
0
LINE
8
BLACK
6
CONTINUOUS
10
6.28148
20
-4.22274
11
6.28315
21
-4.22205
0
LINE
8
BLACK
6
CONTINUOUS
10
6.28315
20
-4.22205
11
6.77921
21
-4.22205
0
LINE
8
BLACK
6
CONTINUOUS
10
6.77921
20
-4.22205
11
6.78088
21
-4.22274
0
LINE
8
BLACK
6
CONTINUOUS
10
6.28413
20
-4.22677
11
6.24614
21
-4.26476
0
LINE
8
BLACK
6
CONTINUOUS
10
6.24614
20
-4.26476
11
6.24614
21
-4.73524
0
LINE
8
BLACK
6
CONTINUOUS
10
6.24614
20
-4.73524
11
6.28413
21
-4.77323
0
LINE
8
BLACK
6
CONTINUOUS
10
6.28413
20
-4.77323
11
6.77823
21
-4.77323
0
LINE
8
BLACK
6
CONTINUOUS
10
6.77823
20
-4.77323
11
6.81622
21
-4.73524
0
LINE
8
BLACK
6
CONTINUOUS
10
6.81622
20
-4.73524
11
6.81622
21
-4.26476
0
LINE
8
BLACK
6
CONTINUOUS
10
6.81622
20
-4.26476
11
6.77823
21
-4.22677
0
LINE
8
BLACK
6
CONTINUOUS
10
6.77823
20
-4.22677
11
6.28413
21
-4.22677
0
LINE
8
BLACK
6
CONTINUOUS
10
5.4684
20
-4.22274
11
5.4684
21
-4.22274
0
LINE
8
BLACK
6
CONTINUOUS
10
5.4684
20
-4.22274
11
5.50777
21
-4.26211
0
LINE
8
BLACK
6
CONTINUOUS
10
5.50777
20
-4.26211
11
5.50846
21
-4.26378
0
LINE
8
BLACK
6
CONTINUOUS
10
5.50846
20
-4.26378
11
5.50846
21
-4.26378
0
LINE
8
BLACK
6
CONTINUOUS
10
5.50846
20
-4.26378
11
5.50846
21
-4.73622
0
LINE
8
BLACK
6
CONTINUOUS
10
5.50846
20
-4.73622
11
5.50777
21
-4.73789
0
LINE
8
BLACK
6
CONTINUOUS
10
5.50777
20
-4.73789
11
5.4684
21
-4.77726
0
LINE
8
BLACK
6
CONTINUOUS
10
5.4684
20
-4.77726
11
5.46673
21
-4.77795
0
LINE
8
BLACK
6
CONTINUOUS
10
5.46673
20
-4.77795
11
4.97067
21
-4.77795
0
LINE
8
BLACK
6
CONTINUOUS
10
4.97067
20
-4.77795
11
4.969
21
-4.77726
0
LINE
8
BLACK
6
CONTINUOUS
10
4.969
20
-4.77726
11
4.92963
21
-4.73789
0
LINE
8
BLACK
6
CONTINUOUS
10
4.92963
20
-4.73789
11
4.92894
21
-4.73622
0
LINE
8
BLACK
6
CONTINUOUS
10
4.92894
20
-4.73622
11
4.92894
21
-4.26378
0
LINE
8
BLACK
6
CONTINUOUS
10
4.92894
20
-4.26378
11
4.92963
21
-4.26211
0
LINE
8
BLACK
6
CONTINUOUS
10
4.92963
20
-4.26211
11
4.92963
21
-4.26211
0
LINE
8
BLACK
6
CONTINUOUS
10
4.92963
20
-4.26211
11
4.969
21
-4.22274
0
LINE
8
BLACK
6
CONTINUOUS
10
4.969
20
-4.22274
11
4.97067
21
-4.22205
0
LINE
8
BLACK
6
CONTINUOUS
10
4.97067
20
-4.22205
11
5.46673
21
-4.22205
0
LINE
8
BLACK
6
CONTINUOUS
10
5.46673
20
-4.22205
11
5.4684
21
-4.22274
0
LINE
8
BLACK
6
CONTINUOUS
10
4.97165
20
-4.22677
11
4.93366
21
-4.26476
0
LINE
8
BLACK
6
CONTINUOUS
10
4.93366
20
-4.26476
11
4.93366
21
-4.73524
0
LINE
8
BLACK
6
CONTINUOUS
10
4.93366
20
-4.73524
11
4.97165
21
-4.77323
0
LINE
8
BLACK
6
CONTINUOUS
10
4.97165
20
-4.77323
11
5.46575
21
-4.77323
0
LINE
8
BLACK
6
CONTINUOUS
10
5.46575
20
-4.77323
11
5.50374
21
-4.73524
0
LINE
8
BLACK
6
CONTINUOUS
10
5.50374
20
-4.73524
11
5.50374
21
-4.26476
0
LINE
8
BLACK
6
CONTINUOUS
10
5.50374
20
-4.26476
11
5.46575
21
-4.22677
0
LINE
8
BLACK
6
CONTINUOUS
10
5.46575
20
-4.22677
11
4.97165
21
-4.22677
0
LINE
8
BLACK
6
CONTINUOUS
10
4.3434
20
-4.22274
11
4.3434
21
-4.22274
0
LINE
8
BLACK
6
CONTINUOUS
10
4.3434
20
-4.22274
11
4.38277
21
-4.26211
0
LINE
8
BLACK
6
CONTINUOUS
10
4.38277
20
-4.26211
11
4.38346
21
-4.26378
0
LINE
8
BLACK
6
CONTINUOUS
10
4.38346
20
-4.26378
11
4.38346
21
-4.26378
0
LINE
8
BLACK
6
CONTINUOUS
10
4.38346
20
-4.26378
11
4.38346
21
-4.73622
0
LINE
8
BLACK
6
CONTINUOUS
10
4.38346
20
-4.73622
11
4.38277
21
-4.73789
0
LINE
8
BLACK
6
CONTINUOUS
10
4.38277
20
-4.73789
11
4.3434
21
-4.77726
0
LINE
8
BLACK
6
CONTINUOUS
10
4.3434
20
-4.77726
11
4.34173
21
-4.77795
0
LINE
8
BLACK
6
CONTINUOUS
10
4.34173
20
-4.77795
11
3.84567
21
-4.77795
0
LINE
8
BLACK
6
CONTINUOUS
10
3.84567
20
-4.77795
11
3.844
21
-4.77726
0
LINE
8
BLACK
6
CONTINUOUS
10
3.844
20
-4.77726
11
3.80463
21
-4.73789
0
LINE
8
BLACK
6
CONTINUOUS
10
3.80463
20
-4.73789
11
3.80394
21
-4.73622
0
LINE
8
BLACK
6
CONTINUOUS
10
3.80394
20
-4.73622
11
3.80394
21
-4.26378
0
LINE
8
BLACK
6
CONTINUOUS
10
3.80394
20
-4.26378
11
3.80463
21
-4.26211
0
LINE
8
BLACK
6
CONTINUOUS
10
3.80463
20
-4.26211
11
3.80463
21
-4.26211
0
LINE
8
BLACK
6
CONTINUOUS
10
3.80463
20
-4.26211
11
3.844
21
-4.22274
0
LINE
8
BLACK
6
CONTINUOUS
10
3.844
20
-4.22274
11
3.84567
21
-4.22205
0
LINE
8
BLACK
6
CONTINUOUS
10
3.84567
20
-4.22205
11
4.34173
21
-4.22205
0
LINE
8
BLACK
6
CONTINUOUS
10
4.34173
20
-4.22205
11
4.3434
21
-4.22274
0
LINE
8
BLACK
6
CONTINUOUS
10
3.84665
20
-4.22677
11
3.80866
21
-4.26476
0
LINE
8
BLACK
6
CONTINUOUS
10
3.80866
20
-4.26476
11
3.80866
21
-4.73524
0
LINE
8
BLACK
6
CONTINUOUS
10
3.80866
20
-4.73524
11
3.84665
21
-4.77323
0
LINE
8
BLACK
6
CONTINUOUS
10
3.84665
20
-4.77323
11
4.34075
21
-4.77323
0
LINE
8
BLACK
6
CONTINUOUS
10
4.34075
20
-4.77323
11
4.37874
21
-4.73524
0
LINE
8
BLACK
6
CONTINUOUS
10
4.37874
20
-4.73524
11
4.37874
21
-4.26476
0
LINE
8
BLACK
6
CONTINUOUS
10
4.37874
20
-4.26476
11
4.34075
21
-4.22677
0
LINE
8
BLACK
6
CONTINUOUS
10
4.34075
20
-4.22677
11
3.84665
21
-4.22677
0
LINE
8
BLACK
6
CONTINUOUS
10
3.4997
20
-4.22274
11
3.4997
21
-4.22274
0
LINE
8
BLACK
6
CONTINUOUS
10
3.4997
20
-4.22274
11
3.53907
21
-4.26211
0
LINE
8
BLACK
6
CONTINUOUS
10
3.53907
20
-4.26211
11
3.53976
21
-4.26378
0
LINE
8
BLACK
6
CONTINUOUS
10
3.53976
20
-4.26378
11
3.53976
21
-4.26378
0
LINE
8
BLACK
6
CONTINUOUS
10
3.53976
20
-4.26378
11
3.53976
21
-4.73622
0
LINE
8
BLACK
6
CONTINUOUS
10
3.53976
20
-4.73622
11
3.53907
21
-4.73789
0
LINE
8
BLACK
6
CONTINUOUS
10
3.53907
20
-4.73789
11
3.4997
21
-4.77726
0
LINE
8
BLACK
6
CONTINUOUS
10
3.4997
20
-4.77726
11
3.49803
21
-4.77795
0
LINE
8
BLACK
6
CONTINUOUS
10
3.49803
20
-4.77795
11
3.00197
21
-4.77795
0
LINE
8
BLACK
6
CONTINUOUS
10
3.00197
20
-4.77795
11
3.0003
21
-4.77726
0
LINE
8
BLACK
6
CONTINUOUS
10
3.0003
20
-4.77726
11
2.96093
21
-4.73789
0
LINE
8
BLACK
6
CONTINUOUS
10
2.96093
20
-4.73789
11
2.96024
21
-4.73622
0
LINE
8
BLACK
6
CONTINUOUS
10
2.96024
20
-4.73622
11
2.96024
21
-4.26378
0
LINE
8
BLACK
6
CONTINUOUS
10
2.96024
20
-4.26378
11
2.96093
21
-4.26211
0
LINE
8
BLACK
6
CONTINUOUS
10
2.96093
20
-4.26211
11
2.96093
21
-4.26211
0
LINE
8
BLACK
6
CONTINUOUS
10
2.96093
20
-4.26211
11
3.0003
21
-4.22274
0
LINE
8
BLACK
6
CONTINUOUS
10
3.0003
20
-4.22274
11
3.00197
21
-4.22205
0
LINE
8
BLACK
6
CONTINUOUS
10
3.00197
20
-4.22205
11
3.49803
21
-4.22205
0
LINE
8
BLACK
6
CONTINUOUS
10
3.49803
20
-4.22205
11
3.4997
21
-4.22274
0
LINE
8
BLACK
6
CONTINUOUS
10
3.00295
20
-4.22677
11
2.96496
21
-4.26476
0
LINE
8
BLACK
6
CONTINUOUS
10
2.96496
20
-4.26476
11
2.96496
21
-4.73524
0
LINE
8
BLACK
6
CONTINUOUS
10
2.96496
20
-4.73524
11
3.00295
21
-4.77323
0
LINE
8
BLACK
6
CONTINUOUS
10
3.00295
20
-4.77323
11
3.49705
21
-4.77323
0
LINE
8
BLACK
6
CONTINUOUS
10
3.49705
20
-4.77323
11
3.53504
21
-4.73524
0
LINE
8
BLACK
6
CONTINUOUS
10
3.53504
20
-4.73524
11
3.53504
21
-4.26476
0
LINE
8
BLACK
6
CONTINUOUS
10
3.53504
20
-4.26476
11
3.49705
21
-4.22677
0
LINE
8
BLACK
6
CONTINUOUS
10
3.49705
20
-4.22677
11
3.00295
21
-4.22677
0
LINE
8
BLACK
6
CONTINUOUS
10
9.86159
20
-4.05252
11
9.86234
21
-4.04397
0
LINE
8
BLACK
6
CONTINUOUS
10
9.86234
20
-4.04397
11
9.86456
21
-4.03569
0
LINE
8
BLACK
6
CONTINUOUS
10
9.86456
20
-4.03569
11
9.86818
21
-4.02791
0
LINE
8
BLACK
6
CONTINUOUS
10
9.86818
20
-4.02791
11
9.8731
21
-4.02089
0
LINE
8
BLACK
6
CONTINUOUS
10
9.8731
20
-4.02089
11
9.87917
21
-4.01482
0
LINE
8
BLACK
6
CONTINUOUS
10
9.87917
20
-4.01482
11
9.8862
21
-4.0099
0
LINE
8
BLACK
6
CONTINUOUS
10
9.8862
20
-4.0099
11
9.89397
21
-4.00627
0
LINE
8
BLACK
6
CONTINUOUS
10
9.89397
20
-4.00627
11
9.90226
21
-4.00405
0
LINE
8
BLACK
6
CONTINUOUS
10
9.90226
20
-4.00405
11
9.9108
21
-4.00331
0
LINE
8
BLACK
6
CONTINUOUS
10
9.9108
20
-4.00331
11
9.91935
21
-4.00405
0
LINE
8
BLACK
6
CONTINUOUS
10
9.91935
20
-4.00405
11
9.92763
21
-4.00627
0
LINE
8
BLACK
6
CONTINUOUS
10
9.92763
20
-4.00627
11
9.93541
21
-4.0099
0
LINE
8
BLACK
6
CONTINUOUS
10
9.93541
20
-4.0099
11
9.94244
21
-4.01482
0
LINE
8
BLACK
6
CONTINUOUS
10
9.94244
20
-4.01482
11
9.9485
21
-4.02089
0
LINE
8
BLACK
6
CONTINUOUS
10
9.9485
20
-4.02089
11
9.95342
21
-4.02791
0
LINE
8
BLACK
6
CONTINUOUS
10
9.95342
20
-4.02791
11
9.95705
21
-4.03569
0
LINE
8
BLACK
6
CONTINUOUS
10
9.95705
20
-4.03569
11
9.95927
21
-4.04397
0
LINE
8
BLACK
6
CONTINUOUS
10
9.95927
20
-4.04397
11
9.96001
21
-4.05252
0
LINE
8
BLACK
6
CONTINUOUS
10
9.96001
20
-4.05252
11
9.95927
21
-4.06107
0
LINE
8
BLACK
6
CONTINUOUS
10
9.95927
20
-4.06107
11
9.95705
21
-4.06935
0
LINE
8
BLACK
6
CONTINUOUS
10
9.95705
20
-4.06935
11
9.95342
21
-4.07713
0
LINE
8
BLACK
6
CONTINUOUS
10
9.95342
20
-4.07713
11
9.9485
21
-4.08415
0
LINE
8
BLACK
6
CONTINUOUS
10
9.9485
20
-4.08415
11
9.94244
21
-4.09022
0
LINE
8
BLACK
6
CONTINUOUS
10
9.94244
20
-4.09022
11
9.93541
21
-4.09514
0
LINE
8
BLACK
6
CONTINUOUS
10
9.93541
20
-4.09514
11
9.92763
21
-4.09876
0
LINE
8
BLACK
6
CONTINUOUS
10
9.92763
20
-4.09876
11
9.91935
21
-4.10098
0
LINE
8
BLACK
6
CONTINUOUS
10
9.91935
20
-4.10098
11
9.9108
21
-4.10173
0
LINE
8
BLACK
6
CONTINUOUS
10
9.9108
20
-4.10173
11
9.90226
21
-4.10098
0
LINE
8
BLACK
6
CONTINUOUS
10
9.90226
20
-4.10098
11
9.89397
21
-4.09876
0
LINE
8
BLACK
6
CONTINUOUS
10
9.89397
20
-4.09876
11
9.8862
21
-4.09514
0
LINE
8
BLACK
6
CONTINUOUS
10
9.8862
20
-4.09514
11
9.87917
21
-4.09022
0
LINE
8
BLACK
6
CONTINUOUS
10
9.87917
20
-4.09022
11
9.8731
21
-4.08415
0
LINE
8
BLACK
6
CONTINUOUS
10
9.8731
20
-4.08415
11
9.86818
21
-4.07713
0
LINE
8
BLACK
6
CONTINUOUS
10
9.86818
20
-4.07713
11
9.86456
21
-4.06935
0
LINE
8
BLACK
6
CONTINUOUS
10
9.86456
20
-4.06935
11
9.86234
21
-4.06107
0
LINE
8
BLACK
6
CONTINUOUS
10
9.86234
20
-4.06107
11
9.86159
21
-4.05252
0
LINE
8
BLACK
6
CONTINUOUS
10
9.86926
20
-4.05252
11
9.87006
21
-4.06062
0
LINE
8
BLACK
6
CONTINUOUS
10
9.87006
20
-4.06062
11
9.87243
21
-4.06842
0
LINE
8
BLACK
6
CONTINUOUS
10
9.87243
20
-4.06842
11
9.87626
21
-4.0756
0
LINE
8
BLACK
6
CONTINUOUS
10
9.87626
20
-4.0756
11
9.88143
21
-4.08189
0
LINE
8
BLACK
6
CONTINUOUS
10
9.88143
20
-4.08189
11
9.88772
21
-4.08706
0
LINE
8
BLACK
6
CONTINUOUS
10
9.88772
20
-4.08706
11
9.89491
21
-4.0909
0
LINE
8
BLACK
6
CONTINUOUS
10
9.89491
20
-4.0909
11
9.9027
21
-4.09326
0
LINE
8
BLACK
6
CONTINUOUS
10
9.9027
20
-4.09326
11
9.9108
21
-4.09406
0
LINE
8
BLACK
6
CONTINUOUS
10
9.9108
20
-4.09406
11
9.91891
21
-4.09326
0
LINE
8
BLACK
6
CONTINUOUS
10
9.91891
20
-4.09326
11
9.9267
21
-4.0909
0
LINE
8
BLACK
6
CONTINUOUS
10
9.9267
20
-4.0909
11
9.93388
21
-4.08706
0
LINE
8
BLACK
6
CONTINUOUS
10
9.93388
20
-4.08706
11
9.94017
21
-4.08189
0
LINE
8
BLACK
6
CONTINUOUS
10
9.94017
20
-4.08189
11
9.94534
21
-4.0756
0
LINE
8
BLACK
6
CONTINUOUS
10
9.94534
20
-4.0756
11
9.94918
21
-4.06842
0
LINE
8
BLACK
6
CONTINUOUS
10
9.94918
20
-4.06842
11
9.95154
21
-4.06062
0
LINE
8
BLACK
6
CONTINUOUS
10
9.95154
20
-4.06062
11
9.95234
21
-4.05252
0
LINE
8
BLACK
6
CONTINUOUS
10
9.95234
20
-4.05252
11
9.95154
21
-4.04442
0
LINE
8
BLACK
6
CONTINUOUS
10
9.95154
20
-4.04442
11
9.94918
21
-4.03662
0
LINE
8
BLACK
6
CONTINUOUS
10
9.94918
20
-4.03662
11
9.94534
21
-4.02944
0
LINE
8
BLACK
6
CONTINUOUS
10
9.94534
20
-4.02944
11
9.94017
21
-4.02315
0
LINE
8
BLACK
6
CONTINUOUS
10
9.94017
20
-4.02315
11
9.93388
21
-4.01798
0
LINE
8
BLACK
6
CONTINUOUS
10
9.93388
20
-4.01798
11
9.9267
21
-4.01414
0
LINE
8
BLACK
6
CONTINUOUS
10
9.9267
20
-4.01414
11
9.91891
21
-4.01178
0
LINE
8
BLACK
6
CONTINUOUS
10
9.91891
20
-4.01178
11
9.9108
21
-4.01098
0
LINE
8
BLACK
6
CONTINUOUS
10
9.9108
20
-4.01098
11
9.9027
21
-4.01178
0
LINE
8
BLACK
6
CONTINUOUS
10
9.9027
20
-4.01178
11
9.89491
21
-4.01414
0
LINE
8
BLACK
6
CONTINUOUS
10
9.89491
20
-4.01414
11
9.88772
21
-4.01798
0
LINE
8
BLACK
6
CONTINUOUS
10
9.88772
20
-4.01798
11
9.88143
21
-4.02315
0
LINE
8
BLACK
6
CONTINUOUS
10
9.88143
20
-4.02315
11
9.87626
21
-4.02944
0
LINE
8
BLACK
6
CONTINUOUS
10
9.87626
20
-4.02944
11
9.87243
21
-4.03662
0
LINE
8
BLACK
6
CONTINUOUS
10
9.87243
20
-4.03662
11
9.87006
21
-4.04442
0
LINE
8
BLACK
6
CONTINUOUS
10
9.87006
20
-4.04442
11
9.86926
21
-4.05252
0
LINE
8
BLACK
6
CONTINUOUS
10
1.79
20
-4.05252
11
1.79075
21
-4.04397
0
LINE
8
BLACK
6
CONTINUOUS
10
1.79075
20
-4.04397
11
1.79297
21
-4.03569
0
LINE
8
BLACK
6
CONTINUOUS
10
1.79297
20
-4.03569
11
1.79659
21
-4.02791
0
LINE
8
BLACK
6
CONTINUOUS
10
1.79659
20
-4.02791
11
1.80151
21
-4.02089
0
LINE
8
BLACK
6
CONTINUOUS
10
1.80151
20
-4.02089
11
1.80758
21
-4.01482
0
LINE
8
BLACK
6
CONTINUOUS
10
1.80758
20
-4.01482
11
1.81461
21
-4.0099
0
LINE
8
BLACK
6
CONTINUOUS
10
1.81461
20
-4.0099
11
1.82238
21
-4.00627
0
LINE
8
BLACK
6
CONTINUOUS
10
1.82238
20
-4.00627
11
1.83067
21
-4.00405
0
LINE
8
BLACK
6
CONTINUOUS
10
1.83067
20
-4.00405
11
1.83921
21
-4.00331
0
LINE
8
BLACK
6
CONTINUOUS
10
1.83921
20
-4.00331
11
1.84776
21
-4.00405
0
LINE
8
BLACK
6
CONTINUOUS
10
1.84776
20
-4.00405
11
1.85604
21
-4.00627
0
LINE
8
BLACK
6
CONTINUOUS
10
1.85604
20
-4.00627
11
1.86382
21
-4.0099
0
LINE
8
BLACK
6
CONTINUOUS
10
1.86382
20
-4.0099
11
1.87085
21
-4.01482
0
LINE
8
BLACK
6
CONTINUOUS
10
1.87085
20
-4.01482
11
1.87691
21
-4.02089
0
LINE
8
BLACK
6
CONTINUOUS
10
1.87691
20
-4.02089
11
1.88183
21
-4.02791
0
LINE
8
BLACK
6
CONTINUOUS
10
1.88183
20
-4.02791
11
1.88546
21
-4.03569
0
LINE
8
BLACK
6
CONTINUOUS
10
1.88546
20
-4.03569
11
1.88768
21
-4.04397
0
LINE
8
BLACK
6
CONTINUOUS
10
1.88768
20
-4.04397
11
1.88843
21
-4.05252
0
LINE
8
BLACK
6
CONTINUOUS
10
1.88843
20
-4.05252
11
1.88768
21
-4.06107
0
LINE
8
BLACK
6
CONTINUOUS
10
1.88768
20
-4.06107
11
1.88546
21
-4.06935
0
LINE
8
BLACK
6
CONTINUOUS
10
1.88546
20
-4.06935
11
1.88183
21
-4.07713
0
LINE
8
BLACK
6
CONTINUOUS
10
1.88183
20
-4.07713
11
1.87691
21
-4.08415
0
LINE
8
BLACK
6
CONTINUOUS
10
1.87691
20
-4.08415
11
1.87085
21
-4.09022
0
LINE
8
BLACK
6
CONTINUOUS
10
1.87085
20
-4.09022
11
1.86382
21
-4.09514
0
LINE
8
BLACK
6
CONTINUOUS
10
1.86382
20
-4.09514
11
1.85604
21
-4.09876
0
LINE
8
BLACK
6
CONTINUOUS
10
1.85604
20
-4.09876
11
1.84776
21
-4.10098
0
LINE
8
BLACK
6
CONTINUOUS
10
1.84776
20
-4.10098
11
1.83921
21
-4.10173
0
LINE
8
BLACK
6
CONTINUOUS
10
1.83921
20
-4.10173
11
1.83067
21
-4.10098
0
LINE
8
BLACK
6
CONTINUOUS
10
1.83067
20
-4.10098
11
1.82238
21
-4.09876
0
LINE
8
BLACK
6
CONTINUOUS
10
1.82238
20
-4.09876
11
1.81461
21
-4.09514
0
LINE
8
BLACK
6
CONTINUOUS
10
1.81461
20
-4.09514
11
1.80758
21
-4.09022
0
LINE
8
BLACK
6
CONTINUOUS
10
1.80758
20
-4.09022
11
1.80151
21
-4.08415
0
LINE
8
BLACK
6
CONTINUOUS
10
1.80151
20
-4.08415
11
1.79659
21
-4.07713
0
LINE
8
BLACK
6
CONTINUOUS
10
1.79659
20
-4.07713
11
1.79297
21
-4.06935
0
LINE
8
BLACK
6
CONTINUOUS
10
1.79297
20
-4.06935
11
1.79075
21
-4.06107
0
LINE
8
BLACK
6
CONTINUOUS
10
1.79075
20
-4.06107
11
1.79
21
-4.05252
0
LINE
8
BLACK
6
CONTINUOUS
10
1.79767
20
-4.05252
11
1.79847
21
-4.06062
0
LINE
8
BLACK
6
CONTINUOUS
10
1.79847
20
-4.06062
11
1.80084
21
-4.06842
0
LINE
8
BLACK
6
CONTINUOUS
10
1.80084
20
-4.06842
11
1.80467
21
-4.0756
0
LINE
8
BLACK
6
CONTINUOUS
10
1.80467
20
-4.0756
11
1.80984
21
-4.08189
0
LINE
8
BLACK
6
CONTINUOUS
10
1.80984
20
-4.08189
11
1.81613
21
-4.08706
0
LINE
8
BLACK
6
CONTINUOUS
10
1.81613
20
-4.08706
11
1.82332
21
-4.0909
0
LINE
8
BLACK
6
CONTINUOUS
10
1.82332
20
-4.0909
11
1.83111
21
-4.09326
0
LINE
8
BLACK
6
CONTINUOUS
10
1.83111
20
-4.09326
11
1.83921
21
-4.09406
0
LINE
8
BLACK
6
CONTINUOUS
10
1.83921
20
-4.09406
11
1.84732
21
-4.09326
0
LINE
8
BLACK
6
CONTINUOUS
10
1.84732
20
-4.09326
11
1.85511
21
-4.0909
0
LINE
8
BLACK
6
CONTINUOUS
10
1.85511
20
-4.0909
11
1.86229
21
-4.08706
0
LINE
8
BLACK
6
CONTINUOUS
10
1.86229
20
-4.08706
11
1.86858
21
-4.08189
0
LINE
8
BLACK
6
CONTINUOUS
10
1.86858
20
-4.08189
11
1.87375
21
-4.0756
0
LINE
8
BLACK
6
CONTINUOUS
10
1.87375
20
-4.0756
11
1.87759
21
-4.06842
0
LINE
8
BLACK
6
CONTINUOUS
10
1.87759
20
-4.06842
11
1.87995
21
-4.06062
0
LINE
8
BLACK
6
CONTINUOUS
10
1.87995
20
-4.06062
11
1.88075
21
-4.05252
0
LINE
8
BLACK
6
CONTINUOUS
10
1.88075
20
-4.05252
11
1.87995
21
-4.04442
0
LINE
8
BLACK
6
CONTINUOUS
10
1.87995
20
-4.04442
11
1.87759
21
-4.03662
0
LINE
8
BLACK
6
CONTINUOUS
10
1.87759
20
-4.03662
11
1.87375
21
-4.02944
0
LINE
8
BLACK
6
CONTINUOUS
10
1.87375
20
-4.02944
11
1.86858
21
-4.02315
0
LINE
8
BLACK
6
CONTINUOUS
10
1.86858
20
-4.02315
11
1.86229
21
-4.01798
0
LINE
8
BLACK
6
CONTINUOUS
10
1.86229
20
-4.01798
11
1.85511
21
-4.01414
0
LINE
8
BLACK
6
CONTINUOUS
10
1.85511
20
-4.01414
11
1.84732
21
-4.01178
0
LINE
8
BLACK
6
CONTINUOUS
10
1.84732
20
-4.01178
11
1.83921
21
-4.01098
0
LINE
8
BLACK
6
CONTINUOUS
10
1.83921
20
-4.01098
11
1.83111
21
-4.01178
0
LINE
8
BLACK
6
CONTINUOUS
10
1.83111
20
-4.01178
11
1.82332
21
-4.01414
0
LINE
8
BLACK
6
CONTINUOUS
10
1.82332
20
-4.01414
11
1.81613
21
-4.01798
0
LINE
8
BLACK
6
CONTINUOUS
10
1.81613
20
-4.01798
11
1.80984
21
-4.02315
0
LINE
8
BLACK
6
CONTINUOUS
10
1.80984
20
-4.02315
11
1.80467
21
-4.02944
0
LINE
8
BLACK
6
CONTINUOUS
10
1.80467
20
-4.02944
11
1.80084
21
-4.03662
0
LINE
8
BLACK
6
CONTINUOUS
10
1.80084
20
-4.03662
11
1.79847
21
-4.04442
0
LINE
8
BLACK
6
CONTINUOUS
10
1.79847
20
-4.04442
11
1.79767
21
-4.05252
0
LINE
8
BLACK
6
CONTINUOUS
10
9.781
20
-3.47274
11
9.781
21
-3.47274
0
LINE
8
BLACK
6
CONTINUOUS
10
9.781
20
-3.47274
11
9.82037
21
-3.51211
0
LINE
8
BLACK
6
CONTINUOUS
10
9.82037
20
-3.51211
11
9.82106
21
-3.51378
0
LINE
8
BLACK
6
CONTINUOUS
10
9.82106
20
-3.51378
11
9.82106
21
-3.98622
0
LINE
8
BLACK
6
CONTINUOUS
10
9.82106
20
-3.98622
11
9.82037
21
-3.98789
0
LINE
8
BLACK
6
CONTINUOUS
10
9.82037
20
-3.98789
11
9.781
21
-4.02726
0
LINE
8
BLACK
6
CONTINUOUS
10
9.781
20
-4.02726
11
9.781
21
-4.02726
0
LINE
8
BLACK
6
CONTINUOUS
10
9.781
20
-4.02726
11
9.77933
21
-4.02795
0
LINE
8
BLACK
6
CONTINUOUS
10
9.77933
20
-4.02795
11
9.28327
21
-4.02795
0
LINE
8
BLACK
6
CONTINUOUS
10
9.28327
20
-4.02795
11
9.2816
21
-4.02726
0
LINE
8
BLACK
6
CONTINUOUS
10
9.2816
20
-4.02726
11
9.24223
21
-3.98789
0
LINE
8
BLACK
6
CONTINUOUS
10
9.24223
20
-3.98789
11
9.24154
21
-3.98622
0
LINE
8
BLACK
6
CONTINUOUS
10
9.24154
20
-3.98622
11
9.24154
21
-3.51378
0
LINE
8
BLACK
6
CONTINUOUS
10
9.24154
20
-3.51378
11
9.24223
21
-3.51211
0
LINE
8
BLACK
6
CONTINUOUS
10
9.24223
20
-3.51211
11
9.2816
21
-3.47274
0
LINE
8
BLACK
6
CONTINUOUS
10
9.2816
20
-3.47274
11
9.28327
21
-3.47205
0
LINE
8
BLACK
6
CONTINUOUS
10
9.28327
20
-3.47205
11
9.77933
21
-3.47205
0
LINE
8
BLACK
6
CONTINUOUS
10
9.77933
20
-3.47205
11
9.781
21
-3.47274
0
LINE
8
BLACK
6
CONTINUOUS
10
9.28425
20
-3.47677
11
9.24626
21
-3.51476
0
LINE
8
BLACK
6
CONTINUOUS
10
9.24626
20
-3.51476
11
9.24626
21
-3.98524
0
LINE
8
BLACK
6
CONTINUOUS
10
9.24626
20
-3.98524
11
9.28425
21
-4.02323
0
LINE
8
BLACK
6
CONTINUOUS
10
9.28425
20
-4.02323
11
9.77835
21
-4.02323
0
LINE
8
BLACK
6
CONTINUOUS
10
9.77835
20
-4.02323
11
9.81634
21
-3.98524
0
LINE
8
BLACK
6
CONTINUOUS
10
9.81634
20
-3.98524
11
9.81634
21
-3.51476
0
LINE
8
BLACK
6
CONTINUOUS
10
9.81634
20
-3.51476
11
9.77835
21
-3.47677
0
LINE
8
BLACK
6
CONTINUOUS
10
9.77835
20
-3.47677
11
9.28425
21
-3.47677
0
LINE
8
BLACK
6
CONTINUOUS
10
8.9372
20
-3.47274
11
8.9372
21
-3.47274
0
LINE
8
BLACK
6
CONTINUOUS
10
8.9372
20
-3.47274
11
8.97657
21
-3.51211
0
LINE
8
BLACK
6
CONTINUOUS
10
8.97657
20
-3.51211
11
8.97726
21
-3.51378
0
LINE
8
BLACK
6
CONTINUOUS
10
8.97726
20
-3.51378
11
8.97726
21
-3.98622
0
LINE
8
BLACK
6
CONTINUOUS
10
8.97726
20
-3.98622
11
8.97657
21
-3.98789
0
LINE
8
BLACK
6
CONTINUOUS
10
8.97657
20
-3.98789
11
8.9372
21
-4.02726
0
LINE
8
BLACK
6
CONTINUOUS
10
8.9372
20
-4.02726
11
8.9372
21
-4.02726
0
LINE
8
BLACK
6
CONTINUOUS
10
8.9372
20
-4.02726
11
8.93553
21
-4.02795
0
LINE
8
BLACK
6
CONTINUOUS
10
8.93553
20
-4.02795
11
8.43947
21
-4.02795
0
LINE
8
BLACK
6
CONTINUOUS
10
8.43947
20
-4.02795
11
8.4378
21
-4.02726
0
LINE
8
BLACK
6
CONTINUOUS
10
8.4378
20
-4.02726
11
8.39843
21
-3.98789
0
LINE
8
BLACK
6
CONTINUOUS
10
8.39843
20
-3.98789
11
8.39774
21
-3.98622
0
LINE
8
BLACK
6
CONTINUOUS
10
8.39774
20
-3.98622
11
8.39774
21
-3.51378
0
LINE
8
BLACK
6
CONTINUOUS
10
8.39774
20
-3.51378
11
8.39843
21
-3.51211
0
LINE
8
BLACK
6
CONTINUOUS
10
8.39843
20
-3.51211
11
8.4378
21
-3.47274
0
LINE
8
BLACK
6
CONTINUOUS
10
8.4378
20
-3.47274
11
8.43947
21
-3.47205
0
LINE
8
BLACK
6
CONTINUOUS
10
8.43947
20
-3.47205
11
8.93553
21
-3.47205
0
LINE
8
BLACK
6
CONTINUOUS
10
8.93553
20
-3.47205
11
8.9372
21
-3.47274
0
LINE
8
BLACK
6
CONTINUOUS
10
8.44045
20
-3.47677
11
8.40246
21
-3.51476
0
LINE
8
BLACK
6
CONTINUOUS
10
8.40246
20
-3.51476
11
8.40246
21
-3.98524
0
LINE
8
BLACK
6
CONTINUOUS
10
8.40246
20
-3.98524
11
8.44045
21
-4.02323
0
LINE
8
BLACK
6
CONTINUOUS
10
8.44045
20
-4.02323
11
8.93455
21
-4.02323
0
LINE
8
BLACK
6
CONTINUOUS
10
8.93455
20
-4.02323
11
8.97254
21
-3.98524
0
LINE
8
BLACK
6
CONTINUOUS
10
8.97254
20
-3.98524
11
8.97254
21
-3.51476
0
LINE
8
BLACK
6
CONTINUOUS
10
8.97254
20
-3.51476
11
8.93455
21
-3.47677
0
LINE
8
BLACK
6
CONTINUOUS
10
8.93455
20
-3.47677
11
8.44045
21
-3.47677
0
LINE
8
BLACK
6
CONTINUOUS
10
8.1872
20
-3.47274
11
8.1872
21
-3.47274
0
LINE
8
BLACK
6
CONTINUOUS
10
8.1872
20
-3.47274
11
8.22657
21
-3.51211
0
LINE
8
BLACK
6
CONTINUOUS
10
8.22657
20
-3.51211
11
8.22726
21
-3.51378
0
LINE
8
BLACK
6
CONTINUOUS
10
8.22726
20
-3.51378
11
8.22726
21
-3.98622
0
LINE
8
BLACK
6
CONTINUOUS
10
8.22726
20
-3.98622
11
8.22657
21
-3.98789
0
LINE
8
BLACK
6
CONTINUOUS
10
8.22657
20
-3.98789
11
8.1872
21
-4.02726
0
LINE
8
BLACK
6
CONTINUOUS
10
8.1872
20
-4.02726
11
8.1872
21
-4.02726
0
LINE
8
BLACK
6
CONTINUOUS
10
8.1872
20
-4.02726
11
8.18553
21
-4.02795
0
LINE
8
BLACK
6
CONTINUOUS
10
8.18553
20
-4.02795
11
7.68947
21
-4.02795
0
LINE
8
BLACK
6
CONTINUOUS
10
7.68947
20
-4.02795
11
7.6878
21
-4.02726
0
LINE
8
BLACK
6
CONTINUOUS
10
7.6878
20
-4.02726
11
7.64843
21
-3.98789
0
LINE
8
BLACK
6
CONTINUOUS
10
7.64843
20
-3.98789
11
7.64774
21
-3.98622
0
LINE
8
BLACK
6
CONTINUOUS
10
7.64774
20
-3.98622
11
7.64774
21
-3.51378
0
LINE
8
BLACK
6
CONTINUOUS
10
7.64774
20
-3.51378
11
7.64843
21
-3.51211
0
LINE
8
BLACK
6
CONTINUOUS
10
7.64843
20
-3.51211
11
7.6878
21
-3.47274
0
LINE
8
BLACK
6
CONTINUOUS
10
7.6878
20
-3.47274
11
7.68947
21
-3.47205
0
LINE
8
BLACK
6
CONTINUOUS
10
7.68947
20
-3.47205
11
8.18553
21
-3.47205
0
LINE
8
BLACK
6
CONTINUOUS
10
8.18553
20
-3.47205
11
8.1872
21
-3.47274
0
LINE
8
BLACK
6
CONTINUOUS
10
7.69045
20
-3.47677
11
7.65246
21
-3.51476
0
LINE
8
BLACK
6
CONTINUOUS
10
7.65246
20
-3.51476
11
7.65246
21
-3.98524
0
LINE
8
BLACK
6
CONTINUOUS
10
7.65246
20
-3.98524
11
7.69045
21
-4.02323
0
LINE
8
BLACK
6
CONTINUOUS
10
7.69045
20
-4.02323
11
8.18455
21
-4.02323
0
LINE
8
BLACK
6
CONTINUOUS
10
8.18455
20
-4.02323
11
8.22254
21
-3.98524
0
LINE
8
BLACK
6
CONTINUOUS
10
8.22254
20
-3.98524
11
8.22254
21
-3.51476
0
LINE
8
BLACK
6
CONTINUOUS
10
8.22254
20
-3.51476
11
8.18455
21
-3.47677
0
LINE
8
BLACK
6
CONTINUOUS
10
8.18455
20
-3.47677
11
7.69045
21
-3.47677
0
LINE
8
BLACK
6
CONTINUOUS
10
7.4372
20
-3.47274
11
7.4372
21
-3.47274
0
LINE
8
BLACK
6
CONTINUOUS
10
7.4372
20
-3.47274
11
7.47657
21
-3.51211
0
LINE
8
BLACK
6
CONTINUOUS
10
7.47657
20
-3.51211
11
7.47726
21
-3.51378
0
LINE
8
BLACK
6
CONTINUOUS
10
7.47726
20
-3.51378
11
7.47726
21
-3.98622
0
LINE
8
BLACK
6
CONTINUOUS
10
7.47726
20
-3.98622
11
7.47657
21
-3.98789
0
LINE
8
BLACK
6
CONTINUOUS
10
7.47657
20
-3.98789
11
7.4372
21
-4.02726
0
LINE
8
BLACK
6
CONTINUOUS
10
7.4372
20
-4.02726
11
7.4372
21
-4.02726
0
LINE
8
BLACK
6
CONTINUOUS
10
7.4372
20
-4.02726
11
7.43553
21
-4.02795
0
LINE
8
BLACK
6
CONTINUOUS
10
7.43553
20
-4.02795
11
6.93947
21
-4.02795
0
LINE
8
BLACK
6
CONTINUOUS
10
6.93947
20
-4.02795
11
6.9378
21
-4.02726
0
LINE
8
BLACK
6
CONTINUOUS
10
6.9378
20
-4.02726
11
6.89843
21
-3.98789
0
LINE
8
BLACK
6
CONTINUOUS
10
6.89843
20
-3.98789
11
6.89774
21
-3.98622
0
LINE
8
BLACK
6
CONTINUOUS
10
6.89774
20
-3.98622
11
6.89774
21
-3.51378
0
LINE
8
BLACK
6
CONTINUOUS
10
6.89774
20
-3.51378
11
6.89843
21
-3.51211
0
LINE
8
BLACK
6
CONTINUOUS
10
6.89843
20
-3.51211
11
6.9378
21
-3.47274
0
LINE
8
BLACK
6
CONTINUOUS
10
6.9378
20
-3.47274
11
6.93947
21
-3.47205
0
LINE
8
BLACK
6
CONTINUOUS
10
6.93947
20
-3.47205
11
7.43553
21
-3.47205
0
LINE
8
BLACK
6
CONTINUOUS
10
7.43553
20
-3.47205
11
7.4372
21
-3.47274
0
LINE
8
BLACK
6
CONTINUOUS
10
6.94045
20
-3.47677
11
6.90246
21
-3.51476
0
LINE
8
BLACK
6
CONTINUOUS
10
6.90246
20
-3.51476
11
6.90246
21
-3.98524
0
LINE
8
BLACK
6
CONTINUOUS
10
6.90246
20
-3.98524
11
6.94045
21
-4.02323
0
LINE
8
BLACK
6
CONTINUOUS
10
6.94045
20
-4.02323
11
7.43455
21
-4.02323
0
LINE
8
BLACK
6
CONTINUOUS
10
7.43455
20
-4.02323
11
7.47254
21
-3.98524
0
LINE
8
BLACK
6
CONTINUOUS
10
7.47254
20
-3.98524
11
7.47254
21
-3.51476
0
LINE
8
BLACK
6
CONTINUOUS
10
7.47254
20
-3.51476
11
7.43455
21
-3.47677
0
LINE
8
BLACK
6
CONTINUOUS
10
7.43455
20
-3.47677
11
6.94045
21
-3.47677
0
LINE
8
BLACK
6
CONTINUOUS
10
6.6872
20
-3.47274
11
6.6872
21
-3.47274
0
LINE
8
BLACK
6
CONTINUOUS
10
6.6872
20
-3.47274
11
6.72657
21
-3.51211
0
LINE
8
BLACK
6
CONTINUOUS
10
6.72657
20
-3.51211
11
6.72726
21
-3.51378
0
LINE
8
BLACK
6
CONTINUOUS
10
6.72726
20
-3.51378
11
6.72726
21
-3.51378
0
LINE
8
BLACK
6
CONTINUOUS
10
6.72726
20
-3.51378
11
6.72726
21
-3.98622
0
LINE
8
BLACK
6
CONTINUOUS
10
6.72726
20
-3.98622
11
6.72657
21
-3.98789
0
LINE
8
BLACK
6
CONTINUOUS
10
6.72657
20
-3.98789
11
6.6872
21
-4.02726
0
LINE
8
BLACK
6
CONTINUOUS
10
6.6872
20
-4.02726
11
6.6872
21
-4.02726
0
LINE
8
BLACK
6
CONTINUOUS
10
6.6872
20
-4.02726
11
6.68553
21
-4.02795
0
LINE
8
BLACK
6
CONTINUOUS
10
6.68553
20
-4.02795
11
6.18947
21
-4.02795
0
LINE
8
BLACK
6
CONTINUOUS
10
6.18947
20
-4.02795
11
6.1878
21
-4.02726
0
LINE
8
BLACK
6
CONTINUOUS
10
6.1878
20
-4.02726
11
6.14843
21
-3.98789
0
LINE
8
BLACK
6
CONTINUOUS
10
6.14843
20
-3.98789
11
6.14774
21
-3.98622
0
LINE
8
BLACK
6
CONTINUOUS
10
6.14774
20
-3.98622
11
6.14774
21
-3.51378
0
LINE
8
BLACK
6
CONTINUOUS
10
6.14774
20
-3.51378
11
6.14843
21
-3.51211
0
LINE
8
BLACK
6
CONTINUOUS
10
6.14843
20
-3.51211
11
6.1878
21
-3.47274
0
LINE
8
BLACK
6
CONTINUOUS
10
6.1878
20
-3.47274
11
6.18947
21
-3.47205
0
LINE
8
BLACK
6
CONTINUOUS
10
6.18947
20
-3.47205
11
6.68553
21
-3.47205
0
LINE
8
BLACK
6
CONTINUOUS
10
6.68553
20
-3.47205
11
6.6872
21
-3.47274
0
LINE
8
BLACK
6
CONTINUOUS
10
6.19045
20
-3.47677
11
6.15246
21
-3.51476
0
LINE
8
BLACK
6
CONTINUOUS
10
6.15246
20
-3.51476
11
6.15246
21
-3.98524
0
LINE
8
BLACK
6
CONTINUOUS
10
6.15246
20
-3.98524
11
6.19045
21
-4.02323
0
LINE
8
BLACK
6
CONTINUOUS
10
6.19045
20
-4.02323
11
6.68455
21
-4.02323
0
LINE
8
BLACK
6
CONTINUOUS
10
6.68455
20
-4.02323
11
6.72254
21
-3.98524
0
LINE
8
BLACK
6
CONTINUOUS
10
6.72254
20
-3.98524
11
6.72254
21
-3.51476
0
LINE
8
BLACK
6
CONTINUOUS
10
6.72254
20
-3.51476
11
6.68455
21
-3.47677
0
LINE
8
BLACK
6
CONTINUOUS
10
6.68455
20
-3.47677
11
6.19045
21
-3.47677
0
LINE
8
BLACK
6
CONTINUOUS
10
5.9372
20
-3.47274
11
5.9372
21
-3.47274
0
LINE
8
BLACK
6
CONTINUOUS
10
5.9372
20
-3.47274
11
5.97657
21
-3.51211
0
LINE
8
BLACK
6
CONTINUOUS
10
5.97657
20
-3.51211
11
5.97726
21
-3.51378
0
LINE
8
BLACK
6
CONTINUOUS
10
5.97726
20
-3.51378
11
5.97726
21
-3.51378
0
LINE
8
BLACK
6
CONTINUOUS
10
5.97726
20
-3.51378
11
5.97726
21
-3.98622
0
LINE
8
BLACK
6
CONTINUOUS
10
5.97726
20
-3.98622
11
5.97657
21
-3.98789
0
LINE
8
BLACK
6
CONTINUOUS
10
5.97657
20
-3.98789
11
5.9372
21
-4.02726
0
LINE
8
BLACK
6
CONTINUOUS
10
5.9372
20
-4.02726
11
5.9372
21
-4.02726
0
LINE
8
BLACK
6
CONTINUOUS
10
5.9372
20
-4.02726
11
5.93553
21
-4.02795
0
LINE
8
BLACK
6
CONTINUOUS
10
5.93553
20
-4.02795
11
5.43947
21
-4.02795
0
LINE
8
BLACK
6
CONTINUOUS
10
5.43947
20
-4.02795
11
5.4378
21
-4.02726
0
LINE
8
BLACK
6
CONTINUOUS
10
5.4378
20
-4.02726
11
5.39843
21
-3.98789
0
LINE
8
BLACK
6
CONTINUOUS
10
5.39843
20
-3.98789
11
5.39774
21
-3.98622
0
LINE
8
BLACK
6
CONTINUOUS
10
5.39774
20
-3.98622
11
5.39774
21
-3.51378
0
LINE
8
BLACK
6
CONTINUOUS
10
5.39774
20
-3.51378
11
5.39843
21
-3.51211
0
LINE
8
BLACK
6
CONTINUOUS
10
5.39843
20
-3.51211
11
5.4378
21
-3.47274
0
LINE
8
BLACK
6
CONTINUOUS
10
5.4378
20
-3.47274
11
5.43947
21
-3.47205
0
LINE
8
BLACK
6
CONTINUOUS
10
5.43947
20
-3.47205
11
5.93553
21
-3.47205
0
LINE
8
BLACK
6
CONTINUOUS
10
5.93553
20
-3.47205
11
5.9372
21
-3.47274
0
LINE
8
BLACK
6
CONTINUOUS
10
5.44045
20
-3.47677
11
5.40246
21
-3.51476
0
LINE
8
BLACK
6
CONTINUOUS
10
5.40246
20
-3.51476
11
5.40246
21
-3.98524
0
LINE
8
BLACK
6
CONTINUOUS
10
5.40246
20
-3.98524
11
5.44045
21
-4.02323
0
LINE
8
BLACK
6
CONTINUOUS
10
5.44045
20
-4.02323
11
5.93455
21
-4.02323
0
LINE
8
BLACK
6
CONTINUOUS
10
5.93455
20
-4.02323
11
5.97254
21
-3.98524
0
LINE
8
BLACK
6
CONTINUOUS
10
5.97254
20
-3.98524
11
5.97254
21
-3.51476
0
LINE
8
BLACK
6
CONTINUOUS
10
5.97254
20
-3.51476
11
5.93455
21
-3.47677
0
LINE
8
BLACK
6
CONTINUOUS
10
5.93455
20
-3.47677
11
5.44045
21
-3.47677
0
LINE
8
BLACK
6
CONTINUOUS
10
5.1872
20
-3.47274
11
5.1872
21
-3.47274
0
LINE
8
BLACK
6
CONTINUOUS
10
5.1872
20
-3.47274
11
5.22657
21
-3.51211
0
LINE
8
BLACK
6
CONTINUOUS
10
5.22657
20
-3.51211
11
5.22726
21
-3.51378
0
LINE
8
BLACK
6
CONTINUOUS
10
5.22726
20
-3.51378
11
5.22726
21
-3.51378
0
LINE
8
BLACK
6
CONTINUOUS
10
5.22726
20
-3.51378
11
5.22726
21
-3.98622
0
LINE
8
BLACK
6
CONTINUOUS
10
5.22726
20
-3.98622
11
5.22657
21
-3.98789
0
LINE
8
BLACK
6
CONTINUOUS
10
5.22657
20
-3.98789
11
5.1872
21
-4.02726
0
LINE
8
BLACK
6
CONTINUOUS
10
5.1872
20
-4.02726
11
5.1872
21
-4.02726
0
LINE
8
BLACK
6
CONTINUOUS
10
5.1872
20
-4.02726
11
5.18553
21
-4.02795
0
LINE
8
BLACK
6
CONTINUOUS
10
5.18553
20
-4.02795
11
4.68947
21
-4.02795
0
LINE
8
BLACK
6
CONTINUOUS
10
4.68947
20
-4.02795
11
4.6878
21
-4.02726
0
LINE
8
BLACK
6
CONTINUOUS
10
4.6878
20
-4.02726
11
4.64843
21
-3.98789
0
LINE
8
BLACK
6
CONTINUOUS
10
4.64843
20
-3.98789
11
4.64774
21
-3.98622
0
LINE
8
BLACK
6
CONTINUOUS
10
4.64774
20
-3.98622
11
4.64774
21
-3.51378
0
LINE
8
BLACK
6
CONTINUOUS
10
4.64774
20
-3.51378
11
4.64843
21
-3.51211
0
LINE
8
BLACK
6
CONTINUOUS
10
4.64843
20
-3.51211
11
4.6878
21
-3.47274
0
LINE
8
BLACK
6
CONTINUOUS
10
4.6878
20
-3.47274
11
4.68947
21
-3.47205
0
LINE
8
BLACK
6
CONTINUOUS
10
4.68947
20
-3.47205
11
5.18553
21
-3.47205
0
LINE
8
BLACK
6
CONTINUOUS
10
5.18553
20
-3.47205
11
5.1872
21
-3.47274
0
LINE
8
BLACK
6
CONTINUOUS
10
4.69045
20
-3.47677
11
4.65246
21
-3.51476
0
LINE
8
BLACK
6
CONTINUOUS
10
4.65246
20
-3.51476
11
4.65246
21
-3.98524
0
LINE
8
BLACK
6
CONTINUOUS
10
4.65246
20
-3.98524
11
4.69045
21
-4.02323
0
LINE
8
BLACK
6
CONTINUOUS
10
4.69045
20
-4.02323
11
5.18455
21
-4.02323
0
LINE
8
BLACK
6
CONTINUOUS
10
5.18455
20
-4.02323
11
5.22254
21
-3.98524
0
LINE
8
BLACK
6
CONTINUOUS
10
5.22254
20
-3.98524
11
5.22254
21
-3.51476
0
LINE
8
BLACK
6
CONTINUOUS
10
5.22254
20
-3.51476
11
5.18455
21
-3.47677
0
LINE
8
BLACK
6
CONTINUOUS
10
5.18455
20
-3.47677
11
4.69045
21
-3.47677
0
LINE
8
BLACK
6
CONTINUOUS
10
4.4372
20
-3.47274
11
4.4372
21
-3.47274
0
LINE
8
BLACK
6
CONTINUOUS
10
4.4372
20
-3.47274
11
4.47657
21
-3.51211
0
LINE
8
BLACK
6
CONTINUOUS
10
4.47657
20
-3.51211
11
4.47726
21
-3.51378
0
LINE
8
BLACK
6
CONTINUOUS
10
4.47726
20
-3.51378
11
4.47726
21
-3.51378
0
LINE
8
BLACK
6
CONTINUOUS
10
4.47726
20
-3.51378
11
4.47726
21
-3.98622
0
LINE
8
BLACK
6
CONTINUOUS
10
4.47726
20
-3.98622
11
4.47657
21
-3.98789
0
LINE
8
BLACK
6
CONTINUOUS
10
4.47657
20
-3.98789
11
4.4372
21
-4.02726
0
LINE
8
BLACK
6
CONTINUOUS
10
4.4372
20
-4.02726
11
4.4372
21
-4.02726
0
LINE
8
BLACK
6
CONTINUOUS
10
4.4372
20
-4.02726
11
4.43553
21
-4.02795
0
LINE
8
BLACK
6
CONTINUOUS
10
4.43553
20
-4.02795
11
3.93947
21
-4.02795
0
LINE
8
BLACK
6
CONTINUOUS
10
3.93947
20
-4.02795
11
3.9378
21
-4.02726
0
LINE
8
BLACK
6
CONTINUOUS
10
3.9378
20
-4.02726
11
3.89843
21
-3.98789
0
LINE
8
BLACK
6
CONTINUOUS
10
3.89843
20
-3.98789
11
3.89843
21
-3.98789
0
LINE
8
BLACK
6
CONTINUOUS
10
3.89843
20
-3.98789
11
3.89774
21
-3.98622
0
LINE
8
BLACK
6
CONTINUOUS
10
3.89774
20
-3.98622
11
3.89774
21
-3.51378
0
LINE
8
BLACK
6
CONTINUOUS
10
3.89774
20
-3.51378
11
3.89843
21
-3.51211
0
LINE
8
BLACK
6
CONTINUOUS
10
3.89843
20
-3.51211
11
3.9378
21
-3.47274
0
LINE
8
BLACK
6
CONTINUOUS
10
3.9378
20
-3.47274
11
3.93947
21
-3.47205
0
LINE
8
BLACK
6
CONTINUOUS
10
3.93947
20
-3.47205
11
4.43553
21
-3.47205
0
LINE
8
BLACK
6
CONTINUOUS
10
4.43553
20
-3.47205
11
4.4372
21
-3.47274
0
LINE
8
BLACK
6
CONTINUOUS
10
3.94045
20
-3.47677
11
3.90246
21
-3.51476
0
LINE
8
BLACK
6
CONTINUOUS
10
3.90246
20
-3.51476
11
3.90246
21
-3.98524
0
LINE
8
BLACK
6
CONTINUOUS
10
3.90246
20
-3.98524
11
3.94045
21
-4.02323
0
LINE
8
BLACK
6
CONTINUOUS
10
3.94045
20
-4.02323
11
4.43455
21
-4.02323
0
LINE
8
BLACK
6
CONTINUOUS
10
4.43455
20
-4.02323
11
4.47254
21
-3.98524
0
LINE
8
BLACK
6
CONTINUOUS
10
4.47254
20
-3.98524
11
4.47254
21
-3.51476
0
LINE
8
BLACK
6
CONTINUOUS
10
4.47254
20
-3.51476
11
4.43455
21
-3.47677
0
LINE
8
BLACK
6
CONTINUOUS
10
4.43455
20
-3.47677
11
3.94045
21
-3.47677
0
LINE
8
BLACK
6
CONTINUOUS
10
3.6872
20
-3.47274
11
3.6872
21
-3.47274
0
LINE
8
BLACK
6
CONTINUOUS
10
3.6872
20
-3.47274
11
3.72657
21
-3.51211
0
LINE
8
BLACK
6
CONTINUOUS
10
3.72657
20
-3.51211
11
3.72726
21
-3.51378
0
LINE
8
BLACK
6
CONTINUOUS
10
3.72726
20
-3.51378
11
3.72726
21
-3.98622
0
LINE
8
BLACK
6
CONTINUOUS
10
3.72726
20
-3.98622
11
3.72657
21
-3.98789
0
LINE
8
BLACK
6
CONTINUOUS
10
3.72657
20
-3.98789
11
3.6872
21
-4.02726
0
LINE
8
BLACK
6
CONTINUOUS
10
3.6872
20
-4.02726
11
3.6872
21
-4.02726
0
LINE
8
BLACK
6
CONTINUOUS
10
3.6872
20
-4.02726
11
3.68553
21
-4.02795
0
LINE
8
BLACK
6
CONTINUOUS
10
3.68553
20
-4.02795
11
3.18947
21
-4.02795
0
LINE
8
BLACK
6
CONTINUOUS
10
3.18947
20
-4.02795
11
3.1878
21
-4.02726
0
LINE
8
BLACK
6
CONTINUOUS
10
3.1878
20
-4.02726
11
3.14843
21
-3.98789
0
LINE
8
BLACK
6
CONTINUOUS
10
3.14843
20
-3.98789
11
3.14843
21
-3.98789
0
LINE
8
BLACK
6
CONTINUOUS
10
3.14843
20
-3.98789
11
3.14774
21
-3.98622
0
LINE
8
BLACK
6
CONTINUOUS
10
3.14774
20
-3.98622
11
3.14774
21
-3.51378
0
LINE
8
BLACK
6
CONTINUOUS
10
3.14774
20
-3.51378
11
3.14843
21
-3.51211
0
LINE
8
BLACK
6
CONTINUOUS
10
3.14843
20
-3.51211
11
3.1878
21
-3.47274
0
LINE
8
BLACK
6
CONTINUOUS
10
3.1878
20
-3.47274
11
3.18947
21
-3.47205
0
LINE
8
BLACK
6
CONTINUOUS
10
3.18947
20
-3.47205
11
3.68553
21
-3.47205
0
LINE
8
BLACK
6
CONTINUOUS
10
3.68553
20
-3.47205
11
3.6872
21
-3.47274
0
LINE
8
BLACK
6
CONTINUOUS
10
3.19045
20
-3.47677
11
3.15246
21
-3.51476
0
LINE
8
BLACK
6
CONTINUOUS
10
3.15246
20
-3.51476
11
3.15246
21
-3.98524
0
LINE
8
BLACK
6
CONTINUOUS
10
3.15246
20
-3.98524
11
3.19045
21
-4.02323
0
LINE
8
BLACK
6
CONTINUOUS
10
3.19045
20
-4.02323
11
3.68455
21
-4.02323
0
LINE
8
BLACK
6
CONTINUOUS
10
3.68455
20
-4.02323
11
3.72254
21
-3.98524
0
LINE
8
BLACK
6
CONTINUOUS
10
3.72254
20
-3.98524
11
3.72254
21
-3.51476
0
LINE
8
BLACK
6
CONTINUOUS
10
3.72254
20
-3.51476
11
3.68455
21
-3.47677
0
LINE
8
BLACK
6
CONTINUOUS
10
3.68455
20
-3.47677
11
3.19045
21
-3.47677
0
LINE
8
BLACK
6
CONTINUOUS
10
2.656
20
-3.47274
11
2.656
21
-3.47274
0
LINE
8
BLACK
6
CONTINUOUS
10
2.656
20
-3.47274
11
2.69537
21
-3.51211
0
LINE
8
BLACK
6
CONTINUOUS
10
2.69537
20
-3.51211
11
2.69606
21
-3.51378
0
LINE
8
BLACK
6
CONTINUOUS
10
2.69606
20
-3.51378
11
2.69606
21
-3.98622
0
LINE
8
BLACK
6
CONTINUOUS
10
2.69606
20
-3.98622
11
2.69537
21
-3.98789
0
LINE
8
BLACK
6
CONTINUOUS
10
2.69537
20
-3.98789
11
2.656
21
-4.02726
0
LINE
8
BLACK
6
CONTINUOUS
10
2.656
20
-4.02726
11
2.656
21
-4.02726
0
LINE
8
BLACK
6
CONTINUOUS
10
2.656
20
-4.02726
11
2.65433
21
-4.02795
0
LINE
8
BLACK
6
CONTINUOUS
10
2.65433
20
-4.02795
11
2.15827
21
-4.02795
0
LINE
8
BLACK
6
CONTINUOUS
10
2.15827
20
-4.02795
11
2.1566
21
-4.02726
0
LINE
8
BLACK
6
CONTINUOUS
10
2.1566
20
-4.02726
11
2.11723
21
-3.98789
0
LINE
8
BLACK
6
CONTINUOUS
10
2.11723
20
-3.98789
11
2.11723
21
-3.98789
0
LINE
8
BLACK
6
CONTINUOUS
10
2.11723
20
-3.98789
11
2.11654
21
-3.98622
0
LINE
8
BLACK
6
CONTINUOUS
10
2.11654
20
-3.98622
11
2.11654
21
-3.51378
0
LINE
8
BLACK
6
CONTINUOUS
10
2.11654
20
-3.51378
11
2.11723
21
-3.51211
0
LINE
8
BLACK
6
CONTINUOUS
10
2.11723
20
-3.51211
11
2.1566
21
-3.47274
0
LINE
8
BLACK
6
CONTINUOUS
10
2.1566
20
-3.47274
11
2.15827
21
-3.47205
0
LINE
8
BLACK
6
CONTINUOUS
10
2.15827
20
-3.47205
11
2.65433
21
-3.47205
0
LINE
8
BLACK
6
CONTINUOUS
10
2.65433
20
-3.47205
11
2.656
21
-3.47274
0
LINE
8
BLACK
6
CONTINUOUS
10
2.15925
20
-3.47677
11
2.12126
21
-3.51476
0
LINE
8
BLACK
6
CONTINUOUS
10
2.12126
20
-3.51476
11
2.12126
21
-3.98524
0
LINE
8
BLACK
6
CONTINUOUS
10
2.12126
20
-3.98524
11
2.15925
21
-4.02323
0
LINE
8
BLACK
6
CONTINUOUS
10
2.15925
20
-4.02323
11
2.65335
21
-4.02323
0
LINE
8
BLACK
6
CONTINUOUS
10
2.65335
20
-4.02323
11
2.69134
21
-3.98524
0
LINE
8
BLACK
6
CONTINUOUS
10
2.69134
20
-3.98524
11
2.69134
21
-3.51476
0
LINE
8
BLACK
6
CONTINUOUS
10
2.69134
20
-3.51476
11
2.65335
21
-3.47677
0
LINE
8
BLACK
6
CONTINUOUS
10
2.65335
20
-3.47677
11
2.15925
21
-3.47677
0
LINE
8
BLACK
6
CONTINUOUS
10
9.5934
20
-2.72274
11
9.5934
21
-2.72274
0
LINE
8
BLACK
6
CONTINUOUS
10
9.5934
20
-2.72274
11
9.63277
21
-2.76211
0
LINE
8
BLACK
6
CONTINUOUS
10
9.63277
20
-2.76211
11
9.63346
21
-2.76378
0
LINE
8
BLACK
6
CONTINUOUS
10
9.63346
20
-2.76378
11
9.63346
21
-2.76378
0
LINE
8
BLACK
6
CONTINUOUS
10
9.63346
20
-2.76378
11
9.63346
21
-3.23622
0
LINE
8
BLACK
6
CONTINUOUS
10
9.63346
20
-3.23622
11
9.63277
21
-3.23789
0
LINE
8
BLACK
6
CONTINUOUS
10
9.63277
20
-3.23789
11
9.5934
21
-3.27726
0
LINE
8
BLACK
6
CONTINUOUS
10
9.5934
20
-3.27726
11
9.5934
21
-3.27726
0
LINE
8
BLACK
6
CONTINUOUS
10
9.5934
20
-3.27726
11
9.59173
21
-3.27795
0
LINE
8
BLACK
6
CONTINUOUS
10
9.59173
20
-3.27795
11
9.09567
21
-3.27795
0
LINE
8
BLACK
6
CONTINUOUS
10
9.09567
20
-3.27795
11
9.094
21
-3.27726
0
LINE
8
BLACK
6
CONTINUOUS
10
9.094
20
-3.27726
11
9.05463
21
-3.23789
0
LINE
8
BLACK
6
CONTINUOUS
10
9.05463
20
-3.23789
11
9.05394
21
-3.23622
0
LINE
8
BLACK
6
CONTINUOUS
10
9.05394
20
-3.23622
11
9.05394
21
-2.76378
0
LINE
8
BLACK
6
CONTINUOUS
10
9.05394
20
-2.76378
11
9.05463
21
-2.76211
0
LINE
8
BLACK
6
CONTINUOUS
10
9.05463
20
-2.76211
11
9.05463
21
-2.76211
0
LINE
8
BLACK
6
CONTINUOUS
10
9.05463
20
-2.76211
11
9.094
21
-2.72274
0
LINE
8
BLACK
6
CONTINUOUS
10
9.094
20
-2.72274
11
9.09567
21
-2.72205
0
LINE
8
BLACK
6
CONTINUOUS
10
9.09567
20
-2.72205
11
9.59173
21
-2.72205
0
LINE
8
BLACK
6
CONTINUOUS
10
9.59173
20
-2.72205
11
9.5934
21
-2.72274
0
LINE
8
BLACK
6
CONTINUOUS
10
9.09665
20
-2.72677
11
9.05866
21
-2.76476
0
LINE
8
BLACK
6
CONTINUOUS
10
9.05866
20
-2.76476
11
9.05866
21
-3.23524
0
LINE
8
BLACK
6
CONTINUOUS
10
9.05866
20
-3.23524
11
9.09665
21
-3.27323
0
LINE
8
BLACK
6
CONTINUOUS
10
9.09665
20
-3.27323
11
9.59075
21
-3.27323
0
LINE
8
BLACK
6
CONTINUOUS
10
9.59075
20
-3.27323
11
9.62874
21
-3.23524
0
LINE
8
BLACK
6
CONTINUOUS
10
9.62874
20
-3.23524
11
9.62874
21
-2.76476
0
LINE
8
BLACK
6
CONTINUOUS
10
9.62874
20
-2.76476
11
9.59075
21
-2.72677
0
LINE
8
BLACK
6
CONTINUOUS
10
9.59075
20
-2.72677
11
9.09665
21
-2.72677
0
LINE
8
BLACK
6
CONTINUOUS
10
8.5622
20
-2.72274
11
8.5622
21
-2.72274
0
LINE
8
BLACK
6
CONTINUOUS
10
8.5622
20
-2.72274
11
8.60157
21
-2.76211
0
LINE
8
BLACK
6
CONTINUOUS
10
8.60157
20
-2.76211
11
8.60226
21
-2.76378
0
LINE
8
BLACK
6
CONTINUOUS
10
8.60226
20
-2.76378
11
8.60226
21
-2.76378
0
LINE
8
BLACK
6
CONTINUOUS
10
8.60226
20
-2.76378
11
8.60226
21
-3.23622
0
LINE
8
BLACK
6
CONTINUOUS
10
8.60226
20
-3.23622
11
8.60157
21
-3.23789
0
LINE
8
BLACK
6
CONTINUOUS
10
8.60157
20
-3.23789
11
8.5622
21
-3.27726
0
LINE
8
BLACK
6
CONTINUOUS
10
8.5622
20
-3.27726
11
8.5622
21
-3.27726
0
LINE
8
BLACK
6
CONTINUOUS
10
8.5622
20
-3.27726
11
8.56053
21
-3.27795
0
LINE
8
BLACK
6
CONTINUOUS
10
8.56053
20
-3.27795
11
8.06447
21
-3.27795
0
LINE
8
BLACK
6
CONTINUOUS
10
8.06447
20
-3.27795
11
8.0628
21
-3.27726
0
LINE
8
BLACK
6
CONTINUOUS
10
8.0628
20
-3.27726
11
8.02343
21
-3.23789
0
LINE
8
BLACK
6
CONTINUOUS
10
8.02343
20
-3.23789
11
8.02274
21
-3.23622
0
LINE
8
BLACK
6
CONTINUOUS
10
8.02274
20
-3.23622
11
8.02274
21
-2.76378
0
LINE
8
BLACK
6
CONTINUOUS
10
8.02274
20
-2.76378
11
8.02343
21
-2.76211
0
LINE
8
BLACK
6
CONTINUOUS
10
8.02343
20
-2.76211
11
8.02343
21
-2.76211
0
LINE
8
BLACK
6
CONTINUOUS
10
8.02343
20
-2.76211
11
8.0628
21
-2.72274
0
LINE
8
BLACK
6
CONTINUOUS
10
8.0628
20
-2.72274
11
8.06447
21
-2.72205
0
LINE
8
BLACK
6
CONTINUOUS
10
8.06447
20
-2.72205
11
8.56053
21
-2.72205
0
LINE
8
BLACK
6
CONTINUOUS
10
8.56053
20
-2.72205
11
8.5622
21
-2.72274
0
LINE
8
BLACK
6
CONTINUOUS
10
8.06545
20
-2.72677
11
8.02746
21
-2.76476
0
LINE
8
BLACK
6
CONTINUOUS
10
8.02746
20
-2.76476
11
8.02746
21
-3.23524
0
LINE
8
BLACK
6
CONTINUOUS
10
8.02746
20
-3.23524
11
8.06545
21
-3.27323
0
LINE
8
BLACK
6
CONTINUOUS
10
8.06545
20
-3.27323
11
8.55955
21
-3.27323
0
LINE
8
BLACK
6
CONTINUOUS
10
8.55955
20
-3.27323
11
8.59754
21
-3.23524
0
LINE
8
BLACK
6
CONTINUOUS
10
8.59754
20
-3.23524
11
8.59754
21
-2.76476
0
LINE
8
BLACK
6
CONTINUOUS
10
8.59754
20
-2.76476
11
8.55955
21
-2.72677
0
LINE
8
BLACK
6
CONTINUOUS
10
8.55955
20
-2.72677
11
8.06545
21
-2.72677
0
LINE
8
BLACK
6
CONTINUOUS
10
7.8122
20
-2.72274
11
7.8122
21
-2.72274
0
LINE
8
BLACK
6
CONTINUOUS
10
7.8122
20
-2.72274
11
7.85157
21
-2.76211
0
LINE
8
BLACK
6
CONTINUOUS
10
7.85157
20
-2.76211
11
7.85226
21
-2.76378
0
LINE
8
BLACK
6
CONTINUOUS
10
7.85226
20
-2.76378
11
7.85226
21
-2.76378
0
LINE
8
BLACK
6
CONTINUOUS
10
7.85226
20
-2.76378
11
7.85226
21
-3.23622
0
LINE
8
BLACK
6
CONTINUOUS
10
7.85226
20
-3.23622
11
7.85157
21
-3.23789
0
LINE
8
BLACK
6
CONTINUOUS
10
7.85157
20
-3.23789
11
7.8122
21
-3.27726
0
LINE
8
BLACK
6
CONTINUOUS
10
7.8122
20
-3.27726
11
7.8122
21
-3.27726
0
LINE
8
BLACK
6
CONTINUOUS
10
7.8122
20
-3.27726
11
7.81053
21
-3.27795
0
LINE
8
BLACK
6
CONTINUOUS
10
7.81053
20
-3.27795
11
7.31447
21
-3.27795
0
LINE
8
BLACK
6
CONTINUOUS
10
7.31447
20
-3.27795
11
7.3128
21
-3.27726
0
LINE
8
BLACK
6
CONTINUOUS
10
7.3128
20
-3.27726
11
7.27343
21
-3.23789
0
LINE
8
BLACK
6
CONTINUOUS
10
7.27343
20
-3.23789
11
7.27274
21
-3.23622
0
LINE
8
BLACK
6
CONTINUOUS
10
7.27274
20
-3.23622
11
7.27274
21
-2.76378
0
LINE
8
BLACK
6
CONTINUOUS
10
7.27274
20
-2.76378
11
7.27343
21
-2.76211
0
LINE
8
BLACK
6
CONTINUOUS
10
7.27343
20
-2.76211
11
7.27343
21
-2.76211
0
LINE
8
BLACK
6
CONTINUOUS
10
7.27343
20
-2.76211
11
7.3128
21
-2.72274
0
LINE
8
BLACK
6
CONTINUOUS
10
7.3128
20
-2.72274
11
7.31447
21
-2.72205
0
LINE
8
BLACK
6
CONTINUOUS
10
7.31447
20
-2.72205
11
7.81053
21
-2.72205
0
LINE
8
BLACK
6
CONTINUOUS
10
7.81053
20
-2.72205
11
7.8122
21
-2.72274
0
LINE
8
BLACK
6
CONTINUOUS
10
7.31545
20
-2.72677
11
7.27746
21
-2.76476
0
LINE
8
BLACK
6
CONTINUOUS
10
7.27746
20
-2.76476
11
7.27746
21
-3.23524
0
LINE
8
BLACK
6
CONTINUOUS
10
7.27746
20
-3.23524
11
7.31545
21
-3.27323
0
LINE
8
BLACK
6
CONTINUOUS
10
7.31545
20
-3.27323
11
7.80955
21
-3.27323
0
LINE
8
BLACK
6
CONTINUOUS
10
7.80955
20
-3.27323
11
7.84754
21
-3.23524
0
LINE
8
BLACK
6
CONTINUOUS
10
7.84754
20
-3.23524
11
7.84754
21
-2.76476
0
LINE
8
BLACK
6
CONTINUOUS
10
7.84754
20
-2.76476
11
7.80955
21
-2.72677
0
LINE
8
BLACK
6
CONTINUOUS
10
7.80955
20
-2.72677
11
7.31545
21
-2.72677
0
LINE
8
BLACK
6
CONTINUOUS
10
7.0622
20
-2.72274
11
7.0622
21
-2.72274
0
LINE
8
BLACK
6
CONTINUOUS
10
7.0622
20
-2.72274
11
7.10157
21
-2.76211
0
LINE
8
BLACK
6
CONTINUOUS
10
7.10157
20
-2.76211
11
7.10226
21
-2.76378
0
LINE
8
BLACK
6
CONTINUOUS
10
7.10226
20
-2.76378
11
7.10226
21
-2.76378
0
LINE
8
BLACK
6
CONTINUOUS
10
7.10226
20
-2.76378
11
7.10226
21
-3.23622
0
LINE
8
BLACK
6
CONTINUOUS
10
7.10226
20
-3.23622
11
7.10157
21
-3.23789
0
LINE
8
BLACK
6
CONTINUOUS
10
7.10157
20
-3.23789
11
7.0622
21
-3.27726
0
LINE
8
BLACK
6
CONTINUOUS
10
7.0622
20
-3.27726
11
7.0622
21
-3.27726
0
LINE
8
BLACK
6
CONTINUOUS
10
7.0622
20
-3.27726
11
7.06053
21
-3.27795
0
LINE
8
BLACK
6
CONTINUOUS
10
7.06053
20
-3.27795
11
6.56447
21
-3.27795
0
LINE
8
BLACK
6
CONTINUOUS
10
6.56447
20
-3.27795
11
6.5628
21
-3.27726
0
LINE
8
BLACK
6
CONTINUOUS
10
6.5628
20
-3.27726
11
6.52343
21
-3.23789
0
LINE
8
BLACK
6
CONTINUOUS
10
6.52343
20
-3.23789
11
6.52274
21
-3.23622
0
LINE
8
BLACK
6
CONTINUOUS
10
6.52274
20
-3.23622
11
6.52274
21
-2.76378
0
LINE
8
BLACK
6
CONTINUOUS
10
6.52274
20
-2.76378
11
6.52343
21
-2.76211
0
LINE
8
BLACK
6
CONTINUOUS
10
6.52343
20
-2.76211
11
6.52343
21
-2.76211
0
LINE
8
BLACK
6
CONTINUOUS
10
6.52343
20
-2.76211
11
6.5628
21
-2.72274
0
LINE
8
BLACK
6
CONTINUOUS
10
6.5628
20
-2.72274
11
6.56447
21
-2.72205
0
LINE
8
BLACK
6
CONTINUOUS
10
6.56447
20
-2.72205
11
7.06053
21
-2.72205
0
LINE
8
BLACK
6
CONTINUOUS
10
7.06053
20
-2.72205
11
7.0622
21
-2.72274
0
LINE
8
BLACK
6
CONTINUOUS
10
6.56545
20
-2.72677
11
6.52746
21
-2.76476
0
LINE
8
BLACK
6
CONTINUOUS
10
6.52746
20
-2.76476
11
6.52746
21
-3.23524
0
LINE
8
BLACK
6
CONTINUOUS
10
6.52746
20
-3.23524
11
6.56545
21
-3.27323
0
LINE
8
BLACK
6
CONTINUOUS
10
6.56545
20
-3.27323
11
7.05955
21
-3.27323
0
LINE
8
BLACK
6
CONTINUOUS
10
7.05955
20
-3.27323
11
7.09754
21
-3.23524
0
LINE
8
BLACK
6
CONTINUOUS
10
7.09754
20
-3.23524
11
7.09754
21
-2.76476
0
LINE
8
BLACK
6
CONTINUOUS
10
7.09754
20
-2.76476
11
7.05955
21
-2.72677
0
LINE
8
BLACK
6
CONTINUOUS
10
7.05955
20
-2.72677
11
6.56545
21
-2.72677
0
LINE
8
BLACK
6
CONTINUOUS
10
6.3122
20
-2.72274
11
6.3122
21
-2.72274
0
LINE
8
BLACK
6
CONTINUOUS
10
6.3122
20
-2.72274
11
6.35157
21
-2.76211
0
LINE
8
BLACK
6
CONTINUOUS
10
6.35157
20
-2.76211
11
6.35226
21
-2.76378
0
LINE
8
BLACK
6
CONTINUOUS
10
6.35226
20
-2.76378
11
6.35226
21
-3.23622
0
LINE
8
BLACK
6
CONTINUOUS
10
6.35226
20
-3.23622
11
6.35157
21
-3.23789
0
LINE
8
BLACK
6
CONTINUOUS
10
6.35157
20
-3.23789
11
6.3122
21
-3.27726
0
LINE
8
BLACK
6
CONTINUOUS
10
6.3122
20
-3.27726
11
6.3122
21
-3.27726
0
LINE
8
BLACK
6
CONTINUOUS
10
6.3122
20
-3.27726
11
6.31053
21
-3.27795
0
LINE
8
BLACK
6
CONTINUOUS
10
6.31053
20
-3.27795
11
5.81447
21
-3.27795
0
LINE
8
BLACK
6
CONTINUOUS
10
5.81447
20
-3.27795
11
5.8128
21
-3.27726
0
LINE
8
BLACK
6
CONTINUOUS
10
5.8128
20
-3.27726
11
5.77343
21
-3.23789
0
LINE
8
BLACK
6
CONTINUOUS
10
5.77343
20
-3.23789
11
5.77274
21
-3.23622
0
LINE
8
BLACK
6
CONTINUOUS
10
5.77274
20
-3.23622
11
5.77274
21
-2.76378
0
LINE
8
BLACK
6
CONTINUOUS
10
5.77274
20
-2.76378
11
5.77343
21
-2.76211
0
LINE
8
BLACK
6
CONTINUOUS
10
5.77343
20
-2.76211
11
5.77343
21
-2.76211
0
LINE
8
BLACK
6
CONTINUOUS
10
5.77343
20
-2.76211
11
5.8128
21
-2.72274
0
LINE
8
BLACK
6
CONTINUOUS
10
5.8128
20
-2.72274
11
5.81447
21
-2.72205
0
LINE
8
BLACK
6
CONTINUOUS
10
5.81447
20
-2.72205
11
6.31053
21
-2.72205
0
LINE
8
BLACK
6
CONTINUOUS
10
6.31053
20
-2.72205
11
6.3122
21
-2.72274
0
LINE
8
BLACK
6
CONTINUOUS
10
5.81545
20
-2.72677
11
5.77746
21
-2.76476
0
LINE
8
BLACK
6
CONTINUOUS
10
5.77746
20
-2.76476
11
5.77746
21
-3.23524
0
LINE
8
BLACK
6
CONTINUOUS
10
5.77746
20
-3.23524
11
5.81545
21
-3.27323
0
LINE
8
BLACK
6
CONTINUOUS
10
5.81545
20
-3.27323
11
6.30955
21
-3.27323
0
LINE
8
BLACK
6
CONTINUOUS
10
6.30955
20
-3.27323
11
6.34754
21
-3.23524
0
LINE
8
BLACK
6
CONTINUOUS
10
6.34754
20
-3.23524
11
6.34754
21
-2.76476
0
LINE
8
BLACK
6
CONTINUOUS
10
6.34754
20
-2.76476
11
6.30955
21
-2.72677
0
LINE
8
BLACK
6
CONTINUOUS
10
6.30955
20
-2.72677
11
5.81545
21
-2.72677
0
LINE
8
BLACK
6
CONTINUOUS
10
5.5622
20
-2.72274
11
5.5622
21
-2.72274
0
LINE
8
BLACK
6
CONTINUOUS
10
5.5622
20
-2.72274
11
5.60157
21
-2.76211
0
LINE
8
BLACK
6
CONTINUOUS
10
5.60157
20
-2.76211
11
5.60226
21
-2.76378
0
LINE
8
BLACK
6
CONTINUOUS
10
5.60226
20
-2.76378
11
5.60226
21
-3.23622
0
LINE
8
BLACK
6
CONTINUOUS
10
5.60226
20
-3.23622
11
5.60157
21
-3.23789
0
LINE
8
BLACK
6
CONTINUOUS
10
5.60157
20
-3.23789
11
5.5622
21
-3.27726
0
LINE
8
BLACK
6
CONTINUOUS
10
5.5622
20
-3.27726
11
5.5622
21
-3.27726
0
LINE
8
BLACK
6
CONTINUOUS
10
5.5622
20
-3.27726
11
5.56053
21
-3.27795
0
LINE
8
BLACK
6
CONTINUOUS
10
5.56053
20
-3.27795
11
5.06447
21
-3.27795
0
LINE
8
BLACK
6
CONTINUOUS
10
5.06447
20
-3.27795
11
5.0628
21
-3.27726
0
LINE
8
BLACK
6
CONTINUOUS
10
5.0628
20
-3.27726
11
5.02343
21
-3.23789
0
LINE
8
BLACK
6
CONTINUOUS
10
5.02343
20
-3.23789
11
5.02274
21
-3.23622
0
LINE
8
BLACK
6
CONTINUOUS
10
5.02274
20
-3.23622
11
5.02274
21
-2.76378
0
LINE
8
BLACK
6
CONTINUOUS
10
5.02274
20
-2.76378
11
5.02343
21
-2.76211
0
LINE
8
BLACK
6
CONTINUOUS
10
5.02343
20
-2.76211
11
5.02343
21
-2.76211
0
LINE
8
BLACK
6
CONTINUOUS
10
5.02343
20
-2.76211
11
5.0628
21
-2.72274
0
LINE
8
BLACK
6
CONTINUOUS
10
5.0628
20
-2.72274
11
5.06447
21
-2.72205
0
LINE
8
BLACK
6
CONTINUOUS
10
5.06447
20
-2.72205
11
5.56053
21
-2.72205
0
LINE
8
BLACK
6
CONTINUOUS
10
5.56053
20
-2.72205
11
5.5622
21
-2.72274
0
LINE
8
BLACK
6
CONTINUOUS
10
5.06545
20
-2.72677
11
5.02746
21
-2.76476
0
LINE
8
BLACK
6
CONTINUOUS
10
5.02746
20
-2.76476
11
5.02746
21
-3.23524
0
LINE
8
BLACK
6
CONTINUOUS
10
5.02746
20
-3.23524
11
5.06545
21
-3.27323
0
LINE
8
BLACK
6
CONTINUOUS
10
5.06545
20
-3.27323
11
5.55955
21
-3.27323
0
LINE
8
BLACK
6
CONTINUOUS
10
5.55955
20
-3.27323
11
5.59754
21
-3.23524
0
LINE
8
BLACK
6
CONTINUOUS
10
5.59754
20
-3.23524
11
5.59754
21
-2.76476
0
LINE
8
BLACK
6
CONTINUOUS
10
5.59754
20
-2.76476
11
5.55955
21
-2.72677
0
LINE
8
BLACK
6
CONTINUOUS
10
5.55955
20
-2.72677
11
5.06545
21
-2.72677
0
LINE
8
BLACK
6
CONTINUOUS
10
4.8122
20
-2.72274
11
4.8122
21
-2.72274
0
LINE
8
BLACK
6
CONTINUOUS
10
4.8122
20
-2.72274
11
4.85157
21
-2.76211
0
LINE
8
BLACK
6
CONTINUOUS
10
4.85157
20
-2.76211
11
4.85226
21
-2.76378
0
LINE
8
BLACK
6
CONTINUOUS
10
4.85226
20
-2.76378
11
4.85226
21
-3.23622
0
LINE
8
BLACK
6
CONTINUOUS
10
4.85226
20
-3.23622
11
4.85157
21
-3.23789
0
LINE
8
BLACK
6
CONTINUOUS
10
4.85157
20
-3.23789
11
4.8122
21
-3.27726
0
LINE
8
BLACK
6
CONTINUOUS
10
4.8122
20
-3.27726
11
4.8122
21
-3.27726
0
LINE
8
BLACK
6
CONTINUOUS
10
4.8122
20
-3.27726
11
4.81053
21
-3.27795
0
LINE
8
BLACK
6
CONTINUOUS
10
4.81053
20
-3.27795
11
4.31447
21
-3.27795
0
LINE
8
BLACK
6
CONTINUOUS
10
4.31447
20
-3.27795
11
4.3128
21
-3.27726
0
LINE
8
BLACK
6
CONTINUOUS
10
4.3128
20
-3.27726
11
4.27343
21
-3.23789
0
LINE
8
BLACK
6
CONTINUOUS
10
4.27343
20
-3.23789
11
4.27274
21
-3.23622
0
LINE
8
BLACK
6
CONTINUOUS
10
4.27274
20
-3.23622
11
4.27274
21
-2.76378
0
LINE
8
BLACK
6
CONTINUOUS
10
4.27274
20
-2.76378
11
4.27343
21
-2.76211
0
LINE
8
BLACK
6
CONTINUOUS
10
4.27343
20
-2.76211
11
4.27343
21
-2.76211
0
LINE
8
BLACK
6
CONTINUOUS
10
4.27343
20
-2.76211
11
4.3128
21
-2.72274
0
LINE
8
BLACK
6
CONTINUOUS
10
4.3128
20
-2.72274
11
4.31447
21
-2.72205
0
LINE
8
BLACK
6
CONTINUOUS
10
4.31447
20
-2.72205
11
4.81053
21
-2.72205
0
LINE
8
BLACK
6
CONTINUOUS
10
4.81053
20
-2.72205
11
4.8122
21
-2.72274
0
LINE
8
BLACK
6
CONTINUOUS
10
4.31545
20
-2.72677
11
4.27746
21
-2.76476
0
LINE
8
BLACK
6
CONTINUOUS
10
4.27746
20
-2.76476
11
4.27746
21
-3.23524
0
LINE
8
BLACK
6
CONTINUOUS
10
4.27746
20
-3.23524
11
4.31545
21
-3.27323
0
LINE
8
BLACK
6
CONTINUOUS
10
4.31545
20
-3.27323
11
4.80955
21
-3.27323
0
LINE
8
BLACK
6
CONTINUOUS
10
4.80955
20
-3.27323
11
4.84754
21
-3.23524
0
LINE
8
BLACK
6
CONTINUOUS
10
4.84754
20
-3.23524
11
4.84754
21
-2.76476
0
LINE
8
BLACK
6
CONTINUOUS
10
4.84754
20
-2.76476
11
4.80955
21
-2.72677
0
LINE
8
BLACK
6
CONTINUOUS
10
4.80955
20
-2.72677
11
4.31545
21
-2.72677
0
LINE
8
BLACK
6
CONTINUOUS
10
4.0622
20
-2.72274
11
4.0622
21
-2.72274
0
LINE
8
BLACK
6
CONTINUOUS
10
4.0622
20
-2.72274
11
4.10157
21
-2.76211
0
LINE
8
BLACK
6
CONTINUOUS
10
4.10157
20
-2.76211
11
4.10226
21
-2.76378
0
LINE
8
BLACK
6
CONTINUOUS
10
4.10226
20
-2.76378
11
4.10226
21
-3.23622
0
LINE
8
BLACK
6
CONTINUOUS
10
4.10226
20
-3.23622
11
4.10157
21
-3.23789
0
LINE
8
BLACK
6
CONTINUOUS
10
4.10157
20
-3.23789
11
4.0622
21
-3.27726
0
LINE
8
BLACK
6
CONTINUOUS
10
4.0622
20
-3.27726
11
4.0622
21
-3.27726
0
LINE
8
BLACK
6
CONTINUOUS
10
4.0622
20
-3.27726
11
4.06053
21
-3.27795
0
LINE
8
BLACK
6
CONTINUOUS
10
4.06053
20
-3.27795
11
3.56447
21
-3.27795
0
LINE
8
BLACK
6
CONTINUOUS
10
3.56447
20
-3.27795
11
3.5628
21
-3.27726
0
LINE
8
BLACK
6
CONTINUOUS
10
3.5628
20
-3.27726
11
3.52343
21
-3.23789
0
LINE
8
BLACK
6
CONTINUOUS
10
3.52343
20
-3.23789
11
3.52274
21
-3.23622
0
LINE
8
BLACK
6
CONTINUOUS
10
3.52274
20
-3.23622
11
3.52274
21
-2.76378
0
LINE
8
BLACK
6
CONTINUOUS
10
3.52274
20
-2.76378
11
3.52343
21
-2.76211
0
LINE
8
BLACK
6
CONTINUOUS
10
3.52343
20
-2.76211
11
3.5628
21
-2.72274
0
LINE
8
BLACK
6
CONTINUOUS
10
3.5628
20
-2.72274
11
3.56447
21
-2.72205
0
LINE
8
BLACK
6
CONTINUOUS
10
3.56447
20
-2.72205
11
4.06053
21
-2.72205
0
LINE
8
BLACK
6
CONTINUOUS
10
4.06053
20
-2.72205
11
4.0622
21
-2.72274
0
LINE
8
BLACK
6
CONTINUOUS
10
3.56545
20
-2.72677
11
3.52746
21
-2.76476
0
LINE
8
BLACK
6
CONTINUOUS
10
3.52746
20
-2.76476
11
3.52746
21
-3.23524
0
LINE
8
BLACK
6
CONTINUOUS
10
3.52746
20
-3.23524
11
3.56545
21
-3.27323
0
LINE
8
BLACK
6
CONTINUOUS
10
3.56545
20
-3.27323
11
4.05955
21
-3.27323
0
LINE
8
BLACK
6
CONTINUOUS
10
4.05955
20
-3.27323
11
4.09754
21
-3.23524
0
LINE
8
BLACK
6
CONTINUOUS
10
4.09754
20
-3.23524
11
4.09754
21
-2.76476
0
LINE
8
BLACK
6
CONTINUOUS
10
4.09754
20
-2.76476
11
4.05955
21
-2.72677
0
LINE
8
BLACK
6
CONTINUOUS
10
4.05955
20
-2.72677
11
3.56545
21
-2.72677
0
LINE
8
BLACK
6
CONTINUOUS
10
3.3122
20
-2.72274
11
3.3122
21
-2.72274
0
LINE
8
BLACK
6
CONTINUOUS
10
3.3122
20
-2.72274
11
3.35157
21
-2.76211
0
LINE
8
BLACK
6
CONTINUOUS
10
3.35157
20
-2.76211
11
3.35226
21
-2.76378
0
LINE
8
BLACK
6
CONTINUOUS
10
3.35226
20
-2.76378
11
3.35226
21
-3.23622
0
LINE
8
BLACK
6
CONTINUOUS
10
3.35226
20
-3.23622
11
3.35157
21
-3.23789
0
LINE
8
BLACK
6
CONTINUOUS
10
3.35157
20
-3.23789
11
3.3122
21
-3.27726
0
LINE
8
BLACK
6
CONTINUOUS
10
3.3122
20
-3.27726
11
3.3122
21
-3.27726
0
LINE
8
BLACK
6
CONTINUOUS
10
3.3122
20
-3.27726
11
3.31053
21
-3.27795
0
LINE
8
BLACK
6
CONTINUOUS
10
3.31053
20
-3.27795
11
2.81447
21
-3.27795
0
LINE
8
BLACK
6
CONTINUOUS
10
2.81447
20
-3.27795
11
2.8128
21
-3.27726
0
LINE
8
BLACK
6
CONTINUOUS
10
2.8128
20
-3.27726
11
2.77343
21
-3.23789
0
LINE
8
BLACK
6
CONTINUOUS
10
2.77343
20
-3.23789
11
2.77274
21
-3.23622
0
LINE
8
BLACK
6
CONTINUOUS
10
2.77274
20
-3.23622
11
2.77274
21
-2.76378
0
LINE
8
BLACK
6
CONTINUOUS
10
2.77274
20
-2.76378
11
2.77343
21
-2.76211
0
LINE
8
BLACK
6
CONTINUOUS
10
2.77343
20
-2.76211
11
2.8128
21
-2.72274
0
LINE
8
BLACK
6
CONTINUOUS
10
2.8128
20
-2.72274
11
2.81447
21
-2.72205
0
LINE
8
BLACK
6
CONTINUOUS
10
2.81447
20
-2.72205
11
3.31053
21
-2.72205
0
LINE
8
BLACK
6
CONTINUOUS
10
3.31053
20
-2.72205
11
3.3122
21
-2.72274
0
LINE
8
BLACK
6
CONTINUOUS
10
2.81545
20
-2.72677
11
2.77746
21
-2.76476
0
LINE
8
BLACK
6
CONTINUOUS
10
2.77746
20
-2.76476
11
2.77746
21
-3.23524
0
LINE
8
BLACK
6
CONTINUOUS
10
2.77746
20
-3.23524
11
2.81545
21
-3.27323
0
LINE
8
BLACK
6
CONTINUOUS
10
2.81545
20
-3.27323
11
3.30955
21
-3.27323
0
LINE
8
BLACK
6
CONTINUOUS
10
3.30955
20
-3.27323
11
3.34754
21
-3.23524
0
LINE
8
BLACK
6
CONTINUOUS
10
3.34754
20
-3.23524
11
3.34754
21
-2.76476
0
LINE
8
BLACK
6
CONTINUOUS
10
3.34754
20
-2.76476
11
3.30955
21
-2.72677
0
LINE
8
BLACK
6
CONTINUOUS
10
3.30955
20
-2.72677
11
2.81545
21
-2.72677
0
LINE
8
BLACK
6
CONTINUOUS
10
2.46852
20
-2.72274
11
2.46852
21
-2.72274
0
LINE
8
BLACK
6
CONTINUOUS
10
2.46852
20
-2.72274
11
2.50789
21
-2.76211
0
LINE
8
BLACK
6
CONTINUOUS
10
2.50789
20
-2.76211
11
2.50858
21
-2.76378
0
LINE
8
BLACK
6
CONTINUOUS
10
2.50858
20
-2.76378
11
2.50858
21
-3.23622
0
LINE
8
BLACK
6
CONTINUOUS
10
2.50858
20
-3.23622
11
2.50789
21
-3.23789
0
LINE
8
BLACK
6
CONTINUOUS
10
2.50789
20
-3.23789
11
2.46852
21
-3.27726
0
LINE
8
BLACK
6
CONTINUOUS
10
2.46852
20
-3.27726
11
2.46852
21
-3.27726
0
LINE
8
BLACK
6
CONTINUOUS
10
2.46852
20
-3.27726
11
2.46685
21
-3.27795
0
LINE
8
BLACK
6
CONTINUOUS
10
2.46685
20
-3.27795
11
1.97079
21
-3.27795
0
LINE
8
BLACK
6
CONTINUOUS
10
1.97079
20
-3.27795
11
1.96912
21
-3.27726
0
LINE
8
BLACK
6
CONTINUOUS
10
1.96912
20
-3.27726
11
1.92975
21
-3.23789
0
LINE
8
BLACK
6
CONTINUOUS
10
1.92975
20
-3.23789
11
1.92906
21
-3.23622
0
LINE
8
BLACK
6
CONTINUOUS
10
1.92906
20
-3.23622
11
1.92906
21
-2.76378
0
LINE
8
BLACK
6
CONTINUOUS
10
1.92906
20
-2.76378
11
1.92975
21
-2.76211
0
LINE
8
BLACK
6
CONTINUOUS
10
1.92975
20
-2.76211
11
1.96912
21
-2.72274
0
LINE
8
BLACK
6
CONTINUOUS
10
1.96912
20
-2.72274
11
1.97079
21
-2.72205
0
LINE
8
BLACK
6
CONTINUOUS
10
1.97079
20
-2.72205
11
2.46685
21
-2.72205
0
LINE
8
BLACK
6
CONTINUOUS
10
2.46685
20
-2.72205
11
2.46852
21
-2.72274
0
LINE
8
BLACK
6
CONTINUOUS
10
1.97177
20
-2.72677
11
1.93378
21
-2.76476
0
LINE
8
BLACK
6
CONTINUOUS
10
1.93378
20
-2.76476
11
1.93378
21
-3.23524
0
LINE
8
BLACK
6
CONTINUOUS
10
1.93378
20
-3.23524
11
1.97177
21
-3.27323
0
LINE
8
BLACK
6
CONTINUOUS
10
1.97177
20
-3.27323
11
2.46587
21
-3.27323
0
LINE
8
BLACK
6
CONTINUOUS
10
2.46587
20
-3.27323
11
2.50386
21
-3.23524
0
LINE
8
BLACK
6
CONTINUOUS
10
2.50386
20
-3.23524
11
2.50386
21
-2.76476
0
LINE
8
BLACK
6
CONTINUOUS
10
2.50386
20
-2.76476
11
2.46587
21
-2.72677
0
LINE
8
BLACK
6
CONTINUOUS
10
2.46587
20
-2.72677
11
1.97177
21
-2.72677
0
LINE
8
BLACK
6
CONTINUOUS
10
9.8747
20
-1.97274
11
9.8747
21
-1.97274
0
LINE
8
BLACK
6
CONTINUOUS
10
9.8747
20
-1.97274
11
9.91407
21
-2.01211
0
LINE
8
BLACK
6
CONTINUOUS
10
9.91407
20
-2.01211
11
9.91476
21
-2.01378
0
LINE
8
BLACK
6
CONTINUOUS
10
9.91476
20
-2.01378
11
9.91476
21
-2.48622
0
LINE
8
BLACK
6
CONTINUOUS
10
9.91476
20
-2.48622
11
9.91407
21
-2.48789
0
LINE
8
BLACK
6
CONTINUOUS
10
9.91407
20
-2.48789
11
9.8747
21
-2.52726
0
LINE
8
BLACK
6
CONTINUOUS
10
9.8747
20
-2.52726
11
9.8747
21
-2.52726
0
LINE
8
BLACK
6
CONTINUOUS
10
9.8747
20
-2.52726
11
9.87303
21
-2.52795
0
LINE
8
BLACK
6
CONTINUOUS
10
9.87303
20
-2.52795
11
9.37697
21
-2.52795
0
LINE
8
BLACK
6
CONTINUOUS
10
9.37697
20
-2.52795
11
9.3753
21
-2.52726
0
LINE
8
BLACK
6
CONTINUOUS
10
9.3753
20
-2.52726
11
9.33593
21
-2.48789
0
LINE
8
BLACK
6
CONTINUOUS
10
9.33593
20
-2.48789
11
9.33593
21
-2.48789
0
LINE
8
BLACK
6
CONTINUOUS
10
9.33593
20
-2.48789
11
9.33524
21
-2.48622
0
LINE
8
BLACK
6
CONTINUOUS
10
9.33524
20
-2.48622
11
9.33524
21
-2.01378
0
LINE
8
BLACK
6
CONTINUOUS
10
9.33524
20
-2.01378
11
9.33593
21
-2.01211
0
LINE
8
BLACK
6
CONTINUOUS
10
9.33593
20
-2.01211
11
9.3753
21
-1.97274
0
LINE
8
BLACK
6
CONTINUOUS
10
9.3753
20
-1.97274
11
9.37697
21
-1.97205
0
LINE
8
BLACK
6
CONTINUOUS
10
9.37697
20
-1.97205
11
9.87303
21
-1.97205
0
LINE
8
BLACK
6
CONTINUOUS
10
9.87303
20
-1.97205
11
9.8747
21
-1.97274
0
LINE
8
BLACK
6
CONTINUOUS
10
9.37795
20
-1.97677
11
9.33996
21
-2.01476
0
LINE
8
BLACK
6
CONTINUOUS
10
9.33996
20
-2.01476
11
9.33996
21
-2.48524
0
LINE
8
BLACK
6
CONTINUOUS
10
9.33996
20
-2.48524
11
9.37795
21
-2.52323
0
LINE
8
BLACK
6
CONTINUOUS
10
9.37795
20
-2.52323
11
9.87205
21
-2.52323
0
LINE
8
BLACK
6
CONTINUOUS
10
9.87205
20
-2.52323
11
9.91004
21
-2.48524
0
LINE
8
BLACK
6
CONTINUOUS
10
9.91004
20
-2.48524
11
9.91004
21
-2.01476
0
LINE
8
BLACK
6
CONTINUOUS
10
9.91004
20
-2.01476
11
9.87205
21
-1.97677
0
LINE
8
BLACK
6
CONTINUOUS
10
9.87205
20
-1.97677
11
9.37795
21
-1.97677
0
LINE
8
BLACK
6
CONTINUOUS
10
9.1247
20
-1.97274
11
9.1247
21
-1.97274
0
LINE
8
BLACK
6
CONTINUOUS
10
9.1247
20
-1.97274
11
9.16407
21
-2.01211
0
LINE
8
BLACK
6
CONTINUOUS
10
9.16407
20
-2.01211
11
9.16476
21
-2.01378
0
LINE
8
BLACK
6
CONTINUOUS
10
9.16476
20
-2.01378
11
9.16476
21
-2.48622
0
LINE
8
BLACK
6
CONTINUOUS
10
9.16476
20
-2.48622
11
9.16407
21
-2.48789
0
LINE
8
BLACK
6
CONTINUOUS
10
9.16407
20
-2.48789
11
9.1247
21
-2.52726
0
LINE
8
BLACK
6
CONTINUOUS
10
9.1247
20
-2.52726
11
9.1247
21
-2.52726
0
LINE
8
BLACK
6
CONTINUOUS
10
9.1247
20
-2.52726
11
9.12303
21
-2.52795
0
LINE
8
BLACK
6
CONTINUOUS
10
9.12303
20
-2.52795
11
8.62697
21
-2.52795
0
LINE
8
BLACK
6
CONTINUOUS
10
8.62697
20
-2.52795
11
8.6253
21
-2.52726
0
LINE
8
BLACK
6
CONTINUOUS
10
8.6253
20
-2.52726
11
8.58593
21
-2.48789
0
LINE
8
BLACK
6
CONTINUOUS
10
8.58593
20
-2.48789
11
8.58593
21
-2.48789
0
LINE
8
BLACK
6
CONTINUOUS
10
8.58593
20
-2.48789
11
8.58524
21
-2.48622
0
LINE
8
BLACK
6
CONTINUOUS
10
8.58524
20
-2.48622
11
8.58524
21
-2.01378
0
LINE
8
BLACK
6
CONTINUOUS
10
8.58524
20
-2.01378
11
8.58593
21
-2.01211
0
LINE
8
BLACK
6
CONTINUOUS
10
8.58593
20
-2.01211
11
8.6253
21
-1.97274
0
LINE
8
BLACK
6
CONTINUOUS
10
8.6253
20
-1.97274
11
8.62697
21
-1.97205
0
LINE
8
BLACK
6
CONTINUOUS
10
8.62697
20
-1.97205
11
9.12303
21
-1.97205
0
LINE
8
BLACK
6
CONTINUOUS
10
9.12303
20
-1.97205
11
9.1247
21
-1.97274
0
LINE
8
BLACK
6
CONTINUOUS
10
8.62795
20
-1.97677
11
8.58996
21
-2.01476
0
LINE
8
BLACK
6
CONTINUOUS
10
8.58996
20
-2.01476
11
8.58996
21
-2.48524
0
LINE
8
BLACK
6
CONTINUOUS
10
8.58996
20
-2.48524
11
8.62795
21
-2.52323
0
LINE
8
BLACK
6
CONTINUOUS
10
8.62795
20
-2.52323
11
9.12205
21
-2.52323
0
LINE
8
BLACK
6
CONTINUOUS
10
9.12205
20
-2.52323
11
9.16004
21
-2.48524
0
LINE
8
BLACK
6
CONTINUOUS
10
9.16004
20
-2.48524
11
9.16004
21
-2.01476
0
LINE
8
BLACK
6
CONTINUOUS
10
9.16004
20
-2.01476
11
9.12205
21
-1.97677
0
LINE
8
BLACK
6
CONTINUOUS
10
9.12205
20
-1.97677
11
8.62795
21
-1.97677
0
LINE
8
BLACK
6
CONTINUOUS
10
8.3747
20
-1.97274
11
8.3747
21
-1.97274
0
LINE
8
BLACK
6
CONTINUOUS
10
8.3747
20
-1.97274
11
8.41407
21
-2.01211
0
LINE
8
BLACK
6
CONTINUOUS
10
8.41407
20
-2.01211
11
8.41476
21
-2.01378
0
LINE
8
BLACK
6
CONTINUOUS
10
8.41476
20
-2.01378
11
8.41476
21
-2.48622
0
LINE
8
BLACK
6
CONTINUOUS
10
8.41476
20
-2.48622
11
8.41407
21
-2.48789
0
LINE
8
BLACK
6
CONTINUOUS
10
8.41407
20
-2.48789
11
8.3747
21
-2.52726
0
LINE
8
BLACK
6
CONTINUOUS
10
8.3747
20
-2.52726
11
8.3747
21
-2.52726
0
LINE
8
BLACK
6
CONTINUOUS
10
8.3747
20
-2.52726
11
8.37303
21
-2.52795
0
LINE
8
BLACK
6
CONTINUOUS
10
8.37303
20
-2.52795
11
7.87697
21
-2.52795
0
LINE
8
BLACK
6
CONTINUOUS
10
7.87697
20
-2.52795
11
7.8753
21
-2.52726
0
LINE
8
BLACK
6
CONTINUOUS
10
7.8753
20
-2.52726
11
7.83593
21
-2.48789
0
LINE
8
BLACK
6
CONTINUOUS
10
7.83593
20
-2.48789
11
7.83593
21
-2.48789
0
LINE
8
BLACK
6
CONTINUOUS
10
7.83593
20
-2.48789
11
7.83524
21
-2.48622
0
LINE
8
BLACK
6
CONTINUOUS
10
7.83524
20
-2.48622
11
7.83524
21
-2.01378
0
LINE
8
BLACK
6
CONTINUOUS
10
7.83524
20
-2.01378
11
7.83593
21
-2.01211
0
LINE
8
BLACK
6
CONTINUOUS
10
7.83593
20
-2.01211
11
7.8753
21
-1.97274
0
LINE
8
BLACK
6
CONTINUOUS
10
7.8753
20
-1.97274
11
7.87697
21
-1.97205
0
LINE
8
BLACK
6
CONTINUOUS
10
7.87697
20
-1.97205
11
8.37303
21
-1.97205
0
LINE
8
BLACK
6
CONTINUOUS
10
8.37303
20
-1.97205
11
8.3747
21
-1.97274
0
LINE
8
BLACK
6
CONTINUOUS
10
7.87795
20
-1.97677
11
7.83996
21
-2.01476
0
LINE
8
BLACK
6
CONTINUOUS
10
7.83996
20
-2.01476
11
7.83996
21
-2.48524
0
LINE
8
BLACK
6
CONTINUOUS
10
7.83996
20
-2.48524
11
7.87795
21
-2.52323
0
LINE
8
BLACK
6
CONTINUOUS
10
7.87795
20
-2.52323
11
8.37205
21
-2.52323
0
LINE
8
BLACK
6
CONTINUOUS
10
8.37205
20
-2.52323
11
8.41004
21
-2.48524
0
LINE
8
BLACK
6
CONTINUOUS
10
8.41004
20
-2.48524
11
8.41004
21
-2.01476
0
LINE
8
BLACK
6
CONTINUOUS
10
8.41004
20
-2.01476
11
8.37205
21
-1.97677
0
LINE
8
BLACK
6
CONTINUOUS
10
8.37205
20
-1.97677
11
7.87795
21
-1.97677
0
LINE
8
BLACK
6
CONTINUOUS
10
7.6247
20
-1.97274
11
7.6247
21
-1.97274
0
LINE
8
BLACK
6
CONTINUOUS
10
7.6247
20
-1.97274
11
7.66407
21
-2.01211
0
LINE
8
BLACK
6
CONTINUOUS
10
7.66407
20
-2.01211
11
7.66476
21
-2.01378
0
LINE
8
BLACK
6
CONTINUOUS
10
7.66476
20
-2.01378
11
7.66476
21
-2.48622
0
LINE
8
BLACK
6
CONTINUOUS
10
7.66476
20
-2.48622
11
7.66407
21
-2.48789
0
LINE
8
BLACK
6
CONTINUOUS
10
7.66407
20
-2.48789
11
7.6247
21
-2.52726
0
LINE
8
BLACK
6
CONTINUOUS
10
7.6247
20
-2.52726
11
7.62303
21
-2.52795
0
LINE
8
BLACK
6
CONTINUOUS
10
7.62303
20
-2.52795
11
7.12697
21
-2.52795
0
LINE
8
BLACK
6
CONTINUOUS
10
7.12697
20
-2.52795
11
7.1253
21
-2.52726
0
LINE
8
BLACK
6
CONTINUOUS
10
7.1253
20
-2.52726
11
7.08593
21
-2.48789
0
LINE
8
BLACK
6
CONTINUOUS
10
7.08593
20
-2.48789
11
7.08593
21
-2.48789
0
LINE
8
BLACK
6
CONTINUOUS
10
7.08593
20
-2.48789
11
7.08524
21
-2.48622
0
LINE
8
BLACK
6
CONTINUOUS
10
7.08524
20
-2.48622
11
7.08524
21
-2.01378
0
LINE
8
BLACK
6
CONTINUOUS
10
7.08524
20
-2.01378
11
7.08593
21
-2.01211
0
LINE
8
BLACK
6
CONTINUOUS
10
7.08593
20
-2.01211
11
7.1253
21
-1.97274
0
LINE
8
BLACK
6
CONTINUOUS
10
7.1253
20
-1.97274
11
7.12697
21
-1.97205
0
LINE
8
BLACK
6
CONTINUOUS
10
7.12697
20
-1.97205
11
7.62303
21
-1.97205
0
LINE
8
BLACK
6
CONTINUOUS
10
7.62303
20
-1.97205
11
7.6247
21
-1.97274
0
LINE
8
BLACK
6
CONTINUOUS
10
7.12795
20
-1.97677
11
7.08996
21
-2.01476
0
LINE
8
BLACK
6
CONTINUOUS
10
7.08996
20
-2.01476
11
7.08996
21
-2.48524
0
LINE
8
BLACK
6
CONTINUOUS
10
7.08996
20
-2.48524
11
7.12795
21
-2.52323
0
LINE
8
BLACK
6
CONTINUOUS
10
7.12795
20
-2.52323
11
7.62205
21
-2.52323
0
LINE
8
BLACK
6
CONTINUOUS
10
7.62205
20
-2.52323
11
7.66004
21
-2.48524
0
LINE
8
BLACK
6
CONTINUOUS
10
7.66004
20
-2.48524
11
7.66004
21
-2.01476
0
LINE
8
BLACK
6
CONTINUOUS
10
7.66004
20
-2.01476
11
7.62205
21
-1.97677
0
LINE
8
BLACK
6
CONTINUOUS
10
7.62205
20
-1.97677
11
7.12795
21
-1.97677
0
LINE
8
BLACK
6
CONTINUOUS
10
6.8747
20
-1.97274
11
6.8747
21
-1.97274
0
LINE
8
BLACK
6
CONTINUOUS
10
6.8747
20
-1.97274
11
6.91407
21
-2.01211
0
LINE
8
BLACK
6
CONTINUOUS
10
6.91407
20
-2.01211
11
6.91476
21
-2.01378
0
LINE
8
BLACK
6
CONTINUOUS
10
6.91476
20
-2.01378
11
6.91476
21
-2.48622
0
LINE
8
BLACK
6
CONTINUOUS
10
6.91476
20
-2.48622
11
6.91407
21
-2.48789
0
LINE
8
BLACK
6
CONTINUOUS
10
6.91407
20
-2.48789
11
6.8747
21
-2.52726
0
LINE
8
BLACK
6
CONTINUOUS
10
6.8747
20
-2.52726
11
6.87303
21
-2.52795
0
LINE
8
BLACK
6
CONTINUOUS
10
6.87303
20
-2.52795
11
6.37697
21
-2.52795
0
LINE
8
BLACK
6
CONTINUOUS
10
6.37697
20
-2.52795
11
6.3753
21
-2.52726
0
LINE
8
BLACK
6
CONTINUOUS
10
6.3753
20
-2.52726
11
6.33593
21
-2.48789
0
LINE
8
BLACK
6
CONTINUOUS
10
6.33593
20
-2.48789
11
6.33593
21
-2.48789
0
LINE
8
BLACK
6
CONTINUOUS
10
6.33593
20
-2.48789
11
6.33524
21
-2.48622
0
LINE
8
BLACK
6
CONTINUOUS
10
6.33524
20
-2.48622
11
6.33524
21
-2.01378
0
LINE
8
BLACK
6
CONTINUOUS
10
6.33524
20
-2.01378
11
6.33593
21
-2.01211
0
LINE
8
BLACK
6
CONTINUOUS
10
6.33593
20
-2.01211
11
6.3753
21
-1.97274
0
LINE
8
BLACK
6
CONTINUOUS
10
6.3753
20
-1.97274
11
6.37697
21
-1.97205
0
LINE
8
BLACK
6
CONTINUOUS
10
6.37697
20
-1.97205
11
6.87303
21
-1.97205
0
LINE
8
BLACK
6
CONTINUOUS
10
6.87303
20
-1.97205
11
6.8747
21
-1.97274
0
LINE
8
BLACK
6
CONTINUOUS
10
6.37795
20
-1.97677
11
6.33996
21
-2.01476
0
LINE
8
BLACK
6
CONTINUOUS
10
6.33996
20
-2.01476
11
6.33996
21
-2.48524
0
LINE
8
BLACK
6
CONTINUOUS
10
6.33996
20
-2.48524
11
6.37795
21
-2.52323
0
LINE
8
BLACK
6
CONTINUOUS
10
6.37795
20
-2.52323
11
6.87205
21
-2.52323
0
LINE
8
BLACK
6
CONTINUOUS
10
6.87205
20
-2.52323
11
6.91004
21
-2.48524
0
LINE
8
BLACK
6
CONTINUOUS
10
6.91004
20
-2.48524
11
6.91004
21
-2.01476
0
LINE
8
BLACK
6
CONTINUOUS
10
6.91004
20
-2.01476
11
6.87205
21
-1.97677
0
LINE
8
BLACK
6
CONTINUOUS
10
6.87205
20
-1.97677
11
6.37795
21
-1.97677
0
LINE
8
BLACK
6
CONTINUOUS
10
6.1247
20
-1.97274
11
6.1247
21
-1.97274
0
LINE
8
BLACK
6
CONTINUOUS
10
6.1247
20
-1.97274
11
6.16407
21
-2.01211
0
LINE
8
BLACK
6
CONTINUOUS
10
6.16407
20
-2.01211
11
6.16476
21
-2.01378
0
LINE
8
BLACK
6
CONTINUOUS
10
6.16476
20
-2.01378
11
6.16476
21
-2.48622
0
LINE
8
BLACK
6
CONTINUOUS
10
6.16476
20
-2.48622
11
6.16407
21
-2.48789
0
LINE
8
BLACK
6
CONTINUOUS
10
6.16407
20
-2.48789
11
6.1247
21
-2.52726
0
LINE
8
BLACK
6
CONTINUOUS
10
6.1247
20
-2.52726
11
6.12303
21
-2.52795
0
LINE
8
BLACK
6
CONTINUOUS
10
6.12303
20
-2.52795
11
5.62697
21
-2.52795
0
LINE
8
BLACK
6
CONTINUOUS
10
5.62697
20
-2.52795
11
5.6253
21
-2.52726
0
LINE
8
BLACK
6
CONTINUOUS
10
5.6253
20
-2.52726
11
5.58593
21
-2.48789
0
LINE
8
BLACK
6
CONTINUOUS
10
5.58593
20
-2.48789
11
5.58593
21
-2.48789
0
LINE
8
BLACK
6
CONTINUOUS
10
5.58593
20
-2.48789
11
5.58524
21
-2.48622
0
LINE
8
BLACK
6
CONTINUOUS
10
5.58524
20
-2.48622
11
5.58524
21
-2.01378
0
LINE
8
BLACK
6
CONTINUOUS
10
5.58524
20
-2.01378
11
5.58593
21
-2.01211
0
LINE
8
BLACK
6
CONTINUOUS
10
5.58593
20
-2.01211
11
5.6253
21
-1.97274
0
LINE
8
BLACK
6
CONTINUOUS
10
5.6253
20
-1.97274
11
5.62697
21
-1.97205
0
LINE
8
BLACK
6
CONTINUOUS
10
5.62697
20
-1.97205
11
6.12303
21
-1.97205
0
LINE
8
BLACK
6
CONTINUOUS
10
6.12303
20
-1.97205
11
6.1247
21
-1.97274
0
LINE
8
BLACK
6
CONTINUOUS
10
5.62795
20
-1.97677
11
5.58996
21
-2.01476
0
LINE
8
BLACK
6
CONTINUOUS
10
5.58996
20
-2.01476
11
5.58996
21
-2.48524
0
LINE
8
BLACK
6
CONTINUOUS
10
5.58996
20
-2.48524
11
5.62795
21
-2.52323
0
LINE
8
BLACK
6
CONTINUOUS
10
5.62795
20
-2.52323
11
6.12205
21
-2.52323
0
LINE
8
BLACK
6
CONTINUOUS
10
6.12205
20
-2.52323
11
6.16004
21
-2.48524
0
LINE
8
BLACK
6
CONTINUOUS
10
6.16004
20
-2.48524
11
6.16004
21
-2.01476
0
LINE
8
BLACK
6
CONTINUOUS
10
6.16004
20
-2.01476
11
6.12205
21
-1.97677
0
LINE
8
BLACK
6
CONTINUOUS
10
6.12205
20
-1.97677
11
5.62795
21
-1.97677
0
LINE
8
BLACK
6
CONTINUOUS
10
5.3747
20
-1.97274
11
5.3747
21
-1.97274
0
LINE
8
BLACK
6
CONTINUOUS
10
5.3747
20
-1.97274
11
5.41407
21
-2.01211
0
LINE
8
BLACK
6
CONTINUOUS
10
5.41407
20
-2.01211
11
5.41476
21
-2.01378
0
LINE
8
BLACK
6
CONTINUOUS
10
5.41476
20
-2.01378
11
5.41476
21
-2.48622
0
LINE
8
BLACK
6
CONTINUOUS
10
5.41476
20
-2.48622
11
5.41407
21
-2.48789
0
LINE
8
BLACK
6
CONTINUOUS
10
5.41407
20
-2.48789
11
5.3747
21
-2.52726
0
LINE
8
BLACK
6
CONTINUOUS
10
5.3747
20
-2.52726
11
5.37303
21
-2.52795
0
LINE
8
BLACK
6
CONTINUOUS
10
5.37303
20
-2.52795
11
4.87697
21
-2.52795
0
LINE
8
BLACK
6
CONTINUOUS
10
4.87697
20
-2.52795
11
4.8753
21
-2.52726
0
LINE
8
BLACK
6
CONTINUOUS
10
4.8753
20
-2.52726
11
4.83593
21
-2.48789
0
LINE
8
BLACK
6
CONTINUOUS
10
4.83593
20
-2.48789
11
4.83593
21
-2.48789
0
LINE
8
BLACK
6
CONTINUOUS
10
4.83593
20
-2.48789
11
4.83524
21
-2.48622
0
LINE
8
BLACK
6
CONTINUOUS
10
4.83524
20
-2.48622
11
4.83524
21
-2.01378
0
LINE
8
BLACK
6
CONTINUOUS
10
4.83524
20
-2.01378
11
4.83593
21
-2.01211
0
LINE
8
BLACK
6
CONTINUOUS
10
4.83593
20
-2.01211
11
4.83593
21
-2.01211
0
LINE
8
BLACK
6
CONTINUOUS
10
4.83593
20
-2.01211
11
4.8753
21
-1.97274
0
LINE
8
BLACK
6
CONTINUOUS
10
4.8753
20
-1.97274
11
4.87697
21
-1.97205
0
LINE
8
BLACK
6
CONTINUOUS
10
4.87697
20
-1.97205
11
5.37303
21
-1.97205
0
LINE
8
BLACK
6
CONTINUOUS
10
5.37303
20
-1.97205
11
5.3747
21
-1.97274
0
LINE
8
BLACK
6
CONTINUOUS
10
4.87795
20
-1.97677
11
4.83996
21
-2.01476
0
LINE
8
BLACK
6
CONTINUOUS
10
4.83996
20
-2.01476
11
4.83996
21
-2.48524
0
LINE
8
BLACK
6
CONTINUOUS
10
4.83996
20
-2.48524
11
4.87795
21
-2.52323
0
LINE
8
BLACK
6
CONTINUOUS
10
4.87795
20
-2.52323
11
5.37205
21
-2.52323
0
LINE
8
BLACK
6
CONTINUOUS
10
5.37205
20
-2.52323
11
5.41004
21
-2.48524
0
LINE
8
BLACK
6
CONTINUOUS
10
5.41004
20
-2.48524
11
5.41004
21
-2.01476
0
LINE
8
BLACK
6
CONTINUOUS
10
5.41004
20
-2.01476
11
5.37205
21
-1.97677
0
LINE
8
BLACK
6
CONTINUOUS
10
5.37205
20
-1.97677
11
4.87795
21
-1.97677
0
LINE
8
BLACK
6
CONTINUOUS
10
4.6247
20
-1.97274
11
4.6247
21
-1.97274
0
LINE
8
BLACK
6
CONTINUOUS
10
4.6247
20
-1.97274
11
4.66407
21
-2.01211
0
LINE
8
BLACK
6
CONTINUOUS
10
4.66407
20
-2.01211
11
4.66476
21
-2.01378
0
LINE
8
BLACK
6
CONTINUOUS
10
4.66476
20
-2.01378
11
4.66476
21
-2.48622
0
LINE
8
BLACK
6
CONTINUOUS
10
4.66476
20
-2.48622
11
4.66407
21
-2.48789
0
LINE
8
BLACK
6
CONTINUOUS
10
4.66407
20
-2.48789
11
4.6247
21
-2.52726
0
LINE
8
BLACK
6
CONTINUOUS
10
4.6247
20
-2.52726
11
4.6247
21
-2.52726
0
LINE
8
BLACK
6
CONTINUOUS
10
4.6247
20
-2.52726
11
4.62303
21
-2.52795
0
LINE
8
BLACK
6
CONTINUOUS
10
4.62303
20
-2.52795
11
4.12697
21
-2.52795
0
LINE
8
BLACK
6
CONTINUOUS
10
4.12697
20
-2.52795
11
4.1253
21
-2.52726
0
LINE
8
BLACK
6
CONTINUOUS
10
4.1253
20
-2.52726
11
4.08593
21
-2.48789
0
LINE
8
BLACK
6
CONTINUOUS
10
4.08593
20
-2.48789
11
4.08593
21
-2.48789
0
LINE
8
BLACK
6
CONTINUOUS
10
4.08593
20
-2.48789
11
4.08524
21
-2.48622
0
LINE
8
BLACK
6
CONTINUOUS
10
4.08524
20
-2.48622
11
4.08524
21
-2.01378
0
LINE
8
BLACK
6
CONTINUOUS
10
4.08524
20
-2.01378
11
4.08593
21
-2.01211
0
LINE
8
BLACK
6
CONTINUOUS
10
4.08593
20
-2.01211
11
4.08593
21
-2.01211
0
LINE
8
BLACK
6
CONTINUOUS
10
4.08593
20
-2.01211
11
4.1253
21
-1.97274
0
LINE
8
BLACK
6
CONTINUOUS
10
4.1253
20
-1.97274
11
4.12697
21
-1.97205
0
LINE
8
BLACK
6
CONTINUOUS
10
4.12697
20
-1.97205
11
4.62303
21
-1.97205
0
LINE
8
BLACK
6
CONTINUOUS
10
4.62303
20
-1.97205
11
4.6247
21
-1.97274
0
LINE
8
BLACK
6
CONTINUOUS
10
4.12795
20
-1.97677
11
4.08996
21
-2.01476
0
LINE
8
BLACK
6
CONTINUOUS
10
4.08996
20
-2.01476
11
4.08996
21
-2.48524
0
LINE
8
BLACK
6
CONTINUOUS
10
4.08996
20
-2.48524
11
4.12795
21
-2.52323
0
LINE
8
BLACK
6
CONTINUOUS
10
4.12795
20
-2.52323
11
4.62205
21
-2.52323
0
LINE
8
BLACK
6
CONTINUOUS
10
4.62205
20
-2.52323
11
4.66004
21
-2.48524
0
LINE
8
BLACK
6
CONTINUOUS
10
4.66004
20
-2.48524
11
4.66004
21
-2.01476
0
LINE
8
BLACK
6
CONTINUOUS
10
4.66004
20
-2.01476
11
4.62205
21
-1.97677
0
LINE
8
BLACK
6
CONTINUOUS
10
4.62205
20
-1.97677
11
4.12795
21
-1.97677
0
LINE
8
BLACK
6
CONTINUOUS
10
3.8747
20
-1.97274
11
3.8747
21
-1.97274
0
LINE
8
BLACK
6
CONTINUOUS
10
3.8747
20
-1.97274
11
3.91407
21
-2.01211
0
LINE
8
BLACK
6
CONTINUOUS
10
3.91407
20
-2.01211
11
3.91476
21
-2.01378
0
LINE
8
BLACK
6
CONTINUOUS
10
3.91476
20
-2.01378
11
3.91476
21
-2.48622
0
LINE
8
BLACK
6
CONTINUOUS
10
3.91476
20
-2.48622
11
3.91407
21
-2.48789
0
LINE
8
BLACK
6
CONTINUOUS
10
3.91407
20
-2.48789
11
3.8747
21
-2.52726
0
LINE
8
BLACK
6
CONTINUOUS
10
3.8747
20
-2.52726
11
3.8747
21
-2.52726
0
LINE
8
BLACK
6
CONTINUOUS
10
3.8747
20
-2.52726
11
3.87303
21
-2.52795
0
LINE
8
BLACK
6
CONTINUOUS
10
3.87303
20
-2.52795
11
3.37697
21
-2.52795
0
LINE
8
BLACK
6
CONTINUOUS
10
3.37697
20
-2.52795
11
3.3753
21
-2.52726
0
LINE
8
BLACK
6
CONTINUOUS
10
3.3753
20
-2.52726
11
3.33593
21
-2.48789
0
LINE
8
BLACK
6
CONTINUOUS
10
3.33593
20
-2.48789
11
3.33524
21
-2.48622
0
LINE
8
BLACK
6
CONTINUOUS
10
3.33524
20
-2.48622
11
3.33524
21
-2.01378
0
LINE
8
BLACK
6
CONTINUOUS
10
3.33524
20
-2.01378
11
3.33593
21
-2.01211
0
LINE
8
BLACK
6
CONTINUOUS
10
3.33593
20
-2.01211
11
3.33593
21
-2.01211
0
LINE
8
BLACK
6
CONTINUOUS
10
3.33593
20
-2.01211
11
3.3753
21
-1.97274
0
LINE
8
BLACK
6
CONTINUOUS
10
3.3753
20
-1.97274
11
3.37697
21
-1.97205
0
LINE
8
BLACK
6
CONTINUOUS
10
3.37697
20
-1.97205
11
3.87303
21
-1.97205
0
LINE
8
BLACK
6
CONTINUOUS
10
3.87303
20
-1.97205
11
3.8747
21
-1.97274
0
LINE
8
BLACK
6
CONTINUOUS
10
3.37795
20
-1.97677
11
3.33996
21
-2.01476
0
LINE
8
BLACK
6
CONTINUOUS
10
3.33996
20
-2.01476
11
3.33996
21
-2.48524
0
LINE
8
BLACK
6
CONTINUOUS
10
3.33996
20
-2.48524
11
3.37795
21
-2.52323
0
LINE
8
BLACK
6
CONTINUOUS
10
3.37795
20
-2.52323
11
3.87205
21
-2.52323
0
LINE
8
BLACK
6
CONTINUOUS
10
3.87205
20
-2.52323
11
3.91004
21
-2.48524
0
LINE
8
BLACK
6
CONTINUOUS
10
3.91004
20
-2.48524
11
3.91004
21
-2.01476
0
LINE
8
BLACK
6
CONTINUOUS
10
3.91004
20
-2.01476
11
3.87205
21
-1.97677
0
LINE
8
BLACK
6
CONTINUOUS
10
3.87205
20
-1.97677
11
3.37795
21
-1.97677
0
LINE
8
BLACK
6
CONTINUOUS
10
3.1247
20
-1.97274
11
3.1247
21
-1.97274
0
LINE
8
BLACK
6
CONTINUOUS
10
3.1247
20
-1.97274
11
3.16407
21
-2.01211
0
LINE
8
BLACK
6
CONTINUOUS
10
3.16407
20
-2.01211
11
3.16476
21
-2.01378
0
LINE
8
BLACK
6
CONTINUOUS
10
3.16476
20
-2.01378
11
3.16476
21
-2.01378
0
LINE
8
BLACK
6
CONTINUOUS
10
3.16476
20
-2.01378
11
3.16476
21
-2.48622
0
LINE
8
BLACK
6
CONTINUOUS
10
3.16476
20
-2.48622
11
3.16407
21
-2.48789
0
LINE
8
BLACK
6
CONTINUOUS
10
3.16407
20
-2.48789
11
3.1247
21
-2.52726
0
LINE
8
BLACK
6
CONTINUOUS
10
3.1247
20
-2.52726
11
3.1247
21
-2.52726
0
LINE
8
BLACK
6
CONTINUOUS
10
3.1247
20
-2.52726
11
3.12303
21
-2.52795
0
LINE
8
BLACK
6
CONTINUOUS
10
3.12303
20
-2.52795
11
2.62697
21
-2.52795
0
LINE
8
BLACK
6
CONTINUOUS
10
2.62697
20
-2.52795
11
2.6253
21
-2.52726
0
LINE
8
BLACK
6
CONTINUOUS
10
2.6253
20
-2.52726
11
2.58593
21
-2.48789
0
LINE
8
BLACK
6
CONTINUOUS
10
2.58593
20
-2.48789
11
2.58524
21
-2.48622
0
LINE
8
BLACK
6
CONTINUOUS
10
2.58524
20
-2.48622
11
2.58524
21
-2.01378
0
LINE
8
BLACK
6
CONTINUOUS
10
2.58524
20
-2.01378
11
2.58593
21
-2.01211
0
LINE
8
BLACK
6
CONTINUOUS
10
2.58593
20
-2.01211
11
2.58593
21
-2.01211
0
LINE
8
BLACK
6
CONTINUOUS
10
2.58593
20
-2.01211
11
2.6253
21
-1.97274
0
LINE
8
BLACK
6
CONTINUOUS
10
2.6253
20
-1.97274
11
2.62697
21
-1.97205
0
LINE
8
BLACK
6
CONTINUOUS
10
2.62697
20
-1.97205
11
3.12303
21
-1.97205
0
LINE
8
BLACK
6
CONTINUOUS
10
3.12303
20
-1.97205
11
3.1247
21
-1.97274
0
LINE
8
BLACK
6
CONTINUOUS
10
2.62795
20
-1.97677
11
2.58996
21
-2.01476
0
LINE
8
BLACK
6
CONTINUOUS
10
2.58996
20
-2.01476
11
2.58996
21
-2.48524
0
LINE
8
BLACK
6
CONTINUOUS
10
2.58996
20
-2.48524
11
2.62795
21
-2.52323
0
LINE
8
BLACK
6
CONTINUOUS
10
2.62795
20
-2.52323
11
3.12205
21
-2.52323
0
LINE
8
BLACK
6
CONTINUOUS
10
3.12205
20
-2.52323
11
3.16004
21
-2.48524
0
LINE
8
BLACK
6
CONTINUOUS
10
3.16004
20
-2.48524
11
3.16004
21
-2.01476
0
LINE
8
BLACK
6
CONTINUOUS
10
3.16004
20
-2.01476
11
3.12205
21
-1.97677
0
LINE
8
BLACK
6
CONTINUOUS
10
3.12205
20
-1.97677
11
2.62795
21
-1.97677
0
LINE
8
BLACK
6
CONTINUOUS
10
2.3747
20
-1.97274
11
2.3747
21
-1.97274
0
LINE
8
BLACK
6
CONTINUOUS
10
2.3747
20
-1.97274
11
2.41407
21
-2.01211
0
LINE
8
BLACK
6
CONTINUOUS
10
2.41407
20
-2.01211
11
2.41476
21
-2.01378
0
LINE
8
BLACK
6
CONTINUOUS
10
2.41476
20
-2.01378
11
2.41476
21
-2.01378
0
LINE
8
BLACK
6
CONTINUOUS
10
2.41476
20
-2.01378
11
2.41476
21
-2.48622
0
LINE
8
BLACK
6
CONTINUOUS
10
2.41476
20
-2.48622
11
2.41407
21
-2.48789
0
LINE
8
BLACK
6
CONTINUOUS
10
2.41407
20
-2.48789
11
2.3747
21
-2.52726
0
LINE
8
BLACK
6
CONTINUOUS
10
2.3747
20
-2.52726
11
2.3747
21
-2.52726
0
LINE
8
BLACK
6
CONTINUOUS
10
2.3747
20
-2.52726
11
2.37303
21
-2.52795
0
LINE
8
BLACK
6
CONTINUOUS
10
2.37303
20
-2.52795
11
1.87697
21
-2.52795
0
LINE
8
BLACK
6
CONTINUOUS
10
1.87697
20
-2.52795
11
1.8753
21
-2.52726
0
LINE
8
BLACK
6
CONTINUOUS
10
1.8753
20
-2.52726
11
1.83593
21
-2.48789
0
LINE
8
BLACK
6
CONTINUOUS
10
1.83593
20
-2.48789
11
1.83524
21
-2.48622
0
LINE
8
BLACK
6
CONTINUOUS
10
1.83524
20
-2.48622
11
1.83524
21
-2.01378
0
LINE
8
BLACK
6
CONTINUOUS
10
1.83524
20
-2.01378
11
1.83593
21
-2.01211
0
LINE
8
BLACK
6
CONTINUOUS
10
1.83593
20
-2.01211
11
1.83593
21
-2.01211
0
LINE
8
BLACK
6
CONTINUOUS
10
1.83593
20
-2.01211
11
1.8753
21
-1.97274
0
LINE
8
BLACK
6
CONTINUOUS
10
1.8753
20
-1.97274
11
1.87697
21
-1.97205
0
LINE
8
BLACK
6
CONTINUOUS
10
1.87697
20
-1.97205
11
2.37303
21
-1.97205
0
LINE
8
BLACK
6
CONTINUOUS
10
2.37303
20
-1.97205
11
2.3747
21
-1.97274
0
LINE
8
BLACK
6
CONTINUOUS
10
1.87795
20
-1.97677
11
1.83996
21
-2.01476
0
LINE
8
BLACK
6
CONTINUOUS
10
1.83996
20
-2.01476
11
1.83996
21
-2.48524
0
LINE
8
BLACK
6
CONTINUOUS
10
1.83996
20
-2.48524
11
1.87795
21
-2.52323
0
LINE
8
BLACK
6
CONTINUOUS
10
1.87795
20
-2.52323
11
2.37205
21
-2.52323
0
LINE
8
BLACK
6
CONTINUOUS
10
2.37205
20
-2.52323
11
2.41004
21
-2.48524
0
LINE
8
BLACK
6
CONTINUOUS
10
2.41004
20
-2.48524
11
2.41004
21
-2.01476
0
LINE
8
BLACK
6
CONTINUOUS
10
2.41004
20
-2.01476
11
2.37205
21
-1.97677
0
LINE
8
BLACK
6
CONTINUOUS
10
2.37205
20
-1.97677
11
1.87795
21
-1.97677
0
LINE
8
BLACK
6
CONTINUOUS
10
9.20079
20
-1.99114
11
9.20154
21
-1.9826
0
LINE
8
BLACK
6
CONTINUOUS
10
9.20154
20
-1.9826
11
9.20376
21
-1.97431
0
LINE
8
BLACK
6
CONTINUOUS
10
9.20376
20
-1.97431
11
9.20738
21
-1.96654
0
LINE
8
BLACK
6
CONTINUOUS
10
9.20738
20
-1.96654
11
9.2123
21
-1.95951
0
LINE
8
BLACK
6
CONTINUOUS
10
9.2123
20
-1.95951
11
9.21837
21
-1.95344
0
LINE
8
BLACK
6
CONTINUOUS
10
9.21837
20
-1.95344
11
9.22539
21
-1.94852
0
LINE
8
BLACK
6
CONTINUOUS
10
9.22539
20
-1.94852
11
9.23317
21
-1.9449
0
LINE
8
BLACK
6
CONTINUOUS
10
9.23317
20
-1.9449
11
9.24145
21
-1.94268
0
LINE
8
BLACK
6
CONTINUOUS
10
9.24145
20
-1.94268
11
9.25
21
-1.94193
0
LINE
8
BLACK
6
CONTINUOUS
10
9.25
20
-1.94193
11
9.25855
21
-1.94268
0
LINE
8
BLACK
6
CONTINUOUS
10
9.25855
20
-1.94268
11
9.26683
21
-1.9449
0
LINE
8
BLACK
6
CONTINUOUS
10
9.26683
20
-1.9449
11
9.27461
21
-1.94852
0
LINE
8
BLACK
6
CONTINUOUS
10
9.27461
20
-1.94852
11
9.28163
21
-1.95344
0
LINE
8
BLACK
6
CONTINUOUS
10
9.28163
20
-1.95344
11
9.2877
21
-1.95951
0
LINE
8
BLACK
6
CONTINUOUS
10
9.2877
20
-1.95951
11
9.29262
21
-1.96654
0
LINE
8
BLACK
6
CONTINUOUS
10
9.29262
20
-1.96654
11
9.29624
21
-1.97431
0
LINE
8
BLACK
6
CONTINUOUS
10
9.29624
20
-1.97431
11
9.29846
21
-1.9826
0
LINE
8
BLACK
6
CONTINUOUS
10
9.29846
20
-1.9826
11
9.29921
21
-1.99114
0
LINE
8
BLACK
6
CONTINUOUS
10
9.29921
20
-1.99114
11
9.29846
21
-1.99969
0
LINE
8
BLACK
6
CONTINUOUS
10
9.29846
20
-1.99969
11
9.29624
21
-2.00797
0
LINE
8
BLACK
6
CONTINUOUS
10
9.29624
20
-2.00797
11
9.29262
21
-2.01575
0
LINE
8
BLACK
6
CONTINUOUS
10
9.29262
20
-2.01575
11
9.2877
21
-2.02277
0
LINE
8
BLACK
6
CONTINUOUS
10
9.2877
20
-2.02277
11
9.28163
21
-2.02884
0
LINE
8
BLACK
6
CONTINUOUS
10
9.28163
20
-2.02884
11
9.27461
21
-2.03376
0
LINE
8
BLACK
6
CONTINUOUS
10
9.27461
20
-2.03376
11
9.26683
21
-2.03739
0
LINE
8
BLACK
6
CONTINUOUS
10
9.26683
20
-2.03739
11
9.25855
21
-2.03961
0
LINE
8
BLACK
6
CONTINUOUS
10
9.25855
20
-2.03961
11
9.25
21
-2.04035
0
LINE
8
BLACK
6
CONTINUOUS
10
9.25
20
-2.04035
11
9.24145
21
-2.03961
0
LINE
8
BLACK
6
CONTINUOUS
10
9.24145
20
-2.03961
11
9.23317
21
-2.03739
0
LINE
8
BLACK
6
CONTINUOUS
10
9.23317
20
-2.03739
11
9.22539
21
-2.03376
0
LINE
8
BLACK
6
CONTINUOUS
10
9.22539
20
-2.03376
11
9.21837
21
-2.02884
0
LINE
8
BLACK
6
CONTINUOUS
10
9.21837
20
-2.02884
11
9.2123
21
-2.02277
0
LINE
8
BLACK
6
CONTINUOUS
10
9.2123
20
-2.02277
11
9.20738
21
-2.01575
0
LINE
8
BLACK
6
CONTINUOUS
10
9.20738
20
-2.01575
11
9.20376
21
-2.00797
0
LINE
8
BLACK
6
CONTINUOUS
10
9.20376
20
-2.00797
11
9.20154
21
-1.99969
0
LINE
8
BLACK
6
CONTINUOUS
10
9.20154
20
-1.99969
11
9.20079
21
-1.99114
0
LINE
8
BLACK
6
CONTINUOUS
10
9.20846
20
-1.99114
11
9.20926
21
-1.99925
0
LINE
8
BLACK
6
CONTINUOUS
10
9.20926
20
-1.99925
11
9.21162
21
-2.00704
0
LINE
8
BLACK
6
CONTINUOUS
10
9.21162
20
-2.00704
11
9.21546
21
-2.01422
0
LINE
8
BLACK
6
CONTINUOUS
10
9.21546
20
-2.01422
11
9.22063
21
-2.02051
0
LINE
8
BLACK
6
CONTINUOUS
10
9.22063
20
-2.02051
11
9.22692
21
-2.02568
0
LINE
8
BLACK
6
CONTINUOUS
10
9.22692
20
-2.02568
11
9.2341
21
-2.02952
0
LINE
8
BLACK
6
CONTINUOUS
10
9.2341
20
-2.02952
11
9.2419
21
-2.03188
0
LINE
8
BLACK
6
CONTINUOUS
10
9.2419
20
-2.03188
11
9.25
21
-2.03268
0
LINE
8
BLACK
6
CONTINUOUS
10
9.25
20
-2.03268
11
9.2581
21
-2.03188
0
LINE
8
BLACK
6
CONTINUOUS
10
9.2581
20
-2.03188
11
9.2659
21
-2.02952
0
LINE
8
BLACK
6
CONTINUOUS
10
9.2659
20
-2.02952
11
9.27308
21
-2.02568
0
LINE
8
BLACK
6
CONTINUOUS
10
9.27308
20
-2.02568
11
9.27937
21
-2.02051
0
LINE
8
BLACK
6
CONTINUOUS
10
9.27937
20
-2.02051
11
9.28454
21
-2.01422
0
LINE
8
BLACK
6
CONTINUOUS
10
9.28454
20
-2.01422
11
9.28838
21
-2.00704
0
LINE
8
BLACK
6
CONTINUOUS
10
9.28838
20
-2.00704
11
9.29074
21
-1.99925
0
LINE
8
BLACK
6
CONTINUOUS
10
9.29074
20
-1.99925
11
9.29154
21
-1.99114
0
LINE
8
BLACK
6
CONTINUOUS
10
9.29154
20
-1.99114
11
9.29074
21
-1.98304
0
LINE
8
BLACK
6
CONTINUOUS
10
9.29074
20
-1.98304
11
9.28838
21
-1.97525
0
LINE
8
BLACK
6
CONTINUOUS
10
9.28838
20
-1.97525
11
9.28454
21
-1.96806
0
LINE
8
BLACK
6
CONTINUOUS
10
9.28454
20
-1.96806
11
9.27937
21
-1.96177
0
LINE
8
BLACK
6
CONTINUOUS
10
9.27937
20
-1.96177
11
9.27308
21
-1.9566
0
LINE
8
BLACK
6
CONTINUOUS
10
9.27308
20
-1.9566
11
9.2659
21
-1.95276
0
LINE
8
BLACK
6
CONTINUOUS
10
9.2659
20
-1.95276
11
9.2581
21
-1.9504
0
LINE
8
BLACK
6
CONTINUOUS
10
9.2581
20
-1.9504
11
9.25
21
-1.9496
0
LINE
8
BLACK
6
CONTINUOUS
10
9.25
20
-1.9496
11
9.2419
21
-1.9504
0
LINE
8
BLACK
6
CONTINUOUS
10
9.2419
20
-1.9504
11
9.2341
21
-1.95276
0
LINE
8
BLACK
6
CONTINUOUS
10
9.2341
20
-1.95276
11
9.22692
21
-1.9566
0
LINE
8
BLACK
6
CONTINUOUS
10
9.22692
20
-1.9566
11
9.22063
21
-1.96177
0
LINE
8
BLACK
6
CONTINUOUS
10
9.22063
20
-1.96177
11
9.21546
21
-1.96806
0
LINE
8
BLACK
6
CONTINUOUS
10
9.21546
20
-1.96806
11
9.21162
21
-1.97525
0
LINE
8
BLACK
6
CONTINUOUS
10
9.21162
20
-1.97525
11
9.20926
21
-1.98304
0
LINE
8
BLACK
6
CONTINUOUS
10
9.20926
20
-1.98304
11
9.20846
21
-1.99114
0
LINE
8
BLACK
6
CONTINUOUS
10
2.45079
20
-1.99114
11
2.45154
21
-1.9826
0
LINE
8
BLACK
6
CONTINUOUS
10
2.45154
20
-1.9826
11
2.45376
21
-1.97431
0
LINE
8
BLACK
6
CONTINUOUS
10
2.45376
20
-1.97431
11
2.45738
21
-1.96654
0
LINE
8
BLACK
6
CONTINUOUS
10
2.45738
20
-1.96654
11
2.4623
21
-1.95951
0
LINE
8
BLACK
6
CONTINUOUS
10
2.4623
20
-1.95951
11
2.46837
21
-1.95344
0
LINE
8
BLACK
6
CONTINUOUS
10
2.46837
20
-1.95344
11
2.47539
21
-1.94852
0
LINE
8
BLACK
6
CONTINUOUS
10
2.47539
20
-1.94852
11
2.48317
21
-1.9449
0
LINE
8
BLACK
6
CONTINUOUS
10
2.48317
20
-1.9449
11
2.49145
21
-1.94268
0
LINE
8
BLACK
6
CONTINUOUS
10
2.49145
20
-1.94268
11
2.5
21
-1.94193
0
LINE
8
BLACK
6
CONTINUOUS
10
2.5
20
-1.94193
11
2.50855
21
-1.94268
0
LINE
8
BLACK
6
CONTINUOUS
10
2.50855
20
-1.94268
11
2.51683
21
-1.9449
0
LINE
8
BLACK
6
CONTINUOUS
10
2.51683
20
-1.9449
11
2.52461
21
-1.94852
0
LINE
8
BLACK
6
CONTINUOUS
10
2.52461
20
-1.94852
11
2.53163
21
-1.95344
0
LINE
8
BLACK
6
CONTINUOUS
10
2.53163
20
-1.95344
11
2.5377
21
-1.95951
0
LINE
8
BLACK
6
CONTINUOUS
10
2.5377
20
-1.95951
11
2.54262
21
-1.96654
0
LINE
8
BLACK
6
CONTINUOUS
10
2.54262
20
-1.96654
11
2.54624
21
-1.97431
0
LINE
8
BLACK
6
CONTINUOUS
10
2.54624
20
-1.97431
11
2.54846
21
-1.9826
0
LINE
8
BLACK
6
CONTINUOUS
10
2.54846
20
-1.9826
11
2.54921
21
-1.99114
0
LINE
8
BLACK
6
CONTINUOUS
10
2.54921
20
-1.99114
11
2.54846
21
-1.99969
0
LINE
8
BLACK
6
CONTINUOUS
10
2.54846
20
-1.99969
11
2.54624
21
-2.00797
0
LINE
8
BLACK
6
CONTINUOUS
10
2.54624
20
-2.00797
11
2.54262
21
-2.01575
0
LINE
8
BLACK
6
CONTINUOUS
10
2.54262
20
-2.01575
11
2.5377
21
-2.02277
0
LINE
8
BLACK
6
CONTINUOUS
10
2.5377
20
-2.02277
11
2.53163
21
-2.02884
0
LINE
8
BLACK
6
CONTINUOUS
10
2.53163
20
-2.02884
11
2.52461
21
-2.03376
0
LINE
8
BLACK
6
CONTINUOUS
10
2.52461
20
-2.03376
11
2.51683
21
-2.03739
0
LINE
8
BLACK
6
CONTINUOUS
10
2.51683
20
-2.03739
11
2.50855
21
-2.03961
0
LINE
8
BLACK
6
CONTINUOUS
10
2.50855
20
-2.03961
11
2.5
21
-2.04035
0
LINE
8
BLACK
6
CONTINUOUS
10
2.5
20
-2.04035
11
2.49145
21
-2.03961
0
LINE
8
BLACK
6
CONTINUOUS
10
2.49145
20
-2.03961
11
2.48317
21
-2.03739
0
LINE
8
BLACK
6
CONTINUOUS
10
2.48317
20
-2.03739
11
2.47539
21
-2.03376
0
LINE
8
BLACK
6
CONTINUOUS
10
2.47539
20
-2.03376
11
2.46837
21
-2.02884
0
LINE
8
BLACK
6
CONTINUOUS
10
2.46837
20
-2.02884
11
2.4623
21
-2.02277
0
LINE
8
BLACK
6
CONTINUOUS
10
2.4623
20
-2.02277
11
2.45738
21
-2.01575
0
LINE
8
BLACK
6
CONTINUOUS
10
2.45738
20
-2.01575
11
2.45376
21
-2.00797
0
LINE
8
BLACK
6
CONTINUOUS
10
2.45376
20
-2.00797
11
2.45154
21
-1.99969
0
LINE
8
BLACK
6
CONTINUOUS
10
2.45154
20
-1.99969
11
2.45079
21
-1.99114
0
LINE
8
BLACK
6
CONTINUOUS
10
2.45846
20
-1.99114
11
2.45926
21
-1.99925
0
LINE
8
BLACK
6
CONTINUOUS
10
2.45926
20
-1.99925
11
2.46162
21
-2.00704
0
LINE
8
BLACK
6
CONTINUOUS
10
2.46162
20
-2.00704
11
2.46546
21
-2.01422
0
LINE
8
BLACK
6
CONTINUOUS
10
2.46546
20
-2.01422
11
2.47063
21
-2.02051
0
LINE
8
BLACK
6
CONTINUOUS
10
2.47063
20
-2.02051
11
2.47692
21
-2.02568
0
LINE
8
BLACK
6
CONTINUOUS
10
2.47692
20
-2.02568
11
2.4841
21
-2.02952
0
LINE
8
BLACK
6
CONTINUOUS
10
2.4841
20
-2.02952
11
2.4919
21
-2.03188
0
LINE
8
BLACK
6
CONTINUOUS
10
2.4919
20
-2.03188
11
2.5
21
-2.03268
0
LINE
8
BLACK
6
CONTINUOUS
10
2.5
20
-2.03268
11
2.5081
21
-2.03188
0
LINE
8
BLACK
6
CONTINUOUS
10
2.5081
20
-2.03188
11
2.5159
21
-2.02952
0
LINE
8
BLACK
6
CONTINUOUS
10
2.5159
20
-2.02952
11
2.52308
21
-2.02568
0
LINE
8
BLACK
6
CONTINUOUS
10
2.52308
20
-2.02568
11
2.52937
21
-2.02051
0
LINE
8
BLACK
6
CONTINUOUS
10
2.52937
20
-2.02051
11
2.53454
21
-2.01422
0
LINE
8
BLACK
6
CONTINUOUS
10
2.53454
20
-2.01422
11
2.53838
21
-2.00704
0
LINE
8
BLACK
6
CONTINUOUS
10
2.53838
20
-2.00704
11
2.54074
21
-1.99925
0
LINE
8
BLACK
6
CONTINUOUS
10
2.54074
20
-1.99925
11
2.54154
21
-1.99114
0
LINE
8
BLACK
6
CONTINUOUS
10
2.54154
20
-1.99114
11
2.54074
21
-1.98304
0
LINE
8
BLACK
6
CONTINUOUS
10
2.54074
20
-1.98304
11
2.53838
21
-1.97525
0
LINE
8
BLACK
6
CONTINUOUS
10
2.53838
20
-1.97525
11
2.53454
21
-1.96806
0
LINE
8
BLACK
6
CONTINUOUS
10
2.53454
20
-1.96806
11
2.52937
21
-1.96177
0
LINE
8
BLACK
6
CONTINUOUS
10
2.52937
20
-1.96177
11
2.52308
21
-1.9566
0
LINE
8
BLACK
6
CONTINUOUS
10
2.52308
20
-1.9566
11
2.5159
21
-1.95276
0
LINE
8
BLACK
6
CONTINUOUS
10
2.5159
20
-1.95276
11
2.5081
21
-1.9504
0
LINE
8
BLACK
6
CONTINUOUS
10
2.5081
20
-1.9504
11
2.5
21
-1.9496
0
LINE
8
BLACK
6
CONTINUOUS
10
2.5
20
-1.9496
11
2.4919
21
-1.9504
0
LINE
8
BLACK
6
CONTINUOUS
10
2.4919
20
-1.9504
11
2.4841
21
-1.95276
0
LINE
8
BLACK
6
CONTINUOUS
10
2.4841
20
-1.95276
11
2.47692
21
-1.9566
0
LINE
8
BLACK
6
CONTINUOUS
10
2.47692
20
-1.9566
11
2.47063
21
-1.96177
0
LINE
8
BLACK
6
CONTINUOUS
10
2.47063
20
-1.96177
11
2.46546
21
-1.96806
0
LINE
8
BLACK
6
CONTINUOUS
10
2.46546
20
-1.96806
11
2.46162
21
-1.97525
0
LINE
8
BLACK
6
CONTINUOUS
10
2.46162
20
-1.97525
11
2.45926
21
-1.98304
0
LINE
8
BLACK
6
CONTINUOUS
10
2.45926
20
-1.98304
11
2.45846
21
-1.99114
0
LINE
8
BLACK
6
CONTINUOUS
10
9.90059
20
-1.86516
11
9.91376
21
-1.86585
0
LINE
8
BLACK
6
CONTINUOUS
10
9.91376
20
-1.86585
11
9.92678
21
-1.86791
0
LINE
8
BLACK
6
CONTINUOUS
10
9.92678
20
-1.86791
11
9.93952
21
-1.87132
0
LINE
8
BLACK
6
CONTINUOUS
10
9.93952
20
-1.87132
11
9.95183
21
-1.87605
0
LINE
8
BLACK
6
CONTINUOUS
10
9.95183
20
-1.87605
11
9.96358
21
-1.88204
0
LINE
8
BLACK
6
CONTINUOUS
10
9.96358
20
-1.88204
11
9.97464
21
-1.88922
0
LINE
8
BLACK
6
CONTINUOUS
10
9.97464
20
-1.88922
11
9.98489
21
-1.89752
0
LINE
8
BLACK
6
CONTINUOUS
10
9.98489
20
-1.89752
11
9.99422
21
-1.90684
0
LINE
8
BLACK
6
CONTINUOUS
10
9.99422
20
-1.90684
11
10.0025
21
-1.91709
0
LINE
8
BLACK
6
CONTINUOUS
10
10.0025
20
-1.91709
11
10.0097
21
-1.92815
0
LINE
8
BLACK
6
CONTINUOUS
10
10.0097
20
-1.92815
11
10.0157
21
-1.9399
0
LINE
8
BLACK
6
CONTINUOUS
10
10.0157
20
-1.9399
11
10.0204
21
-1.95221
0
LINE
8
BLACK
6
CONTINUOUS
10
10.0204
20
-1.95221
11
10.0238
21
-1.96495
0
LINE
8
BLACK
6
CONTINUOUS
10
10.0238
20
-1.96495
11
10.0259
21
-1.97797
0
LINE
8
BLACK
6
CONTINUOUS
10
10.0259
20
-1.97797
11
10.0266
21
-1.99114
0
LINE
8
BLACK
6
CONTINUOUS
10
10.0266
20
-1.99114
11
10.0266
21
-1.99114
0
LINE
8
BLACK
6
CONTINUOUS
10
10.0266
20
-1.99114
11
10.0266
21
-4.04232
0
LINE
8
BLACK
6
CONTINUOUS
10
10.0266
20
-4.04232
11
10.0259
21
-4.05549
0
LINE
8
BLACK
6
CONTINUOUS
10
10.0259
20
-4.05549
11
10.0238
21
-4.06852
0
LINE
8
BLACK
6
CONTINUOUS
10
10.0238
20
-4.06852
11
10.0204
21
-4.08125
0
LINE
8
BLACK
6
CONTINUOUS
10
10.0204
20
-4.08125
11
10.0157
21
-4.09357
0
LINE
8
BLACK
6
CONTINUOUS
10
10.0157
20
-4.09357
11
10.0097
21
-4.10531
0
LINE
8
BLACK
6
CONTINUOUS
10
10.0097
20
-4.10531
11
10.0025
21
-4.11637
0
LINE
8
BLACK
6
CONTINUOUS
10
10.0025
20
-4.11637
11
9.99422
21
-4.12662
0
LINE
8
BLACK
6
CONTINUOUS
10
9.99422
20
-4.12662
11
9.98489
21
-4.13595
0
LINE
8
BLACK
6
CONTINUOUS
10
9.98489
20
-4.13595
11
9.97464
21
-4.14425
0
LINE
8
BLACK
6
CONTINUOUS
10
9.97464
20
-4.14425
11
9.96358
21
-4.15143
0
LINE
8
BLACK
6
CONTINUOUS
10
9.96358
20
-4.15143
11
9.95183
21
-4.15742
0
LINE
8
BLACK
6
CONTINUOUS
10
9.95183
20
-4.15742
11
9.93952
21
-4.16214
0
LINE
8
BLACK
6
CONTINUOUS
10
9.93952
20
-4.16214
11
9.92678
21
-4.16555
0
LINE
8
BLACK
6
CONTINUOUS
10
9.92678
20
-4.16555
11
9.91376
21
-4.16762
0
LINE
8
BLACK
6
CONTINUOUS
10
9.91376
20
-4.16762
11
9.90059
21
-4.16831
0
LINE
8
BLACK
6
CONTINUOUS
10
9.90059
20
-4.16831
11
9.90059
21
-4.16831
0
LINE
8
BLACK
6
CONTINUOUS
10
9.90059
20
-4.16831
11
8.94488
21
-4.16831
0
LINE
8
BLACK
6
CONTINUOUS
10
8.94488
20
-4.16831
11
8.94488
21
-4.16831
0
LINE
8
BLACK
6
CONTINUOUS
10
8.94488
20
-4.16831
11
8.94109
21
-4.16831
0
LINE
8
BLACK
6
CONTINUOUS
10
8.94109
20
-4.16831
11
8.93363
21
-4.16962
0
LINE
8
BLACK
6
CONTINUOUS
10
8.93363
20
-4.16962
11
8.92651
21
-4.17221
0
LINE
8
BLACK
6
CONTINUOUS
10
8.92651
20
-4.17221
11
8.91995
21
-4.176
0
LINE
8
BLACK
6
CONTINUOUS
10
8.91995
20
-4.176
11
8.91414
21
-4.18087
0
LINE
8
BLACK
6
CONTINUOUS
10
8.91414
20
-4.18087
11
8.90927
21
-4.18668
0
LINE
8
BLACK
6
CONTINUOUS
10
8.90927
20
-4.18668
11
8.90548
21
-4.19324
0
LINE
8
BLACK
6
CONTINUOUS
10
8.90548
20
-4.19324
11
8.90289
21
-4.20036
0
LINE
8
BLACK
6
CONTINUOUS
10
8.90289
20
-4.20036
11
8.90157
21
-4.20783
0
LINE
8
BLACK
6
CONTINUOUS
10
8.90157
20
-4.20783
11
8.90157
21
-4.21161
0
LINE
8
BLACK
6
CONTINUOUS
10
8.90157
20
-4.21161
11
8.90157
21
-4.79232
0
LINE
8
BLACK
6
CONTINUOUS
10
8.90157
20
-4.79232
11
8.90088
21
-4.80549
0
LINE
8
BLACK
6
CONTINUOUS
10
8.90088
20
-4.80549
11
8.89882
21
-4.81852
0
LINE
8
BLACK
6
CONTINUOUS
10
8.89882
20
-4.81852
11
8.89541
21
-4.83125
0
LINE
8
BLACK
6
CONTINUOUS
10
8.89541
20
-4.83125
11
8.89068
21
-4.84357
0
LINE
8
BLACK
6
CONTINUOUS
10
8.89068
20
-4.84357
11
8.8847
21
-4.85531
0
LINE
8
BLACK
6
CONTINUOUS
10
8.8847
20
-4.85531
11
8.87751
21
-4.86637
0
LINE
8
BLACK
6
CONTINUOUS
10
8.87751
20
-4.86637
11
8.86922
21
-4.87662
0
LINE
8
BLACK
6
CONTINUOUS
10
8.86922
20
-4.87662
11
8.85989
21
-4.88595
0
LINE
8
BLACK
6
CONTINUOUS
10
8.85989
20
-4.88595
11
8.84964
21
-4.89425
0
LINE
8
BLACK
6
CONTINUOUS
10
8.84964
20
-4.89425
11
8.83858
21
-4.90143
0
LINE
8
BLACK
6
CONTINUOUS
10
8.83858
20
-4.90143
11
8.82683
21
-4.90742
0
LINE
8
BLACK
6
CONTINUOUS
10
8.82683
20
-4.90742
11
8.81452
21
-4.91214
0
LINE
8
BLACK
6
CONTINUOUS
10
8.81452
20
-4.91214
11
8.80178
21
-4.91555
0
LINE
8
BLACK
6
CONTINUOUS
10
8.80178
20
-4.91555
11
8.78876
21
-4.91762
0
LINE
8
BLACK
6
CONTINUOUS
10
8.78876
20
-4.91762
11
8.77559
21
-4.91831
0
LINE
8
BLACK
6
CONTINUOUS
10
8.77559
20
-4.91831
11
8.77559
21
-4.91831
0
LINE
8
BLACK
6
CONTINUOUS
10
8.77559
20
-4.91831
11
2.97441
21
-4.91831
0
LINE
8
BLACK
6
CONTINUOUS
10
2.97441
20
-4.91831
11
2.96124
21
-4.91762
0
LINE
8
BLACK
6
CONTINUOUS
10
2.96124
20
-4.91762
11
2.94822
21
-4.91555
0
LINE
8
BLACK
6
CONTINUOUS
10
2.94822
20
-4.91555
11
2.93548
21
-4.91214
0
LINE
8
BLACK
6
CONTINUOUS
10
2.93548
20
-4.91214
11
2.92317
21
-4.90742
0
LINE
8
BLACK
6
CONTINUOUS
10
2.92317
20
-4.90742
11
2.91142
21
-4.90143
0
LINE
8
BLACK
6
CONTINUOUS
10
2.91142
20
-4.90143
11
2.90036
21
-4.89425
0
LINE
8
BLACK
6
CONTINUOUS
10
2.90036
20
-4.89425
11
2.89011
21
-4.88595
0
LINE
8
BLACK
6
CONTINUOUS
10
2.89011
20
-4.88595
11
2.88078
21
-4.87662
0
LINE
8
BLACK
6
CONTINUOUS
10
2.88078
20
-4.87662
11
2.87249
21
-4.86637
0
LINE
8
BLACK
6
CONTINUOUS
10
2.87249
20
-4.86637
11
2.8653
21
-4.85531
0
LINE
8
BLACK
6
CONTINUOUS
10
2.8653
20
-4.85531
11
2.85932
21
-4.84357
0
LINE
8
BLACK
6
CONTINUOUS
10
2.85932
20
-4.84357
11
2.85459
21
-4.83125
0
LINE
8
BLACK
6
CONTINUOUS
10
2.85459
20
-4.83125
11
2.85118
21
-4.81852
0
LINE
8
BLACK
6
CONTINUOUS
10
2.85118
20
-4.81852
11
2.84912
21
-4.80549
0
LINE
8
BLACK
6
CONTINUOUS
10
2.84912
20
-4.80549
11
2.84843
21
-4.79232
0
LINE
8
BLACK
6
CONTINUOUS
10
2.84843
20
-4.79232
11
2.84843
21
-4.79232
0
LINE
8
BLACK
6
CONTINUOUS
10
2.84843
20
-4.79232
11
2.84843
21
-4.21161
0
LINE
8
BLACK
6
CONTINUOUS
10
2.84843
20
-4.21161
11
2.84843
21
-4.21161
0
LINE
8
BLACK
6
CONTINUOUS
10
2.84843
20
-4.21161
11
2.84843
21
-4.20783
0
LINE
8
BLACK
6
CONTINUOUS
10
2.84843
20
-4.20783
11
2.84711
21
-4.20036
0
LINE
8
BLACK
6
CONTINUOUS
10
2.84711
20
-4.20036
11
2.84452
21
-4.19324
0
LINE
8
BLACK
6
CONTINUOUS
10
2.84452
20
-4.19324
11
2.84073
21
-4.18668
0
LINE
8
BLACK
6
CONTINUOUS
10
2.84073
20
-4.18668
11
2.83586
21
-4.18087
0
LINE
8
BLACK
6
CONTINUOUS
10
2.83586
20
-4.18087
11
2.83005
21
-4.176
0
LINE
8
BLACK
6
CONTINUOUS
10
2.83005
20
-4.176
11
2.82349
21
-4.17221
0
LINE
8
BLACK
6
CONTINUOUS
10
2.82349
20
-4.17221
11
2.81637
21
-4.16962
0
LINE
8
BLACK
6
CONTINUOUS
10
2.81637
20
-4.16962
11
2.80891
21
-4.16831
0
LINE
8
BLACK
6
CONTINUOUS
10
2.80891
20
-4.16831
11
2.80512
21
-4.16831
0
LINE
8
BLACK
6
CONTINUOUS
10
2.80512
20
-4.16831
11
1.84941
21
-4.16831
0
LINE
8
BLACK
6
CONTINUOUS
10
1.84941
20
-4.16831
11
1.83624
21
-4.16762
0
LINE
8
BLACK
6
CONTINUOUS
10
1.83624
20
-4.16762
11
1.82322
21
-4.16555
0
LINE
8
BLACK
6
CONTINUOUS
10
1.82322
20
-4.16555
11
1.81048
21
-4.16214
0
LINE
8
BLACK
6
CONTINUOUS
10
1.81048
20
-4.16214
11
1.79817
21
-4.15742
0
LINE
8
BLACK
6
CONTINUOUS
10
1.79817
20
-4.15742
11
1.78642
21
-4.15143
0
LINE
8
BLACK
6
CONTINUOUS
10
1.78642
20
-4.15143
11
1.77536
21
-4.14425
0
LINE
8
BLACK
6
CONTINUOUS
10
1.77536
20
-4.14425
11
1.76511
21
-4.13595
0
LINE
8
BLACK
6
CONTINUOUS
10
1.76511
20
-4.13595
11
1.75578
21
-4.12662
0
LINE
8
BLACK
6
CONTINUOUS
10
1.75578
20
-4.12662
11
1.74749
21
-4.11637
0
LINE
8
BLACK
6
CONTINUOUS
10
1.74749
20
-4.11637
11
1.7403
21
-4.10531
0
LINE
8
BLACK
6
CONTINUOUS
10
1.7403
20
-4.10531
11
1.73432
21
-4.09357
0
LINE
8
BLACK
6
CONTINUOUS
10
1.73432
20
-4.09357
11
1.72959
21
-4.08125
0
LINE
8
BLACK
6
CONTINUOUS
10
1.72959
20
-4.08125
11
1.72618
21
-4.06852
0
LINE
8
BLACK
6
CONTINUOUS
10
1.72618
20
-4.06852
11
1.72412
21
-4.05549
0
LINE
8
BLACK
6
CONTINUOUS
10
1.72412
20
-4.05549
11
1.72343
21
-4.04232
0
LINE
8
BLACK
6
CONTINUOUS
10
1.72343
20
-4.04232
11
1.72343
21
-4.04232
0
LINE
8
BLACK
6
CONTINUOUS
10
1.72343
20
-4.04232
11
1.72343
21
-1.99114
0
LINE
8
BLACK
6
CONTINUOUS
10
1.72343
20
-1.99114
11
1.72412
21
-1.97797
0
LINE
8
BLACK
6
CONTINUOUS
10
1.72412
20
-1.97797
11
1.72618
21
-1.96495
0
LINE
8
BLACK
6
CONTINUOUS
10
1.72618
20
-1.96495
11
1.72959
21
-1.95221
0
LINE
8
BLACK
6
CONTINUOUS
10
1.72959
20
-1.95221
11
1.73432
21
-1.9399
0
LINE
8
BLACK
6
CONTINUOUS
10
1.73432
20
-1.9399
11
1.7403
21
-1.92815
0
LINE
8
BLACK
6
CONTINUOUS
10
1.7403
20
-1.92815
11
1.74749
21
-1.91709
0
LINE
8
BLACK
6
CONTINUOUS
10
1.74749
20
-1.91709
11
1.75578
21
-1.90684
0
LINE
8
BLACK
6
CONTINUOUS
10
1.75578
20
-1.90684
11
1.76511
21
-1.89752
0
LINE
8
BLACK
6
CONTINUOUS
10
1.76511
20
-1.89752
11
1.77536
21
-1.88922
0
LINE
8
BLACK
6
CONTINUOUS
10
1.77536
20
-1.88922
11
1.78642
21
-1.88204
0
LINE
8
BLACK
6
CONTINUOUS
10
1.78642
20
-1.88204
11
1.79817
21
-1.87605
0
LINE
8
BLACK
6
CONTINUOUS
10
1.79817
20
-1.87605
11
1.81048
21
-1.87132
0
LINE
8
BLACK
6
CONTINUOUS
10
1.81048
20
-1.87132
11
1.82322
21
-1.86791
0
LINE
8
BLACK
6
CONTINUOUS
10
1.82322
20
-1.86791
11
1.83624
21
-1.86585
0
LINE
8
BLACK
6
CONTINUOUS
10
1.83624
20
-1.86585
11
1.84941
21
-1.86516
0
LINE
8
BLACK
6
CONTINUOUS
10
1.84941
20
-1.86516
11
1.84941
21
-1.86516
0
LINE
8
BLACK
6
CONTINUOUS
10
1.84941
20
-1.86516
11
9.90059
21
-1.86516
0
LINE
8
BLACK
6
CONTINUOUS
10
1.84941
20
-1.87303
11
1.84941
21
-1.87303
0
LINE
8
BLACK
6
CONTINUOUS
10
1.84941
20
-1.87303
11
1.84322
21
-1.87303
0
LINE
8
BLACK
6
CONTINUOUS
10
1.84322
20
-1.87303
11
1.83091
21
-1.87433
0
LINE
8
BLACK
6
CONTINUOUS
10
1.83091
20
-1.87433
11
1.8188
21
-1.8769
0
LINE
8
BLACK
6
CONTINUOUS
10
1.8188
20
-1.8769
11
1.80702
21
-1.88072
0
LINE
8
BLACK
6
CONTINUOUS
10
1.80702
20
-1.88072
11
1.79571
21
-1.88576
0
LINE
8
BLACK
6
CONTINUOUS
10
1.79571
20
-1.88576
11
1.78499
21
-1.89195
0
LINE
8
BLACK
6
CONTINUOUS
10
1.78499
20
-1.89195
11
1.77498
21
-1.89923
0
LINE
8
BLACK
6
CONTINUOUS
10
1.77498
20
-1.89923
11
1.76578
21
-1.90751
0
LINE
8
BLACK
6
CONTINUOUS
10
1.76578
20
-1.90751
11
1.75749
21
-1.91671
0
LINE
8
BLACK
6
CONTINUOUS
10
1.75749
20
-1.91671
11
1.75022
21
-1.92673
0
LINE
8
BLACK
6
CONTINUOUS
10
1.75022
20
-1.92673
11
1.74403
21
-1.93745
0
LINE
8
BLACK
6
CONTINUOUS
10
1.74403
20
-1.93745
11
1.73899
21
-1.94876
0
LINE
8
BLACK
6
CONTINUOUS
10
1.73899
20
-1.94876
11
1.73517
21
-1.96053
0
LINE
8
BLACK
6
CONTINUOUS
10
1.73517
20
-1.96053
11
1.73259
21
-1.97264
0
LINE
8
BLACK
6
CONTINUOUS
10
1.73259
20
-1.97264
11
1.7313
21
-1.98495
0
LINE
8
BLACK
6
CONTINUOUS
10
1.7313
20
-1.98495
11
1.7313
21
-1.99114
0
LINE
8
BLACK
6
CONTINUOUS
10
1.7313
20
-1.99114
11
1.7313
21
-4.04232
0
LINE
8
BLACK
6
CONTINUOUS
10
1.7313
20
-4.04232
11
1.7313
21
-4.04232
0
LINE
8
BLACK
6
CONTINUOUS
10
1.7313
20
-4.04232
11
1.7313
21
-4.04851
0
LINE
8
BLACK
6
CONTINUOUS
10
1.7313
20
-4.04851
11
1.73259
21
-4.06082
0
LINE
8
BLACK
6
CONTINUOUS
10
1.73259
20
-4.06082
11
1.73517
21
-4.07293
0
LINE
8
BLACK
6
CONTINUOUS
10
1.73517
20
-4.07293
11
1.73899
21
-4.08471
0
LINE
8
BLACK
6
CONTINUOUS
10
1.73899
20
-4.08471
11
1.74403
21
-4.09602
0
LINE
8
BLACK
6
CONTINUOUS
10
1.74403
20
-4.09602
11
1.75022
21
-4.10674
0
LINE
8
BLACK
6
CONTINUOUS
10
1.75022
20
-4.10674
11
1.75749
21
-4.11675
0
LINE
8
BLACK
6
CONTINUOUS
10
1.75749
20
-4.11675
11
1.76578
21
-4.12595
0
LINE
8
BLACK
6
CONTINUOUS
10
1.76578
20
-4.12595
11
1.77498
21
-4.13424
0
LINE
8
BLACK
6
CONTINUOUS
10
1.77498
20
-4.13424
11
1.78499
21
-4.14151
0
LINE
8
BLACK
6
CONTINUOUS
10
1.78499
20
-4.14151
11
1.79571
21
-4.1477
0
LINE
8
BLACK
6
CONTINUOUS
10
1.79571
20
-4.1477
11
1.80702
21
-4.15274
0
LINE
8
BLACK
6
CONTINUOUS
10
1.80702
20
-4.15274
11
1.8188
21
-4.15657
0
LINE
8
BLACK
6
CONTINUOUS
10
1.8188
20
-4.15657
11
1.83091
21
-4.15914
0
LINE
8
BLACK
6
CONTINUOUS
10
1.83091
20
-4.15914
11
1.84322
21
-4.16043
0
LINE
8
BLACK
6
CONTINUOUS
10
1.84322
20
-4.16043
11
1.84941
21
-4.16043
0
LINE
8
BLACK
6
CONTINUOUS
10
1.84941
20
-4.16043
11
2.80512
21
-4.16043
0
LINE
8
BLACK
6
CONTINUOUS
10
2.80512
20
-4.16043
11
2.81312
21
-4.16106
0
LINE
8
BLACK
6
CONTINUOUS
10
2.81312
20
-4.16106
11
2.82093
21
-4.16294
0
LINE
8
BLACK
6
CONTINUOUS
10
2.82093
20
-4.16294
11
2.82835
21
-4.16601
0
LINE
8
BLACK
6
CONTINUOUS
10
2.82835
20
-4.16601
11
2.8352
21
-4.17021
0
LINE
8
BLACK
6
CONTINUOUS
10
2.8352
20
-4.17021
11
2.84131
21
-4.17542
0
LINE
8
BLACK
6
CONTINUOUS
10
2.84131
20
-4.17542
11
2.84652
21
-4.18153
0
LINE
8
BLACK
6
CONTINUOUS
10
2.84652
20
-4.18153
11
2.85072
21
-4.18838
0
LINE
8
BLACK
6
CONTINUOUS
10
2.85072
20
-4.18838
11
2.85379
21
-4.1958
0
LINE
8
BLACK
6
CONTINUOUS
10
2.85379
20
-4.1958
11
2.85567
21
-4.20361
0
LINE
8
BLACK
6
CONTINUOUS
10
2.85567
20
-4.20361
11
2.8563
21
-4.21161
0
LINE
8
BLACK
6
CONTINUOUS
10
2.8563
20
-4.21161
11
2.8563
21
-4.21161
0
LINE
8
BLACK
6
CONTINUOUS
10
2.8563
20
-4.21161
11
2.8563
21
-4.79232
0
LINE
8
BLACK
6
CONTINUOUS
10
2.8563
20
-4.79232
11
2.8563
21
-4.79232
0
LINE
8
BLACK
6
CONTINUOUS
10
2.8563
20
-4.79232
11
2.8563
21
-4.79851
0
LINE
8
BLACK
6
CONTINUOUS
10
2.8563
20
-4.79851
11
2.85759
21
-4.81082
0
LINE
8
BLACK
6
CONTINUOUS
10
2.85759
20
-4.81082
11
2.86017
21
-4.82293
0
LINE
8
BLACK
6
CONTINUOUS
10
2.86017
20
-4.82293
11
2.86399
21
-4.83471
0
LINE
8
BLACK
6
CONTINUOUS
10
2.86399
20
-4.83471
11
2.86903
21
-4.84602
0
LINE
8
BLACK
6
CONTINUOUS
10
2.86903
20
-4.84602
11
2.87522
21
-4.85674
0
LINE
8
BLACK
6
CONTINUOUS
10
2.87522
20
-4.85674
11
2.88249
21
-4.86675
0
LINE
8
BLACK
6
CONTINUOUS
10
2.88249
20
-4.86675
11
2.89078
21
-4.87595
0
LINE
8
BLACK
6
CONTINUOUS
10
2.89078
20
-4.87595
11
2.89998
21
-4.88424
0
LINE
8
BLACK
6
CONTINUOUS
10
2.89998
20
-4.88424
11
2.90999
21
-4.89151
0
LINE
8
BLACK
6
CONTINUOUS
10
2.90999
20
-4.89151
11
2.92071
21
-4.8977
0
LINE
8
BLACK
6
CONTINUOUS
10
2.92071
20
-4.8977
11
2.93202
21
-4.90274
0
LINE
8
BLACK
6
CONTINUOUS
10
2.93202
20
-4.90274
11
2.9438
21
-4.90657
0
LINE
8
BLACK
6
CONTINUOUS
10
2.9438
20
-4.90657
11
2.95591
21
-4.90914
0
LINE
8
BLACK
6
CONTINUOUS
10
2.95591
20
-4.90914
11
2.96822
21
-4.91043
0
LINE
8
BLACK
6
CONTINUOUS
10
2.96822
20
-4.91043
11
2.97441
21
-4.91043
0
LINE
8
BLACK
6
CONTINUOUS
10
2.97441
20
-4.91043
11
8.77559
21
-4.91043
0
LINE
8
BLACK
6
CONTINUOUS
10
8.77559
20
-4.91043
11
8.77559
21
-4.91043
0
LINE
8
BLACK
6
CONTINUOUS
10
8.77559
20
-4.91043
11
8.78178
21
-4.91043
0
LINE
8
BLACK
6
CONTINUOUS
10
8.78178
20
-4.91043
11
8.79409
21
-4.90914
0
LINE
8
BLACK
6
CONTINUOUS
10
8.79409
20
-4.90914
11
8.8062
21
-4.90657
0
LINE
8
BLACK
6
CONTINUOUS
10
8.8062
20
-4.90657
11
8.81798
21
-4.90274
0
LINE
8
BLACK
6
CONTINUOUS
10
8.81798
20
-4.90274
11
8.82929
21
-4.8977
0
LINE
8
BLACK
6
CONTINUOUS
10
8.82929
20
-4.8977
11
8.84001
21
-4.89151
0
LINE
8
BLACK
6
CONTINUOUS
10
8.84001
20
-4.89151
11
8.85002
21
-4.88424
0
LINE
8
BLACK
6
CONTINUOUS
10
8.85002
20
-4.88424
11
8.85922
21
-4.87595
0
LINE
8
BLACK
6
CONTINUOUS
10
8.85922
20
-4.87595
11
8.86751
21
-4.86675
0
LINE
8
BLACK
6
CONTINUOUS
10
8.86751
20
-4.86675
11
8.87478
21
-4.85674
0
LINE
8
BLACK
6
CONTINUOUS
10
8.87478
20
-4.85674
11
8.88097
21
-4.84602
0
LINE
8
BLACK
6
CONTINUOUS
10
8.88097
20
-4.84602
11
8.88601
21
-4.83471
0
LINE
8
BLACK
6
CONTINUOUS
10
8.88601
20
-4.83471
11
8.88983
21
-4.82293
0
LINE
8
BLACK
6
CONTINUOUS
10
8.88983
20
-4.82293
11
8.89241
21
-4.81082
0
LINE
8
BLACK
6
CONTINUOUS
10
8.89241
20
-4.81082
11
8.8937
21
-4.79851
0
LINE
8
BLACK
6
CONTINUOUS
10
8.8937
20
-4.79851
11
8.8937
21
-4.79232
0
LINE
8
BLACK
6
CONTINUOUS
10
8.8937
20
-4.79232
11
8.8937
21
-4.21161
0
LINE
8
BLACK
6
CONTINUOUS
10
8.8937
20
-4.21161
11
8.89433
21
-4.20361
0
LINE
8
BLACK
6
CONTINUOUS
10
8.89433
20
-4.20361
11
8.89621
21
-4.1958
0
LINE
8
BLACK
6
CONTINUOUS
10
8.89621
20
-4.1958
11
8.89928
21
-4.18838
0
LINE
8
BLACK
6
CONTINUOUS
10
8.89928
20
-4.18838
11
8.90348
21
-4.18153
0
LINE
8
BLACK
6
CONTINUOUS
10
8.90348
20
-4.18153
11
8.90869
21
-4.17542
0
LINE
8
BLACK
6
CONTINUOUS
10
8.90869
20
-4.17542
11
8.9148
21
-4.17021
0
LINE
8
BLACK
6
CONTINUOUS
10
8.9148
20
-4.17021
11
8.92165
21
-4.16601
0
LINE
8
BLACK
6
CONTINUOUS
10
8.92165
20
-4.16601
11
8.92907
21
-4.16294
0
LINE
8
BLACK
6
CONTINUOUS
10
8.92907
20
-4.16294
11
8.93688
21
-4.16106
0
LINE
8
BLACK
6
CONTINUOUS
10
8.93688
20
-4.16106
11
8.94488
21
-4.16043
0
LINE
8
BLACK
6
CONTINUOUS
10
8.94488
20
-4.16043
11
8.94488
21
-4.16043
0
LINE
8
BLACK
6
CONTINUOUS
10
8.94488
20
-4.16043
11
9.90059
21
-4.16043
0
LINE
8
BLACK
6
CONTINUOUS
10
9.90059
20
-4.16043
11
9.90059
21
-4.16043
0
LINE
8
BLACK
6
CONTINUOUS
10
9.90059
20
-4.16043
11
9.90678
21
-4.16043
0
LINE
8
BLACK
6
CONTINUOUS
10
9.90678
20
-4.16043
11
9.91909
21
-4.15914
0
LINE
8
BLACK
6
CONTINUOUS
10
9.91909
20
-4.15914
11
9.9312
21
-4.15657
0
LINE
8
BLACK
6
CONTINUOUS
10
9.9312
20
-4.15657
11
9.94298
21
-4.15274
0
LINE
8
BLACK
6
CONTINUOUS
10
9.94298
20
-4.15274
11
9.95429
21
-4.1477
0
LINE
8
BLACK
6
CONTINUOUS
10
9.95429
20
-4.1477
11
9.96501
21
-4.14151
0
LINE
8
BLACK
6
CONTINUOUS
10
9.96501
20
-4.14151
11
9.97502
21
-4.13424
0
LINE
8
BLACK
6
CONTINUOUS
10
9.97502
20
-4.13424
11
9.98422
21
-4.12595
0
LINE
8
BLACK
6
CONTINUOUS
10
9.98422
20
-4.12595
11
9.99251
21
-4.11675
0
LINE
8
BLACK
6
CONTINUOUS
10
9.99251
20
-4.11675
11
9.99978
21
-4.10674
0
LINE
8
BLACK
6
CONTINUOUS
10
9.99978
20
-4.10674
11
10.006
21
-4.09602
0
LINE
8
BLACK
6
CONTINUOUS
10
10.006
20
-4.09602
11
10.011
21
-4.08471
0
LINE
8
BLACK
6
CONTINUOUS
10
10.011
20
-4.08471
11
10.0148
21
-4.07293
0
LINE
8
BLACK
6
CONTINUOUS
10
10.0148
20
-4.07293
11
10.0174
21
-4.06082
0
LINE
8
BLACK
6
CONTINUOUS
10
10.0174
20
-4.06082
11
10.0187
21
-4.04851
0
LINE
8
BLACK
6
CONTINUOUS
10
10.0187
20
-4.04851
11
10.0187
21
-4.04232
0
LINE
8
BLACK
6
CONTINUOUS
10
10.0187
20
-4.04232
11
10.0187
21
-1.99114
0
LINE
8
BLACK
6
CONTINUOUS
10
10.0187
20
-1.99114
11
10.0187
21
-1.99114
0
LINE
8
BLACK
6
CONTINUOUS
10
10.0187
20
-1.99114
11
10.0187
21
-1.98495
0
LINE
8
BLACK
6
CONTINUOUS
10
10.0187
20
-1.98495
11
10.0174
21
-1.97264
0
LINE
8
BLACK
6
CONTINUOUS
10
10.0174
20
-1.97264
11
10.0148
21
-1.96053
0
LINE
8
BLACK
6
CONTINUOUS
10
10.0148
20
-1.96053
11
10.011
21
-1.94876
0
LINE
8
BLACK
6
CONTINUOUS
10
10.011
20
-1.94876
11
10.006
21
-1.93745
0
LINE
8
BLACK
6
CONTINUOUS
10
10.006
20
-1.93745
11
9.99978
21
-1.92673
0
LINE
8
BLACK
6
CONTINUOUS
10
9.99978
20
-1.92673
11
9.99251
21
-1.91671
0
LINE
8
BLACK
6
CONTINUOUS
10
9.99251
20
-1.91671
11
9.98422
21
-1.90751
0
LINE
8
BLACK
6
CONTINUOUS
10
9.98422
20
-1.90751
11
9.97502
21
-1.89923
0
LINE
8
BLACK
6
CONTINUOUS
10
9.97502
20
-1.89923
11
9.96501
21
-1.89195
0
LINE
8
BLACK
6
CONTINUOUS
10
9.96501
20
-1.89195
11
9.95429
21
-1.88576
0
LINE
8
BLACK
6
CONTINUOUS
10
9.95429
20
-1.88576
11
9.94298
21
-1.88072
0
LINE
8
BLACK
6
CONTINUOUS
10
9.94298
20
-1.88072
11
9.9312
21
-1.8769
0
LINE
8
BLACK
6
CONTINUOUS
10
9.9312
20
-1.8769
11
9.91909
21
-1.87433
0
LINE
8
BLACK
6
CONTINUOUS
10
9.91909
20
-1.87433
11
9.90678
21
-1.87303
0
LINE
8
BLACK
6
CONTINUOUS
10
9.90678
20
-1.87303
11
9.90059
21
-1.87303
0
LINE
8
BLACK
6
CONTINUOUS
10
9.90059
20
-1.87303
11
1.84941
21
-1.87303
  0
ENDSEC
  0
EOF
