M48
; DRILL file {KiCad (7.0.0)} date Tue Jan 16 08:23:12 2024
; FORMAT={-:-/ absolute / inch / decimal}
; #@! TF.CreationDate,2024-01-16T08:23:12+01:00
; #@! TF.GenerationSoftware,Kicad,Pcbnew,(7.0.0)
; #@! TF.FileFunction,Plated,1,4,PTH
FMAT,2
INCH
; #@! TA.AperFunction,Plated,PTH,ViaDrill
T1C0.0157
; #@! TA.AperFunction,Plated,PTH,ComponentDrill
T2C0.0236
; #@! TA.AperFunction,Plated,PTH,ComponentDrill
T3C0.0315
; #@! TA.AperFunction,Plated,PTH,ComponentDrill
T4C0.0394
%
G90
G05
T1
X1.855Y-3.0
X1.865Y-2.0
X1.95Y-2.75
X2.025Y-3.75
X2.0312Y-4.25
X2.085Y-2.25
X2.1562Y-4.0
X2.165Y-2.25
X2.18Y-3.0
X2.255Y-3.0
X2.2626Y-4.4992
X2.3438Y-4.5
X2.365Y-3.75
X2.3652Y-2.5266
X2.3668Y-2.5987
X2.445Y-3.75
X2.4452Y-2.5266
X2.4468Y-2.5987
X2.4863Y-3.3478
X2.4865Y-3.3971
X2.4871Y-3.4746
X2.4878Y-3.2702
X2.5663Y-3.3478
X2.5664Y-3.3965
X2.567Y-3.4746
X2.5678Y-3.2702
X2.585Y-3.0
X2.695Y-3.0
X2.736Y-4.0892
X2.7661Y-4.2815
X2.7661Y-4.7502
X2.77Y-4.16
X2.7709Y-4.4974
X2.7812Y-3.5938
X2.7812Y-3.9062
X2.8213Y-4.0872
X2.8229Y-4.0248
X2.835Y-2.25
X2.9031Y-4.0864
X2.9041Y-4.0263
X2.915Y-2.25
X2.98Y-1.925
X2.9888Y-4.029
X2.9902Y-4.0881
X3.02Y-3.0
X3.0484Y-2.0116
X3.065Y-3.75
X3.0928Y-4.0889
X3.0938Y-2.5
X3.0938Y-2.6875
X3.0948Y-2.597
X3.105Y-3.0
X3.1875Y-2.365
X3.1916Y-4.0073
X3.1919Y-4.0898
X3.2Y-2.255
X3.2358Y-2.5257
X3.2498Y-3.3482
X3.25Y-1.9685
X3.2501Y-3.3974
X3.2506Y-3.475
X3.2514Y-3.2706
X3.2895Y-4.0901
X3.2901Y-4.0088
X3.31Y-2.75
X3.3125Y-2.6875
X3.3149Y-2.2554
X3.3298Y-3.3482
X3.33Y-3.3968
X3.3305Y-3.475
X3.3314Y-3.2706
X3.375Y-2.6875
X3.376Y-2.597
X3.395Y-3.75
X3.3981Y-4.0901
X3.435Y-2.86
X3.435Y-3.15
X3.4375Y-2.5
X3.4509Y-2.0119
X3.4769Y-3.75
X3.5Y-2.6875
X3.501Y-2.597
X3.5016Y-4.091
X3.52Y-1.925
X3.585Y-2.25
X3.6063Y-3.9985
X3.6064Y-4.0915
X3.625Y-2.597
X3.625Y-2.6875
X3.6644Y-2.25
X3.6875Y-4.0
X3.7108Y-4.1517
X3.7356Y-4.3106
X3.7356Y-4.4981
X3.7356Y-4.7481
X3.75Y-2.597
X3.75Y-2.6875
X3.75Y-4.0625
X3.775Y-3.0
X3.8058Y-4.2248
X3.8063Y-4.1231
X3.81Y-3.75
X3.85Y-3.0
X3.8749Y-2.5965
X3.875Y-2.6875
X3.89Y-2.0
X3.8937Y-4.1242
X3.8954Y-4.2259
X3.9298Y-2.5288
X3.9318Y-2.5966
X3.981Y-3.3502
X3.9812Y-3.3995
X3.9818Y-3.4771
X3.9825Y-3.2727
X3.9878Y-4.0487
X3.9885Y-4.1236
X3.9926Y-4.2213
X4.0Y-2.25
X4.0098Y-2.5288
X4.0118Y-2.5966
X4.0123Y-2.6875
X4.0553Y-4.5
X4.061Y-3.3502
X4.0611Y-3.3989
X4.0616Y-3.4771
X4.0625Y-3.2727
X4.092Y-4.1271
X4.092Y-4.0519
X4.125Y-2.5969
X4.125Y-2.6881
X4.134Y-4.4997
X4.1481Y-3.75
X4.1885Y-4.1254
X4.1892Y-4.0531
X4.19Y-3.0
X4.1903Y-4.2213
X4.2269Y-3.75
X4.2495Y-2.5962
X4.25Y-2.6881
X4.2939Y-4.0566
X4.3125Y-4.1562
X4.3125Y-4.2188
X4.335Y-2.25
X4.375Y-2.5969
X4.375Y-2.6881
X4.391Y-4.0578
X4.4062Y-4.125
X4.4144Y-2.25
X4.46Y-4.5
X4.4688Y-4.375
X4.4688Y-4.625
X4.4954Y-4.1175
X4.4989Y-2.597
X4.5Y-2.6881
X4.5Y-4.25
X4.525Y-3.0
X4.56Y-3.595
X4.56Y-3.91
X4.6019Y-3.0
X4.6238Y-2.5973
X4.625Y-2.6875
X4.6483Y-4.1101
X4.6861Y-2.5264
X4.6876Y-2.5974
X4.7188Y-4.3125
X4.7345Y-3.3488
X4.7348Y-3.3981
X4.7353Y-3.4756
X4.7361Y-3.2712
X4.75Y-2.095
X4.75Y-2.4
X4.75Y-4.2502
X4.75Y-4.375
X4.75Y-4.5
X4.75Y-4.625
X4.7524Y-4.1095
X4.76Y-4.7468
X4.7661Y-2.5264
X4.7676Y-2.5974
X4.7688Y-2.6903
X4.8145Y-3.3488
X4.8147Y-3.3975
X4.8152Y-3.4756
X4.8161Y-3.2712
X4.8438Y-4.1106
X4.8438Y-4.25
X4.8438Y-4.625
X4.875Y-2.5965
X4.875Y-2.6893
X4.8759Y-4.7454
X4.8981Y-3.75
X4.935Y-2.855
X4.935Y-3.15
X4.9375Y-4.1112
X4.9375Y-4.25
X4.9769Y-3.75
X4.9813Y-4.7454
X5.0Y-2.5965
X5.0Y-2.6893
X5.0312Y-4.1112
X5.0312Y-4.25
X5.085Y-2.25
X5.125Y-2.5965
X5.125Y-2.6893
X5.125Y-4.1108
X5.1644Y-2.25
X5.1793Y-4.5
X5.2154Y-4.111
X5.25Y-2.6893
X5.2513Y-2.5966
X5.2581Y-4.5
X5.275Y-3.0
X5.31Y-3.75
X5.3401Y-4.1112
X5.3519Y-3.0
X5.375Y-2.6875
X5.3763Y-2.5966
X5.4182Y-4.1101
X5.4281Y-2.5974
X5.4292Y-2.5288
X5.4375Y-4.25
X5.4375Y-4.75
X5.4815Y-3.354
X5.4817Y-3.4032
X5.4823Y-3.4808
X5.4831Y-3.2764
X5.5Y-2.25
X5.5081Y-2.5974
X5.5092Y-2.5288
X5.51Y-2.6909
X5.5185Y-4.3986
X5.5312Y-4.1076
X5.5312Y-4.1875
X5.56Y-3.255
X5.56Y-3.485
X5.5615Y-3.354
X5.5616Y-3.4026
X5.5625Y-4.75
X5.583Y-2.7554
X5.585Y-2.855
X5.585Y-3.15
X5.5938Y-4.1875
X5.5938Y-4.25
X5.595Y-4.355
X5.6332Y-3.4135
X5.6481Y-3.75
X5.6562Y-4.108
X5.6562Y-4.3125
X5.6755Y-4.1991
X5.684Y-4.5754
X5.6942Y-2.7562
X5.695Y-2.5278
X5.695Y-2.665
X5.695Y-2.855
X5.695Y-3.0
X5.695Y-3.15
X5.695Y-3.24
X5.695Y-2.597
X5.705Y-3.425
X5.725Y-4.2
X5.7269Y-3.75
X5.7351Y-3.3147
X5.7701Y-2.7554
X5.7749Y-2.5278
X5.775Y-2.665
X5.775Y-2.855
X5.775Y-3.15
X5.775Y-2.597
X5.7793Y-4.1072
X5.78Y-3.425
X5.7834Y-4.3017
X5.79Y-4.225
X5.7949Y-3.313
X5.8227Y-4.3021
X5.835Y-2.25
X5.835Y-4.015
X5.8438Y-4.125
X5.8589Y-4.7626
X5.86Y-3.24
X5.86Y-3.325
X5.86Y-3.425
X5.8722Y-4.265
X5.8724Y-4.5876
X5.8736Y-4.7043
X5.8856Y-4.02
X5.915Y-2.25
X5.925Y-4.02
X5.94Y-3.325
X5.94Y-3.4256
X5.9437Y-3.5315
X5.945Y-3.91
X5.9616Y-4.7652
X6.0072Y-4.445
X6.015Y-3.325
X6.025Y-3.0
X6.025Y-3.425
X6.0363Y-4.104
X6.0451Y-4.2119
X6.0565Y-4.7665
X6.0625Y-3.5237
X6.0625Y-3.5938
X6.0625Y-3.6637
X6.0625Y-3.9062
X6.0625Y-3.9688
X6.0625Y-4.0312
X6.0938Y-4.093
X6.0938Y-4.1549
X6.1Y-3.0
X6.1Y-3.325
X6.1Y-3.425
X6.16Y-2.5255
X6.1604Y-2.5965
X6.1636Y-4.6114
X6.1727Y-4.125
X6.1727Y-4.1875
X6.1783Y-4.0656
X6.18Y-3.325
X6.18Y-3.425
X6.1875Y-3.5312
X6.1875Y-3.91
X6.1926Y-4.2639
X6.1948Y-4.7782
X6.195Y-4.36
X6.195Y-4.44
X6.195Y-4.6985
X6.1952Y-4.3998
X6.1955Y-4.7384
X6.215Y-3.375
X6.24Y-2.5255
X6.2404Y-2.5965
X6.245Y-3.427
X6.245Y-3.245
X6.245Y-3.325
X6.2454Y-3.5032
X6.25Y-2.25
X6.25Y-4.25
X6.2501Y-4.1071
X6.26Y-4.36
X6.325Y-3.427
X6.325Y-3.245
X6.325Y-3.325
X6.3351Y-4.1056
X6.3354Y-4.0275
X6.3438Y-4.25
X6.36Y-3.375
X6.3981Y-3.75
X6.44Y-3.0
X6.4688Y-4.1059
X6.4769Y-3.75
X6.49Y-4.5
X6.57Y-4.5
X6.585Y-2.25
X6.5938Y-4.1059
X6.665Y-2.25
X6.7159Y-4.2356
X6.7196Y-4.1066
X6.739Y-4.7507
X6.77Y-3.0
X6.815Y-3.75
X6.8336Y-4.106
X6.8353Y-4.2347
X6.85Y-3.0
X6.9062Y-4.2335
X6.9062Y-4.375
X6.9062Y-4.625
X6.9062Y-4.7468
X6.9076Y-4.107
X6.9216Y-2.5273
X6.9219Y-2.5983
X6.9688Y-4.2812
X6.9738Y-3.3512
X6.974Y-3.4004
X6.9746Y-3.478
X6.9753Y-3.2736
X7.0Y-2.095
X7.0Y-2.4
X7.0Y-4.7481
X7.0016Y-2.5273
X7.0019Y-2.5983
X7.0312Y-4.1073
X7.0538Y-3.3512
X7.0539Y-3.3999
X7.0545Y-3.478
X7.0553Y-3.2736
X7.0566Y-4.2299
X7.0625Y-4.6562
X7.0625Y-4.7188
X7.0932Y-4.1172
X7.1481Y-3.75
X7.185Y-2.85
X7.185Y-3.15
X7.2175Y-4.2057
X7.2188Y-4.1091
X7.2188Y-4.3438
X7.2188Y-4.6562
X7.2188Y-4.75
X7.2269Y-3.75
X7.2812Y-4.1875
X7.2812Y-4.25
X7.2812Y-4.5
X7.2812Y-4.625
X7.2973Y-4.375
X7.3088Y-4.302
X7.335Y-2.25
X7.3438Y-4.1089
X7.4144Y-2.25
X7.4688Y-4.25
X7.4895Y-4.106
X7.4898Y-4.0198
X7.525Y-3.0
X7.56Y-3.595
X7.5803Y-4.0192
X7.5812Y-4.1063
X7.5837Y-4.2134
X7.6Y-3.0
X7.615Y-4.5
X7.659Y-4.107
X7.6773Y-2.5273
X7.6776Y-2.5983
X7.6875Y-2.9062
X7.695Y-4.5
X7.7123Y-4.0192
X7.7188Y-4.132
X7.7292Y-3.3499
X7.7294Y-3.3991
X7.73Y-3.4767
X7.7307Y-3.2723
X7.75Y-2.25
X7.7573Y-2.5273
X7.7576Y-2.5983
X7.7965Y-4.2146
X7.7978Y-4.1079
X7.8092Y-3.3499
X7.8093Y-3.3986
X7.8098Y-3.4767
X7.8107Y-3.2723
X7.8755Y-4.1079
X7.8834Y-4.2185
X7.8981Y-3.75
X7.94Y-3.0
X7.9688Y-4.0625
X7.9691Y-4.2199
X7.9769Y-3.75
X8.0Y-4.3438
X8.0Y-4.5
X8.0Y-4.75
X8.0455Y-4.1527
X8.085Y-2.25
X8.1195Y-4.086
X8.1211Y-3.9899
X8.165Y-2.25
X8.2013Y-4.0851
X8.2029Y-3.989
X8.275Y-3.0
X8.2884Y-4.0869
X8.29Y-3.9907
X8.315Y-3.75
X8.35Y-3.0
X8.391Y-4.0877
X8.4091Y-4.0052
X8.4153Y-2.5273
X8.4157Y-2.5983
X8.4754Y-3.3476
X8.4756Y-3.3969
X8.4762Y-3.4745
X8.477Y-3.2701
X8.4901Y-4.0886
X8.4907Y-4.0063
X8.4953Y-2.5273
X8.4957Y-2.5983
X8.5Y-2.25
X8.5554Y-3.3476
X8.5555Y-3.3963
X8.5561Y-3.4745
X8.557Y-3.2701
X8.5877Y-4.0889
X8.6481Y-3.75
X8.6963Y-4.0889
X8.7269Y-3.75
X8.7998Y-4.0898
X8.8011Y-4.0098
X8.83Y-2.85
X8.83Y-3.155
X8.835Y-2.25
X8.9046Y-4.0903
X8.9062Y-4.0
X8.915Y-2.25
X8.9688Y-4.125
X8.9688Y-4.25
X8.9688Y-4.5
X8.9688Y-4.75
X8.975Y-3.0
X8.9856Y-4.0195
X9.025Y-3.75
X9.0625Y-4.0312
X9.0625Y-4.125
X9.1274Y-2.527
X9.1277Y-2.5981
X9.141Y-3.3492
X9.1412Y-3.3985
X9.1418Y-3.4761
X9.1426Y-3.2717
X9.1562Y-4.0312
X9.1562Y-4.125
X9.2074Y-2.527
X9.2077Y-2.5981
X9.221Y-3.3492
X9.2211Y-3.3979
X9.2226Y-3.2717
X9.25Y-2.405
X9.25Y-4.0312
X9.25Y-4.125
X9.305Y-3.0
X9.3438Y-4.125
X9.3446Y-4.0457
X9.38Y-3.0
X9.3982Y-4.4997
X9.4375Y-4.125
X9.4384Y-4.0457
X9.4782Y-4.5006
X9.4919Y-3.75
X9.5312Y-4.125
X9.5321Y-4.0457
X9.57Y-3.75
X9.585Y-2.25
X9.605Y-3.375
X9.61Y-2.745
X9.625Y-4.125
X9.6259Y-4.0457
X9.665Y-2.25
X9.6875Y-3.0
X9.7188Y-4.125
X9.7188Y-4.25
X9.7188Y-4.7188
X9.7196Y-4.0457
X9.7914Y-4.1248
X9.7923Y-4.0455
X9.875Y-3.4375
X9.8771Y-3.9579
X9.885Y-2.0
X9.885Y-3.745
X9.89Y-2.5
X9.9375Y-2.25
T3
X2.9262Y-3.5502
X2.9262Y-3.625
X2.9262Y-3.6998
T4
X7.0938Y-4.4498
X7.0938Y-4.5498
T2
G00X3.0799Y-1.8954
M15
G01X3.0799Y-1.919
M16
G05
G00X3.4201Y-1.8954
M15
G01X3.4201Y-1.919
M16
G05
T0
M30
