M48
; DRILL file {KiCad 8.0.8} date 2025-03-01T19:05:43+0100
; FORMAT={-:-/ absolute / inch / decimal}
; #@! TF.CreationDate,2025-03-01T19:05:43+01:00
; #@! TF.GenerationSoftware,Kicad,Pcbnew,8.0.8
; #@! TF.FileFunction,Plated,1,4,PTH
FMAT,2
INCH
; #@! TA.AperFunction,Plated,PTH,ViaDrill
T1C0.0157
; #@! TA.AperFunction,Plated,PTH,ComponentDrill
T2C0.0157
; #@! TA.AperFunction,Plated,PTH,ComponentDrill
T3C0.0197
; #@! TA.AperFunction,Plated,PTH,ComponentDrill
T4C0.0236
; #@! TA.AperFunction,Plated,PTH,ComponentDrill
T5C0.0394
%
G90
G05
T1
X4.2188Y-4.9062
X4.2188Y-5.3125
X4.4688Y-5.0625
X4.6015Y-5.3282
X4.6971Y-5.3282
X4.874Y-4.4989
X4.874Y-4.578
X4.8784Y-3.6887
X4.8784Y-3.8028
X4.8784Y-4.064
X4.8828Y-2.9777
X4.8828Y-3.0796
X4.9547Y-3.6887
X4.9547Y-3.8028
X4.9547Y-3.8864
X4.9547Y-3.9503
X4.9547Y-4.0645
X4.9604Y-4.6491
X4.9607Y-4.7211
X4.9626Y-4.4989
X4.9626Y-4.578
X4.9685Y-2.9777
X4.9685Y-3.0796
X4.9685Y-3.1514
X4.9765Y-5.3282
X5.0351Y-3.8028
X5.0379Y-3.8869
X5.0381Y-3.9263
X5.0381Y-3.9688
X5.0385Y-4.0089
X5.061Y-4.6491
X5.0614Y-4.7215
X5.0813Y-3.0796
X5.0832Y-3.1514
X5.0938Y-5.3282
X5.16Y-4.6491
X5.25Y-4.6491
X5.3125Y-3.922
X5.3828Y-4.0402
X5.3828Y-5.3282
X5.4062Y-3.922
X5.4368Y-3.1514
X5.4375Y-4.0625
X5.439Y-3.0796
X5.4453Y-3.7902
X5.4688Y-4.0312
X5.4765Y-4.578
X5.4765Y-3.3839
X5.4765Y-3.6652
X5.4765Y-4.3839
X5.4765Y-4.4777
X5.4765Y-4.6491
X5.4765Y-5.3282
X5.4785Y-4.2165
X5.4845Y-4.9375
X5.489Y-4.817
X5.494Y-3.7515
X5.5Y-5.125
X5.5004Y-4.1003
X5.5121Y-3.2921
X5.53Y-2.8392
X5.5312Y-5.0
X5.5514Y-3.2931
X5.5625Y-5.125
X5.569Y-4.3766
X5.5711Y-5.0005
X5.5713Y-4.4223
X5.5823Y-2.5695
X5.6022Y-4.5458
X5.6132Y-3.5773
X5.625Y-3.6875
X5.625Y-4.3125
X5.625Y-4.7812
X5.625Y-5.0
X5.625Y-5.125
X5.6266Y-3.8985
X5.6328Y-4.578
X5.64Y-4.8438
X5.6481Y-4.2293
X5.6562Y-4.5312
X5.6564Y-3.3839
X5.6564Y-3.5089
X5.6564Y-3.5777
X5.6623Y-3.0796
X5.6634Y-3.1514
X5.6644Y-5.0
X5.6794Y-4.8438
X5.6875Y-5.125
X5.688Y-4.2293
X5.6911Y-2.8466
X5.6953Y-3.6964
X5.6953Y-4.2902
X5.6953Y-4.3839
X5.6953Y-4.4777
X5.7011Y-4.097
X5.7012Y-4.578
X5.7188Y-4.8438
X5.7265Y-3.729
X5.7272Y-5.3282
X5.7442Y-4.0594
X5.7578Y-4.578
X5.7593Y-4.6491
X5.8125Y-4.0
X5.8203Y-5.3282
X5.8438Y-3.9688
X5.875Y-3.9062
X5.875Y-3.9375
X5.8835Y-4.7268
X5.8836Y-4.798
X5.9375Y-4.6491
X5.9719Y-4.7268
X5.9996Y-3.9537
X6.0Y-3.9062
X6.0013Y-3.9927
X6.0413Y-4.6491
X6.0418Y-4.7268
X6.0419Y-4.798
X6.1015Y-5.3282
X6.13Y-3.0796
X6.13Y-3.1514
X6.1361Y-4.6491
X6.1368Y-4.7268
X6.1375Y-4.7984
X6.2185Y-4.578
X6.2185Y-4.6491
X6.2185Y-4.7268
X6.2185Y-4.798
X6.2188Y-5.3282
X6.22Y-2.9672
X6.22Y-3.0796
X6.22Y-3.1514
X6.2245Y-3.8028
X6.2245Y-3.8853
X6.2245Y-3.9777
X6.2245Y-4.0714
X6.3129Y-2.9662
X6.3129Y-3.0796
X6.3136Y-3.8028
X6.3136Y-4.0714
X6.3245Y-4.578
X6.3792Y-4.578
X6.4444Y-4.578
X6.4444Y-4.6491
X6.5Y-5.3282
X6.5938Y-5.3282
X6.7188Y-5.0625
X6.9688Y-4.9062
X6.9688Y-5.3125
T2
X4.4409Y-5.0903
X4.4688Y-2.7731
X4.4688Y-2.8519
X4.4688Y-3.1481
X4.4688Y-3.2269
X4.4688Y-3.5231
X4.4688Y-3.6019
X4.4688Y-4.2731
X4.4688Y-4.3519
X4.4688Y-4.6481
X4.4688Y-4.7269
X4.4966Y-5.0347
X4.8044Y-5.0625
X4.8831Y-5.0625
X5.1794Y-2.8125
X5.1794Y-4.3125
X5.1794Y-5.0625
X5.2188Y-3.5231
X5.2188Y-3.6019
X5.2581Y-2.8125
X5.2581Y-4.3125
X5.2581Y-5.0625
X5.9294Y-2.8125
X5.9294Y-4.3125
X5.9294Y-5.0625
X5.9688Y-3.5231
X5.9688Y-3.6019
X6.0081Y-2.8125
X6.0081Y-4.3125
X6.0081Y-5.0625
X6.3044Y-5.0625
X6.3831Y-5.0625
X6.6909Y-5.0347
X6.7188Y-2.7731
X6.7188Y-2.8519
X6.7188Y-3.1481
X6.7188Y-3.2269
X6.7188Y-3.5231
X6.7188Y-3.6019
X6.7188Y-4.2731
X6.7188Y-4.3519
X6.7188Y-4.6481
X6.7188Y-4.7269
X6.7466Y-5.0903
T5
X6.1572Y-3.918
X6.1572Y-4.018
T3
G00X4.1774Y-2.7239
M15
G01X4.1774Y-2.7042
M16
G05
G00X4.1774Y-2.9208
M15
G01X4.1774Y-2.9011
M16
G05
G00X4.764Y-2.7239
M15
G01X4.764Y-2.7042
M16
G05
G00X4.764Y-2.8223
M15
G01X4.764Y-2.8027
M16
G05
G00X4.764Y-2.9208
M15
G01X4.764Y-2.9011
M16
G05
G00X6.4235Y-2.7042
M15
G01X6.4235Y-2.7239
M16
G05
G00X6.4235Y-2.8027
M15
G01X6.4235Y-2.8223
M16
G05
G00X6.4235Y-2.9011
M15
G01X6.4235Y-2.9208
M16
G05
G00X7.0101Y-2.7042
M15
G01X7.0101Y-2.7239
M16
G05
G00X7.0101Y-2.9011
M15
G01X7.0101Y-2.9208
M16
G05
T4
G00X5.4237Y-2.452
M15
G01X5.4237Y-2.4757
M16
G05
G00X5.7638Y-2.452
M15
G01X5.7638Y-2.4757
M16
G05
M30
