%TF.GenerationSoftware,KiCad,Pcbnew,8.0.8*%
%TF.CreationDate,2025-03-01T19:05:43+01:00*%
%TF.ProjectId,numbpad,6e756d62-7061-4642-9e6b-696361645f70,rev?*%
%TF.SameCoordinates,Original*%
%TF.FileFunction,Legend,Bot*%
%TF.FilePolarity,Positive*%
%FSLAX46Y46*%
G04 Gerber Fmt 4.6, Leading zero omitted, Abs format (unit mm)*
G04 Created by KiCad (PCBNEW 8.0.8) date 2025-03-01 19:05:43*
%MOMM*%
%LPD*%
G01*
G04 APERTURE LIST*
G04 Aperture macros list*
%AMRoundRect*
0 Rectangle with rounded corners*
0 $1 Rounding radius*
0 $2 $3 $4 $5 $6 $7 $8 $9 X,Y pos of 4 corners*
0 Add a 4 corners polygon primitive as box body*
4,1,4,$2,$3,$4,$5,$6,$7,$8,$9,$2,$3,0*
0 Add four circle primitives for the rounded corners*
1,1,$1+$1,$2,$3*
1,1,$1+$1,$4,$5*
1,1,$1+$1,$6,$7*
1,1,$1+$1,$8,$9*
0 Add four rect primitives between the rounded corners*
20,1,$1+$1,$2,$3,$4,$5,0*
20,1,$1+$1,$4,$5,$6,$7,0*
20,1,$1+$1,$6,$7,$8,$9,0*
20,1,$1+$1,$8,$9,$2,$3,0*%
%AMRotRect*
0 Rectangle, with rotation*
0 The origin of the aperture is its center*
0 $1 length*
0 $2 width*
0 $3 Rotation angle, in degrees counterclockwise*
0 Add horizontal line*
21,1,$1,$2,0,0,$3*%
G04 Aperture macros list end*
%ADD10C,0.150000*%
%ADD11C,0.400000*%
%ADD12C,0.120000*%
%ADD13C,0.000000*%
%ADD14C,0.170180*%
%ADD15C,0.002540*%
%ADD16C,2.200000*%
%ADD17RoundRect,0.140000X-0.170000X0.140000X-0.170000X-0.140000X0.170000X-0.140000X0.170000X0.140000X0*%
%ADD18R,0.419100X1.778000*%
%ADD19RoundRect,0.135000X-0.185000X0.135000X-0.185000X-0.135000X0.185000X-0.135000X0.185000X0.135000X0*%
%ADD20RoundRect,0.135000X-0.135000X-0.185000X0.135000X-0.185000X0.135000X0.185000X-0.135000X0.185000X0*%
%ADD21RoundRect,0.140000X0.140000X0.170000X-0.140000X0.170000X-0.140000X-0.170000X0.140000X-0.170000X0*%
%ADD22RoundRect,0.140000X-0.140000X-0.170000X0.140000X-0.170000X0.140000X0.170000X-0.140000X0.170000X0*%
%ADD23RoundRect,0.140000X0.170000X-0.140000X0.170000X0.140000X-0.170000X0.140000X-0.170000X-0.140000X0*%
%ADD24RoundRect,0.135000X0.135000X0.185000X-0.135000X0.185000X-0.135000X-0.185000X0.135000X-0.185000X0*%
%ADD25RoundRect,0.062500X0.309359X-0.220971X-0.220971X0.309359X-0.309359X0.220971X0.220971X-0.309359X0*%
%ADD26RoundRect,0.062500X0.309359X0.220971X0.220971X0.309359X-0.309359X-0.220971X-0.220971X-0.309359X0*%
%ADD27RotRect,5.600000X5.600000X135.000000*%
%ADD28R,1.700000X1.700000*%
%ADD29O,1.700000X1.700000*%
%ADD30C,0.750000*%
%ADD31RoundRect,0.050000X-0.300000X-0.725000X0.300000X-0.725000X0.300000X0.725000X-0.300000X0.725000X0*%
%ADD32RoundRect,0.050000X-0.150000X-0.725000X0.150000X-0.725000X0.150000X0.725000X-0.150000X0.725000X0*%
%ADD33RoundRect,0.050000X-0.850000X-0.850000X0.850000X-0.850000X0.850000X0.850000X-0.850000X0.850000X0*%
%ADD34O,1.100000X1.700000*%
%ADD35RoundRect,0.150000X0.150000X-0.512500X0.150000X0.512500X-0.150000X0.512500X-0.150000X-0.512500X0*%
%ADD36RoundRect,0.150000X0.150000X-0.587500X0.150000X0.587500X-0.150000X0.587500X-0.150000X-0.587500X0*%
%ADD37RoundRect,0.243750X0.243750X0.456250X-0.243750X0.456250X-0.243750X-0.456250X0.243750X-0.456250X0*%
%ADD38RoundRect,0.175000X0.175000X0.325000X-0.175000X0.325000X-0.175000X-0.325000X0.175000X-0.325000X0*%
%ADD39RoundRect,0.150000X0.200000X0.150000X-0.200000X0.150000X-0.200000X-0.150000X0.200000X-0.150000X0*%
G04 APERTURE END LIST*
D10*
G36*
X158192536Y-97583387D02*
G01*
X158049348Y-97583387D01*
X158049348Y-97438978D01*
X158028603Y-97474526D01*
X157987874Y-97525610D01*
X157936386Y-97566900D01*
X157895793Y-97586971D01*
X157835056Y-97603515D01*
X157772743Y-97608421D01*
X157724783Y-97605023D01*
X157662548Y-97588844D01*
X157606039Y-97559341D01*
X157555258Y-97516515D01*
X157516288Y-97469203D01*
X157487967Y-97423565D01*
X157460318Y-97363173D01*
X157439582Y-97296640D01*
X157427581Y-97236507D01*
X157420381Y-97172110D01*
X157417981Y-97103449D01*
X157565748Y-97103449D01*
X157565999Y-97124947D01*
X157570843Y-97195568D01*
X157581852Y-97259001D01*
X157601983Y-97322695D01*
X157630167Y-97377001D01*
X157638406Y-97388980D01*
X157685221Y-97437280D01*
X157741399Y-97466260D01*
X157806937Y-97475920D01*
X157827800Y-97475050D01*
X157891103Y-97459594D01*
X157944806Y-97424818D01*
X157984929Y-97377001D01*
X158000028Y-97351022D01*
X158024185Y-97292022D01*
X158038717Y-97232696D01*
X158047084Y-97166182D01*
X158049348Y-97103449D01*
X158049097Y-97081952D01*
X158044253Y-97011331D01*
X158033244Y-96947897D01*
X158013113Y-96884203D01*
X157984929Y-96829897D01*
X157976685Y-96817882D01*
X157929703Y-96769433D01*
X157873120Y-96740363D01*
X157806937Y-96730674D01*
X157786293Y-96731546D01*
X157723562Y-96747049D01*
X157670194Y-96781933D01*
X157630167Y-96829897D01*
X157615068Y-96855877D01*
X157590911Y-96914877D01*
X157576379Y-96974203D01*
X157568012Y-97040717D01*
X157565748Y-97103449D01*
X157417981Y-97103449D01*
X157419517Y-97048113D01*
X157425757Y-96982807D01*
X157436797Y-96921794D01*
X157456382Y-96854245D01*
X157482879Y-96792879D01*
X157516288Y-96737696D01*
X157541800Y-96705066D01*
X157590946Y-96658434D01*
X157645818Y-96625124D01*
X157706417Y-96605139D01*
X157772743Y-96598477D01*
X157813132Y-96600479D01*
X157876387Y-96613223D01*
X157936386Y-96640304D01*
X157972847Y-96667161D01*
X158015752Y-96713866D01*
X158049348Y-96767615D01*
X158049348Y-96247378D01*
X158192536Y-96247378D01*
X158192536Y-97583387D01*
G37*
G36*
X156919858Y-96603189D02*
G01*
X156981163Y-96617325D01*
X157045496Y-96645727D01*
X157102086Y-96686957D01*
X157144429Y-96732505D01*
X157174685Y-96776901D01*
X157204223Y-96836807D01*
X157226376Y-96903948D01*
X157239197Y-96965425D01*
X157246889Y-97031925D01*
X157249453Y-97103449D01*
X157247812Y-97160865D01*
X157241146Y-97228181D01*
X157229351Y-97290548D01*
X157208428Y-97358855D01*
X157180121Y-97420035D01*
X157144429Y-97474088D01*
X157102086Y-97519740D01*
X157045496Y-97561064D01*
X156981163Y-97589531D01*
X156919858Y-97603699D01*
X156852864Y-97608421D01*
X156786056Y-97603699D01*
X156724851Y-97589531D01*
X156660526Y-97561064D01*
X156603828Y-97519740D01*
X156561299Y-97474088D01*
X156530779Y-97429539D01*
X156500983Y-97369546D01*
X156478636Y-97302427D01*
X156465704Y-97241051D01*
X156457945Y-97174725D01*
X156455359Y-97103449D01*
X156606484Y-97103449D01*
X156606743Y-97124617D01*
X156611724Y-97194288D01*
X156623047Y-97257093D01*
X156643750Y-97320463D01*
X156672735Y-97374864D01*
X156681166Y-97386917D01*
X156728977Y-97435515D01*
X156786210Y-97464674D01*
X156852864Y-97474393D01*
X156874016Y-97473521D01*
X156938320Y-97458017D01*
X156993084Y-97423134D01*
X157034214Y-97375169D01*
X157045999Y-97355921D01*
X157071759Y-97298295D01*
X157089276Y-97231510D01*
X157097841Y-97165559D01*
X157100160Y-97103449D01*
X157099900Y-97082138D01*
X157094895Y-97012093D01*
X157083521Y-96949118D01*
X157062722Y-96885806D01*
X157033604Y-96831729D01*
X157020706Y-96813997D01*
X156976989Y-96771265D01*
X156919577Y-96742195D01*
X156852864Y-96732505D01*
X156831878Y-96733386D01*
X156768051Y-96749032D01*
X156713645Y-96784238D01*
X156672735Y-96832645D01*
X156660895Y-96851989D01*
X156635016Y-96909687D01*
X156617418Y-96976276D01*
X156608813Y-97041836D01*
X156606484Y-97103449D01*
X156455359Y-97103449D01*
X156457014Y-97045828D01*
X156463739Y-96978323D01*
X156475636Y-96915841D01*
X156496742Y-96847495D01*
X156525296Y-96786383D01*
X156561299Y-96732505D01*
X156603828Y-96686957D01*
X156660526Y-96645727D01*
X156724851Y-96617325D01*
X156786056Y-96603189D01*
X156852864Y-96598477D01*
X156919858Y-96603189D01*
G37*
G36*
X155957541Y-96603189D02*
G01*
X156018846Y-96617325D01*
X156083179Y-96645727D01*
X156139769Y-96686957D01*
X156182112Y-96732505D01*
X156212368Y-96776901D01*
X156241906Y-96836807D01*
X156264060Y-96903948D01*
X156276880Y-96965425D01*
X156284572Y-97031925D01*
X156287136Y-97103449D01*
X156285495Y-97160865D01*
X156278829Y-97228181D01*
X156267034Y-97290548D01*
X156246111Y-97358855D01*
X156217804Y-97420035D01*
X156182112Y-97474088D01*
X156139769Y-97519740D01*
X156083179Y-97561064D01*
X156018846Y-97589531D01*
X155957541Y-97603699D01*
X155890547Y-97608421D01*
X155823739Y-97603699D01*
X155762534Y-97589531D01*
X155698210Y-97561064D01*
X155641511Y-97519740D01*
X155598982Y-97474088D01*
X155568462Y-97429539D01*
X155538666Y-97369546D01*
X155516320Y-97302427D01*
X155503387Y-97241051D01*
X155495628Y-97174725D01*
X155493042Y-97103449D01*
X155644167Y-97103449D01*
X155644426Y-97124617D01*
X155649408Y-97194288D01*
X155660730Y-97257093D01*
X155681433Y-97320463D01*
X155710418Y-97374864D01*
X155718850Y-97386917D01*
X155766661Y-97435515D01*
X155823893Y-97464674D01*
X155890547Y-97474393D01*
X155911699Y-97473521D01*
X155976003Y-97458017D01*
X156030767Y-97423134D01*
X156071897Y-97375169D01*
X156083683Y-97355921D01*
X156109442Y-97298295D01*
X156126959Y-97231510D01*
X156135524Y-97165559D01*
X156137843Y-97103449D01*
X156137583Y-97082138D01*
X156132578Y-97012093D01*
X156121204Y-96949118D01*
X156100405Y-96885806D01*
X156071287Y-96831729D01*
X156058389Y-96813997D01*
X156014672Y-96771265D01*
X155957261Y-96742195D01*
X155890547Y-96732505D01*
X155869562Y-96733386D01*
X155805734Y-96749032D01*
X155751328Y-96784238D01*
X155710418Y-96832645D01*
X155698578Y-96851989D01*
X155672699Y-96909687D01*
X155655101Y-96976276D01*
X155646496Y-97041836D01*
X155644167Y-97103449D01*
X155493042Y-97103449D01*
X155494697Y-97045828D01*
X155501422Y-96978323D01*
X155513319Y-96915841D01*
X155534425Y-96847495D01*
X155562979Y-96786383D01*
X155598982Y-96732505D01*
X155641511Y-96686957D01*
X155698210Y-96645727D01*
X155762534Y-96617325D01*
X155823739Y-96603189D01*
X155890547Y-96598477D01*
X155957541Y-96603189D01*
G37*
G36*
X155122098Y-96348739D02*
G01*
X155122098Y-96621680D01*
X154829312Y-96621680D01*
X154829312Y-96744412D01*
X155122098Y-96744412D01*
X155122098Y-97266481D01*
X155119295Y-97331746D01*
X155107272Y-97392075D01*
X155093399Y-97417607D01*
X155038224Y-97445647D01*
X154976163Y-97451190D01*
X154829312Y-97451190D01*
X154829312Y-97583387D01*
X154976163Y-97583387D01*
X155043054Y-97580129D01*
X155107660Y-97568427D01*
X155165241Y-97545090D01*
X155203003Y-97515304D01*
X155236008Y-97461619D01*
X155253611Y-97402915D01*
X155262596Y-97340060D01*
X155265529Y-97277649D01*
X155265591Y-97266481D01*
X155265591Y-96744412D01*
X155369394Y-96744412D01*
X155369394Y-96621680D01*
X155265591Y-96621680D01*
X155265591Y-96348739D01*
X155122098Y-96348739D01*
G37*
X145776488Y-63856045D02*
X145776488Y-64427473D01*
X145776488Y-64427473D02*
X145814583Y-64541759D01*
X145814583Y-64541759D02*
X145890774Y-64617950D01*
X145890774Y-64617950D02*
X146005059Y-64656045D01*
X146005059Y-64656045D02*
X146081250Y-64656045D01*
X145014583Y-64656045D02*
X145395535Y-64656045D01*
X145395535Y-64656045D02*
X145395535Y-63856045D01*
X144290773Y-64579854D02*
X144328869Y-64617950D01*
X144328869Y-64617950D02*
X144443154Y-64656045D01*
X144443154Y-64656045D02*
X144519345Y-64656045D01*
X144519345Y-64656045D02*
X144633631Y-64617950D01*
X144633631Y-64617950D02*
X144709821Y-64541759D01*
X144709821Y-64541759D02*
X144747916Y-64465569D01*
X144747916Y-64465569D02*
X144786012Y-64313188D01*
X144786012Y-64313188D02*
X144786012Y-64198902D01*
X144786012Y-64198902D02*
X144747916Y-64046521D01*
X144747916Y-64046521D02*
X144709821Y-63970330D01*
X144709821Y-63970330D02*
X144633631Y-63894140D01*
X144633631Y-63894140D02*
X144519345Y-63856045D01*
X144519345Y-63856045D02*
X144443154Y-63856045D01*
X144443154Y-63856045D02*
X144328869Y-63894140D01*
X144328869Y-63894140D02*
X144290773Y-63932235D01*
X143719345Y-63856045D02*
X143719345Y-64427473D01*
X143719345Y-64427473D02*
X143757440Y-64541759D01*
X143757440Y-64541759D02*
X143833631Y-64617950D01*
X143833631Y-64617950D02*
X143947916Y-64656045D01*
X143947916Y-64656045D02*
X144024107Y-64656045D01*
X142957440Y-64656045D02*
X143338392Y-64656045D01*
X143338392Y-64656045D02*
X143338392Y-63856045D01*
X142233630Y-64579854D02*
X142271726Y-64617950D01*
X142271726Y-64617950D02*
X142386011Y-64656045D01*
X142386011Y-64656045D02*
X142462202Y-64656045D01*
X142462202Y-64656045D02*
X142576488Y-64617950D01*
X142576488Y-64617950D02*
X142652678Y-64541759D01*
X142652678Y-64541759D02*
X142690773Y-64465569D01*
X142690773Y-64465569D02*
X142728869Y-64313188D01*
X142728869Y-64313188D02*
X142728869Y-64198902D01*
X142728869Y-64198902D02*
X142690773Y-64046521D01*
X142690773Y-64046521D02*
X142652678Y-63970330D01*
X142652678Y-63970330D02*
X142576488Y-63894140D01*
X142576488Y-63894140D02*
X142462202Y-63856045D01*
X142462202Y-63856045D02*
X142386011Y-63856045D01*
X142386011Y-63856045D02*
X142271726Y-63894140D01*
X142271726Y-63894140D02*
X142233630Y-63932235D01*
X141662202Y-63856045D02*
X141662202Y-64427473D01*
X141662202Y-64427473D02*
X141700297Y-64541759D01*
X141700297Y-64541759D02*
X141776488Y-64617950D01*
X141776488Y-64617950D02*
X141890773Y-64656045D01*
X141890773Y-64656045D02*
X141966964Y-64656045D01*
X140900297Y-64656045D02*
X141281249Y-64656045D01*
X141281249Y-64656045D02*
X141281249Y-63856045D01*
X140176487Y-64579854D02*
X140214583Y-64617950D01*
X140214583Y-64617950D02*
X140328868Y-64656045D01*
X140328868Y-64656045D02*
X140405059Y-64656045D01*
X140405059Y-64656045D02*
X140519345Y-64617950D01*
X140519345Y-64617950D02*
X140595535Y-64541759D01*
X140595535Y-64541759D02*
X140633630Y-64465569D01*
X140633630Y-64465569D02*
X140671726Y-64313188D01*
X140671726Y-64313188D02*
X140671726Y-64198902D01*
X140671726Y-64198902D02*
X140633630Y-64046521D01*
X140633630Y-64046521D02*
X140595535Y-63970330D01*
X140595535Y-63970330D02*
X140519345Y-63894140D01*
X140519345Y-63894140D02*
X140405059Y-63856045D01*
X140405059Y-63856045D02*
X140328868Y-63856045D01*
X140328868Y-63856045D02*
X140214583Y-63894140D01*
X140214583Y-63894140D02*
X140176487Y-63932235D01*
X139605059Y-63856045D02*
X139605059Y-64427473D01*
X139605059Y-64427473D02*
X139643154Y-64541759D01*
X139643154Y-64541759D02*
X139719345Y-64617950D01*
X139719345Y-64617950D02*
X139833630Y-64656045D01*
X139833630Y-64656045D02*
X139909821Y-64656045D01*
X138843154Y-64656045D02*
X139224106Y-64656045D01*
X139224106Y-64656045D02*
X139224106Y-63856045D01*
X138119344Y-64579854D02*
X138157440Y-64617950D01*
X138157440Y-64617950D02*
X138271725Y-64656045D01*
X138271725Y-64656045D02*
X138347916Y-64656045D01*
X138347916Y-64656045D02*
X138462202Y-64617950D01*
X138462202Y-64617950D02*
X138538392Y-64541759D01*
X138538392Y-64541759D02*
X138576487Y-64465569D01*
X138576487Y-64465569D02*
X138614583Y-64313188D01*
X138614583Y-64313188D02*
X138614583Y-64198902D01*
X138614583Y-64198902D02*
X138576487Y-64046521D01*
X138576487Y-64046521D02*
X138538392Y-63970330D01*
X138538392Y-63970330D02*
X138462202Y-63894140D01*
X138462202Y-63894140D02*
X138347916Y-63856045D01*
X138347916Y-63856045D02*
X138271725Y-63856045D01*
X138271725Y-63856045D02*
X138157440Y-63894140D01*
X138157440Y-63894140D02*
X138119344Y-63932235D01*
D11*
G36*
X153866985Y-65432921D02*
G01*
X153320858Y-65432921D01*
X153320858Y-63709446D01*
X153881591Y-63837722D01*
X153881591Y-63369704D01*
X153324034Y-63241428D01*
X152734724Y-63241428D01*
X152734724Y-65432921D01*
X152188597Y-65432921D01*
X152188597Y-65907925D01*
X153866985Y-65907925D01*
X153866985Y-65432921D01*
G37*
G36*
X150713588Y-63198451D02*
G01*
X150866802Y-63215056D01*
X151009225Y-63250110D01*
X151140858Y-63303613D01*
X151261700Y-63375566D01*
X151371751Y-63465968D01*
X151471012Y-63574819D01*
X151524578Y-63648041D01*
X151602146Y-63781165D01*
X151653663Y-63897643D01*
X151695813Y-64022993D01*
X151728597Y-64157212D01*
X151752013Y-64300303D01*
X151766063Y-64452264D01*
X151770747Y-64613095D01*
X151770497Y-64653094D01*
X151764499Y-64807357D01*
X151750503Y-64952452D01*
X151728510Y-65088378D01*
X151698520Y-65215136D01*
X151649786Y-65360691D01*
X151588555Y-65491921D01*
X151514829Y-65608825D01*
X151429494Y-65709993D01*
X151313462Y-65808760D01*
X151182561Y-65882835D01*
X151062119Y-65925703D01*
X150931351Y-65951424D01*
X150790258Y-65959997D01*
X150737826Y-65958990D01*
X150588596Y-65943883D01*
X150451467Y-65910648D01*
X150326437Y-65859285D01*
X150213508Y-65789794D01*
X150112680Y-65702174D01*
X150067512Y-65652218D01*
X149990504Y-65543330D01*
X149931268Y-65422475D01*
X149889802Y-65289654D01*
X149866108Y-65144867D01*
X149862050Y-65059523D01*
X150456232Y-65059523D01*
X150460121Y-65156202D01*
X150481951Y-65285656D01*
X150537516Y-65410695D01*
X150548001Y-65424844D01*
X150655282Y-65505176D01*
X150783273Y-65527541D01*
X150793354Y-65527427D01*
X150925520Y-65498329D01*
X151027125Y-65410695D01*
X151069990Y-65325921D01*
X151100471Y-65194231D01*
X151108409Y-65059523D01*
X151104519Y-64962874D01*
X151082690Y-64833590D01*
X151027125Y-64708985D01*
X151016647Y-64694759D01*
X150909962Y-64613991D01*
X150783273Y-64591504D01*
X150773075Y-64591619D01*
X150639597Y-64620875D01*
X150537516Y-64708985D01*
X150494651Y-64793425D01*
X150464170Y-64924876D01*
X150456232Y-65059523D01*
X149862050Y-65059523D01*
X149859937Y-65015070D01*
X149865457Y-64897462D01*
X149886651Y-64765951D01*
X149931468Y-64625784D01*
X149997920Y-64499898D01*
X150086008Y-64388294D01*
X150160160Y-64319325D01*
X150275744Y-64242406D01*
X150405063Y-64188399D01*
X150548118Y-64157304D01*
X150681668Y-64148888D01*
X150690697Y-64148930D01*
X150821216Y-64159842D01*
X150950286Y-64192705D01*
X151069513Y-64247000D01*
X151179533Y-64323521D01*
X151162498Y-64184699D01*
X151127849Y-64045320D01*
X151077007Y-63926499D01*
X151000454Y-63817401D01*
X150938084Y-63759348D01*
X150828539Y-63694789D01*
X150699806Y-63657254D01*
X150569267Y-63646578D01*
X150561205Y-63646616D01*
X150430686Y-63657510D01*
X150305729Y-63685315D01*
X150263057Y-63698260D01*
X150139285Y-63745560D01*
X150018695Y-63804065D01*
X150018695Y-63311281D01*
X150075788Y-63290853D01*
X150200716Y-63253486D01*
X150327320Y-63225552D01*
X150386237Y-63215840D01*
X150516187Y-63201692D01*
X150649281Y-63196975D01*
X150713588Y-63198451D01*
G37*
D10*
G36*
X167960650Y-68385247D02*
G01*
X167817462Y-68385247D01*
X167817462Y-68240838D01*
X167796717Y-68276386D01*
X167755988Y-68327470D01*
X167704500Y-68368760D01*
X167663907Y-68388831D01*
X167603170Y-68405375D01*
X167540857Y-68410281D01*
X167492897Y-68406883D01*
X167430662Y-68390704D01*
X167374153Y-68361201D01*
X167323372Y-68318375D01*
X167284402Y-68271063D01*
X167256081Y-68225425D01*
X167228432Y-68165033D01*
X167207696Y-68098500D01*
X167195695Y-68038367D01*
X167188495Y-67973970D01*
X167186095Y-67905309D01*
X167333862Y-67905309D01*
X167334113Y-67926807D01*
X167338957Y-67997428D01*
X167349966Y-68060861D01*
X167370097Y-68124555D01*
X167398281Y-68178861D01*
X167406520Y-68190840D01*
X167453335Y-68239140D01*
X167509513Y-68268120D01*
X167575051Y-68277780D01*
X167595914Y-68276910D01*
X167659217Y-68261454D01*
X167712920Y-68226678D01*
X167753043Y-68178861D01*
X167768142Y-68152882D01*
X167792299Y-68093882D01*
X167806831Y-68034556D01*
X167815198Y-67968042D01*
X167817462Y-67905309D01*
X167817211Y-67883812D01*
X167812367Y-67813191D01*
X167801358Y-67749757D01*
X167781227Y-67686063D01*
X167753043Y-67631757D01*
X167744799Y-67619742D01*
X167697817Y-67571293D01*
X167641234Y-67542223D01*
X167575051Y-67532534D01*
X167554407Y-67533406D01*
X167491676Y-67548909D01*
X167438308Y-67583793D01*
X167398281Y-67631757D01*
X167383182Y-67657737D01*
X167359025Y-67716737D01*
X167344493Y-67776063D01*
X167336126Y-67842577D01*
X167333862Y-67905309D01*
X167186095Y-67905309D01*
X167187631Y-67849973D01*
X167193871Y-67784667D01*
X167204911Y-67723654D01*
X167224496Y-67656105D01*
X167250993Y-67594739D01*
X167284402Y-67539556D01*
X167309914Y-67506926D01*
X167359060Y-67460294D01*
X167413932Y-67426984D01*
X167474531Y-67406999D01*
X167540857Y-67400337D01*
X167581246Y-67402339D01*
X167644501Y-67415083D01*
X167704500Y-67442164D01*
X167740961Y-67469021D01*
X167783866Y-67515726D01*
X167817462Y-67569475D01*
X167817462Y-67049238D01*
X167960650Y-67049238D01*
X167960650Y-68385247D01*
G37*
G36*
X166595943Y-68474700D02*
G01*
X166618390Y-68534846D01*
X166644307Y-68594408D01*
X166673568Y-68648490D01*
X166713179Y-68698488D01*
X166766016Y-68732488D01*
X166826237Y-68748487D01*
X166866442Y-68751000D01*
X166979709Y-68751000D01*
X166979709Y-68618804D01*
X166896667Y-68618804D01*
X166836314Y-68607933D01*
X166805686Y-68587968D01*
X166771263Y-68536066D01*
X166745561Y-68475944D01*
X166733330Y-68442033D01*
X166707684Y-68369676D01*
X167057867Y-67423540D01*
X166907658Y-67423540D01*
X166637159Y-68175808D01*
X166366660Y-67423540D01*
X166215535Y-67423540D01*
X166595943Y-68474700D01*
G37*
G36*
X164656044Y-67201890D02*
G01*
X164656044Y-67384767D01*
X164701197Y-67342174D01*
X164753349Y-67302497D01*
X164807588Y-67270869D01*
X164824266Y-67262951D01*
X164886891Y-67240006D01*
X164952185Y-67226586D01*
X165013860Y-67222651D01*
X165084693Y-67227373D01*
X165149043Y-67241541D01*
X165206910Y-67265155D01*
X165258294Y-67298213D01*
X165303195Y-67340717D01*
X165316721Y-67356984D01*
X165352413Y-67411577D01*
X165380720Y-67474607D01*
X165398669Y-67533576D01*
X165411489Y-67598404D01*
X165419181Y-67669091D01*
X165421745Y-67745636D01*
X165420104Y-67807059D01*
X165413438Y-67878632D01*
X165401643Y-67944422D01*
X165384720Y-68004427D01*
X165357644Y-68068798D01*
X165323182Y-68124840D01*
X165316721Y-68133371D01*
X165273981Y-68179023D01*
X165224758Y-68215231D01*
X165169052Y-68241992D01*
X165106863Y-68259309D01*
X165038191Y-68267180D01*
X165013860Y-68267705D01*
X164952185Y-68263769D01*
X164886891Y-68250349D01*
X164824266Y-68227405D01*
X164769401Y-68198031D01*
X164716623Y-68160667D01*
X164665932Y-68115313D01*
X164656044Y-68105283D01*
X164656044Y-68286633D01*
X164708005Y-68322197D01*
X164761994Y-68351797D01*
X164823723Y-68377470D01*
X164829457Y-68379446D01*
X164893718Y-68397002D01*
X164954015Y-68406638D01*
X165016101Y-68410251D01*
X165022408Y-68410281D01*
X165086365Y-68407495D01*
X165161359Y-68396178D01*
X165230853Y-68376154D01*
X165294846Y-68347425D01*
X165353338Y-68309989D01*
X165406330Y-68263848D01*
X165435484Y-68231984D01*
X165478757Y-68173098D01*
X165514696Y-68107877D01*
X165538166Y-68051138D01*
X165556942Y-67990345D01*
X165571025Y-67925496D01*
X165580413Y-67856593D01*
X165585107Y-67783635D01*
X165585693Y-67745636D01*
X165583346Y-67670369D01*
X165576305Y-67599204D01*
X165564570Y-67532142D01*
X165548141Y-67469183D01*
X165527018Y-67410326D01*
X165494013Y-67342525D01*
X165453674Y-67281133D01*
X165435484Y-67258371D01*
X165385793Y-67207006D01*
X165330602Y-67164347D01*
X165269909Y-67130394D01*
X165203716Y-67105147D01*
X165132022Y-67088606D01*
X165070706Y-67081641D01*
X165022408Y-67080074D01*
X164959177Y-67083055D01*
X164898093Y-67092000D01*
X164833379Y-67108726D01*
X164827625Y-67110604D01*
X164765889Y-67135165D01*
X164707039Y-67166869D01*
X164656044Y-67201890D01*
G37*
G36*
X164141059Y-67400600D02*
G01*
X164203161Y-67405650D01*
X164266782Y-67417129D01*
X164299058Y-67425264D01*
X164360162Y-67444559D01*
X164417907Y-67467199D01*
X164417907Y-67613439D01*
X164401564Y-67603832D01*
X164343010Y-67575164D01*
X164282353Y-67554210D01*
X164264674Y-67549559D01*
X164202046Y-67538164D01*
X164138249Y-67534365D01*
X164076629Y-67539099D01*
X164012598Y-67557740D01*
X163956899Y-67594205D01*
X163920223Y-67640979D01*
X163898771Y-67699442D01*
X163892480Y-67762733D01*
X163892480Y-67778303D01*
X164091843Y-67778303D01*
X164138807Y-67779591D01*
X164203619Y-67786353D01*
X164270686Y-67801568D01*
X164328549Y-67824671D01*
X164383408Y-67860735D01*
X164395202Y-67871350D01*
X164434767Y-67920037D01*
X164462158Y-67978684D01*
X164476140Y-68038170D01*
X164480800Y-68105283D01*
X164478052Y-68155515D01*
X164465840Y-68216347D01*
X164440423Y-68276389D01*
X164402642Y-68327544D01*
X164371401Y-68355662D01*
X164317294Y-68386931D01*
X164254494Y-68405110D01*
X164191372Y-68410281D01*
X164134585Y-68406997D01*
X164072328Y-68394062D01*
X164013380Y-68368760D01*
X163974440Y-68341610D01*
X163928530Y-68294140D01*
X163892480Y-68239311D01*
X163892480Y-68385247D01*
X163749903Y-68385247D01*
X163749903Y-67937061D01*
X163892480Y-67937061D01*
X163895898Y-68001711D01*
X163908177Y-68068406D01*
X163929386Y-68127429D01*
X163963921Y-68184662D01*
X163977675Y-68201303D01*
X164029529Y-68244952D01*
X164090625Y-68270414D01*
X164153514Y-68277780D01*
X164174404Y-68277012D01*
X164234585Y-68263907D01*
X164289375Y-68228626D01*
X164303711Y-68212320D01*
X164330926Y-68157623D01*
X164339139Y-68094903D01*
X164335954Y-68051653D01*
X164315675Y-67991310D01*
X164272583Y-67945609D01*
X164220610Y-67922586D01*
X164156092Y-67909156D01*
X164094290Y-67903486D01*
X164033225Y-67901951D01*
X163892480Y-67901951D01*
X163892480Y-67937061D01*
X163749903Y-67937061D01*
X163749903Y-67836616D01*
X163749994Y-67822986D01*
X163753166Y-67758112D01*
X163762955Y-67687466D01*
X163779270Y-67624676D01*
X163806551Y-67561351D01*
X163842715Y-67508720D01*
X163880869Y-67471887D01*
X163933846Y-67438546D01*
X163995940Y-67415579D01*
X164056418Y-67404148D01*
X164123595Y-67400337D01*
X164141059Y-67400600D01*
G37*
G36*
X163462002Y-67049238D02*
G01*
X163320341Y-67049238D01*
X163320341Y-68385247D01*
X163462002Y-68385247D01*
X163462002Y-67049238D01*
G37*
G36*
X163126779Y-67423540D02*
G01*
X162976569Y-67423540D01*
X162706070Y-68230763D01*
X162435571Y-67423540D01*
X162284446Y-67423540D01*
X162608984Y-68385247D01*
X162802241Y-68385247D01*
X163126779Y-67423540D01*
G37*
G36*
X162094242Y-67423540D02*
G01*
X161952581Y-67423540D01*
X161952581Y-68385247D01*
X162094242Y-68385247D01*
X162094242Y-67423540D01*
G37*
G36*
X162094242Y-67049238D02*
G01*
X161952581Y-67049238D01*
X161952581Y-67249212D01*
X162094242Y-67249212D01*
X162094242Y-67049238D01*
G37*
G36*
X160937447Y-67804864D02*
G01*
X160937447Y-68385247D01*
X161080024Y-68385247D01*
X161080024Y-67810055D01*
X161083038Y-67745979D01*
X161093638Y-67684203D01*
X161116956Y-67623524D01*
X161128261Y-67605501D01*
X161175017Y-67561618D01*
X161237392Y-67540107D01*
X161271449Y-67537724D01*
X161332352Y-67544172D01*
X161391016Y-67566461D01*
X161440199Y-67604672D01*
X161453104Y-67619240D01*
X161488202Y-67676001D01*
X161508676Y-67737028D01*
X161518036Y-67799181D01*
X161519661Y-67841806D01*
X161519661Y-68385247D01*
X161662848Y-68385247D01*
X161662848Y-67423540D01*
X161519661Y-67423540D01*
X161519661Y-67572834D01*
X161482653Y-67518418D01*
X161437344Y-67470905D01*
X161399982Y-67443385D01*
X161340095Y-67415513D01*
X161278464Y-67402397D01*
X161239697Y-67400337D01*
X161178096Y-67405246D01*
X161116139Y-67422877D01*
X161063188Y-67453331D01*
X161019243Y-67496608D01*
X161014383Y-67502919D01*
X160980724Y-67560259D01*
X160959160Y-67620355D01*
X160944960Y-67689714D01*
X160938649Y-67756536D01*
X160937447Y-67804864D01*
G37*
G36*
X160329344Y-67080740D02*
G01*
X160396678Y-67090740D01*
X160457572Y-67112740D01*
X160512025Y-67146740D01*
X160560039Y-67192739D01*
X160601613Y-67250738D01*
X160613998Y-67272636D01*
X160641465Y-67332648D01*
X160663938Y-67400189D01*
X160678320Y-67459642D01*
X160689507Y-67523914D01*
X160697497Y-67593003D01*
X160702291Y-67666910D01*
X160703890Y-67745636D01*
X160703790Y-67765713D01*
X160701393Y-67843033D01*
X160695799Y-67915574D01*
X160687010Y-67983334D01*
X160675024Y-68046315D01*
X160655548Y-68118319D01*
X160631077Y-68182855D01*
X160601613Y-68239922D01*
X160588470Y-68260551D01*
X160544750Y-68314454D01*
X160494590Y-68356379D01*
X160437989Y-68386325D01*
X160374949Y-68404292D01*
X160305468Y-68410281D01*
X160281557Y-68409616D01*
X160214144Y-68399634D01*
X160153215Y-68377674D01*
X160098768Y-68343735D01*
X160050805Y-68297818D01*
X160009324Y-68239922D01*
X159996939Y-68217991D01*
X159969472Y-68157937D01*
X159946999Y-68090414D01*
X159932616Y-68031018D01*
X159921430Y-67966842D01*
X159913440Y-67897887D01*
X159908645Y-67824151D01*
X159907047Y-67745636D01*
X160063363Y-67745636D01*
X160064307Y-67809449D01*
X160068144Y-67883433D01*
X160074933Y-67950992D01*
X160084674Y-68012125D01*
X160100258Y-68077005D01*
X160123813Y-68141004D01*
X160144187Y-68179000D01*
X160188336Y-68231164D01*
X160242096Y-68262462D01*
X160305468Y-68272895D01*
X160348495Y-68268258D01*
X160405226Y-68243915D01*
X160452587Y-68198706D01*
X160486819Y-68141004D01*
X160510492Y-68077005D01*
X160526155Y-68012125D01*
X160535945Y-67950992D01*
X160542768Y-67883433D01*
X160546625Y-67809449D01*
X160547574Y-67745636D01*
X160546625Y-67681541D01*
X160542768Y-67607272D01*
X160535945Y-67539503D01*
X160526155Y-67478234D01*
X160510492Y-67413290D01*
X160486819Y-67349352D01*
X160466291Y-67311356D01*
X160422054Y-67259192D01*
X160368446Y-67227893D01*
X160305468Y-67217460D01*
X160262152Y-67222097D01*
X160205188Y-67246440D01*
X160157835Y-67291649D01*
X160123813Y-67349352D01*
X160100258Y-67413290D01*
X160084674Y-67478234D01*
X160074933Y-67539503D01*
X160068144Y-67607272D01*
X160064307Y-67681541D01*
X160063363Y-67745636D01*
X159907047Y-67745636D01*
X159907147Y-67725503D01*
X159909544Y-67647982D01*
X159915137Y-67575279D01*
X159923927Y-67507394D01*
X159935912Y-67444327D01*
X159955389Y-67372270D01*
X159979859Y-67307740D01*
X160009324Y-67250738D01*
X160022431Y-67230072D01*
X160066072Y-67176073D01*
X160116197Y-67134073D01*
X160172804Y-67104074D01*
X160235895Y-67086074D01*
X160305468Y-67080074D01*
X160329344Y-67080740D01*
G37*
G36*
X159636243Y-67103277D02*
G01*
X159023193Y-67103277D01*
X159023193Y-67249212D01*
X159493666Y-67249212D01*
X159493666Y-67563369D01*
X159434060Y-67545838D01*
X159425584Y-67544135D01*
X159363659Y-67537780D01*
X159357196Y-67537724D01*
X159287558Y-67541867D01*
X159223587Y-67554296D01*
X159165284Y-67575011D01*
X159104426Y-67609652D01*
X159051281Y-67655571D01*
X159007266Y-67710984D01*
X158978143Y-67764829D01*
X158956962Y-67824535D01*
X158943724Y-67890102D01*
X158938429Y-67961528D01*
X158938319Y-67974003D01*
X158941151Y-68036438D01*
X158952028Y-68105417D01*
X158971062Y-68167914D01*
X158998253Y-68223928D01*
X159040286Y-68281083D01*
X159054334Y-68295793D01*
X159109530Y-68340403D01*
X159164120Y-68369920D01*
X159225429Y-68391386D01*
X159293457Y-68404803D01*
X159355279Y-68409834D01*
X159381315Y-68410281D01*
X159445570Y-68407652D01*
X159510644Y-68399763D01*
X159529387Y-68396543D01*
X159591367Y-68383113D01*
X159650278Y-68366691D01*
X159685397Y-68355327D01*
X159685397Y-68180998D01*
X159628084Y-68211506D01*
X159569259Y-68235060D01*
X159541599Y-68243586D01*
X159479762Y-68256830D01*
X159415306Y-68263322D01*
X159384673Y-68264041D01*
X159321170Y-68259175D01*
X159258122Y-68242069D01*
X159203962Y-68212646D01*
X159172792Y-68186189D01*
X159135011Y-68137805D01*
X159109594Y-68080583D01*
X159096543Y-68014522D01*
X159094634Y-67974003D01*
X159099519Y-67910480D01*
X159116693Y-67847366D01*
X159146231Y-67793090D01*
X159172792Y-67761817D01*
X159221028Y-67724035D01*
X159278151Y-67698619D01*
X159344161Y-67685567D01*
X159384673Y-67683659D01*
X159447413Y-67687552D01*
X159509847Y-67699229D01*
X159568487Y-67717364D01*
X159628200Y-67743147D01*
X159636243Y-67747162D01*
X159636243Y-67103277D01*
G37*
G36*
X158243901Y-67080780D02*
G01*
X158308391Y-67088722D01*
X158368527Y-67105490D01*
X158424311Y-67131083D01*
X158475741Y-67165502D01*
X158522819Y-67208745D01*
X158565543Y-67260813D01*
X158581219Y-67283888D01*
X158615983Y-67345789D01*
X158644426Y-67413713D01*
X158662630Y-67472389D01*
X158676788Y-67534919D01*
X158686902Y-67601303D01*
X158692969Y-67671542D01*
X158694992Y-67745636D01*
X158694889Y-67765713D01*
X158692413Y-67843033D01*
X158686636Y-67915574D01*
X158677558Y-67983334D01*
X158665179Y-68046315D01*
X158645063Y-68118319D01*
X158619789Y-68182855D01*
X158589357Y-68239922D01*
X158575784Y-68260551D01*
X158530643Y-68314454D01*
X158478869Y-68356379D01*
X158420462Y-68386325D01*
X158355422Y-68404292D01*
X158283748Y-68410281D01*
X158241034Y-68408416D01*
X158171565Y-68396176D01*
X158108816Y-68372511D01*
X158052788Y-68337421D01*
X158003480Y-68290908D01*
X157962438Y-68234942D01*
X157931477Y-68171496D01*
X157912962Y-68111160D01*
X157901853Y-68045329D01*
X157898150Y-67974003D01*
X158055381Y-67974003D01*
X158056879Y-68015806D01*
X158065509Y-68076800D01*
X158084386Y-68136751D01*
X158116747Y-68192600D01*
X158164167Y-68238315D01*
X158222049Y-68265053D01*
X158283748Y-68272895D01*
X158344964Y-68265053D01*
X158402521Y-68238315D01*
X158449833Y-68192600D01*
X158467512Y-68166092D01*
X158493880Y-68104578D01*
X158507364Y-68039528D01*
X158511199Y-67974003D01*
X158509701Y-67931950D01*
X158501072Y-67870713D01*
X158482194Y-67810716D01*
X158449833Y-67755100D01*
X158402521Y-67709559D01*
X158344964Y-67682922D01*
X158283748Y-67675110D01*
X158222049Y-67682922D01*
X158164167Y-67709559D01*
X158116747Y-67755100D01*
X158099068Y-67781455D01*
X158072700Y-67842885D01*
X158059217Y-67908114D01*
X158055381Y-67974003D01*
X157898150Y-67974003D01*
X157901703Y-67901299D01*
X157912361Y-67834541D01*
X157930124Y-67773729D01*
X157959829Y-67710298D01*
X157999205Y-67654960D01*
X158032486Y-67621186D01*
X158085115Y-67583519D01*
X158144785Y-67557072D01*
X158211497Y-67541845D01*
X158274284Y-67537724D01*
X158304713Y-67539130D01*
X158367328Y-67551824D01*
X158425409Y-67577719D01*
X158454352Y-67596867D01*
X158502212Y-67641188D01*
X158539593Y-67692207D01*
X158536912Y-67649288D01*
X158529689Y-67582394D01*
X158519023Y-67521299D01*
X158501678Y-67455639D01*
X158479374Y-67398330D01*
X158447086Y-67342024D01*
X158441901Y-67334887D01*
X158395313Y-67285943D01*
X158339643Y-67251501D01*
X158274890Y-67231560D01*
X158210781Y-67226009D01*
X158155710Y-67229631D01*
X158092323Y-67242495D01*
X158032636Y-67262340D01*
X157973865Y-67289512D01*
X157973865Y-67131670D01*
X157977887Y-67130061D01*
X158037216Y-67109001D01*
X158098429Y-67092897D01*
X158154260Y-67083693D01*
X158216887Y-67080074D01*
X158243901Y-67080780D01*
G37*
G36*
X157162063Y-67694039D02*
G01*
X157103196Y-67713544D01*
X157046739Y-67745923D01*
X156999703Y-67789572D01*
X156987429Y-67804864D01*
X156954102Y-67861214D01*
X156933119Y-67925316D01*
X156924787Y-67989636D01*
X156924231Y-68012471D01*
X156928353Y-68080667D01*
X156940718Y-68142831D01*
X156965562Y-68207731D01*
X157001626Y-68264421D01*
X157041468Y-68306478D01*
X157097507Y-68346925D01*
X157153099Y-68373687D01*
X157215667Y-68393150D01*
X157285211Y-68405314D01*
X157348495Y-68409876D01*
X157375165Y-68410281D01*
X157439771Y-68407184D01*
X157501123Y-68398762D01*
X157525069Y-68394100D01*
X157588289Y-68378581D01*
X157648346Y-68359605D01*
X157684132Y-68346473D01*
X157684132Y-68179167D01*
X157629082Y-68209972D01*
X157570102Y-68233926D01*
X157541555Y-68242670D01*
X157477688Y-68256507D01*
X157416765Y-68263018D01*
X157380355Y-68264041D01*
X157311299Y-68260034D01*
X157250983Y-68248013D01*
X157193573Y-68224909D01*
X157156567Y-68199927D01*
X157115996Y-68153941D01*
X157090450Y-68096506D01*
X157080307Y-68035025D01*
X157079631Y-68012471D01*
X157086608Y-67946509D01*
X157110398Y-67885107D01*
X157151072Y-67835395D01*
X157206688Y-67798893D01*
X157268894Y-67778857D01*
X157334361Y-67771531D01*
X157350130Y-67771281D01*
X157484158Y-67771281D01*
X157484158Y-67628704D01*
X157344024Y-67628704D01*
X157277495Y-67623725D01*
X157216366Y-67606747D01*
X157167864Y-67577719D01*
X157127934Y-67528638D01*
X157109143Y-67470184D01*
X157106192Y-67430257D01*
X157113660Y-67367872D01*
X157138840Y-67312159D01*
X157169390Y-67278826D01*
X157224431Y-67246641D01*
X157288311Y-67230187D01*
X157350130Y-67226009D01*
X157412401Y-67229430D01*
X157473910Y-67238797D01*
X157487517Y-67241579D01*
X157549372Y-67256854D01*
X157611032Y-67276053D01*
X157649022Y-67289512D01*
X157649022Y-67135028D01*
X157589451Y-67117761D01*
X157527427Y-67102627D01*
X157482937Y-67093812D01*
X157421194Y-67084917D01*
X157358082Y-67080409D01*
X157336391Y-67080074D01*
X157272356Y-67083229D01*
X157204215Y-67094888D01*
X157143144Y-67115136D01*
X157089144Y-67143975D01*
X157054901Y-67169833D01*
X157009354Y-67218643D01*
X156976820Y-67275315D01*
X156957300Y-67339849D01*
X156950895Y-67402765D01*
X156950793Y-67412244D01*
X156956160Y-67475618D01*
X156974460Y-67537892D01*
X157005748Y-67592373D01*
X157049012Y-67637445D01*
X157103244Y-67671911D01*
X157162063Y-67694039D01*
G37*
D12*
%TO.C,C7*%
X144102500Y-105774664D02*
X144102500Y-105990336D01*
X144822500Y-105774664D02*
X144822500Y-105990336D01*
D13*
%TO.C,G\u002A\u002A\u002A*%
G36*
X106057212Y-70335531D02*
G01*
X106049396Y-70343346D01*
X106041581Y-70335531D01*
X106049396Y-70327715D01*
X106057212Y-70335531D01*
G37*
G36*
X107917273Y-69929131D02*
G01*
X107909458Y-69936946D01*
X107901642Y-69929131D01*
X107909458Y-69921315D01*
X107917273Y-69929131D01*
G37*
G36*
X107917273Y-75290485D02*
G01*
X107909458Y-75298300D01*
X107901642Y-75290485D01*
X107909458Y-75282669D01*
X107917273Y-75290485D01*
G37*
G36*
X108995796Y-70335531D02*
G01*
X108987981Y-70343346D01*
X108980165Y-70335531D01*
X108987981Y-70327715D01*
X108995796Y-70335531D01*
G37*
G36*
X109167735Y-69663408D02*
G01*
X109159919Y-69671223D01*
X109152104Y-69663408D01*
X109159919Y-69655592D01*
X109167735Y-69663408D01*
G37*
G36*
X109245889Y-74477685D02*
G01*
X109238073Y-74485500D01*
X109230258Y-74477685D01*
X109238073Y-74469869D01*
X109245889Y-74477685D01*
G37*
G36*
X111668658Y-71429685D02*
G01*
X111660842Y-71437500D01*
X111653027Y-71429685D01*
X111660842Y-71421869D01*
X111668658Y-71429685D01*
G37*
G36*
X111950012Y-75962608D02*
G01*
X111942196Y-75970423D01*
X111934381Y-75962608D01*
X111942196Y-75954792D01*
X111950012Y-75962608D01*
G37*
G36*
X112543981Y-76025131D02*
G01*
X112536165Y-76032946D01*
X112528350Y-76025131D01*
X112536165Y-76017315D01*
X112543981Y-76025131D01*
G37*
G36*
X113716289Y-66881131D02*
G01*
X113708473Y-66888946D01*
X113700658Y-66881131D01*
X113708473Y-66873315D01*
X113716289Y-66881131D01*
G37*
G36*
X113763181Y-70820085D02*
G01*
X113755365Y-70827900D01*
X113747550Y-70820085D01*
X113755365Y-70812269D01*
X113763181Y-70820085D01*
G37*
G36*
X114122689Y-67803346D02*
G01*
X114114873Y-67811161D01*
X114107058Y-67803346D01*
X114114873Y-67795531D01*
X114122689Y-67803346D01*
G37*
G36*
X114169581Y-68006546D02*
G01*
X114161765Y-68014361D01*
X114153950Y-68006546D01*
X114161765Y-67998731D01*
X114169581Y-68006546D01*
G37*
G36*
X114169581Y-75978238D02*
G01*
X114161765Y-75986054D01*
X114153950Y-75978238D01*
X114161765Y-75970423D01*
X114169581Y-75978238D01*
G37*
G36*
X114607242Y-68209746D02*
G01*
X114599427Y-68217561D01*
X114591612Y-68209746D01*
X114599427Y-68201931D01*
X114607242Y-68209746D01*
G37*
G36*
X116185950Y-67975285D02*
G01*
X116178135Y-67983100D01*
X116170319Y-67975285D01*
X116178135Y-67967469D01*
X116185950Y-67975285D01*
G37*
G36*
X116904965Y-67834608D02*
G01*
X116897150Y-67842423D01*
X116889335Y-67834608D01*
X116897150Y-67826792D01*
X116904965Y-67834608D01*
G37*
G36*
X117248842Y-67068700D02*
G01*
X117241027Y-67076515D01*
X117233212Y-67068700D01*
X117241027Y-67060885D01*
X117248842Y-67068700D01*
G37*
G36*
X117733396Y-66693561D02*
G01*
X117725581Y-66701377D01*
X117717765Y-66693561D01*
X117725581Y-66685746D01*
X117733396Y-66693561D01*
G37*
G36*
X107958955Y-69926526D02*
G01*
X107961401Y-69931227D01*
X107948535Y-69936946D01*
X107940260Y-69935818D01*
X107938114Y-69926526D01*
X107940405Y-69924655D01*
X107958955Y-69926526D01*
G37*
G36*
X108123404Y-69926268D02*
G01*
X108130639Y-69931895D01*
X108113960Y-69935712D01*
X108098107Y-69934607D01*
X108093445Y-69927502D01*
X108098975Y-69924405D01*
X108123404Y-69926268D01*
G37*
G36*
X108974955Y-77335510D02*
G01*
X108977401Y-77340212D01*
X108964535Y-77345931D01*
X108956260Y-77344803D01*
X108954114Y-77335510D01*
X108956405Y-77333639D01*
X108974955Y-77335510D01*
G37*
G36*
X111702850Y-76366145D02*
G01*
X111710085Y-76371772D01*
X111693407Y-76375589D01*
X111677553Y-76374484D01*
X111672891Y-76367379D01*
X111678421Y-76364282D01*
X111702850Y-76366145D01*
G37*
G36*
X111710340Y-71427079D02*
G01*
X111712785Y-71431781D01*
X111699919Y-71437500D01*
X111691644Y-71436372D01*
X111689499Y-71427079D01*
X111691790Y-71425209D01*
X111710340Y-71427079D01*
G37*
G36*
X111819755Y-75991264D02*
G01*
X111822201Y-75995965D01*
X111809335Y-76001685D01*
X111801060Y-76000556D01*
X111798914Y-75991264D01*
X111801205Y-75989393D01*
X111819755Y-75991264D01*
G37*
G36*
X113625435Y-66878268D02*
G01*
X113632670Y-66883895D01*
X113615991Y-66887712D01*
X113600137Y-66886607D01*
X113595476Y-66879502D01*
X113601006Y-66876405D01*
X113625435Y-66878268D01*
G37*
G36*
X113726709Y-66909787D02*
G01*
X113729154Y-66914489D01*
X113716289Y-66920208D01*
X113708014Y-66919080D01*
X113705868Y-66909787D01*
X113708159Y-66907916D01*
X113726709Y-66909787D01*
G37*
G36*
X113747550Y-70718485D02*
G01*
X113746422Y-70726759D01*
X113737130Y-70728905D01*
X113735259Y-70726614D01*
X113737130Y-70708064D01*
X113741831Y-70705619D01*
X113747550Y-70718485D01*
G37*
G36*
X113903858Y-67795531D02*
G01*
X113902730Y-67803806D01*
X113893437Y-67805951D01*
X113891567Y-67803660D01*
X113893437Y-67785110D01*
X113898139Y-67782665D01*
X113903858Y-67795531D01*
G37*
G36*
X114008063Y-75960002D02*
G01*
X114010508Y-75964704D01*
X113997642Y-75970423D01*
X113989368Y-75969295D01*
X113987222Y-75960002D01*
X113989513Y-75958132D01*
X114008063Y-75960002D01*
G37*
G36*
X116154689Y-68014361D02*
G01*
X116153561Y-68022636D01*
X116144268Y-68024782D01*
X116142397Y-68022491D01*
X116144268Y-68003941D01*
X116148970Y-68001496D01*
X116154689Y-68014361D01*
G37*
G36*
X117061273Y-67795531D02*
G01*
X117060145Y-67803806D01*
X117050853Y-67805951D01*
X117048982Y-67803660D01*
X117050853Y-67785110D01*
X117055554Y-67782665D01*
X117061273Y-67795531D01*
G37*
G36*
X117853232Y-76522710D02*
G01*
X117855678Y-76527412D01*
X117842812Y-76533131D01*
X117834537Y-76532003D01*
X117832391Y-76522710D01*
X117834682Y-76520839D01*
X117853232Y-76522710D01*
G37*
G36*
X109059518Y-69674373D02*
G01*
X109065036Y-69688631D01*
X109046681Y-69701366D01*
X109022953Y-69698615D01*
X109011427Y-69680502D01*
X109016531Y-69667982D01*
X109042513Y-69666648D01*
X109059518Y-69674373D01*
G37*
G36*
X111414951Y-75989136D02*
G01*
X111402935Y-76001685D01*
X111388775Y-76010448D01*
X111373987Y-76015743D01*
X111379489Y-76001685D01*
X111382834Y-75997428D01*
X111407765Y-75986293D01*
X111414951Y-75989136D01*
G37*
G36*
X113749802Y-70849291D02*
G01*
X113754781Y-70860107D01*
X113753962Y-70861371D01*
X113731766Y-70874303D01*
X113710479Y-70862406D01*
X113711883Y-70854649D01*
X113733340Y-70847721D01*
X113749802Y-70849291D01*
G37*
G36*
X117518423Y-66527043D02*
G01*
X117523669Y-66534606D01*
X117523223Y-66559338D01*
X117508740Y-66574660D01*
X117494786Y-66570941D01*
X117494676Y-66544036D01*
X117503203Y-66525349D01*
X117518423Y-66527043D01*
G37*
G36*
X117604736Y-66485629D02*
G01*
X117592719Y-66498177D01*
X117578560Y-66506940D01*
X117563772Y-66512235D01*
X117569273Y-66498177D01*
X117572619Y-66493920D01*
X117597550Y-66482785D01*
X117604736Y-66485629D01*
G37*
G36*
X108329464Y-69913138D02*
G01*
X108322604Y-69924323D01*
X108298555Y-69936946D01*
X108282499Y-69935010D01*
X108280629Y-69924455D01*
X108307691Y-69905873D01*
X108314796Y-69902189D01*
X108331694Y-69897622D01*
X108329464Y-69913138D01*
G37*
G36*
X109530150Y-74299844D02*
G01*
X109542873Y-74313561D01*
X109542452Y-74317270D01*
X109528165Y-74329192D01*
X109523780Y-74328596D01*
X109503796Y-74313561D01*
X109502326Y-74305508D01*
X109518505Y-74297931D01*
X109530150Y-74299844D01*
G37*
G36*
X113724742Y-70611330D02*
G01*
X113731919Y-70641253D01*
X113729114Y-70658542D01*
X113716289Y-70671592D01*
X113705896Y-70661406D01*
X113700658Y-70631593D01*
X113704698Y-70606788D01*
X113716289Y-70601254D01*
X113724742Y-70611330D01*
G37*
G36*
X113741320Y-70750465D02*
G01*
X113755365Y-70765377D01*
X113757808Y-70771432D01*
X113748473Y-70781008D01*
X113743936Y-70780407D01*
X113731919Y-70765377D01*
X113732099Y-70761839D01*
X113738812Y-70749746D01*
X113741320Y-70750465D01*
G37*
G36*
X114141782Y-66998958D02*
G01*
X114161765Y-67013992D01*
X114163236Y-67022045D01*
X114147057Y-67029623D01*
X114135411Y-67027710D01*
X114122689Y-67013992D01*
X114123110Y-67010284D01*
X114137397Y-66998361D01*
X114141782Y-66998958D01*
G37*
G36*
X115942434Y-68218789D02*
G01*
X115943673Y-68233192D01*
X115940465Y-68237870D01*
X115927120Y-68248823D01*
X115925560Y-68248417D01*
X115920227Y-68233192D01*
X115920863Y-68228908D01*
X115936780Y-68217561D01*
X115942434Y-68218789D01*
G37*
G36*
X116223788Y-67937435D02*
G01*
X116225027Y-67951838D01*
X116221819Y-67956516D01*
X116208474Y-67967469D01*
X116206914Y-67967063D01*
X116201581Y-67951838D01*
X116202217Y-67947554D01*
X116218134Y-67936208D01*
X116223788Y-67937435D01*
G37*
G36*
X116787735Y-67764269D02*
G01*
X116800405Y-67777280D01*
X116811181Y-67799358D01*
X116806598Y-67804911D01*
X116787735Y-67795531D01*
X116775065Y-67782520D01*
X116764289Y-67760441D01*
X116768871Y-67754888D01*
X116787735Y-67764269D01*
G37*
G36*
X117280401Y-66521265D02*
G01*
X117272075Y-66530854D01*
X117254292Y-66544216D01*
X117248842Y-66531111D01*
X117252480Y-66522572D01*
X117274499Y-66507307D01*
X117279456Y-66505465D01*
X117291805Y-66504319D01*
X117280401Y-66521265D01*
G37*
G36*
X117372898Y-66757387D02*
G01*
X117371601Y-66777759D01*
X117363468Y-66800372D01*
X117351476Y-66807690D01*
X117347448Y-66795074D01*
X117356931Y-66762262D01*
X117364900Y-66743210D01*
X117371040Y-66736614D01*
X117372898Y-66757387D01*
G37*
G36*
X117455779Y-66608046D02*
G01*
X117467673Y-66623223D01*
X117467219Y-66626959D01*
X117452042Y-66638854D01*
X117448306Y-66638400D01*
X117436412Y-66623223D01*
X117436866Y-66619487D01*
X117452042Y-66607592D01*
X117455779Y-66608046D01*
G37*
G36*
X114069067Y-68067323D02*
G01*
X114071743Y-68068382D01*
X114086354Y-68080612D01*
X114074823Y-68101503D01*
X114069238Y-68108029D01*
X114054064Y-68117391D01*
X114040368Y-68100146D01*
X114032811Y-68081303D01*
X114039751Y-68063784D01*
X114069067Y-68067323D01*
G37*
G36*
X111668658Y-75983985D02*
G01*
X111672824Y-75993222D01*
X111696012Y-76006541D01*
X111711288Y-76012107D01*
X111699919Y-76015263D01*
X111690413Y-76015261D01*
X111661952Y-76007640D01*
X111645920Y-75993409D01*
X111651358Y-75979270D01*
X111658808Y-75976177D01*
X111668658Y-75983985D01*
G37*
G36*
X117355637Y-67480964D02*
G01*
X117362207Y-67487427D01*
X117356424Y-67503032D01*
X117324375Y-67526322D01*
X117280841Y-67550799D01*
X117251562Y-67559653D01*
X117243842Y-67547506D01*
X117256658Y-67514177D01*
X117276905Y-67485571D01*
X117313326Y-67468092D01*
X117355637Y-67480964D01*
G37*
G36*
X115225982Y-70627916D02*
G01*
X115232473Y-70665753D01*
X115231979Y-70679813D01*
X115223370Y-70697522D01*
X115197304Y-70694150D01*
X115192505Y-70692663D01*
X115161746Y-70680364D01*
X115157774Y-70665963D01*
X115177345Y-70640795D01*
X115179339Y-70638630D01*
X115207683Y-70618610D01*
X115225982Y-70627916D01*
G37*
G36*
X117333851Y-67093790D02*
G01*
X117334566Y-67095231D01*
X117330648Y-67116187D01*
X117316268Y-67151103D01*
X117292141Y-67186419D01*
X117259596Y-67201561D01*
X117250728Y-67201357D01*
X117239277Y-67196947D01*
X117246248Y-67182126D01*
X117273272Y-67150840D01*
X117285604Y-67137132D01*
X117311115Y-67108142D01*
X117323089Y-67093527D01*
X117333851Y-67093790D01*
G37*
G36*
X117236503Y-67346598D02*
G01*
X117248842Y-67363079D01*
X117248242Y-67370634D01*
X117238422Y-67394341D01*
X117235167Y-67396384D01*
X117207772Y-67402359D01*
X117165661Y-67404761D01*
X117145881Y-67404685D01*
X117118401Y-67402384D01*
X117115271Y-67393482D01*
X117131612Y-67373500D01*
X117137821Y-67367516D01*
X117170192Y-67349776D01*
X117206686Y-67342484D01*
X117236503Y-67346598D01*
G37*
G36*
X117430569Y-66381288D02*
G01*
X117401242Y-66412566D01*
X117378795Y-66436373D01*
X117352767Y-66467547D01*
X117342627Y-66485151D01*
X117342102Y-66488444D01*
X117326528Y-66498177D01*
X117322725Y-66488713D01*
X117335746Y-66464772D01*
X117360065Y-66433590D01*
X117390032Y-66402404D01*
X117419997Y-66378451D01*
X117421357Y-66377588D01*
X117437105Y-66369935D01*
X117430569Y-66381288D01*
G37*
G36*
X114369606Y-67975897D02*
G01*
X114396205Y-67995469D01*
X114436303Y-68029926D01*
X114484818Y-68075068D01*
X114519599Y-68109291D01*
X114557208Y-68148669D01*
X114579937Y-68175652D01*
X114583796Y-68185778D01*
X114574405Y-68181978D01*
X114547184Y-68160978D01*
X114512822Y-68127659D01*
X114497003Y-68111293D01*
X114449117Y-68064676D01*
X114405352Y-68025442D01*
X114391113Y-68012901D01*
X114367248Y-67987377D01*
X114361717Y-67973323D01*
X114369606Y-67975897D01*
G37*
G36*
X117137003Y-67651412D02*
G01*
X117126437Y-67674338D01*
X117096835Y-67701104D01*
X117054528Y-67725213D01*
X117052896Y-67725929D01*
X117013367Y-67739592D01*
X116984415Y-67743639D01*
X116977622Y-67742013D01*
X116959679Y-67727937D01*
X116955012Y-67710367D01*
X116968382Y-67701746D01*
X116977861Y-67700016D01*
X117011700Y-67687813D01*
X117055543Y-67667769D01*
X117079062Y-67656917D01*
X117115116Y-67644404D01*
X117133729Y-67643945D01*
X117137003Y-67651412D01*
G37*
G36*
X114058577Y-67766773D02*
G01*
X114081990Y-67789126D01*
X114085539Y-67814909D01*
X114074949Y-67844998D01*
X114052350Y-67858054D01*
X114041999Y-67860743D01*
X114023251Y-67881500D01*
X114007425Y-67902616D01*
X113988214Y-67897978D01*
X113973061Y-67866910D01*
X113962324Y-67843139D01*
X113941501Y-67837320D01*
X113925257Y-67835064D01*
X113919489Y-67806713D01*
X113927492Y-67775280D01*
X113958565Y-67757850D01*
X113967512Y-67755920D01*
X114016507Y-67754714D01*
X114058577Y-67766773D01*
G37*
G36*
X115482565Y-70556707D02*
G01*
X115480301Y-70577887D01*
X115464580Y-70630969D01*
X115439457Y-70685143D01*
X115411552Y-70724742D01*
X115390410Y-70739336D01*
X115343298Y-70749029D01*
X115298440Y-70736574D01*
X115292233Y-70731346D01*
X115290962Y-70713329D01*
X115311297Y-70682106D01*
X115313561Y-70679289D01*
X115341930Y-70651681D01*
X115365331Y-70640331D01*
X115374540Y-70637308D01*
X115402171Y-70616368D01*
X115434535Y-70582062D01*
X115444824Y-70569715D01*
X115468728Y-70543985D01*
X115479840Y-70540424D01*
X115482565Y-70556707D01*
G37*
G36*
X107827396Y-70040237D02*
G01*
X107844173Y-70041664D01*
X107912882Y-70047473D01*
X107994083Y-70054298D01*
X108073581Y-70060946D01*
X108119236Y-70064801D01*
X108157172Y-70068387D01*
X108172752Y-70070897D01*
X108164194Y-70072596D01*
X108129718Y-70073748D01*
X108067543Y-70074619D01*
X107975889Y-70075473D01*
X107910057Y-70075878D01*
X107833905Y-70075463D01*
X107782003Y-70073498D01*
X107750142Y-70069630D01*
X107734112Y-70063503D01*
X107729704Y-70054765D01*
X107730657Y-70048551D01*
X107742420Y-70039379D01*
X107772586Y-70036917D01*
X107827396Y-70040237D01*
G37*
G36*
X108962295Y-70079711D02*
G01*
X108969439Y-70114240D01*
X108972177Y-70159260D01*
X108969825Y-70205505D01*
X108961698Y-70243705D01*
X108942354Y-70297201D01*
X108921658Y-70257702D01*
X108910402Y-70227217D01*
X108916439Y-70189288D01*
X108921594Y-70179166D01*
X108922755Y-70169313D01*
X108907214Y-70173276D01*
X108869421Y-70191291D01*
X108851217Y-70199775D01*
X108816266Y-70212617D01*
X108798574Y-70213857D01*
X108804933Y-70201129D01*
X108827909Y-70174412D01*
X108860667Y-70140623D01*
X108896295Y-70106608D01*
X108927883Y-70079217D01*
X108948517Y-70065295D01*
X108951431Y-70064939D01*
X108962295Y-70079711D01*
G37*
G36*
X107733612Y-70164335D02*
G01*
X107741913Y-70166297D01*
X107780862Y-70171004D01*
X107841758Y-70175486D01*
X107918064Y-70179313D01*
X108003242Y-70182055D01*
X108089070Y-70184395D01*
X108178527Y-70188059D01*
X108241721Y-70192623D01*
X108281507Y-70198400D01*
X108300744Y-70205705D01*
X108302288Y-70214850D01*
X108291936Y-70217698D01*
X108254666Y-70221050D01*
X108195402Y-70223717D01*
X108119425Y-70225479D01*
X108032018Y-70226115D01*
X108031556Y-70226115D01*
X107916569Y-70224975D01*
X107829594Y-70221209D01*
X107767462Y-70214274D01*
X107727005Y-70203628D01*
X107705055Y-70188729D01*
X107698442Y-70169035D01*
X107705112Y-70160286D01*
X107733612Y-70164335D01*
G37*
G36*
X117649031Y-66821288D02*
G01*
X117636765Y-66843399D01*
X117607767Y-66886434D01*
X117560954Y-66952383D01*
X117553753Y-66962508D01*
X117517996Y-67015807D01*
X117489977Y-67062359D01*
X117475243Y-67093060D01*
X117473028Y-67099271D01*
X117452680Y-67139520D01*
X117424168Y-67182448D01*
X117414370Y-67194825D01*
X117390915Y-67220024D01*
X117378269Y-67226782D01*
X117377652Y-67220406D01*
X117388504Y-67191785D01*
X117412178Y-67146303D01*
X117445141Y-67089572D01*
X117483859Y-67027207D01*
X117524801Y-66964823D01*
X117564433Y-66908031D01*
X117599223Y-66862447D01*
X117625638Y-66833685D01*
X117627702Y-66831883D01*
X117645649Y-66818112D01*
X117649031Y-66821288D01*
G37*
G36*
X107954607Y-69439884D02*
G01*
X107980268Y-69461013D01*
X108021187Y-69498790D01*
X108073226Y-69549340D01*
X108132246Y-69608787D01*
X108183809Y-69661168D01*
X108236723Y-69712975D01*
X108275734Y-69747558D01*
X108305010Y-69768194D01*
X108328718Y-69778158D01*
X108351027Y-69780725D01*
X108354878Y-69780764D01*
X108388162Y-69785654D01*
X108401827Y-69796269D01*
X108396151Y-69804793D01*
X108368410Y-69811242D01*
X108325729Y-69809735D01*
X108277284Y-69800869D01*
X108232251Y-69785239D01*
X108231118Y-69784701D01*
X108194906Y-69761687D01*
X108148438Y-69724595D01*
X108097483Y-69679037D01*
X108047809Y-69630628D01*
X108005186Y-69584978D01*
X107975382Y-69547700D01*
X107964165Y-69524408D01*
X107962788Y-69514030D01*
X107948535Y-69491469D01*
X107935014Y-69471762D01*
X107935011Y-69448178D01*
X107948584Y-69436761D01*
X107954607Y-69439884D01*
G37*
G36*
X117683583Y-66601965D02*
G01*
X117695436Y-66623513D01*
X117694685Y-66632761D01*
X117681728Y-66648448D01*
X117646534Y-66651442D01*
X117616000Y-66652101D01*
X117575236Y-66664661D01*
X117561458Y-66691843D01*
X117550917Y-66711032D01*
X117522381Y-66732638D01*
X117495736Y-66752067D01*
X117483304Y-66772684D01*
X117481667Y-66780803D01*
X117462908Y-66799644D01*
X117457047Y-66803745D01*
X117438594Y-66830826D01*
X117421070Y-66872438D01*
X117404776Y-66915324D01*
X117388813Y-66941852D01*
X117377919Y-66941382D01*
X117373889Y-66912392D01*
X117369890Y-66886134D01*
X117356786Y-66882040D01*
X117347557Y-66897275D01*
X117346803Y-66929855D01*
X117348730Y-66958557D01*
X117336155Y-66964970D01*
X117305502Y-66947014D01*
X117290278Y-66934367D01*
X117288819Y-66919977D01*
X117310330Y-66897699D01*
X117331908Y-66872757D01*
X117342627Y-66847447D01*
X117346673Y-66832714D01*
X117362637Y-66827838D01*
X117377690Y-66845642D01*
X117379046Y-66848161D01*
X117392348Y-66844430D01*
X117412790Y-66818288D01*
X117434346Y-66783539D01*
X117470194Y-66727789D01*
X117495179Y-66693086D01*
X117512450Y-66675280D01*
X117525154Y-66670222D01*
X117545493Y-66660579D01*
X117572046Y-66634946D01*
X117582702Y-66623868D01*
X117617602Y-66603033D01*
X117654434Y-66595435D01*
X117683583Y-66601965D01*
G37*
G36*
X117700476Y-75882114D02*
G01*
X117708419Y-75882508D01*
X117783203Y-75886181D01*
X117845841Y-75889202D01*
X117889974Y-75891269D01*
X117909242Y-75892077D01*
X117911826Y-75893784D01*
X117917667Y-75916706D01*
X117920735Y-75960126D01*
X117921227Y-76016074D01*
X117919346Y-76076577D01*
X117915285Y-76133665D01*
X117909246Y-76179366D01*
X117901427Y-76205709D01*
X117881889Y-76237370D01*
X117876894Y-76205497D01*
X117866611Y-76183575D01*
X117833909Y-76173623D01*
X117809265Y-76169982D01*
X117795919Y-76158483D01*
X117792600Y-76152015D01*
X117772473Y-76152340D01*
X117760417Y-76154557D01*
X117749027Y-76144524D01*
X117745718Y-76137187D01*
X117725713Y-76136658D01*
X117710508Y-76137320D01*
X117692075Y-76116629D01*
X117682239Y-76095681D01*
X117658259Y-76060300D01*
X117646649Y-76042252D01*
X117651897Y-76032946D01*
X117656798Y-76033510D01*
X117678689Y-76048577D01*
X117685482Y-76055463D01*
X117713004Y-76064208D01*
X117721342Y-76062795D01*
X117720668Y-76050596D01*
X117696458Y-76023006D01*
X117658039Y-75994439D01*
X117596634Y-75980022D01*
X117588345Y-75979601D01*
X117543688Y-75969501D01*
X117520027Y-75949473D01*
X117522457Y-75923407D01*
X117523671Y-75915199D01*
X117506750Y-75907900D01*
X117494292Y-75905244D01*
X117492446Y-75890122D01*
X117506951Y-75882931D01*
X117544878Y-75878870D01*
X117608492Y-75878632D01*
X117700476Y-75882114D01*
G37*
G36*
X108653495Y-70211328D02*
G01*
X108690510Y-70231138D01*
X108636567Y-70245116D01*
X108606748Y-70255220D01*
X108583425Y-70276675D01*
X108570456Y-70317656D01*
X108565526Y-70338483D01*
X108541418Y-70408971D01*
X108508781Y-70476474D01*
X108472547Y-70531778D01*
X108437650Y-70565669D01*
X108422187Y-70574789D01*
X108384475Y-70591218D01*
X108369622Y-70587336D01*
X108378892Y-70565182D01*
X108413550Y-70526794D01*
X108451027Y-70484566D01*
X108484597Y-70432170D01*
X108503827Y-70383837D01*
X108504377Y-70348109D01*
X108499141Y-70335522D01*
X108490375Y-70329740D01*
X108476801Y-70351161D01*
X108451152Y-70392478D01*
X108412333Y-70445584D01*
X108369070Y-70498730D01*
X108328518Y-70543161D01*
X108297832Y-70570124D01*
X108283113Y-70579244D01*
X108257221Y-70589930D01*
X108252640Y-70581096D01*
X108269054Y-70554902D01*
X108306145Y-70513505D01*
X108340228Y-70477821D01*
X108365052Y-70447612D01*
X108370745Y-70430428D01*
X108355276Y-70425848D01*
X108316611Y-70433450D01*
X108252719Y-70452813D01*
X108161566Y-70483515D01*
X108101249Y-70503600D01*
X108014083Y-70529032D01*
X107950020Y-70541713D01*
X107905830Y-70542183D01*
X107878281Y-70530986D01*
X107868155Y-70522017D01*
X107856446Y-70503534D01*
X107872282Y-70495561D01*
X107916974Y-70496946D01*
X107963396Y-70495241D01*
X108033118Y-70482971D01*
X108113121Y-70462215D01*
X108193945Y-70435458D01*
X108266128Y-70405187D01*
X108280132Y-70398939D01*
X108321065Y-70386038D01*
X108348470Y-70385104D01*
X108370029Y-70387463D01*
X108411614Y-70376516D01*
X108450589Y-70353824D01*
X108472655Y-70326174D01*
X108475939Y-70313613D01*
X108472643Y-70284908D01*
X108446203Y-70269670D01*
X108393089Y-70265192D01*
X108372918Y-70264622D01*
X108337637Y-70259923D01*
X108323673Y-70252027D01*
X108335714Y-70245769D01*
X108371256Y-70240899D01*
X108422074Y-70239137D01*
X108457354Y-70238043D01*
X108521661Y-70229847D01*
X108568478Y-70215465D01*
X108588403Y-70206338D01*
X108621300Y-70199948D01*
X108653495Y-70211328D01*
G37*
G36*
X113129286Y-68702457D02*
G01*
X113156821Y-68724400D01*
X113192596Y-68760437D01*
X113206088Y-68775172D01*
X113237940Y-68808188D01*
X113257524Y-68821927D01*
X113271402Y-68819423D01*
X113286139Y-68803715D01*
X113301502Y-68785173D01*
X113306121Y-68782782D01*
X113295670Y-68805568D01*
X113290397Y-68818482D01*
X113290029Y-68847771D01*
X113312494Y-68858423D01*
X113319373Y-68854285D01*
X113325597Y-68831069D01*
X113326028Y-68826524D01*
X113338913Y-68794271D01*
X113364112Y-68756823D01*
X113379859Y-68737127D01*
X113391159Y-68725107D01*
X113398493Y-68725235D01*
X113402877Y-68741329D01*
X113405327Y-68777208D01*
X113406860Y-68836691D01*
X113408492Y-68923597D01*
X113409239Y-68957715D01*
X113411966Y-69016973D01*
X113418422Y-69062581D01*
X113431354Y-69104847D01*
X113453510Y-69154078D01*
X113487635Y-69220581D01*
X113491313Y-69227674D01*
X113537808Y-69324205D01*
X113586672Y-69436465D01*
X113634540Y-69555765D01*
X113678051Y-69673412D01*
X113713841Y-69780718D01*
X113738548Y-69868991D01*
X113741861Y-69882773D01*
X113759805Y-69954720D01*
X113781280Y-70037805D01*
X113802339Y-70116700D01*
X113805876Y-70129706D01*
X113836709Y-70245310D01*
X113867238Y-70363376D01*
X113896497Y-70479820D01*
X113923520Y-70590558D01*
X113947341Y-70691506D01*
X113966994Y-70778578D01*
X113981513Y-70847690D01*
X113989933Y-70894760D01*
X113991287Y-70915701D01*
X113989567Y-70918942D01*
X113962010Y-70932725D01*
X113904646Y-70937315D01*
X113884983Y-70937150D01*
X113846411Y-70933763D01*
X113827382Y-70923279D01*
X113819274Y-70902146D01*
X113799921Y-70811300D01*
X113778534Y-70722393D01*
X113757802Y-70646693D01*
X113739334Y-70590057D01*
X113724740Y-70558342D01*
X113715251Y-70545354D01*
X113703524Y-70535652D01*
X113700658Y-70550883D01*
X113698756Y-70564900D01*
X113687734Y-70577808D01*
X113687212Y-70577768D01*
X113680586Y-70563147D01*
X113681810Y-70530114D01*
X113681125Y-70490843D01*
X113659565Y-70460273D01*
X113644096Y-70444915D01*
X113650408Y-70437628D01*
X113650530Y-70437625D01*
X113662560Y-70430456D01*
X113653765Y-70405869D01*
X113644894Y-70386105D01*
X113644561Y-70374608D01*
X113644686Y-70374579D01*
X113642441Y-70359615D01*
X113631606Y-70321079D01*
X113613883Y-70264644D01*
X113590973Y-70195983D01*
X113582866Y-70171991D01*
X113545493Y-70055528D01*
X113504567Y-69920196D01*
X113462754Y-69775381D01*
X113422721Y-69630473D01*
X113387133Y-69494859D01*
X113358657Y-69377928D01*
X113342764Y-69320261D01*
X113314928Y-69238608D01*
X113280358Y-69149517D01*
X113242265Y-69060441D01*
X113203859Y-68978838D01*
X113168354Y-68912163D01*
X113138959Y-68867872D01*
X113126063Y-68851671D01*
X113125589Y-68845166D01*
X113149673Y-68856698D01*
X113157374Y-68860656D01*
X113177221Y-68868166D01*
X113182134Y-68860747D01*
X113171928Y-68834322D01*
X113146421Y-68784816D01*
X113132687Y-68756920D01*
X113118357Y-68719524D01*
X113116263Y-68699269D01*
X113129286Y-68702457D01*
G37*
G36*
X116974354Y-68169015D02*
G01*
X116960127Y-68182785D01*
X116905467Y-68234385D01*
X116862235Y-68269921D01*
X116821281Y-68294694D01*
X116772845Y-68314597D01*
X116707165Y-68335526D01*
X116701608Y-68337219D01*
X116631569Y-68360947D01*
X116560576Y-68388696D01*
X116494733Y-68417630D01*
X116440145Y-68444915D01*
X116402916Y-68467717D01*
X116396024Y-68475469D01*
X116389150Y-68483201D01*
X116387241Y-68485539D01*
X116363838Y-68495330D01*
X116324556Y-68506731D01*
X116319408Y-68508225D01*
X116261057Y-68522069D01*
X116222529Y-68531087D01*
X116102907Y-68565394D01*
X115963559Y-68613001D01*
X115809735Y-68672038D01*
X115646689Y-68740639D01*
X115623642Y-68749826D01*
X115570835Y-68768157D01*
X115513204Y-68785849D01*
X115473692Y-68798970D01*
X115408060Y-68824282D01*
X115332038Y-68856213D01*
X115255296Y-68890827D01*
X115197362Y-68917413D01*
X115110039Y-68955844D01*
X115026514Y-68990958D01*
X114958935Y-69017561D01*
X114944475Y-69022935D01*
X114878826Y-69047513D01*
X114819972Y-69069807D01*
X114779181Y-69085553D01*
X114774384Y-69087398D01*
X114727671Y-69101623D01*
X114689304Y-69107829D01*
X114667363Y-69112871D01*
X114654135Y-69129495D01*
X114656213Y-69137479D01*
X114673796Y-69170466D01*
X114706781Y-69221629D01*
X114752126Y-69286884D01*
X114806788Y-69362150D01*
X114867726Y-69443343D01*
X114931897Y-69526382D01*
X114996258Y-69607184D01*
X115057768Y-69681666D01*
X115113384Y-69745747D01*
X115117586Y-69750427D01*
X115210606Y-69854407D01*
X115285279Y-69938940D01*
X115344337Y-70007427D01*
X115390510Y-70063267D01*
X115426532Y-70109861D01*
X115455133Y-70150608D01*
X115463438Y-70163910D01*
X115479046Y-70188908D01*
X115501003Y-70228161D01*
X115558517Y-70335531D01*
X115438479Y-70335877D01*
X115430509Y-70335928D01*
X115368820Y-70338136D01*
X115317576Y-70342893D01*
X115287181Y-70349278D01*
X115255919Y-70362332D01*
X115287181Y-70375187D01*
X115295006Y-70377838D01*
X115336122Y-70385513D01*
X115386176Y-70389140D01*
X115430342Y-70393969D01*
X115446835Y-70407259D01*
X115433225Y-70428968D01*
X115389513Y-70459086D01*
X115376931Y-70466104D01*
X115339524Y-70479520D01*
X115311990Y-70472871D01*
X115296119Y-70465972D01*
X115253413Y-70454410D01*
X115200588Y-70444973D01*
X115166068Y-70438965D01*
X115124622Y-70427482D01*
X115103735Y-70415700D01*
X115101992Y-70413452D01*
X115084823Y-70412302D01*
X115062968Y-70432576D01*
X115041118Y-70467083D01*
X115023959Y-70508629D01*
X115022319Y-70517358D01*
X115016181Y-70550022D01*
X115015981Y-70557727D01*
X115023699Y-70608435D01*
X115052090Y-70648938D01*
X115075268Y-70673744D01*
X115078159Y-70684896D01*
X115060747Y-70687223D01*
X115043517Y-70684683D01*
X115020799Y-70670527D01*
X115014946Y-70664467D01*
X114990410Y-70661532D01*
X114974806Y-70660135D01*
X114945415Y-70640934D01*
X114915202Y-70609610D01*
X114912460Y-70605465D01*
X114953211Y-70605465D01*
X114954938Y-70607448D01*
X114966944Y-70597823D01*
X114984312Y-70567929D01*
X114996454Y-70538299D01*
X114999015Y-70517358D01*
X114988350Y-70521261D01*
X114967575Y-70552820D01*
X114955658Y-70581685D01*
X114953211Y-70605465D01*
X114912460Y-70605465D01*
X114892449Y-70575215D01*
X114885441Y-70546803D01*
X114883190Y-70524428D01*
X114870428Y-70477366D01*
X114849211Y-70414811D01*
X114822205Y-70343728D01*
X114792078Y-70271081D01*
X114761496Y-70203836D01*
X114733125Y-70148958D01*
X114724301Y-70133106D01*
X114671991Y-70015154D01*
X114648466Y-69905477D01*
X114653219Y-69801880D01*
X114660077Y-69762919D01*
X114667060Y-69717671D01*
X114669765Y-69691792D01*
X114662641Y-69677654D01*
X114637219Y-69644897D01*
X114597693Y-69600145D01*
X114577086Y-69578574D01*
X114742177Y-69578574D01*
X114748494Y-69593411D01*
X114772582Y-69623121D01*
X114810442Y-69662599D01*
X114833726Y-69686108D01*
X114888833Y-69744636D01*
X114949343Y-69811727D01*
X115005827Y-69877034D01*
X115021334Y-69895392D01*
X115096799Y-69982379D01*
X115157973Y-70047885D01*
X115208268Y-70095166D01*
X115251096Y-70127478D01*
X115289870Y-70148078D01*
X115308113Y-70155643D01*
X115340516Y-70168038D01*
X115354507Y-70170213D01*
X115357519Y-70163910D01*
X115354912Y-70160434D01*
X115332773Y-70145306D01*
X115295411Y-70124727D01*
X115268024Y-70109111D01*
X115214754Y-70070267D01*
X115168324Y-70026528D01*
X115135502Y-69984694D01*
X115123058Y-69951565D01*
X115119279Y-69932633D01*
X115101152Y-69911928D01*
X115087819Y-69902269D01*
X115071236Y-69872893D01*
X115062644Y-69855799D01*
X115042713Y-69846620D01*
X115028788Y-69841820D01*
X115016947Y-69816672D01*
X115009507Y-69795842D01*
X114989440Y-69790907D01*
X114970919Y-69788026D01*
X114951723Y-69758781D01*
X114936877Y-69731084D01*
X114920245Y-69718115D01*
X114909965Y-69709397D01*
X114904227Y-69680952D01*
X114903546Y-69671056D01*
X114890516Y-69636952D01*
X114867318Y-69615680D01*
X114842389Y-69616092D01*
X114832251Y-69615777D01*
X114826073Y-69593992D01*
X114823019Y-69574938D01*
X114810442Y-69561808D01*
X114803252Y-69564453D01*
X114794812Y-69585254D01*
X114793048Y-69596040D01*
X114779181Y-69608700D01*
X114775445Y-69608246D01*
X114763550Y-69593069D01*
X114762155Y-69587309D01*
X114744012Y-69577781D01*
X114742177Y-69578574D01*
X114577086Y-69578574D01*
X114548627Y-69548783D01*
X114511817Y-69510830D01*
X114458582Y-69453451D01*
X114413746Y-69402279D01*
X114384297Y-69365128D01*
X114285373Y-69227985D01*
X114195230Y-69110586D01*
X114109905Y-69008802D01*
X114024196Y-68916737D01*
X113932897Y-68828495D01*
X113830804Y-68738182D01*
X113802639Y-68714906D01*
X113758590Y-68685575D01*
X113725981Y-68679412D01*
X113698518Y-68696341D01*
X113669911Y-68736288D01*
X113638985Y-68787142D01*
X113648420Y-68728998D01*
X113652091Y-68699335D01*
X113648463Y-68676679D01*
X113632365Y-68670854D01*
X113619640Y-68673212D01*
X113606873Y-68688398D01*
X113603084Y-68697472D01*
X113584633Y-68687486D01*
X113577217Y-68682885D01*
X113537525Y-68674708D01*
X113483568Y-68676364D01*
X113426573Y-68686151D01*
X113377772Y-68702367D01*
X113348392Y-68723308D01*
X113332684Y-68740790D01*
X113325519Y-68737968D01*
X113335144Y-68715713D01*
X113361769Y-68682026D01*
X113396595Y-68646992D01*
X113430747Y-68619473D01*
X113455349Y-68608331D01*
X113480970Y-68611473D01*
X113527470Y-68620166D01*
X113583938Y-68632462D01*
X113617643Y-68639880D01*
X113670045Y-68647003D01*
X113704086Y-68640544D01*
X113727458Y-68617868D01*
X113746995Y-68578087D01*
X114747919Y-68578087D01*
X114750462Y-68595272D01*
X114762176Y-68608331D01*
X114771243Y-68598224D01*
X114781720Y-68567625D01*
X114789764Y-68528335D01*
X114792983Y-68492495D01*
X114788985Y-68472248D01*
X114787641Y-68471345D01*
X114776322Y-68480606D01*
X114763236Y-68508425D01*
X114752422Y-68544388D01*
X114747919Y-68578087D01*
X113746995Y-68578087D01*
X113747851Y-68576344D01*
X113775680Y-68536875D01*
X113820411Y-68504486D01*
X113825149Y-68502201D01*
X113867736Y-68474811D01*
X113892853Y-68438207D01*
X113898658Y-68416934D01*
X114107058Y-68416934D01*
X114110801Y-68428487D01*
X114130504Y-68452023D01*
X114144538Y-68460615D01*
X114153950Y-68455851D01*
X114150207Y-68444297D01*
X114130504Y-68420761D01*
X114116470Y-68412169D01*
X114107058Y-68416934D01*
X113898658Y-68416934D01*
X113908358Y-68381391D01*
X113909874Y-68372658D01*
X113909589Y-68344535D01*
X113893707Y-68323277D01*
X113855852Y-68298863D01*
X113813418Y-68271905D01*
X113795118Y-68252754D01*
X113805954Y-68244097D01*
X113846063Y-68245838D01*
X113915581Y-68257885D01*
X113937465Y-68267403D01*
X113950750Y-68288198D01*
X113950798Y-68291931D01*
X113955367Y-68308390D01*
X113971909Y-68306369D01*
X114006821Y-68285569D01*
X114031601Y-68262959D01*
X114041655Y-68225408D01*
X114041402Y-68219401D01*
X114054267Y-68180427D01*
X114087734Y-68133410D01*
X114104359Y-68113582D01*
X114128734Y-68080053D01*
X114138319Y-68059787D01*
X114140558Y-68053632D01*
X114157197Y-68055445D01*
X114174060Y-68062723D01*
X114210617Y-68070795D01*
X114247802Y-68080488D01*
X114307357Y-68113868D01*
X114362200Y-68162794D01*
X114402117Y-68219342D01*
X114424509Y-68256221D01*
X114456345Y-68297496D01*
X114461901Y-68303967D01*
X114489782Y-68340330D01*
X114526209Y-68391554D01*
X114564781Y-68448714D01*
X114569595Y-68455851D01*
X114580138Y-68471480D01*
X114613438Y-68516386D01*
X114639598Y-68545621D01*
X114653975Y-68553722D01*
X114659707Y-68546839D01*
X114659595Y-68521861D01*
X114657141Y-68512933D01*
X114662936Y-68499869D01*
X114680197Y-68504675D01*
X114699199Y-68526269D01*
X114704767Y-68535890D01*
X114715271Y-68545222D01*
X114724847Y-68526914D01*
X114727851Y-68502762D01*
X114718604Y-68451072D01*
X114695292Y-68386445D01*
X114660216Y-68316378D01*
X114648273Y-68294860D01*
X114630050Y-68258684D01*
X114622873Y-68239095D01*
X114624760Y-68236586D01*
X114638123Y-68248288D01*
X114660277Y-68276651D01*
X114686429Y-68314861D01*
X114711784Y-68356103D01*
X114731550Y-68393565D01*
X114758681Y-68452338D01*
X114808609Y-68372022D01*
X114827771Y-68342777D01*
X114853893Y-68310453D01*
X114868012Y-68304033D01*
X114868448Y-68323619D01*
X114853523Y-68369313D01*
X114841800Y-68403738D01*
X114827385Y-68461165D01*
X114822003Y-68492495D01*
X114817570Y-68518303D01*
X114813923Y-68565300D01*
X114818014Y-68592305D01*
X114820559Y-68594741D01*
X114844633Y-68593934D01*
X114885164Y-68576721D01*
X114897916Y-68570130D01*
X114937157Y-68552770D01*
X114962611Y-68545808D01*
X114969978Y-68544821D01*
X114982381Y-68532191D01*
X114987078Y-68526863D01*
X115014500Y-68516823D01*
X115058276Y-68508506D01*
X115068437Y-68506731D01*
X115279365Y-68506731D01*
X115287181Y-68514546D01*
X115294996Y-68506731D01*
X115287181Y-68498915D01*
X115279365Y-68506731D01*
X115068437Y-68506731D01*
X115087184Y-68503456D01*
X115160507Y-68475469D01*
X115326258Y-68475469D01*
X115334073Y-68483285D01*
X115341889Y-68475469D01*
X115334073Y-68467654D01*
X115326258Y-68475469D01*
X115160507Y-68475469D01*
X115167028Y-68472980D01*
X115233053Y-68418535D01*
X115287337Y-68338002D01*
X115331956Y-68229261D01*
X115340898Y-68215429D01*
X115369506Y-68191799D01*
X115406401Y-68170941D01*
X115440793Y-68158572D01*
X115461888Y-68160413D01*
X115458056Y-68175555D01*
X115436731Y-68206175D01*
X115402480Y-68245275D01*
X115376506Y-68273794D01*
X115336036Y-68322813D01*
X115300485Y-68370824D01*
X115273714Y-68412149D01*
X115259583Y-68441108D01*
X115261951Y-68452023D01*
X115266777Y-68449837D01*
X115289904Y-68430106D01*
X115325364Y-68394266D01*
X115367681Y-68347721D01*
X115411377Y-68298090D01*
X115470901Y-68231894D01*
X115515943Y-68184694D01*
X115550023Y-68153387D01*
X115576662Y-68134867D01*
X115599382Y-68126032D01*
X115621702Y-68123777D01*
X115623442Y-68123780D01*
X115641029Y-68124981D01*
X115647981Y-68130717D01*
X115641916Y-68144413D01*
X115620455Y-68169497D01*
X115581217Y-68209392D01*
X115521821Y-68267526D01*
X115511781Y-68277329D01*
X115457187Y-68331723D01*
X115411723Y-68378804D01*
X115379888Y-68413818D01*
X115366180Y-68432011D01*
X115364265Y-68438577D01*
X115371447Y-68444750D01*
X115397402Y-68429573D01*
X115440311Y-68394307D01*
X115498356Y-68340217D01*
X115538660Y-68301867D01*
X115602075Y-68243656D01*
X115667869Y-68185207D01*
X115729784Y-68131968D01*
X115781564Y-68089384D01*
X115816953Y-68062902D01*
X115822015Y-68060771D01*
X115813522Y-68072768D01*
X115787375Y-68100676D01*
X115746668Y-68141056D01*
X115742316Y-68145284D01*
X115680005Y-68209240D01*
X115626880Y-68269877D01*
X115585574Y-68323492D01*
X115558724Y-68366376D01*
X115548963Y-68394824D01*
X115558927Y-68405131D01*
X115560251Y-68405059D01*
X115569984Y-68401246D01*
X115585695Y-68389498D01*
X115610488Y-68366863D01*
X115647470Y-68330391D01*
X115699744Y-68277130D01*
X115770416Y-68204130D01*
X115813924Y-68160622D01*
X115867434Y-68111090D01*
X115913238Y-68072909D01*
X115944637Y-68051933D01*
X115984727Y-68023312D01*
X116001863Y-67982090D01*
X116001978Y-67949527D01*
X115991766Y-67935698D01*
X115991389Y-67932650D01*
X116011299Y-67920471D01*
X116049608Y-67902259D01*
X116078449Y-67890641D01*
X116115726Y-67879614D01*
X116134635Y-67879682D01*
X116130197Y-67894733D01*
X116108168Y-67925070D01*
X116073301Y-67963922D01*
X116040072Y-68001130D01*
X115998306Y-68055676D01*
X115969012Y-68103073D01*
X115967186Y-68106585D01*
X115937104Y-68150593D01*
X115892317Y-68202415D01*
X115841804Y-68251565D01*
X115806913Y-68283660D01*
X115754421Y-68337301D01*
X115710862Y-68388135D01*
X115681133Y-68430275D01*
X115670135Y-68457835D01*
X115676518Y-68459966D01*
X115701287Y-68447479D01*
X115739396Y-68421333D01*
X115785128Y-68385528D01*
X115832765Y-68344063D01*
X115837041Y-68340141D01*
X115867193Y-68314035D01*
X115877060Y-68309717D01*
X115867934Y-68326547D01*
X115849946Y-68356440D01*
X115842073Y-68375830D01*
X115848133Y-68376788D01*
X115875965Y-68369008D01*
X115919765Y-68352938D01*
X115972190Y-68331605D01*
X116025898Y-68308035D01*
X116073548Y-68285256D01*
X116107796Y-68266294D01*
X116119995Y-68258177D01*
X116344499Y-68258177D01*
X116350073Y-68263627D01*
X116351893Y-68263547D01*
X116384655Y-68256700D01*
X116430800Y-68241490D01*
X116481703Y-68221516D01*
X116528740Y-68200378D01*
X116563287Y-68181678D01*
X116576719Y-68169015D01*
X116570402Y-68160563D01*
X116545223Y-68155454D01*
X116513644Y-68158722D01*
X116489676Y-68170180D01*
X116477508Y-68179272D01*
X116442605Y-68200248D01*
X116396673Y-68224822D01*
X116364224Y-68242788D01*
X116344499Y-68258177D01*
X116119995Y-68258177D01*
X116124600Y-68255113D01*
X116167727Y-68224760D01*
X116214506Y-68190357D01*
X116240616Y-68171867D01*
X116285431Y-68144779D01*
X116318883Y-68130178D01*
X116343523Y-68119810D01*
X116347410Y-68115961D01*
X116545458Y-68115961D01*
X116553273Y-68123777D01*
X116561089Y-68115961D01*
X116553273Y-68108146D01*
X116545458Y-68115961D01*
X116347410Y-68115961D01*
X116363751Y-68099782D01*
X116367160Y-68094160D01*
X116394871Y-68077328D01*
X116437297Y-68066909D01*
X116481702Y-68065070D01*
X116515352Y-68073979D01*
X116518099Y-68075599D01*
X116539734Y-68080287D01*
X116567890Y-68069116D01*
X116610557Y-68039164D01*
X116644067Y-68010989D01*
X116697235Y-67959933D01*
X116745141Y-67907642D01*
X116745869Y-67906776D01*
X116790423Y-67859630D01*
X116825175Y-67838705D01*
X116855025Y-67842693D01*
X116884872Y-67870282D01*
X116886926Y-67872756D01*
X116909637Y-67898121D01*
X116946060Y-67937253D01*
X116989342Y-67982771D01*
X117074828Y-68071769D01*
X117029169Y-68115961D01*
X116974354Y-68169015D01*
G37*
G36*
X114039101Y-66944827D02*
G01*
X114062104Y-66953802D01*
X114068047Y-66973635D01*
X114071280Y-66991108D01*
X114077505Y-66998361D01*
X114087586Y-67010107D01*
X114094630Y-67013726D01*
X114107058Y-67035267D01*
X114113809Y-67053457D01*
X114136564Y-67078715D01*
X114164458Y-67097202D01*
X114185941Y-67099511D01*
X114191789Y-67094080D01*
X114200842Y-67067777D01*
X114205184Y-67050269D01*
X114223010Y-67048731D01*
X114250752Y-67072608D01*
X114264719Y-67090420D01*
X114282414Y-67122041D01*
X114283300Y-67131223D01*
X114284342Y-67142015D01*
X114268837Y-67143791D01*
X114259579Y-67140650D01*
X114252692Y-67144156D01*
X114255387Y-67149178D01*
X114265081Y-67167239D01*
X114265147Y-67167344D01*
X114285494Y-67189070D01*
X114305706Y-67183222D01*
X114315465Y-67177690D01*
X114323669Y-67187671D01*
X114324498Y-67201250D01*
X114325889Y-67224016D01*
X114326144Y-67234797D01*
X114330937Y-67265062D01*
X114339881Y-67272912D01*
X114350802Y-67270566D01*
X114356060Y-67277839D01*
X114361744Y-67285700D01*
X114362812Y-67316437D01*
X114357905Y-67334259D01*
X114353497Y-67350268D01*
X114352570Y-67353633D01*
X114340207Y-67380527D01*
X114305114Y-67440451D01*
X114271285Y-67471625D01*
X114237079Y-67475784D01*
X114212214Y-67473497D01*
X114191334Y-67489505D01*
X114185266Y-67498534D01*
X114169449Y-67495123D01*
X114140878Y-67468675D01*
X114136033Y-67463507D01*
X114104565Y-67426898D01*
X114083117Y-67397187D01*
X114076755Y-67388049D01*
X114054479Y-67376573D01*
X114015092Y-67380916D01*
X114006189Y-67383073D01*
X113975557Y-67396906D01*
X113951511Y-67424224D01*
X113926153Y-67473221D01*
X113923019Y-67478743D01*
X113900602Y-67518247D01*
X113859119Y-67574877D01*
X113856554Y-67578379D01*
X113807902Y-67631845D01*
X113789148Y-67651214D01*
X113778057Y-67662669D01*
X113766173Y-67674942D01*
X113730302Y-67716894D01*
X113715438Y-67734278D01*
X113676097Y-67787715D01*
X113645621Y-67831202D01*
X113597878Y-67892564D01*
X113552840Y-67945126D01*
X113549757Y-67948724D01*
X113513657Y-67986576D01*
X113478017Y-68016398D01*
X113444033Y-68032199D01*
X113402018Y-68039958D01*
X113387027Y-68041257D01*
X113324771Y-68040337D01*
X113269366Y-68031588D01*
X113256586Y-68028139D01*
X113221462Y-68022436D01*
X113198079Y-68032092D01*
X113172199Y-68061489D01*
X113133727Y-68096878D01*
X113072548Y-68118235D01*
X113037964Y-68125928D01*
X113008106Y-68144420D01*
X112987627Y-68180455D01*
X112978743Y-68194115D01*
X112950599Y-68237390D01*
X112899159Y-68270717D01*
X112838904Y-68276448D01*
X112825116Y-68274793D01*
X112795312Y-68278250D01*
X112782344Y-68298116D01*
X112768812Y-68323357D01*
X112749856Y-68320214D01*
X112728706Y-68287900D01*
X112713273Y-68261427D01*
X112698230Y-68248823D01*
X112697427Y-68249009D01*
X112686317Y-68265713D01*
X112670366Y-68304169D01*
X112652746Y-68356848D01*
X112636290Y-68418592D01*
X112627022Y-68486769D01*
X112629741Y-68556140D01*
X112631863Y-68578099D01*
X112636800Y-68639047D01*
X112642525Y-68719147D01*
X112648487Y-68810526D01*
X112654136Y-68905315D01*
X112656798Y-68950091D01*
X112663528Y-69049762D01*
X112670963Y-69145389D01*
X112678371Y-69227912D01*
X112685022Y-69288269D01*
X112685380Y-69291031D01*
X112694805Y-69377639D01*
X112703754Y-69484070D01*
X112711863Y-69603047D01*
X112718769Y-69727293D01*
X112724108Y-69849533D01*
X112727518Y-69962487D01*
X112728636Y-70058880D01*
X112727098Y-70131435D01*
X112718982Y-70283732D01*
X112717766Y-70304269D01*
X112709316Y-70446914D01*
X112699788Y-70584931D01*
X112690077Y-70701152D01*
X112679861Y-70798946D01*
X112668820Y-70881684D01*
X112656634Y-70952736D01*
X112642981Y-71015469D01*
X112630001Y-71069281D01*
X112615388Y-71130816D01*
X112604848Y-71176340D01*
X112600064Y-71198678D01*
X112598871Y-71204015D01*
X112585361Y-71229392D01*
X112584640Y-71230205D01*
X112572499Y-71250809D01*
X112554080Y-71287357D01*
X112534539Y-71328919D01*
X112519034Y-71364565D01*
X112512719Y-71383367D01*
X112513451Y-71384993D01*
X112534785Y-71392712D01*
X112582947Y-71400594D01*
X112654301Y-71408336D01*
X112745208Y-71415639D01*
X112852031Y-71422201D01*
X112971132Y-71427721D01*
X113098873Y-71431897D01*
X113188917Y-71434232D01*
X113304789Y-71437076D01*
X113395901Y-71438830D01*
X113466194Y-71439307D01*
X113519610Y-71438324D01*
X113560090Y-71435695D01*
X113591575Y-71431236D01*
X113618006Y-71424761D01*
X113643324Y-71416085D01*
X113671470Y-71405024D01*
X113720538Y-71386814D01*
X113793218Y-71362465D01*
X113863538Y-71341213D01*
X113906770Y-71326539D01*
X113978695Y-71296344D01*
X114058266Y-71258172D01*
X114134811Y-71216913D01*
X114136377Y-71216011D01*
X114199982Y-71180668D01*
X114253509Y-71153258D01*
X114291374Y-71136486D01*
X114307992Y-71133054D01*
X114310306Y-71137048D01*
X114316219Y-71165329D01*
X114319069Y-71208263D01*
X114320433Y-71291901D01*
X114322404Y-71359356D01*
X114325973Y-71405401D01*
X114332289Y-71435209D01*
X114342500Y-71453955D01*
X114347267Y-71457972D01*
X114357757Y-71466812D01*
X114379209Y-71478952D01*
X114414450Y-71503950D01*
X114460576Y-71545676D01*
X114491802Y-71579099D01*
X114505544Y-71593808D01*
X114525279Y-71617254D01*
X114532127Y-71625390D01*
X114543544Y-71640700D01*
X114558533Y-71660801D01*
X114570904Y-71689798D01*
X114572995Y-71722922D01*
X114568559Y-71770709D01*
X114563671Y-71810366D01*
X114556501Y-71856406D01*
X114554585Y-71864741D01*
X114550427Y-71882832D01*
X114549838Y-71888742D01*
X114562115Y-71915394D01*
X114590400Y-71946883D01*
X114599965Y-71955989D01*
X114627453Y-71990518D01*
X114638504Y-72018913D01*
X114641876Y-72035687D01*
X114660470Y-72056510D01*
X114676310Y-72069125D01*
X114684861Y-72078970D01*
X114704694Y-72101804D01*
X114736770Y-72145897D01*
X114743192Y-72154962D01*
X114776348Y-72196613D01*
X114814363Y-72241011D01*
X114825915Y-72254503D01*
X114887768Y-72323977D01*
X114952751Y-72394885D01*
X114957787Y-72400380D01*
X115031848Y-72479059D01*
X115051246Y-72499456D01*
X115127101Y-72580584D01*
X115199532Y-72660039D01*
X115263933Y-72732648D01*
X115315699Y-72793239D01*
X115350226Y-72836639D01*
X115355096Y-72843213D01*
X115401095Y-72902600D01*
X115448038Y-72959331D01*
X115486473Y-73001938D01*
X115508828Y-73026023D01*
X115534921Y-73058575D01*
X115545089Y-73078059D01*
X115548043Y-73086683D01*
X115568759Y-73117580D01*
X115605939Y-73163780D01*
X115655635Y-73221053D01*
X115713898Y-73285172D01*
X115776779Y-73351906D01*
X115840328Y-73417027D01*
X115900598Y-73476305D01*
X115953639Y-73525513D01*
X115994124Y-73559272D01*
X115995502Y-73560421D01*
X116080649Y-73631142D01*
X116176977Y-73736058D01*
X116242407Y-73844638D01*
X116263984Y-73882376D01*
X116299828Y-73933614D01*
X116341181Y-73985315D01*
X116347678Y-73993197D01*
X116383277Y-74043557D01*
X116426648Y-74113179D01*
X116473658Y-74194517D01*
X116520172Y-74280020D01*
X116562057Y-74362140D01*
X116595177Y-74433328D01*
X116615400Y-74486036D01*
X116622668Y-74507924D01*
X116647381Y-74571170D01*
X116679869Y-74645615D01*
X116715443Y-74721141D01*
X116749415Y-74787631D01*
X116777096Y-74834968D01*
X116789695Y-74854412D01*
X116818682Y-74903186D01*
X116838741Y-74942400D01*
X116848301Y-74960329D01*
X116877987Y-75002896D01*
X116915115Y-75046658D01*
X116924881Y-75057649D01*
X116965679Y-75111935D01*
X117015318Y-75187507D01*
X117070722Y-75278764D01*
X117128815Y-75380105D01*
X117186522Y-75485928D01*
X117240766Y-75590635D01*
X117288470Y-75688622D01*
X117326560Y-75774291D01*
X117351958Y-75842040D01*
X117353101Y-75845642D01*
X117370375Y-75895550D01*
X117386586Y-75923940D01*
X117408733Y-75938934D01*
X117443813Y-75948656D01*
X117455236Y-75951268D01*
X117480844Y-75959344D01*
X117499896Y-75973046D01*
X117516787Y-75998279D01*
X117535915Y-76040950D01*
X117561678Y-76106966D01*
X117593595Y-76182268D01*
X117633454Y-76257792D01*
X117659472Y-76293979D01*
X117668464Y-76306485D01*
X117671308Y-76310441D01*
X117687742Y-76328590D01*
X117695739Y-76337746D01*
X117727853Y-76374514D01*
X117759491Y-76412774D01*
X117775758Y-76431461D01*
X117806100Y-76449403D01*
X117849368Y-76449823D01*
X117858089Y-76449027D01*
X117891716Y-76449846D01*
X117905335Y-76457132D01*
X117901692Y-76463975D01*
X117879212Y-76470608D01*
X117869544Y-76471934D01*
X117837236Y-76487494D01*
X117808397Y-76512481D01*
X117800309Y-76528160D01*
X117795919Y-76536670D01*
X117795786Y-76539734D01*
X117778915Y-76568680D01*
X117752506Y-76581448D01*
X117738168Y-76588380D01*
X117679805Y-76595654D01*
X117661000Y-76596016D01*
X117622450Y-76601856D01*
X117621217Y-76603469D01*
X117612258Y-76615192D01*
X117610097Y-76619100D01*
X117604871Y-76628550D01*
X117573181Y-76634114D01*
X117543686Y-76637075D01*
X117535264Y-76642546D01*
X117530196Y-76645838D01*
X117529728Y-76647450D01*
X117511660Y-76655075D01*
X117475489Y-76658177D01*
X117468309Y-76658312D01*
X117434522Y-76663477D01*
X117420781Y-76673809D01*
X117419993Y-76675746D01*
X117400335Y-76682322D01*
X117361490Y-76685836D01*
X117313163Y-76686396D01*
X117265054Y-76684112D01*
X117226866Y-76679090D01*
X117208302Y-76671440D01*
X117201278Y-76666697D01*
X117170109Y-76657154D01*
X117124356Y-76648960D01*
X117102703Y-76645554D01*
X117092486Y-76642546D01*
X117334812Y-76642546D01*
X117338011Y-76646815D01*
X117359180Y-76658177D01*
X117362670Y-76657729D01*
X117373889Y-76642546D01*
X117370906Y-76635076D01*
X117349520Y-76626915D01*
X117338355Y-76629165D01*
X117334812Y-76642546D01*
X117092486Y-76642546D01*
X117064599Y-76634336D01*
X117055047Y-76620595D01*
X117056779Y-76615329D01*
X117055382Y-76607829D01*
X117043525Y-76602710D01*
X117016013Y-76599075D01*
X116967652Y-76596030D01*
X116893247Y-76592676D01*
X116885620Y-76592321D01*
X116832082Y-76587975D01*
X116794260Y-76581695D01*
X116779924Y-76574713D01*
X116789674Y-76557705D01*
X116792844Y-76554610D01*
X117071947Y-76554610D01*
X117087331Y-76589630D01*
X117111120Y-76614803D01*
X117139402Y-76626915D01*
X117151347Y-76623873D01*
X117155958Y-76619100D01*
X117201950Y-76619100D01*
X117209765Y-76626915D01*
X117217581Y-76619100D01*
X117209765Y-76611285D01*
X117201950Y-76619100D01*
X117155958Y-76619100D01*
X117170877Y-76603658D01*
X117170932Y-76603469D01*
X117483304Y-76603469D01*
X117491119Y-76611285D01*
X117498935Y-76603469D01*
X117545827Y-76603469D01*
X117553642Y-76611285D01*
X117561458Y-76603469D01*
X117553642Y-76595654D01*
X117545827Y-76603469D01*
X117498935Y-76603469D01*
X117491119Y-76595654D01*
X117483304Y-76603469D01*
X117170932Y-76603469D01*
X117178787Y-76576259D01*
X117175352Y-76568866D01*
X117364258Y-76568866D01*
X117365023Y-76576259D01*
X117365692Y-76582721D01*
X117386070Y-76594053D01*
X117413791Y-76598848D01*
X117437254Y-76593089D01*
X117439588Y-76591425D01*
X117450777Y-76581448D01*
X117434409Y-76585142D01*
X117420094Y-76586882D01*
X117391685Y-76575936D01*
X117382279Y-76568834D01*
X117364995Y-76568076D01*
X117364258Y-76568866D01*
X117175352Y-76568866D01*
X117169221Y-76555670D01*
X117161980Y-76554643D01*
X117155058Y-76571285D01*
X117155042Y-76572729D01*
X117147155Y-76593486D01*
X117131086Y-76590169D01*
X117115981Y-76564392D01*
X117107828Y-76545985D01*
X117094087Y-76533131D01*
X117080691Y-76535658D01*
X117071947Y-76554610D01*
X116792844Y-76554610D01*
X116815089Y-76532890D01*
X116837420Y-76513391D01*
X116838870Y-76505778D01*
X116892689Y-76505778D01*
X116904965Y-76517500D01*
X116918490Y-76524412D01*
X116951858Y-76531793D01*
X116961659Y-76528160D01*
X116944042Y-76517500D01*
X116933162Y-76513060D01*
X116904053Y-76504298D01*
X116892689Y-76505778D01*
X116838870Y-76505778D01*
X116839584Y-76502028D01*
X116818996Y-76492276D01*
X116799411Y-76482266D01*
X116771025Y-76458091D01*
X116763921Y-76451964D01*
X116725574Y-76436432D01*
X116659555Y-76420576D01*
X116568401Y-76404861D01*
X116454651Y-76389751D01*
X116320844Y-76375710D01*
X116299254Y-76373844D01*
X116241231Y-76370001D01*
X116170885Y-76366871D01*
X116086113Y-76364438D01*
X115984809Y-76362689D01*
X115864872Y-76361608D01*
X115724196Y-76361179D01*
X115560679Y-76361389D01*
X115372217Y-76362221D01*
X115156706Y-76363662D01*
X114912042Y-76365696D01*
X114875636Y-76365889D01*
X114770105Y-76365506D01*
X114645775Y-76364051D01*
X114511421Y-76361667D01*
X114375817Y-76358501D01*
X114247735Y-76354698D01*
X114161349Y-76351964D01*
X114054231Y-76349042D01*
X113958149Y-76346933D01*
X113878154Y-76345730D01*
X113819296Y-76345522D01*
X113786627Y-76346402D01*
X113768681Y-76347723D01*
X113742948Y-76349120D01*
X113711428Y-76350199D01*
X113671292Y-76350963D01*
X113619708Y-76351419D01*
X113553846Y-76351569D01*
X113470875Y-76351421D01*
X113367967Y-76350978D01*
X113242289Y-76350245D01*
X113091011Y-76349228D01*
X112911304Y-76347932D01*
X112759263Y-76346430D01*
X112558044Y-76343101D01*
X112377620Y-76338458D01*
X112358489Y-76337746D01*
X117405150Y-76337746D01*
X117412965Y-76345561D01*
X117420781Y-76337746D01*
X117412965Y-76329931D01*
X117405150Y-76337746D01*
X112358489Y-76337746D01*
X112219733Y-76332582D01*
X112086126Y-76325554D01*
X111978542Y-76317456D01*
X111898723Y-76308367D01*
X111889251Y-76306485D01*
X116733027Y-76306485D01*
X116740842Y-76314300D01*
X116748658Y-76306485D01*
X116740842Y-76298669D01*
X116733027Y-76306485D01*
X111889251Y-76306485D01*
X111848412Y-76298371D01*
X111847376Y-76298088D01*
X111817616Y-76294311D01*
X111761473Y-76290682D01*
X111683486Y-76287366D01*
X111588194Y-76284525D01*
X111480139Y-76282323D01*
X111363858Y-76280924D01*
X111238167Y-76279175D01*
X111100008Y-76275684D01*
X110964392Y-76270776D01*
X110835420Y-76264697D01*
X110717196Y-76257692D01*
X110613823Y-76250006D01*
X110529402Y-76241885D01*
X110468035Y-76233573D01*
X110433827Y-76225317D01*
X110422256Y-76220890D01*
X110396053Y-76214050D01*
X110378051Y-76202474D01*
X110377883Y-76195441D01*
X116002614Y-76195441D01*
X116002856Y-76200777D01*
X116023130Y-76203650D01*
X116038494Y-76201147D01*
X116038024Y-76200596D01*
X116085696Y-76200596D01*
X116092593Y-76201147D01*
X116112732Y-76202756D01*
X116147633Y-76207426D01*
X116183070Y-76218543D01*
X116190928Y-76221408D01*
X116228155Y-76228938D01*
X116284139Y-76236339D01*
X116350073Y-76242355D01*
X116441959Y-76249575D01*
X116525662Y-76257966D01*
X116587128Y-76266773D01*
X116631242Y-76276591D01*
X116651015Y-76282193D01*
X116691585Y-76293637D01*
X116712627Y-76293979D01*
X116712577Y-76272858D01*
X116705605Y-76245631D01*
X116695539Y-76202705D01*
X116695120Y-76200934D01*
X116672104Y-76165560D01*
X116631898Y-76147462D01*
X116585777Y-76151863D01*
X116572481Y-76154163D01*
X116561089Y-76143111D01*
X116559946Y-76136781D01*
X116546433Y-76133944D01*
X116537482Y-76137551D01*
X116499200Y-76145517D01*
X116441740Y-76153067D01*
X116373348Y-76159376D01*
X116302270Y-76163618D01*
X116236750Y-76164967D01*
X116190397Y-76166047D01*
X116153287Y-76169922D01*
X116139058Y-76175719D01*
X116131315Y-76184301D01*
X116103889Y-76193853D01*
X116088386Y-76197189D01*
X116085696Y-76200596D01*
X116038024Y-76200596D01*
X116032573Y-76194207D01*
X116023534Y-76191710D01*
X116002614Y-76195441D01*
X110377883Y-76195441D01*
X110377598Y-76183556D01*
X110395120Y-76173623D01*
X110410121Y-76169909D01*
X110412405Y-76149815D01*
X110412352Y-76149676D01*
X110410947Y-76133902D01*
X110430271Y-76139518D01*
X110435370Y-76141615D01*
X110472570Y-76148266D01*
X110519796Y-76148764D01*
X110542769Y-76147507D01*
X110600669Y-76145094D01*
X110684086Y-76142110D01*
X110789598Y-76138659D01*
X110913785Y-76134845D01*
X111053225Y-76130772D01*
X111204498Y-76126545D01*
X111364182Y-76122268D01*
X111528856Y-76118045D01*
X111532567Y-76117951D01*
X111630793Y-76115067D01*
X111721394Y-76111677D01*
X111798461Y-76108058D01*
X111856087Y-76104485D01*
X111888364Y-76101235D01*
X111938402Y-76095138D01*
X111985181Y-76093149D01*
X112014680Y-76090835D01*
X112028165Y-76083117D01*
X112028305Y-76082291D01*
X112044361Y-76074600D01*
X112078965Y-76070728D01*
X112093435Y-76070269D01*
X112140530Y-76068475D01*
X112208456Y-76065687D01*
X112290477Y-76062185D01*
X112374365Y-76058489D01*
X115704161Y-76058489D01*
X115717027Y-76064208D01*
X115725302Y-76063080D01*
X115726846Y-76056392D01*
X116561089Y-76056392D01*
X116568904Y-76064208D01*
X116576719Y-76056392D01*
X116568904Y-76048577D01*
X116563694Y-76053787D01*
X116561089Y-76056392D01*
X115726846Y-76056392D01*
X115727448Y-76053787D01*
X115725157Y-76051916D01*
X115706607Y-76053787D01*
X115704161Y-76058489D01*
X112374365Y-76058489D01*
X112379858Y-76058247D01*
X112469948Y-76054529D01*
X112583667Y-76050424D01*
X112707818Y-76046413D01*
X112836449Y-76042654D01*
X112963606Y-76039303D01*
X113083336Y-76036515D01*
X113189686Y-76034447D01*
X113276703Y-76033255D01*
X113338435Y-76033096D01*
X113338574Y-76033097D01*
X113387236Y-76031733D01*
X113409412Y-76025728D01*
X113409680Y-76013844D01*
X113408563Y-76011965D01*
X113405075Y-76001733D01*
X113421381Y-76013049D01*
X113426546Y-76015539D01*
X113459489Y-76021105D01*
X113515879Y-76024803D01*
X113590744Y-76026773D01*
X113679110Y-76027151D01*
X113776004Y-76026076D01*
X113776970Y-76026053D01*
X115529458Y-76026053D01*
X115529610Y-76028238D01*
X115538658Y-76031681D01*
X115544801Y-76025131D01*
X115779550Y-76025131D01*
X115787365Y-76032946D01*
X115795181Y-76025131D01*
X115787365Y-76017315D01*
X115857704Y-76017315D01*
X115863933Y-76025131D01*
X115865430Y-76027010D01*
X115892873Y-76032707D01*
X115901347Y-76032533D01*
X115916872Y-76028717D01*
X115904596Y-76017315D01*
X115998381Y-76017315D01*
X115998425Y-76018612D01*
X116007609Y-76028717D01*
X116010396Y-76031783D01*
X116035003Y-76028773D01*
X116059749Y-76010891D01*
X116066109Y-76000503D01*
X116123427Y-76000503D01*
X116126196Y-76007895D01*
X116146873Y-76022968D01*
X116158795Y-76025659D01*
X116170319Y-76018497D01*
X116167551Y-76011105D01*
X116165349Y-76009500D01*
X116185950Y-76009500D01*
X116193765Y-76017315D01*
X116201581Y-76009500D01*
X116201267Y-76009186D01*
X116236182Y-76009186D01*
X116236214Y-76009500D01*
X116237121Y-76018497D01*
X116238053Y-76027736D01*
X116242754Y-76030181D01*
X116248473Y-76017315D01*
X116247408Y-76009500D01*
X116279735Y-76009500D01*
X116287550Y-76017315D01*
X116290210Y-76014655D01*
X116408620Y-76014655D01*
X116430856Y-76016324D01*
X116453101Y-76018371D01*
X116493379Y-76027350D01*
X116505723Y-76031410D01*
X116513299Y-76029937D01*
X116497470Y-76011182D01*
X116470135Y-75993681D01*
X116434947Y-76000157D01*
X116413817Y-76008976D01*
X116413337Y-76009500D01*
X116408620Y-76014655D01*
X116290210Y-76014655D01*
X116295365Y-76009500D01*
X116287550Y-76001685D01*
X116279735Y-76009500D01*
X116247408Y-76009500D01*
X116247345Y-76009040D01*
X116238053Y-76006895D01*
X116236182Y-76009186D01*
X116201267Y-76009186D01*
X116193765Y-76001685D01*
X116185950Y-76009500D01*
X116165349Y-76009500D01*
X116146873Y-75996032D01*
X116134951Y-75993341D01*
X116130190Y-75996300D01*
X116123427Y-76000503D01*
X116066109Y-76000503D01*
X116068682Y-75996300D01*
X116061663Y-75978707D01*
X116054949Y-75976019D01*
X116052593Y-75978238D01*
X116045273Y-75985131D01*
X116042620Y-75992757D01*
X116021827Y-76001685D01*
X116011041Y-76003448D01*
X115998381Y-76017315D01*
X115904596Y-76017315D01*
X115896013Y-76012081D01*
X115867544Y-76002771D01*
X115858392Y-76016298D01*
X115857704Y-76017315D01*
X115787365Y-76017315D01*
X115779550Y-76025131D01*
X115544801Y-76025131D01*
X115554397Y-76014900D01*
X115558200Y-76006165D01*
X115547504Y-76008007D01*
X115545355Y-76009500D01*
X115540560Y-76012832D01*
X115529458Y-76026053D01*
X113776970Y-76026053D01*
X113876453Y-76023685D01*
X113975482Y-76020115D01*
X114068119Y-76015505D01*
X114149389Y-76009991D01*
X114214321Y-76003713D01*
X114257940Y-75996806D01*
X114275272Y-75989410D01*
X114291083Y-75981898D01*
X114324419Y-75982504D01*
X114358134Y-75982263D01*
X114379694Y-75971883D01*
X114391168Y-75963067D01*
X114420301Y-75970759D01*
X114449781Y-75978631D01*
X114492261Y-75976277D01*
X114508710Y-75972633D01*
X114526493Y-75974251D01*
X114524334Y-75991530D01*
X114521404Y-76005692D01*
X114529579Y-76017315D01*
X114535945Y-76015299D01*
X114538540Y-76009500D01*
X115029273Y-76009500D01*
X115037089Y-76017315D01*
X115044904Y-76009500D01*
X115037089Y-76001685D01*
X115029273Y-76009500D01*
X114538540Y-76009500D01*
X114544719Y-75995691D01*
X114548491Y-75987071D01*
X115689598Y-75987071D01*
X115693581Y-76001685D01*
X115696690Y-76006165D01*
X115696792Y-76006312D01*
X115711057Y-76017315D01*
X115713195Y-76016298D01*
X115709212Y-76001685D01*
X115706000Y-75997057D01*
X115691736Y-75986054D01*
X115689598Y-75987071D01*
X114548491Y-75987071D01*
X114550014Y-75983591D01*
X114575600Y-75969288D01*
X114610529Y-75964536D01*
X114641401Y-75972544D01*
X114675734Y-75985503D01*
X114704846Y-75979896D01*
X114705669Y-75978238D01*
X114779181Y-75978238D01*
X114786996Y-75986054D01*
X114794812Y-75978238D01*
X115904596Y-75978238D01*
X115912412Y-75986054D01*
X115920227Y-75978238D01*
X115912412Y-75970423D01*
X115904596Y-75978238D01*
X114794812Y-75978238D01*
X114786996Y-75970423D01*
X114779181Y-75978238D01*
X114705669Y-75978238D01*
X114714234Y-75960979D01*
X115002245Y-75960979D01*
X115002487Y-75966315D01*
X115022760Y-75969189D01*
X115038125Y-75966686D01*
X115032204Y-75959745D01*
X115023165Y-75957248D01*
X115002245Y-75960979D01*
X114714234Y-75960979D01*
X114716658Y-75956095D01*
X114719807Y-75938564D01*
X114725631Y-75931346D01*
X114779181Y-75931346D01*
X114786996Y-75939161D01*
X114794812Y-75931346D01*
X114786996Y-75923531D01*
X114779181Y-75931346D01*
X114725631Y-75931346D01*
X114736196Y-75918252D01*
X114743193Y-75913137D01*
X114728381Y-75909134D01*
X114713750Y-75911822D01*
X114701027Y-75929342D01*
X114700544Y-75933196D01*
X114683091Y-75946082D01*
X114638504Y-75949146D01*
X114604623Y-75946435D01*
X114579574Y-75938704D01*
X114580969Y-75928673D01*
X114611150Y-75918931D01*
X114627807Y-75915420D01*
X114630996Y-75912132D01*
X114604352Y-75910029D01*
X114570563Y-75911860D01*
X114522876Y-75922921D01*
X114497276Y-75929166D01*
X114435562Y-75921279D01*
X114432896Y-75920362D01*
X114392360Y-75912550D01*
X114364639Y-75923802D01*
X114350982Y-75932241D01*
X114341519Y-75928096D01*
X114329352Y-75925193D01*
X114288892Y-75922241D01*
X114223089Y-75919601D01*
X114135067Y-75917274D01*
X114027947Y-75915264D01*
X113904850Y-75913576D01*
X113768899Y-75912212D01*
X113623215Y-75911177D01*
X113470921Y-75910473D01*
X113315138Y-75910106D01*
X113158988Y-75910077D01*
X113005592Y-75910391D01*
X112858074Y-75911051D01*
X112719553Y-75912062D01*
X112593154Y-75913426D01*
X112481996Y-75915147D01*
X112389203Y-75917230D01*
X112317895Y-75919676D01*
X112271195Y-75922491D01*
X112252225Y-75925678D01*
X112235736Y-75934613D01*
X112209565Y-75924896D01*
X112193347Y-75914877D01*
X112190955Y-75923531D01*
X112190026Y-75926890D01*
X112190430Y-75932333D01*
X112185315Y-75946771D01*
X112163990Y-75953277D01*
X112118963Y-75954792D01*
X112086319Y-75953665D01*
X112081011Y-75947173D01*
X112099424Y-75930657D01*
X112106608Y-75923531D01*
X112145396Y-75923531D01*
X112148604Y-75928208D01*
X112161950Y-75939161D01*
X112163509Y-75938755D01*
X112168842Y-75923531D01*
X112168206Y-75919246D01*
X112152289Y-75907900D01*
X112146636Y-75909127D01*
X112145396Y-75923531D01*
X112106608Y-75923531D01*
X112107154Y-75922989D01*
X112106067Y-75916848D01*
X112091566Y-75912815D01*
X112060084Y-75910659D01*
X112008054Y-75910151D01*
X111931911Y-75911061D01*
X111828087Y-75913158D01*
X111737795Y-75914998D01*
X111656639Y-75916042D01*
X111599443Y-75915624D01*
X111562260Y-75913492D01*
X111541142Y-75909396D01*
X111532143Y-75903085D01*
X111531317Y-75894308D01*
X111532496Y-75890530D01*
X111539623Y-75883282D01*
X111555889Y-75877888D01*
X111584980Y-75874113D01*
X111630584Y-75871719D01*
X111696386Y-75870472D01*
X111786074Y-75870133D01*
X111903334Y-75870469D01*
X111935767Y-75870606D01*
X112042708Y-75870980D01*
X112172443Y-75871343D01*
X112322515Y-75871693D01*
X112490467Y-75872027D01*
X112673842Y-75872345D01*
X112870182Y-75872644D01*
X113077030Y-75872923D01*
X113291931Y-75873180D01*
X113512425Y-75873413D01*
X113736057Y-75873621D01*
X113960370Y-75873802D01*
X114182905Y-75873953D01*
X114401207Y-75874074D01*
X114612818Y-75874163D01*
X114815281Y-75874218D01*
X115006139Y-75874236D01*
X115182935Y-75874218D01*
X115343212Y-75874160D01*
X115484512Y-75874061D01*
X115604380Y-75873919D01*
X115700357Y-75873733D01*
X115769986Y-75873500D01*
X115810812Y-75873220D01*
X115846231Y-75872870D01*
X115943247Y-75872569D01*
X116040131Y-75873099D01*
X116132434Y-75874348D01*
X116215711Y-75876202D01*
X116285514Y-75878548D01*
X116337397Y-75881274D01*
X116366911Y-75884267D01*
X116369612Y-75887413D01*
X116355145Y-75893540D01*
X116342258Y-75909968D01*
X116343368Y-75915027D01*
X116357566Y-75915915D01*
X116372433Y-75913449D01*
X116402895Y-75922522D01*
X116426616Y-75930528D01*
X116440847Y-75917924D01*
X116456390Y-75905217D01*
X116496958Y-75904330D01*
X116500090Y-75904822D01*
X116529307Y-75913858D01*
X116536560Y-75925281D01*
X116535543Y-75931346D01*
X116535408Y-75932149D01*
X116551428Y-75939161D01*
X116576834Y-75947254D01*
X116587543Y-75966686D01*
X116587720Y-75967008D01*
X116575560Y-75986770D01*
X116564885Y-75991715D01*
X116542296Y-75991915D01*
X116538588Y-75990334D01*
X116529827Y-75999840D01*
X116529832Y-76000352D01*
X116538140Y-76019616D01*
X116553376Y-76026240D01*
X116562323Y-76014330D01*
X116564613Y-76002589D01*
X116572030Y-76015176D01*
X116581323Y-76028660D01*
X116594717Y-76015176D01*
X116595915Y-76013437D01*
X116602862Y-76010732D01*
X116599983Y-76029937D01*
X116598946Y-76036854D01*
X116596753Y-76047279D01*
X116596950Y-76056392D01*
X116597308Y-76072961D01*
X116614592Y-76079838D01*
X116627699Y-76082606D01*
X116649221Y-76103285D01*
X116655050Y-76114301D01*
X116671789Y-76126731D01*
X116676649Y-76124114D01*
X116676510Y-76109683D01*
X116666843Y-76079890D01*
X116646417Y-76031646D01*
X116613998Y-75961863D01*
X116568356Y-75867451D01*
X116550384Y-75830950D01*
X116520197Y-75772656D01*
X116491976Y-75725349D01*
X116460766Y-75682557D01*
X116421609Y-75637808D01*
X116369549Y-75584630D01*
X116299631Y-75516552D01*
X116269747Y-75487544D01*
X116198513Y-75417221D01*
X116130399Y-75348512D01*
X116071934Y-75288042D01*
X116029642Y-75242439D01*
X116026546Y-75238938D01*
X115963467Y-75159252D01*
X115896222Y-75061102D01*
X115831145Y-74954806D01*
X115774571Y-74850679D01*
X115732833Y-74759038D01*
X115713774Y-74717440D01*
X115675343Y-74651582D01*
X115634888Y-74597789D01*
X115609513Y-74566872D01*
X115587241Y-74531431D01*
X115581848Y-74509349D01*
X115579948Y-74492793D01*
X115566302Y-74453606D01*
X115543308Y-74400112D01*
X115514226Y-74339400D01*
X115482318Y-74278556D01*
X115450846Y-74224669D01*
X115444399Y-74216386D01*
X115413664Y-74186731D01*
X115367315Y-74148355D01*
X115312641Y-74107438D01*
X115295216Y-74094827D01*
X115223659Y-74040057D01*
X115147236Y-73977980D01*
X115079773Y-73919741D01*
X115063837Y-73905630D01*
X114990291Y-73844594D01*
X114909493Y-73782429D01*
X114836244Y-73730627D01*
X114821189Y-73720656D01*
X114762154Y-73681656D01*
X114684976Y-73630769D01*
X114595601Y-73571913D01*
X114499974Y-73509002D01*
X114489697Y-73502248D01*
X115329891Y-73502248D01*
X115333030Y-73509963D01*
X115356134Y-73518174D01*
X115402884Y-73528032D01*
X115476964Y-73540690D01*
X115556112Y-73553126D01*
X115609633Y-73560303D01*
X115640211Y-73562269D01*
X115651767Y-73559272D01*
X115648224Y-73551561D01*
X115646574Y-73550341D01*
X115621724Y-73541800D01*
X115576192Y-73531063D01*
X115518511Y-73519627D01*
X115457212Y-73508993D01*
X115400829Y-73500658D01*
X115357894Y-73496121D01*
X115336941Y-73496883D01*
X115329891Y-73502248D01*
X114489697Y-73502248D01*
X114404042Y-73445954D01*
X114371479Y-73424524D01*
X114275132Y-73360692D01*
X114181312Y-73297959D01*
X114095937Y-73240316D01*
X114024926Y-73191750D01*
X113974196Y-73156251D01*
X113893301Y-73101383D01*
X113788244Y-73036363D01*
X113677476Y-72973154D01*
X113568702Y-72915958D01*
X113469627Y-72868981D01*
X113387955Y-72836424D01*
X113383964Y-72835093D01*
X113319077Y-72817566D01*
X113231101Y-72799205D01*
X113127516Y-72781432D01*
X113015802Y-72765669D01*
X112987157Y-72761963D01*
X112871671Y-72745611D01*
X112747977Y-72726296D01*
X112629172Y-72706126D01*
X112528350Y-72687209D01*
X112522883Y-72686110D01*
X112356969Y-72653890D01*
X112213543Y-72628286D01*
X112094550Y-72609606D01*
X112001931Y-72598155D01*
X111937631Y-72594240D01*
X111896300Y-72598910D01*
X111844069Y-72618161D01*
X111784760Y-72654675D01*
X111714394Y-72710969D01*
X111628992Y-72789561D01*
X111604176Y-72813982D01*
X111562235Y-72860314D01*
X111527966Y-72908558D01*
X111495294Y-72967886D01*
X111458143Y-73047469D01*
X111453078Y-73058908D01*
X111418417Y-73140622D01*
X111378773Y-73238628D01*
X111338655Y-73341606D01*
X111302569Y-73438238D01*
X111288421Y-73476569D01*
X111226688Y-73631744D01*
X111177731Y-73742247D01*
X111160533Y-73781065D01*
X111093740Y-73916322D01*
X111030096Y-74029307D01*
X111018057Y-74046469D01*
X110970461Y-74098143D01*
X110898260Y-74162747D01*
X110803313Y-74238563D01*
X110787559Y-74250728D01*
X110714624Y-74309868D01*
X110647672Y-74368413D01*
X110630637Y-74384701D01*
X110593189Y-74420507D01*
X110557664Y-74460295D01*
X110529606Y-74497742D01*
X110484943Y-74557760D01*
X110433713Y-74626909D01*
X110382351Y-74696515D01*
X110379574Y-74700276D01*
X110311563Y-74786612D01*
X110241720Y-74865431D01*
X110173957Y-74933085D01*
X110112182Y-74985926D01*
X110060305Y-75020306D01*
X110022234Y-75032577D01*
X110022233Y-75032577D01*
X109973966Y-75019702D01*
X109943961Y-74982265D01*
X109933642Y-74922045D01*
X109933511Y-74909075D01*
X109931493Y-74874507D01*
X109927814Y-74860638D01*
X109920861Y-74862788D01*
X109891935Y-74874396D01*
X109849502Y-74892701D01*
X109823395Y-74902763D01*
X109761817Y-74918461D01*
X109682100Y-74929794D01*
X109581005Y-74937045D01*
X109455294Y-74940495D01*
X109301728Y-74940426D01*
X109210070Y-74938436D01*
X109092377Y-74931136D01*
X108998593Y-74917853D01*
X108924458Y-74897639D01*
X108865709Y-74869544D01*
X108818087Y-74832616D01*
X108804615Y-74819258D01*
X108741721Y-74737163D01*
X108707796Y-74648275D01*
X108705618Y-74610550D01*
X108946324Y-74610550D01*
X108946705Y-74634340D01*
X108960791Y-74674196D01*
X108962818Y-74679290D01*
X108983895Y-74721574D01*
X109002063Y-74734630D01*
X109019242Y-74719961D01*
X109021550Y-74713763D01*
X109010436Y-74704331D01*
X109000156Y-74699992D01*
X109011059Y-74681328D01*
X109012475Y-74679516D01*
X109028953Y-74646986D01*
X109042589Y-74603174D01*
X109047817Y-74575427D01*
X109045750Y-74553563D01*
X109030327Y-74548023D01*
X109003790Y-74556977D01*
X108971150Y-74580412D01*
X108961046Y-74590153D01*
X108946324Y-74610550D01*
X108705618Y-74610550D01*
X108702090Y-74549448D01*
X108711344Y-74501860D01*
X109027771Y-74501860D01*
X109047184Y-74512526D01*
X109089581Y-74516761D01*
X109104030Y-74517084D01*
X109136932Y-74521183D01*
X109148196Y-74528485D01*
X109148010Y-74529076D01*
X109152104Y-74543687D01*
X109190618Y-74557115D01*
X109249171Y-74571179D01*
X109275861Y-74575427D01*
X109307665Y-74580489D01*
X109351396Y-74582202D01*
X109379393Y-74577790D01*
X109398104Y-74563639D01*
X109402196Y-74531402D01*
X109403518Y-74511457D01*
X109414088Y-74488410D01*
X109431523Y-74493997D01*
X109451339Y-74528485D01*
X109452102Y-74530374D01*
X109466141Y-74554372D01*
X109475987Y-74551072D01*
X109473953Y-74530080D01*
X109460231Y-74489510D01*
X109437663Y-74439590D01*
X109391799Y-74348506D01*
X109435565Y-74361058D01*
X109439653Y-74362240D01*
X109485168Y-74378933D01*
X109515027Y-74402348D01*
X109543468Y-74443343D01*
X109563415Y-74473257D01*
X109574909Y-74478543D01*
X109584142Y-74461977D01*
X109591224Y-74429492D01*
X109593323Y-74384701D01*
X109592293Y-74359930D01*
X109590291Y-74305467D01*
X109588316Y-74245766D01*
X109585934Y-74205998D01*
X109580251Y-74176420D01*
X109572232Y-74175428D01*
X109564805Y-74192914D01*
X109558743Y-74230447D01*
X109558636Y-74233863D01*
X109546480Y-74261852D01*
X109511955Y-74274940D01*
X109451870Y-74274441D01*
X109414917Y-74268977D01*
X109388539Y-74256847D01*
X109392626Y-74239768D01*
X109399863Y-74236927D01*
X109416723Y-74249252D01*
X109425182Y-74258909D01*
X109439546Y-74253832D01*
X109441056Y-74244805D01*
X109425850Y-74231093D01*
X109396832Y-74224528D01*
X109365321Y-74228910D01*
X109352367Y-74236882D01*
X109339673Y-74260526D01*
X109338188Y-74269764D01*
X109324042Y-74282300D01*
X109318412Y-74287574D01*
X109311223Y-74315871D01*
X109308412Y-74360454D01*
X109307643Y-74385692D01*
X109301748Y-74424214D01*
X109291314Y-74438608D01*
X109286781Y-74436899D01*
X109280784Y-74413051D01*
X109284965Y-74360454D01*
X109288697Y-74314266D01*
X109283167Y-74286243D01*
X109267484Y-74287000D01*
X109242218Y-74317113D01*
X109219103Y-74351925D01*
X109191840Y-74299206D01*
X109186734Y-74289704D01*
X109166552Y-74262806D01*
X109152686Y-74265728D01*
X109146630Y-74273490D01*
X109126910Y-74284097D01*
X109123910Y-74285508D01*
X109118064Y-74306649D01*
X109118276Y-74345261D01*
X109119357Y-74362911D01*
X109115329Y-74399997D01*
X109098738Y-74416809D01*
X109086621Y-74424319D01*
X109073950Y-74448586D01*
X109071282Y-74459893D01*
X109050504Y-74479847D01*
X109034581Y-74487826D01*
X109027771Y-74501860D01*
X108711344Y-74501860D01*
X108723853Y-74437537D01*
X108743365Y-74377984D01*
X108762984Y-74338442D01*
X108785179Y-74318830D01*
X108814049Y-74313513D01*
X108816984Y-74313342D01*
X108849887Y-74304575D01*
X108899339Y-74285172D01*
X108955823Y-74258806D01*
X108963018Y-74255228D01*
X109021104Y-74229357D01*
X109072673Y-74211076D01*
X109107301Y-74204146D01*
X109138839Y-74199650D01*
X109160998Y-74186770D01*
X109162640Y-74184501D01*
X109190021Y-74164340D01*
X109239289Y-74139899D01*
X109303052Y-74114194D01*
X109373918Y-74090242D01*
X109444495Y-74071060D01*
X109472482Y-74065131D01*
X109546440Y-74052292D01*
X109631674Y-74040168D01*
X109714812Y-74030753D01*
X109792499Y-74023325D01*
X109870067Y-74015733D01*
X109926987Y-74009774D01*
X109969176Y-74004725D01*
X110002548Y-73999866D01*
X110033019Y-73994473D01*
X110066504Y-73987824D01*
X110131753Y-73972850D01*
X110187640Y-73953652D01*
X110230241Y-73928410D01*
X110269220Y-73892583D01*
X110279676Y-73881994D01*
X110335365Y-73835729D01*
X110388483Y-73802460D01*
X110702924Y-73802460D01*
X110703476Y-73805905D01*
X110708618Y-73822567D01*
X110718067Y-73816188D01*
X110736497Y-73784227D01*
X110753462Y-73742247D01*
X110749221Y-73716118D01*
X110735161Y-73712061D01*
X110715647Y-73734351D01*
X110705988Y-73761087D01*
X110702924Y-73802460D01*
X110388483Y-73802460D01*
X110396789Y-73797258D01*
X110454925Y-73771601D01*
X110500751Y-73763777D01*
X110554792Y-73758346D01*
X110592019Y-73735027D01*
X110605765Y-73697565D01*
X110607573Y-73683144D01*
X110621112Y-73640419D01*
X110643551Y-73592607D01*
X110652487Y-73575485D01*
X110679815Y-73513088D01*
X110699688Y-73453869D01*
X110703719Y-73439748D01*
X110725891Y-73380450D01*
X110751780Y-73329312D01*
X110759554Y-73316147D01*
X110787455Y-73261145D01*
X110811338Y-73204266D01*
X110813229Y-73199163D01*
X110829215Y-73158074D01*
X110854516Y-73094871D01*
X110886861Y-73015161D01*
X110923977Y-72924548D01*
X110963593Y-72828638D01*
X110971178Y-72810320D01*
X111015764Y-72700441D01*
X111051799Y-72605892D01*
X111081596Y-72518985D01*
X111107468Y-72432031D01*
X111131730Y-72337340D01*
X111156696Y-72227223D01*
X111158282Y-72219670D01*
X111689408Y-72219670D01*
X111695615Y-72235185D01*
X111714872Y-72264979D01*
X111720318Y-72272160D01*
X111748271Y-72301074D01*
X111780040Y-72325891D01*
X111808795Y-72342483D01*
X111827703Y-72346723D01*
X111829933Y-72334485D01*
X111825085Y-72325153D01*
X111808716Y-72312823D01*
X111799960Y-72307891D01*
X111786641Y-72283934D01*
X111783924Y-72277995D01*
X111759144Y-72251869D01*
X111723018Y-72228903D01*
X111690304Y-72219038D01*
X111689408Y-72219670D01*
X111158282Y-72219670D01*
X111184679Y-72093992D01*
X111184691Y-72093933D01*
X111215448Y-71959768D01*
X111219088Y-71947583D01*
X111574873Y-71947583D01*
X111574973Y-71949951D01*
X111586507Y-71985082D01*
X111613449Y-72034288D01*
X111650452Y-72089524D01*
X111692171Y-72142744D01*
X111733258Y-72185903D01*
X111754174Y-72204386D01*
X111787065Y-72228672D01*
X111804329Y-72231110D01*
X111809335Y-72212895D01*
X111812477Y-72198578D01*
X111828649Y-72185075D01*
X111864016Y-72174338D01*
X111924567Y-72163813D01*
X111956226Y-72157863D01*
X111988233Y-72143738D01*
X111992961Y-72121443D01*
X111972902Y-72087017D01*
X111972558Y-72086563D01*
X111950864Y-72067082D01*
X111931928Y-72074562D01*
X111917761Y-72083356D01*
X111885094Y-72077080D01*
X111866456Y-72069696D01*
X111856227Y-72077811D01*
X111855572Y-72083634D01*
X111842283Y-72093972D01*
X111819234Y-72085474D01*
X111796181Y-72060888D01*
X111776663Y-72039403D01*
X111758402Y-72044888D01*
X111750439Y-72062298D01*
X111765125Y-72089715D01*
X111774600Y-72101736D01*
X111793857Y-72134326D01*
X111802387Y-72161059D01*
X111796468Y-72172146D01*
X111788496Y-72168755D01*
X111762006Y-72147020D01*
X111725426Y-72110673D01*
X111684785Y-72066168D01*
X111653754Y-72029083D01*
X112003604Y-72029083D01*
X112011567Y-72068001D01*
X112026632Y-72096654D01*
X112042487Y-72109623D01*
X112062736Y-72101233D01*
X112067567Y-72074667D01*
X112051504Y-72036926D01*
X112032062Y-72014634D01*
X112031696Y-72014547D01*
X112075005Y-72014547D01*
X112082354Y-72040559D01*
X112103642Y-72068123D01*
X112113245Y-72074667D01*
X112132932Y-72088083D01*
X112158429Y-72093004D01*
X112164832Y-72084375D01*
X113168435Y-72084375D01*
X113180020Y-72101939D01*
X113196822Y-72121443D01*
X113212043Y-72139112D01*
X113264145Y-72195283D01*
X113335966Y-72269838D01*
X113395701Y-72329948D01*
X113400522Y-72334485D01*
X113443762Y-72375180D01*
X113475259Y-72399992D01*
X113492292Y-72406015D01*
X113496964Y-72394885D01*
X113491063Y-72381020D01*
X113468098Y-72352394D01*
X113426177Y-72309218D01*
X113373398Y-72259064D01*
X114453933Y-72259064D01*
X114457255Y-72264358D01*
X114482196Y-72250300D01*
X114493190Y-72241011D01*
X114487026Y-72234908D01*
X114481578Y-72235439D01*
X114458750Y-72250300D01*
X114453933Y-72259064D01*
X113373398Y-72259064D01*
X113363569Y-72249724D01*
X113278541Y-72172146D01*
X113259909Y-72155459D01*
X113208020Y-72110523D01*
X113177649Y-72087032D01*
X113168435Y-72084375D01*
X112164832Y-72084375D01*
X112168842Y-72078970D01*
X112161145Y-72062477D01*
X112137595Y-72035330D01*
X112109293Y-72010850D01*
X112087741Y-72000208D01*
X112084061Y-72000619D01*
X112075005Y-72014547D01*
X112031696Y-72014547D01*
X112012211Y-72009912D01*
X112003604Y-72029083D01*
X111653754Y-72029083D01*
X111646116Y-72019955D01*
X111615448Y-71978488D01*
X111595468Y-71950505D01*
X111579713Y-71936337D01*
X111574873Y-71947583D01*
X111219088Y-71947583D01*
X111242433Y-71869442D01*
X114250500Y-71869442D01*
X114263365Y-71875161D01*
X114271640Y-71874033D01*
X114273786Y-71864741D01*
X114271495Y-71862870D01*
X114252945Y-71864741D01*
X114250500Y-71869442D01*
X111242433Y-71869442D01*
X111247820Y-71851409D01*
X111283702Y-71763402D01*
X111324990Y-71690296D01*
X111339294Y-71667187D01*
X111365012Y-71617494D01*
X111379624Y-71577560D01*
X111398438Y-71539070D01*
X111444489Y-71498492D01*
X111453375Y-71492882D01*
X111483330Y-71472038D01*
X111575954Y-71472038D01*
X111594412Y-71496180D01*
X111602700Y-71500844D01*
X111637606Y-71511274D01*
X111685449Y-71519913D01*
X111735390Y-71525410D01*
X111776588Y-71526414D01*
X111789741Y-71523469D01*
X111996904Y-71523469D01*
X112004719Y-71531285D01*
X112029848Y-71531285D01*
X112030536Y-71534851D01*
X112046093Y-71554643D01*
X112075058Y-71585992D01*
X112093337Y-71604380D01*
X112121432Y-71630458D01*
X112135898Y-71640700D01*
X112135210Y-71637134D01*
X112119653Y-71617341D01*
X112119573Y-71617254D01*
X114278996Y-71617254D01*
X114286812Y-71625069D01*
X114294627Y-71617254D01*
X114286812Y-71609438D01*
X114278996Y-71617254D01*
X112119573Y-71617254D01*
X112090689Y-71585992D01*
X112076105Y-71571322D01*
X114104452Y-71571322D01*
X114107588Y-71575103D01*
X114123456Y-71569439D01*
X114357150Y-71569439D01*
X114358399Y-71579007D01*
X114372781Y-71601623D01*
X114382394Y-71600712D01*
X114388412Y-71579099D01*
X114385358Y-71560046D01*
X114372781Y-71546915D01*
X114365890Y-71549237D01*
X114357150Y-71569439D01*
X114123456Y-71569439D01*
X114137697Y-71564356D01*
X114194429Y-71538882D01*
X114219927Y-71525980D01*
X114258294Y-71503308D01*
X114288810Y-71481861D01*
X114306809Y-71465472D01*
X114307624Y-71457972D01*
X114291763Y-71461910D01*
X114286587Y-71463195D01*
X114264046Y-71473958D01*
X114230587Y-71492208D01*
X114221710Y-71497050D01*
X114176440Y-71523469D01*
X114171973Y-71526076D01*
X114128636Y-71553212D01*
X114104452Y-71571322D01*
X112076105Y-71571322D01*
X112072409Y-71567604D01*
X112044314Y-71541526D01*
X112029848Y-71531285D01*
X112004719Y-71531285D01*
X112012535Y-71523469D01*
X112004719Y-71515654D01*
X111996904Y-71523469D01*
X111789741Y-71523469D01*
X111798204Y-71521574D01*
X111806156Y-71510868D01*
X111805078Y-71492208D01*
X111950012Y-71492208D01*
X111957827Y-71500023D01*
X111965642Y-71492208D01*
X111957827Y-71484392D01*
X111950012Y-71492208D01*
X111805078Y-71492208D01*
X111804745Y-71486447D01*
X111778073Y-71453131D01*
X111746812Y-71421869D01*
X111797612Y-71422142D01*
X111808366Y-71422526D01*
X111855366Y-71426819D01*
X111918796Y-71434841D01*
X111988071Y-71445303D01*
X112019194Y-71450221D01*
X112076158Y-71458148D01*
X112116850Y-71462320D01*
X112134012Y-71461910D01*
X112128124Y-71450867D01*
X112103768Y-71431751D01*
X112098109Y-71428612D01*
X112056858Y-71415871D01*
X111994853Y-71405144D01*
X111920620Y-71397178D01*
X111842684Y-71392717D01*
X111769572Y-71392507D01*
X111709810Y-71397295D01*
X111697712Y-71399290D01*
X111652683Y-71412616D01*
X111638208Y-71429685D01*
X111637396Y-71430642D01*
X111631479Y-71443768D01*
X111606135Y-71453131D01*
X111585984Y-71456293D01*
X111575954Y-71472038D01*
X111483330Y-71472038D01*
X111495121Y-71463833D01*
X111525438Y-71438789D01*
X111535281Y-71429685D01*
X111590504Y-71429685D01*
X111598319Y-71437500D01*
X111606135Y-71429685D01*
X111598319Y-71421869D01*
X111590504Y-71429685D01*
X111535281Y-71429685D01*
X111541047Y-71424352D01*
X111578033Y-71392438D01*
X111621765Y-71356379D01*
X111622069Y-71356134D01*
X111668037Y-71312687D01*
X111702562Y-71262201D01*
X111733806Y-71192756D01*
X111756110Y-71132373D01*
X111774670Y-71076386D01*
X111785374Y-71037167D01*
X111798248Y-71003470D01*
X111835284Y-70970281D01*
X111848688Y-70963541D01*
X111867530Y-70943248D01*
X111864938Y-70909506D01*
X111856728Y-70865885D01*
X111859033Y-70811718D01*
X111880543Y-70757976D01*
X111881089Y-70756959D01*
X111889789Y-70738684D01*
X111894685Y-70719418D01*
X111895175Y-70694264D01*
X111890655Y-70658328D01*
X111880523Y-70606711D01*
X111864177Y-70534519D01*
X111841013Y-70436854D01*
X111812028Y-70323614D01*
X111774097Y-70191724D01*
X111734274Y-70067640D01*
X111696079Y-69962878D01*
X111616451Y-69762163D01*
X111568308Y-69772201D01*
X111552007Y-69775323D01*
X111499272Y-69783787D01*
X111442012Y-69791410D01*
X111415861Y-69795013D01*
X111368200Y-69804306D01*
X111337745Y-69813942D01*
X111320239Y-69819546D01*
X111275859Y-69829250D01*
X111214019Y-69840370D01*
X111142360Y-69851439D01*
X111129972Y-69853239D01*
X111024619Y-69872403D01*
X110936075Y-69897302D01*
X110851286Y-69931526D01*
X110850841Y-69931731D01*
X110784567Y-69958570D01*
X110708372Y-69982133D01*
X110617991Y-70003291D01*
X110509160Y-70022920D01*
X110377615Y-70041892D01*
X110219092Y-70061083D01*
X110186963Y-70065106D01*
X110097883Y-70079297D01*
X110009775Y-70096918D01*
X109937738Y-70115072D01*
X109864117Y-70134756D01*
X109773975Y-70155296D01*
X109692915Y-70170528D01*
X109675188Y-70173571D01*
X109571880Y-70198049D01*
X109451817Y-70235668D01*
X109323200Y-70283652D01*
X109194228Y-70339227D01*
X109187876Y-70342144D01*
X109134626Y-70363868D01*
X109100062Y-70370801D01*
X109076998Y-70364494D01*
X109053772Y-70342167D01*
X109047902Y-70303301D01*
X109071463Y-70254197D01*
X109087571Y-70224833D01*
X109110029Y-70155418D01*
X109125706Y-70067469D01*
X109133394Y-69968724D01*
X109131884Y-69866923D01*
X109131253Y-69857043D01*
X109128382Y-69791987D01*
X109131975Y-69751034D01*
X109145342Y-69727913D01*
X109171789Y-69716350D01*
X109214627Y-69710074D01*
X109243763Y-69705937D01*
X109284965Y-69697515D01*
X109304790Y-69692894D01*
X109335765Y-69688050D01*
X109346604Y-69682425D01*
X109355304Y-69657517D01*
X109357171Y-69647822D01*
X109380502Y-69622298D01*
X109432448Y-69594994D01*
X109497687Y-69571453D01*
X109560434Y-69562861D01*
X109602270Y-69577438D01*
X109613016Y-69585313D01*
X109605396Y-69574312D01*
X109592589Y-69554063D01*
X109597543Y-69539299D01*
X109625164Y-69527549D01*
X109679642Y-69515493D01*
X109718363Y-69507184D01*
X109766972Y-69494173D01*
X109797175Y-69482802D01*
X109798805Y-69481953D01*
X109829779Y-69471173D01*
X109880442Y-69458045D01*
X109940680Y-69445216D01*
X109942486Y-69444868D01*
X110006994Y-69430250D01*
X110065579Y-69413291D01*
X110105762Y-69397591D01*
X110135103Y-69384145D01*
X110190105Y-69362495D01*
X110249609Y-69341906D01*
X110293430Y-69326540D01*
X110351703Y-69302441D01*
X110394778Y-69280436D01*
X110400678Y-69276917D01*
X110443071Y-69257226D01*
X110477639Y-69249192D01*
X110510790Y-69244490D01*
X110539838Y-69235504D01*
X110577388Y-69235504D01*
X110583101Y-69247742D01*
X110601652Y-69260625D01*
X110635888Y-69277412D01*
X110673080Y-69291644D01*
X110702941Y-69299476D01*
X110715181Y-69297068D01*
X110714429Y-69294523D01*
X110696449Y-69278254D01*
X110662019Y-69258789D01*
X110628095Y-69244424D01*
X110594397Y-69234679D01*
X110577388Y-69235504D01*
X110539838Y-69235504D01*
X110553948Y-69231139D01*
X110571073Y-69225557D01*
X110583760Y-69223086D01*
X110812232Y-69223086D01*
X110816317Y-69236616D01*
X110848493Y-69261059D01*
X110877712Y-69277786D01*
X110899703Y-69283398D01*
X110898854Y-69270966D01*
X110893214Y-69264823D01*
X111452797Y-69264823D01*
X111455222Y-69273441D01*
X111463159Y-69283398D01*
X111473273Y-69296085D01*
X111474258Y-69297068D01*
X111494305Y-69317074D01*
X111509380Y-69327346D01*
X111506955Y-69318728D01*
X111488904Y-69296085D01*
X111467873Y-69275095D01*
X111452797Y-69264823D01*
X110893214Y-69264823D01*
X110872652Y-69242429D01*
X110847521Y-69226120D01*
X110818395Y-69220468D01*
X110812232Y-69223086D01*
X110583760Y-69223086D01*
X110621945Y-69215649D01*
X110678596Y-69210617D01*
X110692667Y-69209802D01*
X110763405Y-69197382D01*
X110804209Y-69183000D01*
X110902750Y-69183000D01*
X110908314Y-69189447D01*
X110935996Y-69204668D01*
X110979094Y-69222077D01*
X110995238Y-69227793D01*
X111039938Y-69242745D01*
X111063661Y-69247374D01*
X111073036Y-69242025D01*
X111074601Y-69227842D01*
X111374438Y-69227842D01*
X111387304Y-69233561D01*
X111395579Y-69232433D01*
X111397724Y-69223141D01*
X111395434Y-69221270D01*
X111376883Y-69223141D01*
X111374855Y-69227041D01*
X111374438Y-69227842D01*
X111074601Y-69227842D01*
X111074689Y-69227041D01*
X111072609Y-69220520D01*
X111047130Y-69203183D01*
X110995765Y-69187964D01*
X110976459Y-69183827D01*
X110933477Y-69175001D01*
X110911636Y-69172175D01*
X110903779Y-69174969D01*
X110902750Y-69183000D01*
X110804209Y-69183000D01*
X110827088Y-69174936D01*
X110850990Y-69163461D01*
X111112295Y-69163461D01*
X111128474Y-69171038D01*
X111140120Y-69169125D01*
X111145594Y-69163223D01*
X111277889Y-69163223D01*
X111285704Y-69171038D01*
X111293519Y-69163223D01*
X111285704Y-69155408D01*
X111277889Y-69163223D01*
X111145594Y-69163223D01*
X111152842Y-69155408D01*
X111152421Y-69151699D01*
X111138134Y-69139777D01*
X111133749Y-69140373D01*
X111113765Y-69155408D01*
X111112295Y-69163461D01*
X110850990Y-69163461D01*
X110874437Y-69152204D01*
X110949920Y-69118196D01*
X110974353Y-69108515D01*
X111105950Y-69108515D01*
X111106129Y-69112053D01*
X111112843Y-69124146D01*
X111115350Y-69123427D01*
X111129396Y-69108515D01*
X111131839Y-69102460D01*
X111122503Y-69092885D01*
X111117966Y-69093485D01*
X111105950Y-69108515D01*
X110974353Y-69108515D01*
X111007643Y-69095325D01*
X111042803Y-69085580D01*
X111043644Y-69085483D01*
X111114042Y-69067566D01*
X111188757Y-69032663D01*
X111260911Y-68985881D01*
X111291194Y-68960023D01*
X112200310Y-68960023D01*
X112200340Y-68960718D01*
X112207455Y-68983451D01*
X112224653Y-69025121D01*
X112248453Y-69077254D01*
X112260180Y-69102460D01*
X112278030Y-69140828D01*
X112287525Y-69163223D01*
X112312928Y-69223141D01*
X112357108Y-69327346D01*
X112376945Y-69374136D01*
X112465968Y-69616515D01*
X112483228Y-69666718D01*
X112515651Y-69758383D01*
X112548242Y-69847829D01*
X112576038Y-69921315D01*
X112580028Y-69931707D01*
X112608721Y-70013879D01*
X112635711Y-70102186D01*
X112655628Y-70179223D01*
X112683439Y-70304269D01*
X112675238Y-70171408D01*
X112673859Y-70149314D01*
X112667380Y-70054706D01*
X112661245Y-69984745D01*
X112654780Y-69933926D01*
X112647315Y-69896742D01*
X112638177Y-69867689D01*
X112630957Y-69840958D01*
X112637806Y-69796194D01*
X112644643Y-69777584D01*
X112639143Y-69758043D01*
X112633016Y-69756063D01*
X112618619Y-69767741D01*
X112616802Y-69769289D01*
X112606046Y-69756726D01*
X112589684Y-69726065D01*
X112571333Y-69685610D01*
X112554611Y-69643666D01*
X112543138Y-69608537D01*
X112540531Y-69588528D01*
X112538694Y-69572546D01*
X112525925Y-69541645D01*
X112516307Y-69518380D01*
X112501388Y-69469890D01*
X112487627Y-69413325D01*
X112478970Y-69374603D01*
X112462242Y-69304508D01*
X112442010Y-69223178D01*
X112420928Y-69141432D01*
X112413926Y-69114631D01*
X112390610Y-69020378D01*
X112376156Y-68950431D01*
X112369965Y-68900404D01*
X112371434Y-68865912D01*
X112379962Y-68842567D01*
X112383415Y-68835795D01*
X112376941Y-68832822D01*
X112347992Y-68849369D01*
X112346714Y-68850198D01*
X112299564Y-68880682D01*
X112251097Y-68911892D01*
X112242216Y-68917837D01*
X112212426Y-68942239D01*
X112200310Y-68960023D01*
X111291194Y-68960023D01*
X111323627Y-68932329D01*
X111370028Y-68877112D01*
X111393237Y-68825339D01*
X111395814Y-68814155D01*
X111413661Y-68762536D01*
X111438352Y-68710895D01*
X111454769Y-68683774D01*
X111473538Y-68662777D01*
X111499876Y-68648246D01*
X111541502Y-68636104D01*
X111606135Y-68622274D01*
X111727204Y-68595981D01*
X111910518Y-68550234D01*
X112111976Y-68493185D01*
X112137404Y-68485917D01*
X112207050Y-68468594D01*
X112269015Y-68456543D01*
X112312295Y-68452023D01*
X112320297Y-68451881D01*
X112369954Y-68445918D01*
X112408239Y-68433898D01*
X112435556Y-68415766D01*
X112476644Y-68383421D01*
X112523971Y-68343111D01*
X112571423Y-68300357D01*
X112612888Y-68260676D01*
X112642250Y-68229587D01*
X112653396Y-68212609D01*
X112647237Y-68195562D01*
X112646195Y-68194115D01*
X112731550Y-68194115D01*
X112739365Y-68201931D01*
X112747181Y-68194115D01*
X112739365Y-68186300D01*
X112731550Y-68194115D01*
X112646195Y-68194115D01*
X112626854Y-68167248D01*
X112619439Y-68158677D01*
X112608881Y-68138851D01*
X112610859Y-68113449D01*
X112625170Y-68070851D01*
X112630874Y-68053715D01*
X112641734Y-68003244D01*
X112642409Y-67963931D01*
X112641485Y-67932394D01*
X112652459Y-67891067D01*
X112661293Y-67869000D01*
X112653946Y-67858054D01*
X112652313Y-67858022D01*
X112638431Y-67848354D01*
X112649663Y-67822391D01*
X112685435Y-67781527D01*
X112689925Y-67776563D01*
X113125266Y-67776563D01*
X113129659Y-67807254D01*
X113130501Y-67810438D01*
X113147475Y-67854815D01*
X113171827Y-67901236D01*
X113198848Y-67938159D01*
X113238120Y-67969166D01*
X113274719Y-67971870D01*
X113289033Y-67962575D01*
X113292281Y-67945126D01*
X113273234Y-67936208D01*
X113251776Y-67927979D01*
X113223128Y-67904072D01*
X113215099Y-67894727D01*
X113202853Y-67868806D01*
X113213023Y-67841549D01*
X113217008Y-67834975D01*
X113223628Y-67815810D01*
X113208912Y-67811161D01*
X113197241Y-67807874D01*
X113194821Y-67787715D01*
X113195780Y-67784946D01*
X113191406Y-67768913D01*
X113161374Y-67764269D01*
X113138721Y-67765522D01*
X113125266Y-67776563D01*
X112689925Y-67776563D01*
X112711991Y-67752167D01*
X112723273Y-67727137D01*
X112716697Y-67703199D01*
X112708704Y-67676742D01*
X113195210Y-67676742D01*
X113197542Y-67686942D01*
X113227688Y-67704872D01*
X113235591Y-67708653D01*
X113268907Y-67719512D01*
X113286741Y-67716894D01*
X113285546Y-67704689D01*
X113265295Y-67687880D01*
X113234194Y-67675663D01*
X113203562Y-67673890D01*
X113195210Y-67676742D01*
X112708704Y-67676742D01*
X112704452Y-67662669D01*
X113106689Y-67662669D01*
X113114504Y-67670485D01*
X113122319Y-67662669D01*
X113114504Y-67654854D01*
X113106689Y-67662669D01*
X112704452Y-67662669D01*
X112701728Y-67653652D01*
X112704301Y-67633504D01*
X113109453Y-67633504D01*
X113122319Y-67639223D01*
X113130594Y-67638095D01*
X113132740Y-67628802D01*
X113130449Y-67626932D01*
X113111899Y-67628802D01*
X113109453Y-67633504D01*
X112704301Y-67633504D01*
X112708980Y-67596864D01*
X112714195Y-67584785D01*
X113175261Y-67584785D01*
X113191753Y-67606961D01*
X113211153Y-67624076D01*
X113218911Y-67628802D01*
X113243989Y-67644078D01*
X113276571Y-67657520D01*
X113300173Y-67661024D01*
X113306070Y-67651214D01*
X113290853Y-67632617D01*
X113257203Y-67608169D01*
X113218160Y-67587336D01*
X113186328Y-67577842D01*
X113181957Y-67577813D01*
X113175261Y-67584785D01*
X112714195Y-67584785D01*
X112729677Y-67548930D01*
X113201456Y-67548930D01*
X113216104Y-67561069D01*
X113237804Y-67572582D01*
X113256442Y-67574877D01*
X113255181Y-67561069D01*
X113247351Y-67553643D01*
X113219089Y-67545678D01*
X113215535Y-67545731D01*
X113201456Y-67548930D01*
X112729677Y-67548930D01*
X112739365Y-67526492D01*
X112753479Y-67498306D01*
X112771425Y-67455668D01*
X112778442Y-67428433D01*
X112780857Y-67416377D01*
X112800714Y-67395234D01*
X112801013Y-67395112D01*
X112818273Y-67376679D01*
X112830863Y-67355832D01*
X113184842Y-67355832D01*
X113185349Y-67357855D01*
X113203482Y-67369975D01*
X113239550Y-67380284D01*
X113247009Y-67381805D01*
X113280606Y-67392417D01*
X113294258Y-67403545D01*
X113300462Y-67411306D01*
X113328469Y-67429046D01*
X113371402Y-67449729D01*
X113415302Y-67467920D01*
X113450458Y-67480155D01*
X113458204Y-67478743D01*
X113438177Y-67463951D01*
X113390013Y-67436046D01*
X113351239Y-67414254D01*
X113310913Y-67390544D01*
X113288413Y-67375962D01*
X113261345Y-67361828D01*
X113226841Y-67352031D01*
X113197341Y-67349255D01*
X113184842Y-67355832D01*
X112830863Y-67355832D01*
X112841853Y-67337634D01*
X112858299Y-67303679D01*
X113269317Y-67303679D01*
X113286442Y-67326608D01*
X113308676Y-67347413D01*
X113328074Y-67357869D01*
X113332023Y-67350268D01*
X113321892Y-67326608D01*
X113305177Y-67307380D01*
X113280260Y-67295346D01*
X113275284Y-67295626D01*
X113269317Y-67303679D01*
X112858299Y-67303679D01*
X112866741Y-67286250D01*
X112867206Y-67285187D01*
X112883546Y-67252420D01*
X113273589Y-67252420D01*
X113286767Y-67266129D01*
X113327075Y-67295062D01*
X113353182Y-67311101D01*
X113399682Y-67332915D01*
X113434935Y-67341317D01*
X113444259Y-67340626D01*
X113448347Y-67334259D01*
X113427713Y-67319763D01*
X113380227Y-67295346D01*
X113327929Y-67270668D01*
X113287368Y-67253933D01*
X113273589Y-67252420D01*
X112883546Y-67252420D01*
X112892784Y-67233896D01*
X112917919Y-67195173D01*
X112919979Y-67193270D01*
X113344327Y-67193270D01*
X113353250Y-67204055D01*
X113382115Y-67218804D01*
X113426332Y-67237193D01*
X113476374Y-67258466D01*
X113505529Y-67269729D01*
X113539298Y-67278613D01*
X113556733Y-67277839D01*
X113551384Y-67266699D01*
X113531460Y-67255028D01*
X113492617Y-67238021D01*
X113445184Y-67219961D01*
X113398493Y-67204185D01*
X113361880Y-67194027D01*
X113344677Y-67192825D01*
X113344327Y-67193270D01*
X112919979Y-67193270D01*
X112926821Y-67186948D01*
X113548182Y-67186948D01*
X113552165Y-67201561D01*
X113555377Y-67206188D01*
X113569641Y-67217192D01*
X113571779Y-67216174D01*
X113567796Y-67201561D01*
X113564585Y-67196934D01*
X113560452Y-67193746D01*
X113606873Y-67193746D01*
X113614689Y-67201561D01*
X113622504Y-67193746D01*
X113614689Y-67185931D01*
X113606873Y-67193746D01*
X113560452Y-67193746D01*
X113550321Y-67185931D01*
X113548182Y-67186948D01*
X112926821Y-67186948D01*
X112936380Y-67178115D01*
X113419304Y-67178115D01*
X113427119Y-67185931D01*
X113434935Y-67178115D01*
X113433857Y-67177037D01*
X113722511Y-67177037D01*
X113723078Y-67178115D01*
X113731301Y-67193746D01*
X113734694Y-67200195D01*
X113746020Y-67216174D01*
X113747706Y-67218552D01*
X113768799Y-67231718D01*
X113787270Y-67216152D01*
X113793566Y-67201250D01*
X113783836Y-67190495D01*
X113750472Y-67178691D01*
X113732502Y-67173707D01*
X113722511Y-67177037D01*
X113433857Y-67177037D01*
X113427119Y-67170300D01*
X113419304Y-67178115D01*
X112936380Y-67178115D01*
X112937233Y-67177327D01*
X112945588Y-67173272D01*
X112975331Y-67149126D01*
X112984339Y-67139217D01*
X113349076Y-67139217D01*
X113352139Y-67143317D01*
X113373334Y-67154669D01*
X113382100Y-67153844D01*
X113385259Y-67146854D01*
X113528719Y-67146854D01*
X113536535Y-67154669D01*
X113544350Y-67146854D01*
X113536535Y-67139038D01*
X113529885Y-67145688D01*
X113528719Y-67146854D01*
X113385259Y-67146854D01*
X113385786Y-67145688D01*
X113363784Y-67133074D01*
X113351592Y-67130335D01*
X113349076Y-67139217D01*
X112984339Y-67139217D01*
X113007976Y-67113215D01*
X113018035Y-67100510D01*
X113069730Y-67036182D01*
X113107753Y-66992360D01*
X113136741Y-66965376D01*
X113161333Y-66951562D01*
X113186166Y-66947249D01*
X113215877Y-66948769D01*
X113240064Y-66951806D01*
X113268618Y-66961225D01*
X113272308Y-66976653D01*
X113269915Y-66986951D01*
X113276922Y-66998361D01*
X113283835Y-67001193D01*
X113308990Y-67020463D01*
X113342262Y-67051948D01*
X113369510Y-67077377D01*
X113398538Y-67095805D01*
X113412427Y-67091610D01*
X113408505Y-67064292D01*
X113407505Y-67061393D01*
X113405250Y-67046327D01*
X113420130Y-67056977D01*
X113433395Y-67066523D01*
X113464387Y-67076515D01*
X113474770Y-67078106D01*
X113510785Y-67089951D01*
X113555862Y-67109566D01*
X113579326Y-67120150D01*
X113615098Y-67132684D01*
X113633070Y-67133682D01*
X113633186Y-67130143D01*
X113616316Y-67115551D01*
X113581455Y-67096724D01*
X113566482Y-67089511D01*
X113531957Y-67070260D01*
X113515694Y-67056977D01*
X113507902Y-67050551D01*
X113480524Y-67045254D01*
X113463581Y-67042200D01*
X113457555Y-67035603D01*
X113677999Y-67035603D01*
X113686258Y-67048041D01*
X113715370Y-67065899D01*
X113746863Y-67079987D01*
X113779559Y-67090015D01*
X113795244Y-67089452D01*
X113789566Y-67078975D01*
X113758175Y-67059257D01*
X113742964Y-67051703D01*
X113704484Y-67036801D01*
X113680609Y-67033701D01*
X113677999Y-67035603D01*
X113457555Y-67035603D01*
X113450565Y-67027951D01*
X113454938Y-67019865D01*
X113477043Y-67020808D01*
X113488904Y-67024695D01*
X113490802Y-67021808D01*
X113528719Y-67021808D01*
X113536535Y-67029623D01*
X113544350Y-67021808D01*
X113537173Y-67014630D01*
X113805105Y-67014630D01*
X113806059Y-67021808D01*
X113806935Y-67028404D01*
X113826887Y-67054504D01*
X113828276Y-67055979D01*
X113863189Y-67088494D01*
X113864520Y-67089452D01*
X113894505Y-67111030D01*
X113901850Y-67114848D01*
X113917523Y-67118393D01*
X113914043Y-67100501D01*
X113908740Y-67085720D01*
X113903858Y-67067421D01*
X113903807Y-67067384D01*
X113943694Y-67067384D01*
X113944786Y-67083519D01*
X113949831Y-67094881D01*
X113961358Y-67107271D01*
X113966381Y-67093069D01*
X113965825Y-67088823D01*
X113957125Y-67077135D01*
X114083083Y-67077135D01*
X114086546Y-67090025D01*
X114088988Y-67093069D01*
X114107058Y-67115592D01*
X114109108Y-67117751D01*
X114109833Y-67118393D01*
X114137501Y-67142907D01*
X114144842Y-67146854D01*
X114157908Y-67153879D01*
X114164626Y-67149178D01*
X114154221Y-67131223D01*
X114185212Y-67131223D01*
X114193027Y-67139038D01*
X114200842Y-67131223D01*
X114216473Y-67131223D01*
X114224289Y-67139038D01*
X114232104Y-67131223D01*
X114224289Y-67123408D01*
X114216473Y-67131223D01*
X114200842Y-67131223D01*
X114193027Y-67123408D01*
X114185212Y-67131223D01*
X114154221Y-67131223D01*
X114151956Y-67127315D01*
X114117915Y-67091341D01*
X114084795Y-67076755D01*
X114083083Y-67077135D01*
X113957125Y-67077135D01*
X113950929Y-67068811D01*
X113943694Y-67067384D01*
X113903807Y-67067384D01*
X113898791Y-67063775D01*
X113874269Y-67060885D01*
X113856998Y-67057207D01*
X113835682Y-67037438D01*
X113829329Y-67026543D01*
X113807839Y-67013992D01*
X113805105Y-67014630D01*
X113537173Y-67014630D01*
X113536535Y-67013992D01*
X113528719Y-67021808D01*
X113490802Y-67021808D01*
X113491953Y-67020058D01*
X113473965Y-66998361D01*
X113661581Y-66998361D01*
X113664775Y-67002586D01*
X113686872Y-67013992D01*
X113692128Y-67012788D01*
X113692842Y-66998361D01*
X113689648Y-66994137D01*
X113667551Y-66982731D01*
X113662295Y-66983935D01*
X113661581Y-66998361D01*
X113473965Y-66998361D01*
X113473461Y-66997753D01*
X113454451Y-66975054D01*
X113453590Y-66960769D01*
X113474337Y-66946280D01*
X113479357Y-66943654D01*
X113825704Y-66943654D01*
X113833519Y-66951469D01*
X113841335Y-66943654D01*
X113833519Y-66935838D01*
X113825704Y-66943654D01*
X113479357Y-66943654D01*
X113490558Y-66937795D01*
X113538112Y-66920394D01*
X113589757Y-66908804D01*
X113637071Y-66904093D01*
X113671635Y-66907329D01*
X113685027Y-66919578D01*
X113685037Y-66919886D01*
X113699162Y-66929289D01*
X113732055Y-66931301D01*
X113764254Y-66924237D01*
X113771623Y-66908485D01*
X113768302Y-66899927D01*
X113767699Y-66892101D01*
X113778288Y-66891752D01*
X113806318Y-66899387D01*
X113858036Y-66915515D01*
X113890855Y-66924648D01*
X113953558Y-66937488D01*
X114005458Y-66942869D01*
X114018946Y-66943654D01*
X114039101Y-66944827D01*
G37*
D12*
%TO.C,C8*%
X143108750Y-105774664D02*
X143108750Y-105990336D01*
X143828750Y-105774664D02*
X143828750Y-105990336D01*
D14*
%TO.C,U4*%
X140205000Y-118207140D02*
X140205000Y-120037500D01*
X140205000Y-120037500D02*
X145545000Y-120037500D01*
X140205000Y-124436780D02*
X140205000Y-120037500D01*
X140603780Y-118207140D02*
X140205000Y-118207140D01*
D15*
X145359120Y-124437140D02*
X145374360Y-124437140D01*
D14*
X145545000Y-120037500D02*
X145545000Y-124436780D01*
X145545000Y-124436780D02*
X140205000Y-124436780D01*
D12*
%TO.C,R_USB2*%
X143784150Y-70141209D02*
X143784150Y-70448491D01*
X144544150Y-70141209D02*
X144544150Y-70448491D01*
%TO.C,R9*%
X144082500Y-128433859D02*
X144082500Y-128741141D01*
X144842500Y-128433859D02*
X144842500Y-128741141D01*
%TO.C,R7*%
X142495000Y-128433859D02*
X142495000Y-128741141D01*
X143255000Y-128433859D02*
X143255000Y-128741141D01*
%TO.C,R1*%
X150597231Y-97848801D02*
X150904513Y-97848801D01*
X150597231Y-98608801D02*
X150904513Y-98608801D01*
%TO.C,C5*%
X136152836Y-99258750D02*
X135937164Y-99258750D01*
X136152836Y-99978750D02*
X135937164Y-99978750D01*
%TO.C,C1*%
X150613036Y-101043801D02*
X150828708Y-101043801D01*
X150613036Y-101763801D02*
X150828708Y-101763801D01*
%TO.C,C11*%
X140914151Y-115102072D02*
X141129823Y-115102072D01*
X140914151Y-115822072D02*
X141129823Y-115822072D01*
%TO.C,C_LDO1*%
X140385914Y-77571250D02*
X140601586Y-77571250D01*
X140385914Y-78291250D02*
X140601586Y-78291250D01*
%TO.C,C3*%
X142215000Y-92300387D02*
X142215000Y-92084715D01*
X142935000Y-92300387D02*
X142935000Y-92084715D01*
%TO.C,C4*%
X150619008Y-100069031D02*
X150834680Y-100069031D01*
X150619008Y-100789031D02*
X150834680Y-100789031D01*
%TO.C,R5*%
X130044891Y-98445000D02*
X129737609Y-98445000D01*
X130044891Y-99205000D02*
X129737609Y-99205000D01*
%TO.C,C10*%
X141679086Y-109552072D02*
X141463414Y-109552072D01*
X141679086Y-110272072D02*
X141463414Y-110272072D01*
%TO.C,R13*%
X141716068Y-105982500D02*
X141408786Y-105982500D01*
X141716068Y-106742500D02*
X141408786Y-106742500D01*
%TO.C,U1*%
X137810393Y-99022551D02*
X138146269Y-98686675D01*
X138146269Y-99358427D02*
X137810393Y-99022551D01*
X142579828Y-103791986D02*
X142915704Y-104127862D01*
X142915704Y-93917240D02*
X142579828Y-94253116D01*
X142915704Y-104127862D02*
X143251580Y-103791986D01*
X143251580Y-94253116D02*
X142915704Y-93917240D01*
X147685139Y-98686675D02*
X148021015Y-99022551D01*
%TO.C,R12*%
X141417609Y-108363750D02*
X141724891Y-108363750D01*
X141417609Y-109123750D02*
X141724891Y-109123750D01*
%TO.C,C9*%
X138946250Y-123717164D02*
X138946250Y-123932836D01*
X139666250Y-123717164D02*
X139666250Y-123932836D01*
%TO.C,SW17*%
X155063750Y-98186250D02*
X157723750Y-98186250D01*
X155063750Y-100786250D02*
X155063750Y-98186250D01*
X155063750Y-100786250D02*
X157723750Y-100786250D01*
X156393750Y-103386250D02*
X157723750Y-103386250D01*
X157723750Y-100786250D02*
X157723750Y-98186250D01*
X157723750Y-103386250D02*
X157723750Y-102056250D01*
%TO.C,C_LDO2*%
X140385914Y-82333750D02*
X140601586Y-82333750D01*
X140385914Y-83053750D02*
X140601586Y-83053750D01*
%TO.C,R3*%
X130035351Y-101457418D02*
X129728069Y-101457418D01*
X130035351Y-102217418D02*
X129728069Y-102217418D01*
%TO.C,C6*%
X143308750Y-92301201D02*
X143308750Y-92085529D01*
X144028750Y-92301201D02*
X144028750Y-92085529D01*
%TO.C,U5*%
X139941987Y-112487072D02*
X139941987Y-111687072D01*
X139941987Y-112487072D02*
X139941987Y-113287072D01*
X143061987Y-112487072D02*
X143061987Y-111687072D01*
X143061987Y-112487072D02*
X143061987Y-114287072D01*
%TO.C,R11*%
X141724891Y-107170000D02*
X141417609Y-107170000D01*
X141724891Y-107930000D02*
X141417609Y-107930000D01*
%TO.C,R6*%
X139320000Y-128433859D02*
X139320000Y-128741141D01*
X140080000Y-128433859D02*
X140080000Y-128741141D01*
%TO.C,U3*%
X138933750Y-80312500D02*
X138933750Y-79662500D01*
X138933750Y-80312500D02*
X138933750Y-80962500D01*
X142053750Y-80312500D02*
X142053750Y-79662500D01*
X142053750Y-80312500D02*
X142053750Y-81987500D01*
%TO.C,R8*%
X140907500Y-128433859D02*
X140907500Y-128741141D01*
X141667500Y-128433859D02*
X141667500Y-128741141D01*
%TO.C,R4*%
X130044891Y-99426250D02*
X129737609Y-99426250D01*
X130044891Y-100186250D02*
X129737609Y-100186250D01*
D13*
%TO.C,G\u002A\u002A\u002A*%
G36*
X154645379Y-67667887D02*
G01*
X154531393Y-67781887D01*
X154376393Y-67781887D01*
X154221393Y-67781887D01*
X154335379Y-67667887D01*
X154449366Y-67553887D01*
X154604366Y-67553887D01*
X154759366Y-67553887D01*
X154645379Y-67667887D01*
G37*
G36*
X155037379Y-67781887D02*
G01*
X154809386Y-68009887D01*
X154655883Y-68009887D01*
X154651440Y-68009886D01*
X154627244Y-68009860D01*
X154604298Y-68009799D01*
X154582907Y-68009705D01*
X154563376Y-68009582D01*
X154546012Y-68009432D01*
X154531119Y-68009259D01*
X154519004Y-68009065D01*
X154509972Y-68008854D01*
X154504329Y-68008628D01*
X154502379Y-68008390D01*
X154503062Y-68007591D01*
X154506342Y-68004149D01*
X154512197Y-67998137D01*
X154520479Y-67989705D01*
X154531037Y-67979005D01*
X154543722Y-67966186D01*
X154558384Y-67951401D01*
X154574873Y-67934799D01*
X154593040Y-67916531D01*
X154612734Y-67896749D01*
X154633806Y-67875602D01*
X154656105Y-67853242D01*
X154679484Y-67829820D01*
X154703791Y-67805485D01*
X154728876Y-67780390D01*
X154955373Y-67553887D01*
X155110373Y-67553887D01*
X155265373Y-67553887D01*
X155037379Y-67781887D01*
G37*
G36*
X155960878Y-66997385D02*
G01*
X156352380Y-67388883D01*
X156352380Y-67781883D01*
X156352379Y-68174883D01*
X155960881Y-68566385D01*
X155569383Y-68957887D01*
X155078379Y-68957887D01*
X154587376Y-68957887D01*
X154195379Y-68565887D01*
X153803383Y-68173887D01*
X154587385Y-68173887D01*
X155371387Y-68173887D01*
X155567379Y-67977887D01*
X155763372Y-67781887D01*
X155567379Y-67585887D01*
X155371387Y-67389886D01*
X154787883Y-67389887D01*
X154747174Y-67389883D01*
X154700006Y-67389872D01*
X154654017Y-67389853D01*
X154609363Y-67389827D01*
X154566201Y-67389793D01*
X154524687Y-67389752D01*
X154484978Y-67389705D01*
X154447232Y-67389652D01*
X154411604Y-67389592D01*
X154378252Y-67389527D01*
X154347333Y-67389457D01*
X154319002Y-67389382D01*
X154293418Y-67389303D01*
X154270736Y-67389219D01*
X154251114Y-67389131D01*
X154234707Y-67389040D01*
X154221674Y-67388945D01*
X154212170Y-67388848D01*
X154206353Y-67388748D01*
X154204379Y-67388646D01*
X154205767Y-67385885D01*
X154209709Y-67380705D01*
X154215867Y-67373454D01*
X154223904Y-67364479D01*
X154233483Y-67354125D01*
X154244265Y-67342740D01*
X154255914Y-67330670D01*
X154268092Y-67318262D01*
X154280462Y-67305862D01*
X154292687Y-67293818D01*
X154304428Y-67282475D01*
X154315349Y-67272181D01*
X154325112Y-67263282D01*
X154333379Y-67256124D01*
X154364728Y-67230941D01*
X154414871Y-67194419D01*
X154466490Y-67161363D01*
X154519823Y-67131654D01*
X154575109Y-67105169D01*
X154632589Y-67081790D01*
X154692501Y-67061395D01*
X154755084Y-67043865D01*
X154761009Y-67042342D01*
X154770204Y-67039848D01*
X154777359Y-67037734D01*
X154781858Y-67036187D01*
X154783084Y-67035394D01*
X154781449Y-67034785D01*
X154776723Y-67033462D01*
X154770379Y-67031932D01*
X154764512Y-67030559D01*
X154749587Y-67026779D01*
X154732435Y-67022131D01*
X154714113Y-67016919D01*
X154695683Y-67011449D01*
X154678201Y-67006025D01*
X154662729Y-67000951D01*
X154654653Y-66998170D01*
X154595675Y-66975596D01*
X154538532Y-66949691D01*
X154483480Y-66920590D01*
X154430777Y-66888428D01*
X154380682Y-66853340D01*
X154378885Y-66851992D01*
X154371153Y-66846183D01*
X154364757Y-66841359D01*
X154360321Y-66837991D01*
X154358466Y-66836550D01*
X154358712Y-66836175D01*
X154361221Y-66833404D01*
X154366255Y-66828121D01*
X154373606Y-66820537D01*
X154383067Y-66810864D01*
X154394429Y-66799314D01*
X154407483Y-66786098D01*
X154422022Y-66771428D01*
X154437836Y-66755515D01*
X154454718Y-66738571D01*
X154472460Y-66720806D01*
X154587366Y-66605887D01*
X155078371Y-66605887D01*
X155569376Y-66605887D01*
X155960878Y-66997385D01*
G37*
G36*
X153891485Y-66402908D02*
G01*
X153900655Y-66438445D01*
X153918182Y-66494363D01*
X153939001Y-66548088D01*
X153963167Y-66599745D01*
X153990738Y-66649463D01*
X154021768Y-66697368D01*
X154039722Y-66722119D01*
X154075156Y-66765860D01*
X154113476Y-66807087D01*
X154154462Y-66845646D01*
X154197890Y-66881383D01*
X154243541Y-66914145D01*
X154291193Y-66943777D01*
X154340624Y-66970125D01*
X154391613Y-66993036D01*
X154443939Y-67012357D01*
X154497379Y-67027932D01*
X154499632Y-67028505D01*
X154509089Y-67030991D01*
X154516961Y-67033183D01*
X154522482Y-67034861D01*
X154524885Y-67035805D01*
X154524434Y-67036407D01*
X154520976Y-67037825D01*
X154514877Y-67039681D01*
X154506885Y-67041732D01*
X154488827Y-67046319D01*
X154453207Y-67056899D01*
X154416612Y-67069622D01*
X154380262Y-67084049D01*
X154345379Y-67099741D01*
X154308204Y-67118737D01*
X154259149Y-67147610D01*
X154212335Y-67179657D01*
X154167908Y-67214713D01*
X154126013Y-67252615D01*
X154086794Y-67293200D01*
X154050397Y-67336304D01*
X154016968Y-67381764D01*
X153986650Y-67429416D01*
X153959590Y-67479096D01*
X153935932Y-67530640D01*
X153915821Y-67583887D01*
X153913168Y-67591833D01*
X153910116Y-67601329D01*
X153907153Y-67611057D01*
X153904069Y-67621746D01*
X153900655Y-67634127D01*
X153896699Y-67648931D01*
X153891994Y-67666887D01*
X153891604Y-67668364D01*
X153890818Y-67670812D01*
X153890047Y-67671493D01*
X153889095Y-67669984D01*
X153887762Y-67665863D01*
X153885850Y-67658707D01*
X153883160Y-67648094D01*
X153882131Y-67644109D01*
X153878613Y-67631339D01*
X153874375Y-67616844D01*
X153869860Y-67602122D01*
X153865514Y-67588666D01*
X153850678Y-67547788D01*
X153828021Y-67495386D01*
X153802029Y-67444984D01*
X153772844Y-67396710D01*
X153740607Y-67350698D01*
X153705459Y-67307079D01*
X153667541Y-67265984D01*
X153626993Y-67227544D01*
X153583957Y-67191892D01*
X153538573Y-67159158D01*
X153490983Y-67129474D01*
X153441328Y-67102972D01*
X153389748Y-67079783D01*
X153336385Y-67060039D01*
X153281379Y-67043870D01*
X153275028Y-67042197D01*
X153266054Y-67039666D01*
X153259238Y-67037528D01*
X153255154Y-67035968D01*
X153254379Y-67035171D01*
X153254532Y-67035123D01*
X153257906Y-67034187D01*
X153264223Y-67032526D01*
X153272638Y-67030360D01*
X153282305Y-67027909D01*
X153304228Y-67022021D01*
X153353932Y-67005995D01*
X153403330Y-66986455D01*
X153451797Y-66963706D01*
X153498711Y-66938055D01*
X153543446Y-66909807D01*
X153585379Y-66879269D01*
X153604799Y-66863469D01*
X153628774Y-66842525D01*
X153652755Y-66820140D01*
X153675865Y-66797162D01*
X153697231Y-66774436D01*
X153715977Y-66752811D01*
X153731293Y-66733685D01*
X153765367Y-66686624D01*
X153796040Y-66637498D01*
X153823246Y-66586438D01*
X153846918Y-66533574D01*
X153866990Y-66479035D01*
X153883397Y-66422952D01*
X153884565Y-66418423D01*
X153886964Y-66409493D01*
X153888689Y-66403888D01*
X153889907Y-66401196D01*
X153890784Y-66401006D01*
X153891485Y-66402908D01*
G37*
D12*
%TO.C,R2*%
X130044891Y-100426250D02*
X129737609Y-100426250D01*
X130044891Y-101186250D02*
X129737609Y-101186250D01*
D13*
%TO.C,G\u002A\u002A\u002A*%
G36*
X158631329Y-63399605D02*
G01*
X158628581Y-63479014D01*
X158611764Y-63598959D01*
X158584723Y-63658685D01*
X158574874Y-63679040D01*
X158559597Y-63782774D01*
X158548021Y-63964271D01*
X158540683Y-64213614D01*
X158538118Y-64520887D01*
X158538916Y-64697502D01*
X158544189Y-64973942D01*
X158553938Y-65186964D01*
X158567628Y-65326652D01*
X158584723Y-65383089D01*
X158600451Y-65406384D01*
X158622623Y-65503179D01*
X158631329Y-65642170D01*
X158631329Y-65872447D01*
X158165274Y-65872447D01*
X157699219Y-65872447D01*
X157699219Y-65648741D01*
X157701955Y-65578382D01*
X157722815Y-65445669D01*
X157757475Y-65366867D01*
X157768260Y-65349090D01*
X157787241Y-65269623D01*
X157802485Y-65126188D01*
X157814467Y-64911479D01*
X157823659Y-64618190D01*
X157830534Y-64239014D01*
X157845336Y-63169328D01*
X158238332Y-63169328D01*
X158631329Y-63169328D01*
X158631329Y-63399605D01*
G37*
G36*
X167225030Y-63841631D02*
G01*
X167344920Y-63900472D01*
X167348939Y-63903270D01*
X167436332Y-63947950D01*
X167475687Y-63923774D01*
X167515513Y-63896789D01*
X167646883Y-63875547D01*
X167867242Y-63868410D01*
X168240342Y-63868410D01*
X168209725Y-64159695D01*
X168206523Y-64192450D01*
X168192593Y-64394975D01*
X168182804Y-64636070D01*
X168179108Y-64870429D01*
X168179275Y-64915886D01*
X168184385Y-65155332D01*
X168195185Y-65392193D01*
X168209725Y-65581163D01*
X168240342Y-65872447D01*
X167793450Y-65872447D01*
X167346558Y-65872447D01*
X167346558Y-65669883D01*
X167347515Y-65635772D01*
X167372863Y-65463679D01*
X167421901Y-65316289D01*
X167473627Y-65144232D01*
X167476253Y-64912133D01*
X167462729Y-64805601D01*
X167406294Y-64642720D01*
X167304474Y-64551792D01*
X167148485Y-64522370D01*
X167020319Y-64520887D01*
X167020319Y-64171346D01*
X167020646Y-64070342D01*
X167025443Y-63932259D01*
X167040717Y-63857852D01*
X167072410Y-63827556D01*
X167126463Y-63821805D01*
X167225030Y-63841631D01*
G37*
G36*
X163851145Y-64092117D02*
G01*
X163848564Y-64162874D01*
X163829204Y-64293738D01*
X163797110Y-64369858D01*
X163790797Y-64377044D01*
X163771780Y-64439482D01*
X163783166Y-64551568D01*
X163826472Y-64731983D01*
X163829652Y-64743616D01*
X163875281Y-64887724D01*
X163916266Y-64980329D01*
X163944078Y-65001856D01*
X163966395Y-64968191D01*
X164011946Y-64833609D01*
X164043835Y-64643834D01*
X164058467Y-64425372D01*
X164052244Y-64204727D01*
X164024048Y-63868410D01*
X164473560Y-63868410D01*
X164923072Y-63868410D01*
X164923072Y-64092117D01*
X164921035Y-64163767D01*
X164906312Y-64290272D01*
X164882036Y-64360098D01*
X164870240Y-64382101D01*
X164832532Y-64482737D01*
X164778368Y-64647552D01*
X164713095Y-64859980D01*
X164642060Y-65103456D01*
X164602332Y-65242426D01*
X164536740Y-65468917D01*
X164481940Y-65654422D01*
X164442757Y-65782695D01*
X164424015Y-65837493D01*
X164407623Y-65845657D01*
X164316295Y-65859412D01*
X164164705Y-65868906D01*
X163974615Y-65872447D01*
X163544319Y-65872447D01*
X163343351Y-65185016D01*
X163308206Y-65066542D01*
X163234575Y-64828894D01*
X163167383Y-64625265D01*
X163112879Y-64474229D01*
X163077314Y-64394362D01*
X163062208Y-64364610D01*
X163026515Y-64234110D01*
X163012246Y-64079775D01*
X163012246Y-63868410D01*
X163431696Y-63868410D01*
X163851145Y-63868410D01*
X163851145Y-64092117D01*
G37*
G36*
X170795365Y-63728594D02*
G01*
X170795365Y-64334465D01*
X170492430Y-64334465D01*
X170189494Y-64334465D01*
X170189494Y-64031530D01*
X170188982Y-63962778D01*
X170180593Y-63821083D01*
X170158798Y-63748818D01*
X170119586Y-63728594D01*
X170094509Y-63739675D01*
X170075473Y-63782591D01*
X170062558Y-63869627D01*
X170054678Y-64013051D01*
X170050746Y-64225131D01*
X170049677Y-64518137D01*
X170050236Y-64657837D01*
X170055264Y-64930001D01*
X170065018Y-65140925D01*
X170078893Y-65279966D01*
X170096283Y-65336484D01*
X170114572Y-65368244D01*
X170134959Y-65472910D01*
X170142888Y-65618867D01*
X170142888Y-65872447D01*
X169630228Y-65872447D01*
X169117567Y-65872447D01*
X169117567Y-65618867D01*
X169121327Y-65517034D01*
X169138248Y-65395650D01*
X169164173Y-65336484D01*
X169167409Y-65333440D01*
X169185990Y-65266532D01*
X169199761Y-65131218D01*
X169208854Y-64945449D01*
X169213400Y-64727173D01*
X169213529Y-64494341D01*
X169209374Y-64264901D01*
X169201065Y-64056804D01*
X169188732Y-63887998D01*
X169172507Y-63776434D01*
X169152521Y-63740060D01*
X169128957Y-63764703D01*
X169098064Y-63871257D01*
X169080389Y-64046880D01*
X169066514Y-64334465D01*
X168765802Y-64334465D01*
X168465090Y-64334465D01*
X168465090Y-63728594D01*
X168465090Y-63122722D01*
X169630228Y-63122722D01*
X170795365Y-63122722D01*
X170795365Y-63728594D01*
G37*
G36*
X156805387Y-63308702D02*
G01*
X156875223Y-63320906D01*
X157006860Y-63348778D01*
X157174907Y-63386977D01*
X157512797Y-63466004D01*
X157512797Y-63667207D01*
X157514577Y-63722195D01*
X157531123Y-63826861D01*
X157559402Y-63868410D01*
X157576190Y-63884136D01*
X157597624Y-63968509D01*
X157606008Y-64101438D01*
X157603173Y-64185354D01*
X157587954Y-64292542D01*
X157563975Y-64334465D01*
X157559824Y-64337397D01*
X157543259Y-64402021D01*
X157527660Y-64538495D01*
X157514616Y-64729773D01*
X157505718Y-64958809D01*
X157502564Y-65072094D01*
X157493592Y-65299000D01*
X157481063Y-65456723D01*
X157462391Y-65562453D01*
X157434993Y-65633380D01*
X157396283Y-65686696D01*
X157310644Y-65765198D01*
X157209861Y-65828388D01*
X157208450Y-65828958D01*
X157085153Y-65855687D01*
X156912974Y-65867624D01*
X156734505Y-65863756D01*
X156592338Y-65843072D01*
X156526690Y-65811457D01*
X156495152Y-65743200D01*
X156487475Y-65610681D01*
X156489294Y-65541144D01*
X156509229Y-65437825D01*
X156554741Y-65406392D01*
X156565134Y-65406065D01*
X156656077Y-65363650D01*
X156718907Y-65246427D01*
X156755345Y-65049218D01*
X156767108Y-64766848D01*
X156767108Y-64334465D01*
X156627292Y-64334465D01*
X156558247Y-64331849D01*
X156509312Y-64308173D01*
X156490530Y-64239384D01*
X156487475Y-64101438D01*
X156489045Y-63986363D01*
X156503251Y-63904804D01*
X156544524Y-63873501D01*
X156627292Y-63868410D01*
X156767108Y-63868410D01*
X156767108Y-63588777D01*
X156770956Y-63461548D01*
X156783622Y-63351226D01*
X156802063Y-63308547D01*
X156805387Y-63308702D01*
G37*
G36*
X159796466Y-64098687D02*
G01*
X159793719Y-64178096D01*
X159776902Y-64298041D01*
X159749861Y-64357768D01*
X159736206Y-64386393D01*
X159719072Y-64494362D01*
X159707502Y-64663103D01*
X159703255Y-64873179D01*
X159703387Y-65000699D01*
X159705828Y-65174376D01*
X159714343Y-65280471D01*
X159732731Y-65335636D01*
X159764794Y-65356524D01*
X159814333Y-65359786D01*
X159829504Y-65359436D01*
X159887379Y-65345768D01*
X159928603Y-65302846D01*
X159955940Y-65217886D01*
X159972151Y-65078106D01*
X159980001Y-64870724D01*
X159982252Y-64582956D01*
X159984711Y-64357882D01*
X159990988Y-64161291D01*
X160000128Y-64015667D01*
X160011177Y-63942130D01*
X160037104Y-63908992D01*
X160104928Y-63884360D01*
X160230167Y-63871876D01*
X160430627Y-63868410D01*
X160821787Y-63868410D01*
X160821787Y-64098687D01*
X160819040Y-64178096D01*
X160802223Y-64298041D01*
X160775182Y-64357768D01*
X160759337Y-64396584D01*
X160743205Y-64515381D01*
X160732473Y-64696070D01*
X160728576Y-64921282D01*
X160722922Y-65190166D01*
X160698720Y-65448848D01*
X160652960Y-65633957D01*
X160582943Y-65755535D01*
X160485968Y-65823623D01*
X160357283Y-65854367D01*
X160167142Y-65867905D01*
X159973594Y-65858860D01*
X159822803Y-65826995D01*
X159740328Y-65805073D01*
X159703255Y-65826995D01*
X159695976Y-65835941D01*
X159619938Y-65854970D01*
X159475274Y-65867765D01*
X159279492Y-65872447D01*
X158855730Y-65872447D01*
X158886650Y-65604465D01*
X158891677Y-65554442D01*
X158904570Y-65379961D01*
X158917748Y-65146897D01*
X158929920Y-64879606D01*
X158939794Y-64602447D01*
X158962018Y-63868410D01*
X159379242Y-63868410D01*
X159796466Y-63868410D01*
X159796466Y-64098687D01*
G37*
G36*
X156331611Y-65368837D02*
G01*
X156286263Y-65563463D01*
X156177165Y-65731666D01*
X156006251Y-65851049D01*
X155843468Y-65903722D01*
X155648982Y-65903501D01*
X155438852Y-65825841D01*
X155431968Y-65822331D01*
X155311000Y-65761565D01*
X155251193Y-65739602D01*
X155231063Y-65754056D01*
X155229127Y-65802539D01*
X155229126Y-65802918D01*
X155211998Y-65837574D01*
X155150333Y-65858831D01*
X155027949Y-65869514D01*
X154828667Y-65872447D01*
X154428207Y-65872447D01*
X154457560Y-65604465D01*
X154469359Y-65483076D01*
X154486856Y-65273475D01*
X154494958Y-65165237D01*
X155275732Y-65165237D01*
X155292404Y-65264367D01*
X155349452Y-65331497D01*
X155394477Y-65346507D01*
X155518065Y-65352008D01*
X155586504Y-65286264D01*
X155586429Y-65212190D01*
X155515519Y-65124259D01*
X155380595Y-65058712D01*
X155326044Y-65046673D01*
X155284720Y-65070604D01*
X155275732Y-65165237D01*
X154494958Y-65165237D01*
X154505252Y-65027700D01*
X154522092Y-64777218D01*
X154538247Y-64559958D01*
X154557910Y-64361241D01*
X154577998Y-64212144D01*
X154596011Y-64134407D01*
X154599835Y-64126858D01*
X154688674Y-64036373D01*
X154840539Y-63949305D01*
X155028196Y-63878543D01*
X155224415Y-63836978D01*
X155300204Y-63831208D01*
X155566602Y-63845459D01*
X155848029Y-63901513D01*
X156097845Y-63991140D01*
X156174151Y-64030899D01*
X156228587Y-64083964D01*
X156250439Y-64168949D01*
X156254448Y-64316473D01*
X156254448Y-64567493D01*
X155908002Y-64567493D01*
X155779050Y-64567039D01*
X155653591Y-64561287D01*
X155586790Y-64542954D01*
X155558059Y-64504736D01*
X155546810Y-64439328D01*
X155542763Y-64410887D01*
X155505181Y-64331655D01*
X155415549Y-64311163D01*
X155372506Y-64313416D01*
X155313267Y-64347177D01*
X155299035Y-64443708D01*
X155299938Y-64477048D01*
X155315309Y-64536386D01*
X155364341Y-64581808D01*
X155465681Y-64626516D01*
X155637975Y-64683715D01*
X155651600Y-64688065D01*
X155833140Y-64751400D01*
X155990662Y-64815171D01*
X156091409Y-64866196D01*
X156223304Y-64989909D01*
X156311270Y-65170186D01*
X156323156Y-65286264D01*
X156331611Y-65368837D01*
G37*
G36*
X162902987Y-65368837D02*
G01*
X162857640Y-65563463D01*
X162748541Y-65731666D01*
X162577628Y-65851049D01*
X162414844Y-65903722D01*
X162220358Y-65903501D01*
X162010228Y-65825841D01*
X162003344Y-65822331D01*
X161882376Y-65761565D01*
X161822569Y-65739602D01*
X161802439Y-65754056D01*
X161800503Y-65802539D01*
X161800502Y-65802918D01*
X161783374Y-65837574D01*
X161721709Y-65858831D01*
X161599326Y-65869514D01*
X161400043Y-65872447D01*
X160999583Y-65872447D01*
X161028936Y-65604465D01*
X161040736Y-65483076D01*
X161058232Y-65273475D01*
X161066334Y-65165237D01*
X161847108Y-65165237D01*
X161863780Y-65264367D01*
X161920828Y-65331497D01*
X161965853Y-65346507D01*
X162089441Y-65352008D01*
X162157880Y-65286264D01*
X162157805Y-65212190D01*
X162086895Y-65124259D01*
X161951971Y-65058712D01*
X161897420Y-65046673D01*
X161856096Y-65070604D01*
X161847108Y-65165237D01*
X161066334Y-65165237D01*
X161076628Y-65027700D01*
X161093468Y-64777218D01*
X161109623Y-64559958D01*
X161129286Y-64361241D01*
X161149374Y-64212144D01*
X161167387Y-64134407D01*
X161171212Y-64126858D01*
X161260050Y-64036373D01*
X161411915Y-63949305D01*
X161599572Y-63878543D01*
X161795791Y-63836978D01*
X161871580Y-63831208D01*
X162137979Y-63845459D01*
X162419405Y-63901513D01*
X162669221Y-63991140D01*
X162745527Y-64030899D01*
X162799963Y-64083964D01*
X162821815Y-64168949D01*
X162825824Y-64316473D01*
X162825824Y-64567493D01*
X162479378Y-64567493D01*
X162350426Y-64567039D01*
X162224967Y-64561287D01*
X162158166Y-64542954D01*
X162129435Y-64504736D01*
X162118186Y-64439328D01*
X162114139Y-64410887D01*
X162076557Y-64331655D01*
X161986925Y-64311163D01*
X161943882Y-64313416D01*
X161884643Y-64347177D01*
X161870411Y-64443708D01*
X161871315Y-64477048D01*
X161886685Y-64536386D01*
X161935717Y-64581808D01*
X162037057Y-64626516D01*
X162209351Y-64683715D01*
X162222976Y-64688065D01*
X162404516Y-64751400D01*
X162562038Y-64815171D01*
X162662785Y-64866196D01*
X162794681Y-64989909D01*
X162882646Y-65170186D01*
X162894532Y-65286264D01*
X162902987Y-65368837D01*
G37*
G36*
X166911060Y-65368837D02*
G01*
X166865713Y-65563463D01*
X166756614Y-65731666D01*
X166585701Y-65851049D01*
X166422918Y-65903722D01*
X166228431Y-65903501D01*
X166018301Y-65825841D01*
X166011418Y-65822331D01*
X165890449Y-65761565D01*
X165830642Y-65739602D01*
X165810512Y-65754056D01*
X165808576Y-65802539D01*
X165808575Y-65802918D01*
X165791447Y-65837574D01*
X165729782Y-65858831D01*
X165607399Y-65869514D01*
X165408116Y-65872447D01*
X165007656Y-65872447D01*
X165037010Y-65604465D01*
X165048809Y-65483076D01*
X165066306Y-65273475D01*
X165074408Y-65165237D01*
X165855182Y-65165237D01*
X165871853Y-65264367D01*
X165928902Y-65331497D01*
X165973927Y-65346507D01*
X166097514Y-65352008D01*
X166165953Y-65286264D01*
X166165879Y-65212190D01*
X166094968Y-65124259D01*
X165960044Y-65058712D01*
X165905493Y-65046673D01*
X165864170Y-65070604D01*
X165855182Y-65165237D01*
X165074408Y-65165237D01*
X165084702Y-65027700D01*
X165101541Y-64777218D01*
X165117696Y-64559958D01*
X165137359Y-64361241D01*
X165157447Y-64212144D01*
X165175460Y-64134407D01*
X165179285Y-64126858D01*
X165268124Y-64036373D01*
X165419988Y-63949305D01*
X165607646Y-63878543D01*
X165803864Y-63836978D01*
X165879653Y-63831208D01*
X166146052Y-63845459D01*
X166427478Y-63901513D01*
X166677294Y-63991140D01*
X166753600Y-64030899D01*
X166808036Y-64083964D01*
X166829889Y-64168949D01*
X166833897Y-64316473D01*
X166833897Y-64567493D01*
X166487452Y-64567493D01*
X166358500Y-64567039D01*
X166233041Y-64561287D01*
X166166240Y-64542954D01*
X166137508Y-64504736D01*
X166126259Y-64439328D01*
X166122212Y-64410887D01*
X166084631Y-64331655D01*
X165994998Y-64311163D01*
X165951956Y-64313416D01*
X165892717Y-64347177D01*
X165878485Y-64443708D01*
X165879388Y-64477048D01*
X165894758Y-64536386D01*
X165943791Y-64581808D01*
X166045131Y-64626516D01*
X166217425Y-64683715D01*
X166231049Y-64688065D01*
X166412589Y-64751400D01*
X166570111Y-64815171D01*
X166670859Y-64866196D01*
X166802754Y-64989909D01*
X166890719Y-65170186D01*
X166902605Y-65286264D01*
X166911060Y-65368837D01*
G37*
D12*
%TO.C,C2*%
X150624956Y-98871581D02*
X150840628Y-98871581D01*
X150624956Y-99591581D02*
X150840628Y-99591581D01*
%TO.C,F1*%
X140653978Y-75031100D02*
X140136822Y-75031100D01*
X140653978Y-76451100D02*
X140136822Y-76451100D01*
%TO.C,R_USB1*%
X140609150Y-70141209D02*
X140609150Y-70448491D01*
X141369150Y-70141209D02*
X141369150Y-70448491D01*
%TO.C,U2*%
X141926650Y-74619850D02*
X143226650Y-74619850D01*
X143196650Y-71499850D02*
X141926650Y-71499850D01*
X143576650Y-71549850D02*
X143336650Y-71219850D01*
X143816650Y-71219850D01*
X143576650Y-71549850D01*
G36*
X143576650Y-71549850D02*
G01*
X143336650Y-71219850D01*
X143816650Y-71219850D01*
X143576650Y-71549850D01*
G37*
%TD*%
D16*
%TO.C,H6*%
X123031250Y-100012500D03*
%TD*%
%TO.C,H1*%
X123031250Y-80962500D03*
%TD*%
%TO.C,H2*%
X161131250Y-80962500D03*
%TD*%
%TO.C,H3*%
X123031250Y-119062500D03*
%TD*%
%TO.C,H4*%
X161131250Y-119062500D03*
%TD*%
%TO.C,H5*%
X161131250Y-100012500D03*
%TD*%
%LPC*%
%TO.C,H6*%
X123031250Y-100012500D03*
%TD*%
D17*
%TO.C,C7*%
X144462500Y-105402500D03*
X144462500Y-106362500D03*
%TD*%
%TO.C,C8*%
X143468750Y-105402500D03*
X143468750Y-106362500D03*
%TD*%
D18*
%TO.C,U4*%
X140601700Y-119263160D03*
X141251940Y-119263160D03*
X141902180Y-119263160D03*
X142552420Y-119263160D03*
X143197580Y-119263160D03*
X143847820Y-119263160D03*
X144498060Y-119263160D03*
X145148300Y-119263160D03*
X145148300Y-125211840D03*
X144498060Y-125211840D03*
X143847820Y-125211840D03*
X143197580Y-125211840D03*
X142552420Y-125211840D03*
X141902180Y-125211840D03*
X141251940Y-125211840D03*
X140601700Y-125211840D03*
%TD*%
D16*
%TO.C,H1*%
X123031250Y-80962500D03*
%TD*%
D19*
%TO.C,R_USB2*%
X144164150Y-69784850D03*
X144164150Y-70804850D03*
%TD*%
%TO.C,R9*%
X144462500Y-128077500D03*
X144462500Y-129097500D03*
%TD*%
%TO.C,R7*%
X142875000Y-128077500D03*
X142875000Y-129097500D03*
%TD*%
D16*
%TO.C,H2*%
X161131250Y-80962500D03*
%TD*%
D20*
%TO.C,R1*%
X150240872Y-98228801D03*
X151260872Y-98228801D03*
%TD*%
D21*
%TO.C,C5*%
X136525000Y-99618750D03*
X135565000Y-99618750D03*
%TD*%
D22*
%TO.C,C1*%
X150240872Y-101403801D03*
X151200872Y-101403801D03*
%TD*%
%TO.C,C11*%
X140541987Y-115462072D03*
X141501987Y-115462072D03*
%TD*%
%TO.C,C_LDO1*%
X140013750Y-77931250D03*
X140973750Y-77931250D03*
%TD*%
D23*
%TO.C,C3*%
X142575000Y-92672551D03*
X142575000Y-91712551D03*
%TD*%
D22*
%TO.C,C4*%
X150246844Y-100429031D03*
X151206844Y-100429031D03*
%TD*%
D24*
%TO.C,R5*%
X130401250Y-98825000D03*
X129381250Y-98825000D03*
%TD*%
D16*
%TO.C,H3*%
X123031250Y-119062500D03*
%TD*%
%TO.C,H4*%
X161131250Y-119062500D03*
%TD*%
D21*
%TO.C,C10*%
X142051250Y-109912072D03*
X141091250Y-109912072D03*
%TD*%
D24*
%TO.C,R13*%
X142072427Y-106362500D03*
X141052427Y-106362500D03*
%TD*%
D25*
%TO.C,U1*%
X147290927Y-99508687D03*
X146937374Y-99862240D03*
X146583820Y-100215794D03*
X146230267Y-100569347D03*
X145876714Y-100922900D03*
X145523160Y-101276454D03*
X145169607Y-101630007D03*
X144816053Y-101983561D03*
X144462500Y-102337114D03*
X144108947Y-102690667D03*
X143755393Y-103044221D03*
X143401840Y-103397774D03*
D26*
X142429568Y-103397774D03*
X142076015Y-103044221D03*
X141722461Y-102690667D03*
X141368908Y-102337114D03*
X141015355Y-101983561D03*
X140661801Y-101630007D03*
X140308248Y-101276454D03*
X139954694Y-100922900D03*
X139601141Y-100569347D03*
X139247588Y-100215794D03*
X138894034Y-99862240D03*
X138540481Y-99508687D03*
D25*
X138540481Y-98536415D03*
X138894034Y-98182862D03*
X139247588Y-97829308D03*
X139601141Y-97475755D03*
X139954694Y-97122202D03*
X140308248Y-96768648D03*
X140661801Y-96415095D03*
X141015355Y-96061541D03*
X141368908Y-95707988D03*
X141722461Y-95354435D03*
X142076015Y-95000881D03*
X142429568Y-94647328D03*
D26*
X143401840Y-94647328D03*
X143755393Y-95000881D03*
X144108947Y-95354435D03*
X144462500Y-95707988D03*
X144816053Y-96061541D03*
X145169607Y-96415095D03*
X145523160Y-96768648D03*
X145876714Y-97122202D03*
X146230267Y-97475755D03*
X146583820Y-97829308D03*
X146937374Y-98182862D03*
X147290927Y-98536415D03*
D27*
X142915704Y-99022551D03*
%TD*%
D16*
%TO.C,H5*%
X161131250Y-100012500D03*
%TD*%
D20*
%TO.C,R12*%
X141061250Y-108743750D03*
X142081250Y-108743750D03*
%TD*%
D17*
%TO.C,C9*%
X139306250Y-123345000D03*
X139306250Y-124305000D03*
%TD*%
D28*
%TO.C,SW17*%
X156393750Y-102056250D03*
D29*
X156393750Y-99516250D03*
%TD*%
D22*
%TO.C,C_LDO2*%
X140013750Y-82693750D03*
X140973750Y-82693750D03*
%TD*%
D24*
%TO.C,R3*%
X130391710Y-101837418D03*
X129371710Y-101837418D03*
%TD*%
D30*
%TO.C,USB1*%
X139191250Y-66232000D03*
X144971250Y-66232000D03*
D31*
X138856250Y-67677000D03*
X139631250Y-67677000D03*
D32*
X140331250Y-67677000D03*
X140831250Y-67677000D03*
X141331250Y-67677000D03*
X141831250Y-67677000D03*
X142331250Y-67677000D03*
X142831250Y-67677000D03*
X143331250Y-67677000D03*
X143831250Y-67677000D03*
D31*
X144531250Y-67677000D03*
X145306250Y-67677000D03*
D33*
X137081250Y-66782000D03*
D34*
X137761250Y-62582000D03*
X146401250Y-62582000D03*
D33*
X147081250Y-66782000D03*
%TD*%
D23*
%TO.C,C6*%
X143668750Y-92673365D03*
X143668750Y-91713365D03*
%TD*%
D35*
%TO.C,U5*%
X142451987Y-113624572D03*
X141501987Y-113624572D03*
X140551987Y-113624572D03*
X140551987Y-111349572D03*
X142451987Y-111349572D03*
%TD*%
D24*
%TO.C,R11*%
X142081250Y-107550000D03*
X141061250Y-107550000D03*
%TD*%
D19*
%TO.C,R6*%
X139700000Y-128077500D03*
X139700000Y-129097500D03*
%TD*%
D36*
%TO.C,U3*%
X141443750Y-81250000D03*
X139543750Y-81250000D03*
X140493750Y-79375000D03*
%TD*%
D19*
%TO.C,R8*%
X141287500Y-128077500D03*
X141287500Y-129097500D03*
%TD*%
D24*
%TO.C,R4*%
X130401250Y-99806250D03*
X129381250Y-99806250D03*
%TD*%
%TO.C,R2*%
X130401250Y-100806250D03*
X129381250Y-100806250D03*
%TD*%
D22*
%TO.C,C2*%
X150252792Y-99231581D03*
X151212792Y-99231581D03*
%TD*%
D37*
%TO.C,F1*%
X141332900Y-75741100D03*
X139457900Y-75741100D03*
%TD*%
D19*
%TO.C,R_USB1*%
X140989150Y-69784850D03*
X140989150Y-70804850D03*
%TD*%
D38*
%TO.C,U2*%
X143576650Y-72309850D03*
D39*
X143576650Y-74009850D03*
X141576650Y-74009850D03*
X141576650Y-72109850D03*
%TD*%
%LPD*%
M02*
