%TF.GenerationSoftware,KiCad,Pcbnew,8.0.8*%
%TF.CreationDate,2025-03-01T19:05:43+01:00*%
%TF.ProjectId,numbpad,6e756d62-7061-4642-9e6b-696361645f70,rev?*%
%TF.SameCoordinates,Original*%
%TF.FileFunction,Legend,Top*%
%TF.FilePolarity,Positive*%
%FSLAX46Y46*%
G04 Gerber Fmt 4.6, Leading zero omitted, Abs format (unit mm)*
G04 Created by KiCad (PCBNEW 8.0.8) date 2025-03-01 19:05:43*
%MOMM*%
%LPD*%
G01*
G04 APERTURE LIST*
%ADD10C,0.400000*%
%ADD11C,0.900000*%
%ADD12C,0.000000*%
%ADD13C,1.200000*%
%ADD14C,2.200000*%
%ADD15R,1.700000X1.700000*%
%ADD16O,1.700000X1.700000*%
%ADD17C,0.750000*%
%ADD18O,1.100000X1.700000*%
G04 APERTURE END LIST*
D10*
G36*
X148136594Y-100928999D02*
G01*
X148682721Y-100928999D01*
X148682721Y-99205524D01*
X148121988Y-99333800D01*
X148121988Y-98865782D01*
X148679545Y-98737506D01*
X149268855Y-98737506D01*
X149268855Y-100928999D01*
X149814982Y-100928999D01*
X149814982Y-101404003D01*
X148136594Y-101404003D01*
X148136594Y-100928999D01*
G37*
G36*
X151487392Y-98697770D02*
G01*
X151617342Y-98711918D01*
X151676259Y-98721630D01*
X151802863Y-98749564D01*
X151927791Y-98786931D01*
X151984884Y-98807359D01*
X151984884Y-99300143D01*
X151864294Y-99241638D01*
X151740522Y-99194338D01*
X151697850Y-99181393D01*
X151572893Y-99153588D01*
X151442374Y-99142694D01*
X151434312Y-99142656D01*
X151303773Y-99153332D01*
X151175040Y-99190867D01*
X151065495Y-99255426D01*
X151003125Y-99313479D01*
X150926572Y-99422577D01*
X150875730Y-99541398D01*
X150841081Y-99680777D01*
X150824046Y-99819599D01*
X150934066Y-99743078D01*
X151053293Y-99688783D01*
X151182363Y-99655920D01*
X151312882Y-99645008D01*
X151321911Y-99644966D01*
X151455461Y-99653382D01*
X151598516Y-99684477D01*
X151727835Y-99738484D01*
X151843419Y-99815403D01*
X151917571Y-99884372D01*
X152005659Y-99995976D01*
X152072111Y-100121862D01*
X152116928Y-100262029D01*
X152138122Y-100393540D01*
X152143642Y-100511148D01*
X152137471Y-100640945D01*
X152113777Y-100785732D01*
X152072311Y-100918553D01*
X152013075Y-101039408D01*
X151936067Y-101148296D01*
X151890899Y-101198252D01*
X151790071Y-101285872D01*
X151677142Y-101355363D01*
X151552112Y-101406726D01*
X151414983Y-101439961D01*
X151265753Y-101455068D01*
X151213321Y-101456075D01*
X151072228Y-101447502D01*
X150941460Y-101421781D01*
X150821018Y-101378913D01*
X150690117Y-101304838D01*
X150574085Y-101206071D01*
X150488750Y-101104903D01*
X150415024Y-100987999D01*
X150353793Y-100856769D01*
X150305059Y-100711214D01*
X150275069Y-100584456D01*
X150270400Y-100555601D01*
X150895170Y-100555601D01*
X150903108Y-100690309D01*
X150933589Y-100821999D01*
X150976454Y-100906773D01*
X151078059Y-100994407D01*
X151210225Y-101023505D01*
X151220306Y-101023619D01*
X151348297Y-101001254D01*
X151455578Y-100920922D01*
X151466063Y-100906773D01*
X151521628Y-100781734D01*
X151543458Y-100652280D01*
X151547347Y-100555601D01*
X151539409Y-100420954D01*
X151508928Y-100289503D01*
X151466063Y-100205063D01*
X151363982Y-100116953D01*
X151230504Y-100087697D01*
X151220306Y-100087582D01*
X151093617Y-100110069D01*
X150986932Y-100190837D01*
X150976454Y-100205063D01*
X150920889Y-100329668D01*
X150899060Y-100458952D01*
X150895170Y-100555601D01*
X150270400Y-100555601D01*
X150253076Y-100448530D01*
X150239080Y-100303435D01*
X150233082Y-100149172D01*
X150232832Y-100109173D01*
X150237516Y-99948342D01*
X150251566Y-99796381D01*
X150274982Y-99653290D01*
X150307766Y-99519071D01*
X150349916Y-99393721D01*
X150401433Y-99277243D01*
X150479001Y-99144119D01*
X150532567Y-99070897D01*
X150631828Y-98962046D01*
X150741879Y-98871644D01*
X150862721Y-98799691D01*
X150994354Y-98746188D01*
X151136777Y-98711134D01*
X151289991Y-98694529D01*
X151354298Y-98693053D01*
X151487392Y-98697770D01*
G37*
D11*
%TO.C,SW4*%
X167598250Y-128587500D02*
G75*
G02*
X154664250Y-128587500I-6467000J0D01*
G01*
X154664250Y-128587500D02*
G75*
G02*
X167598250Y-128587500I6467000J0D01*
G01*
%TO.C,SW13*%
X119973251Y-128587500D02*
G75*
G02*
X107039249Y-128587500I-6467001J0D01*
G01*
X107039249Y-128587500D02*
G75*
G02*
X119973251Y-128587500I6467001J0D01*
G01*
%TO.C,SW14*%
X139023250Y-128587500D02*
G75*
G02*
X126089250Y-128587500I-6467000J0D01*
G01*
X126089250Y-128587500D02*
G75*
G02*
X139023250Y-128587500I6467000J0D01*
G01*
%TO.C,SW11*%
X158073250Y-109537500D02*
G75*
G02*
X145139250Y-109537500I-6467000J0D01*
G01*
X145139250Y-109537500D02*
G75*
G02*
X158073250Y-109537500I6467000J0D01*
G01*
%TO.C,SW22*%
X129498250Y-128587500D02*
G75*
G02*
X116564250Y-128587500I-6467000J0D01*
G01*
X116564250Y-128587500D02*
G75*
G02*
X129498250Y-128587500I6467000J0D01*
G01*
%TO.C,SW10*%
X139023250Y-109537500D02*
G75*
G02*
X126089250Y-109537500I-6467000J0D01*
G01*
X126089250Y-109537500D02*
G75*
G02*
X139023250Y-109537500I6467000J0D01*
G01*
%TO.C,SW5*%
X119973250Y-90487500D02*
G75*
G02*
X107039250Y-90487500I-6467000J0D01*
G01*
X107039250Y-90487500D02*
G75*
G02*
X119973250Y-90487500I6467000J0D01*
G01*
%TO.C,SW2*%
X139023250Y-71437500D02*
G75*
G02*
X126089250Y-71437500I-6467000J0D01*
G01*
X126089250Y-71437500D02*
G75*
G02*
X139023250Y-71437500I6467000J0D01*
G01*
%TO.C,SW15*%
X158073250Y-128587500D02*
G75*
G02*
X145139250Y-128587500I-6467000J0D01*
G01*
X145139250Y-128587500D02*
G75*
G02*
X158073250Y-128587500I6467000J0D01*
G01*
%TO.C,SW21*%
X177123250Y-119062500D02*
G75*
G02*
X164189250Y-119062500I-6467000J0D01*
G01*
X164189250Y-119062500D02*
G75*
G02*
X177123250Y-119062500I6467000J0D01*
G01*
%TO.C,SW23*%
X177123250Y-71437500D02*
G75*
G02*
X164189250Y-71437500I-6467000J0D01*
G01*
X164189250Y-71437500D02*
G75*
G02*
X177123250Y-71437500I6467000J0D01*
G01*
%TO.C,SW7*%
X158073250Y-90487500D02*
G75*
G02*
X145139250Y-90487500I-6467000J0D01*
G01*
X145139250Y-90487500D02*
G75*
G02*
X158073250Y-90487500I6467000J0D01*
G01*
%TO.C,SW18*%
X119973250Y-80962500D02*
G75*
G02*
X107039250Y-80962500I-6467000J0D01*
G01*
X107039250Y-80962500D02*
G75*
G02*
X119973250Y-80962500I6467000J0D01*
G01*
%TO.C,SW19*%
X177123250Y-80962500D02*
G75*
G02*
X164189250Y-80962500I-6467000J0D01*
G01*
X164189250Y-80962500D02*
G75*
G02*
X177123250Y-80962500I6467000J0D01*
G01*
%TO.C,SW3*%
X158073250Y-71437500D02*
G75*
G02*
X145139250Y-71437500I-6467000J0D01*
G01*
X145139250Y-71437500D02*
G75*
G02*
X158073250Y-71437500I6467000J0D01*
G01*
%TO.C,SW6*%
X139023250Y-90487500D02*
G75*
G02*
X126089250Y-90487500I-6467000J0D01*
G01*
X126089250Y-90487500D02*
G75*
G02*
X139023250Y-90487500I6467000J0D01*
G01*
%TO.C,SW20*%
X119973250Y-71437500D02*
G75*
G02*
X107039250Y-71437500I-6467000J0D01*
G01*
X107039250Y-71437500D02*
G75*
G02*
X119973250Y-71437500I6467000J0D01*
G01*
D12*
%TO.C,G\u002A\u002A\u002A*%
G36*
X144188724Y-99730627D02*
G01*
X144195599Y-100109803D01*
X144204791Y-100403092D01*
X144216773Y-100617801D01*
X144232017Y-100761236D01*
X144250998Y-100840703D01*
X144261783Y-100858480D01*
X144296443Y-100937282D01*
X144317303Y-101069995D01*
X144320039Y-101140354D01*
X144320039Y-101364060D01*
X143853984Y-101364060D01*
X143387929Y-101364060D01*
X143387929Y-101133783D01*
X143396635Y-100994792D01*
X143418807Y-100897997D01*
X143434535Y-100874702D01*
X143451630Y-100818265D01*
X143465320Y-100678577D01*
X143475069Y-100465555D01*
X143480342Y-100189115D01*
X143481140Y-100012500D01*
X143478575Y-99705227D01*
X143471237Y-99455884D01*
X143459661Y-99274387D01*
X143444384Y-99170653D01*
X143434535Y-99150298D01*
X143407494Y-99090572D01*
X143390677Y-98970627D01*
X143387929Y-98891218D01*
X143387929Y-98660941D01*
X143780926Y-98660941D01*
X144173922Y-98660941D01*
X144188724Y-99730627D01*
G37*
G36*
X134946848Y-99319169D02*
G01*
X134978541Y-99349465D01*
X134993815Y-99423872D01*
X134998612Y-99561955D01*
X134998939Y-99662959D01*
X134998939Y-100012500D01*
X134870773Y-100013983D01*
X134714784Y-100043405D01*
X134612964Y-100134333D01*
X134556529Y-100297214D01*
X134543005Y-100403746D01*
X134545631Y-100635845D01*
X134597357Y-100807902D01*
X134646395Y-100955292D01*
X134671743Y-101127385D01*
X134672700Y-101161496D01*
X134672700Y-101364060D01*
X134225808Y-101364060D01*
X133778916Y-101364060D01*
X133809533Y-101072776D01*
X133824073Y-100883806D01*
X133834873Y-100646945D01*
X133839983Y-100407499D01*
X133840150Y-100362042D01*
X133836454Y-100127683D01*
X133826665Y-99886588D01*
X133812735Y-99684063D01*
X133809533Y-99651308D01*
X133778916Y-99360023D01*
X134152016Y-99360023D01*
X134372375Y-99367160D01*
X134503745Y-99388402D01*
X134543571Y-99415387D01*
X134582926Y-99439563D01*
X134670319Y-99394883D01*
X134674338Y-99392085D01*
X134794228Y-99333244D01*
X134892795Y-99313418D01*
X134946848Y-99319169D01*
G37*
G36*
X133554168Y-99220207D02*
G01*
X133554168Y-99826078D01*
X133253456Y-99826078D01*
X132952744Y-99826078D01*
X132938869Y-99538493D01*
X132921194Y-99362870D01*
X132890301Y-99256316D01*
X132866737Y-99231673D01*
X132846751Y-99268047D01*
X132830526Y-99379611D01*
X132818193Y-99548417D01*
X132809884Y-99756514D01*
X132805729Y-99985954D01*
X132805858Y-100218786D01*
X132810404Y-100437062D01*
X132819497Y-100622831D01*
X132833268Y-100758145D01*
X132851849Y-100825053D01*
X132855085Y-100828097D01*
X132881010Y-100887263D01*
X132897931Y-101008647D01*
X132901691Y-101110480D01*
X132901691Y-101364060D01*
X132389030Y-101364060D01*
X131876370Y-101364060D01*
X131876370Y-101110480D01*
X131884299Y-100964523D01*
X131904686Y-100859857D01*
X131922975Y-100828097D01*
X131940365Y-100771579D01*
X131954240Y-100632538D01*
X131963994Y-100421614D01*
X131969022Y-100149450D01*
X131969581Y-100009750D01*
X131968512Y-99716744D01*
X131964580Y-99504664D01*
X131956700Y-99361240D01*
X131943785Y-99274204D01*
X131924749Y-99231288D01*
X131899672Y-99220207D01*
X131860460Y-99240431D01*
X131838665Y-99312696D01*
X131830276Y-99454391D01*
X131829764Y-99523143D01*
X131829764Y-99826078D01*
X131526828Y-99826078D01*
X131223893Y-99826078D01*
X131223893Y-99220207D01*
X131223893Y-98614335D01*
X132389030Y-98614335D01*
X133554168Y-98614335D01*
X133554168Y-99220207D01*
G37*
G36*
X137967014Y-99696340D02*
G01*
X137960791Y-99916985D01*
X137975423Y-100135447D01*
X138007312Y-100325222D01*
X138052863Y-100459804D01*
X138075180Y-100493469D01*
X138102992Y-100471942D01*
X138143977Y-100379337D01*
X138189606Y-100235229D01*
X138192786Y-100223596D01*
X138236092Y-100043181D01*
X138247478Y-99931095D01*
X138228461Y-99868657D01*
X138222148Y-99861471D01*
X138190054Y-99785351D01*
X138170694Y-99654487D01*
X138168113Y-99583730D01*
X138168113Y-99360023D01*
X138587562Y-99360023D01*
X139007012Y-99360023D01*
X139007012Y-99571388D01*
X138992743Y-99725723D01*
X138957050Y-99856223D01*
X138941944Y-99885975D01*
X138906379Y-99965842D01*
X138851875Y-100116878D01*
X138784683Y-100320507D01*
X138711052Y-100558155D01*
X138675907Y-100676629D01*
X138474939Y-101364060D01*
X138044643Y-101364060D01*
X137854553Y-101360519D01*
X137702963Y-101351025D01*
X137611635Y-101337270D01*
X137595243Y-101329106D01*
X137576501Y-101274308D01*
X137537318Y-101146035D01*
X137482518Y-100960530D01*
X137416926Y-100734039D01*
X137377198Y-100595069D01*
X137306163Y-100351593D01*
X137240890Y-100139165D01*
X137186726Y-99974350D01*
X137149018Y-99873714D01*
X137137222Y-99851711D01*
X137112946Y-99781885D01*
X137098223Y-99655380D01*
X137096186Y-99583730D01*
X137096186Y-99360023D01*
X137545698Y-99360023D01*
X137995210Y-99360023D01*
X137967014Y-99696340D01*
G37*
G36*
X145235636Y-98842839D02*
G01*
X145248302Y-98953161D01*
X145252150Y-99080390D01*
X145252150Y-99360023D01*
X145391966Y-99360023D01*
X145474734Y-99365114D01*
X145516007Y-99396417D01*
X145530213Y-99477976D01*
X145531783Y-99593051D01*
X145528728Y-99730997D01*
X145509946Y-99799786D01*
X145461011Y-99823462D01*
X145391966Y-99826078D01*
X145252150Y-99826078D01*
X145252150Y-100258461D01*
X145263913Y-100540831D01*
X145300351Y-100738040D01*
X145363181Y-100855263D01*
X145454124Y-100897678D01*
X145464517Y-100898005D01*
X145510029Y-100929438D01*
X145529964Y-101032757D01*
X145531783Y-101102294D01*
X145524106Y-101234813D01*
X145492568Y-101303070D01*
X145426920Y-101334685D01*
X145284753Y-101355369D01*
X145106284Y-101359237D01*
X144934105Y-101347300D01*
X144810808Y-101320571D01*
X144809397Y-101320001D01*
X144708614Y-101256811D01*
X144622975Y-101178309D01*
X144584265Y-101124993D01*
X144556867Y-101054066D01*
X144538195Y-100948336D01*
X144525666Y-100790613D01*
X144516694Y-100563707D01*
X144513540Y-100450422D01*
X144504642Y-100221386D01*
X144491598Y-100030108D01*
X144475999Y-99893634D01*
X144459434Y-99829010D01*
X144455283Y-99826078D01*
X144431304Y-99784155D01*
X144416085Y-99676967D01*
X144413250Y-99593051D01*
X144421634Y-99460122D01*
X144443068Y-99375749D01*
X144459856Y-99360023D01*
X144488135Y-99318474D01*
X144504681Y-99213808D01*
X144506461Y-99158820D01*
X144506461Y-98957617D01*
X144844351Y-98878590D01*
X145012398Y-98840391D01*
X145144035Y-98812519D01*
X145213871Y-98800315D01*
X145217195Y-98800160D01*
X145235636Y-98842839D01*
G37*
G36*
X141789091Y-99363489D02*
G01*
X141914330Y-99375973D01*
X141982154Y-99400605D01*
X142008081Y-99433743D01*
X142019130Y-99507280D01*
X142028270Y-99652904D01*
X142034547Y-99849495D01*
X142037006Y-100074569D01*
X142039257Y-100362337D01*
X142047107Y-100569719D01*
X142063318Y-100709499D01*
X142090655Y-100794459D01*
X142131879Y-100837381D01*
X142189754Y-100851049D01*
X142204925Y-100851399D01*
X142254464Y-100848137D01*
X142286527Y-100827249D01*
X142304915Y-100772084D01*
X142313430Y-100665989D01*
X142315871Y-100492312D01*
X142316003Y-100364792D01*
X142311756Y-100154716D01*
X142300186Y-99985975D01*
X142283052Y-99878006D01*
X142269397Y-99849381D01*
X142242356Y-99789654D01*
X142225539Y-99669709D01*
X142222792Y-99590300D01*
X142222792Y-99360023D01*
X142640016Y-99360023D01*
X143057240Y-99360023D01*
X143079464Y-100094060D01*
X143089338Y-100371219D01*
X143101510Y-100638510D01*
X143114688Y-100871574D01*
X143127581Y-101046055D01*
X143132608Y-101096078D01*
X143163528Y-101364060D01*
X142739766Y-101364060D01*
X142543984Y-101359378D01*
X142399320Y-101346583D01*
X142323282Y-101327554D01*
X142316003Y-101318608D01*
X142278930Y-101296686D01*
X142196455Y-101318608D01*
X142045664Y-101350473D01*
X141852116Y-101359518D01*
X141661975Y-101345980D01*
X141533290Y-101315236D01*
X141436315Y-101247148D01*
X141366298Y-101125570D01*
X141320538Y-100940461D01*
X141296336Y-100681779D01*
X141290682Y-100412895D01*
X141286785Y-100187683D01*
X141276053Y-100006994D01*
X141259921Y-99888197D01*
X141244076Y-99849381D01*
X141217035Y-99789654D01*
X141200218Y-99669709D01*
X141197471Y-99590300D01*
X141197471Y-99360023D01*
X141588631Y-99360023D01*
X141789091Y-99363489D01*
G37*
G36*
X136215394Y-99328591D02*
G01*
X136411612Y-99370156D01*
X136599270Y-99440918D01*
X136751134Y-99527986D01*
X136839973Y-99618471D01*
X136843798Y-99626020D01*
X136861811Y-99703757D01*
X136881899Y-99852854D01*
X136901562Y-100051571D01*
X136917717Y-100268831D01*
X136934556Y-100519313D01*
X136952952Y-100765088D01*
X136970449Y-100974689D01*
X136982248Y-101096078D01*
X137011602Y-101364060D01*
X136611142Y-101364060D01*
X136411859Y-101361127D01*
X136289476Y-101350444D01*
X136227811Y-101329187D01*
X136210683Y-101294531D01*
X136210682Y-101294152D01*
X136208746Y-101245669D01*
X136188616Y-101231215D01*
X136128809Y-101253178D01*
X136007840Y-101313944D01*
X136000957Y-101317454D01*
X135790827Y-101395114D01*
X135596340Y-101395335D01*
X135433557Y-101342662D01*
X135262644Y-101223279D01*
X135153545Y-101055076D01*
X135108198Y-100860450D01*
X135116653Y-100777877D01*
X135853305Y-100777877D01*
X135921744Y-100843621D01*
X136045331Y-100838120D01*
X136090356Y-100823110D01*
X136147405Y-100755980D01*
X136164076Y-100656850D01*
X136155088Y-100562217D01*
X136113765Y-100538286D01*
X136059214Y-100550325D01*
X135924290Y-100615872D01*
X135853379Y-100703803D01*
X135853305Y-100777877D01*
X135116653Y-100777877D01*
X135128539Y-100661799D01*
X135216504Y-100481522D01*
X135348399Y-100357809D01*
X135449147Y-100306784D01*
X135606669Y-100243013D01*
X135788209Y-100179678D01*
X135801833Y-100175328D01*
X135974127Y-100118129D01*
X136075467Y-100073421D01*
X136124500Y-100027999D01*
X136139870Y-99968661D01*
X136140773Y-99935321D01*
X136126541Y-99838790D01*
X136067302Y-99805029D01*
X136024260Y-99802776D01*
X135934627Y-99823268D01*
X135897046Y-99902500D01*
X135892999Y-99930941D01*
X135881750Y-99996349D01*
X135853018Y-100034567D01*
X135786217Y-100052900D01*
X135660758Y-100058652D01*
X135531806Y-100059106D01*
X135185361Y-100059106D01*
X135185361Y-99808086D01*
X135189369Y-99660562D01*
X135211222Y-99575577D01*
X135265658Y-99522512D01*
X135341964Y-99482753D01*
X135591780Y-99393126D01*
X135873206Y-99337072D01*
X136139605Y-99322821D01*
X136215394Y-99328591D01*
G37*
G36*
X140223467Y-99328591D02*
G01*
X140419686Y-99370156D01*
X140607343Y-99440918D01*
X140759208Y-99527986D01*
X140848046Y-99618471D01*
X140851871Y-99626020D01*
X140869884Y-99703757D01*
X140889972Y-99852854D01*
X140909635Y-100051571D01*
X140925790Y-100268831D01*
X140942630Y-100519313D01*
X140961026Y-100765088D01*
X140978522Y-100974689D01*
X140990322Y-101096078D01*
X141019675Y-101364060D01*
X140619215Y-101364060D01*
X140419932Y-101361127D01*
X140297549Y-101350444D01*
X140235884Y-101329187D01*
X140218756Y-101294531D01*
X140218755Y-101294152D01*
X140216819Y-101245669D01*
X140196689Y-101231215D01*
X140136882Y-101253178D01*
X140015914Y-101313944D01*
X140009030Y-101317454D01*
X139798900Y-101395114D01*
X139604414Y-101395335D01*
X139441630Y-101342662D01*
X139270717Y-101223279D01*
X139161618Y-101055076D01*
X139116271Y-100860450D01*
X139124726Y-100777877D01*
X139861378Y-100777877D01*
X139929817Y-100843621D01*
X140053405Y-100838120D01*
X140098430Y-100823110D01*
X140155478Y-100755980D01*
X140172150Y-100656850D01*
X140163162Y-100562217D01*
X140121838Y-100538286D01*
X140067287Y-100550325D01*
X139932363Y-100615872D01*
X139861453Y-100703803D01*
X139861378Y-100777877D01*
X139124726Y-100777877D01*
X139136612Y-100661799D01*
X139224577Y-100481522D01*
X139356473Y-100357809D01*
X139457220Y-100306784D01*
X139614742Y-100243013D01*
X139796282Y-100179678D01*
X139809907Y-100175328D01*
X139982201Y-100118129D01*
X140083541Y-100073421D01*
X140132573Y-100027999D01*
X140147943Y-99968661D01*
X140148847Y-99935321D01*
X140134615Y-99838790D01*
X140075376Y-99805029D01*
X140032333Y-99802776D01*
X139942701Y-99823268D01*
X139905119Y-99902500D01*
X139901072Y-99930941D01*
X139889823Y-99996349D01*
X139861092Y-100034567D01*
X139794291Y-100052900D01*
X139668832Y-100058652D01*
X139539880Y-100059106D01*
X139193434Y-100059106D01*
X139193434Y-99808086D01*
X139197443Y-99660562D01*
X139219295Y-99575577D01*
X139273731Y-99522512D01*
X139350037Y-99482753D01*
X139599853Y-99393126D01*
X139881279Y-99337072D01*
X140147678Y-99322821D01*
X140223467Y-99328591D01*
G37*
G36*
X146794843Y-99328591D02*
G01*
X146991062Y-99370156D01*
X147178719Y-99440918D01*
X147330584Y-99527986D01*
X147419423Y-99618471D01*
X147423247Y-99626020D01*
X147441260Y-99703757D01*
X147461348Y-99852854D01*
X147481011Y-100051571D01*
X147497166Y-100268831D01*
X147514006Y-100519313D01*
X147532402Y-100765088D01*
X147549899Y-100974689D01*
X147561698Y-101096078D01*
X147591051Y-101364060D01*
X147190591Y-101364060D01*
X146991309Y-101361127D01*
X146868925Y-101350444D01*
X146807260Y-101329187D01*
X146790132Y-101294531D01*
X146790131Y-101294152D01*
X146788195Y-101245669D01*
X146768065Y-101231215D01*
X146708258Y-101253178D01*
X146587290Y-101313944D01*
X146580406Y-101317454D01*
X146370276Y-101395114D01*
X146175790Y-101395335D01*
X146013007Y-101342662D01*
X145842093Y-101223279D01*
X145732995Y-101055076D01*
X145687647Y-100860450D01*
X145696102Y-100777877D01*
X146432754Y-100777877D01*
X146501193Y-100843621D01*
X146624781Y-100838120D01*
X146669806Y-100823110D01*
X146726854Y-100755980D01*
X146743526Y-100656850D01*
X146734538Y-100562217D01*
X146693214Y-100538286D01*
X146638663Y-100550325D01*
X146503739Y-100615872D01*
X146432829Y-100703803D01*
X146432754Y-100777877D01*
X145696102Y-100777877D01*
X145707988Y-100661799D01*
X145795954Y-100481522D01*
X145927849Y-100357809D01*
X146028596Y-100306784D01*
X146186118Y-100243013D01*
X146367658Y-100179678D01*
X146381283Y-100175328D01*
X146553577Y-100118129D01*
X146654917Y-100073421D01*
X146703949Y-100027999D01*
X146719320Y-99968661D01*
X146720223Y-99935321D01*
X146705991Y-99838790D01*
X146646752Y-99805029D01*
X146603709Y-99802776D01*
X146514077Y-99823268D01*
X146476495Y-99902500D01*
X146472448Y-99930941D01*
X146461199Y-99996349D01*
X146432468Y-100034567D01*
X146365667Y-100052900D01*
X146240208Y-100058652D01*
X146111256Y-100059106D01*
X145764810Y-100059106D01*
X145764810Y-99808086D01*
X145768819Y-99660562D01*
X145790671Y-99575577D01*
X145845107Y-99522512D01*
X145921413Y-99482753D01*
X146171229Y-99393126D01*
X146452656Y-99337072D01*
X146719054Y-99322821D01*
X146794843Y-99328591D01*
G37*
D11*
%TO.C,SW12*%
X177123250Y-109537500D02*
G75*
G02*
X164189250Y-109537500I-6467000J0D01*
G01*
X164189250Y-109537500D02*
G75*
G02*
X177123250Y-109537500I6467000J0D01*
G01*
%TO.C,SW1*%
X119973250Y-119062500D02*
G75*
G02*
X107039250Y-119062500I-6467000J0D01*
G01*
X107039250Y-119062500D02*
G75*
G02*
X119973250Y-119062500I6467000J0D01*
G01*
%TO.C,SW8*%
X177123250Y-90487500D02*
G75*
G02*
X164189250Y-90487500I-6467000J0D01*
G01*
X164189250Y-90487500D02*
G75*
G02*
X177123250Y-90487500I6467000J0D01*
G01*
%TO.C,SW16*%
X177123251Y-128587500D02*
G75*
G02*
X164189249Y-128587500I-6467001J0D01*
G01*
X164189249Y-128587500D02*
G75*
G02*
X177123251Y-128587500I6467001J0D01*
G01*
%TO.C,SW9*%
X119973250Y-109537500D02*
G75*
G02*
X107039250Y-109537500I-6467000J0D01*
G01*
X107039250Y-109537500D02*
G75*
G02*
X119973250Y-109537500I6467000J0D01*
G01*
%TD*%
%LPC*%
D13*
%TO.C,SW23*%
X178056250Y-68937500D03*
X178056250Y-73937500D03*
X163156250Y-73937500D03*
X163156250Y-68937500D03*
X163156250Y-71437500D03*
%TD*%
%TO.C,SW20*%
X106106250Y-73937500D03*
X106106250Y-68937500D03*
X121006250Y-68937500D03*
X121006250Y-73937500D03*
X121006250Y-71437500D03*
%TD*%
D14*
%TO.C,H6*%
X123031250Y-100012500D03*
%TD*%
%TO.C,H1*%
X123031250Y-80962500D03*
%TD*%
%TO.C,H2*%
X161131250Y-80962500D03*
%TD*%
%TO.C,H3*%
X123031250Y-119062500D03*
%TD*%
%TO.C,H4*%
X161131250Y-119062500D03*
%TD*%
%TO.C,H5*%
X161131250Y-100012500D03*
%TD*%
D15*
%TO.C,SW17*%
X156393750Y-102056250D03*
D16*
X156393750Y-99516250D03*
%TD*%
D17*
%TO.C,USB1*%
X139191250Y-66232000D03*
X144971250Y-66232000D03*
D18*
X137761250Y-62582000D03*
X146401250Y-62582000D03*
%TD*%
%LPD*%
M02*
