%TF.GenerationSoftware,KiCad,Pcbnew,8.0.8*%
%TF.CreationDate,2025-03-01T19:05:43+01:00*%
%TF.ProjectId,numbpad,6e756d62-7061-4642-9e6b-696361645f70,rev?*%
%TF.SameCoordinates,Original*%
%TF.FileFunction,Profile,NP*%
%FSLAX46Y46*%
G04 Gerber Fmt 4.6, Leading zero omitted, Abs format (unit mm)*
G04 Created by KiCad (PCBNEW 8.0.8) date 2025-03-01 19:05:43*
%MOMM*%
%LPD*%
G01*
G04 APERTURE LIST*
%TA.AperFunction,Profile*%
%ADD10C,0.200000*%
%TD*%
G04 APERTURE END LIST*
D10*
X134761752Y-62037500D02*
X109906250Y-62037500D01*
X180056250Y-132187500D02*
G75*
G02*
X179353325Y-133884575I-2399850J-100D01*
G01*
X175953306Y-137284556D02*
X179353306Y-133884556D01*
X174256250Y-62037500D02*
X149395950Y-62037500D01*
X174256250Y-62037500D02*
G75*
G02*
X175953302Y-62740448I-50J-2400100D01*
G01*
X177842658Y-102754193D02*
G75*
G02*
X177842658Y-97270807I213642J2741693D01*
G01*
X106319842Y-97270807D02*
G75*
G02*
X104106232Y-94878060I186558J2392907D01*
G01*
X149395950Y-62037500D02*
G75*
G02*
X148661112Y-61845178I150J1500600D01*
G01*
X175953306Y-137284556D02*
G75*
G02*
X174256250Y-137987523I-1697006J1696856D01*
G01*
X135501396Y-61845192D02*
G75*
G02*
X134761752Y-62037487I-734796J1307692D01*
G01*
X106319842Y-97270807D02*
G75*
G02*
X106319842Y-102754193I-213592J-2741693D01*
G01*
X179353306Y-66140444D02*
G75*
G02*
X180056264Y-67837500I-1697006J-1697056D01*
G01*
X177842658Y-102754193D02*
G75*
G02*
X180056211Y-105130460I-186558J-2392907D01*
G01*
X104106250Y-105146938D02*
G75*
G02*
X106319842Y-102754189I2399850J138D01*
G01*
X147485450Y-61537500D02*
X136671784Y-61537500D01*
X180056250Y-94878100D02*
G75*
G02*
X177842658Y-97270804I-2399950J0D01*
G01*
X109906250Y-137987500D02*
G75*
G02*
X108209189Y-137284561I-50J2399900D01*
G01*
X108209194Y-62740444D02*
G75*
G02*
X109906250Y-62037524I1697106J-1697256D01*
G01*
X180056250Y-132187500D02*
X180056250Y-105130460D01*
X108209194Y-62740444D02*
X104809194Y-66140444D01*
X104106250Y-105146938D02*
X104106250Y-132187500D01*
X180056250Y-94878100D02*
X180056250Y-67837500D01*
X104106250Y-67837500D02*
G75*
G02*
X104809213Y-66140463I2400150J-100D01*
G01*
X147485450Y-61537500D02*
G75*
G02*
X148661111Y-61845180I150J-2399400D01*
G01*
X104106250Y-67837500D02*
X104106250Y-94878060D01*
X179353306Y-66140444D02*
X175953306Y-62740444D01*
X104809194Y-133884556D02*
X108209194Y-137284556D01*
X104809194Y-133884556D02*
G75*
G02*
X104106265Y-132187500I1697106J1697056D01*
G01*
X109906250Y-137987500D02*
X174256250Y-137987500D01*
X135501396Y-61845192D02*
G75*
G02*
X136671784Y-61537512I1175704J-2092408D01*
G01*
M02*
