  0
SECTION
  2
HEADER
  9
$ANGBASE
  50
0.0
  9
$ANGDIR
  70
1
  9
$MEASUREMENT
  70
1
  0
ENDSEC
  0
SECTION
  2
TABLES
  0
TABLE
  2
LTYPE
  70
4
  0
LTYPE
  5
40F
  2
CONTINUOUS
  70
0
  3
Solid line
  72
65
  73
0
  40
0.0
  0
LTYPE
  5
410
  2
DASHDOT
 70
0
  3
Dash Dot ____ _ ____ _
 72
65
 73
4
 40
2.0
 49
1.25
 49
-0.25
 49
0.25
 49
-0.25
  0
LTYPE
  5
411
  2
DASHED
 70
0
  3
Dashed __ __ __ __ __
 72
65
 73
2
 40
0.75
 49
0.5
 49
-0.25
  0
LTYPE
  5
43B
  2
DOTTED
 70
0
  3
Dotted .  .  .  .
 72
65
 73
2
 40
0.2
 49
0.0
 49
-0.2
  0
ENDTAB
  0
TABLE
  2
STYLE
  70
4
  0
STYLE
  2
KICAD
  70
0
  40
0
  41
1
  42
1
  50
0
  71
0
  3
isocp.shx
  0
STYLE
  2
KICADB
  70
0
  40
0
  41
1
  42
1
  50
0
  71
0
  3
isocp.shx
  0
STYLE
  2
KICADI
  70
0
  40
0
  41
1
  42
1
  50
15
  71
0
  3
isocp.shx
  0
STYLE
  2
KICADBI
  70
0
  40
0
  41
1
  42
1
  50
15
  71
0
  3
isocp.shx
  0
ENDTAB
  0
TABLE
  2
LAYER
  70
1
  0
LAYER
  2
BLACK
  70
0
  62
7
  6
CONTINUOUS
  0
ENDTAB
  0
ENDSEC
  0
SECTION
  2
ENTITIES
0
LINE
8
BLACK
6
CONTINUOUS
10
222.242
20
-107.258
11
222.242
21
-107.258
0
LINE
8
BLACK
6
CONTINUOUS
10
222.242
20
-107.258
11
223.242
21
-108.258
0
LINE
8
BLACK
6
CONTINUOUS
10
223.242
20
-108.258
11
223.26
21
-108.3
0
LINE
8
BLACK
6
CONTINUOUS
10
223.26
20
-108.3
11
223.26
21
-108.3
0
LINE
8
BLACK
6
CONTINUOUS
10
223.26
20
-108.3
11
223.26
21
-120.3
0
LINE
8
BLACK
6
CONTINUOUS
10
223.26
20
-120.3
11
223.242
21
-120.342
0
LINE
8
BLACK
6
CONTINUOUS
10
223.242
20
-120.342
11
222.242
21
-121.342
0
LINE
8
BLACK
6
CONTINUOUS
10
222.242
20
-121.342
11
222.2
21
-121.36
0
LINE
8
BLACK
6
CONTINUOUS
10
222.2
20
-121.36
11
209.6
21
-121.36
0
LINE
8
BLACK
6
CONTINUOUS
10
209.6
20
-121.36
11
209.558
21
-121.342
0
LINE
8
BLACK
6
CONTINUOUS
10
209.558
20
-121.342
11
208.558
21
-120.342
0
LINE
8
BLACK
6
CONTINUOUS
10
208.558
20
-120.342
11
208.54
21
-120.3
0
LINE
8
BLACK
6
CONTINUOUS
10
208.54
20
-120.3
11
208.54
21
-108.3
0
LINE
8
BLACK
6
CONTINUOUS
10
208.54
20
-108.3
11
208.558
21
-108.258
0
LINE
8
BLACK
6
CONTINUOUS
10
208.558
20
-108.258
11
209.558
21
-107.258
0
LINE
8
BLACK
6
CONTINUOUS
10
209.558
20
-107.258
11
209.6
21
-107.24
0
LINE
8
BLACK
6
CONTINUOUS
10
209.6
20
-107.24
11
222.2
21
-107.24
0
LINE
8
BLACK
6
CONTINUOUS
10
222.2
20
-107.24
11
222.242
21
-107.258
0
LINE
8
BLACK
6
CONTINUOUS
10
209.625
20
-107.36
11
208.66
21
-108.325
0
LINE
8
BLACK
6
CONTINUOUS
10
208.66
20
-108.325
11
208.66
21
-120.275
0
LINE
8
BLACK
6
CONTINUOUS
10
208.66
20
-120.275
11
209.625
21
-121.24
0
LINE
8
BLACK
6
CONTINUOUS
10
209.625
20
-121.24
11
222.175
21
-121.24
0
LINE
8
BLACK
6
CONTINUOUS
10
222.175
20
-121.24
11
223.14
21
-120.275
0
LINE
8
BLACK
6
CONTINUOUS
10
223.14
20
-120.275
11
223.14
21
-108.325
0
LINE
8
BLACK
6
CONTINUOUS
10
223.14
20
-108.325
11
222.175
21
-107.36
0
LINE
8
BLACK
6
CONTINUOUS
10
222.175
20
-107.36
11
209.625
21
-107.36
0
LINE
8
BLACK
6
CONTINUOUS
10
200.812
20
-107.258
11
200.812
21
-107.258
0
LINE
8
BLACK
6
CONTINUOUS
10
200.812
20
-107.258
11
201.812
21
-108.258
0
LINE
8
BLACK
6
CONTINUOUS
10
201.812
20
-108.258
11
201.83
21
-108.3
0
LINE
8
BLACK
6
CONTINUOUS
10
201.83
20
-108.3
11
201.83
21
-108.3
0
LINE
8
BLACK
6
CONTINUOUS
10
201.83
20
-108.3
11
201.83
21
-120.3
0
LINE
8
BLACK
6
CONTINUOUS
10
201.83
20
-120.3
11
201.812
21
-120.342
0
LINE
8
BLACK
6
CONTINUOUS
10
201.812
20
-120.342
11
200.812
21
-121.342
0
LINE
8
BLACK
6
CONTINUOUS
10
200.812
20
-121.342
11
200.77
21
-121.36
0
LINE
8
BLACK
6
CONTINUOUS
10
200.77
20
-121.36
11
188.17
21
-121.36
0
LINE
8
BLACK
6
CONTINUOUS
10
188.17
20
-121.36
11
188.128
21
-121.342
0
LINE
8
BLACK
6
CONTINUOUS
10
188.128
20
-121.342
11
187.128
21
-120.342
0
LINE
8
BLACK
6
CONTINUOUS
10
187.128
20
-120.342
11
187.11
21
-120.3
0
LINE
8
BLACK
6
CONTINUOUS
10
187.11
20
-120.3
11
187.11
21
-108.3
0
LINE
8
BLACK
6
CONTINUOUS
10
187.11
20
-108.3
11
187.128
21
-108.258
0
LINE
8
BLACK
6
CONTINUOUS
10
187.128
20
-108.258
11
188.128
21
-107.258
0
LINE
8
BLACK
6
CONTINUOUS
10
188.128
20
-107.258
11
188.17
21
-107.24
0
LINE
8
BLACK
6
CONTINUOUS
10
188.17
20
-107.24
11
200.77
21
-107.24
0
LINE
8
BLACK
6
CONTINUOUS
10
200.77
20
-107.24
11
200.812
21
-107.258
0
LINE
8
BLACK
6
CONTINUOUS
10
188.195
20
-107.36
11
187.23
21
-108.325
0
LINE
8
BLACK
6
CONTINUOUS
10
187.23
20
-108.325
11
187.23
21
-120.275
0
LINE
8
BLACK
6
CONTINUOUS
10
187.23
20
-120.275
11
188.195
21
-121.24
0
LINE
8
BLACK
6
CONTINUOUS
10
188.195
20
-121.24
11
200.745
21
-121.24
0
LINE
8
BLACK
6
CONTINUOUS
10
200.745
20
-121.24
11
201.71
21
-120.275
0
LINE
8
BLACK
6
CONTINUOUS
10
201.71
20
-120.275
11
201.71
21
-108.325
0
LINE
8
BLACK
6
CONTINUOUS
10
201.71
20
-108.325
11
200.745
21
-107.36
0
LINE
8
BLACK
6
CONTINUOUS
10
200.745
20
-107.36
11
188.195
21
-107.36
0
LINE
8
BLACK
6
CONTINUOUS
10
172.234
20
-107.258
11
172.234
21
-107.258
0
LINE
8
BLACK
6
CONTINUOUS
10
172.234
20
-107.258
11
173.234
21
-108.258
0
LINE
8
BLACK
6
CONTINUOUS
10
173.234
20
-108.258
11
173.252
21
-108.3
0
LINE
8
BLACK
6
CONTINUOUS
10
173.252
20
-108.3
11
173.252
21
-108.3
0
LINE
8
BLACK
6
CONTINUOUS
10
173.252
20
-108.3
11
173.252
21
-120.3
0
LINE
8
BLACK
6
CONTINUOUS
10
173.252
20
-120.3
11
173.234
21
-120.342
0
LINE
8
BLACK
6
CONTINUOUS
10
173.234
20
-120.342
11
172.234
21
-121.342
0
LINE
8
BLACK
6
CONTINUOUS
10
172.234
20
-121.342
11
172.192
21
-121.36
0
LINE
8
BLACK
6
CONTINUOUS
10
172.192
20
-121.36
11
159.592
21
-121.36
0
LINE
8
BLACK
6
CONTINUOUS
10
159.592
20
-121.36
11
159.55
21
-121.342
0
LINE
8
BLACK
6
CONTINUOUS
10
159.55
20
-121.342
11
158.55
21
-120.342
0
LINE
8
BLACK
6
CONTINUOUS
10
158.55
20
-120.342
11
158.532
21
-120.3
0
LINE
8
BLACK
6
CONTINUOUS
10
158.532
20
-120.3
11
158.532
21
-108.3
0
LINE
8
BLACK
6
CONTINUOUS
10
158.532
20
-108.3
11
158.55
21
-108.258
0
LINE
8
BLACK
6
CONTINUOUS
10
158.55
20
-108.258
11
158.55
21
-108.258
0
LINE
8
BLACK
6
CONTINUOUS
10
158.55
20
-108.258
11
159.55
21
-107.258
0
LINE
8
BLACK
6
CONTINUOUS
10
159.55
20
-107.258
11
159.592
21
-107.24
0
LINE
8
BLACK
6
CONTINUOUS
10
159.592
20
-107.24
11
172.192
21
-107.24
0
LINE
8
BLACK
6
CONTINUOUS
10
172.192
20
-107.24
11
172.234
21
-107.258
0
LINE
8
BLACK
6
CONTINUOUS
10
159.617
20
-107.36
11
158.652
21
-108.325
0
LINE
8
BLACK
6
CONTINUOUS
10
158.652
20
-108.325
11
158.652
21
-120.275
0
LINE
8
BLACK
6
CONTINUOUS
10
158.652
20
-120.275
11
159.617
21
-121.24
0
LINE
8
BLACK
6
CONTINUOUS
10
159.617
20
-121.24
11
172.167
21
-121.24
0
LINE
8
BLACK
6
CONTINUOUS
10
172.167
20
-121.24
11
173.132
21
-120.275
0
LINE
8
BLACK
6
CONTINUOUS
10
173.132
20
-120.275
11
173.132
21
-108.325
0
LINE
8
BLACK
6
CONTINUOUS
10
173.132
20
-108.325
11
172.167
21
-107.36
0
LINE
8
BLACK
6
CONTINUOUS
10
172.167
20
-107.36
11
159.617
21
-107.36
0
LINE
8
BLACK
6
CONTINUOUS
10
138.897
20
-107.258
11
138.897
21
-107.258
0
LINE
8
BLACK
6
CONTINUOUS
10
138.897
20
-107.258
11
139.897
21
-108.258
0
LINE
8
BLACK
6
CONTINUOUS
10
139.897
20
-108.258
11
139.915
21
-108.3
0
LINE
8
BLACK
6
CONTINUOUS
10
139.915
20
-108.3
11
139.915
21
-108.3
0
LINE
8
BLACK
6
CONTINUOUS
10
139.915
20
-108.3
11
139.915
21
-120.3
0
LINE
8
BLACK
6
CONTINUOUS
10
139.915
20
-120.3
11
139.897
21
-120.342
0
LINE
8
BLACK
6
CONTINUOUS
10
139.897
20
-120.342
11
138.897
21
-121.342
0
LINE
8
BLACK
6
CONTINUOUS
10
138.897
20
-121.342
11
138.855
21
-121.36
0
LINE
8
BLACK
6
CONTINUOUS
10
138.855
20
-121.36
11
126.255
21
-121.36
0
LINE
8
BLACK
6
CONTINUOUS
10
126.255
20
-121.36
11
126.213
21
-121.342
0
LINE
8
BLACK
6
CONTINUOUS
10
126.213
20
-121.342
11
125.213
21
-120.342
0
LINE
8
BLACK
6
CONTINUOUS
10
125.213
20
-120.342
11
125.195
21
-120.3
0
LINE
8
BLACK
6
CONTINUOUS
10
125.195
20
-120.3
11
125.195
21
-108.3
0
LINE
8
BLACK
6
CONTINUOUS
10
125.195
20
-108.3
11
125.213
21
-108.258
0
LINE
8
BLACK
6
CONTINUOUS
10
125.213
20
-108.258
11
125.213
21
-108.258
0
LINE
8
BLACK
6
CONTINUOUS
10
125.213
20
-108.258
11
126.213
21
-107.258
0
LINE
8
BLACK
6
CONTINUOUS
10
126.213
20
-107.258
11
126.255
21
-107.24
0
LINE
8
BLACK
6
CONTINUOUS
10
126.255
20
-107.24
11
138.855
21
-107.24
0
LINE
8
BLACK
6
CONTINUOUS
10
138.855
20
-107.24
11
138.897
21
-107.258
0
LINE
8
BLACK
6
CONTINUOUS
10
126.28
20
-107.36
11
125.315
21
-108.325
0
LINE
8
BLACK
6
CONTINUOUS
10
125.315
20
-108.325
11
125.315
21
-120.275
0
LINE
8
BLACK
6
CONTINUOUS
10
125.315
20
-120.275
11
126.28
21
-121.24
0
LINE
8
BLACK
6
CONTINUOUS
10
126.28
20
-121.24
11
138.83
21
-121.24
0
LINE
8
BLACK
6
CONTINUOUS
10
138.83
20
-121.24
11
139.795
21
-120.275
0
LINE
8
BLACK
6
CONTINUOUS
10
139.795
20
-120.275
11
139.795
21
-108.325
0
LINE
8
BLACK
6
CONTINUOUS
10
139.795
20
-108.325
11
138.83
21
-107.36
0
LINE
8
BLACK
6
CONTINUOUS
10
138.83
20
-107.36
11
126.28
21
-107.36
0
LINE
8
BLACK
6
CONTINUOUS
10
110.322
20
-107.258
11
110.322
21
-107.258
0
LINE
8
BLACK
6
CONTINUOUS
10
110.322
20
-107.258
11
111.322
21
-108.258
0
LINE
8
BLACK
6
CONTINUOUS
10
111.322
20
-108.258
11
111.34
21
-108.3
0
LINE
8
BLACK
6
CONTINUOUS
10
111.34
20
-108.3
11
111.34
21
-108.3
0
LINE
8
BLACK
6
CONTINUOUS
10
111.34
20
-108.3
11
111.34
21
-120.3
0
LINE
8
BLACK
6
CONTINUOUS
10
111.34
20
-120.3
11
111.322
21
-120.342
0
LINE
8
BLACK
6
CONTINUOUS
10
111.322
20
-120.342
11
110.322
21
-121.342
0
LINE
8
BLACK
6
CONTINUOUS
10
110.322
20
-121.342
11
110.28
21
-121.36
0
LINE
8
BLACK
6
CONTINUOUS
10
110.28
20
-121.36
11
97.68
21
-121.36
0
LINE
8
BLACK
6
CONTINUOUS
10
97.68
20
-121.36
11
97.6376
21
-121.342
0
LINE
8
BLACK
6
CONTINUOUS
10
97.6376
20
-121.342
11
96.6376
21
-120.342
0
LINE
8
BLACK
6
CONTINUOUS
10
96.6376
20
-120.342
11
96.62
21
-120.3
0
LINE
8
BLACK
6
CONTINUOUS
10
96.62
20
-120.3
11
96.62
21
-108.3
0
LINE
8
BLACK
6
CONTINUOUS
10
96.62
20
-108.3
11
96.6376
21
-108.258
0
LINE
8
BLACK
6
CONTINUOUS
10
96.6376
20
-108.258
11
96.6376
21
-108.258
0
LINE
8
BLACK
6
CONTINUOUS
10
96.6376
20
-108.258
11
97.6376
21
-107.258
0
LINE
8
BLACK
6
CONTINUOUS
10
97.6376
20
-107.258
11
97.68
21
-107.24
0
LINE
8
BLACK
6
CONTINUOUS
10
97.68
20
-107.24
11
110.28
21
-107.24
0
LINE
8
BLACK
6
CONTINUOUS
10
110.28
20
-107.24
11
110.322
21
-107.258
0
LINE
8
BLACK
6
CONTINUOUS
10
97.7049
20
-107.36
11
96.74
21
-108.325
0
LINE
8
BLACK
6
CONTINUOUS
10
96.74
20
-108.325
11
96.74
21
-120.275
0
LINE
8
BLACK
6
CONTINUOUS
10
96.74
20
-120.275
11
97.7049
21
-121.24
0
LINE
8
BLACK
6
CONTINUOUS
10
97.7049
20
-121.24
11
110.255
21
-121.24
0
LINE
8
BLACK
6
CONTINUOUS
10
110.255
20
-121.24
11
111.22
21
-120.275
0
LINE
8
BLACK
6
CONTINUOUS
10
111.22
20
-120.275
11
111.22
21
-108.325
0
LINE
8
BLACK
6
CONTINUOUS
10
111.22
20
-108.325
11
110.255
21
-107.36
0
LINE
8
BLACK
6
CONTINUOUS
10
110.255
20
-107.36
11
97.7049
21
-107.36
0
LINE
8
BLACK
6
CONTINUOUS
10
88.8924
20
-107.258
11
88.8924
21
-107.258
0
LINE
8
BLACK
6
CONTINUOUS
10
88.8924
20
-107.258
11
89.8924
21
-108.258
0
LINE
8
BLACK
6
CONTINUOUS
10
89.8924
20
-108.258
11
89.91
21
-108.3
0
LINE
8
BLACK
6
CONTINUOUS
10
89.91
20
-108.3
11
89.91
21
-108.3
0
LINE
8
BLACK
6
CONTINUOUS
10
89.91
20
-108.3
11
89.91
21
-120.3
0
LINE
8
BLACK
6
CONTINUOUS
10
89.91
20
-120.3
11
89.8924
21
-120.342
0
LINE
8
BLACK
6
CONTINUOUS
10
89.8924
20
-120.342
11
88.8924
21
-121.342
0
LINE
8
BLACK
6
CONTINUOUS
10
88.8924
20
-121.342
11
88.85
21
-121.36
0
LINE
8
BLACK
6
CONTINUOUS
10
88.85
20
-121.36
11
76.25
21
-121.36
0
LINE
8
BLACK
6
CONTINUOUS
10
76.25
20
-121.36
11
76.2076
21
-121.342
0
LINE
8
BLACK
6
CONTINUOUS
10
76.2076
20
-121.342
11
75.2076
21
-120.342
0
LINE
8
BLACK
6
CONTINUOUS
10
75.2076
20
-120.342
11
75.19
21
-120.3
0
LINE
8
BLACK
6
CONTINUOUS
10
75.19
20
-120.3
11
75.19
21
-108.3
0
LINE
8
BLACK
6
CONTINUOUS
10
75.19
20
-108.3
11
75.2076
21
-108.258
0
LINE
8
BLACK
6
CONTINUOUS
10
75.2076
20
-108.258
11
75.2076
21
-108.258
0
LINE
8
BLACK
6
CONTINUOUS
10
75.2076
20
-108.258
11
76.2076
21
-107.258
0
LINE
8
BLACK
6
CONTINUOUS
10
76.2076
20
-107.258
11
76.25
21
-107.24
0
LINE
8
BLACK
6
CONTINUOUS
10
76.25
20
-107.24
11
88.85
21
-107.24
0
LINE
8
BLACK
6
CONTINUOUS
10
88.85
20
-107.24
11
88.8924
21
-107.258
0
LINE
8
BLACK
6
CONTINUOUS
10
76.2749
20
-107.36
11
75.31
21
-108.325
0
LINE
8
BLACK
6
CONTINUOUS
10
75.31
20
-108.325
11
75.31
21
-120.275
0
LINE
8
BLACK
6
CONTINUOUS
10
75.31
20
-120.275
11
76.2749
21
-121.24
0
LINE
8
BLACK
6
CONTINUOUS
10
76.2749
20
-121.24
11
88.8251
21
-121.24
0
LINE
8
BLACK
6
CONTINUOUS
10
88.8251
20
-121.24
11
89.79
21
-120.275
0
LINE
8
BLACK
6
CONTINUOUS
10
89.79
20
-120.275
11
89.79
21
-108.325
0
LINE
8
BLACK
6
CONTINUOUS
10
89.79
20
-108.325
11
88.8251
21
-107.36
0
LINE
8
BLACK
6
CONTINUOUS
10
88.8251
20
-107.36
11
76.2749
21
-107.36
0
LINE
8
BLACK
6
CONTINUOUS
10
182.774
20
-111.173
11
182.81
21
-111.187
0
LINE
8
BLACK
6
CONTINUOUS
10
182.81
20
-111.187
11
182.824
21
-111.223
0
LINE
8
BLACK
6
CONTINUOUS
10
182.824
20
-111.223
11
182.824
21
-117.365
0
LINE
8
BLACK
6
CONTINUOUS
10
182.824
20
-117.365
11
182.81
21
-117.401
0
LINE
8
BLACK
6
CONTINUOUS
10
182.81
20
-117.401
11
182.774
21
-117.415
0
LINE
8
BLACK
6
CONTINUOUS
10
182.774
20
-117.415
11
179.179
21
-117.415
0
LINE
8
BLACK
6
CONTINUOUS
10
179.179
20
-117.415
11
179.144
21
-117.401
0
LINE
8
BLACK
6
CONTINUOUS
10
179.144
20
-117.401
11
179.129
21
-117.365
0
LINE
8
BLACK
6
CONTINUOUS
10
179.129
20
-117.365
11
179.129
21
-111.223
0
LINE
8
BLACK
6
CONTINUOUS
10
179.129
20
-111.223
11
179.144
21
-111.187
0
LINE
8
BLACK
6
CONTINUOUS
10
179.144
20
-111.187
11
179.179
21
-111.173
0
LINE
8
BLACK
6
CONTINUOUS
10
179.179
20
-111.173
11
182.774
21
-111.173
0
LINE
8
BLACK
6
CONTINUOUS
10
179.229
20
-111.273
11
179.229
21
-117.315
0
LINE
8
BLACK
6
CONTINUOUS
10
179.229
20
-117.315
11
182.724
21
-117.315
0
LINE
8
BLACK
6
CONTINUOUS
10
182.724
20
-117.315
11
182.724
21
-111.273
0
LINE
8
BLACK
6
CONTINUOUS
10
182.724
20
-111.273
11
179.229
21
-111.273
0
LINE
8
BLACK
6
CONTINUOUS
10
205.475
20
-114.3
11
205.495
21
-114.113
0
LINE
8
BLACK
6
CONTINUOUS
10
205.495
20
-114.113
11
205.553
21
-113.934
0
LINE
8
BLACK
6
CONTINUOUS
10
205.553
20
-113.934
11
205.647
21
-113.771
0
LINE
8
BLACK
6
CONTINUOUS
10
205.647
20
-113.771
11
205.773
21
-113.631
0
LINE
8
BLACK
6
CONTINUOUS
10
205.773
20
-113.631
11
205.925
21
-113.521
0
LINE
8
BLACK
6
CONTINUOUS
10
205.925
20
-113.521
11
206.097
21
-113.444
0
LINE
8
BLACK
6
CONTINUOUS
10
206.097
20
-113.444
11
206.281
21
-113.405
0
LINE
8
BLACK
6
CONTINUOUS
10
206.281
20
-113.405
11
206.469
21
-113.405
0
LINE
8
BLACK
6
CONTINUOUS
10
206.469
20
-113.405
11
206.653
21
-113.444
0
LINE
8
BLACK
6
CONTINUOUS
10
206.653
20
-113.444
11
206.825
21
-113.521
0
LINE
8
BLACK
6
CONTINUOUS
10
206.825
20
-113.521
11
206.977
21
-113.631
0
LINE
8
BLACK
6
CONTINUOUS
10
206.977
20
-113.631
11
207.103
21
-113.771
0
LINE
8
BLACK
6
CONTINUOUS
10
207.103
20
-113.771
11
207.197
21
-113.934
0
LINE
8
BLACK
6
CONTINUOUS
10
207.197
20
-113.934
11
207.255
21
-114.113
0
LINE
8
BLACK
6
CONTINUOUS
10
207.255
20
-114.113
11
207.275
21
-114.3
0
LINE
8
BLACK
6
CONTINUOUS
10
207.275
20
-114.3
11
207.255
21
-114.487
0
LINE
8
BLACK
6
CONTINUOUS
10
207.255
20
-114.487
11
207.197
21
-114.666
0
LINE
8
BLACK
6
CONTINUOUS
10
207.197
20
-114.666
11
207.103
21
-114.829
0
LINE
8
BLACK
6
CONTINUOUS
10
207.103
20
-114.829
11
206.977
21
-114.969
0
LINE
8
BLACK
6
CONTINUOUS
10
206.977
20
-114.969
11
206.825
21
-115.079
0
LINE
8
BLACK
6
CONTINUOUS
10
206.825
20
-115.079
11
206.653
21
-115.156
0
LINE
8
BLACK
6
CONTINUOUS
10
206.653
20
-115.156
11
206.469
21
-115.195
0
LINE
8
BLACK
6
CONTINUOUS
10
206.469
20
-115.195
11
206.281
21
-115.195
0
LINE
8
BLACK
6
CONTINUOUS
10
206.281
20
-115.195
11
206.097
21
-115.156
0
LINE
8
BLACK
6
CONTINUOUS
10
206.097
20
-115.156
11
205.925
21
-115.079
0
LINE
8
BLACK
6
CONTINUOUS
10
205.925
20
-115.079
11
205.773
21
-114.969
0
LINE
8
BLACK
6
CONTINUOUS
10
205.773
20
-114.969
11
205.647
21
-114.829
0
LINE
8
BLACK
6
CONTINUOUS
10
205.647
20
-114.829
11
205.553
21
-114.666
0
LINE
8
BLACK
6
CONTINUOUS
10
205.553
20
-114.666
11
205.495
21
-114.487
0
LINE
8
BLACK
6
CONTINUOUS
10
205.495
20
-114.487
11
205.475
21
-114.3
0
LINE
8
BLACK
6
CONTINUOUS
10
205.67
20
-114.3
11
205.69
21
-114.469
0
LINE
8
BLACK
6
CONTINUOUS
10
205.69
20
-114.469
11
205.751
21
-114.628
0
LINE
8
BLACK
6
CONTINUOUS
10
205.751
20
-114.628
11
205.847
21
-114.768
0
LINE
8
BLACK
6
CONTINUOUS
10
205.847
20
-114.768
11
205.974
21
-114.88
0
LINE
8
BLACK
6
CONTINUOUS
10
205.974
20
-114.88
11
206.125
21
-114.959
0
LINE
8
BLACK
6
CONTINUOUS
10
206.125
20
-114.959
11
206.29
21
-115
0
LINE
8
BLACK
6
CONTINUOUS
10
206.29
20
-115
11
206.46
21
-115
0
LINE
8
BLACK
6
CONTINUOUS
10
206.46
20
-115
11
206.625
21
-114.959
0
LINE
8
BLACK
6
CONTINUOUS
10
206.625
20
-114.959
11
206.776
21
-114.88
0
LINE
8
BLACK
6
CONTINUOUS
10
206.776
20
-114.88
11
206.903
21
-114.768
0
LINE
8
BLACK
6
CONTINUOUS
10
206.903
20
-114.768
11
206.999
21
-114.628
0
LINE
8
BLACK
6
CONTINUOUS
10
206.999
20
-114.628
11
207.06
21
-114.469
0
LINE
8
BLACK
6
CONTINUOUS
10
207.06
20
-114.469
11
207.08
21
-114.3
0
LINE
8
BLACK
6
CONTINUOUS
10
207.08
20
-114.3
11
207.06
21
-114.131
0
LINE
8
BLACK
6
CONTINUOUS
10
207.06
20
-114.131
11
206.999
21
-113.972
0
LINE
8
BLACK
6
CONTINUOUS
10
206.999
20
-113.972
11
206.903
21
-113.832
0
LINE
8
BLACK
6
CONTINUOUS
10
206.903
20
-113.832
11
206.776
21
-113.72
0
LINE
8
BLACK
6
CONTINUOUS
10
206.776
20
-113.72
11
206.625
21
-113.641
0
LINE
8
BLACK
6
CONTINUOUS
10
206.625
20
-113.641
11
206.46
21
-113.6
0
LINE
8
BLACK
6
CONTINUOUS
10
206.46
20
-113.6
11
206.29
21
-113.6
0
LINE
8
BLACK
6
CONTINUOUS
10
206.29
20
-113.6
11
206.125
21
-113.641
0
LINE
8
BLACK
6
CONTINUOUS
10
206.125
20
-113.641
11
205.974
21
-113.72
0
LINE
8
BLACK
6
CONTINUOUS
10
205.974
20
-113.72
11
205.847
21
-113.832
0
LINE
8
BLACK
6
CONTINUOUS
10
205.847
20
-113.832
11
205.751
21
-113.972
0
LINE
8
BLACK
6
CONTINUOUS
10
205.751
20
-113.972
11
205.69
21
-114.131
0
LINE
8
BLACK
6
CONTINUOUS
10
205.69
20
-114.131
11
205.67
21
-114.3
0
LINE
8
BLACK
6
CONTINUOUS
10
174.519
20
-114.3
11
174.538
21
-114.113
0
LINE
8
BLACK
6
CONTINUOUS
10
174.538
20
-114.113
11
174.597
21
-113.934
0
LINE
8
BLACK
6
CONTINUOUS
10
174.597
20
-113.934
11
174.691
21
-113.771
0
LINE
8
BLACK
6
CONTINUOUS
10
174.691
20
-113.771
11
174.817
21
-113.631
0
LINE
8
BLACK
6
CONTINUOUS
10
174.817
20
-113.631
11
174.969
21
-113.521
0
LINE
8
BLACK
6
CONTINUOUS
10
174.969
20
-113.521
11
175.141
21
-113.444
0
LINE
8
BLACK
6
CONTINUOUS
10
175.141
20
-113.444
11
175.325
21
-113.405
0
LINE
8
BLACK
6
CONTINUOUS
10
175.325
20
-113.405
11
175.513
21
-113.405
0
LINE
8
BLACK
6
CONTINUOUS
10
175.513
20
-113.405
11
175.697
21
-113.444
0
LINE
8
BLACK
6
CONTINUOUS
10
175.697
20
-113.444
11
175.869
21
-113.521
0
LINE
8
BLACK
6
CONTINUOUS
10
175.869
20
-113.521
11
176.021
21
-113.631
0
LINE
8
BLACK
6
CONTINUOUS
10
176.021
20
-113.631
11
176.147
21
-113.771
0
LINE
8
BLACK
6
CONTINUOUS
10
176.147
20
-113.771
11
176.241
21
-113.934
0
LINE
8
BLACK
6
CONTINUOUS
10
176.241
20
-113.934
11
176.299
21
-114.113
0
LINE
8
BLACK
6
CONTINUOUS
10
176.299
20
-114.113
11
176.319
21
-114.3
0
LINE
8
BLACK
6
CONTINUOUS
10
176.319
20
-114.3
11
176.299
21
-114.487
0
LINE
8
BLACK
6
CONTINUOUS
10
176.299
20
-114.487
11
176.241
21
-114.666
0
LINE
8
BLACK
6
CONTINUOUS
10
176.241
20
-114.666
11
176.147
21
-114.829
0
LINE
8
BLACK
6
CONTINUOUS
10
176.147
20
-114.829
11
176.021
21
-114.969
0
LINE
8
BLACK
6
CONTINUOUS
10
176.021
20
-114.969
11
175.869
21
-115.079
0
LINE
8
BLACK
6
CONTINUOUS
10
175.869
20
-115.079
11
175.697
21
-115.156
0
LINE
8
BLACK
6
CONTINUOUS
10
175.697
20
-115.156
11
175.513
21
-115.195
0
LINE
8
BLACK
6
CONTINUOUS
10
175.513
20
-115.195
11
175.325
21
-115.195
0
LINE
8
BLACK
6
CONTINUOUS
10
175.325
20
-115.195
11
175.141
21
-115.156
0
LINE
8
BLACK
6
CONTINUOUS
10
175.141
20
-115.156
11
174.969
21
-115.079
0
LINE
8
BLACK
6
CONTINUOUS
10
174.969
20
-115.079
11
174.817
21
-114.969
0
LINE
8
BLACK
6
CONTINUOUS
10
174.817
20
-114.969
11
174.691
21
-114.829
0
LINE
8
BLACK
6
CONTINUOUS
10
174.691
20
-114.829
11
174.597
21
-114.666
0
LINE
8
BLACK
6
CONTINUOUS
10
174.597
20
-114.666
11
174.538
21
-114.487
0
LINE
8
BLACK
6
CONTINUOUS
10
174.538
20
-114.487
11
174.519
21
-114.3
0
LINE
8
BLACK
6
CONTINUOUS
10
174.714
20
-114.3
11
174.734
21
-114.469
0
LINE
8
BLACK
6
CONTINUOUS
10
174.734
20
-114.469
11
174.794
21
-114.628
0
LINE
8
BLACK
6
CONTINUOUS
10
174.794
20
-114.628
11
174.891
21
-114.768
0
LINE
8
BLACK
6
CONTINUOUS
10
174.891
20
-114.768
11
175.018
21
-114.88
0
LINE
8
BLACK
6
CONTINUOUS
10
175.018
20
-114.88
11
175.169
21
-114.959
0
LINE
8
BLACK
6
CONTINUOUS
10
175.169
20
-114.959
11
175.334
21
-115
0
LINE
8
BLACK
6
CONTINUOUS
10
175.334
20
-115
11
175.504
21
-115
0
LINE
8
BLACK
6
CONTINUOUS
10
175.504
20
-115
11
175.669
21
-114.959
0
LINE
8
BLACK
6
CONTINUOUS
10
175.669
20
-114.959
11
175.819
21
-114.88
0
LINE
8
BLACK
6
CONTINUOUS
10
175.819
20
-114.88
11
175.947
21
-114.768
0
LINE
8
BLACK
6
CONTINUOUS
10
175.947
20
-114.768
11
176.043
21
-114.628
0
LINE
8
BLACK
6
CONTINUOUS
10
176.043
20
-114.628
11
176.103
21
-114.469
0
LINE
8
BLACK
6
CONTINUOUS
10
176.103
20
-114.469
11
176.124
21
-114.3
0
LINE
8
BLACK
6
CONTINUOUS
10
176.124
20
-114.3
11
176.103
21
-114.131
0
LINE
8
BLACK
6
CONTINUOUS
10
176.103
20
-114.131
11
176.043
21
-113.972
0
LINE
8
BLACK
6
CONTINUOUS
10
176.043
20
-113.972
11
175.947
21
-113.832
0
LINE
8
BLACK
6
CONTINUOUS
10
175.947
20
-113.832
11
175.819
21
-113.72
0
LINE
8
BLACK
6
CONTINUOUS
10
175.819
20
-113.72
11
175.669
21
-113.641
0
LINE
8
BLACK
6
CONTINUOUS
10
175.669
20
-113.641
11
175.504
21
-113.6
0
LINE
8
BLACK
6
CONTINUOUS
10
175.504
20
-113.6
11
175.334
21
-113.6
0
LINE
8
BLACK
6
CONTINUOUS
10
175.334
20
-113.6
11
175.169
21
-113.641
0
LINE
8
BLACK
6
CONTINUOUS
10
175.169
20
-113.641
11
175.018
21
-113.72
0
LINE
8
BLACK
6
CONTINUOUS
10
175.018
20
-113.72
11
174.891
21
-113.832
0
LINE
8
BLACK
6
CONTINUOUS
10
174.891
20
-113.832
11
174.794
21
-113.972
0
LINE
8
BLACK
6
CONTINUOUS
10
174.794
20
-113.972
11
174.734
21
-114.131
0
LINE
8
BLACK
6
CONTINUOUS
10
174.734
20
-114.131
11
174.714
21
-114.3
0
LINE
8
BLACK
6
CONTINUOUS
10
122.131
20
-114.3
11
122.151
21
-114.113
0
LINE
8
BLACK
6
CONTINUOUS
10
122.151
20
-114.113
11
122.209
21
-113.934
0
LINE
8
BLACK
6
CONTINUOUS
10
122.209
20
-113.934
11
122.303
21
-113.771
0
LINE
8
BLACK
6
CONTINUOUS
10
122.303
20
-113.771
11
122.429
21
-113.631
0
LINE
8
BLACK
6
CONTINUOUS
10
122.429
20
-113.631
11
122.581
21
-113.521
0
LINE
8
BLACK
6
CONTINUOUS
10
122.581
20
-113.521
11
122.753
21
-113.444
0
LINE
8
BLACK
6
CONTINUOUS
10
122.753
20
-113.444
11
122.937
21
-113.405
0
LINE
8
BLACK
6
CONTINUOUS
10
122.937
20
-113.405
11
123.125
21
-113.405
0
LINE
8
BLACK
6
CONTINUOUS
10
123.125
20
-113.405
11
123.309
21
-113.444
0
LINE
8
BLACK
6
CONTINUOUS
10
123.309
20
-113.444
11
123.481
21
-113.521
0
LINE
8
BLACK
6
CONTINUOUS
10
123.481
20
-113.521
11
123.633
21
-113.631
0
LINE
8
BLACK
6
CONTINUOUS
10
123.633
20
-113.631
11
123.759
21
-113.771
0
LINE
8
BLACK
6
CONTINUOUS
10
123.759
20
-113.771
11
123.853
21
-113.934
0
LINE
8
BLACK
6
CONTINUOUS
10
123.853
20
-113.934
11
123.912
21
-114.113
0
LINE
8
BLACK
6
CONTINUOUS
10
123.912
20
-114.113
11
123.931
21
-114.3
0
LINE
8
BLACK
6
CONTINUOUS
10
123.931
20
-114.3
11
123.912
21
-114.487
0
LINE
8
BLACK
6
CONTINUOUS
10
123.912
20
-114.487
11
123.853
21
-114.666
0
LINE
8
BLACK
6
CONTINUOUS
10
123.853
20
-114.666
11
123.759
21
-114.829
0
LINE
8
BLACK
6
CONTINUOUS
10
123.759
20
-114.829
11
123.633
21
-114.969
0
LINE
8
BLACK
6
CONTINUOUS
10
123.633
20
-114.969
11
123.481
21
-115.079
0
LINE
8
BLACK
6
CONTINUOUS
10
123.481
20
-115.079
11
123.309
21
-115.156
0
LINE
8
BLACK
6
CONTINUOUS
10
123.309
20
-115.156
11
123.125
21
-115.195
0
LINE
8
BLACK
6
CONTINUOUS
10
123.125
20
-115.195
11
122.937
21
-115.195
0
LINE
8
BLACK
6
CONTINUOUS
10
122.937
20
-115.195
11
122.753
21
-115.156
0
LINE
8
BLACK
6
CONTINUOUS
10
122.753
20
-115.156
11
122.581
21
-115.079
0
LINE
8
BLACK
6
CONTINUOUS
10
122.581
20
-115.079
11
122.429
21
-114.969
0
LINE
8
BLACK
6
CONTINUOUS
10
122.429
20
-114.969
11
122.303
21
-114.829
0
LINE
8
BLACK
6
CONTINUOUS
10
122.303
20
-114.829
11
122.209
21
-114.666
0
LINE
8
BLACK
6
CONTINUOUS
10
122.209
20
-114.666
11
122.151
21
-114.487
0
LINE
8
BLACK
6
CONTINUOUS
10
122.151
20
-114.487
11
122.131
21
-114.3
0
LINE
8
BLACK
6
CONTINUOUS
10
122.326
20
-114.3
11
122.347
21
-114.469
0
LINE
8
BLACK
6
CONTINUOUS
10
122.347
20
-114.469
11
122.407
21
-114.628
0
LINE
8
BLACK
6
CONTINUOUS
10
122.407
20
-114.628
11
122.503
21
-114.768
0
LINE
8
BLACK
6
CONTINUOUS
10
122.503
20
-114.768
11
122.631
21
-114.88
0
LINE
8
BLACK
6
CONTINUOUS
10
122.631
20
-114.88
11
122.781
21
-114.959
0
LINE
8
BLACK
6
CONTINUOUS
10
122.781
20
-114.959
11
122.946
21
-115
0
LINE
8
BLACK
6
CONTINUOUS
10
122.946
20
-115
11
123.116
21
-115
0
LINE
8
BLACK
6
CONTINUOUS
10
123.116
20
-115
11
123.281
21
-114.959
0
LINE
8
BLACK
6
CONTINUOUS
10
123.281
20
-114.959
11
123.432
21
-114.88
0
LINE
8
BLACK
6
CONTINUOUS
10
123.432
20
-114.88
11
123.559
21
-114.768
0
LINE
8
BLACK
6
CONTINUOUS
10
123.559
20
-114.768
11
123.656
21
-114.628
0
LINE
8
BLACK
6
CONTINUOUS
10
123.656
20
-114.628
11
123.716
21
-114.469
0
LINE
8
BLACK
6
CONTINUOUS
10
123.716
20
-114.469
11
123.736
21
-114.3
0
LINE
8
BLACK
6
CONTINUOUS
10
123.736
20
-114.3
11
123.716
21
-114.131
0
LINE
8
BLACK
6
CONTINUOUS
10
123.716
20
-114.131
11
123.656
21
-113.972
0
LINE
8
BLACK
6
CONTINUOUS
10
123.656
20
-113.972
11
123.559
21
-113.832
0
LINE
8
BLACK
6
CONTINUOUS
10
123.559
20
-113.832
11
123.432
21
-113.72
0
LINE
8
BLACK
6
CONTINUOUS
10
123.432
20
-113.72
11
123.281
21
-113.641
0
LINE
8
BLACK
6
CONTINUOUS
10
123.281
20
-113.641
11
123.116
21
-113.6
0
LINE
8
BLACK
6
CONTINUOUS
10
123.116
20
-113.6
11
122.946
21
-113.6
0
LINE
8
BLACK
6
CONTINUOUS
10
122.946
20
-113.6
11
122.781
21
-113.641
0
LINE
8
BLACK
6
CONTINUOUS
10
122.781
20
-113.641
11
122.631
21
-113.72
0
LINE
8
BLACK
6
CONTINUOUS
10
122.631
20
-113.72
11
122.503
21
-113.832
0
LINE
8
BLACK
6
CONTINUOUS
10
122.503
20
-113.832
11
122.407
21
-113.972
0
LINE
8
BLACK
6
CONTINUOUS
10
122.407
20
-113.972
11
122.347
21
-114.131
0
LINE
8
BLACK
6
CONTINUOUS
10
122.347
20
-114.131
11
122.326
21
-114.3
0
LINE
8
BLACK
6
CONTINUOUS
10
91.175
20
-114.3
11
91.1947
21
-114.113
0
LINE
8
BLACK
6
CONTINUOUS
10
91.1947
20
-114.113
11
91.2528
21
-113.934
0
LINE
8
BLACK
6
CONTINUOUS
10
91.2528
20
-113.934
11
91.3469
21
-113.771
0
LINE
8
BLACK
6
CONTINUOUS
10
91.3469
20
-113.771
11
91.4728
21
-113.631
0
LINE
8
BLACK
6
CONTINUOUS
10
91.4728
20
-113.631
11
91.625
21
-113.521
0
LINE
8
BLACK
6
CONTINUOUS
10
91.625
20
-113.521
11
91.7969
21
-113.444
0
LINE
8
BLACK
6
CONTINUOUS
10
91.7969
20
-113.444
11
91.9809
21
-113.405
0
LINE
8
BLACK
6
CONTINUOUS
10
91.9809
20
-113.405
11
92.1691
21
-113.405
0
LINE
8
BLACK
6
CONTINUOUS
10
92.1691
20
-113.405
11
92.3531
21
-113.444
0
LINE
8
BLACK
6
CONTINUOUS
10
92.3531
20
-113.444
11
92.525
21
-113.521
0
LINE
8
BLACK
6
CONTINUOUS
10
92.525
20
-113.521
11
92.6772
21
-113.631
0
LINE
8
BLACK
6
CONTINUOUS
10
92.6772
20
-113.631
11
92.8031
21
-113.771
0
LINE
8
BLACK
6
CONTINUOUS
10
92.8031
20
-113.771
11
92.8972
21
-113.934
0
LINE
8
BLACK
6
CONTINUOUS
10
92.8972
20
-113.934
11
92.9553
21
-114.113
0
LINE
8
BLACK
6
CONTINUOUS
10
92.9553
20
-114.113
11
92.975
21
-114.3
0
LINE
8
BLACK
6
CONTINUOUS
10
92.975
20
-114.3
11
92.9553
21
-114.487
0
LINE
8
BLACK
6
CONTINUOUS
10
92.9553
20
-114.487
11
92.8972
21
-114.666
0
LINE
8
BLACK
6
CONTINUOUS
10
92.8972
20
-114.666
11
92.8031
21
-114.829
0
LINE
8
BLACK
6
CONTINUOUS
10
92.8031
20
-114.829
11
92.6772
21
-114.969
0
LINE
8
BLACK
6
CONTINUOUS
10
92.6772
20
-114.969
11
92.525
21
-115.079
0
LINE
8
BLACK
6
CONTINUOUS
10
92.525
20
-115.079
11
92.3531
21
-115.156
0
LINE
8
BLACK
6
CONTINUOUS
10
92.3531
20
-115.156
11
92.1691
21
-115.195
0
LINE
8
BLACK
6
CONTINUOUS
10
92.1691
20
-115.195
11
91.9809
21
-115.195
0
LINE
8
BLACK
6
CONTINUOUS
10
91.9809
20
-115.195
11
91.7969
21
-115.156
0
LINE
8
BLACK
6
CONTINUOUS
10
91.7969
20
-115.156
11
91.625
21
-115.079
0
LINE
8
BLACK
6
CONTINUOUS
10
91.625
20
-115.079
11
91.4728
21
-114.969
0
LINE
8
BLACK
6
CONTINUOUS
10
91.4728
20
-114.969
11
91.3469
21
-114.829
0
LINE
8
BLACK
6
CONTINUOUS
10
91.3469
20
-114.829
11
91.2528
21
-114.666
0
LINE
8
BLACK
6
CONTINUOUS
10
91.2528
20
-114.666
11
91.1947
21
-114.487
0
LINE
8
BLACK
6
CONTINUOUS
10
91.1947
20
-114.487
11
91.175
21
-114.3
0
LINE
8
BLACK
6
CONTINUOUS
10
91.3699
20
-114.3
11
91.3903
21
-114.469
0
LINE
8
BLACK
6
CONTINUOUS
10
91.3903
20
-114.469
11
91.4506
21
-114.628
0
LINE
8
BLACK
6
CONTINUOUS
10
91.4506
20
-114.628
11
91.5472
21
-114.768
0
LINE
8
BLACK
6
CONTINUOUS
10
91.5472
20
-114.768
11
91.6744
21
-114.88
0
LINE
8
BLACK
6
CONTINUOUS
10
91.6744
20
-114.88
11
91.825
21
-114.959
0
LINE
8
BLACK
6
CONTINUOUS
10
91.825
20
-114.959
11
91.99
21
-115
0
LINE
8
BLACK
6
CONTINUOUS
10
91.99
20
-115
11
92.16
21
-115
0
LINE
8
BLACK
6
CONTINUOUS
10
92.16
20
-115
11
92.325
21
-114.959
0
LINE
8
BLACK
6
CONTINUOUS
10
92.325
20
-114.959
11
92.4756
21
-114.88
0
LINE
8
BLACK
6
CONTINUOUS
10
92.4756
20
-114.88
11
92.6028
21
-114.768
0
LINE
8
BLACK
6
CONTINUOUS
10
92.6028
20
-114.768
11
92.6994
21
-114.628
0
LINE
8
BLACK
6
CONTINUOUS
10
92.6994
20
-114.628
11
92.7597
21
-114.469
0
LINE
8
BLACK
6
CONTINUOUS
10
92.7597
20
-114.469
11
92.7801
21
-114.3
0
LINE
8
BLACK
6
CONTINUOUS
10
92.7801
20
-114.3
11
92.7597
21
-114.131
0
LINE
8
BLACK
6
CONTINUOUS
10
92.7597
20
-114.131
11
92.6994
21
-113.972
0
LINE
8
BLACK
6
CONTINUOUS
10
92.6994
20
-113.972
11
92.6028
21
-113.832
0
LINE
8
BLACK
6
CONTINUOUS
10
92.6028
20
-113.832
11
92.4756
21
-113.72
0
LINE
8
BLACK
6
CONTINUOUS
10
92.4756
20
-113.72
11
92.325
21
-113.641
0
LINE
8
BLACK
6
CONTINUOUS
10
92.325
20
-113.641
11
92.16
21
-113.6
0
LINE
8
BLACK
6
CONTINUOUS
10
92.16
20
-113.6
11
91.99
21
-113.6
0
LINE
8
BLACK
6
CONTINUOUS
10
91.99
20
-113.6
11
91.825
21
-113.641
0
LINE
8
BLACK
6
CONTINUOUS
10
91.825
20
-113.641
11
91.6744
21
-113.72
0
LINE
8
BLACK
6
CONTINUOUS
10
91.6744
20
-113.72
11
91.5472
21
-113.832
0
LINE
8
BLACK
6
CONTINUOUS
10
91.5472
20
-113.832
11
91.4506
21
-113.972
0
LINE
8
BLACK
6
CONTINUOUS
10
91.4506
20
-113.972
11
91.3903
21
-114.131
0
LINE
8
BLACK
6
CONTINUOUS
10
91.3903
20
-114.131
11
91.3699
21
-114.3
0
LINE
8
BLACK
6
CONTINUOUS
10
250.484
20
-102.934
11
250.503
21
-102.717
0
LINE
8
BLACK
6
CONTINUOUS
10
250.503
20
-102.717
11
250.56
21
-102.506
0
LINE
8
BLACK
6
CONTINUOUS
10
250.56
20
-102.506
11
250.652
21
-102.309
0
LINE
8
BLACK
6
CONTINUOUS
10
250.652
20
-102.309
11
250.777
21
-102.131
0
LINE
8
BLACK
6
CONTINUOUS
10
250.777
20
-102.131
11
250.931
21
-101.976
0
LINE
8
BLACK
6
CONTINUOUS
10
250.931
20
-101.976
11
251.109
21
-101.851
0
LINE
8
BLACK
6
CONTINUOUS
10
251.109
20
-101.851
11
251.307
21
-101.759
0
LINE
8
BLACK
6
CONTINUOUS
10
251.307
20
-101.759
11
251.517
21
-101.703
0
LINE
8
BLACK
6
CONTINUOUS
10
251.517
20
-101.703
11
251.734
21
-101.684
0
LINE
8
BLACK
6
CONTINUOUS
10
251.734
20
-101.684
11
251.951
21
-101.703
0
LINE
8
BLACK
6
CONTINUOUS
10
251.951
20
-101.703
11
252.162
21
-101.759
0
LINE
8
BLACK
6
CONTINUOUS
10
252.162
20
-101.759
11
252.359
21
-101.851
0
LINE
8
BLACK
6
CONTINUOUS
10
252.359
20
-101.851
11
252.538
21
-101.976
0
LINE
8
BLACK
6
CONTINUOUS
10
252.538
20
-101.976
11
252.692
21
-102.131
0
LINE
8
BLACK
6
CONTINUOUS
10
252.692
20
-102.131
11
252.817
21
-102.309
0
LINE
8
BLACK
6
CONTINUOUS
10
252.817
20
-102.309
11
252.909
21
-102.506
0
LINE
8
BLACK
6
CONTINUOUS
10
252.909
20
-102.506
11
252.965
21
-102.717
0
LINE
8
BLACK
6
CONTINUOUS
10
252.965
20
-102.717
11
252.984
21
-102.934
0
LINE
8
BLACK
6
CONTINUOUS
10
252.984
20
-102.934
11
252.965
21
-103.151
0
LINE
8
BLACK
6
CONTINUOUS
10
252.965
20
-103.151
11
252.909
21
-103.362
0
LINE
8
BLACK
6
CONTINUOUS
10
252.909
20
-103.362
11
252.817
21
-103.559
0
LINE
8
BLACK
6
CONTINUOUS
10
252.817
20
-103.559
11
252.692
21
-103.737
0
LINE
8
BLACK
6
CONTINUOUS
10
252.692
20
-103.737
11
252.538
21
-103.892
0
LINE
8
BLACK
6
CONTINUOUS
10
252.538
20
-103.892
11
252.359
21
-104.017
0
LINE
8
BLACK
6
CONTINUOUS
10
252.359
20
-104.017
11
252.162
21
-104.109
0
LINE
8
BLACK
6
CONTINUOUS
10
252.162
20
-104.109
11
251.951
21
-104.165
0
LINE
8
BLACK
6
CONTINUOUS
10
251.951
20
-104.165
11
251.734
21
-104.184
0
LINE
8
BLACK
6
CONTINUOUS
10
251.734
20
-104.184
11
251.517
21
-104.165
0
LINE
8
BLACK
6
CONTINUOUS
10
251.517
20
-104.165
11
251.307
21
-104.109
0
LINE
8
BLACK
6
CONTINUOUS
10
251.307
20
-104.109
11
251.109
21
-104.017
0
LINE
8
BLACK
6
CONTINUOUS
10
251.109
20
-104.017
11
250.931
21
-103.892
0
LINE
8
BLACK
6
CONTINUOUS
10
250.931
20
-103.892
11
250.777
21
-103.737
0
LINE
8
BLACK
6
CONTINUOUS
10
250.777
20
-103.737
11
250.652
21
-103.559
0
LINE
8
BLACK
6
CONTINUOUS
10
250.652
20
-103.559
11
250.56
21
-103.362
0
LINE
8
BLACK
6
CONTINUOUS
10
250.56
20
-103.362
11
250.503
21
-103.151
0
LINE
8
BLACK
6
CONTINUOUS
10
250.503
20
-103.151
11
250.484
21
-102.934
0
LINE
8
BLACK
6
CONTINUOUS
10
250.679
20
-102.934
11
250.7
21
-103.14
0
LINE
8
BLACK
6
CONTINUOUS
10
250.7
20
-103.14
11
250.76
21
-103.338
0
LINE
8
BLACK
6
CONTINUOUS
10
250.76
20
-103.338
11
250.857
21
-103.52
0
LINE
8
BLACK
6
CONTINUOUS
10
250.857
20
-103.52
11
250.988
21
-103.68
0
LINE
8
BLACK
6
CONTINUOUS
10
250.988
20
-103.68
11
251.148
21
-103.811
0
LINE
8
BLACK
6
CONTINUOUS
10
251.148
20
-103.811
11
251.331
21
-103.909
0
LINE
8
BLACK
6
CONTINUOUS
10
251.331
20
-103.909
11
251.529
21
-103.969
0
LINE
8
BLACK
6
CONTINUOUS
10
251.529
20
-103.969
11
251.734
21
-103.989
0
LINE
8
BLACK
6
CONTINUOUS
10
251.734
20
-103.989
11
251.94
21
-103.969
0
LINE
8
BLACK
6
CONTINUOUS
10
251.94
20
-103.969
11
252.138
21
-103.909
0
LINE
8
BLACK
6
CONTINUOUS
10
252.138
20
-103.909
11
252.321
21
-103.811
0
LINE
8
BLACK
6
CONTINUOUS
10
252.321
20
-103.811
11
252.48
21
-103.68
0
LINE
8
BLACK
6
CONTINUOUS
10
252.48
20
-103.68
11
252.612
21
-103.52
0
LINE
8
BLACK
6
CONTINUOUS
10
252.612
20
-103.52
11
252.709
21
-103.338
0
LINE
8
BLACK
6
CONTINUOUS
10
252.709
20
-103.338
11
252.769
21
-103.14
0
LINE
8
BLACK
6
CONTINUOUS
10
252.769
20
-103.14
11
252.789
21
-102.934
0
LINE
8
BLACK
6
CONTINUOUS
10
252.789
20
-102.934
11
252.769
21
-102.728
0
LINE
8
BLACK
6
CONTINUOUS
10
252.769
20
-102.728
11
252.709
21
-102.53
0
LINE
8
BLACK
6
CONTINUOUS
10
252.709
20
-102.53
11
252.612
21
-102.348
0
LINE
8
BLACK
6
CONTINUOUS
10
252.612
20
-102.348
11
252.48
21
-102.188
0
LINE
8
BLACK
6
CONTINUOUS
10
252.48
20
-102.188
11
252.321
21
-102.057
0
LINE
8
BLACK
6
CONTINUOUS
10
252.321
20
-102.057
11
252.138
21
-101.959
0
LINE
8
BLACK
6
CONTINUOUS
10
252.138
20
-101.959
11
251.94
21
-101.899
0
LINE
8
BLACK
6
CONTINUOUS
10
251.94
20
-101.899
11
251.734
21
-101.879
0
LINE
8
BLACK
6
CONTINUOUS
10
251.734
20
-101.879
11
251.529
21
-101.899
0
LINE
8
BLACK
6
CONTINUOUS
10
251.529
20
-101.899
11
251.331
21
-101.959
0
LINE
8
BLACK
6
CONTINUOUS
10
251.331
20
-101.959
11
251.148
21
-102.057
0
LINE
8
BLACK
6
CONTINUOUS
10
251.148
20
-102.057
11
250.988
21
-102.188
0
LINE
8
BLACK
6
CONTINUOUS
10
250.988
20
-102.188
11
250.857
21
-102.348
0
LINE
8
BLACK
6
CONTINUOUS
10
250.857
20
-102.348
11
250.76
21
-102.53
0
LINE
8
BLACK
6
CONTINUOUS
10
250.76
20
-102.53
11
250.7
21
-102.728
0
LINE
8
BLACK
6
CONTINUOUS
10
250.7
20
-102.728
11
250.679
21
-102.934
0
LINE
8
BLACK
6
CONTINUOUS
10
45.466
20
-102.934
11
45.485
21
-102.717
0
LINE
8
BLACK
6
CONTINUOUS
10
45.485
20
-102.717
11
45.5414
21
-102.506
0
LINE
8
BLACK
6
CONTINUOUS
10
45.5414
20
-102.506
11
45.6335
21
-102.309
0
LINE
8
BLACK
6
CONTINUOUS
10
45.6335
20
-102.309
11
45.7584
21
-102.131
0
LINE
8
BLACK
6
CONTINUOUS
10
45.7584
20
-102.131
11
45.9125
21
-101.976
0
LINE
8
BLACK
6
CONTINUOUS
10
45.9125
20
-101.976
11
46.091
21
-101.851
0
LINE
8
BLACK
6
CONTINUOUS
10
46.091
20
-101.851
11
46.2885
21
-101.759
0
LINE
8
BLACK
6
CONTINUOUS
10
46.2885
20
-101.759
11
46.4989
21
-101.703
0
LINE
8
BLACK
6
CONTINUOUS
10
46.4989
20
-101.703
11
46.716
21
-101.684
0
LINE
8
BLACK
6
CONTINUOUS
10
46.716
20
-101.684
11
46.9331
21
-101.703
0
LINE
8
BLACK
6
CONTINUOUS
10
46.9331
20
-101.703
11
47.1435
21
-101.759
0
LINE
8
BLACK
6
CONTINUOUS
10
47.1435
20
-101.759
11
47.341
21
-101.851
0
LINE
8
BLACK
6
CONTINUOUS
10
47.341
20
-101.851
11
47.5195
21
-101.976
0
LINE
8
BLACK
6
CONTINUOUS
10
47.5195
20
-101.976
11
47.6736
21
-102.131
0
LINE
8
BLACK
6
CONTINUOUS
10
47.6736
20
-102.131
11
47.7985
21
-102.309
0
LINE
8
BLACK
6
CONTINUOUS
10
47.7985
20
-102.309
11
47.8906
21
-102.506
0
LINE
8
BLACK
6
CONTINUOUS
10
47.8906
20
-102.506
11
47.947
21
-102.717
0
LINE
8
BLACK
6
CONTINUOUS
10
47.947
20
-102.717
11
47.966
21
-102.934
0
LINE
8
BLACK
6
CONTINUOUS
10
47.966
20
-102.934
11
47.947
21
-103.151
0
LINE
8
BLACK
6
CONTINUOUS
10
47.947
20
-103.151
11
47.8906
21
-103.362
0
LINE
8
BLACK
6
CONTINUOUS
10
47.8906
20
-103.362
11
47.7985
21
-103.559
0
LINE
8
BLACK
6
CONTINUOUS
10
47.7985
20
-103.559
11
47.6736
21
-103.737
0
LINE
8
BLACK
6
CONTINUOUS
10
47.6736
20
-103.737
11
47.5195
21
-103.892
0
LINE
8
BLACK
6
CONTINUOUS
10
47.5195
20
-103.892
11
47.341
21
-104.017
0
LINE
8
BLACK
6
CONTINUOUS
10
47.341
20
-104.017
11
47.1435
21
-104.109
0
LINE
8
BLACK
6
CONTINUOUS
10
47.1435
20
-104.109
11
46.9331
21
-104.165
0
LINE
8
BLACK
6
CONTINUOUS
10
46.9331
20
-104.165
11
46.716
21
-104.184
0
LINE
8
BLACK
6
CONTINUOUS
10
46.716
20
-104.184
11
46.4989
21
-104.165
0
LINE
8
BLACK
6
CONTINUOUS
10
46.4989
20
-104.165
11
46.2885
21
-104.109
0
LINE
8
BLACK
6
CONTINUOUS
10
46.2885
20
-104.109
11
46.091
21
-104.017
0
LINE
8
BLACK
6
CONTINUOUS
10
46.091
20
-104.017
11
45.9125
21
-103.892
0
LINE
8
BLACK
6
CONTINUOUS
10
45.9125
20
-103.892
11
45.7584
21
-103.737
0
LINE
8
BLACK
6
CONTINUOUS
10
45.7584
20
-103.737
11
45.6335
21
-103.559
0
LINE
8
BLACK
6
CONTINUOUS
10
45.6335
20
-103.559
11
45.5414
21
-103.362
0
LINE
8
BLACK
6
CONTINUOUS
10
45.5414
20
-103.362
11
45.485
21
-103.151
0
LINE
8
BLACK
6
CONTINUOUS
10
45.485
20
-103.151
11
45.466
21
-102.934
0
LINE
8
BLACK
6
CONTINUOUS
10
45.6609
20
-102.934
11
45.6812
21
-103.14
0
LINE
8
BLACK
6
CONTINUOUS
10
45.6812
20
-103.14
11
45.7412
21
-103.338
0
LINE
8
BLACK
6
CONTINUOUS
10
45.7412
20
-103.338
11
45.8387
21
-103.52
0
LINE
8
BLACK
6
CONTINUOUS
10
45.8387
20
-103.52
11
45.9699
21
-103.68
0
LINE
8
BLACK
6
CONTINUOUS
10
45.9699
20
-103.68
11
46.1298
21
-103.811
0
LINE
8
BLACK
6
CONTINUOUS
10
46.1298
20
-103.811
11
46.3122
21
-103.909
0
LINE
8
BLACK
6
CONTINUOUS
10
46.3122
20
-103.909
11
46.5102
21
-103.969
0
LINE
8
BLACK
6
CONTINUOUS
10
46.5102
20
-103.969
11
46.716
21
-103.989
0
LINE
8
BLACK
6
CONTINUOUS
10
46.716
20
-103.989
11
46.9218
21
-103.969
0
LINE
8
BLACK
6
CONTINUOUS
10
46.9218
20
-103.969
11
47.1198
21
-103.909
0
LINE
8
BLACK
6
CONTINUOUS
10
47.1198
20
-103.909
11
47.3022
21
-103.811
0
LINE
8
BLACK
6
CONTINUOUS
10
47.3022
20
-103.811
11
47.4621
21
-103.68
0
LINE
8
BLACK
6
CONTINUOUS
10
47.4621
20
-103.68
11
47.5933
21
-103.52
0
LINE
8
BLACK
6
CONTINUOUS
10
47.5933
20
-103.52
11
47.6908
21
-103.338
0
LINE
8
BLACK
6
CONTINUOUS
10
47.6908
20
-103.338
11
47.7508
21
-103.14
0
LINE
8
BLACK
6
CONTINUOUS
10
47.7508
20
-103.14
11
47.7711
21
-102.934
0
LINE
8
BLACK
6
CONTINUOUS
10
47.7711
20
-102.934
11
47.7508
21
-102.728
0
LINE
8
BLACK
6
CONTINUOUS
10
47.7508
20
-102.728
11
47.6908
21
-102.53
0
LINE
8
BLACK
6
CONTINUOUS
10
47.6908
20
-102.53
11
47.5933
21
-102.348
0
LINE
8
BLACK
6
CONTINUOUS
10
47.5933
20
-102.348
11
47.4621
21
-102.188
0
LINE
8
BLACK
6
CONTINUOUS
10
47.4621
20
-102.188
11
47.3022
21
-102.057
0
LINE
8
BLACK
6
CONTINUOUS
10
47.3022
20
-102.057
11
47.1198
21
-101.959
0
LINE
8
BLACK
6
CONTINUOUS
10
47.1198
20
-101.959
11
46.9218
21
-101.899
0
LINE
8
BLACK
6
CONTINUOUS
10
46.9218
20
-101.899
11
46.716
21
-101.879
0
LINE
8
BLACK
6
CONTINUOUS
10
46.716
20
-101.879
11
46.5102
21
-101.899
0
LINE
8
BLACK
6
CONTINUOUS
10
46.5102
20
-101.899
11
46.3122
21
-101.959
0
LINE
8
BLACK
6
CONTINUOUS
10
46.3122
20
-101.959
11
46.1298
21
-102.057
0
LINE
8
BLACK
6
CONTINUOUS
10
46.1298
20
-102.057
11
45.9699
21
-102.188
0
LINE
8
BLACK
6
CONTINUOUS
10
45.9699
20
-102.188
11
45.8387
21
-102.348
0
LINE
8
BLACK
6
CONTINUOUS
10
45.8387
20
-102.348
11
45.7412
21
-102.53
0
LINE
8
BLACK
6
CONTINUOUS
10
45.7412
20
-102.53
11
45.6812
21
-102.728
0
LINE
8
BLACK
6
CONTINUOUS
10
45.6812
20
-102.728
11
45.6609
21
-102.934
0
LINE
8
BLACK
6
CONTINUOUS
10
248.437
20
-88.2076
11
248.437
21
-88.2076
0
LINE
8
BLACK
6
CONTINUOUS
10
248.437
20
-88.2076
11
249.437
21
-89.2076
0
LINE
8
BLACK
6
CONTINUOUS
10
249.437
20
-89.2076
11
249.455
21
-89.25
0
LINE
8
BLACK
6
CONTINUOUS
10
249.455
20
-89.25
11
249.455
21
-101.25
0
LINE
8
BLACK
6
CONTINUOUS
10
249.455
20
-101.25
11
249.437
21
-101.292
0
LINE
8
BLACK
6
CONTINUOUS
10
249.437
20
-101.292
11
248.437
21
-102.292
0
LINE
8
BLACK
6
CONTINUOUS
10
248.437
20
-102.292
11
248.437
21
-102.292
0
LINE
8
BLACK
6
CONTINUOUS
10
248.437
20
-102.292
11
248.395
21
-102.31
0
LINE
8
BLACK
6
CONTINUOUS
10
248.395
20
-102.31
11
235.795
21
-102.31
0
LINE
8
BLACK
6
CONTINUOUS
10
235.795
20
-102.31
11
235.753
21
-102.292
0
LINE
8
BLACK
6
CONTINUOUS
10
235.753
20
-102.292
11
234.753
21
-101.292
0
LINE
8
BLACK
6
CONTINUOUS
10
234.753
20
-101.292
11
234.735
21
-101.25
0
LINE
8
BLACK
6
CONTINUOUS
10
234.735
20
-101.25
11
234.735
21
-89.25
0
LINE
8
BLACK
6
CONTINUOUS
10
234.735
20
-89.25
11
234.753
21
-89.2076
0
LINE
8
BLACK
6
CONTINUOUS
10
234.753
20
-89.2076
11
235.753
21
-88.2076
0
LINE
8
BLACK
6
CONTINUOUS
10
235.753
20
-88.2076
11
235.795
21
-88.19
0
LINE
8
BLACK
6
CONTINUOUS
10
235.795
20
-88.19
11
248.395
21
-88.19
0
LINE
8
BLACK
6
CONTINUOUS
10
248.395
20
-88.19
11
248.437
21
-88.2076
0
LINE
8
BLACK
6
CONTINUOUS
10
235.82
20
-88.31
11
234.855
21
-89.2749
0
LINE
8
BLACK
6
CONTINUOUS
10
234.855
20
-89.2749
11
234.855
21
-101.225
0
LINE
8
BLACK
6
CONTINUOUS
10
234.855
20
-101.225
11
235.82
21
-102.19
0
LINE
8
BLACK
6
CONTINUOUS
10
235.82
20
-102.19
11
248.37
21
-102.19
0
LINE
8
BLACK
6
CONTINUOUS
10
248.37
20
-102.19
11
249.335
21
-101.225
0
LINE
8
BLACK
6
CONTINUOUS
10
249.335
20
-101.225
11
249.335
21
-89.2749
0
LINE
8
BLACK
6
CONTINUOUS
10
249.335
20
-89.2749
11
248.37
21
-88.31
0
LINE
8
BLACK
6
CONTINUOUS
10
248.37
20
-88.31
11
235.82
21
-88.31
0
LINE
8
BLACK
6
CONTINUOUS
10
227.005
20
-88.2076
11
227.005
21
-88.2076
0
LINE
8
BLACK
6
CONTINUOUS
10
227.005
20
-88.2076
11
228.005
21
-89.2076
0
LINE
8
BLACK
6
CONTINUOUS
10
228.005
20
-89.2076
11
228.022
21
-89.25
0
LINE
8
BLACK
6
CONTINUOUS
10
228.022
20
-89.25
11
228.022
21
-101.25
0
LINE
8
BLACK
6
CONTINUOUS
10
228.022
20
-101.25
11
228.005
21
-101.292
0
LINE
8
BLACK
6
CONTINUOUS
10
228.005
20
-101.292
11
227.005
21
-102.292
0
LINE
8
BLACK
6
CONTINUOUS
10
227.005
20
-102.292
11
227.005
21
-102.292
0
LINE
8
BLACK
6
CONTINUOUS
10
227.005
20
-102.292
11
226.962
21
-102.31
0
LINE
8
BLACK
6
CONTINUOUS
10
226.962
20
-102.31
11
214.362
21
-102.31
0
LINE
8
BLACK
6
CONTINUOUS
10
214.362
20
-102.31
11
214.32
21
-102.292
0
LINE
8
BLACK
6
CONTINUOUS
10
214.32
20
-102.292
11
213.32
21
-101.292
0
LINE
8
BLACK
6
CONTINUOUS
10
213.32
20
-101.292
11
213.302
21
-101.25
0
LINE
8
BLACK
6
CONTINUOUS
10
213.302
20
-101.25
11
213.302
21
-89.25
0
LINE
8
BLACK
6
CONTINUOUS
10
213.302
20
-89.25
11
213.32
21
-89.2076
0
LINE
8
BLACK
6
CONTINUOUS
10
213.32
20
-89.2076
11
214.32
21
-88.2076
0
LINE
8
BLACK
6
CONTINUOUS
10
214.32
20
-88.2076
11
214.362
21
-88.19
0
LINE
8
BLACK
6
CONTINUOUS
10
214.362
20
-88.19
11
226.962
21
-88.19
0
LINE
8
BLACK
6
CONTINUOUS
10
226.962
20
-88.19
11
227.005
21
-88.2076
0
LINE
8
BLACK
6
CONTINUOUS
10
214.387
20
-88.31
11
213.422
21
-89.2749
0
LINE
8
BLACK
6
CONTINUOUS
10
213.422
20
-89.2749
11
213.422
21
-101.225
0
LINE
8
BLACK
6
CONTINUOUS
10
213.422
20
-101.225
11
214.387
21
-102.19
0
LINE
8
BLACK
6
CONTINUOUS
10
214.387
20
-102.19
11
226.938
21
-102.19
0
LINE
8
BLACK
6
CONTINUOUS
10
226.938
20
-102.19
11
227.903
21
-101.225
0
LINE
8
BLACK
6
CONTINUOUS
10
227.903
20
-101.225
11
227.903
21
-89.2749
0
LINE
8
BLACK
6
CONTINUOUS
10
227.903
20
-89.2749
11
226.938
21
-88.31
0
LINE
8
BLACK
6
CONTINUOUS
10
226.938
20
-88.31
11
214.387
21
-88.31
0
LINE
8
BLACK
6
CONTINUOUS
10
207.955
20
-88.2076
11
207.955
21
-88.2076
0
LINE
8
BLACK
6
CONTINUOUS
10
207.955
20
-88.2076
11
208.955
21
-89.2076
0
LINE
8
BLACK
6
CONTINUOUS
10
208.955
20
-89.2076
11
208.972
21
-89.25
0
LINE
8
BLACK
6
CONTINUOUS
10
208.972
20
-89.25
11
208.972
21
-101.25
0
LINE
8
BLACK
6
CONTINUOUS
10
208.972
20
-101.25
11
208.955
21
-101.292
0
LINE
8
BLACK
6
CONTINUOUS
10
208.955
20
-101.292
11
207.955
21
-102.292
0
LINE
8
BLACK
6
CONTINUOUS
10
207.955
20
-102.292
11
207.955
21
-102.292
0
LINE
8
BLACK
6
CONTINUOUS
10
207.955
20
-102.292
11
207.912
21
-102.31
0
LINE
8
BLACK
6
CONTINUOUS
10
207.912
20
-102.31
11
195.312
21
-102.31
0
LINE
8
BLACK
6
CONTINUOUS
10
195.312
20
-102.31
11
195.27
21
-102.292
0
LINE
8
BLACK
6
CONTINUOUS
10
195.27
20
-102.292
11
194.27
21
-101.292
0
LINE
8
BLACK
6
CONTINUOUS
10
194.27
20
-101.292
11
194.252
21
-101.25
0
LINE
8
BLACK
6
CONTINUOUS
10
194.252
20
-101.25
11
194.252
21
-89.25
0
LINE
8
BLACK
6
CONTINUOUS
10
194.252
20
-89.25
11
194.27
21
-89.2076
0
LINE
8
BLACK
6
CONTINUOUS
10
194.27
20
-89.2076
11
195.27
21
-88.2076
0
LINE
8
BLACK
6
CONTINUOUS
10
195.27
20
-88.2076
11
195.312
21
-88.19
0
LINE
8
BLACK
6
CONTINUOUS
10
195.312
20
-88.19
11
207.912
21
-88.19
0
LINE
8
BLACK
6
CONTINUOUS
10
207.912
20
-88.19
11
207.955
21
-88.2076
0
LINE
8
BLACK
6
CONTINUOUS
10
195.337
20
-88.31
11
194.373
21
-89.2749
0
LINE
8
BLACK
6
CONTINUOUS
10
194.373
20
-89.2749
11
194.373
21
-101.225
0
LINE
8
BLACK
6
CONTINUOUS
10
194.373
20
-101.225
11
195.337
21
-102.19
0
LINE
8
BLACK
6
CONTINUOUS
10
195.337
20
-102.19
11
207.888
21
-102.19
0
LINE
8
BLACK
6
CONTINUOUS
10
207.888
20
-102.19
11
208.852
21
-101.225
0
LINE
8
BLACK
6
CONTINUOUS
10
208.852
20
-101.225
11
208.852
21
-89.2749
0
LINE
8
BLACK
6
CONTINUOUS
10
208.852
20
-89.2749
11
207.888
21
-88.31
0
LINE
8
BLACK
6
CONTINUOUS
10
207.888
20
-88.31
11
195.337
21
-88.31
0
LINE
8
BLACK
6
CONTINUOUS
10
188.905
20
-88.2076
11
188.905
21
-88.2076
0
LINE
8
BLACK
6
CONTINUOUS
10
188.905
20
-88.2076
11
189.905
21
-89.2076
0
LINE
8
BLACK
6
CONTINUOUS
10
189.905
20
-89.2076
11
189.922
21
-89.25
0
LINE
8
BLACK
6
CONTINUOUS
10
189.922
20
-89.25
11
189.922
21
-101.25
0
LINE
8
BLACK
6
CONTINUOUS
10
189.922
20
-101.25
11
189.905
21
-101.292
0
LINE
8
BLACK
6
CONTINUOUS
10
189.905
20
-101.292
11
188.905
21
-102.292
0
LINE
8
BLACK
6
CONTINUOUS
10
188.905
20
-102.292
11
188.905
21
-102.292
0
LINE
8
BLACK
6
CONTINUOUS
10
188.905
20
-102.292
11
188.862
21
-102.31
0
LINE
8
BLACK
6
CONTINUOUS
10
188.862
20
-102.31
11
176.262
21
-102.31
0
LINE
8
BLACK
6
CONTINUOUS
10
176.262
20
-102.31
11
176.22
21
-102.292
0
LINE
8
BLACK
6
CONTINUOUS
10
176.22
20
-102.292
11
175.22
21
-101.292
0
LINE
8
BLACK
6
CONTINUOUS
10
175.22
20
-101.292
11
175.202
21
-101.25
0
LINE
8
BLACK
6
CONTINUOUS
10
175.202
20
-101.25
11
175.202
21
-89.25
0
LINE
8
BLACK
6
CONTINUOUS
10
175.202
20
-89.25
11
175.22
21
-89.2076
0
LINE
8
BLACK
6
CONTINUOUS
10
175.22
20
-89.2076
11
176.22
21
-88.2076
0
LINE
8
BLACK
6
CONTINUOUS
10
176.22
20
-88.2076
11
176.262
21
-88.19
0
LINE
8
BLACK
6
CONTINUOUS
10
176.262
20
-88.19
11
188.862
21
-88.19
0
LINE
8
BLACK
6
CONTINUOUS
10
188.862
20
-88.19
11
188.905
21
-88.2076
0
LINE
8
BLACK
6
CONTINUOUS
10
176.287
20
-88.31
11
175.322
21
-89.2749
0
LINE
8
BLACK
6
CONTINUOUS
10
175.322
20
-89.2749
11
175.322
21
-101.225
0
LINE
8
BLACK
6
CONTINUOUS
10
175.322
20
-101.225
11
176.287
21
-102.19
0
LINE
8
BLACK
6
CONTINUOUS
10
176.287
20
-102.19
11
188.838
21
-102.19
0
LINE
8
BLACK
6
CONTINUOUS
10
188.838
20
-102.19
11
189.802
21
-101.225
0
LINE
8
BLACK
6
CONTINUOUS
10
189.802
20
-101.225
11
189.802
21
-89.2749
0
LINE
8
BLACK
6
CONTINUOUS
10
189.802
20
-89.2749
11
188.838
21
-88.31
0
LINE
8
BLACK
6
CONTINUOUS
10
188.838
20
-88.31
11
176.287
21
-88.31
0
LINE
8
BLACK
6
CONTINUOUS
10
169.855
20
-88.2076
11
169.855
21
-88.2076
0
LINE
8
BLACK
6
CONTINUOUS
10
169.855
20
-88.2076
11
170.855
21
-89.2076
0
LINE
8
BLACK
6
CONTINUOUS
10
170.855
20
-89.2076
11
170.872
21
-89.25
0
LINE
8
BLACK
6
CONTINUOUS
10
170.872
20
-89.25
11
170.873
21
-89.25
0
LINE
8
BLACK
6
CONTINUOUS
10
170.873
20
-89.25
11
170.873
21
-101.25
0
LINE
8
BLACK
6
CONTINUOUS
10
170.873
20
-101.25
11
170.855
21
-101.292
0
LINE
8
BLACK
6
CONTINUOUS
10
170.855
20
-101.292
11
169.855
21
-102.292
0
LINE
8
BLACK
6
CONTINUOUS
10
169.855
20
-102.292
11
169.855
21
-102.292
0
LINE
8
BLACK
6
CONTINUOUS
10
169.855
20
-102.292
11
169.812
21
-102.31
0
LINE
8
BLACK
6
CONTINUOUS
10
169.812
20
-102.31
11
157.213
21
-102.31
0
LINE
8
BLACK
6
CONTINUOUS
10
157.213
20
-102.31
11
157.17
21
-102.292
0
LINE
8
BLACK
6
CONTINUOUS
10
157.17
20
-102.292
11
156.17
21
-101.292
0
LINE
8
BLACK
6
CONTINUOUS
10
156.17
20
-101.292
11
156.153
21
-101.25
0
LINE
8
BLACK
6
CONTINUOUS
10
156.153
20
-101.25
11
156.153
21
-89.25
0
LINE
8
BLACK
6
CONTINUOUS
10
156.153
20
-89.25
11
156.17
21
-89.2076
0
LINE
8
BLACK
6
CONTINUOUS
10
156.17
20
-89.2076
11
157.17
21
-88.2076
0
LINE
8
BLACK
6
CONTINUOUS
10
157.17
20
-88.2076
11
157.213
21
-88.19
0
LINE
8
BLACK
6
CONTINUOUS
10
157.213
20
-88.19
11
169.812
21
-88.19
0
LINE
8
BLACK
6
CONTINUOUS
10
169.812
20
-88.19
11
169.855
21
-88.2076
0
LINE
8
BLACK
6
CONTINUOUS
10
157.237
20
-88.31
11
156.272
21
-89.2749
0
LINE
8
BLACK
6
CONTINUOUS
10
156.272
20
-89.2749
11
156.272
21
-101.225
0
LINE
8
BLACK
6
CONTINUOUS
10
156.272
20
-101.225
11
157.237
21
-102.19
0
LINE
8
BLACK
6
CONTINUOUS
10
157.237
20
-102.19
11
169.788
21
-102.19
0
LINE
8
BLACK
6
CONTINUOUS
10
169.788
20
-102.19
11
170.752
21
-101.225
0
LINE
8
BLACK
6
CONTINUOUS
10
170.752
20
-101.225
11
170.752
21
-89.2749
0
LINE
8
BLACK
6
CONTINUOUS
10
170.752
20
-89.2749
11
169.788
21
-88.31
0
LINE
8
BLACK
6
CONTINUOUS
10
169.788
20
-88.31
11
157.237
21
-88.31
0
LINE
8
BLACK
6
CONTINUOUS
10
150.805
20
-88.2076
11
150.805
21
-88.2076
0
LINE
8
BLACK
6
CONTINUOUS
10
150.805
20
-88.2076
11
151.805
21
-89.2076
0
LINE
8
BLACK
6
CONTINUOUS
10
151.805
20
-89.2076
11
151.822
21
-89.25
0
LINE
8
BLACK
6
CONTINUOUS
10
151.822
20
-89.25
11
151.822
21
-89.25
0
LINE
8
BLACK
6
CONTINUOUS
10
151.822
20
-89.25
11
151.822
21
-101.25
0
LINE
8
BLACK
6
CONTINUOUS
10
151.822
20
-101.25
11
151.805
21
-101.292
0
LINE
8
BLACK
6
CONTINUOUS
10
151.805
20
-101.292
11
150.805
21
-102.292
0
LINE
8
BLACK
6
CONTINUOUS
10
150.805
20
-102.292
11
150.805
21
-102.292
0
LINE
8
BLACK
6
CONTINUOUS
10
150.805
20
-102.292
11
150.762
21
-102.31
0
LINE
8
BLACK
6
CONTINUOUS
10
150.762
20
-102.31
11
138.162
21
-102.31
0
LINE
8
BLACK
6
CONTINUOUS
10
138.162
20
-102.31
11
138.12
21
-102.292
0
LINE
8
BLACK
6
CONTINUOUS
10
138.12
20
-102.292
11
137.12
21
-101.292
0
LINE
8
BLACK
6
CONTINUOUS
10
137.12
20
-101.292
11
137.102
21
-101.25
0
LINE
8
BLACK
6
CONTINUOUS
10
137.102
20
-101.25
11
137.102
21
-89.25
0
LINE
8
BLACK
6
CONTINUOUS
10
137.102
20
-89.25
11
137.12
21
-89.2076
0
LINE
8
BLACK
6
CONTINUOUS
10
137.12
20
-89.2076
11
138.12
21
-88.2076
0
LINE
8
BLACK
6
CONTINUOUS
10
138.12
20
-88.2076
11
138.162
21
-88.19
0
LINE
8
BLACK
6
CONTINUOUS
10
138.162
20
-88.19
11
150.762
21
-88.19
0
LINE
8
BLACK
6
CONTINUOUS
10
150.762
20
-88.19
11
150.805
21
-88.2076
0
LINE
8
BLACK
6
CONTINUOUS
10
138.187
20
-88.31
11
137.222
21
-89.2749
0
LINE
8
BLACK
6
CONTINUOUS
10
137.222
20
-89.2749
11
137.222
21
-101.225
0
LINE
8
BLACK
6
CONTINUOUS
10
137.222
20
-101.225
11
138.187
21
-102.19
0
LINE
8
BLACK
6
CONTINUOUS
10
138.187
20
-102.19
11
150.738
21
-102.19
0
LINE
8
BLACK
6
CONTINUOUS
10
150.738
20
-102.19
11
151.702
21
-101.225
0
LINE
8
BLACK
6
CONTINUOUS
10
151.702
20
-101.225
11
151.702
21
-89.2749
0
LINE
8
BLACK
6
CONTINUOUS
10
151.702
20
-89.2749
11
150.738
21
-88.31
0
LINE
8
BLACK
6
CONTINUOUS
10
150.738
20
-88.31
11
138.187
21
-88.31
0
LINE
8
BLACK
6
CONTINUOUS
10
131.755
20
-88.2076
11
131.755
21
-88.2076
0
LINE
8
BLACK
6
CONTINUOUS
10
131.755
20
-88.2076
11
132.755
21
-89.2076
0
LINE
8
BLACK
6
CONTINUOUS
10
132.755
20
-89.2076
11
132.772
21
-89.25
0
LINE
8
BLACK
6
CONTINUOUS
10
132.772
20
-89.25
11
132.773
21
-89.25
0
LINE
8
BLACK
6
CONTINUOUS
10
132.773
20
-89.25
11
132.773
21
-101.25
0
LINE
8
BLACK
6
CONTINUOUS
10
132.773
20
-101.25
11
132.755
21
-101.292
0
LINE
8
BLACK
6
CONTINUOUS
10
132.755
20
-101.292
11
131.755
21
-102.292
0
LINE
8
BLACK
6
CONTINUOUS
10
131.755
20
-102.292
11
131.755
21
-102.292
0
LINE
8
BLACK
6
CONTINUOUS
10
131.755
20
-102.292
11
131.713
21
-102.31
0
LINE
8
BLACK
6
CONTINUOUS
10
131.713
20
-102.31
11
119.112
21
-102.31
0
LINE
8
BLACK
6
CONTINUOUS
10
119.112
20
-102.31
11
119.07
21
-102.292
0
LINE
8
BLACK
6
CONTINUOUS
10
119.07
20
-102.292
11
118.07
21
-101.292
0
LINE
8
BLACK
6
CONTINUOUS
10
118.07
20
-101.292
11
118.052
21
-101.25
0
LINE
8
BLACK
6
CONTINUOUS
10
118.052
20
-101.25
11
118.052
21
-89.25
0
LINE
8
BLACK
6
CONTINUOUS
10
118.052
20
-89.25
11
118.07
21
-89.2076
0
LINE
8
BLACK
6
CONTINUOUS
10
118.07
20
-89.2076
11
119.07
21
-88.2076
0
LINE
8
BLACK
6
CONTINUOUS
10
119.07
20
-88.2076
11
119.112
21
-88.19
0
LINE
8
BLACK
6
CONTINUOUS
10
119.112
20
-88.19
11
131.713
21
-88.19
0
LINE
8
BLACK
6
CONTINUOUS
10
131.713
20
-88.19
11
131.755
21
-88.2076
0
LINE
8
BLACK
6
CONTINUOUS
10
119.137
20
-88.31
11
118.172
21
-89.2749
0
LINE
8
BLACK
6
CONTINUOUS
10
118.172
20
-89.2749
11
118.172
21
-101.225
0
LINE
8
BLACK
6
CONTINUOUS
10
118.172
20
-101.225
11
119.137
21
-102.19
0
LINE
8
BLACK
6
CONTINUOUS
10
119.137
20
-102.19
11
131.688
21
-102.19
0
LINE
8
BLACK
6
CONTINUOUS
10
131.688
20
-102.19
11
132.653
21
-101.225
0
LINE
8
BLACK
6
CONTINUOUS
10
132.653
20
-101.225
11
132.653
21
-89.2749
0
LINE
8
BLACK
6
CONTINUOUS
10
132.653
20
-89.2749
11
131.688
21
-88.31
0
LINE
8
BLACK
6
CONTINUOUS
10
131.688
20
-88.31
11
119.137
21
-88.31
0
LINE
8
BLACK
6
CONTINUOUS
10
112.705
20
-88.2076
11
112.705
21
-88.2076
0
LINE
8
BLACK
6
CONTINUOUS
10
112.705
20
-88.2076
11
113.705
21
-89.2076
0
LINE
8
BLACK
6
CONTINUOUS
10
113.705
20
-89.2076
11
113.722
21
-89.25
0
LINE
8
BLACK
6
CONTINUOUS
10
113.722
20
-89.25
11
113.722
21
-89.25
0
LINE
8
BLACK
6
CONTINUOUS
10
113.722
20
-89.25
11
113.722
21
-101.25
0
LINE
8
BLACK
6
CONTINUOUS
10
113.722
20
-101.25
11
113.705
21
-101.292
0
LINE
8
BLACK
6
CONTINUOUS
10
113.705
20
-101.292
11
112.705
21
-102.292
0
LINE
8
BLACK
6
CONTINUOUS
10
112.705
20
-102.292
11
112.705
21
-102.292
0
LINE
8
BLACK
6
CONTINUOUS
10
112.705
20
-102.292
11
112.662
21
-102.31
0
LINE
8
BLACK
6
CONTINUOUS
10
112.662
20
-102.31
11
100.062
21
-102.31
0
LINE
8
BLACK
6
CONTINUOUS
10
100.062
20
-102.31
11
100.02
21
-102.292
0
LINE
8
BLACK
6
CONTINUOUS
10
100.02
20
-102.292
11
99.0201
21
-101.292
0
LINE
8
BLACK
6
CONTINUOUS
10
99.0201
20
-101.292
11
99.0201
21
-101.292
0
LINE
8
BLACK
6
CONTINUOUS
10
99.0201
20
-101.292
11
99.0025
21
-101.25
0
LINE
8
BLACK
6
CONTINUOUS
10
99.0025
20
-101.25
11
99.0025
21
-89.25
0
LINE
8
BLACK
6
CONTINUOUS
10
99.0025
20
-89.25
11
99.0201
21
-89.2076
0
LINE
8
BLACK
6
CONTINUOUS
10
99.0201
20
-89.2076
11
100.02
21
-88.2076
0
LINE
8
BLACK
6
CONTINUOUS
10
100.02
20
-88.2076
11
100.062
21
-88.19
0
LINE
8
BLACK
6
CONTINUOUS
10
100.062
20
-88.19
11
112.662
21
-88.19
0
LINE
8
BLACK
6
CONTINUOUS
10
112.662
20
-88.19
11
112.705
21
-88.2076
0
LINE
8
BLACK
6
CONTINUOUS
10
100.087
20
-88.31
11
99.1225
21
-89.2749
0
LINE
8
BLACK
6
CONTINUOUS
10
99.1225
20
-89.2749
11
99.1225
21
-101.225
0
LINE
8
BLACK
6
CONTINUOUS
10
99.1225
20
-101.225
11
100.087
21
-102.19
0
LINE
8
BLACK
6
CONTINUOUS
10
100.087
20
-102.19
11
112.638
21
-102.19
0
LINE
8
BLACK
6
CONTINUOUS
10
112.638
20
-102.19
11
113.602
21
-101.225
0
LINE
8
BLACK
6
CONTINUOUS
10
113.602
20
-101.225
11
113.602
21
-89.2749
0
LINE
8
BLACK
6
CONTINUOUS
10
113.602
20
-89.2749
11
112.638
21
-88.31
0
LINE
8
BLACK
6
CONTINUOUS
10
112.638
20
-88.31
11
100.087
21
-88.31
0
LINE
8
BLACK
6
CONTINUOUS
10
93.6549
20
-88.2076
11
93.6549
21
-88.2076
0
LINE
8
BLACK
6
CONTINUOUS
10
93.6549
20
-88.2076
11
94.6549
21
-89.2076
0
LINE
8
BLACK
6
CONTINUOUS
10
94.6549
20
-89.2076
11
94.6725
21
-89.25
0
LINE
8
BLACK
6
CONTINUOUS
10
94.6725
20
-89.25
11
94.6725
21
-101.25
0
LINE
8
BLACK
6
CONTINUOUS
10
94.6725
20
-101.25
11
94.6549
21
-101.292
0
LINE
8
BLACK
6
CONTINUOUS
10
94.6549
20
-101.292
11
93.6549
21
-102.292
0
LINE
8
BLACK
6
CONTINUOUS
10
93.6549
20
-102.292
11
93.6549
21
-102.292
0
LINE
8
BLACK
6
CONTINUOUS
10
93.6549
20
-102.292
11
93.6125
21
-102.31
0
LINE
8
BLACK
6
CONTINUOUS
10
93.6125
20
-102.31
11
81.0125
21
-102.31
0
LINE
8
BLACK
6
CONTINUOUS
10
81.0125
20
-102.31
11
80.9701
21
-102.292
0
LINE
8
BLACK
6
CONTINUOUS
10
80.9701
20
-102.292
11
79.9701
21
-101.292
0
LINE
8
BLACK
6
CONTINUOUS
10
79.9701
20
-101.292
11
79.9701
21
-101.292
0
LINE
8
BLACK
6
CONTINUOUS
10
79.9701
20
-101.292
11
79.9525
21
-101.25
0
LINE
8
BLACK
6
CONTINUOUS
10
79.9525
20
-101.25
11
79.9525
21
-89.25
0
LINE
8
BLACK
6
CONTINUOUS
10
79.9525
20
-89.25
11
79.9701
21
-89.2076
0
LINE
8
BLACK
6
CONTINUOUS
10
79.9701
20
-89.2076
11
80.9701
21
-88.2076
0
LINE
8
BLACK
6
CONTINUOUS
10
80.9701
20
-88.2076
11
81.0125
21
-88.19
0
LINE
8
BLACK
6
CONTINUOUS
10
81.0125
20
-88.19
11
93.6125
21
-88.19
0
LINE
8
BLACK
6
CONTINUOUS
10
93.6125
20
-88.19
11
93.6549
21
-88.2076
0
LINE
8
BLACK
6
CONTINUOUS
10
81.0374
20
-88.31
11
80.0725
21
-89.2749
0
LINE
8
BLACK
6
CONTINUOUS
10
80.0725
20
-89.2749
11
80.0725
21
-101.225
0
LINE
8
BLACK
6
CONTINUOUS
10
80.0725
20
-101.225
11
81.0374
21
-102.19
0
LINE
8
BLACK
6
CONTINUOUS
10
81.0374
20
-102.19
11
93.5876
21
-102.19
0
LINE
8
BLACK
6
CONTINUOUS
10
93.5876
20
-102.19
11
94.5525
21
-101.225
0
LINE
8
BLACK
6
CONTINUOUS
10
94.5525
20
-101.225
11
94.5525
21
-89.2749
0
LINE
8
BLACK
6
CONTINUOUS
10
94.5525
20
-89.2749
11
93.5876
21
-88.31
0
LINE
8
BLACK
6
CONTINUOUS
10
93.5876
20
-88.31
11
81.0374
21
-88.31
0
LINE
8
BLACK
6
CONTINUOUS
10
67.4624
20
-88.2076
11
67.4624
21
-88.2076
0
LINE
8
BLACK
6
CONTINUOUS
10
67.4624
20
-88.2076
11
68.4624
21
-89.2076
0
LINE
8
BLACK
6
CONTINUOUS
10
68.4624
20
-89.2076
11
68.48
21
-89.25
0
LINE
8
BLACK
6
CONTINUOUS
10
68.48
20
-89.25
11
68.48
21
-101.25
0
LINE
8
BLACK
6
CONTINUOUS
10
68.48
20
-101.25
11
68.4624
21
-101.292
0
LINE
8
BLACK
6
CONTINUOUS
10
68.4624
20
-101.292
11
67.4624
21
-102.292
0
LINE
8
BLACK
6
CONTINUOUS
10
67.4624
20
-102.292
11
67.4624
21
-102.292
0
LINE
8
BLACK
6
CONTINUOUS
10
67.4624
20
-102.292
11
67.42
21
-102.31
0
LINE
8
BLACK
6
CONTINUOUS
10
67.42
20
-102.31
11
54.82
21
-102.31
0
LINE
8
BLACK
6
CONTINUOUS
10
54.82
20
-102.31
11
54.7776
21
-102.292
0
LINE
8
BLACK
6
CONTINUOUS
10
54.7776
20
-102.292
11
53.7776
21
-101.292
0
LINE
8
BLACK
6
CONTINUOUS
10
53.7776
20
-101.292
11
53.7776
21
-101.292
0
LINE
8
BLACK
6
CONTINUOUS
10
53.7776
20
-101.292
11
53.76
21
-101.25
0
LINE
8
BLACK
6
CONTINUOUS
10
53.76
20
-101.25
11
53.76
21
-89.25
0
LINE
8
BLACK
6
CONTINUOUS
10
53.76
20
-89.25
11
53.7776
21
-89.2076
0
LINE
8
BLACK
6
CONTINUOUS
10
53.7776
20
-89.2076
11
54.7776
21
-88.2076
0
LINE
8
BLACK
6
CONTINUOUS
10
54.7776
20
-88.2076
11
54.82
21
-88.19
0
LINE
8
BLACK
6
CONTINUOUS
10
54.82
20
-88.19
11
67.42
21
-88.19
0
LINE
8
BLACK
6
CONTINUOUS
10
67.42
20
-88.19
11
67.4624
21
-88.2076
0
LINE
8
BLACK
6
CONTINUOUS
10
54.8449
20
-88.31
11
53.88
21
-89.2749
0
LINE
8
BLACK
6
CONTINUOUS
10
53.88
20
-89.2749
11
53.88
21
-101.225
0
LINE
8
BLACK
6
CONTINUOUS
10
53.88
20
-101.225
11
54.8449
21
-102.19
0
LINE
8
BLACK
6
CONTINUOUS
10
54.8449
20
-102.19
11
67.3951
21
-102.19
0
LINE
8
BLACK
6
CONTINUOUS
10
67.3951
20
-102.19
11
68.36
21
-101.225
0
LINE
8
BLACK
6
CONTINUOUS
10
68.36
20
-101.225
11
68.36
21
-89.2749
0
LINE
8
BLACK
6
CONTINUOUS
10
68.36
20
-89.2749
11
67.3951
21
-88.31
0
LINE
8
BLACK
6
CONTINUOUS
10
67.3951
20
-88.31
11
54.8449
21
-88.31
0
LINE
8
BLACK
6
CONTINUOUS
10
231.669
20
-95.25
11
231.688
21
-95.0629
0
LINE
8
BLACK
6
CONTINUOUS
10
231.688
20
-95.0629
11
231.747
21
-94.8839
0
LINE
8
BLACK
6
CONTINUOUS
10
231.747
20
-94.8839
11
231.841
21
-94.721
0
LINE
8
BLACK
6
CONTINUOUS
10
231.841
20
-94.721
11
231.967
21
-94.5812
0
LINE
8
BLACK
6
CONTINUOUS
10
231.967
20
-94.5812
11
232.119
21
-94.4706
0
LINE
8
BLACK
6
CONTINUOUS
10
232.119
20
-94.4706
11
232.291
21
-94.394
0
LINE
8
BLACK
6
CONTINUOUS
10
232.291
20
-94.394
11
232.475
21
-94.3549
0
LINE
8
BLACK
6
CONTINUOUS
10
232.475
20
-94.3549
11
232.663
21
-94.3549
0
LINE
8
BLACK
6
CONTINUOUS
10
232.663
20
-94.3549
11
232.847
21
-94.394
0
LINE
8
BLACK
6
CONTINUOUS
10
232.847
20
-94.394
11
233.019
21
-94.4706
0
LINE
8
BLACK
6
CONTINUOUS
10
233.019
20
-94.4706
11
233.171
21
-94.5812
0
LINE
8
BLACK
6
CONTINUOUS
10
233.171
20
-94.5812
11
233.297
21
-94.721
0
LINE
8
BLACK
6
CONTINUOUS
10
233.297
20
-94.721
11
233.391
21
-94.8839
0
LINE
8
BLACK
6
CONTINUOUS
10
233.391
20
-94.8839
11
233.449
21
-95.0629
0
LINE
8
BLACK
6
CONTINUOUS
10
233.449
20
-95.0629
11
233.469
21
-95.25
0
LINE
8
BLACK
6
CONTINUOUS
10
233.469
20
-95.25
11
233.449
21
-95.4371
0
LINE
8
BLACK
6
CONTINUOUS
10
233.449
20
-95.4371
11
233.391
21
-95.6161
0
LINE
8
BLACK
6
CONTINUOUS
10
233.391
20
-95.6161
11
233.297
21
-95.779
0
LINE
8
BLACK
6
CONTINUOUS
10
233.297
20
-95.779
11
233.171
21
-95.9188
0
LINE
8
BLACK
6
CONTINUOUS
10
233.171
20
-95.9188
11
233.019
21
-96.0294
0
LINE
8
BLACK
6
CONTINUOUS
10
233.019
20
-96.0294
11
232.847
21
-96.106
0
LINE
8
BLACK
6
CONTINUOUS
10
232.847
20
-96.106
11
232.663
21
-96.1451
0
LINE
8
BLACK
6
CONTINUOUS
10
232.663
20
-96.1451
11
232.475
21
-96.1451
0
LINE
8
BLACK
6
CONTINUOUS
10
232.475
20
-96.1451
11
232.291
21
-96.106
0
LINE
8
BLACK
6
CONTINUOUS
10
232.291
20
-96.106
11
232.119
21
-96.0294
0
LINE
8
BLACK
6
CONTINUOUS
10
232.119
20
-96.0294
11
231.967
21
-95.9188
0
LINE
8
BLACK
6
CONTINUOUS
10
231.967
20
-95.9188
11
231.841
21
-95.779
0
LINE
8
BLACK
6
CONTINUOUS
10
231.841
20
-95.779
11
231.747
21
-95.6161
0
LINE
8
BLACK
6
CONTINUOUS
10
231.747
20
-95.6161
11
231.688
21
-95.4371
0
LINE
8
BLACK
6
CONTINUOUS
10
231.688
20
-95.4371
11
231.669
21
-95.25
0
LINE
8
BLACK
6
CONTINUOUS
10
231.864
20
-95.25
11
231.884
21
-95.4188
0
LINE
8
BLACK
6
CONTINUOUS
10
231.884
20
-95.4188
11
231.944
21
-95.5777
0
LINE
8
BLACK
6
CONTINUOUS
10
231.944
20
-95.5777
11
232.041
21
-95.7176
0
LINE
8
BLACK
6
CONTINUOUS
10
232.041
20
-95.7176
11
232.168
21
-95.8303
0
LINE
8
BLACK
6
CONTINUOUS
10
232.168
20
-95.8303
11
232.319
21
-95.9093
0
LINE
8
BLACK
6
CONTINUOUS
10
232.319
20
-95.9093
11
232.484
21
-95.95
0
LINE
8
BLACK
6
CONTINUOUS
10
232.484
20
-95.95
11
232.654
21
-95.95
0
LINE
8
BLACK
6
CONTINUOUS
10
232.654
20
-95.95
11
232.819
21
-95.9093
0
LINE
8
BLACK
6
CONTINUOUS
10
232.819
20
-95.9093
11
232.969
21
-95.8303
0
LINE
8
BLACK
6
CONTINUOUS
10
232.969
20
-95.8303
11
233.097
21
-95.7176
0
LINE
8
BLACK
6
CONTINUOUS
10
233.097
20
-95.7176
11
233.193
21
-95.5777
0
LINE
8
BLACK
6
CONTINUOUS
10
233.193
20
-95.5777
11
233.253
21
-95.4188
0
LINE
8
BLACK
6
CONTINUOUS
10
233.253
20
-95.4188
11
233.274
21
-95.25
0
LINE
8
BLACK
6
CONTINUOUS
10
233.274
20
-95.25
11
233.253
21
-95.0812
0
LINE
8
BLACK
6
CONTINUOUS
10
233.253
20
-95.0812
11
233.193
21
-94.9223
0
LINE
8
BLACK
6
CONTINUOUS
10
233.193
20
-94.9223
11
233.097
21
-94.7824
0
LINE
8
BLACK
6
CONTINUOUS
10
233.097
20
-94.7824
11
232.969
21
-94.6697
0
LINE
8
BLACK
6
CONTINUOUS
10
232.969
20
-94.6697
11
232.819
21
-94.5907
0
LINE
8
BLACK
6
CONTINUOUS
10
232.819
20
-94.5907
11
232.654
21
-94.55
0
LINE
8
BLACK
6
CONTINUOUS
10
232.654
20
-94.55
11
232.484
21
-94.55
0
LINE
8
BLACK
6
CONTINUOUS
10
232.484
20
-94.55
11
232.319
21
-94.5907
0
LINE
8
BLACK
6
CONTINUOUS
10
232.319
20
-94.5907
11
232.168
21
-94.6697
0
LINE
8
BLACK
6
CONTINUOUS
10
232.168
20
-94.6697
11
232.041
21
-94.7824
0
LINE
8
BLACK
6
CONTINUOUS
10
232.041
20
-94.7824
11
231.944
21
-94.9223
0
LINE
8
BLACK
6
CONTINUOUS
10
231.944
20
-94.9223
11
231.884
21
-95.0812
0
LINE
8
BLACK
6
CONTINUOUS
10
231.884
20
-95.0812
11
231.864
21
-95.25
0
LINE
8
BLACK
6
CONTINUOUS
10
191.188
20
-95.25
11
191.207
21
-95.0629
0
LINE
8
BLACK
6
CONTINUOUS
10
191.207
20
-95.0629
11
191.265
21
-94.8839
0
LINE
8
BLACK
6
CONTINUOUS
10
191.265
20
-94.8839
11
191.359
21
-94.721
0
LINE
8
BLACK
6
CONTINUOUS
10
191.359
20
-94.721
11
191.485
21
-94.5812
0
LINE
8
BLACK
6
CONTINUOUS
10
191.485
20
-94.5812
11
191.637
21
-94.4706
0
LINE
8
BLACK
6
CONTINUOUS
10
191.637
20
-94.4706
11
191.809
21
-94.394
0
LINE
8
BLACK
6
CONTINUOUS
10
191.809
20
-94.394
11
191.993
21
-94.3549
0
LINE
8
BLACK
6
CONTINUOUS
10
191.993
20
-94.3549
11
192.182
21
-94.3549
0
LINE
8
BLACK
6
CONTINUOUS
10
192.182
20
-94.3549
11
192.366
21
-94.394
0
LINE
8
BLACK
6
CONTINUOUS
10
192.366
20
-94.394
11
192.537
21
-94.4706
0
LINE
8
BLACK
6
CONTINUOUS
10
192.537
20
-94.4706
11
192.69
21
-94.5812
0
LINE
8
BLACK
6
CONTINUOUS
10
192.69
20
-94.5812
11
192.816
21
-94.721
0
LINE
8
BLACK
6
CONTINUOUS
10
192.816
20
-94.721
11
192.91
21
-94.8839
0
LINE
8
BLACK
6
CONTINUOUS
10
192.91
20
-94.8839
11
192.968
21
-95.0629
0
LINE
8
BLACK
6
CONTINUOUS
10
192.968
20
-95.0629
11
192.987
21
-95.25
0
LINE
8
BLACK
6
CONTINUOUS
10
192.987
20
-95.25
11
192.968
21
-95.4371
0
LINE
8
BLACK
6
CONTINUOUS
10
192.968
20
-95.4371
11
192.91
21
-95.6161
0
LINE
8
BLACK
6
CONTINUOUS
10
192.91
20
-95.6161
11
192.816
21
-95.779
0
LINE
8
BLACK
6
CONTINUOUS
10
192.816
20
-95.779
11
192.69
21
-95.9188
0
LINE
8
BLACK
6
CONTINUOUS
10
192.69
20
-95.9188
11
192.537
21
-96.0294
0
LINE
8
BLACK
6
CONTINUOUS
10
192.537
20
-96.0294
11
192.366
21
-96.106
0
LINE
8
BLACK
6
CONTINUOUS
10
192.366
20
-96.106
11
192.182
21
-96.1451
0
LINE
8
BLACK
6
CONTINUOUS
10
192.182
20
-96.1451
11
191.993
21
-96.1451
0
LINE
8
BLACK
6
CONTINUOUS
10
191.993
20
-96.1451
11
191.809
21
-96.106
0
LINE
8
BLACK
6
CONTINUOUS
10
191.809
20
-96.106
11
191.637
21
-96.0294
0
LINE
8
BLACK
6
CONTINUOUS
10
191.637
20
-96.0294
11
191.485
21
-95.9188
0
LINE
8
BLACK
6
CONTINUOUS
10
191.485
20
-95.9188
11
191.359
21
-95.779
0
LINE
8
BLACK
6
CONTINUOUS
10
191.359
20
-95.779
11
191.265
21
-95.6161
0
LINE
8
BLACK
6
CONTINUOUS
10
191.265
20
-95.6161
11
191.207
21
-95.4371
0
LINE
8
BLACK
6
CONTINUOUS
10
191.207
20
-95.4371
11
191.188
21
-95.25
0
LINE
8
BLACK
6
CONTINUOUS
10
191.382
20
-95.25
11
191.403
21
-95.4188
0
LINE
8
BLACK
6
CONTINUOUS
10
191.403
20
-95.4188
11
191.463
21
-95.5777
0
LINE
8
BLACK
6
CONTINUOUS
10
191.463
20
-95.5777
11
191.56
21
-95.7176
0
LINE
8
BLACK
6
CONTINUOUS
10
191.56
20
-95.7176
11
191.687
21
-95.8303
0
LINE
8
BLACK
6
CONTINUOUS
10
191.687
20
-95.8303
11
191.837
21
-95.9093
0
LINE
8
BLACK
6
CONTINUOUS
10
191.837
20
-95.9093
11
192.003
21
-95.95
0
LINE
8
BLACK
6
CONTINUOUS
10
192.003
20
-95.95
11
192.172
21
-95.95
0
LINE
8
BLACK
6
CONTINUOUS
10
192.172
20
-95.95
11
192.338
21
-95.9093
0
LINE
8
BLACK
6
CONTINUOUS
10
192.338
20
-95.9093
11
192.488
21
-95.8303
0
LINE
8
BLACK
6
CONTINUOUS
10
192.488
20
-95.8303
11
192.615
21
-95.7176
0
LINE
8
BLACK
6
CONTINUOUS
10
192.615
20
-95.7176
11
192.712
21
-95.5777
0
LINE
8
BLACK
6
CONTINUOUS
10
192.712
20
-95.5777
11
192.772
21
-95.4188
0
LINE
8
BLACK
6
CONTINUOUS
10
192.772
20
-95.4188
11
192.793
21
-95.25
0
LINE
8
BLACK
6
CONTINUOUS
10
192.793
20
-95.25
11
192.772
21
-95.0812
0
LINE
8
BLACK
6
CONTINUOUS
10
192.772
20
-95.0812
11
192.712
21
-94.9223
0
LINE
8
BLACK
6
CONTINUOUS
10
192.712
20
-94.9223
11
192.615
21
-94.7824
0
LINE
8
BLACK
6
CONTINUOUS
10
192.615
20
-94.7824
11
192.488
21
-94.6697
0
LINE
8
BLACK
6
CONTINUOUS
10
192.488
20
-94.6697
11
192.338
21
-94.5907
0
LINE
8
BLACK
6
CONTINUOUS
10
192.338
20
-94.5907
11
192.172
21
-94.55
0
LINE
8
BLACK
6
CONTINUOUS
10
192.172
20
-94.55
11
192.003
21
-94.55
0
LINE
8
BLACK
6
CONTINUOUS
10
192.003
20
-94.55
11
191.837
21
-94.5907
0
LINE
8
BLACK
6
CONTINUOUS
10
191.837
20
-94.5907
11
191.687
21
-94.6697
0
LINE
8
BLACK
6
CONTINUOUS
10
191.687
20
-94.6697
11
191.56
21
-94.7824
0
LINE
8
BLACK
6
CONTINUOUS
10
191.56
20
-94.7824
11
191.463
21
-94.9223
0
LINE
8
BLACK
6
CONTINUOUS
10
191.463
20
-94.9223
11
191.403
21
-95.0812
0
LINE
8
BLACK
6
CONTINUOUS
10
191.403
20
-95.0812
11
191.382
21
-95.25
0
LINE
8
BLACK
6
CONTINUOUS
10
153.088
20
-95.25
11
153.107
21
-95.0629
0
LINE
8
BLACK
6
CONTINUOUS
10
153.107
20
-95.0629
11
153.165
21
-94.8839
0
LINE
8
BLACK
6
CONTINUOUS
10
153.165
20
-94.8839
11
153.259
21
-94.721
0
LINE
8
BLACK
6
CONTINUOUS
10
153.259
20
-94.721
11
153.385
21
-94.5812
0
LINE
8
BLACK
6
CONTINUOUS
10
153.385
20
-94.5812
11
153.537
21
-94.4706
0
LINE
8
BLACK
6
CONTINUOUS
10
153.537
20
-94.4706
11
153.709
21
-94.394
0
LINE
8
BLACK
6
CONTINUOUS
10
153.709
20
-94.394
11
153.893
21
-94.3549
0
LINE
8
BLACK
6
CONTINUOUS
10
153.893
20
-94.3549
11
154.082
21
-94.3549
0
LINE
8
BLACK
6
CONTINUOUS
10
154.082
20
-94.3549
11
154.266
21
-94.394
0
LINE
8
BLACK
6
CONTINUOUS
10
154.266
20
-94.394
11
154.438
21
-94.4706
0
LINE
8
BLACK
6
CONTINUOUS
10
154.438
20
-94.4706
11
154.59
21
-94.5812
0
LINE
8
BLACK
6
CONTINUOUS
10
154.59
20
-94.5812
11
154.716
21
-94.721
0
LINE
8
BLACK
6
CONTINUOUS
10
154.716
20
-94.721
11
154.81
21
-94.8839
0
LINE
8
BLACK
6
CONTINUOUS
10
154.81
20
-94.8839
11
154.868
21
-95.0629
0
LINE
8
BLACK
6
CONTINUOUS
10
154.868
20
-95.0629
11
154.887
21
-95.25
0
LINE
8
BLACK
6
CONTINUOUS
10
154.887
20
-95.25
11
154.868
21
-95.4371
0
LINE
8
BLACK
6
CONTINUOUS
10
154.868
20
-95.4371
11
154.81
21
-95.6161
0
LINE
8
BLACK
6
CONTINUOUS
10
154.81
20
-95.6161
11
154.716
21
-95.779
0
LINE
8
BLACK
6
CONTINUOUS
10
154.716
20
-95.779
11
154.59
21
-95.9188
0
LINE
8
BLACK
6
CONTINUOUS
10
154.59
20
-95.9188
11
154.438
21
-96.0294
0
LINE
8
BLACK
6
CONTINUOUS
10
154.438
20
-96.0294
11
154.266
21
-96.106
0
LINE
8
BLACK
6
CONTINUOUS
10
154.266
20
-96.106
11
154.082
21
-96.1451
0
LINE
8
BLACK
6
CONTINUOUS
10
154.082
20
-96.1451
11
153.893
21
-96.1451
0
LINE
8
BLACK
6
CONTINUOUS
10
153.893
20
-96.1451
11
153.709
21
-96.106
0
LINE
8
BLACK
6
CONTINUOUS
10
153.709
20
-96.106
11
153.537
21
-96.0294
0
LINE
8
BLACK
6
CONTINUOUS
10
153.537
20
-96.0294
11
153.385
21
-95.9188
0
LINE
8
BLACK
6
CONTINUOUS
10
153.385
20
-95.9188
11
153.259
21
-95.779
0
LINE
8
BLACK
6
CONTINUOUS
10
153.259
20
-95.779
11
153.165
21
-95.6161
0
LINE
8
BLACK
6
CONTINUOUS
10
153.165
20
-95.6161
11
153.107
21
-95.4371
0
LINE
8
BLACK
6
CONTINUOUS
10
153.107
20
-95.4371
11
153.088
21
-95.25
0
LINE
8
BLACK
6
CONTINUOUS
10
153.282
20
-95.25
11
153.303
21
-95.4188
0
LINE
8
BLACK
6
CONTINUOUS
10
153.303
20
-95.4188
11
153.363
21
-95.5777
0
LINE
8
BLACK
6
CONTINUOUS
10
153.363
20
-95.5777
11
153.46
21
-95.7176
0
LINE
8
BLACK
6
CONTINUOUS
10
153.46
20
-95.7176
11
153.587
21
-95.8303
0
LINE
8
BLACK
6
CONTINUOUS
10
153.587
20
-95.8303
11
153.737
21
-95.9093
0
LINE
8
BLACK
6
CONTINUOUS
10
153.737
20
-95.9093
11
153.903
21
-95.95
0
LINE
8
BLACK
6
CONTINUOUS
10
153.903
20
-95.95
11
154.072
21
-95.95
0
LINE
8
BLACK
6
CONTINUOUS
10
154.072
20
-95.95
11
154.238
21
-95.9093
0
LINE
8
BLACK
6
CONTINUOUS
10
154.238
20
-95.9093
11
154.388
21
-95.8303
0
LINE
8
BLACK
6
CONTINUOUS
10
154.388
20
-95.8303
11
154.515
21
-95.7176
0
LINE
8
BLACK
6
CONTINUOUS
10
154.515
20
-95.7176
11
154.612
21
-95.5777
0
LINE
8
BLACK
6
CONTINUOUS
10
154.612
20
-95.5777
11
154.672
21
-95.4188
0
LINE
8
BLACK
6
CONTINUOUS
10
154.672
20
-95.4188
11
154.693
21
-95.25
0
LINE
8
BLACK
6
CONTINUOUS
10
154.693
20
-95.25
11
154.672
21
-95.0812
0
LINE
8
BLACK
6
CONTINUOUS
10
154.672
20
-95.0812
11
154.612
21
-94.9223
0
LINE
8
BLACK
6
CONTINUOUS
10
154.612
20
-94.9223
11
154.515
21
-94.7824
0
LINE
8
BLACK
6
CONTINUOUS
10
154.515
20
-94.7824
11
154.388
21
-94.6697
0
LINE
8
BLACK
6
CONTINUOUS
10
154.388
20
-94.6697
11
154.238
21
-94.5907
0
LINE
8
BLACK
6
CONTINUOUS
10
154.238
20
-94.5907
11
154.072
21
-94.55
0
LINE
8
BLACK
6
CONTINUOUS
10
154.072
20
-94.55
11
153.903
21
-94.55
0
LINE
8
BLACK
6
CONTINUOUS
10
153.903
20
-94.55
11
153.737
21
-94.5907
0
LINE
8
BLACK
6
CONTINUOUS
10
153.737
20
-94.5907
11
153.587
21
-94.6697
0
LINE
8
BLACK
6
CONTINUOUS
10
153.587
20
-94.6697
11
153.46
21
-94.7824
0
LINE
8
BLACK
6
CONTINUOUS
10
153.46
20
-94.7824
11
153.363
21
-94.9223
0
LINE
8
BLACK
6
CONTINUOUS
10
153.363
20
-94.9223
11
153.303
21
-95.0812
0
LINE
8
BLACK
6
CONTINUOUS
10
153.303
20
-95.0812
11
153.282
21
-95.25
0
LINE
8
BLACK
6
CONTINUOUS
10
114.987
20
-95.25
11
115.007
21
-95.0629
0
LINE
8
BLACK
6
CONTINUOUS
10
115.007
20
-95.0629
11
115.065
21
-94.8839
0
LINE
8
BLACK
6
CONTINUOUS
10
115.065
20
-94.8839
11
115.159
21
-94.721
0
LINE
8
BLACK
6
CONTINUOUS
10
115.159
20
-94.721
11
115.285
21
-94.5812
0
LINE
8
BLACK
6
CONTINUOUS
10
115.285
20
-94.5812
11
115.438
21
-94.4706
0
LINE
8
BLACK
6
CONTINUOUS
10
115.438
20
-94.4706
11
115.609
21
-94.394
0
LINE
8
BLACK
6
CONTINUOUS
10
115.609
20
-94.394
11
115.793
21
-94.3549
0
LINE
8
BLACK
6
CONTINUOUS
10
115.793
20
-94.3549
11
115.982
21
-94.3549
0
LINE
8
BLACK
6
CONTINUOUS
10
115.982
20
-94.3549
11
116.166
21
-94.394
0
LINE
8
BLACK
6
CONTINUOUS
10
116.166
20
-94.394
11
116.337
21
-94.4706
0
LINE
8
BLACK
6
CONTINUOUS
10
116.337
20
-94.4706
11
116.49
21
-94.5812
0
LINE
8
BLACK
6
CONTINUOUS
10
116.49
20
-94.5812
11
116.616
21
-94.721
0
LINE
8
BLACK
6
CONTINUOUS
10
116.616
20
-94.721
11
116.71
21
-94.8839
0
LINE
8
BLACK
6
CONTINUOUS
10
116.71
20
-94.8839
11
116.768
21
-95.0629
0
LINE
8
BLACK
6
CONTINUOUS
10
116.768
20
-95.0629
11
116.787
21
-95.25
0
LINE
8
BLACK
6
CONTINUOUS
10
116.787
20
-95.25
11
116.768
21
-95.4371
0
LINE
8
BLACK
6
CONTINUOUS
10
116.768
20
-95.4371
11
116.71
21
-95.6161
0
LINE
8
BLACK
6
CONTINUOUS
10
116.71
20
-95.6161
11
116.616
21
-95.779
0
LINE
8
BLACK
6
CONTINUOUS
10
116.616
20
-95.779
11
116.49
21
-95.9188
0
LINE
8
BLACK
6
CONTINUOUS
10
116.49
20
-95.9188
11
116.337
21
-96.0294
0
LINE
8
BLACK
6
CONTINUOUS
10
116.337
20
-96.0294
11
116.166
21
-96.106
0
LINE
8
BLACK
6
CONTINUOUS
10
116.166
20
-96.106
11
115.982
21
-96.1451
0
LINE
8
BLACK
6
CONTINUOUS
10
115.982
20
-96.1451
11
115.793
21
-96.1451
0
LINE
8
BLACK
6
CONTINUOUS
10
115.793
20
-96.1451
11
115.609
21
-96.106
0
LINE
8
BLACK
6
CONTINUOUS
10
115.609
20
-96.106
11
115.438
21
-96.0294
0
LINE
8
BLACK
6
CONTINUOUS
10
115.438
20
-96.0294
11
115.285
21
-95.9188
0
LINE
8
BLACK
6
CONTINUOUS
10
115.285
20
-95.9188
11
115.159
21
-95.779
0
LINE
8
BLACK
6
CONTINUOUS
10
115.159
20
-95.779
11
115.065
21
-95.6161
0
LINE
8
BLACK
6
CONTINUOUS
10
115.065
20
-95.6161
11
115.007
21
-95.4371
0
LINE
8
BLACK
6
CONTINUOUS
10
115.007
20
-95.4371
11
114.987
21
-95.25
0
LINE
8
BLACK
6
CONTINUOUS
10
115.182
20
-95.25
11
115.203
21
-95.4188
0
LINE
8
BLACK
6
CONTINUOUS
10
115.203
20
-95.4188
11
115.263
21
-95.5777
0
LINE
8
BLACK
6
CONTINUOUS
10
115.263
20
-95.5777
11
115.36
21
-95.7176
0
LINE
8
BLACK
6
CONTINUOUS
10
115.36
20
-95.7176
11
115.487
21
-95.8303
0
LINE
8
BLACK
6
CONTINUOUS
10
115.487
20
-95.8303
11
115.637
21
-95.9093
0
LINE
8
BLACK
6
CONTINUOUS
10
115.637
20
-95.9093
11
115.803
21
-95.95
0
LINE
8
BLACK
6
CONTINUOUS
10
115.803
20
-95.95
11
115.972
21
-95.95
0
LINE
8
BLACK
6
CONTINUOUS
10
115.972
20
-95.95
11
116.138
21
-95.9093
0
LINE
8
BLACK
6
CONTINUOUS
10
116.138
20
-95.9093
11
116.288
21
-95.8303
0
LINE
8
BLACK
6
CONTINUOUS
10
116.288
20
-95.8303
11
116.415
21
-95.7176
0
LINE
8
BLACK
6
CONTINUOUS
10
116.415
20
-95.7176
11
116.512
21
-95.5777
0
LINE
8
BLACK
6
CONTINUOUS
10
116.512
20
-95.5777
11
116.572
21
-95.4188
0
LINE
8
BLACK
6
CONTINUOUS
10
116.572
20
-95.4188
11
116.593
21
-95.25
0
LINE
8
BLACK
6
CONTINUOUS
10
116.593
20
-95.25
11
116.572
21
-95.0812
0
LINE
8
BLACK
6
CONTINUOUS
10
116.572
20
-95.0812
11
116.512
21
-94.9223
0
LINE
8
BLACK
6
CONTINUOUS
10
116.512
20
-94.9223
11
116.415
21
-94.7824
0
LINE
8
BLACK
6
CONTINUOUS
10
116.415
20
-94.7824
11
116.288
21
-94.6697
0
LINE
8
BLACK
6
CONTINUOUS
10
116.288
20
-94.6697
11
116.138
21
-94.5907
0
LINE
8
BLACK
6
CONTINUOUS
10
116.138
20
-94.5907
11
115.972
21
-94.55
0
LINE
8
BLACK
6
CONTINUOUS
10
115.972
20
-94.55
11
115.803
21
-94.55
0
LINE
8
BLACK
6
CONTINUOUS
10
115.803
20
-94.55
11
115.637
21
-94.5907
0
LINE
8
BLACK
6
CONTINUOUS
10
115.637
20
-94.5907
11
115.487
21
-94.6697
0
LINE
8
BLACK
6
CONTINUOUS
10
115.487
20
-94.6697
11
115.36
21
-94.7824
0
LINE
8
BLACK
6
CONTINUOUS
10
115.36
20
-94.7824
11
115.263
21
-94.9223
0
LINE
8
BLACK
6
CONTINUOUS
10
115.263
20
-94.9223
11
115.203
21
-95.0812
0
LINE
8
BLACK
6
CONTINUOUS
10
115.203
20
-95.0812
11
115.182
21
-95.25
0
LINE
8
BLACK
6
CONTINUOUS
10
69.7437
20
-95.25
11
69.7634
21
-95.0629
0
LINE
8
BLACK
6
CONTINUOUS
10
69.7634
20
-95.0629
11
69.8216
21
-94.8839
0
LINE
8
BLACK
6
CONTINUOUS
10
69.8216
20
-94.8839
11
69.9156
21
-94.721
0
LINE
8
BLACK
6
CONTINUOUS
10
69.9156
20
-94.721
11
70.0415
21
-94.5812
0
LINE
8
BLACK
6
CONTINUOUS
10
70.0415
20
-94.5812
11
70.1937
21
-94.4706
0
LINE
8
BLACK
6
CONTINUOUS
10
70.1937
20
-94.4706
11
70.3656
21
-94.394
0
LINE
8
BLACK
6
CONTINUOUS
10
70.3656
20
-94.394
11
70.5497
21
-94.3549
0
LINE
8
BLACK
6
CONTINUOUS
10
70.5497
20
-94.3549
11
70.7378
21
-94.3549
0
LINE
8
BLACK
6
CONTINUOUS
10
70.7378
20
-94.3549
11
70.9219
21
-94.394
0
LINE
8
BLACK
6
CONTINUOUS
10
70.9219
20
-94.394
11
71.0938
21
-94.4706
0
LINE
8
BLACK
6
CONTINUOUS
10
71.0938
20
-94.4706
11
71.246
21
-94.5812
0
LINE
8
BLACK
6
CONTINUOUS
10
71.246
20
-94.5812
11
71.3719
21
-94.721
0
LINE
8
BLACK
6
CONTINUOUS
10
71.3719
20
-94.721
11
71.4659
21
-94.8839
0
LINE
8
BLACK
6
CONTINUOUS
10
71.4659
20
-94.8839
11
71.5241
21
-95.0629
0
LINE
8
BLACK
6
CONTINUOUS
10
71.5241
20
-95.0629
11
71.5438
21
-95.25
0
LINE
8
BLACK
6
CONTINUOUS
10
71.5438
20
-95.25
11
71.5241
21
-95.4371
0
LINE
8
BLACK
6
CONTINUOUS
10
71.5241
20
-95.4371
11
71.4659
21
-95.6161
0
LINE
8
BLACK
6
CONTINUOUS
10
71.4659
20
-95.6161
11
71.3719
21
-95.779
0
LINE
8
BLACK
6
CONTINUOUS
10
71.3719
20
-95.779
11
71.246
21
-95.9188
0
LINE
8
BLACK
6
CONTINUOUS
10
71.246
20
-95.9188
11
71.0938
21
-96.0294
0
LINE
8
BLACK
6
CONTINUOUS
10
71.0938
20
-96.0294
11
70.9219
21
-96.106
0
LINE
8
BLACK
6
CONTINUOUS
10
70.9219
20
-96.106
11
70.7378
21
-96.1451
0
LINE
8
BLACK
6
CONTINUOUS
10
70.7378
20
-96.1451
11
70.5497
21
-96.1451
0
LINE
8
BLACK
6
CONTINUOUS
10
70.5497
20
-96.1451
11
70.3656
21
-96.106
0
LINE
8
BLACK
6
CONTINUOUS
10
70.3656
20
-96.106
11
70.1937
21
-96.0294
0
LINE
8
BLACK
6
CONTINUOUS
10
70.1937
20
-96.0294
11
70.0415
21
-95.9188
0
LINE
8
BLACK
6
CONTINUOUS
10
70.0415
20
-95.9188
11
69.9156
21
-95.779
0
LINE
8
BLACK
6
CONTINUOUS
10
69.9156
20
-95.779
11
69.8216
21
-95.6161
0
LINE
8
BLACK
6
CONTINUOUS
10
69.8216
20
-95.6161
11
69.7634
21
-95.4371
0
LINE
8
BLACK
6
CONTINUOUS
10
69.7634
20
-95.4371
11
69.7437
21
-95.25
0
LINE
8
BLACK
6
CONTINUOUS
10
69.9386
20
-95.25
11
69.9591
21
-95.4188
0
LINE
8
BLACK
6
CONTINUOUS
10
69.9591
20
-95.4188
11
70.0194
21
-95.5777
0
LINE
8
BLACK
6
CONTINUOUS
10
70.0194
20
-95.5777
11
70.1159
21
-95.7176
0
LINE
8
BLACK
6
CONTINUOUS
10
70.1159
20
-95.7176
11
70.2432
21
-95.8303
0
LINE
8
BLACK
6
CONTINUOUS
10
70.2432
20
-95.8303
11
70.3937
21
-95.9093
0
LINE
8
BLACK
6
CONTINUOUS
10
70.3937
20
-95.9093
11
70.5588
21
-95.95
0
LINE
8
BLACK
6
CONTINUOUS
10
70.5588
20
-95.95
11
70.7287
21
-95.95
0
LINE
8
BLACK
6
CONTINUOUS
10
70.7287
20
-95.95
11
70.8938
21
-95.9093
0
LINE
8
BLACK
6
CONTINUOUS
10
70.8938
20
-95.9093
11
71.0443
21
-95.8303
0
LINE
8
BLACK
6
CONTINUOUS
10
71.0443
20
-95.8303
11
71.1716
21
-95.7176
0
LINE
8
BLACK
6
CONTINUOUS
10
71.1716
20
-95.7176
11
71.2681
21
-95.5777
0
LINE
8
BLACK
6
CONTINUOUS
10
71.2681
20
-95.5777
11
71.3284
21
-95.4188
0
LINE
8
BLACK
6
CONTINUOUS
10
71.3284
20
-95.4188
11
71.3489
21
-95.25
0
LINE
8
BLACK
6
CONTINUOUS
10
71.3489
20
-95.25
11
71.3284
21
-95.0812
0
LINE
8
BLACK
6
CONTINUOUS
10
71.3284
20
-95.0812
11
71.2681
21
-94.9223
0
LINE
8
BLACK
6
CONTINUOUS
10
71.2681
20
-94.9223
11
71.1716
21
-94.7824
0
LINE
8
BLACK
6
CONTINUOUS
10
71.1716
20
-94.7824
11
71.0443
21
-94.6697
0
LINE
8
BLACK
6
CONTINUOUS
10
71.0443
20
-94.6697
11
70.8938
21
-94.5907
0
LINE
8
BLACK
6
CONTINUOUS
10
70.8938
20
-94.5907
11
70.7287
21
-94.55
0
LINE
8
BLACK
6
CONTINUOUS
10
70.7287
20
-94.55
11
70.5588
21
-94.55
0
LINE
8
BLACK
6
CONTINUOUS
10
70.5588
20
-94.55
11
70.3937
21
-94.5907
0
LINE
8
BLACK
6
CONTINUOUS
10
70.3937
20
-94.5907
11
70.2432
21
-94.6697
0
LINE
8
BLACK
6
CONTINUOUS
10
70.2432
20
-94.6697
11
70.1159
21
-94.7824
0
LINE
8
BLACK
6
CONTINUOUS
10
70.1159
20
-94.7824
11
70.0194
21
-94.9223
0
LINE
8
BLACK
6
CONTINUOUS
10
70.0194
20
-94.9223
11
69.9591
21
-95.0812
0
LINE
8
BLACK
6
CONTINUOUS
10
69.9591
20
-95.0812
11
69.9386
21
-95.25
0
LINE
8
BLACK
6
CONTINUOUS
10
243.672
20
-69.1576
11
243.672
21
-69.1576
0
LINE
8
BLACK
6
CONTINUOUS
10
243.672
20
-69.1576
11
244.672
21
-70.1576
0
LINE
8
BLACK
6
CONTINUOUS
10
244.672
20
-70.1576
11
244.69
21
-70.2
0
LINE
8
BLACK
6
CONTINUOUS
10
244.69
20
-70.2
11
244.69
21
-70.2
0
LINE
8
BLACK
6
CONTINUOUS
10
244.69
20
-70.2
11
244.69
21
-82.2
0
LINE
8
BLACK
6
CONTINUOUS
10
244.69
20
-82.2
11
244.672
21
-82.2424
0
LINE
8
BLACK
6
CONTINUOUS
10
244.672
20
-82.2424
11
243.672
21
-83.2424
0
LINE
8
BLACK
6
CONTINUOUS
10
243.672
20
-83.2424
11
243.672
21
-83.2424
0
LINE
8
BLACK
6
CONTINUOUS
10
243.672
20
-83.2424
11
243.63
21
-83.26
0
LINE
8
BLACK
6
CONTINUOUS
10
243.63
20
-83.26
11
231.03
21
-83.26
0
LINE
8
BLACK
6
CONTINUOUS
10
231.03
20
-83.26
11
230.988
21
-83.2424
0
LINE
8
BLACK
6
CONTINUOUS
10
230.988
20
-83.2424
11
229.988
21
-82.2424
0
LINE
8
BLACK
6
CONTINUOUS
10
229.988
20
-82.2424
11
229.97
21
-82.2
0
LINE
8
BLACK
6
CONTINUOUS
10
229.97
20
-82.2
11
229.97
21
-70.2
0
LINE
8
BLACK
6
CONTINUOUS
10
229.97
20
-70.2
11
229.988
21
-70.1576
0
LINE
8
BLACK
6
CONTINUOUS
10
229.988
20
-70.1576
11
229.988
21
-70.1576
0
LINE
8
BLACK
6
CONTINUOUS
10
229.988
20
-70.1576
11
230.988
21
-69.1576
0
LINE
8
BLACK
6
CONTINUOUS
10
230.988
20
-69.1576
11
231.03
21
-69.14
0
LINE
8
BLACK
6
CONTINUOUS
10
231.03
20
-69.14
11
243.63
21
-69.14
0
LINE
8
BLACK
6
CONTINUOUS
10
243.63
20
-69.14
11
243.672
21
-69.1576
0
LINE
8
BLACK
6
CONTINUOUS
10
231.055
20
-69.26
11
230.09
21
-70.2249
0
LINE
8
BLACK
6
CONTINUOUS
10
230.09
20
-70.2249
11
230.09
21
-82.1751
0
LINE
8
BLACK
6
CONTINUOUS
10
230.09
20
-82.1751
11
231.055
21
-83.14
0
LINE
8
BLACK
6
CONTINUOUS
10
231.055
20
-83.14
11
243.605
21
-83.14
0
LINE
8
BLACK
6
CONTINUOUS
10
243.605
20
-83.14
11
244.57
21
-82.1751
0
LINE
8
BLACK
6
CONTINUOUS
10
244.57
20
-82.1751
11
244.57
21
-70.2249
0
LINE
8
BLACK
6
CONTINUOUS
10
244.57
20
-70.2249
11
243.605
21
-69.26
0
LINE
8
BLACK
6
CONTINUOUS
10
243.605
20
-69.26
11
231.055
21
-69.26
0
LINE
8
BLACK
6
CONTINUOUS
10
217.48
20
-69.1576
11
217.48
21
-69.1576
0
LINE
8
BLACK
6
CONTINUOUS
10
217.48
20
-69.1576
11
218.48
21
-70.1576
0
LINE
8
BLACK
6
CONTINUOUS
10
218.48
20
-70.1576
11
218.497
21
-70.2
0
LINE
8
BLACK
6
CONTINUOUS
10
218.497
20
-70.2
11
218.498
21
-70.2
0
LINE
8
BLACK
6
CONTINUOUS
10
218.498
20
-70.2
11
218.498
21
-82.2
0
LINE
8
BLACK
6
CONTINUOUS
10
218.498
20
-82.2
11
218.48
21
-82.2424
0
LINE
8
BLACK
6
CONTINUOUS
10
218.48
20
-82.2424
11
217.48
21
-83.2424
0
LINE
8
BLACK
6
CONTINUOUS
10
217.48
20
-83.2424
11
217.48
21
-83.2424
0
LINE
8
BLACK
6
CONTINUOUS
10
217.48
20
-83.2424
11
217.438
21
-83.26
0
LINE
8
BLACK
6
CONTINUOUS
10
217.438
20
-83.26
11
204.837
21
-83.26
0
LINE
8
BLACK
6
CONTINUOUS
10
204.837
20
-83.26
11
204.795
21
-83.2424
0
LINE
8
BLACK
6
CONTINUOUS
10
204.795
20
-83.2424
11
203.795
21
-82.2424
0
LINE
8
BLACK
6
CONTINUOUS
10
203.795
20
-82.2424
11
203.778
21
-82.2
0
LINE
8
BLACK
6
CONTINUOUS
10
203.778
20
-82.2
11
203.778
21
-70.2
0
LINE
8
BLACK
6
CONTINUOUS
10
203.778
20
-70.2
11
203.795
21
-70.1576
0
LINE
8
BLACK
6
CONTINUOUS
10
203.795
20
-70.1576
11
203.795
21
-70.1576
0
LINE
8
BLACK
6
CONTINUOUS
10
203.795
20
-70.1576
11
204.795
21
-69.1576
0
LINE
8
BLACK
6
CONTINUOUS
10
204.795
20
-69.1576
11
204.837
21
-69.14
0
LINE
8
BLACK
6
CONTINUOUS
10
204.837
20
-69.14
11
217.438
21
-69.14
0
LINE
8
BLACK
6
CONTINUOUS
10
217.438
20
-69.14
11
217.48
21
-69.1576
0
LINE
8
BLACK
6
CONTINUOUS
10
204.862
20
-69.26
11
203.897
21
-70.2249
0
LINE
8
BLACK
6
CONTINUOUS
10
203.897
20
-70.2249
11
203.897
21
-82.1751
0
LINE
8
BLACK
6
CONTINUOUS
10
203.897
20
-82.1751
11
204.862
21
-83.14
0
LINE
8
BLACK
6
CONTINUOUS
10
204.862
20
-83.14
11
217.413
21
-83.14
0
LINE
8
BLACK
6
CONTINUOUS
10
217.413
20
-83.14
11
218.377
21
-82.1751
0
LINE
8
BLACK
6
CONTINUOUS
10
218.377
20
-82.1751
11
218.377
21
-70.2249
0
LINE
8
BLACK
6
CONTINUOUS
10
218.377
20
-70.2249
11
217.413
21
-69.26
0
LINE
8
BLACK
6
CONTINUOUS
10
217.413
20
-69.26
11
204.862
21
-69.26
0
LINE
8
BLACK
6
CONTINUOUS
10
198.43
20
-69.1576
11
198.43
21
-69.1576
0
LINE
8
BLACK
6
CONTINUOUS
10
198.43
20
-69.1576
11
199.43
21
-70.1576
0
LINE
8
BLACK
6
CONTINUOUS
10
199.43
20
-70.1576
11
199.447
21
-70.2
0
LINE
8
BLACK
6
CONTINUOUS
10
199.447
20
-70.2
11
199.447
21
-70.2
0
LINE
8
BLACK
6
CONTINUOUS
10
199.447
20
-70.2
11
199.447
21
-82.2
0
LINE
8
BLACK
6
CONTINUOUS
10
199.447
20
-82.2
11
199.43
21
-82.2424
0
LINE
8
BLACK
6
CONTINUOUS
10
199.43
20
-82.2424
11
198.43
21
-83.2424
0
LINE
8
BLACK
6
CONTINUOUS
10
198.43
20
-83.2424
11
198.43
21
-83.2424
0
LINE
8
BLACK
6
CONTINUOUS
10
198.43
20
-83.2424
11
198.387
21
-83.26
0
LINE
8
BLACK
6
CONTINUOUS
10
198.387
20
-83.26
11
185.787
21
-83.26
0
LINE
8
BLACK
6
CONTINUOUS
10
185.787
20
-83.26
11
185.745
21
-83.2424
0
LINE
8
BLACK
6
CONTINUOUS
10
185.745
20
-83.2424
11
184.745
21
-82.2424
0
LINE
8
BLACK
6
CONTINUOUS
10
184.745
20
-82.2424
11
184.727
21
-82.2
0
LINE
8
BLACK
6
CONTINUOUS
10
184.727
20
-82.2
11
184.727
21
-70.2
0
LINE
8
BLACK
6
CONTINUOUS
10
184.727
20
-70.2
11
184.745
21
-70.1576
0
LINE
8
BLACK
6
CONTINUOUS
10
184.745
20
-70.1576
11
184.745
21
-70.1576
0
LINE
8
BLACK
6
CONTINUOUS
10
184.745
20
-70.1576
11
185.745
21
-69.1576
0
LINE
8
BLACK
6
CONTINUOUS
10
185.745
20
-69.1576
11
185.787
21
-69.14
0
LINE
8
BLACK
6
CONTINUOUS
10
185.787
20
-69.14
11
198.387
21
-69.14
0
LINE
8
BLACK
6
CONTINUOUS
10
198.387
20
-69.14
11
198.43
21
-69.1576
0
LINE
8
BLACK
6
CONTINUOUS
10
185.812
20
-69.26
11
184.847
21
-70.2249
0
LINE
8
BLACK
6
CONTINUOUS
10
184.847
20
-70.2249
11
184.847
21
-82.1751
0
LINE
8
BLACK
6
CONTINUOUS
10
184.847
20
-82.1751
11
185.812
21
-83.14
0
LINE
8
BLACK
6
CONTINUOUS
10
185.812
20
-83.14
11
198.363
21
-83.14
0
LINE
8
BLACK
6
CONTINUOUS
10
198.363
20
-83.14
11
199.327
21
-82.1751
0
LINE
8
BLACK
6
CONTINUOUS
10
199.327
20
-82.1751
11
199.327
21
-70.2249
0
LINE
8
BLACK
6
CONTINUOUS
10
199.327
20
-70.2249
11
198.363
21
-69.26
0
LINE
8
BLACK
6
CONTINUOUS
10
198.363
20
-69.26
11
185.812
21
-69.26
0
LINE
8
BLACK
6
CONTINUOUS
10
179.38
20
-69.1576
11
179.38
21
-69.1576
0
LINE
8
BLACK
6
CONTINUOUS
10
179.38
20
-69.1576
11
180.38
21
-70.1576
0
LINE
8
BLACK
6
CONTINUOUS
10
180.38
20
-70.1576
11
180.397
21
-70.2
0
LINE
8
BLACK
6
CONTINUOUS
10
180.397
20
-70.2
11
180.397
21
-70.2
0
LINE
8
BLACK
6
CONTINUOUS
10
180.397
20
-70.2
11
180.397
21
-82.2
0
LINE
8
BLACK
6
CONTINUOUS
10
180.397
20
-82.2
11
180.38
21
-82.2424
0
LINE
8
BLACK
6
CONTINUOUS
10
180.38
20
-82.2424
11
179.38
21
-83.2424
0
LINE
8
BLACK
6
CONTINUOUS
10
179.38
20
-83.2424
11
179.38
21
-83.2424
0
LINE
8
BLACK
6
CONTINUOUS
10
179.38
20
-83.2424
11
179.338
21
-83.26
0
LINE
8
BLACK
6
CONTINUOUS
10
179.338
20
-83.26
11
166.737
21
-83.26
0
LINE
8
BLACK
6
CONTINUOUS
10
166.737
20
-83.26
11
166.695
21
-83.2424
0
LINE
8
BLACK
6
CONTINUOUS
10
166.695
20
-83.2424
11
165.695
21
-82.2424
0
LINE
8
BLACK
6
CONTINUOUS
10
165.695
20
-82.2424
11
165.677
21
-82.2
0
LINE
8
BLACK
6
CONTINUOUS
10
165.677
20
-82.2
11
165.677
21
-70.2
0
LINE
8
BLACK
6
CONTINUOUS
10
165.677
20
-70.2
11
165.695
21
-70.1576
0
LINE
8
BLACK
6
CONTINUOUS
10
165.695
20
-70.1576
11
165.695
21
-70.1576
0
LINE
8
BLACK
6
CONTINUOUS
10
165.695
20
-70.1576
11
166.695
21
-69.1576
0
LINE
8
BLACK
6
CONTINUOUS
10
166.695
20
-69.1576
11
166.737
21
-69.14
0
LINE
8
BLACK
6
CONTINUOUS
10
166.737
20
-69.14
11
179.338
21
-69.14
0
LINE
8
BLACK
6
CONTINUOUS
10
179.338
20
-69.14
11
179.38
21
-69.1576
0
LINE
8
BLACK
6
CONTINUOUS
10
166.762
20
-69.26
11
165.797
21
-70.2249
0
LINE
8
BLACK
6
CONTINUOUS
10
165.797
20
-70.2249
11
165.797
21
-82.1751
0
LINE
8
BLACK
6
CONTINUOUS
10
165.797
20
-82.1751
11
166.762
21
-83.14
0
LINE
8
BLACK
6
CONTINUOUS
10
166.762
20
-83.14
11
179.313
21
-83.14
0
LINE
8
BLACK
6
CONTINUOUS
10
179.313
20
-83.14
11
180.278
21
-82.1751
0
LINE
8
BLACK
6
CONTINUOUS
10
180.278
20
-82.1751
11
180.278
21
-70.2249
0
LINE
8
BLACK
6
CONTINUOUS
10
180.278
20
-70.2249
11
179.313
21
-69.26
0
LINE
8
BLACK
6
CONTINUOUS
10
179.313
20
-69.26
11
166.762
21
-69.26
0
LINE
8
BLACK
6
CONTINUOUS
10
160.33
20
-69.1576
11
160.33
21
-69.1576
0
LINE
8
BLACK
6
CONTINUOUS
10
160.33
20
-69.1576
11
161.33
21
-70.1576
0
LINE
8
BLACK
6
CONTINUOUS
10
161.33
20
-70.1576
11
161.347
21
-70.2
0
LINE
8
BLACK
6
CONTINUOUS
10
161.347
20
-70.2
11
161.347
21
-82.2
0
LINE
8
BLACK
6
CONTINUOUS
10
161.347
20
-82.2
11
161.33
21
-82.2424
0
LINE
8
BLACK
6
CONTINUOUS
10
161.33
20
-82.2424
11
160.33
21
-83.2424
0
LINE
8
BLACK
6
CONTINUOUS
10
160.33
20
-83.2424
11
160.33
21
-83.2424
0
LINE
8
BLACK
6
CONTINUOUS
10
160.33
20
-83.2424
11
160.287
21
-83.26
0
LINE
8
BLACK
6
CONTINUOUS
10
160.287
20
-83.26
11
147.688
21
-83.26
0
LINE
8
BLACK
6
CONTINUOUS
10
147.688
20
-83.26
11
147.645
21
-83.2424
0
LINE
8
BLACK
6
CONTINUOUS
10
147.645
20
-83.2424
11
146.645
21
-82.2424
0
LINE
8
BLACK
6
CONTINUOUS
10
146.645
20
-82.2424
11
146.627
21
-82.2
0
LINE
8
BLACK
6
CONTINUOUS
10
146.627
20
-82.2
11
146.627
21
-70.2
0
LINE
8
BLACK
6
CONTINUOUS
10
146.627
20
-70.2
11
146.645
21
-70.1576
0
LINE
8
BLACK
6
CONTINUOUS
10
146.645
20
-70.1576
11
146.645
21
-70.1576
0
LINE
8
BLACK
6
CONTINUOUS
10
146.645
20
-70.1576
11
147.645
21
-69.1576
0
LINE
8
BLACK
6
CONTINUOUS
10
147.645
20
-69.1576
11
147.688
21
-69.14
0
LINE
8
BLACK
6
CONTINUOUS
10
147.688
20
-69.14
11
160.287
21
-69.14
0
LINE
8
BLACK
6
CONTINUOUS
10
160.287
20
-69.14
11
160.33
21
-69.1576
0
LINE
8
BLACK
6
CONTINUOUS
10
147.712
20
-69.26
11
146.748
21
-70.2249
0
LINE
8
BLACK
6
CONTINUOUS
10
146.748
20
-70.2249
11
146.748
21
-82.1751
0
LINE
8
BLACK
6
CONTINUOUS
10
146.748
20
-82.1751
11
147.712
21
-83.14
0
LINE
8
BLACK
6
CONTINUOUS
10
147.712
20
-83.14
11
160.263
21
-83.14
0
LINE
8
BLACK
6
CONTINUOUS
10
160.263
20
-83.14
11
161.227
21
-82.1751
0
LINE
8
BLACK
6
CONTINUOUS
10
161.227
20
-82.1751
11
161.227
21
-70.2249
0
LINE
8
BLACK
6
CONTINUOUS
10
161.227
20
-70.2249
11
160.263
21
-69.26
0
LINE
8
BLACK
6
CONTINUOUS
10
160.263
20
-69.26
11
147.712
21
-69.26
0
LINE
8
BLACK
6
CONTINUOUS
10
141.28
20
-69.1576
11
141.28
21
-69.1576
0
LINE
8
BLACK
6
CONTINUOUS
10
141.28
20
-69.1576
11
142.28
21
-70.1576
0
LINE
8
BLACK
6
CONTINUOUS
10
142.28
20
-70.1576
11
142.297
21
-70.2
0
LINE
8
BLACK
6
CONTINUOUS
10
142.297
20
-70.2
11
142.297
21
-82.2
0
LINE
8
BLACK
6
CONTINUOUS
10
142.297
20
-82.2
11
142.28
21
-82.2424
0
LINE
8
BLACK
6
CONTINUOUS
10
142.28
20
-82.2424
11
141.28
21
-83.2424
0
LINE
8
BLACK
6
CONTINUOUS
10
141.28
20
-83.2424
11
141.28
21
-83.2424
0
LINE
8
BLACK
6
CONTINUOUS
10
141.28
20
-83.2424
11
141.237
21
-83.26
0
LINE
8
BLACK
6
CONTINUOUS
10
141.237
20
-83.26
11
128.637
21
-83.26
0
LINE
8
BLACK
6
CONTINUOUS
10
128.637
20
-83.26
11
128.595
21
-83.2424
0
LINE
8
BLACK
6
CONTINUOUS
10
128.595
20
-83.2424
11
127.595
21
-82.2424
0
LINE
8
BLACK
6
CONTINUOUS
10
127.595
20
-82.2424
11
127.578
21
-82.2
0
LINE
8
BLACK
6
CONTINUOUS
10
127.578
20
-82.2
11
127.578
21
-70.2
0
LINE
8
BLACK
6
CONTINUOUS
10
127.578
20
-70.2
11
127.595
21
-70.1576
0
LINE
8
BLACK
6
CONTINUOUS
10
127.595
20
-70.1576
11
127.595
21
-70.1576
0
LINE
8
BLACK
6
CONTINUOUS
10
127.595
20
-70.1576
11
128.595
21
-69.1576
0
LINE
8
BLACK
6
CONTINUOUS
10
128.595
20
-69.1576
11
128.637
21
-69.14
0
LINE
8
BLACK
6
CONTINUOUS
10
128.637
20
-69.14
11
141.237
21
-69.14
0
LINE
8
BLACK
6
CONTINUOUS
10
141.237
20
-69.14
11
141.28
21
-69.1576
0
LINE
8
BLACK
6
CONTINUOUS
10
128.662
20
-69.26
11
127.697
21
-70.2249
0
LINE
8
BLACK
6
CONTINUOUS
10
127.697
20
-70.2249
11
127.697
21
-82.1751
0
LINE
8
BLACK
6
CONTINUOUS
10
127.697
20
-82.1751
11
128.662
21
-83.14
0
LINE
8
BLACK
6
CONTINUOUS
10
128.662
20
-83.14
11
141.213
21
-83.14
0
LINE
8
BLACK
6
CONTINUOUS
10
141.213
20
-83.14
11
142.177
21
-82.1751
0
LINE
8
BLACK
6
CONTINUOUS
10
142.177
20
-82.1751
11
142.177
21
-70.2249
0
LINE
8
BLACK
6
CONTINUOUS
10
142.177
20
-70.2249
11
141.213
21
-69.26
0
LINE
8
BLACK
6
CONTINUOUS
10
141.213
20
-69.26
11
128.662
21
-69.26
0
LINE
8
BLACK
6
CONTINUOUS
10
122.23
20
-69.1576
11
122.23
21
-69.1576
0
LINE
8
BLACK
6
CONTINUOUS
10
122.23
20
-69.1576
11
123.23
21
-70.1576
0
LINE
8
BLACK
6
CONTINUOUS
10
123.23
20
-70.1576
11
123.247
21
-70.2
0
LINE
8
BLACK
6
CONTINUOUS
10
123.247
20
-70.2
11
123.247
21
-82.2
0
LINE
8
BLACK
6
CONTINUOUS
10
123.247
20
-82.2
11
123.23
21
-82.2424
0
LINE
8
BLACK
6
CONTINUOUS
10
123.23
20
-82.2424
11
122.23
21
-83.2424
0
LINE
8
BLACK
6
CONTINUOUS
10
122.23
20
-83.2424
11
122.23
21
-83.2424
0
LINE
8
BLACK
6
CONTINUOUS
10
122.23
20
-83.2424
11
122.188
21
-83.26
0
LINE
8
BLACK
6
CONTINUOUS
10
122.188
20
-83.26
11
109.587
21
-83.26
0
LINE
8
BLACK
6
CONTINUOUS
10
109.587
20
-83.26
11
109.545
21
-83.2424
0
LINE
8
BLACK
6
CONTINUOUS
10
109.545
20
-83.2424
11
108.545
21
-82.2424
0
LINE
8
BLACK
6
CONTINUOUS
10
108.545
20
-82.2424
11
108.527
21
-82.2
0
LINE
8
BLACK
6
CONTINUOUS
10
108.527
20
-82.2
11
108.527
21
-70.2
0
LINE
8
BLACK
6
CONTINUOUS
10
108.527
20
-70.2
11
108.545
21
-70.1576
0
LINE
8
BLACK
6
CONTINUOUS
10
108.545
20
-70.1576
11
108.545
21
-70.1576
0
LINE
8
BLACK
6
CONTINUOUS
10
108.545
20
-70.1576
11
109.545
21
-69.1576
0
LINE
8
BLACK
6
CONTINUOUS
10
109.545
20
-69.1576
11
109.587
21
-69.14
0
LINE
8
BLACK
6
CONTINUOUS
10
109.587
20
-69.14
11
122.188
21
-69.14
0
LINE
8
BLACK
6
CONTINUOUS
10
122.188
20
-69.14
11
122.23
21
-69.1576
0
LINE
8
BLACK
6
CONTINUOUS
10
109.612
20
-69.26
11
108.647
21
-70.2249
0
LINE
8
BLACK
6
CONTINUOUS
10
108.647
20
-70.2249
11
108.647
21
-82.1751
0
LINE
8
BLACK
6
CONTINUOUS
10
108.647
20
-82.1751
11
109.612
21
-83.14
0
LINE
8
BLACK
6
CONTINUOUS
10
109.612
20
-83.14
11
122.163
21
-83.14
0
LINE
8
BLACK
6
CONTINUOUS
10
122.163
20
-83.14
11
123.127
21
-82.1751
0
LINE
8
BLACK
6
CONTINUOUS
10
123.127
20
-82.1751
11
123.127
21
-70.2249
0
LINE
8
BLACK
6
CONTINUOUS
10
123.127
20
-70.2249
11
122.163
21
-69.26
0
LINE
8
BLACK
6
CONTINUOUS
10
122.163
20
-69.26
11
109.612
21
-69.26
0
LINE
8
BLACK
6
CONTINUOUS
10
103.18
20
-69.1576
11
103.18
21
-69.1576
0
LINE
8
BLACK
6
CONTINUOUS
10
103.18
20
-69.1576
11
104.18
21
-70.1576
0
LINE
8
BLACK
6
CONTINUOUS
10
104.18
20
-70.1576
11
104.197
21
-70.2
0
LINE
8
BLACK
6
CONTINUOUS
10
104.197
20
-70.2
11
104.197
21
-82.2
0
LINE
8
BLACK
6
CONTINUOUS
10
104.197
20
-82.2
11
104.18
21
-82.2424
0
LINE
8
BLACK
6
CONTINUOUS
10
104.18
20
-82.2424
11
103.18
21
-83.2424
0
LINE
8
BLACK
6
CONTINUOUS
10
103.18
20
-83.2424
11
103.18
21
-83.2424
0
LINE
8
BLACK
6
CONTINUOUS
10
103.18
20
-83.2424
11
103.137
21
-83.26
0
LINE
8
BLACK
6
CONTINUOUS
10
103.137
20
-83.26
11
90.5375
21
-83.26
0
LINE
8
BLACK
6
CONTINUOUS
10
90.5375
20
-83.26
11
90.4951
21
-83.2424
0
LINE
8
BLACK
6
CONTINUOUS
10
90.4951
20
-83.2424
11
89.4951
21
-82.2424
0
LINE
8
BLACK
6
CONTINUOUS
10
89.4951
20
-82.2424
11
89.4775
21
-82.2
0
LINE
8
BLACK
6
CONTINUOUS
10
89.4775
20
-82.2
11
89.4775
21
-70.2
0
LINE
8
BLACK
6
CONTINUOUS
10
89.4775
20
-70.2
11
89.4951
21
-70.1576
0
LINE
8
BLACK
6
CONTINUOUS
10
89.4951
20
-70.1576
11
90.4951
21
-69.1576
0
LINE
8
BLACK
6
CONTINUOUS
10
90.4951
20
-69.1576
11
90.5375
21
-69.14
0
LINE
8
BLACK
6
CONTINUOUS
10
90.5375
20
-69.14
11
103.137
21
-69.14
0
LINE
8
BLACK
6
CONTINUOUS
10
103.137
20
-69.14
11
103.18
21
-69.1576
0
LINE
8
BLACK
6
CONTINUOUS
10
90.5624
20
-69.26
11
89.5975
21
-70.2249
0
LINE
8
BLACK
6
CONTINUOUS
10
89.5975
20
-70.2249
11
89.5975
21
-82.1751
0
LINE
8
BLACK
6
CONTINUOUS
10
89.5975
20
-82.1751
11
90.5624
21
-83.14
0
LINE
8
BLACK
6
CONTINUOUS
10
90.5624
20
-83.14
11
103.113
21
-83.14
0
LINE
8
BLACK
6
CONTINUOUS
10
103.113
20
-83.14
11
104.078
21
-82.1751
0
LINE
8
BLACK
6
CONTINUOUS
10
104.078
20
-82.1751
11
104.078
21
-70.2249
0
LINE
8
BLACK
6
CONTINUOUS
10
104.078
20
-70.2249
11
103.113
21
-69.26
0
LINE
8
BLACK
6
CONTINUOUS
10
103.113
20
-69.26
11
90.5624
21
-69.26
0
LINE
8
BLACK
6
CONTINUOUS
10
84.1299
20
-69.1576
11
84.1299
21
-69.1576
0
LINE
8
BLACK
6
CONTINUOUS
10
84.1299
20
-69.1576
11
85.1299
21
-70.1576
0
LINE
8
BLACK
6
CONTINUOUS
10
85.1299
20
-70.1576
11
85.1475
21
-70.2
0
LINE
8
BLACK
6
CONTINUOUS
10
85.1475
20
-70.2
11
85.1475
21
-82.2
0
LINE
8
BLACK
6
CONTINUOUS
10
85.1475
20
-82.2
11
85.1299
21
-82.2424
0
LINE
8
BLACK
6
CONTINUOUS
10
85.1299
20
-82.2424
11
84.1299
21
-83.2424
0
LINE
8
BLACK
6
CONTINUOUS
10
84.1299
20
-83.2424
11
84.1299
21
-83.2424
0
LINE
8
BLACK
6
CONTINUOUS
10
84.1299
20
-83.2424
11
84.0875
21
-83.26
0
LINE
8
BLACK
6
CONTINUOUS
10
84.0875
20
-83.26
11
71.4875
21
-83.26
0
LINE
8
BLACK
6
CONTINUOUS
10
71.4875
20
-83.26
11
71.4451
21
-83.2424
0
LINE
8
BLACK
6
CONTINUOUS
10
71.4451
20
-83.2424
11
70.4451
21
-82.2424
0
LINE
8
BLACK
6
CONTINUOUS
10
70.4451
20
-82.2424
11
70.4275
21
-82.2
0
LINE
8
BLACK
6
CONTINUOUS
10
70.4275
20
-82.2
11
70.4275
21
-70.2
0
LINE
8
BLACK
6
CONTINUOUS
10
70.4275
20
-70.2
11
70.4451
21
-70.1576
0
LINE
8
BLACK
6
CONTINUOUS
10
70.4451
20
-70.1576
11
71.4451
21
-69.1576
0
LINE
8
BLACK
6
CONTINUOUS
10
71.4451
20
-69.1576
11
71.4875
21
-69.14
0
LINE
8
BLACK
6
CONTINUOUS
10
71.4875
20
-69.14
11
84.0875
21
-69.14
0
LINE
8
BLACK
6
CONTINUOUS
10
84.0875
20
-69.14
11
84.1299
21
-69.1576
0
LINE
8
BLACK
6
CONTINUOUS
10
71.5124
20
-69.26
11
70.5475
21
-70.2249
0
LINE
8
BLACK
6
CONTINUOUS
10
70.5475
20
-70.2249
11
70.5475
21
-82.1751
0
LINE
8
BLACK
6
CONTINUOUS
10
70.5475
20
-82.1751
11
71.5124
21
-83.14
0
LINE
8
BLACK
6
CONTINUOUS
10
71.5124
20
-83.14
11
84.0626
21
-83.14
0
LINE
8
BLACK
6
CONTINUOUS
10
84.0626
20
-83.14
11
85.0275
21
-82.1751
0
LINE
8
BLACK
6
CONTINUOUS
10
85.0275
20
-82.1751
11
85.0275
21
-70.2249
0
LINE
8
BLACK
6
CONTINUOUS
10
85.0275
20
-70.2249
11
84.0626
21
-69.26
0
LINE
8
BLACK
6
CONTINUOUS
10
84.0626
20
-69.26
11
71.5124
21
-69.26
0
LINE
8
BLACK
6
CONTINUOUS
10
62.7004
20
-69.1576
11
62.7004
21
-69.1576
0
LINE
8
BLACK
6
CONTINUOUS
10
62.7004
20
-69.1576
11
63.7004
21
-70.1576
0
LINE
8
BLACK
6
CONTINUOUS
10
63.7004
20
-70.1576
11
63.718
21
-70.2
0
LINE
8
BLACK
6
CONTINUOUS
10
63.718
20
-70.2
11
63.718
21
-82.2
0
LINE
8
BLACK
6
CONTINUOUS
10
63.718
20
-82.2
11
63.7004
21
-82.2424
0
LINE
8
BLACK
6
CONTINUOUS
10
63.7004
20
-82.2424
11
62.7004
21
-83.2424
0
LINE
8
BLACK
6
CONTINUOUS
10
62.7004
20
-83.2424
11
62.7004
21
-83.2424
0
LINE
8
BLACK
6
CONTINUOUS
10
62.7004
20
-83.2424
11
62.658
21
-83.26
0
LINE
8
BLACK
6
CONTINUOUS
10
62.658
20
-83.26
11
50.058
21
-83.26
0
LINE
8
BLACK
6
CONTINUOUS
10
50.058
20
-83.26
11
50.0156
21
-83.2424
0
LINE
8
BLACK
6
CONTINUOUS
10
50.0156
20
-83.2424
11
49.0156
21
-82.2424
0
LINE
8
BLACK
6
CONTINUOUS
10
49.0156
20
-82.2424
11
48.998
21
-82.2
0
LINE
8
BLACK
6
CONTINUOUS
10
48.998
20
-82.2
11
48.998
21
-70.2
0
LINE
8
BLACK
6
CONTINUOUS
10
48.998
20
-70.2
11
49.0156
21
-70.1576
0
LINE
8
BLACK
6
CONTINUOUS
10
49.0156
20
-70.1576
11
50.0156
21
-69.1576
0
LINE
8
BLACK
6
CONTINUOUS
10
50.0156
20
-69.1576
11
50.058
21
-69.14
0
LINE
8
BLACK
6
CONTINUOUS
10
50.058
20
-69.14
11
62.658
21
-69.14
0
LINE
8
BLACK
6
CONTINUOUS
10
62.658
20
-69.14
11
62.7004
21
-69.1576
0
LINE
8
BLACK
6
CONTINUOUS
10
50.0829
20
-69.26
11
49.118
21
-70.2249
0
LINE
8
BLACK
6
CONTINUOUS
10
49.118
20
-70.2249
11
49.118
21
-82.1751
0
LINE
8
BLACK
6
CONTINUOUS
10
49.118
20
-82.1751
11
50.0829
21
-83.14
0
LINE
8
BLACK
6
CONTINUOUS
10
50.0829
20
-83.14
11
62.6331
21
-83.14
0
LINE
8
BLACK
6
CONTINUOUS
10
62.6331
20
-83.14
11
63.598
21
-82.1751
0
LINE
8
BLACK
6
CONTINUOUS
10
63.598
20
-82.1751
11
63.598
21
-70.2249
0
LINE
8
BLACK
6
CONTINUOUS
10
63.598
20
-70.2249
11
62.6331
21
-69.26
0
LINE
8
BLACK
6
CONTINUOUS
10
62.6331
20
-69.26
11
50.0829
21
-69.26
0
LINE
8
BLACK
6
CONTINUOUS
10
219.762
20
-76.2
11
219.782
21
-76.0129
0
LINE
8
BLACK
6
CONTINUOUS
10
219.782
20
-76.0129
11
219.84
21
-75.8339
0
LINE
8
BLACK
6
CONTINUOUS
10
219.84
20
-75.8339
11
219.934
21
-75.671
0
LINE
8
BLACK
6
CONTINUOUS
10
219.934
20
-75.671
11
220.06
21
-75.5312
0
LINE
8
BLACK
6
CONTINUOUS
10
220.06
20
-75.5312
11
220.212
21
-75.4206
0
LINE
8
BLACK
6
CONTINUOUS
10
220.212
20
-75.4206
11
220.384
21
-75.344
0
LINE
8
BLACK
6
CONTINUOUS
10
220.384
20
-75.344
11
220.568
21
-75.3049
0
LINE
8
BLACK
6
CONTINUOUS
10
220.568
20
-75.3049
11
220.757
21
-75.3049
0
LINE
8
BLACK
6
CONTINUOUS
10
220.757
20
-75.3049
11
220.941
21
-75.344
0
LINE
8
BLACK
6
CONTINUOUS
10
220.941
20
-75.344
11
221.112
21
-75.4206
0
LINE
8
BLACK
6
CONTINUOUS
10
221.112
20
-75.4206
11
221.265
21
-75.5312
0
LINE
8
BLACK
6
CONTINUOUS
10
221.265
20
-75.5312
11
221.391
21
-75.671
0
LINE
8
BLACK
6
CONTINUOUS
10
221.391
20
-75.671
11
221.485
21
-75.8339
0
LINE
8
BLACK
6
CONTINUOUS
10
221.485
20
-75.8339
11
221.543
21
-76.0129
0
LINE
8
BLACK
6
CONTINUOUS
10
221.543
20
-76.0129
11
221.562
21
-76.2
0
LINE
8
BLACK
6
CONTINUOUS
10
221.562
20
-76.2
11
221.543
21
-76.3871
0
LINE
8
BLACK
6
CONTINUOUS
10
221.543
20
-76.3871
11
221.485
21
-76.5661
0
LINE
8
BLACK
6
CONTINUOUS
10
221.485
20
-76.5661
11
221.391
21
-76.729
0
LINE
8
BLACK
6
CONTINUOUS
10
221.391
20
-76.729
11
221.265
21
-76.8688
0
LINE
8
BLACK
6
CONTINUOUS
10
221.265
20
-76.8688
11
221.112
21
-76.9794
0
LINE
8
BLACK
6
CONTINUOUS
10
221.112
20
-76.9794
11
220.941
21
-77.056
0
LINE
8
BLACK
6
CONTINUOUS
10
220.941
20
-77.056
11
220.757
21
-77.0951
0
LINE
8
BLACK
6
CONTINUOUS
10
220.757
20
-77.0951
11
220.568
21
-77.0951
0
LINE
8
BLACK
6
CONTINUOUS
10
220.568
20
-77.0951
11
220.384
21
-77.056
0
LINE
8
BLACK
6
CONTINUOUS
10
220.384
20
-77.056
11
220.212
21
-76.9794
0
LINE
8
BLACK
6
CONTINUOUS
10
220.212
20
-76.9794
11
220.06
21
-76.8688
0
LINE
8
BLACK
6
CONTINUOUS
10
220.06
20
-76.8688
11
219.934
21
-76.729
0
LINE
8
BLACK
6
CONTINUOUS
10
219.934
20
-76.729
11
219.84
21
-76.5661
0
LINE
8
BLACK
6
CONTINUOUS
10
219.84
20
-76.5661
11
219.782
21
-76.3871
0
LINE
8
BLACK
6
CONTINUOUS
10
219.782
20
-76.3871
11
219.762
21
-76.2
0
LINE
8
BLACK
6
CONTINUOUS
10
219.957
20
-76.2
11
219.978
21
-76.3688
0
LINE
8
BLACK
6
CONTINUOUS
10
219.978
20
-76.3688
11
220.038
21
-76.5277
0
LINE
8
BLACK
6
CONTINUOUS
10
220.038
20
-76.5277
11
220.135
21
-76.6676
0
LINE
8
BLACK
6
CONTINUOUS
10
220.135
20
-76.6676
11
220.262
21
-76.7803
0
LINE
8
BLACK
6
CONTINUOUS
10
220.262
20
-76.7803
11
220.412
21
-76.8593
0
LINE
8
BLACK
6
CONTINUOUS
10
220.412
20
-76.8593
11
220.578
21
-76.9
0
LINE
8
BLACK
6
CONTINUOUS
10
220.578
20
-76.9
11
220.747
21
-76.9
0
LINE
8
BLACK
6
CONTINUOUS
10
220.747
20
-76.9
11
220.913
21
-76.8593
0
LINE
8
BLACK
6
CONTINUOUS
10
220.913
20
-76.8593
11
221.063
21
-76.7803
0
LINE
8
BLACK
6
CONTINUOUS
10
221.063
20
-76.7803
11
221.19
21
-76.6676
0
LINE
8
BLACK
6
CONTINUOUS
10
221.19
20
-76.6676
11
221.287
21
-76.5277
0
LINE
8
BLACK
6
CONTINUOUS
10
221.287
20
-76.5277
11
221.347
21
-76.3688
0
LINE
8
BLACK
6
CONTINUOUS
10
221.347
20
-76.3688
11
221.368
21
-76.2
0
LINE
8
BLACK
6
CONTINUOUS
10
221.368
20
-76.2
11
221.347
21
-76.0312
0
LINE
8
BLACK
6
CONTINUOUS
10
221.347
20
-76.0312
11
221.287
21
-75.8723
0
LINE
8
BLACK
6
CONTINUOUS
10
221.287
20
-75.8723
11
221.19
21
-75.7324
0
LINE
8
BLACK
6
CONTINUOUS
10
221.19
20
-75.7324
11
221.063
21
-75.6197
0
LINE
8
BLACK
6
CONTINUOUS
10
221.063
20
-75.6197
11
220.913
21
-75.5407
0
LINE
8
BLACK
6
CONTINUOUS
10
220.913
20
-75.5407
11
220.747
21
-75.5
0
LINE
8
BLACK
6
CONTINUOUS
10
220.747
20
-75.5
11
220.578
21
-75.5
0
LINE
8
BLACK
6
CONTINUOUS
10
220.578
20
-75.5
11
220.412
21
-75.5407
0
LINE
8
BLACK
6
CONTINUOUS
10
220.412
20
-75.5407
11
220.262
21
-75.6197
0
LINE
8
BLACK
6
CONTINUOUS
10
220.262
20
-75.6197
11
220.135
21
-75.7324
0
LINE
8
BLACK
6
CONTINUOUS
10
220.135
20
-75.7324
11
220.038
21
-75.8723
0
LINE
8
BLACK
6
CONTINUOUS
10
220.038
20
-75.8723
11
219.978
21
-76.0312
0
LINE
8
BLACK
6
CONTINUOUS
10
219.978
20
-76.0312
11
219.957
21
-76.2
0
LINE
8
BLACK
6
CONTINUOUS
10
181.662
20
-76.2
11
181.682
21
-76.0129
0
LINE
8
BLACK
6
CONTINUOUS
10
181.682
20
-76.0129
11
181.74
21
-75.8339
0
LINE
8
BLACK
6
CONTINUOUS
10
181.74
20
-75.8339
11
181.834
21
-75.671
0
LINE
8
BLACK
6
CONTINUOUS
10
181.834
20
-75.671
11
181.96
21
-75.5312
0
LINE
8
BLACK
6
CONTINUOUS
10
181.96
20
-75.5312
11
182.112
21
-75.4206
0
LINE
8
BLACK
6
CONTINUOUS
10
182.112
20
-75.4206
11
182.284
21
-75.344
0
LINE
8
BLACK
6
CONTINUOUS
10
182.284
20
-75.344
11
182.468
21
-75.3049
0
LINE
8
BLACK
6
CONTINUOUS
10
182.468
20
-75.3049
11
182.657
21
-75.3049
0
LINE
8
BLACK
6
CONTINUOUS
10
182.657
20
-75.3049
11
182.841
21
-75.344
0
LINE
8
BLACK
6
CONTINUOUS
10
182.841
20
-75.344
11
183.012
21
-75.4206
0
LINE
8
BLACK
6
CONTINUOUS
10
183.012
20
-75.4206
11
183.165
21
-75.5312
0
LINE
8
BLACK
6
CONTINUOUS
10
183.165
20
-75.5312
11
183.291
21
-75.671
0
LINE
8
BLACK
6
CONTINUOUS
10
183.291
20
-75.671
11
183.385
21
-75.8339
0
LINE
8
BLACK
6
CONTINUOUS
10
183.385
20
-75.8339
11
183.443
21
-76.0129
0
LINE
8
BLACK
6
CONTINUOUS
10
183.443
20
-76.0129
11
183.463
21
-76.2
0
LINE
8
BLACK
6
CONTINUOUS
10
183.463
20
-76.2
11
183.443
21
-76.3871
0
LINE
8
BLACK
6
CONTINUOUS
10
183.443
20
-76.3871
11
183.385
21
-76.5661
0
LINE
8
BLACK
6
CONTINUOUS
10
183.385
20
-76.5661
11
183.291
21
-76.729
0
LINE
8
BLACK
6
CONTINUOUS
10
183.291
20
-76.729
11
183.165
21
-76.8688
0
LINE
8
BLACK
6
CONTINUOUS
10
183.165
20
-76.8688
11
183.012
21
-76.9794
0
LINE
8
BLACK
6
CONTINUOUS
10
183.012
20
-76.9794
11
182.841
21
-77.056
0
LINE
8
BLACK
6
CONTINUOUS
10
182.841
20
-77.056
11
182.657
21
-77.0951
0
LINE
8
BLACK
6
CONTINUOUS
10
182.657
20
-77.0951
11
182.468
21
-77.0951
0
LINE
8
BLACK
6
CONTINUOUS
10
182.468
20
-77.0951
11
182.284
21
-77.056
0
LINE
8
BLACK
6
CONTINUOUS
10
182.284
20
-77.056
11
182.112
21
-76.9794
0
LINE
8
BLACK
6
CONTINUOUS
10
182.112
20
-76.9794
11
181.96
21
-76.8688
0
LINE
8
BLACK
6
CONTINUOUS
10
181.96
20
-76.8688
11
181.834
21
-76.729
0
LINE
8
BLACK
6
CONTINUOUS
10
181.834
20
-76.729
11
181.74
21
-76.5661
0
LINE
8
BLACK
6
CONTINUOUS
10
181.74
20
-76.5661
11
181.682
21
-76.3871
0
LINE
8
BLACK
6
CONTINUOUS
10
181.682
20
-76.3871
11
181.662
21
-76.2
0
LINE
8
BLACK
6
CONTINUOUS
10
181.857
20
-76.2
11
181.878
21
-76.3688
0
LINE
8
BLACK
6
CONTINUOUS
10
181.878
20
-76.3688
11
181.938
21
-76.5277
0
LINE
8
BLACK
6
CONTINUOUS
10
181.938
20
-76.5277
11
182.035
21
-76.6676
0
LINE
8
BLACK
6
CONTINUOUS
10
182.035
20
-76.6676
11
182.162
21
-76.7803
0
LINE
8
BLACK
6
CONTINUOUS
10
182.162
20
-76.7803
11
182.312
21
-76.8593
0
LINE
8
BLACK
6
CONTINUOUS
10
182.312
20
-76.8593
11
182.478
21
-76.9
0
LINE
8
BLACK
6
CONTINUOUS
10
182.478
20
-76.9
11
182.647
21
-76.9
0
LINE
8
BLACK
6
CONTINUOUS
10
182.647
20
-76.9
11
182.813
21
-76.8593
0
LINE
8
BLACK
6
CONTINUOUS
10
182.813
20
-76.8593
11
182.963
21
-76.7803
0
LINE
8
BLACK
6
CONTINUOUS
10
182.963
20
-76.7803
11
183.09
21
-76.6676
0
LINE
8
BLACK
6
CONTINUOUS
10
183.09
20
-76.6676
11
183.187
21
-76.5277
0
LINE
8
BLACK
6
CONTINUOUS
10
183.187
20
-76.5277
11
183.247
21
-76.3688
0
LINE
8
BLACK
6
CONTINUOUS
10
183.247
20
-76.3688
11
183.268
21
-76.2
0
LINE
8
BLACK
6
CONTINUOUS
10
183.268
20
-76.2
11
183.247
21
-76.0312
0
LINE
8
BLACK
6
CONTINUOUS
10
183.247
20
-76.0312
11
183.187
21
-75.8723
0
LINE
8
BLACK
6
CONTINUOUS
10
183.187
20
-75.8723
11
183.09
21
-75.7324
0
LINE
8
BLACK
6
CONTINUOUS
10
183.09
20
-75.7324
11
182.963
21
-75.6197
0
LINE
8
BLACK
6
CONTINUOUS
10
182.963
20
-75.6197
11
182.813
21
-75.5407
0
LINE
8
BLACK
6
CONTINUOUS
10
182.813
20
-75.5407
11
182.647
21
-75.5
0
LINE
8
BLACK
6
CONTINUOUS
10
182.647
20
-75.5
11
182.478
21
-75.5
0
LINE
8
BLACK
6
CONTINUOUS
10
182.478
20
-75.5
11
182.312
21
-75.5407
0
LINE
8
BLACK
6
CONTINUOUS
10
182.312
20
-75.5407
11
182.162
21
-75.6197
0
LINE
8
BLACK
6
CONTINUOUS
10
182.162
20
-75.6197
11
182.035
21
-75.7324
0
LINE
8
BLACK
6
CONTINUOUS
10
182.035
20
-75.7324
11
181.938
21
-75.8723
0
LINE
8
BLACK
6
CONTINUOUS
10
181.938
20
-75.8723
11
181.878
21
-76.0312
0
LINE
8
BLACK
6
CONTINUOUS
10
181.878
20
-76.0312
11
181.857
21
-76.2
0
LINE
8
BLACK
6
CONTINUOUS
10
124.512
20
-76.2
11
124.532
21
-76.0129
0
LINE
8
BLACK
6
CONTINUOUS
10
124.532
20
-76.0129
11
124.59
21
-75.8339
0
LINE
8
BLACK
6
CONTINUOUS
10
124.59
20
-75.8339
11
124.684
21
-75.671
0
LINE
8
BLACK
6
CONTINUOUS
10
124.684
20
-75.671
11
124.81
21
-75.5312
0
LINE
8
BLACK
6
CONTINUOUS
10
124.81
20
-75.5312
11
124.962
21
-75.4206
0
LINE
8
BLACK
6
CONTINUOUS
10
124.962
20
-75.4206
11
125.134
21
-75.344
0
LINE
8
BLACK
6
CONTINUOUS
10
125.134
20
-75.344
11
125.318
21
-75.3049
0
LINE
8
BLACK
6
CONTINUOUS
10
125.318
20
-75.3049
11
125.507
21
-75.3049
0
LINE
8
BLACK
6
CONTINUOUS
10
125.507
20
-75.3049
11
125.691
21
-75.344
0
LINE
8
BLACK
6
CONTINUOUS
10
125.691
20
-75.344
11
125.862
21
-75.4206
0
LINE
8
BLACK
6
CONTINUOUS
10
125.862
20
-75.4206
11
126.015
21
-75.5312
0
LINE
8
BLACK
6
CONTINUOUS
10
126.015
20
-75.5312
11
126.141
21
-75.671
0
LINE
8
BLACK
6
CONTINUOUS
10
126.141
20
-75.671
11
126.235
21
-75.8339
0
LINE
8
BLACK
6
CONTINUOUS
10
126.235
20
-75.8339
11
126.293
21
-76.0129
0
LINE
8
BLACK
6
CONTINUOUS
10
126.293
20
-76.0129
11
126.312
21
-76.2
0
LINE
8
BLACK
6
CONTINUOUS
10
126.312
20
-76.2
11
126.293
21
-76.3871
0
LINE
8
BLACK
6
CONTINUOUS
10
126.293
20
-76.3871
11
126.235
21
-76.5661
0
LINE
8
BLACK
6
CONTINUOUS
10
126.235
20
-76.5661
11
126.141
21
-76.729
0
LINE
8
BLACK
6
CONTINUOUS
10
126.141
20
-76.729
11
126.015
21
-76.8688
0
LINE
8
BLACK
6
CONTINUOUS
10
126.015
20
-76.8688
11
125.862
21
-76.9794
0
LINE
8
BLACK
6
CONTINUOUS
10
125.862
20
-76.9794
11
125.691
21
-77.056
0
LINE
8
BLACK
6
CONTINUOUS
10
125.691
20
-77.056
11
125.507
21
-77.0951
0
LINE
8
BLACK
6
CONTINUOUS
10
125.507
20
-77.0951
11
125.318
21
-77.0951
0
LINE
8
BLACK
6
CONTINUOUS
10
125.318
20
-77.0951
11
125.134
21
-77.056
0
LINE
8
BLACK
6
CONTINUOUS
10
125.134
20
-77.056
11
124.962
21
-76.9794
0
LINE
8
BLACK
6
CONTINUOUS
10
124.962
20
-76.9794
11
124.81
21
-76.8688
0
LINE
8
BLACK
6
CONTINUOUS
10
124.81
20
-76.8688
11
124.684
21
-76.729
0
LINE
8
BLACK
6
CONTINUOUS
10
124.684
20
-76.729
11
124.59
21
-76.5661
0
LINE
8
BLACK
6
CONTINUOUS
10
124.59
20
-76.5661
11
124.532
21
-76.3871
0
LINE
8
BLACK
6
CONTINUOUS
10
124.532
20
-76.3871
11
124.512
21
-76.2
0
LINE
8
BLACK
6
CONTINUOUS
10
124.707
20
-76.2
11
124.728
21
-76.3688
0
LINE
8
BLACK
6
CONTINUOUS
10
124.728
20
-76.3688
11
124.788
21
-76.5277
0
LINE
8
BLACK
6
CONTINUOUS
10
124.788
20
-76.5277
11
124.885
21
-76.6676
0
LINE
8
BLACK
6
CONTINUOUS
10
124.885
20
-76.6676
11
125.012
21
-76.7803
0
LINE
8
BLACK
6
CONTINUOUS
10
125.012
20
-76.7803
11
125.162
21
-76.8593
0
LINE
8
BLACK
6
CONTINUOUS
10
125.162
20
-76.8593
11
125.328
21
-76.9
0
LINE
8
BLACK
6
CONTINUOUS
10
125.328
20
-76.9
11
125.497
21
-76.9
0
LINE
8
BLACK
6
CONTINUOUS
10
125.497
20
-76.9
11
125.663
21
-76.8593
0
LINE
8
BLACK
6
CONTINUOUS
10
125.663
20
-76.8593
11
125.813
21
-76.7803
0
LINE
8
BLACK
6
CONTINUOUS
10
125.813
20
-76.7803
11
125.94
21
-76.6676
0
LINE
8
BLACK
6
CONTINUOUS
10
125.94
20
-76.6676
11
126.037
21
-76.5277
0
LINE
8
BLACK
6
CONTINUOUS
10
126.037
20
-76.5277
11
126.097
21
-76.3688
0
LINE
8
BLACK
6
CONTINUOUS
10
126.097
20
-76.3688
11
126.118
21
-76.2
0
LINE
8
BLACK
6
CONTINUOUS
10
126.118
20
-76.2
11
126.097
21
-76.0312
0
LINE
8
BLACK
6
CONTINUOUS
10
126.097
20
-76.0312
11
126.037
21
-75.8723
0
LINE
8
BLACK
6
CONTINUOUS
10
126.037
20
-75.8723
11
125.94
21
-75.7324
0
LINE
8
BLACK
6
CONTINUOUS
10
125.94
20
-75.7324
11
125.813
21
-75.6197
0
LINE
8
BLACK
6
CONTINUOUS
10
125.813
20
-75.6197
11
125.663
21
-75.5407
0
LINE
8
BLACK
6
CONTINUOUS
10
125.663
20
-75.5407
11
125.497
21
-75.5
0
LINE
8
BLACK
6
CONTINUOUS
10
125.497
20
-75.5
11
125.328
21
-75.5
0
LINE
8
BLACK
6
CONTINUOUS
10
125.328
20
-75.5
11
125.162
21
-75.5407
0
LINE
8
BLACK
6
CONTINUOUS
10
125.162
20
-75.5407
11
125.012
21
-75.6197
0
LINE
8
BLACK
6
CONTINUOUS
10
125.012
20
-75.6197
11
124.885
21
-75.7324
0
LINE
8
BLACK
6
CONTINUOUS
10
124.885
20
-75.7324
11
124.788
21
-75.8723
0
LINE
8
BLACK
6
CONTINUOUS
10
124.788
20
-75.8723
11
124.728
21
-76.0312
0
LINE
8
BLACK
6
CONTINUOUS
10
124.728
20
-76.0312
11
124.707
21
-76.2
0
LINE
8
BLACK
6
CONTINUOUS
10
86.4125
20
-76.2
11
86.4322
21
-76.0129
0
LINE
8
BLACK
6
CONTINUOUS
10
86.4322
20
-76.0129
11
86.4903
21
-75.8339
0
LINE
8
BLACK
6
CONTINUOUS
10
86.4903
20
-75.8339
11
86.5844
21
-75.671
0
LINE
8
BLACK
6
CONTINUOUS
10
86.5844
20
-75.671
11
86.7103
21
-75.5312
0
LINE
8
BLACK
6
CONTINUOUS
10
86.7103
20
-75.5312
11
86.8625
21
-75.4206
0
LINE
8
BLACK
6
CONTINUOUS
10
86.8625
20
-75.4206
11
87.0344
21
-75.344
0
LINE
8
BLACK
6
CONTINUOUS
10
87.0344
20
-75.344
11
87.2184
21
-75.3049
0
LINE
8
BLACK
6
CONTINUOUS
10
87.2184
20
-75.3049
11
87.4066
21
-75.3049
0
LINE
8
BLACK
6
CONTINUOUS
10
87.4066
20
-75.3049
11
87.5906
21
-75.344
0
LINE
8
BLACK
6
CONTINUOUS
10
87.5906
20
-75.344
11
87.7625
21
-75.4206
0
LINE
8
BLACK
6
CONTINUOUS
10
87.7625
20
-75.4206
11
87.9147
21
-75.5312
0
LINE
8
BLACK
6
CONTINUOUS
10
87.9147
20
-75.5312
11
88.0406
21
-75.671
0
LINE
8
BLACK
6
CONTINUOUS
10
88.0406
20
-75.671
11
88.1347
21
-75.8339
0
LINE
8
BLACK
6
CONTINUOUS
10
88.1347
20
-75.8339
11
88.1928
21
-76.0129
0
LINE
8
BLACK
6
CONTINUOUS
10
88.1928
20
-76.0129
11
88.2125
21
-76.2
0
LINE
8
BLACK
6
CONTINUOUS
10
88.2125
20
-76.2
11
88.1928
21
-76.3871
0
LINE
8
BLACK
6
CONTINUOUS
10
88.1928
20
-76.3871
11
88.1347
21
-76.5661
0
LINE
8
BLACK
6
CONTINUOUS
10
88.1347
20
-76.5661
11
88.0406
21
-76.729
0
LINE
8
BLACK
6
CONTINUOUS
10
88.0406
20
-76.729
11
87.9147
21
-76.8688
0
LINE
8
BLACK
6
CONTINUOUS
10
87.9147
20
-76.8688
11
87.7625
21
-76.9794
0
LINE
8
BLACK
6
CONTINUOUS
10
87.7625
20
-76.9794
11
87.5906
21
-77.056
0
LINE
8
BLACK
6
CONTINUOUS
10
87.5906
20
-77.056
11
87.4066
21
-77.0951
0
LINE
8
BLACK
6
CONTINUOUS
10
87.4066
20
-77.0951
11
87.2184
21
-77.0951
0
LINE
8
BLACK
6
CONTINUOUS
10
87.2184
20
-77.0951
11
87.0344
21
-77.056
0
LINE
8
BLACK
6
CONTINUOUS
10
87.0344
20
-77.056
11
86.8625
21
-76.9794
0
LINE
8
BLACK
6
CONTINUOUS
10
86.8625
20
-76.9794
11
86.7103
21
-76.8688
0
LINE
8
BLACK
6
CONTINUOUS
10
86.7103
20
-76.8688
11
86.5844
21
-76.729
0
LINE
8
BLACK
6
CONTINUOUS
10
86.5844
20
-76.729
11
86.4903
21
-76.5661
0
LINE
8
BLACK
6
CONTINUOUS
10
86.4903
20
-76.5661
11
86.4322
21
-76.3871
0
LINE
8
BLACK
6
CONTINUOUS
10
86.4322
20
-76.3871
11
86.4125
21
-76.2
0
LINE
8
BLACK
6
CONTINUOUS
10
86.6074
20
-76.2
11
86.6278
21
-76.3688
0
LINE
8
BLACK
6
CONTINUOUS
10
86.6278
20
-76.3688
11
86.6881
21
-76.5277
0
LINE
8
BLACK
6
CONTINUOUS
10
86.6881
20
-76.5277
11
86.7847
21
-76.6676
0
LINE
8
BLACK
6
CONTINUOUS
10
86.7847
20
-76.6676
11
86.9119
21
-76.7803
0
LINE
8
BLACK
6
CONTINUOUS
10
86.9119
20
-76.7803
11
87.0625
21
-76.8593
0
LINE
8
BLACK
6
CONTINUOUS
10
87.0625
20
-76.8593
11
87.2275
21
-76.9
0
LINE
8
BLACK
6
CONTINUOUS
10
87.2275
20
-76.9
11
87.3975
21
-76.9
0
LINE
8
BLACK
6
CONTINUOUS
10
87.3975
20
-76.9
11
87.5625
21
-76.8593
0
LINE
8
BLACK
6
CONTINUOUS
10
87.5625
20
-76.8593
11
87.7131
21
-76.7803
0
LINE
8
BLACK
6
CONTINUOUS
10
87.7131
20
-76.7803
11
87.8403
21
-76.6676
0
LINE
8
BLACK
6
CONTINUOUS
10
87.8403
20
-76.6676
11
87.9369
21
-76.5277
0
LINE
8
BLACK
6
CONTINUOUS
10
87.9369
20
-76.5277
11
87.9972
21
-76.3688
0
LINE
8
BLACK
6
CONTINUOUS
10
87.9972
20
-76.3688
11
88.0176
21
-76.2
0
LINE
8
BLACK
6
CONTINUOUS
10
88.0176
20
-76.2
11
87.9972
21
-76.0312
0
LINE
8
BLACK
6
CONTINUOUS
10
87.9972
20
-76.0312
11
87.9369
21
-75.8723
0
LINE
8
BLACK
6
CONTINUOUS
10
87.9369
20
-75.8723
11
87.8403
21
-75.7324
0
LINE
8
BLACK
6
CONTINUOUS
10
87.8403
20
-75.7324
11
87.7131
21
-75.6197
0
LINE
8
BLACK
6
CONTINUOUS
10
87.7131
20
-75.6197
11
87.5625
21
-75.5407
0
LINE
8
BLACK
6
CONTINUOUS
10
87.5625
20
-75.5407
11
87.3975
21
-75.5
0
LINE
8
BLACK
6
CONTINUOUS
10
87.3975
20
-75.5
11
87.2275
21
-75.5
0
LINE
8
BLACK
6
CONTINUOUS
10
87.2275
20
-75.5
11
87.0625
21
-75.5407
0
LINE
8
BLACK
6
CONTINUOUS
10
87.0625
20
-75.5407
11
86.9119
21
-75.6197
0
LINE
8
BLACK
6
CONTINUOUS
10
86.9119
20
-75.6197
11
86.7847
21
-75.7324
0
LINE
8
BLACK
6
CONTINUOUS
10
86.7847
20
-75.7324
11
86.6881
21
-75.8723
0
LINE
8
BLACK
6
CONTINUOUS
10
86.6881
20
-75.8723
11
86.6278
21
-76.0312
0
LINE
8
BLACK
6
CONTINUOUS
10
86.6278
20
-76.0312
11
86.6074
21
-76.2
0
LINE
8
BLACK
6
CONTINUOUS
10
250.817
20
-50.1076
11
250.817
21
-50.1076
0
LINE
8
BLACK
6
CONTINUOUS
10
250.817
20
-50.1076
11
251.817
21
-51.1076
0
LINE
8
BLACK
6
CONTINUOUS
10
251.817
20
-51.1076
11
251.835
21
-51.15
0
LINE
8
BLACK
6
CONTINUOUS
10
251.835
20
-51.15
11
251.835
21
-63.15
0
LINE
8
BLACK
6
CONTINUOUS
10
251.835
20
-63.15
11
251.817
21
-63.1924
0
LINE
8
BLACK
6
CONTINUOUS
10
251.817
20
-63.1924
11
250.817
21
-64.1924
0
LINE
8
BLACK
6
CONTINUOUS
10
250.817
20
-64.1924
11
250.817
21
-64.1924
0
LINE
8
BLACK
6
CONTINUOUS
10
250.817
20
-64.1924
11
250.775
21
-64.21
0
LINE
8
BLACK
6
CONTINUOUS
10
250.775
20
-64.21
11
238.175
21
-64.21
0
LINE
8
BLACK
6
CONTINUOUS
10
238.175
20
-64.21
11
238.133
21
-64.1924
0
LINE
8
BLACK
6
CONTINUOUS
10
238.133
20
-64.1924
11
237.133
21
-63.1924
0
LINE
8
BLACK
6
CONTINUOUS
10
237.133
20
-63.1924
11
237.133
21
-63.1924
0
LINE
8
BLACK
6
CONTINUOUS
10
237.133
20
-63.1924
11
237.115
21
-63.15
0
LINE
8
BLACK
6
CONTINUOUS
10
237.115
20
-63.15
11
237.115
21
-51.15
0
LINE
8
BLACK
6
CONTINUOUS
10
237.115
20
-51.15
11
237.133
21
-51.1076
0
LINE
8
BLACK
6
CONTINUOUS
10
237.133
20
-51.1076
11
238.133
21
-50.1076
0
LINE
8
BLACK
6
CONTINUOUS
10
238.133
20
-50.1076
11
238.175
21
-50.09
0
LINE
8
BLACK
6
CONTINUOUS
10
238.175
20
-50.09
11
250.775
21
-50.09
0
LINE
8
BLACK
6
CONTINUOUS
10
250.775
20
-50.09
11
250.817
21
-50.1076
0
LINE
8
BLACK
6
CONTINUOUS
10
238.2
20
-50.21
11
237.235
21
-51.1749
0
LINE
8
BLACK
6
CONTINUOUS
10
237.235
20
-51.1749
11
237.235
21
-63.1251
0
LINE
8
BLACK
6
CONTINUOUS
10
237.235
20
-63.1251
11
238.2
21
-64.09
0
LINE
8
BLACK
6
CONTINUOUS
10
238.2
20
-64.09
11
250.75
21
-64.09
0
LINE
8
BLACK
6
CONTINUOUS
10
250.75
20
-64.09
11
251.715
21
-63.1251
0
LINE
8
BLACK
6
CONTINUOUS
10
251.715
20
-63.1251
11
251.715
21
-51.1749
0
LINE
8
BLACK
6
CONTINUOUS
10
251.715
20
-51.1749
11
250.75
21
-50.21
0
LINE
8
BLACK
6
CONTINUOUS
10
250.75
20
-50.21
11
238.2
21
-50.21
0
LINE
8
BLACK
6
CONTINUOUS
10
231.767
20
-50.1076
11
231.767
21
-50.1076
0
LINE
8
BLACK
6
CONTINUOUS
10
231.767
20
-50.1076
11
232.767
21
-51.1076
0
LINE
8
BLACK
6
CONTINUOUS
10
232.767
20
-51.1076
11
232.785
21
-51.15
0
LINE
8
BLACK
6
CONTINUOUS
10
232.785
20
-51.15
11
232.785
21
-63.15
0
LINE
8
BLACK
6
CONTINUOUS
10
232.785
20
-63.15
11
232.767
21
-63.1924
0
LINE
8
BLACK
6
CONTINUOUS
10
232.767
20
-63.1924
11
231.767
21
-64.1924
0
LINE
8
BLACK
6
CONTINUOUS
10
231.767
20
-64.1924
11
231.767
21
-64.1924
0
LINE
8
BLACK
6
CONTINUOUS
10
231.767
20
-64.1924
11
231.725
21
-64.21
0
LINE
8
BLACK
6
CONTINUOUS
10
231.725
20
-64.21
11
219.125
21
-64.21
0
LINE
8
BLACK
6
CONTINUOUS
10
219.125
20
-64.21
11
219.083
21
-64.1924
0
LINE
8
BLACK
6
CONTINUOUS
10
219.083
20
-64.1924
11
218.083
21
-63.1924
0
LINE
8
BLACK
6
CONTINUOUS
10
218.083
20
-63.1924
11
218.083
21
-63.1924
0
LINE
8
BLACK
6
CONTINUOUS
10
218.083
20
-63.1924
11
218.065
21
-63.15
0
LINE
8
BLACK
6
CONTINUOUS
10
218.065
20
-63.15
11
218.065
21
-51.15
0
LINE
8
BLACK
6
CONTINUOUS
10
218.065
20
-51.15
11
218.083
21
-51.1076
0
LINE
8
BLACK
6
CONTINUOUS
10
218.083
20
-51.1076
11
219.083
21
-50.1076
0
LINE
8
BLACK
6
CONTINUOUS
10
219.083
20
-50.1076
11
219.125
21
-50.09
0
LINE
8
BLACK
6
CONTINUOUS
10
219.125
20
-50.09
11
231.725
21
-50.09
0
LINE
8
BLACK
6
CONTINUOUS
10
231.725
20
-50.09
11
231.767
21
-50.1076
0
LINE
8
BLACK
6
CONTINUOUS
10
219.15
20
-50.21
11
218.185
21
-51.1749
0
LINE
8
BLACK
6
CONTINUOUS
10
218.185
20
-51.1749
11
218.185
21
-63.1251
0
LINE
8
BLACK
6
CONTINUOUS
10
218.185
20
-63.1251
11
219.15
21
-64.09
0
LINE
8
BLACK
6
CONTINUOUS
10
219.15
20
-64.09
11
231.7
21
-64.09
0
LINE
8
BLACK
6
CONTINUOUS
10
231.7
20
-64.09
11
232.665
21
-63.1251
0
LINE
8
BLACK
6
CONTINUOUS
10
232.665
20
-63.1251
11
232.665
21
-51.1749
0
LINE
8
BLACK
6
CONTINUOUS
10
232.665
20
-51.1749
11
231.7
21
-50.21
0
LINE
8
BLACK
6
CONTINUOUS
10
231.7
20
-50.21
11
219.15
21
-50.21
0
LINE
8
BLACK
6
CONTINUOUS
10
212.717
20
-50.1076
11
212.717
21
-50.1076
0
LINE
8
BLACK
6
CONTINUOUS
10
212.717
20
-50.1076
11
213.717
21
-51.1076
0
LINE
8
BLACK
6
CONTINUOUS
10
213.717
20
-51.1076
11
213.735
21
-51.15
0
LINE
8
BLACK
6
CONTINUOUS
10
213.735
20
-51.15
11
213.735
21
-63.15
0
LINE
8
BLACK
6
CONTINUOUS
10
213.735
20
-63.15
11
213.717
21
-63.1924
0
LINE
8
BLACK
6
CONTINUOUS
10
213.717
20
-63.1924
11
212.717
21
-64.1924
0
LINE
8
BLACK
6
CONTINUOUS
10
212.717
20
-64.1924
11
212.717
21
-64.1924
0
LINE
8
BLACK
6
CONTINUOUS
10
212.717
20
-64.1924
11
212.675
21
-64.21
0
LINE
8
BLACK
6
CONTINUOUS
10
212.675
20
-64.21
11
200.075
21
-64.21
0
LINE
8
BLACK
6
CONTINUOUS
10
200.075
20
-64.21
11
200.033
21
-64.1924
0
LINE
8
BLACK
6
CONTINUOUS
10
200.033
20
-64.1924
11
199.033
21
-63.1924
0
LINE
8
BLACK
6
CONTINUOUS
10
199.033
20
-63.1924
11
199.033
21
-63.1924
0
LINE
8
BLACK
6
CONTINUOUS
10
199.033
20
-63.1924
11
199.015
21
-63.15
0
LINE
8
BLACK
6
CONTINUOUS
10
199.015
20
-63.15
11
199.015
21
-51.15
0
LINE
8
BLACK
6
CONTINUOUS
10
199.015
20
-51.15
11
199.033
21
-51.1076
0
LINE
8
BLACK
6
CONTINUOUS
10
199.033
20
-51.1076
11
200.033
21
-50.1076
0
LINE
8
BLACK
6
CONTINUOUS
10
200.033
20
-50.1076
11
200.075
21
-50.09
0
LINE
8
BLACK
6
CONTINUOUS
10
200.075
20
-50.09
11
212.675
21
-50.09
0
LINE
8
BLACK
6
CONTINUOUS
10
212.675
20
-50.09
11
212.717
21
-50.1076
0
LINE
8
BLACK
6
CONTINUOUS
10
200.1
20
-50.21
11
199.135
21
-51.1749
0
LINE
8
BLACK
6
CONTINUOUS
10
199.135
20
-51.1749
11
199.135
21
-63.1251
0
LINE
8
BLACK
6
CONTINUOUS
10
199.135
20
-63.1251
11
200.1
21
-64.09
0
LINE
8
BLACK
6
CONTINUOUS
10
200.1
20
-64.09
11
212.65
21
-64.09
0
LINE
8
BLACK
6
CONTINUOUS
10
212.65
20
-64.09
11
213.615
21
-63.1251
0
LINE
8
BLACK
6
CONTINUOUS
10
213.615
20
-63.1251
11
213.615
21
-51.1749
0
LINE
8
BLACK
6
CONTINUOUS
10
213.615
20
-51.1749
11
212.65
21
-50.21
0
LINE
8
BLACK
6
CONTINUOUS
10
212.65
20
-50.21
11
200.1
21
-50.21
0
LINE
8
BLACK
6
CONTINUOUS
10
193.667
20
-50.1076
11
193.667
21
-50.1076
0
LINE
8
BLACK
6
CONTINUOUS
10
193.667
20
-50.1076
11
194.667
21
-51.1076
0
LINE
8
BLACK
6
CONTINUOUS
10
194.667
20
-51.1076
11
194.685
21
-51.15
0
LINE
8
BLACK
6
CONTINUOUS
10
194.685
20
-51.15
11
194.685
21
-63.15
0
LINE
8
BLACK
6
CONTINUOUS
10
194.685
20
-63.15
11
194.667
21
-63.1924
0
LINE
8
BLACK
6
CONTINUOUS
10
194.667
20
-63.1924
11
193.667
21
-64.1924
0
LINE
8
BLACK
6
CONTINUOUS
10
193.667
20
-64.1924
11
193.625
21
-64.21
0
LINE
8
BLACK
6
CONTINUOUS
10
193.625
20
-64.21
11
181.025
21
-64.21
0
LINE
8
BLACK
6
CONTINUOUS
10
181.025
20
-64.21
11
180.983
21
-64.1924
0
LINE
8
BLACK
6
CONTINUOUS
10
180.983
20
-64.1924
11
179.983
21
-63.1924
0
LINE
8
BLACK
6
CONTINUOUS
10
179.983
20
-63.1924
11
179.983
21
-63.1924
0
LINE
8
BLACK
6
CONTINUOUS
10
179.983
20
-63.1924
11
179.965
21
-63.15
0
LINE
8
BLACK
6
CONTINUOUS
10
179.965
20
-63.15
11
179.965
21
-51.15
0
LINE
8
BLACK
6
CONTINUOUS
10
179.965
20
-51.15
11
179.983
21
-51.1076
0
LINE
8
BLACK
6
CONTINUOUS
10
179.983
20
-51.1076
11
180.983
21
-50.1076
0
LINE
8
BLACK
6
CONTINUOUS
10
180.983
20
-50.1076
11
181.025
21
-50.09
0
LINE
8
BLACK
6
CONTINUOUS
10
181.025
20
-50.09
11
193.625
21
-50.09
0
LINE
8
BLACK
6
CONTINUOUS
10
193.625
20
-50.09
11
193.667
21
-50.1076
0
LINE
8
BLACK
6
CONTINUOUS
10
181.05
20
-50.21
11
180.085
21
-51.1749
0
LINE
8
BLACK
6
CONTINUOUS
10
180.085
20
-51.1749
11
180.085
21
-63.1251
0
LINE
8
BLACK
6
CONTINUOUS
10
180.085
20
-63.1251
11
181.05
21
-64.09
0
LINE
8
BLACK
6
CONTINUOUS
10
181.05
20
-64.09
11
193.6
21
-64.09
0
LINE
8
BLACK
6
CONTINUOUS
10
193.6
20
-64.09
11
194.565
21
-63.1251
0
LINE
8
BLACK
6
CONTINUOUS
10
194.565
20
-63.1251
11
194.565
21
-51.1749
0
LINE
8
BLACK
6
CONTINUOUS
10
194.565
20
-51.1749
11
193.6
21
-50.21
0
LINE
8
BLACK
6
CONTINUOUS
10
193.6
20
-50.21
11
181.05
21
-50.21
0
LINE
8
BLACK
6
CONTINUOUS
10
174.617
20
-50.1076
11
174.617
21
-50.1076
0
LINE
8
BLACK
6
CONTINUOUS
10
174.617
20
-50.1076
11
175.617
21
-51.1076
0
LINE
8
BLACK
6
CONTINUOUS
10
175.617
20
-51.1076
11
175.635
21
-51.15
0
LINE
8
BLACK
6
CONTINUOUS
10
175.635
20
-51.15
11
175.635
21
-63.15
0
LINE
8
BLACK
6
CONTINUOUS
10
175.635
20
-63.15
11
175.617
21
-63.1924
0
LINE
8
BLACK
6
CONTINUOUS
10
175.617
20
-63.1924
11
174.617
21
-64.1924
0
LINE
8
BLACK
6
CONTINUOUS
10
174.617
20
-64.1924
11
174.575
21
-64.21
0
LINE
8
BLACK
6
CONTINUOUS
10
174.575
20
-64.21
11
161.975
21
-64.21
0
LINE
8
BLACK
6
CONTINUOUS
10
161.975
20
-64.21
11
161.933
21
-64.1924
0
LINE
8
BLACK
6
CONTINUOUS
10
161.933
20
-64.1924
11
160.933
21
-63.1924
0
LINE
8
BLACK
6
CONTINUOUS
10
160.933
20
-63.1924
11
160.933
21
-63.1924
0
LINE
8
BLACK
6
CONTINUOUS
10
160.933
20
-63.1924
11
160.915
21
-63.15
0
LINE
8
BLACK
6
CONTINUOUS
10
160.915
20
-63.15
11
160.915
21
-51.15
0
LINE
8
BLACK
6
CONTINUOUS
10
160.915
20
-51.15
11
160.933
21
-51.1076
0
LINE
8
BLACK
6
CONTINUOUS
10
160.933
20
-51.1076
11
161.933
21
-50.1076
0
LINE
8
BLACK
6
CONTINUOUS
10
161.933
20
-50.1076
11
161.975
21
-50.09
0
LINE
8
BLACK
6
CONTINUOUS
10
161.975
20
-50.09
11
174.575
21
-50.09
0
LINE
8
BLACK
6
CONTINUOUS
10
174.575
20
-50.09
11
174.617
21
-50.1076
0
LINE
8
BLACK
6
CONTINUOUS
10
162
20
-50.21
11
161.035
21
-51.1749
0
LINE
8
BLACK
6
CONTINUOUS
10
161.035
20
-51.1749
11
161.035
21
-63.1251
0
LINE
8
BLACK
6
CONTINUOUS
10
161.035
20
-63.1251
11
162
21
-64.09
0
LINE
8
BLACK
6
CONTINUOUS
10
162
20
-64.09
11
174.55
21
-64.09
0
LINE
8
BLACK
6
CONTINUOUS
10
174.55
20
-64.09
11
175.515
21
-63.1251
0
LINE
8
BLACK
6
CONTINUOUS
10
175.515
20
-63.1251
11
175.515
21
-51.1749
0
LINE
8
BLACK
6
CONTINUOUS
10
175.515
20
-51.1749
11
174.55
21
-50.21
0
LINE
8
BLACK
6
CONTINUOUS
10
174.55
20
-50.21
11
162
21
-50.21
0
LINE
8
BLACK
6
CONTINUOUS
10
155.567
20
-50.1076
11
155.567
21
-50.1076
0
LINE
8
BLACK
6
CONTINUOUS
10
155.567
20
-50.1076
11
156.567
21
-51.1076
0
LINE
8
BLACK
6
CONTINUOUS
10
156.567
20
-51.1076
11
156.585
21
-51.15
0
LINE
8
BLACK
6
CONTINUOUS
10
156.585
20
-51.15
11
156.585
21
-63.15
0
LINE
8
BLACK
6
CONTINUOUS
10
156.585
20
-63.15
11
156.567
21
-63.1924
0
LINE
8
BLACK
6
CONTINUOUS
10
156.567
20
-63.1924
11
155.567
21
-64.1924
0
LINE
8
BLACK
6
CONTINUOUS
10
155.567
20
-64.1924
11
155.525
21
-64.21
0
LINE
8
BLACK
6
CONTINUOUS
10
155.525
20
-64.21
11
142.925
21
-64.21
0
LINE
8
BLACK
6
CONTINUOUS
10
142.925
20
-64.21
11
142.883
21
-64.1924
0
LINE
8
BLACK
6
CONTINUOUS
10
142.883
20
-64.1924
11
141.883
21
-63.1924
0
LINE
8
BLACK
6
CONTINUOUS
10
141.883
20
-63.1924
11
141.883
21
-63.1924
0
LINE
8
BLACK
6
CONTINUOUS
10
141.883
20
-63.1924
11
141.865
21
-63.15
0
LINE
8
BLACK
6
CONTINUOUS
10
141.865
20
-63.15
11
141.865
21
-51.15
0
LINE
8
BLACK
6
CONTINUOUS
10
141.865
20
-51.15
11
141.883
21
-51.1076
0
LINE
8
BLACK
6
CONTINUOUS
10
141.883
20
-51.1076
11
142.883
21
-50.1076
0
LINE
8
BLACK
6
CONTINUOUS
10
142.883
20
-50.1076
11
142.925
21
-50.09
0
LINE
8
BLACK
6
CONTINUOUS
10
142.925
20
-50.09
11
155.525
21
-50.09
0
LINE
8
BLACK
6
CONTINUOUS
10
155.525
20
-50.09
11
155.567
21
-50.1076
0
LINE
8
BLACK
6
CONTINUOUS
10
142.95
20
-50.21
11
141.985
21
-51.1749
0
LINE
8
BLACK
6
CONTINUOUS
10
141.985
20
-51.1749
11
141.985
21
-63.1251
0
LINE
8
BLACK
6
CONTINUOUS
10
141.985
20
-63.1251
11
142.95
21
-64.09
0
LINE
8
BLACK
6
CONTINUOUS
10
142.95
20
-64.09
11
155.5
21
-64.09
0
LINE
8
BLACK
6
CONTINUOUS
10
155.5
20
-64.09
11
156.465
21
-63.1251
0
LINE
8
BLACK
6
CONTINUOUS
10
156.465
20
-63.1251
11
156.465
21
-51.1749
0
LINE
8
BLACK
6
CONTINUOUS
10
156.465
20
-51.1749
11
155.5
21
-50.21
0
LINE
8
BLACK
6
CONTINUOUS
10
155.5
20
-50.21
11
142.95
21
-50.21
0
LINE
8
BLACK
6
CONTINUOUS
10
136.517
20
-50.1076
11
136.517
21
-50.1076
0
LINE
8
BLACK
6
CONTINUOUS
10
136.517
20
-50.1076
11
137.517
21
-51.1076
0
LINE
8
BLACK
6
CONTINUOUS
10
137.517
20
-51.1076
11
137.535
21
-51.15
0
LINE
8
BLACK
6
CONTINUOUS
10
137.535
20
-51.15
11
137.535
21
-63.15
0
LINE
8
BLACK
6
CONTINUOUS
10
137.535
20
-63.15
11
137.517
21
-63.1924
0
LINE
8
BLACK
6
CONTINUOUS
10
137.517
20
-63.1924
11
136.517
21
-64.1924
0
LINE
8
BLACK
6
CONTINUOUS
10
136.517
20
-64.1924
11
136.475
21
-64.21
0
LINE
8
BLACK
6
CONTINUOUS
10
136.475
20
-64.21
11
123.875
21
-64.21
0
LINE
8
BLACK
6
CONTINUOUS
10
123.875
20
-64.21
11
123.833
21
-64.1924
0
LINE
8
BLACK
6
CONTINUOUS
10
123.833
20
-64.1924
11
122.833
21
-63.1924
0
LINE
8
BLACK
6
CONTINUOUS
10
122.833
20
-63.1924
11
122.833
21
-63.1924
0
LINE
8
BLACK
6
CONTINUOUS
10
122.833
20
-63.1924
11
122.815
21
-63.15
0
LINE
8
BLACK
6
CONTINUOUS
10
122.815
20
-63.15
11
122.815
21
-51.15
0
LINE
8
BLACK
6
CONTINUOUS
10
122.815
20
-51.15
11
122.833
21
-51.1076
0
LINE
8
BLACK
6
CONTINUOUS
10
122.833
20
-51.1076
11
122.833
21
-51.1076
0
LINE
8
BLACK
6
CONTINUOUS
10
122.833
20
-51.1076
11
123.833
21
-50.1076
0
LINE
8
BLACK
6
CONTINUOUS
10
123.833
20
-50.1076
11
123.875
21
-50.09
0
LINE
8
BLACK
6
CONTINUOUS
10
123.875
20
-50.09
11
136.475
21
-50.09
0
LINE
8
BLACK
6
CONTINUOUS
10
136.475
20
-50.09
11
136.517
21
-50.1076
0
LINE
8
BLACK
6
CONTINUOUS
10
123.9
20
-50.21
11
122.935
21
-51.1749
0
LINE
8
BLACK
6
CONTINUOUS
10
122.935
20
-51.1749
11
122.935
21
-63.1251
0
LINE
8
BLACK
6
CONTINUOUS
10
122.935
20
-63.1251
11
123.9
21
-64.09
0
LINE
8
BLACK
6
CONTINUOUS
10
123.9
20
-64.09
11
136.45
21
-64.09
0
LINE
8
BLACK
6
CONTINUOUS
10
136.45
20
-64.09
11
137.415
21
-63.1251
0
LINE
8
BLACK
6
CONTINUOUS
10
137.415
20
-63.1251
11
137.415
21
-51.1749
0
LINE
8
BLACK
6
CONTINUOUS
10
137.415
20
-51.1749
11
136.45
21
-50.21
0
LINE
8
BLACK
6
CONTINUOUS
10
136.45
20
-50.21
11
123.9
21
-50.21
0
LINE
8
BLACK
6
CONTINUOUS
10
117.467
20
-50.1076
11
117.467
21
-50.1076
0
LINE
8
BLACK
6
CONTINUOUS
10
117.467
20
-50.1076
11
118.467
21
-51.1076
0
LINE
8
BLACK
6
CONTINUOUS
10
118.467
20
-51.1076
11
118.485
21
-51.15
0
LINE
8
BLACK
6
CONTINUOUS
10
118.485
20
-51.15
11
118.485
21
-63.15
0
LINE
8
BLACK
6
CONTINUOUS
10
118.485
20
-63.15
11
118.467
21
-63.1924
0
LINE
8
BLACK
6
CONTINUOUS
10
118.467
20
-63.1924
11
117.467
21
-64.1924
0
LINE
8
BLACK
6
CONTINUOUS
10
117.467
20
-64.1924
11
117.467
21
-64.1924
0
LINE
8
BLACK
6
CONTINUOUS
10
117.467
20
-64.1924
11
117.425
21
-64.21
0
LINE
8
BLACK
6
CONTINUOUS
10
117.425
20
-64.21
11
104.825
21
-64.21
0
LINE
8
BLACK
6
CONTINUOUS
10
104.825
20
-64.21
11
104.783
21
-64.1924
0
LINE
8
BLACK
6
CONTINUOUS
10
104.783
20
-64.1924
11
103.783
21
-63.1924
0
LINE
8
BLACK
6
CONTINUOUS
10
103.783
20
-63.1924
11
103.783
21
-63.1924
0
LINE
8
BLACK
6
CONTINUOUS
10
103.783
20
-63.1924
11
103.765
21
-63.15
0
LINE
8
BLACK
6
CONTINUOUS
10
103.765
20
-63.15
11
103.765
21
-51.15
0
LINE
8
BLACK
6
CONTINUOUS
10
103.765
20
-51.15
11
103.783
21
-51.1076
0
LINE
8
BLACK
6
CONTINUOUS
10
103.783
20
-51.1076
11
103.783
21
-51.1076
0
LINE
8
BLACK
6
CONTINUOUS
10
103.783
20
-51.1076
11
104.783
21
-50.1076
0
LINE
8
BLACK
6
CONTINUOUS
10
104.783
20
-50.1076
11
104.825
21
-50.09
0
LINE
8
BLACK
6
CONTINUOUS
10
104.825
20
-50.09
11
117.425
21
-50.09
0
LINE
8
BLACK
6
CONTINUOUS
10
117.425
20
-50.09
11
117.467
21
-50.1076
0
LINE
8
BLACK
6
CONTINUOUS
10
104.85
20
-50.21
11
103.885
21
-51.1749
0
LINE
8
BLACK
6
CONTINUOUS
10
103.885
20
-51.1749
11
103.885
21
-63.1251
0
LINE
8
BLACK
6
CONTINUOUS
10
103.885
20
-63.1251
11
104.85
21
-64.09
0
LINE
8
BLACK
6
CONTINUOUS
10
104.85
20
-64.09
11
117.4
21
-64.09
0
LINE
8
BLACK
6
CONTINUOUS
10
117.4
20
-64.09
11
118.365
21
-63.1251
0
LINE
8
BLACK
6
CONTINUOUS
10
118.365
20
-63.1251
11
118.365
21
-51.1749
0
LINE
8
BLACK
6
CONTINUOUS
10
118.365
20
-51.1749
11
117.4
21
-50.21
0
LINE
8
BLACK
6
CONTINUOUS
10
117.4
20
-50.21
11
104.85
21
-50.21
0
LINE
8
BLACK
6
CONTINUOUS
10
98.4174
20
-50.1076
11
98.4174
21
-50.1076
0
LINE
8
BLACK
6
CONTINUOUS
10
98.4174
20
-50.1076
11
99.4174
21
-51.1076
0
LINE
8
BLACK
6
CONTINUOUS
10
99.4174
20
-51.1076
11
99.435
21
-51.15
0
LINE
8
BLACK
6
CONTINUOUS
10
99.435
20
-51.15
11
99.435
21
-63.15
0
LINE
8
BLACK
6
CONTINUOUS
10
99.435
20
-63.15
11
99.4174
21
-63.1924
0
LINE
8
BLACK
6
CONTINUOUS
10
99.4174
20
-63.1924
11
98.4174
21
-64.1924
0
LINE
8
BLACK
6
CONTINUOUS
10
98.4174
20
-64.1924
11
98.4174
21
-64.1924
0
LINE
8
BLACK
6
CONTINUOUS
10
98.4174
20
-64.1924
11
98.375
21
-64.21
0
LINE
8
BLACK
6
CONTINUOUS
10
98.375
20
-64.21
11
85.775
21
-64.21
0
LINE
8
BLACK
6
CONTINUOUS
10
85.775
20
-64.21
11
85.7326
21
-64.1924
0
LINE
8
BLACK
6
CONTINUOUS
10
85.7326
20
-64.1924
11
84.7326
21
-63.1924
0
LINE
8
BLACK
6
CONTINUOUS
10
84.7326
20
-63.1924
11
84.715
21
-63.15
0
LINE
8
BLACK
6
CONTINUOUS
10
84.715
20
-63.15
11
84.715
21
-51.15
0
LINE
8
BLACK
6
CONTINUOUS
10
84.715
20
-51.15
11
84.7326
21
-51.1076
0
LINE
8
BLACK
6
CONTINUOUS
10
84.7326
20
-51.1076
11
84.7326
21
-51.1076
0
LINE
8
BLACK
6
CONTINUOUS
10
84.7326
20
-51.1076
11
85.7326
21
-50.1076
0
LINE
8
BLACK
6
CONTINUOUS
10
85.7326
20
-50.1076
11
85.775
21
-50.09
0
LINE
8
BLACK
6
CONTINUOUS
10
85.775
20
-50.09
11
98.375
21
-50.09
0
LINE
8
BLACK
6
CONTINUOUS
10
98.375
20
-50.09
11
98.4174
21
-50.1076
0
LINE
8
BLACK
6
CONTINUOUS
10
85.7999
20
-50.21
11
84.835
21
-51.1749
0
LINE
8
BLACK
6
CONTINUOUS
10
84.835
20
-51.1749
11
84.835
21
-63.1251
0
LINE
8
BLACK
6
CONTINUOUS
10
84.835
20
-63.1251
11
85.7999
21
-64.09
0
LINE
8
BLACK
6
CONTINUOUS
10
85.7999
20
-64.09
11
98.3501
21
-64.09
0
LINE
8
BLACK
6
CONTINUOUS
10
98.3501
20
-64.09
11
99.315
21
-63.1251
0
LINE
8
BLACK
6
CONTINUOUS
10
99.315
20
-63.1251
11
99.315
21
-51.1749
0
LINE
8
BLACK
6
CONTINUOUS
10
99.315
20
-51.1749
11
98.3501
21
-50.21
0
LINE
8
BLACK
6
CONTINUOUS
10
98.3501
20
-50.21
11
85.7999
21
-50.21
0
LINE
8
BLACK
6
CONTINUOUS
10
79.3674
20
-50.1076
11
79.3674
21
-50.1076
0
LINE
8
BLACK
6
CONTINUOUS
10
79.3674
20
-50.1076
11
80.3674
21
-51.1076
0
LINE
8
BLACK
6
CONTINUOUS
10
80.3674
20
-51.1076
11
80.385
21
-51.15
0
LINE
8
BLACK
6
CONTINUOUS
10
80.385
20
-51.15
11
80.385
21
-51.15
0
LINE
8
BLACK
6
CONTINUOUS
10
80.385
20
-51.15
11
80.385
21
-63.15
0
LINE
8
BLACK
6
CONTINUOUS
10
80.385
20
-63.15
11
80.3674
21
-63.1924
0
LINE
8
BLACK
6
CONTINUOUS
10
80.3674
20
-63.1924
11
79.3674
21
-64.1924
0
LINE
8
BLACK
6
CONTINUOUS
10
79.3674
20
-64.1924
11
79.3674
21
-64.1924
0
LINE
8
BLACK
6
CONTINUOUS
10
79.3674
20
-64.1924
11
79.325
21
-64.21
0
LINE
8
BLACK
6
CONTINUOUS
10
79.325
20
-64.21
11
66.725
21
-64.21
0
LINE
8
BLACK
6
CONTINUOUS
10
66.725
20
-64.21
11
66.6826
21
-64.1924
0
LINE
8
BLACK
6
CONTINUOUS
10
66.6826
20
-64.1924
11
65.6826
21
-63.1924
0
LINE
8
BLACK
6
CONTINUOUS
10
65.6826
20
-63.1924
11
65.665
21
-63.15
0
LINE
8
BLACK
6
CONTINUOUS
10
65.665
20
-63.15
11
65.665
21
-51.15
0
LINE
8
BLACK
6
CONTINUOUS
10
65.665
20
-51.15
11
65.6826
21
-51.1076
0
LINE
8
BLACK
6
CONTINUOUS
10
65.6826
20
-51.1076
11
65.6826
21
-51.1076
0
LINE
8
BLACK
6
CONTINUOUS
10
65.6826
20
-51.1076
11
66.6826
21
-50.1076
0
LINE
8
BLACK
6
CONTINUOUS
10
66.6826
20
-50.1076
11
66.725
21
-50.09
0
LINE
8
BLACK
6
CONTINUOUS
10
66.725
20
-50.09
11
79.325
21
-50.09
0
LINE
8
BLACK
6
CONTINUOUS
10
79.325
20
-50.09
11
79.3674
21
-50.1076
0
LINE
8
BLACK
6
CONTINUOUS
10
66.7499
20
-50.21
11
65.785
21
-51.1749
0
LINE
8
BLACK
6
CONTINUOUS
10
65.785
20
-51.1749
11
65.785
21
-63.1251
0
LINE
8
BLACK
6
CONTINUOUS
10
65.785
20
-63.1251
11
66.7499
21
-64.09
0
LINE
8
BLACK
6
CONTINUOUS
10
66.7499
20
-64.09
11
79.3001
21
-64.09
0
LINE
8
BLACK
6
CONTINUOUS
10
79.3001
20
-64.09
11
80.265
21
-63.1251
0
LINE
8
BLACK
6
CONTINUOUS
10
80.265
20
-63.1251
11
80.265
21
-51.1749
0
LINE
8
BLACK
6
CONTINUOUS
10
80.265
20
-51.1749
11
79.3001
21
-50.21
0
LINE
8
BLACK
6
CONTINUOUS
10
79.3001
20
-50.21
11
66.7499
21
-50.21
0
LINE
8
BLACK
6
CONTINUOUS
10
60.3174
20
-50.1076
11
60.3174
21
-50.1076
0
LINE
8
BLACK
6
CONTINUOUS
10
60.3174
20
-50.1076
11
61.3174
21
-51.1076
0
LINE
8
BLACK
6
CONTINUOUS
10
61.3174
20
-51.1076
11
61.335
21
-51.15
0
LINE
8
BLACK
6
CONTINUOUS
10
61.335
20
-51.15
11
61.335
21
-51.15
0
LINE
8
BLACK
6
CONTINUOUS
10
61.335
20
-51.15
11
61.335
21
-63.15
0
LINE
8
BLACK
6
CONTINUOUS
10
61.335
20
-63.15
11
61.3174
21
-63.1924
0
LINE
8
BLACK
6
CONTINUOUS
10
61.3174
20
-63.1924
11
60.3174
21
-64.1924
0
LINE
8
BLACK
6
CONTINUOUS
10
60.3174
20
-64.1924
11
60.3174
21
-64.1924
0
LINE
8
BLACK
6
CONTINUOUS
10
60.3174
20
-64.1924
11
60.275
21
-64.21
0
LINE
8
BLACK
6
CONTINUOUS
10
60.275
20
-64.21
11
47.675
21
-64.21
0
LINE
8
BLACK
6
CONTINUOUS
10
47.675
20
-64.21
11
47.6326
21
-64.1924
0
LINE
8
BLACK
6
CONTINUOUS
10
47.6326
20
-64.1924
11
46.6326
21
-63.1924
0
LINE
8
BLACK
6
CONTINUOUS
10
46.6326
20
-63.1924
11
46.615
21
-63.15
0
LINE
8
BLACK
6
CONTINUOUS
10
46.615
20
-63.15
11
46.615
21
-51.15
0
LINE
8
BLACK
6
CONTINUOUS
10
46.615
20
-51.15
11
46.6326
21
-51.1076
0
LINE
8
BLACK
6
CONTINUOUS
10
46.6326
20
-51.1076
11
46.6326
21
-51.1076
0
LINE
8
BLACK
6
CONTINUOUS
10
46.6326
20
-51.1076
11
47.6326
21
-50.1076
0
LINE
8
BLACK
6
CONTINUOUS
10
47.6326
20
-50.1076
11
47.675
21
-50.09
0
LINE
8
BLACK
6
CONTINUOUS
10
47.675
20
-50.09
11
60.275
21
-50.09
0
LINE
8
BLACK
6
CONTINUOUS
10
60.275
20
-50.09
11
60.3174
21
-50.1076
0
LINE
8
BLACK
6
CONTINUOUS
10
47.6999
20
-50.21
11
46.735
21
-51.1749
0
LINE
8
BLACK
6
CONTINUOUS
10
46.735
20
-51.1749
11
46.735
21
-63.1251
0
LINE
8
BLACK
6
CONTINUOUS
10
46.735
20
-63.1251
11
47.6999
21
-64.09
0
LINE
8
BLACK
6
CONTINUOUS
10
47.6999
20
-64.09
11
60.2501
21
-64.09
0
LINE
8
BLACK
6
CONTINUOUS
10
60.2501
20
-64.09
11
61.215
21
-63.1251
0
LINE
8
BLACK
6
CONTINUOUS
10
61.215
20
-63.1251
11
61.215
21
-51.1749
0
LINE
8
BLACK
6
CONTINUOUS
10
61.215
20
-51.1749
11
60.2501
21
-50.21
0
LINE
8
BLACK
6
CONTINUOUS
10
60.2501
20
-50.21
11
47.6999
21
-50.21
0
LINE
8
BLACK
6
CONTINUOUS
10
234.05
20
-57.15
11
234.07
21
-56.9629
0
LINE
8
BLACK
6
CONTINUOUS
10
234.07
20
-56.9629
11
234.128
21
-56.7839
0
LINE
8
BLACK
6
CONTINUOUS
10
234.128
20
-56.7839
11
234.222
21
-56.621
0
LINE
8
BLACK
6
CONTINUOUS
10
234.222
20
-56.621
11
234.348
21
-56.4812
0
LINE
8
BLACK
6
CONTINUOUS
10
234.348
20
-56.4812
11
234.5
21
-56.3706
0
LINE
8
BLACK
6
CONTINUOUS
10
234.5
20
-56.3706
11
234.672
21
-56.294
0
LINE
8
BLACK
6
CONTINUOUS
10
234.672
20
-56.294
11
234.856
21
-56.2549
0
LINE
8
BLACK
6
CONTINUOUS
10
234.856
20
-56.2549
11
235.044
21
-56.2549
0
LINE
8
BLACK
6
CONTINUOUS
10
235.044
20
-56.2549
11
235.228
21
-56.294
0
LINE
8
BLACK
6
CONTINUOUS
10
235.228
20
-56.294
11
235.4
21
-56.3706
0
LINE
8
BLACK
6
CONTINUOUS
10
235.4
20
-56.3706
11
235.552
21
-56.4812
0
LINE
8
BLACK
6
CONTINUOUS
10
235.552
20
-56.4812
11
235.678
21
-56.621
0
LINE
8
BLACK
6
CONTINUOUS
10
235.678
20
-56.621
11
235.772
21
-56.7839
0
LINE
8
BLACK
6
CONTINUOUS
10
235.772
20
-56.7839
11
235.83
21
-56.9629
0
LINE
8
BLACK
6
CONTINUOUS
10
235.83
20
-56.9629
11
235.85
21
-57.15
0
LINE
8
BLACK
6
CONTINUOUS
10
235.85
20
-57.15
11
235.83
21
-57.3371
0
LINE
8
BLACK
6
CONTINUOUS
10
235.83
20
-57.3371
11
235.772
21
-57.5161
0
LINE
8
BLACK
6
CONTINUOUS
10
235.772
20
-57.5161
11
235.678
21
-57.679
0
LINE
8
BLACK
6
CONTINUOUS
10
235.678
20
-57.679
11
235.552
21
-57.8188
0
LINE
8
BLACK
6
CONTINUOUS
10
235.552
20
-57.8188
11
235.4
21
-57.9294
0
LINE
8
BLACK
6
CONTINUOUS
10
235.4
20
-57.9294
11
235.228
21
-58.006
0
LINE
8
BLACK
6
CONTINUOUS
10
235.228
20
-58.006
11
235.044
21
-58.0451
0
LINE
8
BLACK
6
CONTINUOUS
10
235.044
20
-58.0451
11
234.856
21
-58.0451
0
LINE
8
BLACK
6
CONTINUOUS
10
234.856
20
-58.0451
11
234.672
21
-58.006
0
LINE
8
BLACK
6
CONTINUOUS
10
234.672
20
-58.006
11
234.5
21
-57.9294
0
LINE
8
BLACK
6
CONTINUOUS
10
234.5
20
-57.9294
11
234.348
21
-57.8188
0
LINE
8
BLACK
6
CONTINUOUS
10
234.348
20
-57.8188
11
234.222
21
-57.679
0
LINE
8
BLACK
6
CONTINUOUS
10
234.222
20
-57.679
11
234.128
21
-57.5161
0
LINE
8
BLACK
6
CONTINUOUS
10
234.128
20
-57.5161
11
234.07
21
-57.3371
0
LINE
8
BLACK
6
CONTINUOUS
10
234.07
20
-57.3371
11
234.05
21
-57.15
0
LINE
8
BLACK
6
CONTINUOUS
10
234.245
20
-57.15
11
234.265
21
-57.3188
0
LINE
8
BLACK
6
CONTINUOUS
10
234.265
20
-57.3188
11
234.326
21
-57.4777
0
LINE
8
BLACK
6
CONTINUOUS
10
234.326
20
-57.4777
11
234.422
21
-57.6176
0
LINE
8
BLACK
6
CONTINUOUS
10
234.422
20
-57.6176
11
234.549
21
-57.7303
0
LINE
8
BLACK
6
CONTINUOUS
10
234.549
20
-57.7303
11
234.7
21
-57.8093
0
LINE
8
BLACK
6
CONTINUOUS
10
234.7
20
-57.8093
11
234.865
21
-57.85
0
LINE
8
BLACK
6
CONTINUOUS
10
234.865
20
-57.85
11
235.035
21
-57.85
0
LINE
8
BLACK
6
CONTINUOUS
10
235.035
20
-57.85
11
235.2
21
-57.8093
0
LINE
8
BLACK
6
CONTINUOUS
10
235.2
20
-57.8093
11
235.351
21
-57.7303
0
LINE
8
BLACK
6
CONTINUOUS
10
235.351
20
-57.7303
11
235.478
21
-57.6176
0
LINE
8
BLACK
6
CONTINUOUS
10
235.478
20
-57.6176
11
235.574
21
-57.4777
0
LINE
8
BLACK
6
CONTINUOUS
10
235.574
20
-57.4777
11
235.635
21
-57.3188
0
LINE
8
BLACK
6
CONTINUOUS
10
235.635
20
-57.3188
11
235.655
21
-57.15
0
LINE
8
BLACK
6
CONTINUOUS
10
235.655
20
-57.15
11
235.635
21
-56.9812
0
LINE
8
BLACK
6
CONTINUOUS
10
235.635
20
-56.9812
11
235.574
21
-56.8223
0
LINE
8
BLACK
6
CONTINUOUS
10
235.574
20
-56.8223
11
235.478
21
-56.6824
0
LINE
8
BLACK
6
CONTINUOUS
10
235.478
20
-56.6824
11
235.351
21
-56.5697
0
LINE
8
BLACK
6
CONTINUOUS
10
235.351
20
-56.5697
11
235.2
21
-56.4907
0
LINE
8
BLACK
6
CONTINUOUS
10
235.2
20
-56.4907
11
235.035
21
-56.45
0
LINE
8
BLACK
6
CONTINUOUS
10
235.035
20
-56.45
11
234.865
21
-56.45
0
LINE
8
BLACK
6
CONTINUOUS
10
234.865
20
-56.45
11
234.7
21
-56.4907
0
LINE
8
BLACK
6
CONTINUOUS
10
234.7
20
-56.4907
11
234.549
21
-56.5697
0
LINE
8
BLACK
6
CONTINUOUS
10
234.549
20
-56.5697
11
234.422
21
-56.6824
0
LINE
8
BLACK
6
CONTINUOUS
10
234.422
20
-56.6824
11
234.326
21
-56.8223
0
LINE
8
BLACK
6
CONTINUOUS
10
234.326
20
-56.8223
11
234.265
21
-56.9812
0
LINE
8
BLACK
6
CONTINUOUS
10
234.265
20
-56.9812
11
234.245
21
-57.15
0
LINE
8
BLACK
6
CONTINUOUS
10
176.9
20
-57.15
11
176.92
21
-56.9629
0
LINE
8
BLACK
6
CONTINUOUS
10
176.92
20
-56.9629
11
176.978
21
-56.7839
0
LINE
8
BLACK
6
CONTINUOUS
10
176.978
20
-56.7839
11
177.072
21
-56.621
0
LINE
8
BLACK
6
CONTINUOUS
10
177.072
20
-56.621
11
177.198
21
-56.4812
0
LINE
8
BLACK
6
CONTINUOUS
10
177.198
20
-56.4812
11
177.35
21
-56.3706
0
LINE
8
BLACK
6
CONTINUOUS
10
177.35
20
-56.3706
11
177.522
21
-56.294
0
LINE
8
BLACK
6
CONTINUOUS
10
177.522
20
-56.294
11
177.706
21
-56.2549
0
LINE
8
BLACK
6
CONTINUOUS
10
177.706
20
-56.2549
11
177.894
21
-56.2549
0
LINE
8
BLACK
6
CONTINUOUS
10
177.894
20
-56.2549
11
178.078
21
-56.294
0
LINE
8
BLACK
6
CONTINUOUS
10
178.078
20
-56.294
11
178.25
21
-56.3706
0
LINE
8
BLACK
6
CONTINUOUS
10
178.25
20
-56.3706
11
178.402
21
-56.4812
0
LINE
8
BLACK
6
CONTINUOUS
10
178.402
20
-56.4812
11
178.528
21
-56.621
0
LINE
8
BLACK
6
CONTINUOUS
10
178.528
20
-56.621
11
178.622
21
-56.7839
0
LINE
8
BLACK
6
CONTINUOUS
10
178.622
20
-56.7839
11
178.68
21
-56.9629
0
LINE
8
BLACK
6
CONTINUOUS
10
178.68
20
-56.9629
11
178.7
21
-57.15
0
LINE
8
BLACK
6
CONTINUOUS
10
178.7
20
-57.15
11
178.68
21
-57.3371
0
LINE
8
BLACK
6
CONTINUOUS
10
178.68
20
-57.3371
11
178.622
21
-57.5161
0
LINE
8
BLACK
6
CONTINUOUS
10
178.622
20
-57.5161
11
178.528
21
-57.679
0
LINE
8
BLACK
6
CONTINUOUS
10
178.528
20
-57.679
11
178.402
21
-57.8188
0
LINE
8
BLACK
6
CONTINUOUS
10
178.402
20
-57.8188
11
178.25
21
-57.9294
0
LINE
8
BLACK
6
CONTINUOUS
10
178.25
20
-57.9294
11
178.078
21
-58.006
0
LINE
8
BLACK
6
CONTINUOUS
10
178.078
20
-58.006
11
177.894
21
-58.0451
0
LINE
8
BLACK
6
CONTINUOUS
10
177.894
20
-58.0451
11
177.706
21
-58.0451
0
LINE
8
BLACK
6
CONTINUOUS
10
177.706
20
-58.0451
11
177.522
21
-58.006
0
LINE
8
BLACK
6
CONTINUOUS
10
177.522
20
-58.006
11
177.35
21
-57.9294
0
LINE
8
BLACK
6
CONTINUOUS
10
177.35
20
-57.9294
11
177.198
21
-57.8188
0
LINE
8
BLACK
6
CONTINUOUS
10
177.198
20
-57.8188
11
177.072
21
-57.679
0
LINE
8
BLACK
6
CONTINUOUS
10
177.072
20
-57.679
11
176.978
21
-57.5161
0
LINE
8
BLACK
6
CONTINUOUS
10
176.978
20
-57.5161
11
176.92
21
-57.3371
0
LINE
8
BLACK
6
CONTINUOUS
10
176.92
20
-57.3371
11
176.9
21
-57.15
0
LINE
8
BLACK
6
CONTINUOUS
10
177.095
20
-57.15
11
177.115
21
-57.3188
0
LINE
8
BLACK
6
CONTINUOUS
10
177.115
20
-57.3188
11
177.176
21
-57.4777
0
LINE
8
BLACK
6
CONTINUOUS
10
177.176
20
-57.4777
11
177.272
21
-57.6176
0
LINE
8
BLACK
6
CONTINUOUS
10
177.272
20
-57.6176
11
177.399
21
-57.7303
0
LINE
8
BLACK
6
CONTINUOUS
10
177.399
20
-57.7303
11
177.55
21
-57.8093
0
LINE
8
BLACK
6
CONTINUOUS
10
177.55
20
-57.8093
11
177.715
21
-57.85
0
LINE
8
BLACK
6
CONTINUOUS
10
177.715
20
-57.85
11
177.885
21
-57.85
0
LINE
8
BLACK
6
CONTINUOUS
10
177.885
20
-57.85
11
178.05
21
-57.8093
0
LINE
8
BLACK
6
CONTINUOUS
10
178.05
20
-57.8093
11
178.201
21
-57.7303
0
LINE
8
BLACK
6
CONTINUOUS
10
178.201
20
-57.7303
11
178.328
21
-57.6176
0
LINE
8
BLACK
6
CONTINUOUS
10
178.328
20
-57.6176
11
178.424
21
-57.4777
0
LINE
8
BLACK
6
CONTINUOUS
10
178.424
20
-57.4777
11
178.485
21
-57.3188
0
LINE
8
BLACK
6
CONTINUOUS
10
178.485
20
-57.3188
11
178.505
21
-57.15
0
LINE
8
BLACK
6
CONTINUOUS
10
178.505
20
-57.15
11
178.485
21
-56.9812
0
LINE
8
BLACK
6
CONTINUOUS
10
178.485
20
-56.9812
11
178.424
21
-56.8223
0
LINE
8
BLACK
6
CONTINUOUS
10
178.424
20
-56.8223
11
178.328
21
-56.6824
0
LINE
8
BLACK
6
CONTINUOUS
10
178.328
20
-56.6824
11
178.201
21
-56.5697
0
LINE
8
BLACK
6
CONTINUOUS
10
178.201
20
-56.5697
11
178.05
21
-56.4907
0
LINE
8
BLACK
6
CONTINUOUS
10
178.05
20
-56.4907
11
177.885
21
-56.45
0
LINE
8
BLACK
6
CONTINUOUS
10
177.885
20
-56.45
11
177.715
21
-56.45
0
LINE
8
BLACK
6
CONTINUOUS
10
177.715
20
-56.45
11
177.55
21
-56.4907
0
LINE
8
BLACK
6
CONTINUOUS
10
177.55
20
-56.4907
11
177.399
21
-56.5697
0
LINE
8
BLACK
6
CONTINUOUS
10
177.399
20
-56.5697
11
177.272
21
-56.6824
0
LINE
8
BLACK
6
CONTINUOUS
10
177.272
20
-56.6824
11
177.176
21
-56.8223
0
LINE
8
BLACK
6
CONTINUOUS
10
177.176
20
-56.8223
11
177.115
21
-56.9812
0
LINE
8
BLACK
6
CONTINUOUS
10
177.115
20
-56.9812
11
177.095
21
-57.15
0
LINE
8
BLACK
6
CONTINUOUS
10
119.75
20
-57.15
11
119.77
21
-56.9629
0
LINE
8
BLACK
6
CONTINUOUS
10
119.77
20
-56.9629
11
119.828
21
-56.7839
0
LINE
8
BLACK
6
CONTINUOUS
10
119.828
20
-56.7839
11
119.922
21
-56.621
0
LINE
8
BLACK
6
CONTINUOUS
10
119.922
20
-56.621
11
120.048
21
-56.4812
0
LINE
8
BLACK
6
CONTINUOUS
10
120.048
20
-56.4812
11
120.2
21
-56.3706
0
LINE
8
BLACK
6
CONTINUOUS
10
120.2
20
-56.3706
11
120.372
21
-56.294
0
LINE
8
BLACK
6
CONTINUOUS
10
120.372
20
-56.294
11
120.556
21
-56.2549
0
LINE
8
BLACK
6
CONTINUOUS
10
120.556
20
-56.2549
11
120.744
21
-56.2549
0
LINE
8
BLACK
6
CONTINUOUS
10
120.744
20
-56.2549
11
120.928
21
-56.294
0
LINE
8
BLACK
6
CONTINUOUS
10
120.928
20
-56.294
11
121.1
21
-56.3706
0
LINE
8
BLACK
6
CONTINUOUS
10
121.1
20
-56.3706
11
121.252
21
-56.4812
0
LINE
8
BLACK
6
CONTINUOUS
10
121.252
20
-56.4812
11
121.378
21
-56.621
0
LINE
8
BLACK
6
CONTINUOUS
10
121.378
20
-56.621
11
121.472
21
-56.7839
0
LINE
8
BLACK
6
CONTINUOUS
10
121.472
20
-56.7839
11
121.53
21
-56.9629
0
LINE
8
BLACK
6
CONTINUOUS
10
121.53
20
-56.9629
11
121.55
21
-57.15
0
LINE
8
BLACK
6
CONTINUOUS
10
121.55
20
-57.15
11
121.53
21
-57.3371
0
LINE
8
BLACK
6
CONTINUOUS
10
121.53
20
-57.3371
11
121.472
21
-57.5161
0
LINE
8
BLACK
6
CONTINUOUS
10
121.472
20
-57.5161
11
121.378
21
-57.679
0
LINE
8
BLACK
6
CONTINUOUS
10
121.378
20
-57.679
11
121.252
21
-57.8188
0
LINE
8
BLACK
6
CONTINUOUS
10
121.252
20
-57.8188
11
121.1
21
-57.9294
0
LINE
8
BLACK
6
CONTINUOUS
10
121.1
20
-57.9294
11
120.928
21
-58.006
0
LINE
8
BLACK
6
CONTINUOUS
10
120.928
20
-58.006
11
120.744
21
-58.0451
0
LINE
8
BLACK
6
CONTINUOUS
10
120.744
20
-58.0451
11
120.556
21
-58.0451
0
LINE
8
BLACK
6
CONTINUOUS
10
120.556
20
-58.0451
11
120.372
21
-58.006
0
LINE
8
BLACK
6
CONTINUOUS
10
120.372
20
-58.006
11
120.2
21
-57.9294
0
LINE
8
BLACK
6
CONTINUOUS
10
120.2
20
-57.9294
11
120.048
21
-57.8188
0
LINE
8
BLACK
6
CONTINUOUS
10
120.048
20
-57.8188
11
119.922
21
-57.679
0
LINE
8
BLACK
6
CONTINUOUS
10
119.922
20
-57.679
11
119.828
21
-57.5161
0
LINE
8
BLACK
6
CONTINUOUS
10
119.828
20
-57.5161
11
119.77
21
-57.3371
0
LINE
8
BLACK
6
CONTINUOUS
10
119.77
20
-57.3371
11
119.75
21
-57.15
0
LINE
8
BLACK
6
CONTINUOUS
10
119.945
20
-57.15
11
119.965
21
-57.3188
0
LINE
8
BLACK
6
CONTINUOUS
10
119.965
20
-57.3188
11
120.026
21
-57.4777
0
LINE
8
BLACK
6
CONTINUOUS
10
120.026
20
-57.4777
11
120.122
21
-57.6176
0
LINE
8
BLACK
6
CONTINUOUS
10
120.122
20
-57.6176
11
120.249
21
-57.7303
0
LINE
8
BLACK
6
CONTINUOUS
10
120.249
20
-57.7303
11
120.4
21
-57.8093
0
LINE
8
BLACK
6
CONTINUOUS
10
120.4
20
-57.8093
11
120.565
21
-57.85
0
LINE
8
BLACK
6
CONTINUOUS
10
120.565
20
-57.85
11
120.735
21
-57.85
0
LINE
8
BLACK
6
CONTINUOUS
10
120.735
20
-57.85
11
120.9
21
-57.8093
0
LINE
8
BLACK
6
CONTINUOUS
10
120.9
20
-57.8093
11
121.051
21
-57.7303
0
LINE
8
BLACK
6
CONTINUOUS
10
121.051
20
-57.7303
11
121.178
21
-57.6176
0
LINE
8
BLACK
6
CONTINUOUS
10
121.178
20
-57.6176
11
121.274
21
-57.4777
0
LINE
8
BLACK
6
CONTINUOUS
10
121.274
20
-57.4777
11
121.335
21
-57.3188
0
LINE
8
BLACK
6
CONTINUOUS
10
121.335
20
-57.3188
11
121.355
21
-57.15
0
LINE
8
BLACK
6
CONTINUOUS
10
121.355
20
-57.15
11
121.335
21
-56.9812
0
LINE
8
BLACK
6
CONTINUOUS
10
121.335
20
-56.9812
11
121.274
21
-56.8223
0
LINE
8
BLACK
6
CONTINUOUS
10
121.274
20
-56.8223
11
121.178
21
-56.6824
0
LINE
8
BLACK
6
CONTINUOUS
10
121.178
20
-56.6824
11
121.051
21
-56.5697
0
LINE
8
BLACK
6
CONTINUOUS
10
121.051
20
-56.5697
11
120.9
21
-56.4907
0
LINE
8
BLACK
6
CONTINUOUS
10
120.9
20
-56.4907
11
120.735
21
-56.45
0
LINE
8
BLACK
6
CONTINUOUS
10
120.735
20
-56.45
11
120.565
21
-56.45
0
LINE
8
BLACK
6
CONTINUOUS
10
120.565
20
-56.45
11
120.4
21
-56.4907
0
LINE
8
BLACK
6
CONTINUOUS
10
120.4
20
-56.4907
11
120.249
21
-56.5697
0
LINE
8
BLACK
6
CONTINUOUS
10
120.249
20
-56.5697
11
120.122
21
-56.6824
0
LINE
8
BLACK
6
CONTINUOUS
10
120.122
20
-56.6824
11
120.026
21
-56.8223
0
LINE
8
BLACK
6
CONTINUOUS
10
120.026
20
-56.8223
11
119.965
21
-56.9812
0
LINE
8
BLACK
6
CONTINUOUS
10
119.965
20
-56.9812
11
119.945
21
-57.15
0
LINE
8
BLACK
6
CONTINUOUS
10
62.6
20
-57.15
11
62.6197
21
-56.9629
0
LINE
8
BLACK
6
CONTINUOUS
10
62.6197
20
-56.9629
11
62.6778
21
-56.7839
0
LINE
8
BLACK
6
CONTINUOUS
10
62.6778
20
-56.7839
11
62.7719
21
-56.621
0
LINE
8
BLACK
6
CONTINUOUS
10
62.7719
20
-56.621
11
62.8978
21
-56.4812
0
LINE
8
BLACK
6
CONTINUOUS
10
62.8978
20
-56.4812
11
63.05
21
-56.3706
0
LINE
8
BLACK
6
CONTINUOUS
10
63.05
20
-56.3706
11
63.2219
21
-56.294
0
LINE
8
BLACK
6
CONTINUOUS
10
63.2219
20
-56.294
11
63.4059
21
-56.2549
0
LINE
8
BLACK
6
CONTINUOUS
10
63.4059
20
-56.2549
11
63.5941
21
-56.2549
0
LINE
8
BLACK
6
CONTINUOUS
10
63.5941
20
-56.2549
11
63.7781
21
-56.294
0
LINE
8
BLACK
6
CONTINUOUS
10
63.7781
20
-56.294
11
63.95
21
-56.3706
0
LINE
8
BLACK
6
CONTINUOUS
10
63.95
20
-56.3706
11
64.1022
21
-56.4812
0
LINE
8
BLACK
6
CONTINUOUS
10
64.1022
20
-56.4812
11
64.2281
21
-56.621
0
LINE
8
BLACK
6
CONTINUOUS
10
64.2281
20
-56.621
11
64.3222
21
-56.7839
0
LINE
8
BLACK
6
CONTINUOUS
10
64.3222
20
-56.7839
11
64.3803
21
-56.9629
0
LINE
8
BLACK
6
CONTINUOUS
10
64.3803
20
-56.9629
11
64.4
21
-57.15
0
LINE
8
BLACK
6
CONTINUOUS
10
64.4
20
-57.15
11
64.3803
21
-57.3371
0
LINE
8
BLACK
6
CONTINUOUS
10
64.3803
20
-57.3371
11
64.3222
21
-57.5161
0
LINE
8
BLACK
6
CONTINUOUS
10
64.3222
20
-57.5161
11
64.2281
21
-57.679
0
LINE
8
BLACK
6
CONTINUOUS
10
64.2281
20
-57.679
11
64.1022
21
-57.8188
0
LINE
8
BLACK
6
CONTINUOUS
10
64.1022
20
-57.8188
11
63.95
21
-57.9294
0
LINE
8
BLACK
6
CONTINUOUS
10
63.95
20
-57.9294
11
63.7781
21
-58.006
0
LINE
8
BLACK
6
CONTINUOUS
10
63.7781
20
-58.006
11
63.5941
21
-58.0451
0
LINE
8
BLACK
6
CONTINUOUS
10
63.5941
20
-58.0451
11
63.4059
21
-58.0451
0
LINE
8
BLACK
6
CONTINUOUS
10
63.4059
20
-58.0451
11
63.2219
21
-58.006
0
LINE
8
BLACK
6
CONTINUOUS
10
63.2219
20
-58.006
11
63.05
21
-57.9294
0
LINE
8
BLACK
6
CONTINUOUS
10
63.05
20
-57.9294
11
62.8978
21
-57.8188
0
LINE
8
BLACK
6
CONTINUOUS
10
62.8978
20
-57.8188
11
62.7719
21
-57.679
0
LINE
8
BLACK
6
CONTINUOUS
10
62.7719
20
-57.679
11
62.6778
21
-57.5161
0
LINE
8
BLACK
6
CONTINUOUS
10
62.6778
20
-57.5161
11
62.6197
21
-57.3371
0
LINE
8
BLACK
6
CONTINUOUS
10
62.6197
20
-57.3371
11
62.6
21
-57.15
0
LINE
8
BLACK
6
CONTINUOUS
10
62.7949
20
-57.15
11
62.8153
21
-57.3188
0
LINE
8
BLACK
6
CONTINUOUS
10
62.8153
20
-57.3188
11
62.8756
21
-57.4777
0
LINE
8
BLACK
6
CONTINUOUS
10
62.8756
20
-57.4777
11
62.9722
21
-57.6176
0
LINE
8
BLACK
6
CONTINUOUS
10
62.9722
20
-57.6176
11
63.0994
21
-57.7303
0
LINE
8
BLACK
6
CONTINUOUS
10
63.0994
20
-57.7303
11
63.25
21
-57.8093
0
LINE
8
BLACK
6
CONTINUOUS
10
63.25
20
-57.8093
11
63.415
21
-57.85
0
LINE
8
BLACK
6
CONTINUOUS
10
63.415
20
-57.85
11
63.585
21
-57.85
0
LINE
8
BLACK
6
CONTINUOUS
10
63.585
20
-57.85
11
63.75
21
-57.8093
0
LINE
8
BLACK
6
CONTINUOUS
10
63.75
20
-57.8093
11
63.9006
21
-57.7303
0
LINE
8
BLACK
6
CONTINUOUS
10
63.9006
20
-57.7303
11
64.0278
21
-57.6176
0
LINE
8
BLACK
6
CONTINUOUS
10
64.0278
20
-57.6176
11
64.1244
21
-57.4777
0
LINE
8
BLACK
6
CONTINUOUS
10
64.1244
20
-57.4777
11
64.1847
21
-57.3188
0
LINE
8
BLACK
6
CONTINUOUS
10
64.1847
20
-57.3188
11
64.2051
21
-57.15
0
LINE
8
BLACK
6
CONTINUOUS
10
64.2051
20
-57.15
11
64.1847
21
-56.9812
0
LINE
8
BLACK
6
CONTINUOUS
10
64.1847
20
-56.9812
11
64.1244
21
-56.8223
0
LINE
8
BLACK
6
CONTINUOUS
10
64.1244
20
-56.8223
11
64.0278
21
-56.6824
0
LINE
8
BLACK
6
CONTINUOUS
10
64.0278
20
-56.6824
11
63.9006
21
-56.5697
0
LINE
8
BLACK
6
CONTINUOUS
10
63.9006
20
-56.5697
11
63.75
21
-56.4907
0
LINE
8
BLACK
6
CONTINUOUS
10
63.75
20
-56.4907
11
63.585
21
-56.45
0
LINE
8
BLACK
6
CONTINUOUS
10
63.585
20
-56.45
11
63.415
21
-56.45
0
LINE
8
BLACK
6
CONTINUOUS
10
63.415
20
-56.45
11
63.25
21
-56.4907
0
LINE
8
BLACK
6
CONTINUOUS
10
63.25
20
-56.4907
11
63.0994
21
-56.5697
0
LINE
8
BLACK
6
CONTINUOUS
10
63.0994
20
-56.5697
11
62.9722
21
-56.6824
0
LINE
8
BLACK
6
CONTINUOUS
10
62.9722
20
-56.6824
11
62.8756
21
-56.8223
0
LINE
8
BLACK
6
CONTINUOUS
10
62.8756
20
-56.8223
11
62.8153
21
-56.9812
0
LINE
8
BLACK
6
CONTINUOUS
10
62.8153
20
-56.9812
11
62.7949
21
-57.15
0
LINE
8
BLACK
6
CONTINUOUS
10
233.7
20
-50.575
11
233.719
21
-50.3579
0
LINE
8
BLACK
6
CONTINUOUS
10
233.719
20
-50.3579
11
233.775
21
-50.1475
0
LINE
8
BLACK
6
CONTINUOUS
10
233.775
20
-50.1475
11
233.867
21
-49.95
0
LINE
8
BLACK
6
CONTINUOUS
10
233.867
20
-49.95
11
233.992
21
-49.7715
0
LINE
8
BLACK
6
CONTINUOUS
10
233.992
20
-49.7715
11
234.147
21
-49.6174
0
LINE
8
BLACK
6
CONTINUOUS
10
234.147
20
-49.6174
11
234.325
21
-49.4925
0
LINE
8
BLACK
6
CONTINUOUS
10
234.325
20
-49.4925
11
234.522
21
-49.4004
0
LINE
8
BLACK
6
CONTINUOUS
10
234.522
20
-49.4004
11
234.733
21
-49.344
0
LINE
8
BLACK
6
CONTINUOUS
10
234.733
20
-49.344
11
234.95
21
-49.325
0
LINE
8
BLACK
6
CONTINUOUS
10
234.95
20
-49.325
11
235.167
21
-49.344
0
LINE
8
BLACK
6
CONTINUOUS
10
235.167
20
-49.344
11
235.378
21
-49.4004
0
LINE
8
BLACK
6
CONTINUOUS
10
235.378
20
-49.4004
11
235.575
21
-49.4925
0
LINE
8
BLACK
6
CONTINUOUS
10
235.575
20
-49.4925
11
235.753
21
-49.6174
0
LINE
8
BLACK
6
CONTINUOUS
10
235.753
20
-49.6174
11
235.908
21
-49.7715
0
LINE
8
BLACK
6
CONTINUOUS
10
235.908
20
-49.7715
11
236.033
21
-49.95
0
LINE
8
BLACK
6
CONTINUOUS
10
236.033
20
-49.95
11
236.125
21
-50.1475
0
LINE
8
BLACK
6
CONTINUOUS
10
236.125
20
-50.1475
11
236.181
21
-50.3579
0
LINE
8
BLACK
6
CONTINUOUS
10
236.181
20
-50.3579
11
236.2
21
-50.575
0
LINE
8
BLACK
6
CONTINUOUS
10
236.2
20
-50.575
11
236.181
21
-50.7921
0
LINE
8
BLACK
6
CONTINUOUS
10
236.181
20
-50.7921
11
236.125
21
-51.0025
0
LINE
8
BLACK
6
CONTINUOUS
10
236.125
20
-51.0025
11
236.033
21
-51.2
0
LINE
8
BLACK
6
CONTINUOUS
10
236.033
20
-51.2
11
235.908
21
-51.3785
0
LINE
8
BLACK
6
CONTINUOUS
10
235.908
20
-51.3785
11
235.753
21
-51.5326
0
LINE
8
BLACK
6
CONTINUOUS
10
235.753
20
-51.5326
11
235.575
21
-51.6575
0
LINE
8
BLACK
6
CONTINUOUS
10
235.575
20
-51.6575
11
235.378
21
-51.7496
0
LINE
8
BLACK
6
CONTINUOUS
10
235.378
20
-51.7496
11
235.167
21
-51.806
0
LINE
8
BLACK
6
CONTINUOUS
10
235.167
20
-51.806
11
234.95
21
-51.825
0
LINE
8
BLACK
6
CONTINUOUS
10
234.95
20
-51.825
11
234.733
21
-51.806
0
LINE
8
BLACK
6
CONTINUOUS
10
234.733
20
-51.806
11
234.522
21
-51.7496
0
LINE
8
BLACK
6
CONTINUOUS
10
234.522
20
-51.7496
11
234.325
21
-51.6575
0
LINE
8
BLACK
6
CONTINUOUS
10
234.325
20
-51.6575
11
234.147
21
-51.5326
0
LINE
8
BLACK
6
CONTINUOUS
10
234.147
20
-51.5326
11
233.992
21
-51.3785
0
LINE
8
BLACK
6
CONTINUOUS
10
233.992
20
-51.3785
11
233.867
21
-51.2
0
LINE
8
BLACK
6
CONTINUOUS
10
233.867
20
-51.2
11
233.775
21
-51.0025
0
LINE
8
BLACK
6
CONTINUOUS
10
233.775
20
-51.0025
11
233.719
21
-50.7921
0
LINE
8
BLACK
6
CONTINUOUS
10
233.719
20
-50.7921
11
233.7
21
-50.575
0
LINE
8
BLACK
6
CONTINUOUS
10
233.895
20
-50.575
11
233.915
21
-50.7808
0
LINE
8
BLACK
6
CONTINUOUS
10
233.915
20
-50.7808
11
233.975
21
-50.9788
0
LINE
8
BLACK
6
CONTINUOUS
10
233.975
20
-50.9788
11
234.073
21
-51.1612
0
LINE
8
BLACK
6
CONTINUOUS
10
234.073
20
-51.1612
11
234.204
21
-51.3211
0
LINE
8
BLACK
6
CONTINUOUS
10
234.204
20
-51.3211
11
234.364
21
-51.4523
0
LINE
8
BLACK
6
CONTINUOUS
10
234.364
20
-51.4523
11
234.546
21
-51.5498
0
LINE
8
BLACK
6
CONTINUOUS
10
234.546
20
-51.5498
11
234.744
21
-51.6098
0
LINE
8
BLACK
6
CONTINUOUS
10
234.744
20
-51.6098
11
234.95
21
-51.6301
0
LINE
8
BLACK
6
CONTINUOUS
10
234.95
20
-51.6301
11
235.156
21
-51.6098
0
LINE
8
BLACK
6
CONTINUOUS
10
235.156
20
-51.6098
11
235.354
21
-51.5498
0
LINE
8
BLACK
6
CONTINUOUS
10
235.354
20
-51.5498
11
235.536
21
-51.4523
0
LINE
8
BLACK
6
CONTINUOUS
10
235.536
20
-51.4523
11
235.696
21
-51.3211
0
LINE
8
BLACK
6
CONTINUOUS
10
235.696
20
-51.3211
11
235.827
21
-51.1612
0
LINE
8
BLACK
6
CONTINUOUS
10
235.827
20
-51.1612
11
235.925
21
-50.9788
0
LINE
8
BLACK
6
CONTINUOUS
10
235.925
20
-50.9788
11
235.985
21
-50.7808
0
LINE
8
BLACK
6
CONTINUOUS
10
235.985
20
-50.7808
11
236.005
21
-50.575
0
LINE
8
BLACK
6
CONTINUOUS
10
236.005
20
-50.575
11
235.985
21
-50.3692
0
LINE
8
BLACK
6
CONTINUOUS
10
235.985
20
-50.3692
11
235.925
21
-50.1712
0
LINE
8
BLACK
6
CONTINUOUS
10
235.925
20
-50.1712
11
235.827
21
-49.9888
0
LINE
8
BLACK
6
CONTINUOUS
10
235.827
20
-49.9888
11
235.696
21
-49.8289
0
LINE
8
BLACK
6
CONTINUOUS
10
235.696
20
-49.8289
11
235.536
21
-49.6977
0
LINE
8
BLACK
6
CONTINUOUS
10
235.536
20
-49.6977
11
235.354
21
-49.6002
0
LINE
8
BLACK
6
CONTINUOUS
10
235.354
20
-49.6002
11
235.156
21
-49.5402
0
LINE
8
BLACK
6
CONTINUOUS
10
235.156
20
-49.5402
11
234.95
21
-49.5199
0
LINE
8
BLACK
6
CONTINUOUS
10
234.95
20
-49.5199
11
234.744
21
-49.5402
0
LINE
8
BLACK
6
CONTINUOUS
10
234.744
20
-49.5402
11
234.546
21
-49.6002
0
LINE
8
BLACK
6
CONTINUOUS
10
234.546
20
-49.6002
11
234.364
21
-49.6977
0
LINE
8
BLACK
6
CONTINUOUS
10
234.364
20
-49.6977
11
234.204
21
-49.8289
0
LINE
8
BLACK
6
CONTINUOUS
10
234.204
20
-49.8289
11
234.073
21
-49.9888
0
LINE
8
BLACK
6
CONTINUOUS
10
234.073
20
-49.9888
11
233.975
21
-50.1712
0
LINE
8
BLACK
6
CONTINUOUS
10
233.975
20
-50.1712
11
233.915
21
-50.3692
0
LINE
8
BLACK
6
CONTINUOUS
10
233.915
20
-50.3692
11
233.895
21
-50.575
0
LINE
8
BLACK
6
CONTINUOUS
10
62.25
20
-50.575
11
62.269
21
-50.3579
0
LINE
8
BLACK
6
CONTINUOUS
10
62.269
20
-50.3579
11
62.3254
21
-50.1475
0
LINE
8
BLACK
6
CONTINUOUS
10
62.3254
20
-50.1475
11
62.4175
21
-49.95
0
LINE
8
BLACK
6
CONTINUOUS
10
62.4175
20
-49.95
11
62.5424
21
-49.7715
0
LINE
8
BLACK
6
CONTINUOUS
10
62.5424
20
-49.7715
11
62.6965
21
-49.6174
0
LINE
8
BLACK
6
CONTINUOUS
10
62.6965
20
-49.6174
11
62.875
21
-49.4925
0
LINE
8
BLACK
6
CONTINUOUS
10
62.875
20
-49.4925
11
63.0725
21
-49.4004
0
LINE
8
BLACK
6
CONTINUOUS
10
63.0725
20
-49.4004
11
63.2829
21
-49.344
0
LINE
8
BLACK
6
CONTINUOUS
10
63.2829
20
-49.344
11
63.5
21
-49.325
0
LINE
8
BLACK
6
CONTINUOUS
10
63.5
20
-49.325
11
63.7171
21
-49.344
0
LINE
8
BLACK
6
CONTINUOUS
10
63.7171
20
-49.344
11
63.9275
21
-49.4004
0
LINE
8
BLACK
6
CONTINUOUS
10
63.9275
20
-49.4004
11
64.125
21
-49.4925
0
LINE
8
BLACK
6
CONTINUOUS
10
64.125
20
-49.4925
11
64.3035
21
-49.6174
0
LINE
8
BLACK
6
CONTINUOUS
10
64.3035
20
-49.6174
11
64.4576
21
-49.7715
0
LINE
8
BLACK
6
CONTINUOUS
10
64.4576
20
-49.7715
11
64.5825
21
-49.95
0
LINE
8
BLACK
6
CONTINUOUS
10
64.5825
20
-49.95
11
64.6746
21
-50.1475
0
LINE
8
BLACK
6
CONTINUOUS
10
64.6746
20
-50.1475
11
64.731
21
-50.3579
0
LINE
8
BLACK
6
CONTINUOUS
10
64.731
20
-50.3579
11
64.75
21
-50.575
0
LINE
8
BLACK
6
CONTINUOUS
10
64.75
20
-50.575
11
64.731
21
-50.7921
0
LINE
8
BLACK
6
CONTINUOUS
10
64.731
20
-50.7921
11
64.6746
21
-51.0025
0
LINE
8
BLACK
6
CONTINUOUS
10
64.6746
20
-51.0025
11
64.5825
21
-51.2
0
LINE
8
BLACK
6
CONTINUOUS
10
64.5825
20
-51.2
11
64.4576
21
-51.3785
0
LINE
8
BLACK
6
CONTINUOUS
10
64.4576
20
-51.3785
11
64.3035
21
-51.5326
0
LINE
8
BLACK
6
CONTINUOUS
10
64.3035
20
-51.5326
11
64.125
21
-51.6575
0
LINE
8
BLACK
6
CONTINUOUS
10
64.125
20
-51.6575
11
63.9275
21
-51.7496
0
LINE
8
BLACK
6
CONTINUOUS
10
63.9275
20
-51.7496
11
63.7171
21
-51.806
0
LINE
8
BLACK
6
CONTINUOUS
10
63.7171
20
-51.806
11
63.5
21
-51.825
0
LINE
8
BLACK
6
CONTINUOUS
10
63.5
20
-51.825
11
63.2829
21
-51.806
0
LINE
8
BLACK
6
CONTINUOUS
10
63.2829
20
-51.806
11
63.0725
21
-51.7496
0
LINE
8
BLACK
6
CONTINUOUS
10
63.0725
20
-51.7496
11
62.875
21
-51.6575
0
LINE
8
BLACK
6
CONTINUOUS
10
62.875
20
-51.6575
11
62.6965
21
-51.5326
0
LINE
8
BLACK
6
CONTINUOUS
10
62.6965
20
-51.5326
11
62.5424
21
-51.3785
0
LINE
8
BLACK
6
CONTINUOUS
10
62.5424
20
-51.3785
11
62.4175
21
-51.2
0
LINE
8
BLACK
6
CONTINUOUS
10
62.4175
20
-51.2
11
62.3254
21
-51.0025
0
LINE
8
BLACK
6
CONTINUOUS
10
62.3254
20
-51.0025
11
62.269
21
-50.7921
0
LINE
8
BLACK
6
CONTINUOUS
10
62.269
20
-50.7921
11
62.25
21
-50.575
0
LINE
8
BLACK
6
CONTINUOUS
10
62.4449
20
-50.575
11
62.4652
21
-50.7808
0
LINE
8
BLACK
6
CONTINUOUS
10
62.4652
20
-50.7808
11
62.5252
21
-50.9788
0
LINE
8
BLACK
6
CONTINUOUS
10
62.5252
20
-50.9788
11
62.6227
21
-51.1612
0
LINE
8
BLACK
6
CONTINUOUS
10
62.6227
20
-51.1612
11
62.7539
21
-51.3211
0
LINE
8
BLACK
6
CONTINUOUS
10
62.7539
20
-51.3211
11
62.9138
21
-51.4523
0
LINE
8
BLACK
6
CONTINUOUS
10
62.9138
20
-51.4523
11
63.0962
21
-51.5498
0
LINE
8
BLACK
6
CONTINUOUS
10
63.0962
20
-51.5498
11
63.2942
21
-51.6098
0
LINE
8
BLACK
6
CONTINUOUS
10
63.2942
20
-51.6098
11
63.5
21
-51.6301
0
LINE
8
BLACK
6
CONTINUOUS
10
63.5
20
-51.6301
11
63.7058
21
-51.6098
0
LINE
8
BLACK
6
CONTINUOUS
10
63.7058
20
-51.6098
11
63.9038
21
-51.5498
0
LINE
8
BLACK
6
CONTINUOUS
10
63.9038
20
-51.5498
11
64.0862
21
-51.4523
0
LINE
8
BLACK
6
CONTINUOUS
10
64.0862
20
-51.4523
11
64.2461
21
-51.3211
0
LINE
8
BLACK
6
CONTINUOUS
10
64.2461
20
-51.3211
11
64.3773
21
-51.1612
0
LINE
8
BLACK
6
CONTINUOUS
10
64.3773
20
-51.1612
11
64.4748
21
-50.9788
0
LINE
8
BLACK
6
CONTINUOUS
10
64.4748
20
-50.9788
11
64.5348
21
-50.7808
0
LINE
8
BLACK
6
CONTINUOUS
10
64.5348
20
-50.7808
11
64.5551
21
-50.575
0
LINE
8
BLACK
6
CONTINUOUS
10
64.5551
20
-50.575
11
64.5348
21
-50.3692
0
LINE
8
BLACK
6
CONTINUOUS
10
64.5348
20
-50.3692
11
64.4748
21
-50.1712
0
LINE
8
BLACK
6
CONTINUOUS
10
64.4748
20
-50.1712
11
64.3773
21
-49.9888
0
LINE
8
BLACK
6
CONTINUOUS
10
64.3773
20
-49.9888
11
64.2461
21
-49.8289
0
LINE
8
BLACK
6
CONTINUOUS
10
64.2461
20
-49.8289
11
64.0862
21
-49.6977
0
LINE
8
BLACK
6
CONTINUOUS
10
64.0862
20
-49.6977
11
63.9038
21
-49.6002
0
LINE
8
BLACK
6
CONTINUOUS
10
63.9038
20
-49.6002
11
63.7058
21
-49.5402
0
LINE
8
BLACK
6
CONTINUOUS
10
63.7058
20
-49.5402
11
63.5
21
-49.5199
0
LINE
8
BLACK
6
CONTINUOUS
10
63.5
20
-49.5199
11
63.2942
21
-49.5402
0
LINE
8
BLACK
6
CONTINUOUS
10
63.2942
20
-49.5402
11
63.0962
21
-49.6002
0
LINE
8
BLACK
6
CONTINUOUS
10
63.0962
20
-49.6002
11
62.9138
21
-49.6977
0
LINE
8
BLACK
6
CONTINUOUS
10
62.9138
20
-49.6977
11
62.7539
21
-49.8289
0
LINE
8
BLACK
6
CONTINUOUS
10
62.7539
20
-49.8289
11
62.6227
21
-49.9888
0
LINE
8
BLACK
6
CONTINUOUS
10
62.6227
20
-49.9888
11
62.5252
21
-50.1712
0
LINE
8
BLACK
6
CONTINUOUS
10
62.5252
20
-50.1712
11
62.4652
21
-50.3692
0
LINE
8
BLACK
6
CONTINUOUS
10
62.4652
20
-50.3692
11
62.4449
21
-50.575
0
LINE
8
BLACK
6
CONTINUOUS
10
251.475
20
-47.375
11
251.809
21
-47.3925
0
LINE
8
BLACK
6
CONTINUOUS
10
251.809
20
-47.3925
11
252.14
21
-47.4449
0
LINE
8
BLACK
6
CONTINUOUS
10
252.14
20
-47.4449
11
252.464
21
-47.5316
0
LINE
8
BLACK
6
CONTINUOUS
10
252.464
20
-47.5316
11
252.777
21
-47.6517
0
LINE
8
BLACK
6
CONTINUOUS
10
252.777
20
-47.6517
11
253.075
21
-47.8037
0
LINE
8
BLACK
6
CONTINUOUS
10
253.075
20
-47.8037
11
253.356
21
-47.9861
0
LINE
8
BLACK
6
CONTINUOUS
10
253.356
20
-47.9861
11
253.616
21
-48.1969
0
LINE
8
BLACK
6
CONTINUOUS
10
253.616
20
-48.1969
11
253.853
21
-48.4338
0
LINE
8
BLACK
6
CONTINUOUS
10
253.853
20
-48.4338
11
254.064
21
-48.6941
0
LINE
8
BLACK
6
CONTINUOUS
10
254.064
20
-48.6941
11
254.246
21
-48.975
0
LINE
8
BLACK
6
CONTINUOUS
10
254.246
20
-48.975
11
254.398
21
-49.2734
0
LINE
8
BLACK
6
CONTINUOUS
10
254.398
20
-49.2734
11
254.518
21
-49.5861
0
LINE
8
BLACK
6
CONTINUOUS
10
254.518
20
-49.5861
11
254.605
21
-49.9097
0
LINE
8
BLACK
6
CONTINUOUS
10
254.605
20
-49.9097
11
254.657
21
-50.2405
0
LINE
8
BLACK
6
CONTINUOUS
10
254.657
20
-50.2405
11
254.675
21
-50.575
0
LINE
8
BLACK
6
CONTINUOUS
10
254.675
20
-50.575
11
254.675
21
-50.575
0
LINE
8
BLACK
6
CONTINUOUS
10
254.675
20
-50.575
11
254.675
21
-102.675
0
LINE
8
BLACK
6
CONTINUOUS
10
254.675
20
-102.675
11
254.657
21
-103.009
0
LINE
8
BLACK
6
CONTINUOUS
10
254.657
20
-103.009
11
254.605
21
-103.34
0
LINE
8
BLACK
6
CONTINUOUS
10
254.605
20
-103.34
11
254.518
21
-103.664
0
LINE
8
BLACK
6
CONTINUOUS
10
254.518
20
-103.664
11
254.398
21
-103.977
0
LINE
8
BLACK
6
CONTINUOUS
10
254.398
20
-103.977
11
254.246
21
-104.275
0
LINE
8
BLACK
6
CONTINUOUS
10
254.246
20
-104.275
11
254.064
21
-104.556
0
LINE
8
BLACK
6
CONTINUOUS
10
254.064
20
-104.556
11
253.853
21
-104.816
0
LINE
8
BLACK
6
CONTINUOUS
10
253.853
20
-104.816
11
253.616
21
-105.053
0
LINE
8
BLACK
6
CONTINUOUS
10
253.616
20
-105.053
11
253.356
21
-105.264
0
LINE
8
BLACK
6
CONTINUOUS
10
253.356
20
-105.264
11
253.075
21
-105.446
0
LINE
8
BLACK
6
CONTINUOUS
10
253.075
20
-105.446
11
252.777
21
-105.598
0
LINE
8
BLACK
6
CONTINUOUS
10
252.777
20
-105.598
11
252.464
21
-105.718
0
LINE
8
BLACK
6
CONTINUOUS
10
252.464
20
-105.718
11
252.14
21
-105.805
0
LINE
8
BLACK
6
CONTINUOUS
10
252.14
20
-105.805
11
251.809
21
-105.857
0
LINE
8
BLACK
6
CONTINUOUS
10
251.809
20
-105.857
11
251.475
21
-105.875
0
LINE
8
BLACK
6
CONTINUOUS
10
251.475
20
-105.875
11
251.475
21
-105.875
0
LINE
8
BLACK
6
CONTINUOUS
10
251.475
20
-105.875
11
227.2
21
-105.875
0
LINE
8
BLACK
6
CONTINUOUS
10
227.2
20
-105.875
11
227.2
21
-105.875
0
LINE
8
BLACK
6
CONTINUOUS
10
227.2
20
-105.875
11
227.104
21
-105.875
0
LINE
8
BLACK
6
CONTINUOUS
10
227.104
20
-105.875
11
226.914
21
-105.908
0
LINE
8
BLACK
6
CONTINUOUS
10
226.914
20
-105.908
11
226.733
21
-105.974
0
LINE
8
BLACK
6
CONTINUOUS
10
226.733
20
-105.974
11
226.567
21
-106.07
0
LINE
8
BLACK
6
CONTINUOUS
10
226.567
20
-106.07
11
226.419
21
-106.194
0
LINE
8
BLACK
6
CONTINUOUS
10
226.419
20
-106.194
11
226.295
21
-106.342
0
LINE
8
BLACK
6
CONTINUOUS
10
226.295
20
-106.342
11
226.199
21
-106.508
0
LINE
8
BLACK
6
CONTINUOUS
10
226.199
20
-106.508
11
226.133
21
-106.689
0
LINE
8
BLACK
6
CONTINUOUS
10
226.133
20
-106.689
11
226.1
21
-106.879
0
LINE
8
BLACK
6
CONTINUOUS
10
226.1
20
-106.879
11
226.1
21
-106.975
0
LINE
8
BLACK
6
CONTINUOUS
10
226.1
20
-106.975
11
226.1
21
-121.725
0
LINE
8
BLACK
6
CONTINUOUS
10
226.1
20
-121.725
11
226.082
21
-122.059
0
LINE
8
BLACK
6
CONTINUOUS
10
226.082
20
-122.059
11
226.03
21
-122.39
0
LINE
8
BLACK
6
CONTINUOUS
10
226.03
20
-122.39
11
225.943
21
-122.714
0
LINE
8
BLACK
6
CONTINUOUS
10
225.943
20
-122.714
11
225.823
21
-123.027
0
LINE
8
BLACK
6
CONTINUOUS
10
225.823
20
-123.027
11
225.671
21
-123.325
0
LINE
8
BLACK
6
CONTINUOUS
10
225.671
20
-123.325
11
225.489
21
-123.606
0
LINE
8
BLACK
6
CONTINUOUS
10
225.489
20
-123.606
11
225.278
21
-123.866
0
LINE
8
BLACK
6
CONTINUOUS
10
225.278
20
-123.866
11
225.041
21
-124.103
0
LINE
8
BLACK
6
CONTINUOUS
10
225.041
20
-124.103
11
224.781
21
-124.314
0
LINE
8
BLACK
6
CONTINUOUS
10
224.781
20
-124.314
11
224.5
21
-124.496
0
LINE
8
BLACK
6
CONTINUOUS
10
224.5
20
-124.496
11
224.202
21
-124.648
0
LINE
8
BLACK
6
CONTINUOUS
10
224.202
20
-124.648
11
223.889
21
-124.768
0
LINE
8
BLACK
6
CONTINUOUS
10
223.889
20
-124.768
11
223.565
21
-124.855
0
LINE
8
BLACK
6
CONTINUOUS
10
223.565
20
-124.855
11
223.234
21
-124.907
0
LINE
8
BLACK
6
CONTINUOUS
10
223.234
20
-124.907
11
222.9
21
-124.925
0
LINE
8
BLACK
6
CONTINUOUS
10
222.9
20
-124.925
11
222.9
21
-124.925
0
LINE
8
BLACK
6
CONTINUOUS
10
222.9
20
-124.925
11
75.55
21
-124.925
0
LINE
8
BLACK
6
CONTINUOUS
10
75.55
20
-124.925
11
75.2155
21
-124.907
0
LINE
8
BLACK
6
CONTINUOUS
10
75.2155
20
-124.907
11
74.8847
21
-124.855
0
LINE
8
BLACK
6
CONTINUOUS
10
74.8847
20
-124.855
11
74.5611
21
-124.768
0
LINE
8
BLACK
6
CONTINUOUS
10
74.5611
20
-124.768
11
74.2484
21
-124.648
0
LINE
8
BLACK
6
CONTINUOUS
10
74.2484
20
-124.648
11
73.95
21
-124.496
0
LINE
8
BLACK
6
CONTINUOUS
10
73.95
20
-124.496
11
73.6691
21
-124.314
0
LINE
8
BLACK
6
CONTINUOUS
10
73.6691
20
-124.314
11
73.4088
21
-124.103
0
LINE
8
BLACK
6
CONTINUOUS
10
73.4088
20
-124.103
11
73.1719
21
-123.866
0
LINE
8
BLACK
6
CONTINUOUS
10
73.1719
20
-123.866
11
72.9611
21
-123.606
0
LINE
8
BLACK
6
CONTINUOUS
10
72.9611
20
-123.606
11
72.7787
21
-123.325
0
LINE
8
BLACK
6
CONTINUOUS
10
72.7787
20
-123.325
11
72.6267
21
-123.027
0
LINE
8
BLACK
6
CONTINUOUS
10
72.6267
20
-123.027
11
72.5066
21
-122.714
0
LINE
8
BLACK
6
CONTINUOUS
10
72.5066
20
-122.714
11
72.4199
21
-122.39
0
LINE
8
BLACK
6
CONTINUOUS
10
72.4199
20
-122.39
11
72.3675
21
-122.059
0
LINE
8
BLACK
6
CONTINUOUS
10
72.3675
20
-122.059
11
72.35
21
-121.725
0
LINE
8
BLACK
6
CONTINUOUS
10
72.35
20
-121.725
11
72.35
21
-121.725
0
LINE
8
BLACK
6
CONTINUOUS
10
72.35
20
-121.725
11
72.35
21
-106.975
0
LINE
8
BLACK
6
CONTINUOUS
10
72.35
20
-106.975
11
72.35
21
-106.975
0
LINE
8
BLACK
6
CONTINUOUS
10
72.35
20
-106.975
11
72.35
21
-106.879
0
LINE
8
BLACK
6
CONTINUOUS
10
72.35
20
-106.879
11
72.3166
21
-106.689
0
LINE
8
BLACK
6
CONTINUOUS
10
72.3166
20
-106.689
11
72.2507
21
-106.508
0
LINE
8
BLACK
6
CONTINUOUS
10
72.2507
20
-106.508
11
72.1545
21
-106.342
0
LINE
8
BLACK
6
CONTINUOUS
10
72.1545
20
-106.342
11
72.0308
21
-106.194
0
LINE
8
BLACK
6
CONTINUOUS
10
72.0308
20
-106.194
11
71.8833
21
-106.07
0
LINE
8
BLACK
6
CONTINUOUS
10
71.8833
20
-106.07
11
71.7167
21
-105.974
0
LINE
8
BLACK
6
CONTINUOUS
10
71.7167
20
-105.974
11
71.5358
21
-105.908
0
LINE
8
BLACK
6
CONTINUOUS
10
71.5358
20
-105.908
11
71.3462
21
-105.875
0
LINE
8
BLACK
6
CONTINUOUS
10
71.3462
20
-105.875
11
71.25
21
-105.875
0
LINE
8
BLACK
6
CONTINUOUS
10
71.25
20
-105.875
11
46.975
21
-105.875
0
LINE
8
BLACK
6
CONTINUOUS
10
46.975
20
-105.875
11
46.6405
21
-105.857
0
LINE
8
BLACK
6
CONTINUOUS
10
46.6405
20
-105.857
11
46.3097
21
-105.805
0
LINE
8
BLACK
6
CONTINUOUS
10
46.3097
20
-105.805
11
45.9861
21
-105.718
0
LINE
8
BLACK
6
CONTINUOUS
10
45.9861
20
-105.718
11
45.6734
21
-105.598
0
LINE
8
BLACK
6
CONTINUOUS
10
45.6734
20
-105.598
11
45.375
21
-105.446
0
LINE
8
BLACK
6
CONTINUOUS
10
45.375
20
-105.446
11
45.0941
21
-105.264
0
LINE
8
BLACK
6
CONTINUOUS
10
45.0941
20
-105.264
11
44.8338
21
-105.053
0
LINE
8
BLACK
6
CONTINUOUS
10
44.8338
20
-105.053
11
44.5969
21
-104.816
0
LINE
8
BLACK
6
CONTINUOUS
10
44.5969
20
-104.816
11
44.3861
21
-104.556
0
LINE
8
BLACK
6
CONTINUOUS
10
44.3861
20
-104.556
11
44.2037
21
-104.275
0
LINE
8
BLACK
6
CONTINUOUS
10
44.2037
20
-104.275
11
44.0517
21
-103.977
0
LINE
8
BLACK
6
CONTINUOUS
10
44.0517
20
-103.977
11
43.9316
21
-103.664
0
LINE
8
BLACK
6
CONTINUOUS
10
43.9316
20
-103.664
11
43.8449
21
-103.34
0
LINE
8
BLACK
6
CONTINUOUS
10
43.8449
20
-103.34
11
43.7925
21
-103.009
0
LINE
8
BLACK
6
CONTINUOUS
10
43.7925
20
-103.009
11
43.775
21
-102.675
0
LINE
8
BLACK
6
CONTINUOUS
10
43.775
20
-102.675
11
43.775
21
-102.675
0
LINE
8
BLACK
6
CONTINUOUS
10
43.775
20
-102.675
11
43.775
21
-50.575
0
LINE
8
BLACK
6
CONTINUOUS
10
43.775
20
-50.575
11
43.7925
21
-50.2405
0
LINE
8
BLACK
6
CONTINUOUS
10
43.7925
20
-50.2405
11
43.8449
21
-49.9097
0
LINE
8
BLACK
6
CONTINUOUS
10
43.8449
20
-49.9097
11
43.9316
21
-49.5861
0
LINE
8
BLACK
6
CONTINUOUS
10
43.9316
20
-49.5861
11
44.0517
21
-49.2734
0
LINE
8
BLACK
6
CONTINUOUS
10
44.0517
20
-49.2734
11
44.2037
21
-48.975
0
LINE
8
BLACK
6
CONTINUOUS
10
44.2037
20
-48.975
11
44.3861
21
-48.6941
0
LINE
8
BLACK
6
CONTINUOUS
10
44.3861
20
-48.6941
11
44.5969
21
-48.4338
0
LINE
8
BLACK
6
CONTINUOUS
10
44.5969
20
-48.4338
11
44.8338
21
-48.1969
0
LINE
8
BLACK
6
CONTINUOUS
10
44.8338
20
-48.1969
11
45.0941
21
-47.9861
0
LINE
8
BLACK
6
CONTINUOUS
10
45.0941
20
-47.9861
11
45.375
21
-47.8037
0
LINE
8
BLACK
6
CONTINUOUS
10
45.375
20
-47.8037
11
45.6734
21
-47.6517
0
LINE
8
BLACK
6
CONTINUOUS
10
45.6734
20
-47.6517
11
45.9861
21
-47.5316
0
LINE
8
BLACK
6
CONTINUOUS
10
45.9861
20
-47.5316
11
46.3097
21
-47.4449
0
LINE
8
BLACK
6
CONTINUOUS
10
46.3097
20
-47.4449
11
46.6405
21
-47.3925
0
LINE
8
BLACK
6
CONTINUOUS
10
46.6405
20
-47.3925
11
46.975
21
-47.375
0
LINE
8
BLACK
6
CONTINUOUS
10
46.975
20
-47.375
11
46.975
21
-47.375
0
LINE
8
BLACK
6
CONTINUOUS
10
46.975
20
-47.375
11
251.475
21
-47.375
0
LINE
8
BLACK
6
CONTINUOUS
10
46.975
20
-47.575
11
46.975
21
-47.575
0
LINE
8
BLACK
6
CONTINUOUS
10
46.975
20
-47.575
11
46.8178
21
-47.575
0
LINE
8
BLACK
6
CONTINUOUS
10
46.8178
20
-47.575
11
46.5051
21
-47.6079
0
LINE
8
BLACK
6
CONTINUOUS
10
46.5051
20
-47.6079
11
46.1975
21
-47.6732
0
LINE
8
BLACK
6
CONTINUOUS
10
46.1975
20
-47.6732
11
45.8984
21
-47.7704
0
LINE
8
BLACK
6
CONTINUOUS
10
45.8984
20
-47.7704
11
45.6112
21
-47.8983
0
LINE
8
BLACK
6
CONTINUOUS
10
45.6112
20
-47.8983
11
45.3388
21
-48.0555
0
LINE
8
BLACK
6
CONTINUOUS
10
45.3388
20
-48.0555
11
45.0844
21
-48.2404
0
LINE
8
BLACK
6
CONTINUOUS
10
45.0844
20
-48.2404
11
44.8508
21
-48.4508
0
LINE
8
BLACK
6
CONTINUOUS
10
44.8508
20
-48.4508
11
44.6404
21
-48.6844
0
LINE
8
BLACK
6
CONTINUOUS
10
44.6404
20
-48.6844
11
44.4555
21
-48.9388
0
LINE
8
BLACK
6
CONTINUOUS
10
44.4555
20
-48.9388
11
44.2983
21
-49.2112
0
LINE
8
BLACK
6
CONTINUOUS
10
44.2983
20
-49.2112
11
44.1704
21
-49.4984
0
LINE
8
BLACK
6
CONTINUOUS
10
44.1704
20
-49.4984
11
44.0732
21
-49.7975
0
LINE
8
BLACK
6
CONTINUOUS
10
44.0732
20
-49.7975
11
44.0079
21
-50.1051
0
LINE
8
BLACK
6
CONTINUOUS
10
44.0079
20
-50.1051
11
43.975
21
-50.4178
0
LINE
8
BLACK
6
CONTINUOUS
10
43.975
20
-50.4178
11
43.975
21
-50.575
0
LINE
8
BLACK
6
CONTINUOUS
10
43.975
20
-50.575
11
43.975
21
-102.675
0
LINE
8
BLACK
6
CONTINUOUS
10
43.975
20
-102.675
11
43.975
21
-102.675
0
LINE
8
BLACK
6
CONTINUOUS
10
43.975
20
-102.675
11
43.975
21
-102.832
0
LINE
8
BLACK
6
CONTINUOUS
10
43.975
20
-102.832
11
44.0079
21
-103.145
0
LINE
8
BLACK
6
CONTINUOUS
10
44.0079
20
-103.145
11
44.0732
21
-103.453
0
LINE
8
BLACK
6
CONTINUOUS
10
44.0732
20
-103.453
11
44.1704
21
-103.752
0
LINE
8
BLACK
6
CONTINUOUS
10
44.1704
20
-103.752
11
44.2983
21
-104.039
0
LINE
8
BLACK
6
CONTINUOUS
10
44.2983
20
-104.039
11
44.4555
21
-104.311
0
LINE
8
BLACK
6
CONTINUOUS
10
44.4555
20
-104.311
11
44.6404
21
-104.566
0
LINE
8
BLACK
6
CONTINUOUS
10
44.6404
20
-104.566
11
44.8508
21
-104.799
0
LINE
8
BLACK
6
CONTINUOUS
10
44.8508
20
-104.799
11
45.0844
21
-105.01
0
LINE
8
BLACK
6
CONTINUOUS
10
45.0844
20
-105.01
11
45.3388
21
-105.194
0
LINE
8
BLACK
6
CONTINUOUS
10
45.3388
20
-105.194
11
45.6112
21
-105.352
0
LINE
8
BLACK
6
CONTINUOUS
10
45.6112
20
-105.352
11
45.8984
21
-105.48
0
LINE
8
BLACK
6
CONTINUOUS
10
45.8984
20
-105.48
11
46.1975
21
-105.577
0
LINE
8
BLACK
6
CONTINUOUS
10
46.1975
20
-105.577
11
46.5051
21
-105.642
0
LINE
8
BLACK
6
CONTINUOUS
10
46.5051
20
-105.642
11
46.8178
21
-105.675
0
LINE
8
BLACK
6
CONTINUOUS
10
46.8178
20
-105.675
11
46.975
21
-105.675
0
LINE
8
BLACK
6
CONTINUOUS
10
46.975
20
-105.675
11
71.25
21
-105.675
0
LINE
8
BLACK
6
CONTINUOUS
10
71.25
20
-105.675
11
71.4534
21
-105.691
0
LINE
8
BLACK
6
CONTINUOUS
10
71.4534
20
-105.691
11
71.6517
21
-105.739
0
LINE
8
BLACK
6
CONTINUOUS
10
71.6517
20
-105.739
11
71.8402
21
-105.817
0
LINE
8
BLACK
6
CONTINUOUS
10
71.8402
20
-105.817
11
72.0141
21
-105.923
0
LINE
8
BLACK
6
CONTINUOUS
10
72.0141
20
-105.923
11
72.1692
21
-106.056
0
LINE
8
BLACK
6
CONTINUOUS
10
72.1692
20
-106.056
11
72.3017
21
-106.211
0
LINE
8
BLACK
6
CONTINUOUS
10
72.3017
20
-106.211
11
72.4083
21
-106.385
0
LINE
8
BLACK
6
CONTINUOUS
10
72.4083
20
-106.385
11
72.4864
21
-106.573
0
LINE
8
BLACK
6
CONTINUOUS
10
72.4864
20
-106.573
11
72.534
21
-106.772
0
LINE
8
BLACK
6
CONTINUOUS
10
72.534
20
-106.772
11
72.55
21
-106.975
0
LINE
8
BLACK
6
CONTINUOUS
10
72.55
20
-106.975
11
72.55
21
-106.975
0
LINE
8
BLACK
6
CONTINUOUS
10
72.55
20
-106.975
11
72.55
21
-121.725
0
LINE
8
BLACK
6
CONTINUOUS
10
72.55
20
-121.725
11
72.55
21
-121.725
0
LINE
8
BLACK
6
CONTINUOUS
10
72.55
20
-121.725
11
72.55
21
-121.882
0
LINE
8
BLACK
6
CONTINUOUS
10
72.55
20
-121.882
11
72.5829
21
-122.195
0
LINE
8
BLACK
6
CONTINUOUS
10
72.5829
20
-122.195
11
72.6482
21
-122.503
0
LINE
8
BLACK
6
CONTINUOUS
10
72.6482
20
-122.503
11
72.7454
21
-122.802
0
LINE
8
BLACK
6
CONTINUOUS
10
72.7454
20
-122.802
11
72.8733
21
-123.089
0
LINE
8
BLACK
6
CONTINUOUS
10
72.8733
20
-123.089
11
73.0305
21
-123.361
0
LINE
8
BLACK
6
CONTINUOUS
10
73.0305
20
-123.361
11
73.2154
21
-123.616
0
LINE
8
BLACK
6
CONTINUOUS
10
73.2154
20
-123.616
11
73.4258
21
-123.849
0
LINE
8
BLACK
6
CONTINUOUS
10
73.4258
20
-123.849
11
73.6594
21
-124.06
0
LINE
8
BLACK
6
CONTINUOUS
10
73.6594
20
-124.06
11
73.9138
21
-124.244
0
LINE
8
BLACK
6
CONTINUOUS
10
73.9138
20
-124.244
11
74.1862
21
-124.402
0
LINE
8
BLACK
6
CONTINUOUS
10
74.1862
20
-124.402
11
74.4734
21
-124.53
0
LINE
8
BLACK
6
CONTINUOUS
10
74.4734
20
-124.53
11
74.7725
21
-124.627
0
LINE
8
BLACK
6
CONTINUOUS
10
74.7725
20
-124.627
11
75.0801
21
-124.692
0
LINE
8
BLACK
6
CONTINUOUS
10
75.0801
20
-124.692
11
75.3928
21
-124.725
0
LINE
8
BLACK
6
CONTINUOUS
10
75.3928
20
-124.725
11
75.55
21
-124.725
0
LINE
8
BLACK
6
CONTINUOUS
10
75.55
20
-124.725
11
222.9
21
-124.725
0
LINE
8
BLACK
6
CONTINUOUS
10
222.9
20
-124.725
11
222.9
21
-124.725
0
LINE
8
BLACK
6
CONTINUOUS
10
222.9
20
-124.725
11
223.057
21
-124.725
0
LINE
8
BLACK
6
CONTINUOUS
10
223.057
20
-124.725
11
223.37
21
-124.692
0
LINE
8
BLACK
6
CONTINUOUS
10
223.37
20
-124.692
11
223.678
21
-124.627
0
LINE
8
BLACK
6
CONTINUOUS
10
223.678
20
-124.627
11
223.977
21
-124.53
0
LINE
8
BLACK
6
CONTINUOUS
10
223.977
20
-124.53
11
224.264
21
-124.402
0
LINE
8
BLACK
6
CONTINUOUS
10
224.264
20
-124.402
11
224.536
21
-124.244
0
LINE
8
BLACK
6
CONTINUOUS
10
224.536
20
-124.244
11
224.791
21
-124.06
0
LINE
8
BLACK
6
CONTINUOUS
10
224.791
20
-124.06
11
225.024
21
-123.849
0
LINE
8
BLACK
6
CONTINUOUS
10
225.024
20
-123.849
11
225.235
21
-123.616
0
LINE
8
BLACK
6
CONTINUOUS
10
225.235
20
-123.616
11
225.419
21
-123.361
0
LINE
8
BLACK
6
CONTINUOUS
10
225.419
20
-123.361
11
225.577
21
-123.089
0
LINE
8
BLACK
6
CONTINUOUS
10
225.577
20
-123.089
11
225.705
21
-122.802
0
LINE
8
BLACK
6
CONTINUOUS
10
225.705
20
-122.802
11
225.802
21
-122.503
0
LINE
8
BLACK
6
CONTINUOUS
10
225.802
20
-122.503
11
225.867
21
-122.195
0
LINE
8
BLACK
6
CONTINUOUS
10
225.867
20
-122.195
11
225.9
21
-121.882
0
LINE
8
BLACK
6
CONTINUOUS
10
225.9
20
-121.882
11
225.9
21
-121.725
0
LINE
8
BLACK
6
CONTINUOUS
10
225.9
20
-121.725
11
225.9
21
-106.975
0
LINE
8
BLACK
6
CONTINUOUS
10
225.9
20
-106.975
11
225.916
21
-106.772
0
LINE
8
BLACK
6
CONTINUOUS
10
225.916
20
-106.772
11
225.964
21
-106.573
0
LINE
8
BLACK
6
CONTINUOUS
10
225.964
20
-106.573
11
226.042
21
-106.385
0
LINE
8
BLACK
6
CONTINUOUS
10
226.042
20
-106.385
11
226.148
21
-106.211
0
LINE
8
BLACK
6
CONTINUOUS
10
226.148
20
-106.211
11
226.281
21
-106.056
0
LINE
8
BLACK
6
CONTINUOUS
10
226.281
20
-106.056
11
226.436
21
-105.923
0
LINE
8
BLACK
6
CONTINUOUS
10
226.436
20
-105.923
11
226.61
21
-105.817
0
LINE
8
BLACK
6
CONTINUOUS
10
226.61
20
-105.817
11
226.798
21
-105.739
0
LINE
8
BLACK
6
CONTINUOUS
10
226.798
20
-105.739
11
226.997
21
-105.691
0
LINE
8
BLACK
6
CONTINUOUS
10
226.997
20
-105.691
11
227.2
21
-105.675
0
LINE
8
BLACK
6
CONTINUOUS
10
227.2
20
-105.675
11
227.2
21
-105.675
0
LINE
8
BLACK
6
CONTINUOUS
10
227.2
20
-105.675
11
251.475
21
-105.675
0
LINE
8
BLACK
6
CONTINUOUS
10
251.475
20
-105.675
11
251.475
21
-105.675
0
LINE
8
BLACK
6
CONTINUOUS
10
251.475
20
-105.675
11
251.632
21
-105.675
0
LINE
8
BLACK
6
CONTINUOUS
10
251.632
20
-105.675
11
251.945
21
-105.642
0
LINE
8
BLACK
6
CONTINUOUS
10
251.945
20
-105.642
11
252.253
21
-105.577
0
LINE
8
BLACK
6
CONTINUOUS
10
252.253
20
-105.577
11
252.552
21
-105.48
0
LINE
8
BLACK
6
CONTINUOUS
10
252.552
20
-105.48
11
252.839
21
-105.352
0
LINE
8
BLACK
6
CONTINUOUS
10
252.839
20
-105.352
11
253.111
21
-105.194
0
LINE
8
BLACK
6
CONTINUOUS
10
253.111
20
-105.194
11
253.366
21
-105.01
0
LINE
8
BLACK
6
CONTINUOUS
10
253.366
20
-105.01
11
253.599
21
-104.799
0
LINE
8
BLACK
6
CONTINUOUS
10
253.599
20
-104.799
11
253.81
21
-104.566
0
LINE
8
BLACK
6
CONTINUOUS
10
253.81
20
-104.566
11
253.994
21
-104.311
0
LINE
8
BLACK
6
CONTINUOUS
10
253.994
20
-104.311
11
254.152
21
-104.039
0
LINE
8
BLACK
6
CONTINUOUS
10
254.152
20
-104.039
11
254.28
21
-103.752
0
LINE
8
BLACK
6
CONTINUOUS
10
254.28
20
-103.752
11
254.377
21
-103.453
0
LINE
8
BLACK
6
CONTINUOUS
10
254.377
20
-103.453
11
254.442
21
-103.145
0
LINE
8
BLACK
6
CONTINUOUS
10
254.442
20
-103.145
11
254.475
21
-102.832
0
LINE
8
BLACK
6
CONTINUOUS
10
254.475
20
-102.832
11
254.475
21
-102.675
0
LINE
8
BLACK
6
CONTINUOUS
10
254.475
20
-102.675
11
254.475
21
-50.575
0
LINE
8
BLACK
6
CONTINUOUS
10
254.475
20
-50.575
11
254.475
21
-50.575
0
LINE
8
BLACK
6
CONTINUOUS
10
254.475
20
-50.575
11
254.475
21
-50.4178
0
LINE
8
BLACK
6
CONTINUOUS
10
254.475
20
-50.4178
11
254.442
21
-50.1051
0
LINE
8
BLACK
6
CONTINUOUS
10
254.442
20
-50.1051
11
254.377
21
-49.7975
0
LINE
8
BLACK
6
CONTINUOUS
10
254.377
20
-49.7975
11
254.28
21
-49.4984
0
LINE
8
BLACK
6
CONTINUOUS
10
254.28
20
-49.4984
11
254.152
21
-49.2112
0
LINE
8
BLACK
6
CONTINUOUS
10
254.152
20
-49.2112
11
253.994
21
-48.9388
0
LINE
8
BLACK
6
CONTINUOUS
10
253.994
20
-48.9388
11
253.81
21
-48.6844
0
LINE
8
BLACK
6
CONTINUOUS
10
253.81
20
-48.6844
11
253.599
21
-48.4508
0
LINE
8
BLACK
6
CONTINUOUS
10
253.599
20
-48.4508
11
253.366
21
-48.2404
0
LINE
8
BLACK
6
CONTINUOUS
10
253.366
20
-48.2404
11
253.111
21
-48.0555
0
LINE
8
BLACK
6
CONTINUOUS
10
253.111
20
-48.0555
11
252.839
21
-47.8983
0
LINE
8
BLACK
6
CONTINUOUS
10
252.839
20
-47.8983
11
252.552
21
-47.7704
0
LINE
8
BLACK
6
CONTINUOUS
10
252.552
20
-47.7704
11
252.253
21
-47.6732
0
LINE
8
BLACK
6
CONTINUOUS
10
252.253
20
-47.6732
11
251.945
21
-47.6079
0
LINE
8
BLACK
6
CONTINUOUS
10
251.945
20
-47.6079
11
251.632
21
-47.575
0
LINE
8
BLACK
6
CONTINUOUS
10
251.632
20
-47.575
11
251.475
21
-47.575
0
LINE
8
BLACK
6
CONTINUOUS
10
251.475
20
-47.575
11
46.975
21
-47.575
  0
ENDSEC
  0
EOF
