  0
SECTION
  2
HEADER
  9
$ANGBASE
  50
0.0
  9
$ANGDIR
  70
1
  9
$MEASUREMENT
  70
0
  0
ENDSEC
  0
SECTION
  2
TABLES
  0
TABLE
  2
LTYPE
  70
4
  0
LTYPE
  5
40F
  2
CONTINUOUS
  70
0
  3
Solid line
  72
65
  73
0
  40
0.0
  0
LTYPE
  5
410
  2
DASHDOT
 70
0
  3
Dash Dot ____ _ ____ _
 72
65
 73
4
 40
2.0
 49
1.25
 49
-0.25
 49
0.25
 49
-0.25
  0
LTYPE
  5
411
  2
DASHED
 70
0
  3
Dashed __ __ __ __ __
 72
65
 73
2
 40
0.75
 49
0.5
 49
-0.25
  0
LTYPE
  5
43B
  2
DOTTED
 70
0
  3
Dotted .  .  .  .
 72
65
 73
2
 40
0.2
 49
0.0
 49
-0.2
  0
ENDTAB
  0
TABLE
  2
STYLE
  70
4
  0
STYLE
  2
KICAD
  70
0
  40
0
  41
1
  42
1
  50
0
  71
0
  3
isocp.shx
  0
STYLE
  2
KICADB
  70
0
  40
0
  41
1
  42
1
  50
0
  71
0
  3
isocp.shx
  0
STYLE
  2
KICADI
  70
0
  40
0
  41
1
  42
1
  50
15
  71
0
  3
isocp.shx
  0
STYLE
  2
KICADBI
  70
0
  40
0
  41
1
  42
1
  50
15
  71
0
  3
isocp.shx
  0
ENDTAB
  0
TABLE
  2
LAYER
  70
1
  0
LAYER
  2
BLACK
  70
0
  62
7
  6
CONTINUOUS
  0
ENDTAB
  0
ENDSEC
  0
SECTION
  2
ENTITIES
0
LINE
8
BLACK
6
CONTINUOUS
10
8.13685
20
-4.45835
11
8.1443
21
-4.46123
0
LINE
8
BLACK
6
CONTINUOUS
10
8.1443
20
-4.46123
11
8.1511
21
-4.46544
0
LINE
8
BLACK
6
CONTINUOUS
10
8.1511
20
-4.46544
11
8.157
21
-4.47082
0
LINE
8
BLACK
6
CONTINUOUS
10
8.157
20
-4.47082
11
8.16182
21
-4.4772
0
LINE
8
BLACK
6
CONTINUOUS
10
8.16182
20
-4.4772
11
8.16538
21
-4.48436
0
LINE
8
BLACK
6
CONTINUOUS
10
8.16538
20
-4.48436
11
8.16757
21
-4.49204
0
LINE
8
BLACK
6
CONTINUOUS
10
8.16757
20
-4.49204
11
8.16831
21
-4.5
0
LINE
8
BLACK
6
CONTINUOUS
10
8.16831
20
-4.5
11
8.16757
21
-4.50796
0
LINE
8
BLACK
6
CONTINUOUS
10
8.16757
20
-4.50796
11
8.16538
21
-4.51564
0
LINE
8
BLACK
6
CONTINUOUS
10
8.16538
20
-4.51564
11
8.16182
21
-4.5228
0
LINE
8
BLACK
6
CONTINUOUS
10
8.16182
20
-4.5228
11
8.157
21
-4.52918
0
LINE
8
BLACK
6
CONTINUOUS
10
8.157
20
-4.52918
11
8.1511
21
-4.53456
0
LINE
8
BLACK
6
CONTINUOUS
10
8.1511
20
-4.53456
11
8.1443
21
-4.53877
0
LINE
8
BLACK
6
CONTINUOUS
10
8.1443
20
-4.53877
11
8.13685
21
-4.54165
0
LINE
8
BLACK
6
CONTINUOUS
10
8.13685
20
-4.54165
11
8.129
21
-4.54312
0
LINE
8
BLACK
6
CONTINUOUS
10
8.129
20
-4.54312
11
8.121
21
-4.54312
0
LINE
8
BLACK
6
CONTINUOUS
10
8.121
20
-4.54312
11
8.11315
21
-4.54165
0
LINE
8
BLACK
6
CONTINUOUS
10
8.11315
20
-4.54165
11
8.1057
21
-4.53877
0
LINE
8
BLACK
6
CONTINUOUS
10
8.1057
20
-4.53877
11
8.0989
21
-4.53456
0
LINE
8
BLACK
6
CONTINUOUS
10
8.0989
20
-4.53456
11
8.093
21
-4.52918
0
LINE
8
BLACK
6
CONTINUOUS
10
8.093
20
-4.52918
11
8.08818
21
-4.5228
0
LINE
8
BLACK
6
CONTINUOUS
10
8.08818
20
-4.5228
11
8.08462
21
-4.51564
0
LINE
8
BLACK
6
CONTINUOUS
10
8.08462
20
-4.51564
11
8.08243
21
-4.50796
0
LINE
8
BLACK
6
CONTINUOUS
10
8.08243
20
-4.50796
11
8.08169
21
-4.5
0
LINE
8
BLACK
6
CONTINUOUS
10
8.08169
20
-4.5
11
8.08243
21
-4.49204
0
LINE
8
BLACK
6
CONTINUOUS
10
8.08243
20
-4.49204
11
8.08462
21
-4.48436
0
LINE
8
BLACK
6
CONTINUOUS
10
8.08462
20
-4.48436
11
8.08818
21
-4.4772
0
LINE
8
BLACK
6
CONTINUOUS
10
8.08818
20
-4.4772
11
8.093
21
-4.47082
0
LINE
8
BLACK
6
CONTINUOUS
10
8.093
20
-4.47082
11
8.0989
21
-4.46544
0
LINE
8
BLACK
6
CONTINUOUS
10
8.0989
20
-4.46544
11
8.1057
21
-4.46123
0
LINE
8
BLACK
6
CONTINUOUS
10
8.1057
20
-4.46123
11
8.11315
21
-4.45835
0
LINE
8
BLACK
6
CONTINUOUS
10
8.11315
20
-4.45835
11
8.121
21
-4.45688
0
LINE
8
BLACK
6
CONTINUOUS
10
8.121
20
-4.45688
11
8.129
21
-4.45688
0
LINE
8
BLACK
6
CONTINUOUS
10
8.129
20
-4.45688
11
8.13685
21
-4.45835
0
LINE
8
BLACK
6
CONTINUOUS
10
6.9181
20
-4.45835
11
6.92555
21
-4.46123
0
LINE
8
BLACK
6
CONTINUOUS
10
6.92555
20
-4.46123
11
6.93235
21
-4.46544
0
LINE
8
BLACK
6
CONTINUOUS
10
6.93235
20
-4.46544
11
6.93825
21
-4.47082
0
LINE
8
BLACK
6
CONTINUOUS
10
6.93825
20
-4.47082
11
6.94307
21
-4.4772
0
LINE
8
BLACK
6
CONTINUOUS
10
6.94307
20
-4.4772
11
6.94663
21
-4.48436
0
LINE
8
BLACK
6
CONTINUOUS
10
6.94663
20
-4.48436
11
6.94882
21
-4.49204
0
LINE
8
BLACK
6
CONTINUOUS
10
6.94882
20
-4.49204
11
6.94956
21
-4.5
0
LINE
8
BLACK
6
CONTINUOUS
10
6.94956
20
-4.5
11
6.94882
21
-4.50796
0
LINE
8
BLACK
6
CONTINUOUS
10
6.94882
20
-4.50796
11
6.94663
21
-4.51564
0
LINE
8
BLACK
6
CONTINUOUS
10
6.94663
20
-4.51564
11
6.94307
21
-4.5228
0
LINE
8
BLACK
6
CONTINUOUS
10
6.94307
20
-4.5228
11
6.93825
21
-4.52918
0
LINE
8
BLACK
6
CONTINUOUS
10
6.93825
20
-4.52918
11
6.93235
21
-4.53456
0
LINE
8
BLACK
6
CONTINUOUS
10
6.93235
20
-4.53456
11
6.92555
21
-4.53877
0
LINE
8
BLACK
6
CONTINUOUS
10
6.92555
20
-4.53877
11
6.9181
21
-4.54165
0
LINE
8
BLACK
6
CONTINUOUS
10
6.9181
20
-4.54165
11
6.91025
21
-4.54312
0
LINE
8
BLACK
6
CONTINUOUS
10
6.91025
20
-4.54312
11
6.90225
21
-4.54312
0
LINE
8
BLACK
6
CONTINUOUS
10
6.90225
20
-4.54312
11
6.8944
21
-4.54165
0
LINE
8
BLACK
6
CONTINUOUS
10
6.8944
20
-4.54165
11
6.88695
21
-4.53877
0
LINE
8
BLACK
6
CONTINUOUS
10
6.88695
20
-4.53877
11
6.88015
21
-4.53456
0
LINE
8
BLACK
6
CONTINUOUS
10
6.88015
20
-4.53456
11
6.87425
21
-4.52918
0
LINE
8
BLACK
6
CONTINUOUS
10
6.87425
20
-4.52918
11
6.86943
21
-4.5228
0
LINE
8
BLACK
6
CONTINUOUS
10
6.86943
20
-4.5228
11
6.86587
21
-4.51564
0
LINE
8
BLACK
6
CONTINUOUS
10
6.86587
20
-4.51564
11
6.86368
21
-4.50796
0
LINE
8
BLACK
6
CONTINUOUS
10
6.86368
20
-4.50796
11
6.86294
21
-4.5
0
LINE
8
BLACK
6
CONTINUOUS
10
6.86294
20
-4.5
11
6.86368
21
-4.49204
0
LINE
8
BLACK
6
CONTINUOUS
10
6.86368
20
-4.49204
11
6.86587
21
-4.48436
0
LINE
8
BLACK
6
CONTINUOUS
10
6.86587
20
-4.48436
11
6.86943
21
-4.4772
0
LINE
8
BLACK
6
CONTINUOUS
10
6.86943
20
-4.4772
11
6.87425
21
-4.47082
0
LINE
8
BLACK
6
CONTINUOUS
10
6.87425
20
-4.47082
11
6.88015
21
-4.46544
0
LINE
8
BLACK
6
CONTINUOUS
10
6.88015
20
-4.46544
11
6.88695
21
-4.46123
0
LINE
8
BLACK
6
CONTINUOUS
10
6.88695
20
-4.46123
11
6.8944
21
-4.45835
0
LINE
8
BLACK
6
CONTINUOUS
10
6.8944
20
-4.45835
11
6.90225
21
-4.45688
0
LINE
8
BLACK
6
CONTINUOUS
10
6.90225
20
-4.45688
11
6.91025
21
-4.45688
0
LINE
8
BLACK
6
CONTINUOUS
10
6.91025
20
-4.45688
11
6.9181
21
-4.45835
0
LINE
8
BLACK
6
CONTINUOUS
10
4.8556
20
-4.45835
11
4.86305
21
-4.46123
0
LINE
8
BLACK
6
CONTINUOUS
10
4.86305
20
-4.46123
11
4.86985
21
-4.46544
0
LINE
8
BLACK
6
CONTINUOUS
10
4.86985
20
-4.46544
11
4.87575
21
-4.47082
0
LINE
8
BLACK
6
CONTINUOUS
10
4.87575
20
-4.47082
11
4.88057
21
-4.4772
0
LINE
8
BLACK
6
CONTINUOUS
10
4.88057
20
-4.4772
11
4.88413
21
-4.48436
0
LINE
8
BLACK
6
CONTINUOUS
10
4.88413
20
-4.48436
11
4.88632
21
-4.49204
0
LINE
8
BLACK
6
CONTINUOUS
10
4.88632
20
-4.49204
11
4.88706
21
-4.5
0
LINE
8
BLACK
6
CONTINUOUS
10
4.88706
20
-4.5
11
4.88632
21
-4.50796
0
LINE
8
BLACK
6
CONTINUOUS
10
4.88632
20
-4.50796
11
4.88413
21
-4.51564
0
LINE
8
BLACK
6
CONTINUOUS
10
4.88413
20
-4.51564
11
4.88057
21
-4.5228
0
LINE
8
BLACK
6
CONTINUOUS
10
4.88057
20
-4.5228
11
4.87575
21
-4.52918
0
LINE
8
BLACK
6
CONTINUOUS
10
4.87575
20
-4.52918
11
4.86985
21
-4.53456
0
LINE
8
BLACK
6
CONTINUOUS
10
4.86985
20
-4.53456
11
4.86305
21
-4.53877
0
LINE
8
BLACK
6
CONTINUOUS
10
4.86305
20
-4.53877
11
4.8556
21
-4.54165
0
LINE
8
BLACK
6
CONTINUOUS
10
4.8556
20
-4.54165
11
4.84775
21
-4.54312
0
LINE
8
BLACK
6
CONTINUOUS
10
4.84775
20
-4.54312
11
4.83975
21
-4.54312
0
LINE
8
BLACK
6
CONTINUOUS
10
4.83975
20
-4.54312
11
4.8319
21
-4.54165
0
LINE
8
BLACK
6
CONTINUOUS
10
4.8319
20
-4.54165
11
4.82445
21
-4.53877
0
LINE
8
BLACK
6
CONTINUOUS
10
4.82445
20
-4.53877
11
4.81765
21
-4.53456
0
LINE
8
BLACK
6
CONTINUOUS
10
4.81765
20
-4.53456
11
4.81175
21
-4.52918
0
LINE
8
BLACK
6
CONTINUOUS
10
4.81175
20
-4.52918
11
4.80693
21
-4.5228
0
LINE
8
BLACK
6
CONTINUOUS
10
4.80693
20
-4.5228
11
4.80337
21
-4.51564
0
LINE
8
BLACK
6
CONTINUOUS
10
4.80337
20
-4.51564
11
4.80118
21
-4.50796
0
LINE
8
BLACK
6
CONTINUOUS
10
4.80118
20
-4.50796
11
4.80044
21
-4.5
0
LINE
8
BLACK
6
CONTINUOUS
10
4.80044
20
-4.5
11
4.80118
21
-4.49204
0
LINE
8
BLACK
6
CONTINUOUS
10
4.80118
20
-4.49204
11
4.80337
21
-4.48436
0
LINE
8
BLACK
6
CONTINUOUS
10
4.80337
20
-4.48436
11
4.80693
21
-4.4772
0
LINE
8
BLACK
6
CONTINUOUS
10
4.80693
20
-4.4772
11
4.81175
21
-4.47082
0
LINE
8
BLACK
6
CONTINUOUS
10
4.81175
20
-4.47082
11
4.81765
21
-4.46544
0
LINE
8
BLACK
6
CONTINUOUS
10
4.81765
20
-4.46544
11
4.82445
21
-4.46123
0
LINE
8
BLACK
6
CONTINUOUS
10
4.82445
20
-4.46123
11
4.8319
21
-4.45835
0
LINE
8
BLACK
6
CONTINUOUS
10
4.8319
20
-4.45835
11
4.83975
21
-4.45688
0
LINE
8
BLACK
6
CONTINUOUS
10
4.83975
20
-4.45688
11
4.84775
21
-4.45688
0
LINE
8
BLACK
6
CONTINUOUS
10
4.84775
20
-4.45688
11
4.8556
21
-4.45835
0
LINE
8
BLACK
6
CONTINUOUS
10
3.63685
20
-4.45835
11
3.6443
21
-4.46123
0
LINE
8
BLACK
6
CONTINUOUS
10
3.6443
20
-4.46123
11
3.6511
21
-4.46544
0
LINE
8
BLACK
6
CONTINUOUS
10
3.6511
20
-4.46544
11
3.657
21
-4.47082
0
LINE
8
BLACK
6
CONTINUOUS
10
3.657
20
-4.47082
11
3.66182
21
-4.4772
0
LINE
8
BLACK
6
CONTINUOUS
10
3.66182
20
-4.4772
11
3.66538
21
-4.48436
0
LINE
8
BLACK
6
CONTINUOUS
10
3.66538
20
-4.48436
11
3.66757
21
-4.49204
0
LINE
8
BLACK
6
CONTINUOUS
10
3.66757
20
-4.49204
11
3.66831
21
-4.5
0
LINE
8
BLACK
6
CONTINUOUS
10
3.66831
20
-4.5
11
3.66757
21
-4.50796
0
LINE
8
BLACK
6
CONTINUOUS
10
3.66757
20
-4.50796
11
3.66538
21
-4.51564
0
LINE
8
BLACK
6
CONTINUOUS
10
3.66538
20
-4.51564
11
3.66182
21
-4.5228
0
LINE
8
BLACK
6
CONTINUOUS
10
3.66182
20
-4.5228
11
3.657
21
-4.52918
0
LINE
8
BLACK
6
CONTINUOUS
10
3.657
20
-4.52918
11
3.6511
21
-4.53456
0
LINE
8
BLACK
6
CONTINUOUS
10
3.6511
20
-4.53456
11
3.6443
21
-4.53877
0
LINE
8
BLACK
6
CONTINUOUS
10
3.6443
20
-4.53877
11
3.63685
21
-4.54165
0
LINE
8
BLACK
6
CONTINUOUS
10
3.63685
20
-4.54165
11
3.629
21
-4.54312
0
LINE
8
BLACK
6
CONTINUOUS
10
3.629
20
-4.54312
11
3.621
21
-4.54312
0
LINE
8
BLACK
6
CONTINUOUS
10
3.621
20
-4.54312
11
3.61315
21
-4.54165
0
LINE
8
BLACK
6
CONTINUOUS
10
3.61315
20
-4.54165
11
3.6057
21
-4.53877
0
LINE
8
BLACK
6
CONTINUOUS
10
3.6057
20
-4.53877
11
3.5989
21
-4.53456
0
LINE
8
BLACK
6
CONTINUOUS
10
3.5989
20
-4.53456
11
3.593
21
-4.52918
0
LINE
8
BLACK
6
CONTINUOUS
10
3.593
20
-4.52918
11
3.58818
21
-4.5228
0
LINE
8
BLACK
6
CONTINUOUS
10
3.58818
20
-4.5228
11
3.58462
21
-4.51564
0
LINE
8
BLACK
6
CONTINUOUS
10
3.58462
20
-4.51564
11
3.58243
21
-4.50796
0
LINE
8
BLACK
6
CONTINUOUS
10
3.58243
20
-4.50796
11
3.58169
21
-4.5
0
LINE
8
BLACK
6
CONTINUOUS
10
3.58169
20
-4.5
11
3.58243
21
-4.49204
0
LINE
8
BLACK
6
CONTINUOUS
10
3.58243
20
-4.49204
11
3.58462
21
-4.48436
0
LINE
8
BLACK
6
CONTINUOUS
10
3.58462
20
-4.48436
11
3.58818
21
-4.4772
0
LINE
8
BLACK
6
CONTINUOUS
10
3.58818
20
-4.4772
11
3.593
21
-4.47082
0
LINE
8
BLACK
6
CONTINUOUS
10
3.593
20
-4.47082
11
3.5989
21
-4.46544
0
LINE
8
BLACK
6
CONTINUOUS
10
3.5989
20
-4.46544
11
3.6057
21
-4.46123
0
LINE
8
BLACK
6
CONTINUOUS
10
3.6057
20
-4.46123
11
3.61315
21
-4.45835
0
LINE
8
BLACK
6
CONTINUOUS
10
3.61315
20
-4.45835
11
3.621
21
-4.45688
0
LINE
8
BLACK
6
CONTINUOUS
10
3.621
20
-4.45688
11
3.629
21
-4.45688
0
LINE
8
BLACK
6
CONTINUOUS
10
3.629
20
-4.45688
11
3.63685
21
-4.45835
0
LINE
8
BLACK
6
CONTINUOUS
10
9.1681
20
-3.70835
11
9.17555
21
-3.71123
0
LINE
8
BLACK
6
CONTINUOUS
10
9.17555
20
-3.71123
11
9.18235
21
-3.71544
0
LINE
8
BLACK
6
CONTINUOUS
10
9.18235
20
-3.71544
11
9.18825
21
-3.72082
0
LINE
8
BLACK
6
CONTINUOUS
10
9.18825
20
-3.72082
11
9.19307
21
-3.7272
0
LINE
8
BLACK
6
CONTINUOUS
10
9.19307
20
-3.7272
11
9.19663
21
-3.73436
0
LINE
8
BLACK
6
CONTINUOUS
10
9.19663
20
-3.73436
11
9.19882
21
-3.74204
0
LINE
8
BLACK
6
CONTINUOUS
10
9.19882
20
-3.74204
11
9.19956
21
-3.75
0
LINE
8
BLACK
6
CONTINUOUS
10
9.19956
20
-3.75
11
9.19882
21
-3.75796
0
LINE
8
BLACK
6
CONTINUOUS
10
9.19882
20
-3.75796
11
9.19663
21
-3.76564
0
LINE
8
BLACK
6
CONTINUOUS
10
9.19663
20
-3.76564
11
9.19307
21
-3.7728
0
LINE
8
BLACK
6
CONTINUOUS
10
9.19307
20
-3.7728
11
9.18825
21
-3.77918
0
LINE
8
BLACK
6
CONTINUOUS
10
9.18825
20
-3.77918
11
9.18235
21
-3.78456
0
LINE
8
BLACK
6
CONTINUOUS
10
9.18235
20
-3.78456
11
9.17555
21
-3.78877
0
LINE
8
BLACK
6
CONTINUOUS
10
9.17555
20
-3.78877
11
9.1681
21
-3.79165
0
LINE
8
BLACK
6
CONTINUOUS
10
9.1681
20
-3.79165
11
9.16025
21
-3.79312
0
LINE
8
BLACK
6
CONTINUOUS
10
9.16025
20
-3.79312
11
9.15225
21
-3.79312
0
LINE
8
BLACK
6
CONTINUOUS
10
9.15225
20
-3.79312
11
9.1444
21
-3.79165
0
LINE
8
BLACK
6
CONTINUOUS
10
9.1444
20
-3.79165
11
9.13695
21
-3.78877
0
LINE
8
BLACK
6
CONTINUOUS
10
9.13695
20
-3.78877
11
9.13015
21
-3.78456
0
LINE
8
BLACK
6
CONTINUOUS
10
9.13015
20
-3.78456
11
9.12425
21
-3.77918
0
LINE
8
BLACK
6
CONTINUOUS
10
9.12425
20
-3.77918
11
9.11943
21
-3.7728
0
LINE
8
BLACK
6
CONTINUOUS
10
9.11943
20
-3.7728
11
9.11587
21
-3.76564
0
LINE
8
BLACK
6
CONTINUOUS
10
9.11587
20
-3.76564
11
9.11368
21
-3.75796
0
LINE
8
BLACK
6
CONTINUOUS
10
9.11368
20
-3.75796
11
9.11294
21
-3.75
0
LINE
8
BLACK
6
CONTINUOUS
10
9.11294
20
-3.75
11
9.11368
21
-3.74204
0
LINE
8
BLACK
6
CONTINUOUS
10
9.11368
20
-3.74204
11
9.11587
21
-3.73436
0
LINE
8
BLACK
6
CONTINUOUS
10
9.11587
20
-3.73436
11
9.11943
21
-3.7272
0
LINE
8
BLACK
6
CONTINUOUS
10
9.11943
20
-3.7272
11
9.12425
21
-3.72082
0
LINE
8
BLACK
6
CONTINUOUS
10
9.12425
20
-3.72082
11
9.13015
21
-3.71544
0
LINE
8
BLACK
6
CONTINUOUS
10
9.13015
20
-3.71544
11
9.13695
21
-3.71123
0
LINE
8
BLACK
6
CONTINUOUS
10
9.13695
20
-3.71123
11
9.1444
21
-3.70835
0
LINE
8
BLACK
6
CONTINUOUS
10
9.1444
20
-3.70835
11
9.15225
21
-3.70688
0
LINE
8
BLACK
6
CONTINUOUS
10
9.15225
20
-3.70688
11
9.16025
21
-3.70688
0
LINE
8
BLACK
6
CONTINUOUS
10
9.16025
20
-3.70688
11
9.1681
21
-3.70835
0
LINE
8
BLACK
6
CONTINUOUS
10
7.57435
20
-3.70835
11
7.5818
21
-3.71123
0
LINE
8
BLACK
6
CONTINUOUS
10
7.5818
20
-3.71123
11
7.5886
21
-3.71544
0
LINE
8
BLACK
6
CONTINUOUS
10
7.5886
20
-3.71544
11
7.5945
21
-3.72082
0
LINE
8
BLACK
6
CONTINUOUS
10
7.5945
20
-3.72082
11
7.59932
21
-3.7272
0
LINE
8
BLACK
6
CONTINUOUS
10
7.59932
20
-3.7272
11
7.60288
21
-3.73436
0
LINE
8
BLACK
6
CONTINUOUS
10
7.60288
20
-3.73436
11
7.60507
21
-3.74204
0
LINE
8
BLACK
6
CONTINUOUS
10
7.60507
20
-3.74204
11
7.60581
21
-3.75
0
LINE
8
BLACK
6
CONTINUOUS
10
7.60581
20
-3.75
11
7.60507
21
-3.75796
0
LINE
8
BLACK
6
CONTINUOUS
10
7.60507
20
-3.75796
11
7.60288
21
-3.76564
0
LINE
8
BLACK
6
CONTINUOUS
10
7.60288
20
-3.76564
11
7.59932
21
-3.7728
0
LINE
8
BLACK
6
CONTINUOUS
10
7.59932
20
-3.7728
11
7.5945
21
-3.77918
0
LINE
8
BLACK
6
CONTINUOUS
10
7.5945
20
-3.77918
11
7.5886
21
-3.78456
0
LINE
8
BLACK
6
CONTINUOUS
10
7.5886
20
-3.78456
11
7.5818
21
-3.78877
0
LINE
8
BLACK
6
CONTINUOUS
10
7.5818
20
-3.78877
11
7.57435
21
-3.79165
0
LINE
8
BLACK
6
CONTINUOUS
10
7.57435
20
-3.79165
11
7.5665
21
-3.79312
0
LINE
8
BLACK
6
CONTINUOUS
10
7.5665
20
-3.79312
11
7.5585
21
-3.79312
0
LINE
8
BLACK
6
CONTINUOUS
10
7.5585
20
-3.79312
11
7.55065
21
-3.79165
0
LINE
8
BLACK
6
CONTINUOUS
10
7.55065
20
-3.79165
11
7.5432
21
-3.78877
0
LINE
8
BLACK
6
CONTINUOUS
10
7.5432
20
-3.78877
11
7.5364
21
-3.78456
0
LINE
8
BLACK
6
CONTINUOUS
10
7.5364
20
-3.78456
11
7.5305
21
-3.77918
0
LINE
8
BLACK
6
CONTINUOUS
10
7.5305
20
-3.77918
11
7.52568
21
-3.7728
0
LINE
8
BLACK
6
CONTINUOUS
10
7.52568
20
-3.7728
11
7.52212
21
-3.76564
0
LINE
8
BLACK
6
CONTINUOUS
10
7.52212
20
-3.76564
11
7.51993
21
-3.75796
0
LINE
8
BLACK
6
CONTINUOUS
10
7.51993
20
-3.75796
11
7.51919
21
-3.75
0
LINE
8
BLACK
6
CONTINUOUS
10
7.51919
20
-3.75
11
7.51993
21
-3.74204
0
LINE
8
BLACK
6
CONTINUOUS
10
7.51993
20
-3.74204
11
7.52212
21
-3.73436
0
LINE
8
BLACK
6
CONTINUOUS
10
7.52212
20
-3.73436
11
7.52568
21
-3.7272
0
LINE
8
BLACK
6
CONTINUOUS
10
7.52568
20
-3.7272
11
7.5305
21
-3.72082
0
LINE
8
BLACK
6
CONTINUOUS
10
7.5305
20
-3.72082
11
7.5364
21
-3.71544
0
LINE
8
BLACK
6
CONTINUOUS
10
7.5364
20
-3.71544
11
7.5432
21
-3.71123
0
LINE
8
BLACK
6
CONTINUOUS
10
7.5432
20
-3.71123
11
7.55065
21
-3.70835
0
LINE
8
BLACK
6
CONTINUOUS
10
7.55065
20
-3.70835
11
7.5585
21
-3.70688
0
LINE
8
BLACK
6
CONTINUOUS
10
7.5585
20
-3.70688
11
7.5665
21
-3.70688
0
LINE
8
BLACK
6
CONTINUOUS
10
7.5665
20
-3.70688
11
7.57435
21
-3.70835
0
LINE
8
BLACK
6
CONTINUOUS
10
6.07435
20
-3.70835
11
6.0818
21
-3.71123
0
LINE
8
BLACK
6
CONTINUOUS
10
6.0818
20
-3.71123
11
6.0886
21
-3.71544
0
LINE
8
BLACK
6
CONTINUOUS
10
6.0886
20
-3.71544
11
6.0945
21
-3.72082
0
LINE
8
BLACK
6
CONTINUOUS
10
6.0945
20
-3.72082
11
6.09932
21
-3.7272
0
LINE
8
BLACK
6
CONTINUOUS
10
6.09932
20
-3.7272
11
6.10288
21
-3.73436
0
LINE
8
BLACK
6
CONTINUOUS
10
6.10288
20
-3.73436
11
6.10507
21
-3.74204
0
LINE
8
BLACK
6
CONTINUOUS
10
6.10507
20
-3.74204
11
6.10581
21
-3.75
0
LINE
8
BLACK
6
CONTINUOUS
10
6.10581
20
-3.75
11
6.10507
21
-3.75796
0
LINE
8
BLACK
6
CONTINUOUS
10
6.10507
20
-3.75796
11
6.10288
21
-3.76564
0
LINE
8
BLACK
6
CONTINUOUS
10
6.10288
20
-3.76564
11
6.09932
21
-3.7728
0
LINE
8
BLACK
6
CONTINUOUS
10
6.09932
20
-3.7728
11
6.0945
21
-3.77918
0
LINE
8
BLACK
6
CONTINUOUS
10
6.0945
20
-3.77918
11
6.0886
21
-3.78456
0
LINE
8
BLACK
6
CONTINUOUS
10
6.0886
20
-3.78456
11
6.0818
21
-3.78877
0
LINE
8
BLACK
6
CONTINUOUS
10
6.0818
20
-3.78877
11
6.07435
21
-3.79165
0
LINE
8
BLACK
6
CONTINUOUS
10
6.07435
20
-3.79165
11
6.0665
21
-3.79312
0
LINE
8
BLACK
6
CONTINUOUS
10
6.0665
20
-3.79312
11
6.0585
21
-3.79312
0
LINE
8
BLACK
6
CONTINUOUS
10
6.0585
20
-3.79312
11
6.05065
21
-3.79165
0
LINE
8
BLACK
6
CONTINUOUS
10
6.05065
20
-3.79165
11
6.0432
21
-3.78877
0
LINE
8
BLACK
6
CONTINUOUS
10
6.0432
20
-3.78877
11
6.0364
21
-3.78456
0
LINE
8
BLACK
6
CONTINUOUS
10
6.0364
20
-3.78456
11
6.0305
21
-3.77918
0
LINE
8
BLACK
6
CONTINUOUS
10
6.0305
20
-3.77918
11
6.02568
21
-3.7728
0
LINE
8
BLACK
6
CONTINUOUS
10
6.02568
20
-3.7728
11
6.02212
21
-3.76564
0
LINE
8
BLACK
6
CONTINUOUS
10
6.02212
20
-3.76564
11
6.01993
21
-3.75796
0
LINE
8
BLACK
6
CONTINUOUS
10
6.01993
20
-3.75796
11
6.01919
21
-3.75
0
LINE
8
BLACK
6
CONTINUOUS
10
6.01919
20
-3.75
11
6.01993
21
-3.74204
0
LINE
8
BLACK
6
CONTINUOUS
10
6.01993
20
-3.74204
11
6.02212
21
-3.73436
0
LINE
8
BLACK
6
CONTINUOUS
10
6.02212
20
-3.73436
11
6.02568
21
-3.7272
0
LINE
8
BLACK
6
CONTINUOUS
10
6.02568
20
-3.7272
11
6.0305
21
-3.72082
0
LINE
8
BLACK
6
CONTINUOUS
10
6.0305
20
-3.72082
11
6.0364
21
-3.71544
0
LINE
8
BLACK
6
CONTINUOUS
10
6.0364
20
-3.71544
11
6.0432
21
-3.71123
0
LINE
8
BLACK
6
CONTINUOUS
10
6.0432
20
-3.71123
11
6.05065
21
-3.70835
0
LINE
8
BLACK
6
CONTINUOUS
10
6.05065
20
-3.70835
11
6.0585
21
-3.70688
0
LINE
8
BLACK
6
CONTINUOUS
10
6.0585
20
-3.70688
11
6.0665
21
-3.70688
0
LINE
8
BLACK
6
CONTINUOUS
10
6.0665
20
-3.70688
11
6.07435
21
-3.70835
0
LINE
8
BLACK
6
CONTINUOUS
10
4.57435
20
-3.70835
11
4.5818
21
-3.71123
0
LINE
8
BLACK
6
CONTINUOUS
10
4.5818
20
-3.71123
11
4.5886
21
-3.71544
0
LINE
8
BLACK
6
CONTINUOUS
10
4.5886
20
-3.71544
11
4.5945
21
-3.72082
0
LINE
8
BLACK
6
CONTINUOUS
10
4.5945
20
-3.72082
11
4.59932
21
-3.7272
0
LINE
8
BLACK
6
CONTINUOUS
10
4.59932
20
-3.7272
11
4.60288
21
-3.73436
0
LINE
8
BLACK
6
CONTINUOUS
10
4.60288
20
-3.73436
11
4.60507
21
-3.74204
0
LINE
8
BLACK
6
CONTINUOUS
10
4.60507
20
-3.74204
11
4.60581
21
-3.75
0
LINE
8
BLACK
6
CONTINUOUS
10
4.60581
20
-3.75
11
4.60507
21
-3.75796
0
LINE
8
BLACK
6
CONTINUOUS
10
4.60507
20
-3.75796
11
4.60288
21
-3.76564
0
LINE
8
BLACK
6
CONTINUOUS
10
4.60288
20
-3.76564
11
4.59932
21
-3.7728
0
LINE
8
BLACK
6
CONTINUOUS
10
4.59932
20
-3.7728
11
4.5945
21
-3.77918
0
LINE
8
BLACK
6
CONTINUOUS
10
4.5945
20
-3.77918
11
4.5886
21
-3.78456
0
LINE
8
BLACK
6
CONTINUOUS
10
4.5886
20
-3.78456
11
4.5818
21
-3.78877
0
LINE
8
BLACK
6
CONTINUOUS
10
4.5818
20
-3.78877
11
4.57435
21
-3.79165
0
LINE
8
BLACK
6
CONTINUOUS
10
4.57435
20
-3.79165
11
4.5665
21
-3.79312
0
LINE
8
BLACK
6
CONTINUOUS
10
4.5665
20
-3.79312
11
4.5585
21
-3.79312
0
LINE
8
BLACK
6
CONTINUOUS
10
4.5585
20
-3.79312
11
4.55065
21
-3.79165
0
LINE
8
BLACK
6
CONTINUOUS
10
4.55065
20
-3.79165
11
4.5432
21
-3.78877
0
LINE
8
BLACK
6
CONTINUOUS
10
4.5432
20
-3.78877
11
4.5364
21
-3.78456
0
LINE
8
BLACK
6
CONTINUOUS
10
4.5364
20
-3.78456
11
4.5305
21
-3.77918
0
LINE
8
BLACK
6
CONTINUOUS
10
4.5305
20
-3.77918
11
4.52568
21
-3.7728
0
LINE
8
BLACK
6
CONTINUOUS
10
4.52568
20
-3.7728
11
4.52212
21
-3.76564
0
LINE
8
BLACK
6
CONTINUOUS
10
4.52212
20
-3.76564
11
4.51993
21
-3.75796
0
LINE
8
BLACK
6
CONTINUOUS
10
4.51993
20
-3.75796
11
4.51919
21
-3.75
0
LINE
8
BLACK
6
CONTINUOUS
10
4.51919
20
-3.75
11
4.51993
21
-3.74204
0
LINE
8
BLACK
6
CONTINUOUS
10
4.51993
20
-3.74204
11
4.52212
21
-3.73436
0
LINE
8
BLACK
6
CONTINUOUS
10
4.52212
20
-3.73436
11
4.52568
21
-3.7272
0
LINE
8
BLACK
6
CONTINUOUS
10
4.52568
20
-3.7272
11
4.5305
21
-3.72082
0
LINE
8
BLACK
6
CONTINUOUS
10
4.5305
20
-3.72082
11
4.5364
21
-3.71544
0
LINE
8
BLACK
6
CONTINUOUS
10
4.5364
20
-3.71544
11
4.5432
21
-3.71123
0
LINE
8
BLACK
6
CONTINUOUS
10
4.5432
20
-3.71123
11
4.55065
21
-3.70835
0
LINE
8
BLACK
6
CONTINUOUS
10
4.55065
20
-3.70835
11
4.5585
21
-3.70688
0
LINE
8
BLACK
6
CONTINUOUS
10
4.5585
20
-3.70688
11
4.5665
21
-3.70688
0
LINE
8
BLACK
6
CONTINUOUS
10
4.5665
20
-3.70688
11
4.57435
21
-3.70835
0
LINE
8
BLACK
6
CONTINUOUS
10
2.7931
20
-3.70835
11
2.80055
21
-3.71123
0
LINE
8
BLACK
6
CONTINUOUS
10
2.80055
20
-3.71123
11
2.80735
21
-3.71544
0
LINE
8
BLACK
6
CONTINUOUS
10
2.80735
20
-3.71544
11
2.81325
21
-3.72082
0
LINE
8
BLACK
6
CONTINUOUS
10
2.81325
20
-3.72082
11
2.81807
21
-3.7272
0
LINE
8
BLACK
6
CONTINUOUS
10
2.81807
20
-3.7272
11
2.82163
21
-3.73436
0
LINE
8
BLACK
6
CONTINUOUS
10
2.82163
20
-3.73436
11
2.82382
21
-3.74204
0
LINE
8
BLACK
6
CONTINUOUS
10
2.82382
20
-3.74204
11
2.82456
21
-3.75
0
LINE
8
BLACK
6
CONTINUOUS
10
2.82456
20
-3.75
11
2.82382
21
-3.75796
0
LINE
8
BLACK
6
CONTINUOUS
10
2.82382
20
-3.75796
11
2.82163
21
-3.76564
0
LINE
8
BLACK
6
CONTINUOUS
10
2.82163
20
-3.76564
11
2.81807
21
-3.7728
0
LINE
8
BLACK
6
CONTINUOUS
10
2.81807
20
-3.7728
11
2.81325
21
-3.77918
0
LINE
8
BLACK
6
CONTINUOUS
10
2.81325
20
-3.77918
11
2.80735
21
-3.78456
0
LINE
8
BLACK
6
CONTINUOUS
10
2.80735
20
-3.78456
11
2.80055
21
-3.78877
0
LINE
8
BLACK
6
CONTINUOUS
10
2.80055
20
-3.78877
11
2.7931
21
-3.79165
0
LINE
8
BLACK
6
CONTINUOUS
10
2.7931
20
-3.79165
11
2.78525
21
-3.79312
0
LINE
8
BLACK
6
CONTINUOUS
10
2.78525
20
-3.79312
11
2.77725
21
-3.79312
0
LINE
8
BLACK
6
CONTINUOUS
10
2.77725
20
-3.79312
11
2.7694
21
-3.79165
0
LINE
8
BLACK
6
CONTINUOUS
10
2.7694
20
-3.79165
11
2.76195
21
-3.78877
0
LINE
8
BLACK
6
CONTINUOUS
10
2.76195
20
-3.78877
11
2.75515
21
-3.78456
0
LINE
8
BLACK
6
CONTINUOUS
10
2.75515
20
-3.78456
11
2.74925
21
-3.77918
0
LINE
8
BLACK
6
CONTINUOUS
10
2.74925
20
-3.77918
11
2.74443
21
-3.7728
0
LINE
8
BLACK
6
CONTINUOUS
10
2.74443
20
-3.7728
11
2.74087
21
-3.76564
0
LINE
8
BLACK
6
CONTINUOUS
10
2.74087
20
-3.76564
11
2.73868
21
-3.75796
0
LINE
8
BLACK
6
CONTINUOUS
10
2.73868
20
-3.75796
11
2.73794
21
-3.75
0
LINE
8
BLACK
6
CONTINUOUS
10
2.73794
20
-3.75
11
2.73868
21
-3.74204
0
LINE
8
BLACK
6
CONTINUOUS
10
2.73868
20
-3.74204
11
2.74087
21
-3.73436
0
LINE
8
BLACK
6
CONTINUOUS
10
2.74087
20
-3.73436
11
2.74443
21
-3.7272
0
LINE
8
BLACK
6
CONTINUOUS
10
2.74443
20
-3.7272
11
2.74925
21
-3.72082
0
LINE
8
BLACK
6
CONTINUOUS
10
2.74925
20
-3.72082
11
2.75515
21
-3.71544
0
LINE
8
BLACK
6
CONTINUOUS
10
2.75515
20
-3.71544
11
2.76195
21
-3.71123
0
LINE
8
BLACK
6
CONTINUOUS
10
2.76195
20
-3.71123
11
2.7694
21
-3.70835
0
LINE
8
BLACK
6
CONTINUOUS
10
2.7694
20
-3.70835
11
2.77725
21
-3.70688
0
LINE
8
BLACK
6
CONTINUOUS
10
2.77725
20
-3.70688
11
2.78525
21
-3.70688
0
LINE
8
BLACK
6
CONTINUOUS
10
2.78525
20
-3.70688
11
2.7931
21
-3.70835
0
LINE
8
BLACK
6
CONTINUOUS
10
9.86875
20
-3.29865
11
9.87101
21
-3.29856
0
LINE
8
BLACK
6
CONTINUOUS
10
9.87101
20
-3.29856
11
9.88314
21
-3.29847
0
LINE
8
BLACK
6
CONTINUOUS
10
9.88314
20
-3.29847
11
9.89306
21
-3.29906
0
LINE
8
BLACK
6
CONTINUOUS
10
9.89306
20
-3.29906
11
9.90066
21
-3.30031
0
LINE
8
BLACK
6
CONTINUOUS
10
9.90066
20
-3.30031
11
9.90582
21
-3.3022
0
LINE
8
BLACK
6
CONTINUOUS
10
9.90582
20
-3.3022
11
9.90732
21
-3.30326
0
LINE
8
BLACK
6
CONTINUOUS
10
9.90732
20
-3.30326
11
9.91157
21
-3.30872
0
LINE
8
BLACK
6
CONTINUOUS
10
9.91157
20
-3.30872
11
9.9144
21
-3.31573
0
LINE
8
BLACK
6
CONTINUOUS
10
9.9144
20
-3.31573
11
9.91583
21
-3.32364
0
LINE
8
BLACK
6
CONTINUOUS
10
9.91583
20
-3.32364
11
9.91584
21
-3.33183
0
LINE
8
BLACK
6
CONTINUOUS
10
9.91584
20
-3.33183
11
9.91442
21
-3.33965
0
LINE
8
BLACK
6
CONTINUOUS
10
9.91442
20
-3.33965
11
9.91159
21
-3.34645
0
LINE
8
BLACK
6
CONTINUOUS
10
9.91159
20
-3.34645
11
9.90768
21
-3.3513
0
LINE
8
BLACK
6
CONTINUOUS
10
9.90768
20
-3.3513
11
9.90502
21
-3.35333
0
LINE
8
BLACK
6
CONTINUOUS
10
9.90502
20
-3.35333
11
9.90203
21
-3.35483
0
LINE
8
BLACK
6
CONTINUOUS
10
9.90203
20
-3.35483
11
9.8983
21
-3.35587
0
LINE
8
BLACK
6
CONTINUOUS
10
9.8983
20
-3.35587
11
9.89343
21
-3.3565
0
LINE
8
BLACK
6
CONTINUOUS
10
9.89343
20
-3.3565
11
9.887
21
-3.35678
0
LINE
8
BLACK
6
CONTINUOUS
10
9.887
20
-3.35678
11
9.87861
21
-3.35677
0
LINE
8
BLACK
6
CONTINUOUS
10
9.87861
20
-3.35677
11
9.87151
21
-3.35663
0
LINE
8
BLACK
6
CONTINUOUS
10
9.87151
20
-3.35663
11
9.86229
21
-3.3563
0
LINE
8
BLACK
6
CONTINUOUS
10
9.86229
20
-3.3563
11
9.85531
21
-3.35572
0
LINE
8
BLACK
6
CONTINUOUS
10
9.85531
20
-3.35572
11
9.85015
21
-3.35475
0
LINE
8
BLACK
6
CONTINUOUS
10
9.85015
20
-3.35475
11
9.84639
21
-3.35326
0
LINE
8
BLACK
6
CONTINUOUS
10
9.84639
20
-3.35326
11
9.84363
21
-3.35108
0
LINE
8
BLACK
6
CONTINUOUS
10
9.84363
20
-3.35108
11
9.84142
21
-3.34809
0
LINE
8
BLACK
6
CONTINUOUS
10
9.84142
20
-3.34809
11
9.84028
21
-3.346
0
LINE
8
BLACK
6
CONTINUOUS
10
9.84028
20
-3.346
11
9.83825
21
-3.34014
0
LINE
8
BLACK
6
CONTINUOUS
10
9.83825
20
-3.34014
11
9.83709
21
-3.33277
0
LINE
8
BLACK
6
CONTINUOUS
10
9.83709
20
-3.33277
11
9.83686
21
-3.32492
0
LINE
8
BLACK
6
CONTINUOUS
10
9.83686
20
-3.32492
11
9.83762
21
-3.31763
0
LINE
8
BLACK
6
CONTINUOUS
10
9.83762
20
-3.31763
11
9.83818
21
-3.31525
0
LINE
8
BLACK
6
CONTINUOUS
10
9.83818
20
-3.31525
11
9.8401
21
-3.30983
0
LINE
8
BLACK
6
CONTINUOUS
10
9.8401
20
-3.30983
11
9.84262
21
-3.30574
0
LINE
8
BLACK
6
CONTINUOUS
10
9.84262
20
-3.30574
11
9.84614
21
-3.30277
0
LINE
8
BLACK
6
CONTINUOUS
10
9.84614
20
-3.30277
11
9.85101
21
-3.30074
0
LINE
8
BLACK
6
CONTINUOUS
10
9.85101
20
-3.30074
11
9.85762
21
-3.29947
0
LINE
8
BLACK
6
CONTINUOUS
10
9.85762
20
-3.29947
11
9.86633
21
-3.29875
0
LINE
8
BLACK
6
CONTINUOUS
10
9.86633
20
-3.29875
11
9.86875
21
-3.29865
0
LINE
8
BLACK
6
CONTINUOUS
10
9.86229
20
-3.3224
11
9.85779
21
-3.32266
0
LINE
8
BLACK
6
CONTINUOUS
10
9.85779
20
-3.32266
11
9.8549
21
-3.32323
0
LINE
8
BLACK
6
CONTINUOUS
10
9.8549
20
-3.32323
11
9.85326
21
-3.32417
0
LINE
8
BLACK
6
CONTINUOUS
10
9.85326
20
-3.32417
11
9.85253
21
-3.32556
0
LINE
8
BLACK
6
CONTINUOUS
10
9.85253
20
-3.32556
11
9.85236
21
-3.32746
0
LINE
8
BLACK
6
CONTINUOUS
10
9.85236
20
-3.32746
11
9.85236
21
-3.32756
0
LINE
8
BLACK
6
CONTINUOUS
10
9.85236
20
-3.32756
11
9.85294
21
-3.3307
0
LINE
8
BLACK
6
CONTINUOUS
10
9.85294
20
-3.3307
11
9.85501
21
-3.33215
0
LINE
8
BLACK
6
CONTINUOUS
10
9.85501
20
-3.33215
11
9.85536
21
-3.33225
0
LINE
8
BLACK
6
CONTINUOUS
10
9.85536
20
-3.33225
11
9.85774
21
-3.33249
0
LINE
8
BLACK
6
CONTINUOUS
10
9.85774
20
-3.33249
11
9.8622
21
-3.33264
0
LINE
8
BLACK
6
CONTINUOUS
10
9.8622
20
-3.33264
11
9.86819
21
-3.3327
0
LINE
8
BLACK
6
CONTINUOUS
10
9.86819
20
-3.3327
11
9.87511
21
-3.33265
0
LINE
8
BLACK
6
CONTINUOUS
10
9.87511
20
-3.33265
11
9.87752
21
-3.33261
0
LINE
8
BLACK
6
CONTINUOUS
10
9.87752
20
-3.33261
11
9.88519
21
-3.33241
0
LINE
8
BLACK
6
CONTINUOUS
10
9.88519
20
-3.33241
11
9.89061
21
-3.33216
0
LINE
8
BLACK
6
CONTINUOUS
10
9.89061
20
-3.33216
11
9.89422
21
-3.33179
0
LINE
8
BLACK
6
CONTINUOUS
10
9.89422
20
-3.33179
11
9.89645
21
-3.33124
0
LINE
8
BLACK
6
CONTINUOUS
10
9.89645
20
-3.33124
11
9.89771
21
-3.33045
0
LINE
8
BLACK
6
CONTINUOUS
10
9.89771
20
-3.33045
11
9.89815
21
-3.32989
0
LINE
8
BLACK
6
CONTINUOUS
10
9.89815
20
-3.32989
11
9.89891
21
-3.32703
0
LINE
8
BLACK
6
CONTINUOUS
10
9.89891
20
-3.32703
11
9.89815
21
-3.32523
0
LINE
8
BLACK
6
CONTINUOUS
10
9.89815
20
-3.32523
11
9.89725
21
-3.3243
0
LINE
8
BLACK
6
CONTINUOUS
10
9.89725
20
-3.3243
11
9.89562
21
-3.32362
0
LINE
8
BLACK
6
CONTINUOUS
10
9.89562
20
-3.32362
11
9.89284
21
-3.32316
0
LINE
8
BLACK
6
CONTINUOUS
10
9.89284
20
-3.32316
11
9.88848
21
-3.32284
0
LINE
8
BLACK
6
CONTINUOUS
10
9.88848
20
-3.32284
11
9.88212
21
-3.32262
0
LINE
8
BLACK
6
CONTINUOUS
10
9.88212
20
-3.32262
11
9.87752
21
-3.32252
0
LINE
8
BLACK
6
CONTINUOUS
10
9.87752
20
-3.32252
11
9.86875
21
-3.32238
0
LINE
8
BLACK
6
CONTINUOUS
10
9.86875
20
-3.32238
11
9.86229
21
-3.3224
0
LINE
8
BLACK
6
CONTINUOUS
10
9.8514
20
-3.27176
11
9.8536
21
-3.27381
0
LINE
8
BLACK
6
CONTINUOUS
10
9.8536
20
-3.27381
11
9.856
21
-3.2785
0
LINE
8
BLACK
6
CONTINUOUS
10
9.856
20
-3.2785
11
9.85576
21
-3.283
0
LINE
8
BLACK
6
CONTINUOUS
10
9.85576
20
-3.283
11
9.85309
21
-3.28701
0
LINE
8
BLACK
6
CONTINUOUS
10
9.85309
20
-3.28701
11
9.84874
21
-3.28982
0
LINE
8
BLACK
6
CONTINUOUS
10
9.84874
20
-3.28982
11
9.84415
21
-3.29028
0
LINE
8
BLACK
6
CONTINUOUS
10
9.84415
20
-3.29028
11
9.83997
21
-3.28848
0
LINE
8
BLACK
6
CONTINUOUS
10
9.83997
20
-3.28848
11
9.837
21
-3.28486
0
LINE
8
BLACK
6
CONTINUOUS
10
9.837
20
-3.28486
11
9.83554
21
-3.28168
0
LINE
8
BLACK
6
CONTINUOUS
10
9.83554
20
-3.28168
11
9.8353
21
-3.27942
0
LINE
8
BLACK
6
CONTINUOUS
10
9.8353
20
-3.27942
11
9.836
21
-3.27696
0
LINE
8
BLACK
6
CONTINUOUS
10
9.836
20
-3.27696
11
9.83868
21
-3.27292
0
LINE
8
BLACK
6
CONTINUOUS
10
9.83868
20
-3.27292
11
9.84265
21
-3.27061
0
LINE
8
BLACK
6
CONTINUOUS
10
9.84265
20
-3.27061
11
9.84714
21
-3.27018
0
LINE
8
BLACK
6
CONTINUOUS
10
9.84714
20
-3.27018
11
9.8514
21
-3.27176
0
LINE
8
BLACK
6
CONTINUOUS
10
9.8478
20
-3.22925
11
9.85079
21
-3.22984
0
LINE
8
BLACK
6
CONTINUOUS
10
9.85079
20
-3.22984
11
9.8517
21
-3.23036
0
LINE
8
BLACK
6
CONTINUOUS
10
9.8517
20
-3.23036
11
9.85331
21
-3.23085
0
LINE
8
BLACK
6
CONTINUOUS
10
9.85331
20
-3.23085
11
9.85729
21
-3.23125
0
LINE
8
BLACK
6
CONTINUOUS
10
9.85729
20
-3.23125
11
9.86335
21
-3.23152
0
LINE
8
BLACK
6
CONTINUOUS
10
9.86335
20
-3.23152
11
9.87118
21
-3.23167
0
LINE
8
BLACK
6
CONTINUOUS
10
9.87118
20
-3.23167
11
9.87567
21
-3.23169
0
LINE
8
BLACK
6
CONTINUOUS
10
9.87567
20
-3.23169
11
9.88428
21
-3.23162
0
LINE
8
BLACK
6
CONTINUOUS
10
9.88428
20
-3.23162
11
9.89126
21
-3.2314
0
LINE
8
BLACK
6
CONTINUOUS
10
9.89126
20
-3.2314
11
9.89631
21
-3.23106
0
LINE
8
BLACK
6
CONTINUOUS
10
9.89631
20
-3.23106
11
9.89914
21
-3.23062
0
LINE
8
BLACK
6
CONTINUOUS
10
9.89914
20
-3.23062
11
9.89963
21
-3.23036
0
LINE
8
BLACK
6
CONTINUOUS
10
9.89963
20
-3.23036
11
9.90134
21
-3.22959
0
LINE
8
BLACK
6
CONTINUOUS
10
9.90134
20
-3.22959
11
9.90477
21
-3.22911
0
LINE
8
BLACK
6
CONTINUOUS
10
9.90477
20
-3.22911
11
9.90704
21
-3.22903
0
LINE
8
BLACK
6
CONTINUOUS
10
9.90704
20
-3.22903
11
9.91362
21
-3.22903
0
LINE
8
BLACK
6
CONTINUOUS
10
9.91362
20
-3.22903
11
9.91362
21
-3.24234
0
LINE
8
BLACK
6
CONTINUOUS
10
9.91362
20
-3.24234
11
9.91362
21
-3.25566
0
LINE
8
BLACK
6
CONTINUOUS
10
9.91362
20
-3.25566
11
9.88307
21
-3.25566
0
LINE
8
BLACK
6
CONTINUOUS
10
9.88307
20
-3.25566
11
9.87273
21
-3.25572
0
LINE
8
BLACK
6
CONTINUOUS
10
9.87273
20
-3.25572
11
9.86422
21
-3.25588
0
LINE
8
BLACK
6
CONTINUOUS
10
9.86422
20
-3.25588
11
9.85775
21
-3.25615
0
LINE
8
BLACK
6
CONTINUOUS
10
9.85775
20
-3.25615
11
9.85351
21
-3.25651
0
LINE
8
BLACK
6
CONTINUOUS
10
9.85351
20
-3.25651
11
9.85173
21
-3.25695
0
LINE
8
BLACK
6
CONTINUOUS
10
9.85173
20
-3.25695
11
9.8517
21
-3.25699
0
LINE
8
BLACK
6
CONTINUOUS
10
9.8517
20
-3.25699
11
9.85001
21
-3.25773
0
LINE
8
BLACK
6
CONTINUOUS
10
9.85001
20
-3.25773
11
9.84654
21
-3.25821
0
LINE
8
BLACK
6
CONTINUOUS
10
9.84654
20
-3.25821
11
9.84363
21
-3.25832
0
LINE
8
BLACK
6
CONTINUOUS
10
9.84363
20
-3.25832
11
9.83638
21
-3.25832
0
LINE
8
BLACK
6
CONTINUOUS
10
9.83638
20
-3.25832
11
9.83638
21
-3.24368
0
LINE
8
BLACK
6
CONTINUOUS
10
9.83638
20
-3.24368
11
9.83638
21
-3.22903
0
LINE
8
BLACK
6
CONTINUOUS
10
9.83638
20
-3.22903
11
9.84363
21
-3.22903
0
LINE
8
BLACK
6
CONTINUOUS
10
9.84363
20
-3.22903
11
9.8478
21
-3.22925
0
LINE
8
BLACK
6
CONTINUOUS
10
9.89364
20
-3.18062
11
9.89364
21
-3.19346
0
LINE
8
BLACK
6
CONTINUOUS
10
9.89364
20
-3.19346
11
9.88403
21
-3.19266
0
LINE
8
BLACK
6
CONTINUOUS
10
9.88403
20
-3.19266
11
9.87773
21
-3.19248
0
LINE
8
BLACK
6
CONTINUOUS
10
9.87773
20
-3.19248
11
9.87149
21
-3.1929
0
LINE
8
BLACK
6
CONTINUOUS
10
9.87149
20
-3.1929
11
9.86607
21
-3.19381
0
LINE
8
BLACK
6
CONTINUOUS
10
9.86607
20
-3.19381
11
9.86222
21
-3.19511
0
LINE
8
BLACK
6
CONTINUOUS
10
9.86222
20
-3.19511
11
9.86126
21
-3.19575
0
LINE
8
BLACK
6
CONTINUOUS
10
9.86126
20
-3.19575
11
9.86187
21
-3.19654
0
LINE
8
BLACK
6
CONTINUOUS
10
9.86187
20
-3.19654
11
9.86452
21
-3.19771
0
LINE
8
BLACK
6
CONTINUOUS
10
9.86452
20
-3.19771
11
9.86864
21
-3.19902
0
LINE
8
BLACK
6
CONTINUOUS
10
9.86864
20
-3.19902
11
9.86897
21
-3.19911
0
LINE
8
BLACK
6
CONTINUOUS
10
9.86897
20
-3.19911
11
9.87412
21
-3.20034
0
LINE
8
BLACK
6
CONTINUOUS
10
9.87412
20
-3.20034
11
9.87733
21
-3.20067
0
LINE
8
BLACK
6
CONTINUOUS
10
9.87733
20
-3.20067
11
9.87911
21
-3.20013
0
LINE
8
BLACK
6
CONTINUOUS
10
9.87911
20
-3.20013
11
9.87932
21
-3.19995
0
LINE
8
BLACK
6
CONTINUOUS
10
9.87932
20
-3.19995
11
9.88149
21
-3.19903
0
LINE
8
BLACK
6
CONTINUOUS
10
9.88149
20
-3.19903
11
9.88523
21
-3.19848
0
LINE
8
BLACK
6
CONTINUOUS
10
9.88523
20
-3.19848
11
9.88725
21
-3.1984
0
LINE
8
BLACK
6
CONTINUOUS
10
9.88725
20
-3.1984
11
9.89364
21
-3.1984
0
LINE
8
BLACK
6
CONTINUOUS
10
9.89364
20
-3.1984
11
9.89364
21
-3.21039
0
LINE
8
BLACK
6
CONTINUOUS
10
9.89364
20
-3.21039
11
9.89364
21
-3.22237
0
LINE
8
BLACK
6
CONTINUOUS
10
9.89364
20
-3.22237
11
9.8876
21
-3.22237
0
LINE
8
BLACK
6
CONTINUOUS
10
9.8876
20
-3.22237
11
9.88319
21
-3.22196
0
LINE
8
BLACK
6
CONTINUOUS
10
9.88319
20
-3.22196
11
9.87946
21
-3.22094
0
LINE
8
BLACK
6
CONTINUOUS
10
9.87946
20
-3.22094
11
9.87861
21
-3.22051
0
LINE
8
BLACK
6
CONTINUOUS
10
9.87861
20
-3.22051
11
9.87633
21
-3.21949
0
LINE
8
BLACK
6
CONTINUOUS
10
9.87633
20
-3.21949
11
9.87202
21
-3.21794
0
LINE
8
BLACK
6
CONTINUOUS
10
9.87202
20
-3.21794
11
9.8662
21
-3.21602
0
LINE
8
BLACK
6
CONTINUOUS
10
9.8662
20
-3.21602
11
9.85941
21
-3.21391
0
LINE
8
BLACK
6
CONTINUOUS
10
9.85941
20
-3.21391
11
9.85603
21
-3.21291
0
LINE
8
BLACK
6
CONTINUOUS
10
9.85603
20
-3.21291
11
9.83638
21
-3.20717
0
LINE
8
BLACK
6
CONTINUOUS
10
9.83638
20
-3.20717
11
9.83638
21
-3.19487
0
LINE
8
BLACK
6
CONTINUOUS
10
9.83638
20
-3.19487
11
9.83649
21
-3.18944
0
LINE
8
BLACK
6
CONTINUOUS
10
9.83649
20
-3.18944
11
9.83676
21
-3.18511
0
LINE
8
BLACK
6
CONTINUOUS
10
9.83676
20
-3.18511
11
9.83715
21
-3.1825
0
LINE
8
BLACK
6
CONTINUOUS
10
9.83715
20
-3.1825
11
9.83738
21
-3.18203
0
LINE
8
BLACK
6
CONTINUOUS
10
9.83738
20
-3.18203
11
9.83895
21
-3.1815
0
LINE
8
BLACK
6
CONTINUOUS
10
9.83895
20
-3.1815
11
9.84261
21
-3.18038
0
LINE
8
BLACK
6
CONTINUOUS
10
9.84261
20
-3.18038
11
9.84791
21
-3.17881
0
LINE
8
BLACK
6
CONTINUOUS
10
9.84791
20
-3.17881
11
9.85439
21
-3.17694
0
LINE
8
BLACK
6
CONTINUOUS
10
9.85439
20
-3.17694
11
9.85836
21
-3.17581
0
LINE
8
BLACK
6
CONTINUOUS
10
9.85836
20
-3.17581
11
9.86531
21
-3.17378
0
LINE
8
BLACK
6
CONTINUOUS
10
9.86531
20
-3.17378
11
9.87138
21
-3.17191
0
LINE
8
BLACK
6
CONTINUOUS
10
9.87138
20
-3.17191
11
9.87609
21
-3.17036
0
LINE
8
BLACK
6
CONTINUOUS
10
9.87609
20
-3.17036
11
9.87897
21
-3.16929
0
LINE
8
BLACK
6
CONTINUOUS
10
9.87897
20
-3.16929
11
9.87959
21
-3.16895
0
LINE
8
BLACK
6
CONTINUOUS
10
9.87959
20
-3.16895
11
9.88159
21
-3.16826
0
LINE
8
BLACK
6
CONTINUOUS
10
9.88159
20
-3.16826
11
9.8852
21
-3.16783
0
LINE
8
BLACK
6
CONTINUOUS
10
9.8852
20
-3.16783
11
9.88725
21
-3.16778
0
LINE
8
BLACK
6
CONTINUOUS
10
9.88725
20
-3.16778
11
9.89364
21
-3.16778
0
LINE
8
BLACK
6
CONTINUOUS
10
9.89364
20
-3.16778
11
9.89364
21
-3.18062
0
LINE
8
BLACK
6
CONTINUOUS
10
9.75594
20
-3.09366
11
9.75607
21
-3.09378
0
LINE
8
BLACK
6
CONTINUOUS
10
9.75607
20
-3.09378
11
9.75625
21
-3.0938
0
LINE
8
BLACK
6
CONTINUOUS
10
9.75625
20
-3.0938
11
9.75925
21
-3.0953
0
LINE
8
BLACK
6
CONTINUOUS
10
9.75925
20
-3.0953
11
9.76007
21
-3.09591
0
LINE
8
BLACK
6
CONTINUOUS
10
9.76007
20
-3.09591
11
9.76025
21
-3.09631
0
LINE
8
BLACK
6
CONTINUOUS
10
9.76025
20
-3.09631
11
9.76057
21
-3.09662
0
LINE
8
BLACK
6
CONTINUOUS
10
9.76057
20
-3.09662
11
9.76207
21
-3.09962
0
LINE
8
BLACK
6
CONTINUOUS
10
9.76207
20
-3.09962
11
9.76236
21
-3.1006
0
LINE
8
BLACK
6
CONTINUOUS
10
9.76236
20
-3.1006
11
9.76232
21
-3.10077
0
LINE
8
BLACK
6
CONTINUOUS
10
9.76232
20
-3.10077
11
9.76238
21
-3.10094
0
LINE
8
BLACK
6
CONTINUOUS
10
9.76238
20
-3.10094
11
9.76238
21
-3.10694
0
LINE
8
BLACK
6
CONTINUOUS
10
9.76238
20
-3.10694
11
9.7622
21
-3.10795
0
LINE
8
BLACK
6
CONTINUOUS
10
9.7622
20
-3.10795
11
9.76209
21
-3.10808
0
LINE
8
BLACK
6
CONTINUOUS
10
9.76209
20
-3.10808
11
9.76207
21
-3.10826
0
LINE
8
BLACK
6
CONTINUOUS
10
9.76207
20
-3.10826
11
9.76057
21
-3.11126
0
LINE
8
BLACK
6
CONTINUOUS
10
9.76057
20
-3.11126
11
9.75996
21
-3.11208
0
LINE
8
BLACK
6
CONTINUOUS
10
9.75996
20
-3.11208
11
9.75955
21
-3.11226
0
LINE
8
BLACK
6
CONTINUOUS
10
9.75955
20
-3.11226
11
9.75925
21
-3.11258
0
LINE
8
BLACK
6
CONTINUOUS
10
9.75925
20
-3.11258
11
9.75625
21
-3.11408
0
LINE
8
BLACK
6
CONTINUOUS
10
9.75625
20
-3.11408
11
9.75526
21
-3.11437
0
LINE
8
BLACK
6
CONTINUOUS
10
9.75526
20
-3.11437
11
9.75509
21
-3.11433
0
LINE
8
BLACK
6
CONTINUOUS
10
9.75509
20
-3.11433
11
9.75493
21
-3.11439
0
LINE
8
BLACK
6
CONTINUOUS
10
9.75493
20
-3.11439
11
9.75193
21
-3.11439
0
LINE
8
BLACK
6
CONTINUOUS
10
9.75193
20
-3.11439
11
9.75092
21
-3.11421
0
LINE
8
BLACK
6
CONTINUOUS
10
9.75092
20
-3.11421
11
9.75054
21
-3.1139
0
LINE
8
BLACK
6
CONTINUOUS
10
9.75054
20
-3.1139
11
9.75008
21
-3.11374
0
LINE
8
BLACK
6
CONTINUOUS
10
9.75008
20
-3.11374
11
9.74979
21
-3.11327
0
LINE
8
BLACK
6
CONTINUOUS
10
9.74979
20
-3.11327
11
9.74937
21
-3.11291
0
LINE
8
BLACK
6
CONTINUOUS
10
9.74937
20
-3.11291
11
9.74929
21
-3.11243
0
LINE
8
BLACK
6
CONTINUOUS
10
9.74929
20
-3.11243
11
9.74903
21
-3.11202
0
LINE
8
BLACK
6
CONTINUOUS
10
9.74903
20
-3.11202
11
9.74651
21
-3.09939
0
LINE
8
BLACK
6
CONTINUOUS
10
9.74651
20
-3.09939
11
9.74363
21
-3.09939
0
LINE
8
BLACK
6
CONTINUOUS
10
9.74363
20
-3.09939
11
9.74213
21
-3.10014
0
LINE
8
BLACK
6
CONTINUOUS
10
9.74213
20
-3.10014
11
9.74138
21
-3.10163
0
LINE
8
BLACK
6
CONTINUOUS
10
9.74138
20
-3.10163
11
9.74138
21
-3.10624
0
LINE
8
BLACK
6
CONTINUOUS
10
9.74138
20
-3.10624
11
9.74257
21
-3.10862
0
LINE
8
BLACK
6
CONTINUOUS
10
9.74257
20
-3.10862
11
9.74286
21
-3.1096
0
LINE
8
BLACK
6
CONTINUOUS
10
9.74286
20
-3.1096
11
9.74239
21
-3.11156
0
LINE
8
BLACK
6
CONTINUOUS
10
9.74239
20
-3.11156
11
9.74077
21
-3.11277
0
LINE
8
BLACK
6
CONTINUOUS
10
9.74077
20
-3.11277
11
9.73875
21
-3.11265
0
LINE
8
BLACK
6
CONTINUOUS
10
9.73875
20
-3.11265
11
9.73729
21
-3.11126
0
LINE
8
BLACK
6
CONTINUOUS
10
9.73729
20
-3.11126
11
9.73579
21
-3.10826
0
LINE
8
BLACK
6
CONTINUOUS
10
9.73579
20
-3.10826
11
9.7355
21
-3.10727
0
LINE
8
BLACK
6
CONTINUOUS
10
9.7355
20
-3.10727
11
9.73554
21
-3.1071
0
LINE
8
BLACK
6
CONTINUOUS
10
9.73554
20
-3.1071
11
9.73548
21
-3.10694
0
LINE
8
BLACK
6
CONTINUOUS
10
9.73548
20
-3.10694
11
9.73548
21
-3.10094
0
LINE
8
BLACK
6
CONTINUOUS
10
9.73548
20
-3.10094
11
9.73565
21
-3.09993
0
LINE
8
BLACK
6
CONTINUOUS
10
9.73565
20
-3.09993
11
9.73577
21
-3.09979
0
LINE
8
BLACK
6
CONTINUOUS
10
9.73577
20
-3.09979
11
9.73579
21
-3.09962
0
LINE
8
BLACK
6
CONTINUOUS
10
9.73579
20
-3.09962
11
9.73729
21
-3.09662
0
LINE
8
BLACK
6
CONTINUOUS
10
9.73729
20
-3.09662
11
9.7379
21
-3.09579
0
LINE
8
BLACK
6
CONTINUOUS
10
9.7379
20
-3.09579
11
9.7383
21
-3.09562
0
LINE
8
BLACK
6
CONTINUOUS
10
9.7383
20
-3.09562
11
9.73861
21
-3.0953
0
LINE
8
BLACK
6
CONTINUOUS
10
9.73861
20
-3.0953
11
9.74161
21
-3.0938
0
LINE
8
BLACK
6
CONTINUOUS
10
9.74161
20
-3.0938
11
9.74259
21
-3.0935
0
LINE
8
BLACK
6
CONTINUOUS
10
9.74259
20
-3.0935
11
9.74276
21
-3.09355
0
LINE
8
BLACK
6
CONTINUOUS
10
9.74276
20
-3.09355
11
9.74293
21
-3.09349
0
LINE
8
BLACK
6
CONTINUOUS
10
9.74293
20
-3.09349
11
9.75493
21
-3.09349
0
LINE
8
BLACK
6
CONTINUOUS
10
9.75493
20
-3.09349
11
9.75594
21
-3.09366
0
LINE
8
BLACK
6
CONTINUOUS
10
9.75253
20
-3.09939
11
9.75434
21
-3.10843
0
LINE
8
BLACK
6
CONTINUOUS
10
9.75434
20
-3.10843
11
9.75573
21
-3.10774
0
LINE
8
BLACK
6
CONTINUOUS
10
9.75573
20
-3.10774
11
9.75647
21
-3.10624
0
LINE
8
BLACK
6
CONTINUOUS
10
9.75647
20
-3.10624
11
9.75647
21
-3.10163
0
LINE
8
BLACK
6
CONTINUOUS
10
9.75647
20
-3.10163
11
9.75573
21
-3.10014
0
LINE
8
BLACK
6
CONTINUOUS
10
9.75573
20
-3.10014
11
9.75423
21
-3.09939
0
LINE
8
BLACK
6
CONTINUOUS
10
9.75423
20
-3.09939
11
9.75253
21
-3.09939
0
LINE
8
BLACK
6
CONTINUOUS
10
9.85313
20
-3.05663
11
9.85645
21
-3.05697
0
LINE
8
BLACK
6
CONTINUOUS
10
9.85645
20
-3.05697
11
9.8616
21
-3.05948
0
LINE
8
BLACK
6
CONTINUOUS
10
9.8616
20
-3.05948
11
9.86513
21
-3.06325
0
LINE
8
BLACK
6
CONTINUOUS
10
9.86513
20
-3.06325
11
9.86659
21
-3.06613
0
LINE
8
BLACK
6
CONTINUOUS
10
9.86659
20
-3.06613
11
9.86841
21
-3.07063
0
LINE
8
BLACK
6
CONTINUOUS
10
9.86841
20
-3.07063
11
9.87022
21
-3.07581
0
LINE
8
BLACK
6
CONTINUOUS
10
9.87022
20
-3.07581
11
9.87035
21
-3.0762
0
LINE
8
BLACK
6
CONTINUOUS
10
9.87035
20
-3.0762
11
9.87198
21
-3.08112
0
LINE
8
BLACK
6
CONTINUOUS
10
9.87198
20
-3.08112
11
9.87326
21
-3.08402
0
LINE
8
BLACK
6
CONTINUOUS
10
9.87326
20
-3.08402
11
9.87456
21
-3.08542
0
LINE
8
BLACK
6
CONTINUOUS
10
9.87456
20
-3.08542
11
9.87625
21
-3.08586
0
LINE
8
BLACK
6
CONTINUOUS
10
9.87625
20
-3.08586
11
9.87721
21
-3.08589
0
LINE
8
BLACK
6
CONTINUOUS
10
9.87721
20
-3.08589
11
9.87996
21
-3.08548
0
LINE
8
BLACK
6
CONTINUOUS
10
9.87996
20
-3.08548
11
9.88093
21
-3.08379
0
LINE
8
BLACK
6
CONTINUOUS
10
9.88093
20
-3.08379
11
9.88099
21
-3.08256
0
LINE
8
BLACK
6
CONTINUOUS
10
9.88099
20
-3.08256
11
9.88041
21
-3.08
0
LINE
8
BLACK
6
CONTINUOUS
10
9.88041
20
-3.08
11
9.87814
21
-3.07892
0
LINE
8
BLACK
6
CONTINUOUS
10
9.87814
20
-3.07892
11
9.87733
21
-3.07881
0
LINE
8
BLACK
6
CONTINUOUS
10
9.87733
20
-3.07881
11
9.87546
21
-3.07848
0
LINE
8
BLACK
6
CONTINUOUS
10
9.87546
20
-3.07848
11
9.87437
21
-3.07766
0
LINE
8
BLACK
6
CONTINUOUS
10
9.87437
20
-3.07766
11
9.87385
21
-3.07576
0
LINE
8
BLACK
6
CONTINUOUS
10
9.87385
20
-3.07576
11
9.87368
21
-3.07217
0
LINE
8
BLACK
6
CONTINUOUS
10
9.87368
20
-3.07217
11
9.87367
21
-3.06849
0
LINE
8
BLACK
6
CONTINUOUS
10
9.87367
20
-3.06849
11
9.87367
21
-3.05859
0
LINE
8
BLACK
6
CONTINUOUS
10
9.87367
20
-3.05859
11
9.88084
21
-3.05859
0
LINE
8
BLACK
6
CONTINUOUS
10
9.88084
20
-3.05859
11
9.88506
21
-3.0587
0
LINE
8
BLACK
6
CONTINUOUS
10
9.88506
20
-3.0587
11
9.88748
21
-3.05933
0
LINE
8
BLACK
6
CONTINUOUS
10
9.88748
20
-3.05933
11
9.889
21
-3.06088
0
LINE
8
BLACK
6
CONTINUOUS
10
9.889
20
-3.06088
11
9.89014
21
-3.06306
0
LINE
8
BLACK
6
CONTINUOUS
10
9.89014
20
-3.06306
11
9.8927
21
-3.0702
0
LINE
8
BLACK
6
CONTINUOUS
10
9.8927
20
-3.0702
11
9.8943
21
-3.07824
0
LINE
8
BLACK
6
CONTINUOUS
10
9.8943
20
-3.07824
11
9.8947
21
-3.08585
0
LINE
8
BLACK
6
CONTINUOUS
10
9.8947
20
-3.08585
11
9.89454
21
-3.08802
0
LINE
8
BLACK
6
CONTINUOUS
10
9.89454
20
-3.08802
11
9.89335
21
-3.09362
0
LINE
8
BLACK
6
CONTINUOUS
10
9.89335
20
-3.09362
11
9.89133
21
-3.09899
0
LINE
8
BLACK
6
CONTINUOUS
10
9.89133
20
-3.09899
11
9.88884
21
-3.10332
0
LINE
8
BLACK
6
CONTINUOUS
10
9.88884
20
-3.10332
11
9.88626
21
-3.10586
0
LINE
8
BLACK
6
CONTINUOUS
10
9.88626
20
-3.10586
11
9.88604
21
-3.10597
0
LINE
8
BLACK
6
CONTINUOUS
10
9.88604
20
-3.10597
11
9.88382
21
-3.10649
0
LINE
8
BLACK
6
CONTINUOUS
10
9.88382
20
-3.10649
11
9.87956
21
-3.10706
0
LINE
8
BLACK
6
CONTINUOUS
10
9.87956
20
-3.10706
11
9.87388
21
-3.10762
0
LINE
8
BLACK
6
CONTINUOUS
10
9.87388
20
-3.10762
11
9.86768
21
-3.10808
0
LINE
8
BLACK
6
CONTINUOUS
10
9.86768
20
-3.10808
11
9.86052
21
-3.10856
0
LINE
8
BLACK
6
CONTINUOUS
10
9.86052
20
-3.10856
11
9.8535
21
-3.10909
0
LINE
8
BLACK
6
CONTINUOUS
10
9.8535
20
-3.10909
11
9.84751
21
-3.10959
0
LINE
8
BLACK
6
CONTINUOUS
10
9.84751
20
-3.10959
11
9.84404
21
-3.10993
0
LINE
8
BLACK
6
CONTINUOUS
10
9.84404
20
-3.10993
11
9.83638
21
-3.11077
0
LINE
8
BLACK
6
CONTINUOUS
10
9.83638
20
-3.11077
11
9.83638
21
-3.09932
0
LINE
8
BLACK
6
CONTINUOUS
10
9.83638
20
-3.09932
11
9.83647
21
-3.09363
0
LINE
8
BLACK
6
CONTINUOUS
10
9.83647
20
-3.09363
11
9.83677
21
-3.09013
0
LINE
8
BLACK
6
CONTINUOUS
10
9.83677
20
-3.09013
11
9.83738
21
-3.08837
0
LINE
8
BLACK
6
CONTINUOUS
10
9.83738
20
-3.08837
11
9.83837
21
-3.08788
0
LINE
8
BLACK
6
CONTINUOUS
10
9.83837
20
-3.08788
11
9.83838
21
-3.08788
0
LINE
8
BLACK
6
CONTINUOUS
10
9.83838
20
-3.08788
11
9.83977
21
-3.08783
0
LINE
8
BLACK
6
CONTINUOUS
10
9.83977
20
-3.08783
11
9.84018
21
-3.08725
0
LINE
8
BLACK
6
CONTINUOUS
10
9.84018
20
-3.08725
11
9.83955
21
-3.08554
0
LINE
8
BLACK
6
CONTINUOUS
10
9.83955
20
-3.08554
11
9.83782
21
-3.08209
0
LINE
8
BLACK
6
CONTINUOUS
10
9.83782
20
-3.08209
11
9.83772
21
-3.08189
0
LINE
8
BLACK
6
CONTINUOUS
10
9.83772
20
-3.08189
11
9.8355
21
-3.07589
0
LINE
8
BLACK
6
CONTINUOUS
10
9.8355
20
-3.07589
11
9.83549
21
-3.07033
0
LINE
8
BLACK
6
CONTINUOUS
10
9.83549
20
-3.07033
11
9.837
21
-3.06568
0
LINE
8
BLACK
6
CONTINUOUS
10
9.837
20
-3.06568
11
9.84041
21
-3.0608
0
LINE
8
BLACK
6
CONTINUOUS
10
9.84041
20
-3.0608
11
9.84521
21
-3.05768
0
LINE
8
BLACK
6
CONTINUOUS
10
9.84521
20
-3.05768
11
9.85077
21
-3.05638
0
LINE
8
BLACK
6
CONTINUOUS
10
9.85077
20
-3.05638
11
9.85313
21
-3.05663
0
LINE
8
BLACK
6
CONTINUOUS
10
9.85125
20
-3.07963
11
9.85141
21
-3.08316
0
LINE
8
BLACK
6
CONTINUOUS
10
9.85141
20
-3.08316
11
9.85184
21
-3.08445
0
LINE
8
BLACK
6
CONTINUOUS
10
9.85184
20
-3.08445
11
9.85376
21
-3.08607
0
LINE
8
BLACK
6
CONTINUOUS
10
9.85376
20
-3.08607
11
9.85659
21
-3.08655
0
LINE
8
BLACK
6
CONTINUOUS
10
9.85659
20
-3.08655
11
9.85929
21
-3.08629
0
LINE
8
BLACK
6
CONTINUOUS
10
9.85929
20
-3.08629
11
9.85998
21
-3.08511
0
LINE
8
BLACK
6
CONTINUOUS
10
9.85998
20
-3.08511
11
9.85963
21
-3.08356
0
LINE
8
BLACK
6
CONTINUOUS
10
9.85963
20
-3.08356
11
9.85776
21
-3.0797
0
LINE
8
BLACK
6
CONTINUOUS
10
9.85776
20
-3.0797
11
9.85525
21
-3.07767
0
LINE
8
BLACK
6
CONTINUOUS
10
9.85525
20
-3.07767
11
9.85313
21
-3.07767
0
LINE
8
BLACK
6
CONTINUOUS
10
9.85313
20
-3.07767
11
9.85125
21
-3.07963
0
LINE
8
BLACK
6
CONTINUOUS
10
9.76169
20
-3.07354
11
9.76238
21
-3.07544
0
LINE
8
BLACK
6
CONTINUOUS
10
9.76238
20
-3.07544
11
9.76238
21
-3.07699
0
LINE
8
BLACK
6
CONTINUOUS
10
9.76238
20
-3.07699
11
9.76993
21
-3.07699
0
LINE
8
BLACK
6
CONTINUOUS
10
9.76993
20
-3.07699
11
9.77093
21
-3.07717
0
LINE
8
BLACK
6
CONTINUOUS
10
9.77093
20
-3.07717
11
9.77248
21
-3.07846
0
LINE
8
BLACK
6
CONTINUOUS
10
9.77248
20
-3.07846
11
9.77283
21
-3.08045
0
LINE
8
BLACK
6
CONTINUOUS
10
9.77283
20
-3.08045
11
9.77182
21
-3.0822
0
LINE
8
BLACK
6
CONTINUOUS
10
9.77182
20
-3.0822
11
9.76993
21
-3.08289
0
LINE
8
BLACK
6
CONTINUOUS
10
9.76993
20
-3.08289
11
9.76238
21
-3.08289
0
LINE
8
BLACK
6
CONTINUOUS
10
9.76238
20
-3.08289
11
9.76238
21
-3.08744
0
LINE
8
BLACK
6
CONTINUOUS
10
9.76238
20
-3.08744
11
9.7622
21
-3.08845
0
LINE
8
BLACK
6
CONTINUOUS
10
9.7622
20
-3.08845
11
9.7609
21
-3.09
0
LINE
8
BLACK
6
CONTINUOUS
10
9.7609
20
-3.09
11
9.75891
21
-3.09035
0
LINE
8
BLACK
6
CONTINUOUS
10
9.75891
20
-3.09035
11
9.75716
21
-3.08934
0
LINE
8
BLACK
6
CONTINUOUS
10
9.75716
20
-3.08934
11
9.75647
21
-3.08744
0
LINE
8
BLACK
6
CONTINUOUS
10
9.75647
20
-3.08744
11
9.75647
21
-3.08289
0
LINE
8
BLACK
6
CONTINUOUS
10
9.75647
20
-3.08289
11
9.74363
21
-3.08289
0
LINE
8
BLACK
6
CONTINUOUS
10
9.74363
20
-3.08289
11
9.74213
21
-3.08364
0
LINE
8
BLACK
6
CONTINUOUS
10
9.74213
20
-3.08364
11
9.74138
21
-3.08514
0
LINE
8
BLACK
6
CONTINUOUS
10
9.74138
20
-3.08514
11
9.74138
21
-3.08744
0
LINE
8
BLACK
6
CONTINUOUS
10
9.74138
20
-3.08744
11
9.7412
21
-3.08845
0
LINE
8
BLACK
6
CONTINUOUS
10
9.7412
20
-3.08845
11
9.73991
21
-3.09
0
LINE
8
BLACK
6
CONTINUOUS
10
9.73991
20
-3.09
11
9.73792
21
-3.09035
0
LINE
8
BLACK
6
CONTINUOUS
10
9.73792
20
-3.09035
11
9.73617
21
-3.08934
0
LINE
8
BLACK
6
CONTINUOUS
10
9.73617
20
-3.08934
11
9.73548
21
-3.08744
0
LINE
8
BLACK
6
CONTINUOUS
10
9.73548
20
-3.08744
11
9.73548
21
-3.08444
0
LINE
8
BLACK
6
CONTINUOUS
10
9.73548
20
-3.08444
11
9.73565
21
-3.08343
0
LINE
8
BLACK
6
CONTINUOUS
10
9.73565
20
-3.08343
11
9.73577
21
-3.08329
0
LINE
8
BLACK
6
CONTINUOUS
10
9.73577
20
-3.08329
11
9.73579
21
-3.08312
0
LINE
8
BLACK
6
CONTINUOUS
10
9.73579
20
-3.08312
11
9.73729
21
-3.08012
0
LINE
8
BLACK
6
CONTINUOUS
10
9.73729
20
-3.08012
11
9.7379
21
-3.0793
0
LINE
8
BLACK
6
CONTINUOUS
10
9.7379
20
-3.0793
11
9.7383
21
-3.07912
0
LINE
8
BLACK
6
CONTINUOUS
10
9.7383
20
-3.07912
11
9.73861
21
-3.0788
0
LINE
8
BLACK
6
CONTINUOUS
10
9.73861
20
-3.0788
11
9.74161
21
-3.0773
0
LINE
8
BLACK
6
CONTINUOUS
10
9.74161
20
-3.0773
11
9.74259
21
-3.07701
0
LINE
8
BLACK
6
CONTINUOUS
10
9.74259
20
-3.07701
11
9.74276
21
-3.07705
0
LINE
8
BLACK
6
CONTINUOUS
10
9.74276
20
-3.07705
11
9.74293
21
-3.07699
0
LINE
8
BLACK
6
CONTINUOUS
10
9.74293
20
-3.07699
11
9.75647
21
-3.07699
0
LINE
8
BLACK
6
CONTINUOUS
10
9.75647
20
-3.07699
11
9.75647
21
-3.07544
0
LINE
8
BLACK
6
CONTINUOUS
10
9.75647
20
-3.07544
11
9.75665
21
-3.07443
0
LINE
8
BLACK
6
CONTINUOUS
10
9.75665
20
-3.07443
11
9.75795
21
-3.07288
0
LINE
8
BLACK
6
CONTINUOUS
10
9.75795
20
-3.07288
11
9.75994
21
-3.07253
0
LINE
8
BLACK
6
CONTINUOUS
10
9.75994
20
-3.07253
11
9.76169
21
-3.07354
0
LINE
8
BLACK
6
CONTINUOUS
10
9.74694
20
-3.04717
11
9.74707
21
-3.04728
0
LINE
8
BLACK
6
CONTINUOUS
10
9.74707
20
-3.04728
11
9.74725
21
-3.0473
0
LINE
8
BLACK
6
CONTINUOUS
10
9.74725
20
-3.0473
11
9.75025
21
-3.0488
0
LINE
8
BLACK
6
CONTINUOUS
10
9.75025
20
-3.0488
11
9.75107
21
-3.04941
0
LINE
8
BLACK
6
CONTINUOUS
10
9.75107
20
-3.04941
11
9.75125
21
-3.04982
0
LINE
8
BLACK
6
CONTINUOUS
10
9.75125
20
-3.04982
11
9.75157
21
-3.05012
0
LINE
8
BLACK
6
CONTINUOUS
10
9.75157
20
-3.05012
11
9.75307
21
-3.05312
0
LINE
8
BLACK
6
CONTINUOUS
10
9.75307
20
-3.05312
11
9.75336
21
-3.05411
0
LINE
8
BLACK
6
CONTINUOUS
10
9.75336
20
-3.05411
11
9.75332
21
-3.05428
0
LINE
8
BLACK
6
CONTINUOUS
10
9.75332
20
-3.05428
11
9.75338
21
-3.05444
0
LINE
8
BLACK
6
CONTINUOUS
10
9.75338
20
-3.05444
11
9.75338
21
-3.06125
0
LINE
8
BLACK
6
CONTINUOUS
10
9.75338
20
-3.06125
11
9.75375
21
-3.06199
0
LINE
8
BLACK
6
CONTINUOUS
10
9.75375
20
-3.06199
11
9.75423
21
-3.06199
0
LINE
8
BLACK
6
CONTINUOUS
10
9.75423
20
-3.06199
11
9.75573
21
-3.06124
0
LINE
8
BLACK
6
CONTINUOUS
10
9.75573
20
-3.06124
11
9.75647
21
-3.05975
0
LINE
8
BLACK
6
CONTINUOUS
10
9.75647
20
-3.05975
11
9.75647
21
-3.05514
0
LINE
8
BLACK
6
CONTINUOUS
10
9.75647
20
-3.05514
11
9.75529
21
-3.05276
0
LINE
8
BLACK
6
CONTINUOUS
10
9.75529
20
-3.05276
11
9.75499
21
-3.05178
0
LINE
8
BLACK
6
CONTINUOUS
10
9.75499
20
-3.05178
11
9.75546
21
-3.04982
0
LINE
8
BLACK
6
CONTINUOUS
10
9.75546
20
-3.04982
11
9.75708
21
-3.04861
0
LINE
8
BLACK
6
CONTINUOUS
10
9.75708
20
-3.04861
11
9.7591
21
-3.04873
0
LINE
8
BLACK
6
CONTINUOUS
10
9.7591
20
-3.04873
11
9.76057
21
-3.05012
0
LINE
8
BLACK
6
CONTINUOUS
10
9.76057
20
-3.05012
11
9.76207
21
-3.05312
0
LINE
8
BLACK
6
CONTINUOUS
10
9.76207
20
-3.05312
11
9.76236
21
-3.05411
0
LINE
8
BLACK
6
CONTINUOUS
10
9.76236
20
-3.05411
11
9.76232
21
-3.05428
0
LINE
8
BLACK
6
CONTINUOUS
10
9.76232
20
-3.05428
11
9.76238
21
-3.05444
0
LINE
8
BLACK
6
CONTINUOUS
10
9.76238
20
-3.05444
11
9.76238
21
-3.06044
0
LINE
8
BLACK
6
CONTINUOUS
10
9.76238
20
-3.06044
11
9.7622
21
-3.06145
0
LINE
8
BLACK
6
CONTINUOUS
10
9.7622
20
-3.06145
11
9.76209
21
-3.06159
0
LINE
8
BLACK
6
CONTINUOUS
10
9.76209
20
-3.06159
11
9.76207
21
-3.06176
0
LINE
8
BLACK
6
CONTINUOUS
10
9.76207
20
-3.06176
11
9.76057
21
-3.06476
0
LINE
8
BLACK
6
CONTINUOUS
10
9.76057
20
-3.06476
11
9.75996
21
-3.06559
0
LINE
8
BLACK
6
CONTINUOUS
10
9.75996
20
-3.06559
11
9.75955
21
-3.06576
0
LINE
8
BLACK
6
CONTINUOUS
10
9.75955
20
-3.06576
11
9.75925
21
-3.06608
0
LINE
8
BLACK
6
CONTINUOUS
10
9.75925
20
-3.06608
11
9.75625
21
-3.06758
0
LINE
8
BLACK
6
CONTINUOUS
10
9.75625
20
-3.06758
11
9.75526
21
-3.06788
0
LINE
8
BLACK
6
CONTINUOUS
10
9.75526
20
-3.06788
11
9.75509
21
-3.06783
0
LINE
8
BLACK
6
CONTINUOUS
10
9.75509
20
-3.06783
11
9.75493
21
-3.06789
0
LINE
8
BLACK
6
CONTINUOUS
10
9.75493
20
-3.06789
11
9.73843
21
-3.06789
0
LINE
8
BLACK
6
CONTINUOUS
10
9.73843
20
-3.06789
11
9.73742
21
-3.06772
0
LINE
8
BLACK
6
CONTINUOUS
10
9.73742
20
-3.06772
11
9.73587
21
-3.06642
0
LINE
8
BLACK
6
CONTINUOUS
10
9.73587
20
-3.06642
11
9.73552
21
-3.06443
0
LINE
8
BLACK
6
CONTINUOUS
10
9.73552
20
-3.06443
11
9.73598
21
-3.06364
0
LINE
8
BLACK
6
CONTINUOUS
10
9.73598
20
-3.06364
11
9.73579
21
-3.06326
0
LINE
8
BLACK
6
CONTINUOUS
10
9.73579
20
-3.06326
11
9.7355
21
-3.06228
0
LINE
8
BLACK
6
CONTINUOUS
10
9.7355
20
-3.06228
11
9.73554
21
-3.06211
0
LINE
8
BLACK
6
CONTINUOUS
10
9.73554
20
-3.06211
11
9.73548
21
-3.06194
0
LINE
8
BLACK
6
CONTINUOUS
10
9.73548
20
-3.06194
11
9.73548
21
-3.05444
0
LINE
8
BLACK
6
CONTINUOUS
10
9.73548
20
-3.05444
11
9.73565
21
-3.05343
0
LINE
8
BLACK
6
CONTINUOUS
10
9.73565
20
-3.05343
11
9.73577
21
-3.0533
0
LINE
8
BLACK
6
CONTINUOUS
10
9.73577
20
-3.0533
11
9.73579
21
-3.05312
0
LINE
8
BLACK
6
CONTINUOUS
10
9.73579
20
-3.05312
11
9.73729
21
-3.05012
0
LINE
8
BLACK
6
CONTINUOUS
10
9.73729
20
-3.05012
11
9.7379
21
-3.0493
0
LINE
8
BLACK
6
CONTINUOUS
10
9.7379
20
-3.0493
11
9.7383
21
-3.04912
0
LINE
8
BLACK
6
CONTINUOUS
10
9.7383
20
-3.04912
11
9.73861
21
-3.0488
0
LINE
8
BLACK
6
CONTINUOUS
10
9.73861
20
-3.0488
11
9.74161
21
-3.0473
0
LINE
8
BLACK
6
CONTINUOUS
10
9.74161
20
-3.0473
11
9.74259
21
-3.04701
0
LINE
8
BLACK
6
CONTINUOUS
10
9.74259
20
-3.04701
11
9.74276
21
-3.04705
0
LINE
8
BLACK
6
CONTINUOUS
10
9.74276
20
-3.04705
11
9.74293
21
-3.04699
0
LINE
8
BLACK
6
CONTINUOUS
10
9.74293
20
-3.04699
11
9.74593
21
-3.04699
0
LINE
8
BLACK
6
CONTINUOUS
10
9.74593
20
-3.04699
11
9.74694
21
-3.04717
0
LINE
8
BLACK
6
CONTINUOUS
10
9.74363
20
-3.0529
11
9.74213
21
-3.05364
0
LINE
8
BLACK
6
CONTINUOUS
10
9.74213
20
-3.05364
11
9.74138
21
-3.05514
0
LINE
8
BLACK
6
CONTINUOUS
10
9.74138
20
-3.05514
11
9.74138
21
-3.06125
0
LINE
8
BLACK
6
CONTINUOUS
10
9.74138
20
-3.06125
11
9.74175
21
-3.06199
0
LINE
8
BLACK
6
CONTINUOUS
10
9.74175
20
-3.06199
11
9.74749
21
-3.06199
0
LINE
8
BLACK
6
CONTINUOUS
10
9.74749
20
-3.06199
11
9.74747
21
-3.06194
0
LINE
8
BLACK
6
CONTINUOUS
10
9.74747
20
-3.06194
11
9.74747
21
-3.05514
0
LINE
8
BLACK
6
CONTINUOUS
10
9.74747
20
-3.05514
11
9.74673
21
-3.05364
0
LINE
8
BLACK
6
CONTINUOUS
10
9.74673
20
-3.05364
11
9.74523
21
-3.0529
0
LINE
8
BLACK
6
CONTINUOUS
10
9.74523
20
-3.0529
11
9.74363
21
-3.0529
0
LINE
8
BLACK
6
CONTINUOUS
10
9.89078
20
-3.02021
11
9.89319
21
-3.02083
0
LINE
8
BLACK
6
CONTINUOUS
10
9.89319
20
-3.02083
11
9.89364
21
-3.0213
0
LINE
8
BLACK
6
CONTINUOUS
10
9.89364
20
-3.0213
11
9.89483
21
-3.02211
0
LINE
8
BLACK
6
CONTINUOUS
10
9.89483
20
-3.02211
11
9.89782
21
-3.02259
0
LINE
8
BLACK
6
CONTINUOUS
10
9.89782
20
-3.02259
11
9.89939
21
-3.02264
0
LINE
8
BLACK
6
CONTINUOUS
10
9.89939
20
-3.02264
11
9.90514
21
-3.02264
0
LINE
8
BLACK
6
CONTINUOUS
10
9.90514
20
-3.02264
11
9.9074
21
-3.03229
0
LINE
8
BLACK
6
CONTINUOUS
10
9.9074
20
-3.03229
11
9.90849
21
-3.03709
0
LINE
8
BLACK
6
CONTINUOUS
10
9.90849
20
-3.03709
11
9.90928
21
-3.04085
0
LINE
8
BLACK
6
CONTINUOUS
10
9.90928
20
-3.04085
11
9.90963
21
-3.04285
0
LINE
8
BLACK
6
CONTINUOUS
10
9.90963
20
-3.04285
11
9.90964
21
-3.04294
0
LINE
8
BLACK
6
CONTINUOUS
10
9.90964
20
-3.04294
11
9.90842
21
-3.04347
0
LINE
8
BLACK
6
CONTINUOUS
10
9.90842
20
-3.04347
11
9.90527
21
-3.04383
0
LINE
8
BLACK
6
CONTINUOUS
10
9.90527
20
-3.04383
11
9.90163
21
-3.04394
0
LINE
8
BLACK
6
CONTINUOUS
10
9.90163
20
-3.04394
11
9.89364
21
-3.04394
0
LINE
8
BLACK
6
CONTINUOUS
10
9.89364
20
-3.04394
11
9.89364
21
-3.04794
0
LINE
8
BLACK
6
CONTINUOUS
10
9.89364
20
-3.04794
11
9.8935
21
-3.0503
0
LINE
8
BLACK
6
CONTINUOUS
10
9.8935
20
-3.0503
11
9.8926
21
-3.05148
0
LINE
8
BLACK
6
CONTINUOUS
10
9.8926
20
-3.05148
11
9.89027
21
-3.05189
0
LINE
8
BLACK
6
CONTINUOUS
10
9.89027
20
-3.05189
11
9.88698
21
-3.05193
0
LINE
8
BLACK
6
CONTINUOUS
10
9.88698
20
-3.05193
11
9.88304
21
-3.05184
0
LINE
8
BLACK
6
CONTINUOUS
10
9.88304
20
-3.05184
11
9.88108
21
-3.05131
0
LINE
8
BLACK
6
CONTINUOUS
10
9.88108
20
-3.05131
11
9.8804
21
-3.04991
0
LINE
8
BLACK
6
CONTINUOUS
10
9.8804
20
-3.04991
11
9.88033
21
-3.04794
0
LINE
8
BLACK
6
CONTINUOUS
10
9.88033
20
-3.04794
11
9.88033
21
-3.04394
0
LINE
8
BLACK
6
CONTINUOUS
10
9.88033
20
-3.04394
11
9.86797
21
-3.04394
0
LINE
8
BLACK
6
CONTINUOUS
10
9.86797
20
-3.04394
11
9.85991
21
-3.04428
0
LINE
8
BLACK
6
CONTINUOUS
10
9.85991
20
-3.04428
11
9.85427
21
-3.04532
0
LINE
8
BLACK
6
CONTINUOUS
10
9.85427
20
-3.04532
11
9.85092
21
-3.04711
0
LINE
8
BLACK
6
CONTINUOUS
10
9.85092
20
-3.04711
11
9.84971
21
-3.04971
0
LINE
8
BLACK
6
CONTINUOUS
10
9.84971
20
-3.04971
11
9.8497
21
-3.05001
0
LINE
8
BLACK
6
CONTINUOUS
10
9.8497
20
-3.05001
11
9.8488
21
-3.05131
0
LINE
8
BLACK
6
CONTINUOUS
10
9.8488
20
-3.05131
11
9.84585
21
-3.05188
0
LINE
8
BLACK
6
CONTINUOUS
10
9.84585
20
-3.05188
11
9.84386
21
-3.05193
0
LINE
8
BLACK
6
CONTINUOUS
10
9.84386
20
-3.05193
11
9.84008
21
-3.05171
0
LINE
8
BLACK
6
CONTINUOUS
10
9.84008
20
-3.05171
11
9.83813
21
-3.05081
0
LINE
8
BLACK
6
CONTINUOUS
10
9.83813
20
-3.05081
11
9.83722
21
-3.04893
0
LINE
8
BLACK
6
CONTINUOUS
10
9.83722
20
-3.04893
11
9.83663
21
-3.04487
0
LINE
8
BLACK
6
CONTINUOUS
10
9.83663
20
-3.04487
11
9.83652
21
-3.03977
0
LINE
8
BLACK
6
CONTINUOUS
10
9.83652
20
-3.03977
11
9.83686
21
-3.03485
0
LINE
8
BLACK
6
CONTINUOUS
10
9.83686
20
-3.03485
11
9.83763
21
-3.03133
0
LINE
8
BLACK
6
CONTINUOUS
10
9.83763
20
-3.03133
11
9.83764
21
-3.03129
0
LINE
8
BLACK
6
CONTINUOUS
10
9.83764
20
-3.03129
11
9.83945
21
-3.02841
0
LINE
8
BLACK
6
CONTINUOUS
10
9.83945
20
-3.02841
11
9.84169
21
-3.02597
0
LINE
8
BLACK
6
CONTINUOUS
10
9.84169
20
-3.02597
11
9.84322
21
-3.02486
0
LINE
8
BLACK
6
CONTINUOUS
10
9.84322
20
-3.02486
11
9.84524
21
-3.02408
0
LINE
8
BLACK
6
CONTINUOUS
10
9.84524
20
-3.02408
11
9.84826
21
-3.02354
0
LINE
8
BLACK
6
CONTINUOUS
10
9.84826
20
-3.02354
11
9.85277
21
-3.02319
0
LINE
8
BLACK
6
CONTINUOUS
10
9.85277
20
-3.02319
11
9.85925
21
-3.02293
0
LINE
8
BLACK
6
CONTINUOUS
10
9.85925
20
-3.02293
11
9.86249
21
-3.02284
0
LINE
8
BLACK
6
CONTINUOUS
10
9.86249
20
-3.02284
11
9.86903
21
-3.02258
0
LINE
8
BLACK
6
CONTINUOUS
10
9.86903
20
-3.02258
11
9.8745
21
-3.02221
0
LINE
8
BLACK
6
CONTINUOUS
10
9.8745
20
-3.02221
11
9.8784
21
-3.02177
0
LINE
8
BLACK
6
CONTINUOUS
10
9.8784
20
-3.02177
11
9.88024
21
-3.02129
0
LINE
8
BLACK
6
CONTINUOUS
10
9.88024
20
-3.02129
11
9.88033
21
-3.02117
0
LINE
8
BLACK
6
CONTINUOUS
10
9.88033
20
-3.02117
11
9.88152
21
-3.02049
0
LINE
8
BLACK
6
CONTINUOUS
10
9.88152
20
-3.02049
11
9.88459
21
-3.02005
0
LINE
8
BLACK
6
CONTINUOUS
10
9.88459
20
-3.02005
11
9.88698
21
-3.01997
0
LINE
8
BLACK
6
CONTINUOUS
10
9.88698
20
-3.01997
11
9.89078
21
-3.02021
0
LINE
8
BLACK
6
CONTINUOUS
10
8.69935
20
-2.95835
11
8.7068
21
-2.96123
0
LINE
8
BLACK
6
CONTINUOUS
10
8.7068
20
-2.96123
11
8.7136
21
-2.96544
0
LINE
8
BLACK
6
CONTINUOUS
10
8.7136
20
-2.96544
11
8.7195
21
-2.97082
0
LINE
8
BLACK
6
CONTINUOUS
10
8.7195
20
-2.97082
11
8.72432
21
-2.9772
0
LINE
8
BLACK
6
CONTINUOUS
10
8.72432
20
-2.9772
11
8.72788
21
-2.98436
0
LINE
8
BLACK
6
CONTINUOUS
10
8.72788
20
-2.98436
11
8.73007
21
-2.99204
0
LINE
8
BLACK
6
CONTINUOUS
10
8.73007
20
-2.99204
11
8.73081
21
-3
0
LINE
8
BLACK
6
CONTINUOUS
10
8.73081
20
-3
11
8.73007
21
-3.00796
0
LINE
8
BLACK
6
CONTINUOUS
10
8.73007
20
-3.00796
11
8.72788
21
-3.01564
0
LINE
8
BLACK
6
CONTINUOUS
10
8.72788
20
-3.01564
11
8.72432
21
-3.0228
0
LINE
8
BLACK
6
CONTINUOUS
10
8.72432
20
-3.0228
11
8.7195
21
-3.02918
0
LINE
8
BLACK
6
CONTINUOUS
10
8.7195
20
-3.02918
11
8.7136
21
-3.03456
0
LINE
8
BLACK
6
CONTINUOUS
10
8.7136
20
-3.03456
11
8.7068
21
-3.03877
0
LINE
8
BLACK
6
CONTINUOUS
10
8.7068
20
-3.03877
11
8.69935
21
-3.04165
0
LINE
8
BLACK
6
CONTINUOUS
10
8.69935
20
-3.04165
11
8.6915
21
-3.04312
0
LINE
8
BLACK
6
CONTINUOUS
10
8.6915
20
-3.04312
11
8.6835
21
-3.04312
0
LINE
8
BLACK
6
CONTINUOUS
10
8.6835
20
-3.04312
11
8.67565
21
-3.04165
0
LINE
8
BLACK
6
CONTINUOUS
10
8.67565
20
-3.04165
11
8.6682
21
-3.03877
0
LINE
8
BLACK
6
CONTINUOUS
10
8.6682
20
-3.03877
11
8.6614
21
-3.03456
0
LINE
8
BLACK
6
CONTINUOUS
10
8.6614
20
-3.03456
11
8.6555
21
-3.02918
0
LINE
8
BLACK
6
CONTINUOUS
10
8.6555
20
-3.02918
11
8.65068
21
-3.0228
0
LINE
8
BLACK
6
CONTINUOUS
10
8.65068
20
-3.0228
11
8.64712
21
-3.01564
0
LINE
8
BLACK
6
CONTINUOUS
10
8.64712
20
-3.01564
11
8.64493
21
-3.00796
0
LINE
8
BLACK
6
CONTINUOUS
10
8.64493
20
-3.00796
11
8.64419
21
-3
0
LINE
8
BLACK
6
CONTINUOUS
10
8.64419
20
-3
11
8.64493
21
-2.99204
0
LINE
8
BLACK
6
CONTINUOUS
10
8.64493
20
-2.99204
11
8.64712
21
-2.98436
0
LINE
8
BLACK
6
CONTINUOUS
10
8.64712
20
-2.98436
11
8.65068
21
-2.9772
0
LINE
8
BLACK
6
CONTINUOUS
10
8.65068
20
-2.9772
11
8.6555
21
-2.97082
0
LINE
8
BLACK
6
CONTINUOUS
10
8.6555
20
-2.97082
11
8.6614
21
-2.96544
0
LINE
8
BLACK
6
CONTINUOUS
10
8.6614
20
-2.96544
11
8.6682
21
-2.96123
0
LINE
8
BLACK
6
CONTINUOUS
10
8.6682
20
-2.96123
11
8.67565
21
-2.95835
0
LINE
8
BLACK
6
CONTINUOUS
10
8.67565
20
-2.95835
11
8.6835
21
-2.95688
0
LINE
8
BLACK
6
CONTINUOUS
10
8.6835
20
-2.95688
11
8.6915
21
-2.95688
0
LINE
8
BLACK
6
CONTINUOUS
10
8.6915
20
-2.95688
11
8.69935
21
-2.95835
0
LINE
8
BLACK
6
CONTINUOUS
10
7.19935
20
-2.95835
11
7.2068
21
-2.96123
0
LINE
8
BLACK
6
CONTINUOUS
10
7.2068
20
-2.96123
11
7.2136
21
-2.96544
0
LINE
8
BLACK
6
CONTINUOUS
10
7.2136
20
-2.96544
11
7.2195
21
-2.97082
0
LINE
8
BLACK
6
CONTINUOUS
10
7.2195
20
-2.97082
11
7.22432
21
-2.9772
0
LINE
8
BLACK
6
CONTINUOUS
10
7.22432
20
-2.9772
11
7.22788
21
-2.98436
0
LINE
8
BLACK
6
CONTINUOUS
10
7.22788
20
-2.98436
11
7.23007
21
-2.99204
0
LINE
8
BLACK
6
CONTINUOUS
10
7.23007
20
-2.99204
11
7.23081
21
-3
0
LINE
8
BLACK
6
CONTINUOUS
10
7.23081
20
-3
11
7.23007
21
-3.00796
0
LINE
8
BLACK
6
CONTINUOUS
10
7.23007
20
-3.00796
11
7.22788
21
-3.01564
0
LINE
8
BLACK
6
CONTINUOUS
10
7.22788
20
-3.01564
11
7.22432
21
-3.0228
0
LINE
8
BLACK
6
CONTINUOUS
10
7.22432
20
-3.0228
11
7.2195
21
-3.02918
0
LINE
8
BLACK
6
CONTINUOUS
10
7.2195
20
-3.02918
11
7.2136
21
-3.03456
0
LINE
8
BLACK
6
CONTINUOUS
10
7.2136
20
-3.03456
11
7.2068
21
-3.03877
0
LINE
8
BLACK
6
CONTINUOUS
10
7.2068
20
-3.03877
11
7.19935
21
-3.04165
0
LINE
8
BLACK
6
CONTINUOUS
10
7.19935
20
-3.04165
11
7.1915
21
-3.04312
0
LINE
8
BLACK
6
CONTINUOUS
10
7.1915
20
-3.04312
11
7.1835
21
-3.04312
0
LINE
8
BLACK
6
CONTINUOUS
10
7.1835
20
-3.04312
11
7.17565
21
-3.04165
0
LINE
8
BLACK
6
CONTINUOUS
10
7.17565
20
-3.04165
11
7.1682
21
-3.03877
0
LINE
8
BLACK
6
CONTINUOUS
10
7.1682
20
-3.03877
11
7.1614
21
-3.03456
0
LINE
8
BLACK
6
CONTINUOUS
10
7.1614
20
-3.03456
11
7.1555
21
-3.02918
0
LINE
8
BLACK
6
CONTINUOUS
10
7.1555
20
-3.02918
11
7.15068
21
-3.0228
0
LINE
8
BLACK
6
CONTINUOUS
10
7.15068
20
-3.0228
11
7.14712
21
-3.01564
0
LINE
8
BLACK
6
CONTINUOUS
10
7.14712
20
-3.01564
11
7.14493
21
-3.00796
0
LINE
8
BLACK
6
CONTINUOUS
10
7.14493
20
-3.00796
11
7.14419
21
-3
0
LINE
8
BLACK
6
CONTINUOUS
10
7.14419
20
-3
11
7.14493
21
-2.99204
0
LINE
8
BLACK
6
CONTINUOUS
10
7.14493
20
-2.99204
11
7.14712
21
-2.98436
0
LINE
8
BLACK
6
CONTINUOUS
10
7.14712
20
-2.98436
11
7.15068
21
-2.9772
0
LINE
8
BLACK
6
CONTINUOUS
10
7.15068
20
-2.9772
11
7.1555
21
-2.97082
0
LINE
8
BLACK
6
CONTINUOUS
10
7.1555
20
-2.97082
11
7.1614
21
-2.96544
0
LINE
8
BLACK
6
CONTINUOUS
10
7.1614
20
-2.96544
11
7.1682
21
-2.96123
0
LINE
8
BLACK
6
CONTINUOUS
10
7.1682
20
-2.96123
11
7.17565
21
-2.95835
0
LINE
8
BLACK
6
CONTINUOUS
10
7.17565
20
-2.95835
11
7.1835
21
-2.95688
0
LINE
8
BLACK
6
CONTINUOUS
10
7.1835
20
-2.95688
11
7.1915
21
-2.95688
0
LINE
8
BLACK
6
CONTINUOUS
10
7.1915
20
-2.95688
11
7.19935
21
-2.95835
0
LINE
8
BLACK
6
CONTINUOUS
10
4.94935
20
-2.95835
11
4.9568
21
-2.96123
0
LINE
8
BLACK
6
CONTINUOUS
10
4.9568
20
-2.96123
11
4.9636
21
-2.96544
0
LINE
8
BLACK
6
CONTINUOUS
10
4.9636
20
-2.96544
11
4.9695
21
-2.97082
0
LINE
8
BLACK
6
CONTINUOUS
10
4.9695
20
-2.97082
11
4.97432
21
-2.9772
0
LINE
8
BLACK
6
CONTINUOUS
10
4.97432
20
-2.9772
11
4.97788
21
-2.98436
0
LINE
8
BLACK
6
CONTINUOUS
10
4.97788
20
-2.98436
11
4.98007
21
-2.99204
0
LINE
8
BLACK
6
CONTINUOUS
10
4.98007
20
-2.99204
11
4.98081
21
-3
0
LINE
8
BLACK
6
CONTINUOUS
10
4.98081
20
-3
11
4.98007
21
-3.00796
0
LINE
8
BLACK
6
CONTINUOUS
10
4.98007
20
-3.00796
11
4.97788
21
-3.01564
0
LINE
8
BLACK
6
CONTINUOUS
10
4.97788
20
-3.01564
11
4.97432
21
-3.0228
0
LINE
8
BLACK
6
CONTINUOUS
10
4.97432
20
-3.0228
11
4.9695
21
-3.02918
0
LINE
8
BLACK
6
CONTINUOUS
10
4.9695
20
-3.02918
11
4.9636
21
-3.03456
0
LINE
8
BLACK
6
CONTINUOUS
10
4.9636
20
-3.03456
11
4.9568
21
-3.03877
0
LINE
8
BLACK
6
CONTINUOUS
10
4.9568
20
-3.03877
11
4.94935
21
-3.04165
0
LINE
8
BLACK
6
CONTINUOUS
10
4.94935
20
-3.04165
11
4.9415
21
-3.04312
0
LINE
8
BLACK
6
CONTINUOUS
10
4.9415
20
-3.04312
11
4.9335
21
-3.04312
0
LINE
8
BLACK
6
CONTINUOUS
10
4.9335
20
-3.04312
11
4.92565
21
-3.04165
0
LINE
8
BLACK
6
CONTINUOUS
10
4.92565
20
-3.04165
11
4.9182
21
-3.03877
0
LINE
8
BLACK
6
CONTINUOUS
10
4.9182
20
-3.03877
11
4.9114
21
-3.03456
0
LINE
8
BLACK
6
CONTINUOUS
10
4.9114
20
-3.03456
11
4.9055
21
-3.02918
0
LINE
8
BLACK
6
CONTINUOUS
10
4.9055
20
-3.02918
11
4.90068
21
-3.0228
0
LINE
8
BLACK
6
CONTINUOUS
10
4.90068
20
-3.0228
11
4.89712
21
-3.01564
0
LINE
8
BLACK
6
CONTINUOUS
10
4.89712
20
-3.01564
11
4.89493
21
-3.00796
0
LINE
8
BLACK
6
CONTINUOUS
10
4.89493
20
-3.00796
11
4.89419
21
-3
0
LINE
8
BLACK
6
CONTINUOUS
10
4.89419
20
-3
11
4.89493
21
-2.99204
0
LINE
8
BLACK
6
CONTINUOUS
10
4.89493
20
-2.99204
11
4.89712
21
-2.98436
0
LINE
8
BLACK
6
CONTINUOUS
10
4.89712
20
-2.98436
11
4.90068
21
-2.9772
0
LINE
8
BLACK
6
CONTINUOUS
10
4.90068
20
-2.9772
11
4.9055
21
-2.97082
0
LINE
8
BLACK
6
CONTINUOUS
10
4.9055
20
-2.97082
11
4.9114
21
-2.96544
0
LINE
8
BLACK
6
CONTINUOUS
10
4.9114
20
-2.96544
11
4.9182
21
-2.96123
0
LINE
8
BLACK
6
CONTINUOUS
10
4.9182
20
-2.96123
11
4.92565
21
-2.95835
0
LINE
8
BLACK
6
CONTINUOUS
10
4.92565
20
-2.95835
11
4.9335
21
-2.95688
0
LINE
8
BLACK
6
CONTINUOUS
10
4.9335
20
-2.95688
11
4.9415
21
-2.95688
0
LINE
8
BLACK
6
CONTINUOUS
10
4.9415
20
-2.95688
11
4.94935
21
-2.95835
0
LINE
8
BLACK
6
CONTINUOUS
10
3.44935
20
-2.95835
11
3.4568
21
-2.96123
0
LINE
8
BLACK
6
CONTINUOUS
10
3.4568
20
-2.96123
11
3.4636
21
-2.96544
0
LINE
8
BLACK
6
CONTINUOUS
10
3.4636
20
-2.96544
11
3.4695
21
-2.97082
0
LINE
8
BLACK
6
CONTINUOUS
10
3.4695
20
-2.97082
11
3.47432
21
-2.9772
0
LINE
8
BLACK
6
CONTINUOUS
10
3.47432
20
-2.9772
11
3.47788
21
-2.98436
0
LINE
8
BLACK
6
CONTINUOUS
10
3.47788
20
-2.98436
11
3.48007
21
-2.99204
0
LINE
8
BLACK
6
CONTINUOUS
10
3.48007
20
-2.99204
11
3.48081
21
-3
0
LINE
8
BLACK
6
CONTINUOUS
10
3.48081
20
-3
11
3.48007
21
-3.00796
0
LINE
8
BLACK
6
CONTINUOUS
10
3.48007
20
-3.00796
11
3.47788
21
-3.01564
0
LINE
8
BLACK
6
CONTINUOUS
10
3.47788
20
-3.01564
11
3.47432
21
-3.0228
0
LINE
8
BLACK
6
CONTINUOUS
10
3.47432
20
-3.0228
11
3.4695
21
-3.02918
0
LINE
8
BLACK
6
CONTINUOUS
10
3.4695
20
-3.02918
11
3.4636
21
-3.03456
0
LINE
8
BLACK
6
CONTINUOUS
10
3.4636
20
-3.03456
11
3.4568
21
-3.03877
0
LINE
8
BLACK
6
CONTINUOUS
10
3.4568
20
-3.03877
11
3.44935
21
-3.04165
0
LINE
8
BLACK
6
CONTINUOUS
10
3.44935
20
-3.04165
11
3.4415
21
-3.04312
0
LINE
8
BLACK
6
CONTINUOUS
10
3.4415
20
-3.04312
11
3.4335
21
-3.04312
0
LINE
8
BLACK
6
CONTINUOUS
10
3.4335
20
-3.04312
11
3.42565
21
-3.04165
0
LINE
8
BLACK
6
CONTINUOUS
10
3.42565
20
-3.04165
11
3.4182
21
-3.03877
0
LINE
8
BLACK
6
CONTINUOUS
10
3.4182
20
-3.03877
11
3.4114
21
-3.03456
0
LINE
8
BLACK
6
CONTINUOUS
10
3.4114
20
-3.03456
11
3.4055
21
-3.02918
0
LINE
8
BLACK
6
CONTINUOUS
10
3.4055
20
-3.02918
11
3.40068
21
-3.0228
0
LINE
8
BLACK
6
CONTINUOUS
10
3.40068
20
-3.0228
11
3.39712
21
-3.01564
0
LINE
8
BLACK
6
CONTINUOUS
10
3.39712
20
-3.01564
11
3.39493
21
-3.00796
0
LINE
8
BLACK
6
CONTINUOUS
10
3.39493
20
-3.00796
11
3.39419
21
-3
0
LINE
8
BLACK
6
CONTINUOUS
10
3.39419
20
-3
11
3.39493
21
-2.99204
0
LINE
8
BLACK
6
CONTINUOUS
10
3.39493
20
-2.99204
11
3.39712
21
-2.98436
0
LINE
8
BLACK
6
CONTINUOUS
10
3.39712
20
-2.98436
11
3.40068
21
-2.9772
0
LINE
8
BLACK
6
CONTINUOUS
10
3.40068
20
-2.9772
11
3.4055
21
-2.97082
0
LINE
8
BLACK
6
CONTINUOUS
10
3.4055
20
-2.97082
11
3.4114
21
-2.96544
0
LINE
8
BLACK
6
CONTINUOUS
10
3.4114
20
-2.96544
11
3.4182
21
-2.96123
0
LINE
8
BLACK
6
CONTINUOUS
10
3.4182
20
-2.96123
11
3.42565
21
-2.95835
0
LINE
8
BLACK
6
CONTINUOUS
10
3.42565
20
-2.95835
11
3.4335
21
-2.95688
0
LINE
8
BLACK
6
CONTINUOUS
10
3.4335
20
-2.95688
11
3.4415
21
-2.95688
0
LINE
8
BLACK
6
CONTINUOUS
10
3.4415
20
-2.95688
11
3.44935
21
-2.95835
0
LINE
8
BLACK
6
CONTINUOUS
10
9.77093
20
-3.03217
11
9.77248
21
-3.03347
0
LINE
8
BLACK
6
CONTINUOUS
10
9.77248
20
-3.03347
11
9.77283
21
-3.03546
0
LINE
8
BLACK
6
CONTINUOUS
10
9.77283
20
-3.03546
11
9.77182
21
-3.03721
0
LINE
8
BLACK
6
CONTINUOUS
10
9.77182
20
-3.03721
11
9.76993
21
-3.0379
0
LINE
8
BLACK
6
CONTINUOUS
10
9.76993
20
-3.0379
11
9.74363
21
-3.0379
0
LINE
8
BLACK
6
CONTINUOUS
10
9.74363
20
-3.0379
11
9.74213
21
-3.03865
0
LINE
8
BLACK
6
CONTINUOUS
10
9.74213
20
-3.03865
11
9.74107
21
-3.04077
0
LINE
8
BLACK
6
CONTINUOUS
10
9.74107
20
-3.04077
11
9.74046
21
-3.04159
0
LINE
8
BLACK
6
CONTINUOUS
10
9.74046
20
-3.04159
11
9.73861
21
-3.04239
0
LINE
8
BLACK
6
CONTINUOUS
10
9.73861
20
-3.04239
11
9.73667
21
-3.04182
0
LINE
8
BLACK
6
CONTINUOUS
10
9.73667
20
-3.04182
11
9.73556
21
-3.04013
0
LINE
8
BLACK
6
CONTINUOUS
10
9.73556
20
-3.04013
11
9.73579
21
-3.03812
0
LINE
8
BLACK
6
CONTINUOUS
10
9.73579
20
-3.03812
11
9.73729
21
-3.03512
0
LINE
8
BLACK
6
CONTINUOUS
10
9.73729
20
-3.03512
11
9.7379
21
-3.0343
0
LINE
8
BLACK
6
CONTINUOUS
10
9.7379
20
-3.0343
11
9.7383
21
-3.03413
0
LINE
8
BLACK
6
CONTINUOUS
10
9.7383
20
-3.03413
11
9.73861
21
-3.0338
0
LINE
8
BLACK
6
CONTINUOUS
10
9.73861
20
-3.0338
11
9.74161
21
-3.0323
0
LINE
8
BLACK
6
CONTINUOUS
10
9.74161
20
-3.0323
11
9.74259
21
-3.03201
0
LINE
8
BLACK
6
CONTINUOUS
10
9.74259
20
-3.03201
11
9.74276
21
-3.03205
0
LINE
8
BLACK
6
CONTINUOUS
10
9.74276
20
-3.03205
11
9.74293
21
-3.03199
0
LINE
8
BLACK
6
CONTINUOUS
10
9.74293
20
-3.03199
11
9.76993
21
-3.03199
0
LINE
8
BLACK
6
CONTINUOUS
10
9.76993
20
-3.03199
11
9.77093
21
-3.03217
0
LINE
8
BLACK
6
CONTINUOUS
10
9.77031
20
-3.00056
11
9.77044
21
-3.00054
0
LINE
8
BLACK
6
CONTINUOUS
10
9.77044
20
-3.00054
11
9.77055
21
-3.00061
0
LINE
8
BLACK
6
CONTINUOUS
10
9.77055
20
-3.00061
11
9.77093
21
-3.00067
0
LINE
8
BLACK
6
CONTINUOUS
10
9.77093
20
-3.00067
11
9.77152
21
-3.00117
0
LINE
8
BLACK
6
CONTINUOUS
10
9.77152
20
-3.00117
11
9.77219
21
-3.00155
0
LINE
8
BLACK
6
CONTINUOUS
10
9.77219
20
-3.00155
11
9.77228
21
-3.0018
0
LINE
8
BLACK
6
CONTINUOUS
10
9.77228
20
-3.0018
11
9.77248
21
-3.00197
0
LINE
8
BLACK
6
CONTINUOUS
10
9.77248
20
-3.00197
11
9.77262
21
-3.00273
0
LINE
8
BLACK
6
CONTINUOUS
10
9.77262
20
-3.00273
11
9.77288
21
-3.00345
0
LINE
8
BLACK
6
CONTINUOUS
10
9.77288
20
-3.00345
11
9.77288
21
-3.01545
0
LINE
8
BLACK
6
CONTINUOUS
10
9.77288
20
-3.01545
11
9.7727
21
-3.01646
0
LINE
8
BLACK
6
CONTINUOUS
10
9.7727
20
-3.01646
11
9.77259
21
-3.01659
0
LINE
8
BLACK
6
CONTINUOUS
10
9.77259
20
-3.01659
11
9.77257
21
-3.01677
0
LINE
8
BLACK
6
CONTINUOUS
10
9.77257
20
-3.01677
11
9.77107
21
-3.01977
0
LINE
8
BLACK
6
CONTINUOUS
10
9.77107
20
-3.01977
11
9.77054
21
-3.02048
0
LINE
8
BLACK
6
CONTINUOUS
10
9.77054
20
-3.02048
11
9.77051
21
-3.02054
0
LINE
8
BLACK
6
CONTINUOUS
10
9.77051
20
-3.02054
11
9.76901
21
-3.02204
0
LINE
8
BLACK
6
CONTINUOUS
10
9.76901
20
-3.02204
11
9.76829
21
-3.02254
0
LINE
8
BLACK
6
CONTINUOUS
10
9.76829
20
-3.02254
11
9.76825
21
-3.02259
0
LINE
8
BLACK
6
CONTINUOUS
10
9.76825
20
-3.02259
11
9.76525
21
-3.02409
0
LINE
8
BLACK
6
CONTINUOUS
10
9.76525
20
-3.02409
11
9.76426
21
-3.02438
0
LINE
8
BLACK
6
CONTINUOUS
10
9.76426
20
-3.02438
11
9.76409
21
-3.02434
0
LINE
8
BLACK
6
CONTINUOUS
10
9.76409
20
-3.02434
11
9.76393
21
-3.0244
0
LINE
8
BLACK
6
CONTINUOUS
10
9.76393
20
-3.0244
11
9.75943
21
-3.0244
0
LINE
8
BLACK
6
CONTINUOUS
10
9.75943
20
-3.0244
11
9.75842
21
-3.02422
0
LINE
8
BLACK
6
CONTINUOUS
10
9.75842
20
-3.02422
11
9.75828
21
-3.02411
0
LINE
8
BLACK
6
CONTINUOUS
10
9.75828
20
-3.02411
11
9.75811
21
-3.02409
0
LINE
8
BLACK
6
CONTINUOUS
10
9.75811
20
-3.02409
11
9.75511
21
-3.02259
0
LINE
8
BLACK
6
CONTINUOUS
10
9.75511
20
-3.02259
11
9.7544
21
-3.02206
0
LINE
8
BLACK
6
CONTINUOUS
10
9.7544
20
-3.02206
11
9.75434
21
-3.02204
0
LINE
8
BLACK
6
CONTINUOUS
10
9.75434
20
-3.02204
11
9.75284
21
-3.02054
0
LINE
8
BLACK
6
CONTINUOUS
10
9.75284
20
-3.02054
11
9.75233
21
-3.01981
0
LINE
8
BLACK
6
CONTINUOUS
10
9.75233
20
-3.01981
11
9.75229
21
-3.01977
0
LINE
8
BLACK
6
CONTINUOUS
10
9.75229
20
-3.01977
11
9.75079
21
-3.01677
0
LINE
8
BLACK
6
CONTINUOUS
10
9.75079
20
-3.01677
11
9.75049
21
-3.01579
0
LINE
8
BLACK
6
CONTINUOUS
10
9.75049
20
-3.01579
11
9.75053
21
-3.01561
0
LINE
8
BLACK
6
CONTINUOUS
10
9.75053
20
-3.01561
11
9.75047
21
-3.01545
0
LINE
8
BLACK
6
CONTINUOUS
10
9.75047
20
-3.01545
11
9.75047
21
-3.0064
0
LINE
8
BLACK
6
CONTINUOUS
10
9.75047
20
-3.0064
11
9.73843
21
-3.0064
0
LINE
8
BLACK
6
CONTINUOUS
10
9.73843
20
-3.0064
11
9.73742
21
-3.00622
0
LINE
8
BLACK
6
CONTINUOUS
10
9.73742
20
-3.00622
11
9.73587
21
-3.00493
0
LINE
8
BLACK
6
CONTINUOUS
10
9.73587
20
-3.00493
11
9.73552
21
-3.00294
0
LINE
8
BLACK
6
CONTINUOUS
10
9.73552
20
-3.00294
11
9.73653
21
-3.00119
0
LINE
8
BLACK
6
CONTINUOUS
10
9.73653
20
-3.00119
11
9.73843
21
-3.0005
0
LINE
8
BLACK
6
CONTINUOUS
10
9.73843
20
-3.0005
11
9.76993
21
-3.0005
0
LINE
8
BLACK
6
CONTINUOUS
10
9.76993
20
-3.0005
11
9.77031
21
-3.00056
0
LINE
8
BLACK
6
CONTINUOUS
10
9.75638
20
-3.0064
11
9.75638
21
-3.01475
0
LINE
8
BLACK
6
CONTINUOUS
10
9.75638
20
-3.01475
11
9.75735
21
-3.0167
0
LINE
8
BLACK
6
CONTINUOUS
10
9.75735
20
-3.0167
11
9.75818
21
-3.01752
0
LINE
8
BLACK
6
CONTINUOUS
10
9.75818
20
-3.01752
11
9.76012
21
-3.01849
0
LINE
8
BLACK
6
CONTINUOUS
10
9.76012
20
-3.01849
11
9.76323
21
-3.01849
0
LINE
8
BLACK
6
CONTINUOUS
10
9.76323
20
-3.01849
11
9.76518
21
-3.01752
0
LINE
8
BLACK
6
CONTINUOUS
10
9.76518
20
-3.01752
11
9.766
21
-3.0167
0
LINE
8
BLACK
6
CONTINUOUS
10
9.766
20
-3.0167
11
9.76697
21
-3.01475
0
LINE
8
BLACK
6
CONTINUOUS
10
9.76697
20
-3.01475
11
9.76697
21
-3.0064
0
LINE
8
BLACK
6
CONTINUOUS
10
9.76697
20
-3.0064
11
9.75638
21
-3.0064
0
LINE
8
BLACK
6
CONTINUOUS
10
9.84694
20
-2.99093
11
9.8497
21
-2.99156
0
LINE
8
BLACK
6
CONTINUOUS
10
9.8497
20
-2.99156
11
9.85037
21
-2.99201
0
LINE
8
BLACK
6
CONTINUOUS
10
9.85037
20
-2.99201
11
9.85198
21
-2.9925
0
LINE
8
BLACK
6
CONTINUOUS
10
9.85198
20
-2.9925
11
9.85597
21
-2.99289
0
LINE
8
BLACK
6
CONTINUOUS
10
9.85597
20
-2.99289
11
9.86206
21
-2.99317
0
LINE
8
BLACK
6
CONTINUOUS
10
9.86206
20
-2.99317
11
9.86995
21
-2.99332
0
LINE
8
BLACK
6
CONTINUOUS
10
9.86995
20
-2.99332
11
9.875
21
-2.99334
0
LINE
8
BLACK
6
CONTINUOUS
10
9.875
20
-2.99334
11
9.88378
21
-2.99327
0
LINE
8
BLACK
6
CONTINUOUS
10
9.88378
20
-2.99327
11
9.8909
21
-2.99306
0
LINE
8
BLACK
6
CONTINUOUS
10
9.8909
20
-2.99306
11
9.89609
21
-2.99273
0
LINE
8
BLACK
6
CONTINUOUS
10
9.89609
20
-2.99273
11
9.89905
21
-2.99229
0
LINE
8
BLACK
6
CONTINUOUS
10
9.89905
20
-2.99229
11
9.89963
21
-2.99201
0
LINE
8
BLACK
6
CONTINUOUS
10
9.89963
20
-2.99201
11
9.90134
21
-2.99124
0
LINE
8
BLACK
6
CONTINUOUS
10
9.90134
20
-2.99124
11
9.90477
21
-2.99076
0
LINE
8
BLACK
6
CONTINUOUS
10
9.90477
20
-2.99076
11
9.90704
21
-2.99068
0
LINE
8
BLACK
6
CONTINUOUS
10
9.90704
20
-2.99068
11
9.91362
21
-2.99068
0
LINE
8
BLACK
6
CONTINUOUS
10
9.91362
20
-2.99068
11
9.91362
21
-3.00191
0
LINE
8
BLACK
6
CONTINUOUS
10
9.91362
20
-3.00191
11
9.91362
21
-3.01314
0
LINE
8
BLACK
6
CONTINUOUS
10
9.91362
20
-3.01314
11
9.88305
21
-3.01356
0
LINE
8
BLACK
6
CONTINUOUS
10
9.88305
20
-3.01356
11
9.87222
21
-3.01375
0
LINE
8
BLACK
6
CONTINUOUS
10
9.87222
20
-3.01375
11
9.86384
21
-3.01402
0
LINE
8
BLACK
6
CONTINUOUS
10
9.86384
20
-3.01402
11
9.85771
21
-3.01436
0
LINE
8
BLACK
6
CONTINUOUS
10
9.85771
20
-3.01436
11
9.85361
21
-3.0148
0
LINE
8
BLACK
6
CONTINUOUS
10
9.85361
20
-3.0148
11
9.85134
21
-3.01534
0
LINE
8
BLACK
6
CONTINUOUS
10
9.85134
20
-3.01534
11
9.85083
21
-3.01565
0
LINE
8
BLACK
6
CONTINUOUS
10
9.85083
20
-3.01565
11
9.84858
21
-3.01664
0
LINE
8
BLACK
6
CONTINUOUS
10
9.84858
20
-3.01664
11
9.84479
21
-3.01723
0
LINE
8
BLACK
6
CONTINUOUS
10
9.84479
20
-3.01723
11
9.84278
21
-3.01731
0
LINE
8
BLACK
6
CONTINUOUS
10
9.84278
20
-3.01731
11
9.83638
21
-3.01731
0
LINE
8
BLACK
6
CONTINUOUS
10
9.83638
20
-3.01731
11
9.83638
21
-3.00399
0
LINE
8
BLACK
6
CONTINUOUS
10
9.83638
20
-3.00399
11
9.83638
21
-2.99068
0
LINE
8
BLACK
6
CONTINUOUS
10
9.83638
20
-2.99068
11
9.84296
21
-2.99068
0
LINE
8
BLACK
6
CONTINUOUS
10
9.84296
20
-2.99068
11
9.84694
21
-2.99093
0
LINE
8
BLACK
6
CONTINUOUS
10
9.89364
20
-2.93927
11
9.89354
21
-2.945
0
LINE
8
BLACK
6
CONTINUOUS
10
9.89354
20
-2.945
11
9.89319
21
-2.94858
0
LINE
8
BLACK
6
CONTINUOUS
10
9.89319
20
-2.94858
11
9.89248
21
-2.95051
0
LINE
8
BLACK
6
CONTINUOUS
10
9.89248
20
-2.95051
11
9.89154
21
-2.95126
0
LINE
8
BLACK
6
CONTINUOUS
10
9.89154
20
-2.95126
11
9.88943
21
-2.95157
0
LINE
8
BLACK
6
CONTINUOUS
10
9.88943
20
-2.95157
11
9.88527
21
-2.95183
0
LINE
8
BLACK
6
CONTINUOUS
10
9.88527
20
-2.95183
11
9.87966
21
-2.95201
0
LINE
8
BLACK
6
CONTINUOUS
10
9.87966
20
-2.95201
11
9.87323
21
-2.95208
0
LINE
8
BLACK
6
CONTINUOUS
10
9.87323
20
-2.95208
11
9.865
21
-2.95215
0
LINE
8
BLACK
6
CONTINUOUS
10
9.865
20
-2.95215
11
9.85908
21
-2.95237
0
LINE
8
BLACK
6
CONTINUOUS
10
9.85908
20
-2.95237
11
9.85509
21
-2.95283
0
LINE
8
BLACK
6
CONTINUOUS
10
9.85509
20
-2.95283
11
9.85266
21
-2.95361
0
LINE
8
BLACK
6
CONTINUOUS
10
9.85266
20
-2.95361
11
9.85143
21
-2.95479
0
LINE
8
BLACK
6
CONTINUOUS
10
9.85143
20
-2.95479
11
9.85104
21
-2.95645
0
LINE
8
BLACK
6
CONTINUOUS
10
9.85104
20
-2.95645
11
9.85103
21
-2.95688
0
LINE
8
BLACK
6
CONTINUOUS
10
9.85103
20
-2.95688
11
9.85113
21
-2.9583
0
LINE
8
BLACK
6
CONTINUOUS
10
9.85113
20
-2.9583
11
9.85172
21
-2.95921
0
LINE
8
BLACK
6
CONTINUOUS
10
9.85172
20
-2.95921
11
9.8533
21
-2.95974
0
LINE
8
BLACK
6
CONTINUOUS
10
9.8533
20
-2.95974
11
9.85633
21
-2.95998
0
LINE
8
BLACK
6
CONTINUOUS
10
9.85633
20
-2.95998
11
9.86129
21
-2.96005
0
LINE
8
BLACK
6
CONTINUOUS
10
9.86129
20
-2.96005
11
9.86493
21
-2.96005
0
LINE
8
BLACK
6
CONTINUOUS
10
9.86493
20
-2.96005
11
9.87094
21
-2.95993
0
LINE
8
BLACK
6
CONTINUOUS
10
9.87094
20
-2.95993
11
9.87576
21
-2.9596
0
LINE
8
BLACK
6
CONTINUOUS
10
9.87576
20
-2.9596
11
9.87884
21
-2.95911
0
LINE
8
BLACK
6
CONTINUOUS
10
9.87884
20
-2.95911
11
9.87966
21
-2.95872
0
LINE
8
BLACK
6
CONTINUOUS
10
9.87966
20
-2.95872
11
9.88137
21
-2.95795
0
LINE
8
BLACK
6
CONTINUOUS
10
9.88137
20
-2.95795
11
9.88479
21
-2.95747
0
LINE
8
BLACK
6
CONTINUOUS
10
9.88479
20
-2.95747
11
9.88706
21
-2.95739
0
LINE
8
BLACK
6
CONTINUOUS
10
9.88706
20
-2.95739
11
9.89364
21
-2.95739
0
LINE
8
BLACK
6
CONTINUOUS
10
9.89364
20
-2.95739
11
9.89364
21
-2.96931
0
LINE
8
BLACK
6
CONTINUOUS
10
9.89364
20
-2.96931
11
9.89364
21
-2.98123
0
LINE
8
BLACK
6
CONTINUOUS
10
9.89364
20
-2.98123
11
9.87267
21
-2.98187
0
LINE
8
BLACK
6
CONTINUOUS
10
9.87267
20
-2.98187
11
9.86475
21
-2.98215
0
LINE
8
BLACK
6
CONTINUOUS
10
9.86475
20
-2.98215
11
9.85711
21
-2.9825
0
LINE
8
BLACK
6
CONTINUOUS
10
9.85711
20
-2.9825
11
9.85046
21
-2.98287
0
LINE
8
BLACK
6
CONTINUOUS
10
9.85046
20
-2.98287
11
9.84547
21
-2.98324
0
LINE
8
BLACK
6
CONTINUOUS
10
9.84547
20
-2.98324
11
9.84404
21
-2.98338
0
LINE
8
BLACK
6
CONTINUOUS
10
9.84404
20
-2.98338
11
9.83638
21
-2.98427
0
LINE
8
BLACK
6
CONTINUOUS
10
9.83638
20
-2.98427
11
9.83638
21
-2.97216
0
LINE
8
BLACK
6
CONTINUOUS
10
9.83638
20
-2.97216
11
9.83652
21
-2.96657
0
LINE
8
BLACK
6
CONTINUOUS
10
9.83652
20
-2.96657
11
9.83688
21
-2.96243
0
LINE
8
BLACK
6
CONTINUOUS
10
9.83688
20
-2.96243
11
9.83743
21
-2.96026
0
LINE
8
BLACK
6
CONTINUOUS
10
9.83743
20
-2.96026
11
9.83768
21
-2.96005
0
LINE
8
BLACK
6
CONTINUOUS
10
9.83768
20
-2.96005
11
9.83831
21
-2.95899
0
LINE
8
BLACK
6
CONTINUOUS
10
9.83831
20
-2.95899
11
9.83768
21
-2.95664
0
LINE
8
BLACK
6
CONTINUOUS
10
9.83768
20
-2.95664
11
9.83677
21
-2.95233
0
LINE
8
BLACK
6
CONTINUOUS
10
9.83677
20
-2.95233
11
9.83651
21
-2.9468
0
LINE
8
BLACK
6
CONTINUOUS
10
9.83651
20
-2.9468
11
9.8369
21
-2.94137
0
LINE
8
BLACK
6
CONTINUOUS
10
9.8369
20
-2.94137
11
9.83778
21
-2.93769
0
LINE
8
BLACK
6
CONTINUOUS
10
9.83778
20
-2.93769
11
9.83973
21
-2.93492
0
LINE
8
BLACK
6
CONTINUOUS
10
9.83973
20
-2.93492
11
9.8432
21
-2.93292
0
LINE
8
BLACK
6
CONTINUOUS
10
9.8432
20
-2.93292
11
9.84849
21
-2.93161
0
LINE
8
BLACK
6
CONTINUOUS
10
9.84849
20
-2.93161
11
9.85588
21
-2.93092
0
LINE
8
BLACK
6
CONTINUOUS
10
9.85588
20
-2.93092
11
9.86356
21
-2.93076
0
LINE
8
BLACK
6
CONTINUOUS
10
9.86356
20
-2.93076
11
9.86999
21
-2.93065
0
LINE
8
BLACK
6
CONTINUOUS
10
9.86999
20
-2.93065
11
9.87516
21
-2.93034
0
LINE
8
BLACK
6
CONTINUOUS
10
9.87516
20
-2.93034
11
9.87855
21
-2.92988
0
LINE
8
BLACK
6
CONTINUOUS
10
9.87855
20
-2.92988
11
9.87966
21
-2.92943
0
LINE
8
BLACK
6
CONTINUOUS
10
9.87966
20
-2.92943
11
9.88137
21
-2.92865
0
LINE
8
BLACK
6
CONTINUOUS
10
9.88137
20
-2.92865
11
9.88479
21
-2.92817
0
LINE
8
BLACK
6
CONTINUOUS
10
9.88479
20
-2.92817
11
9.88706
21
-2.9281
0
LINE
8
BLACK
6
CONTINUOUS
10
9.88706
20
-2.9281
11
9.89364
21
-2.9281
0
LINE
8
BLACK
6
CONTINUOUS
10
9.89364
20
-2.9281
11
9.89364
21
-2.93927
0
LINE
8
BLACK
6
CONTINUOUS
10
9.77031
20
-2.95017
11
9.77044
21
-2.95015
0
LINE
8
BLACK
6
CONTINUOUS
10
9.77044
20
-2.95015
11
9.77055
21
-2.95021
0
LINE
8
BLACK
6
CONTINUOUS
10
9.77055
20
-2.95021
11
9.77093
21
-2.95028
0
LINE
8
BLACK
6
CONTINUOUS
10
9.77093
20
-2.95028
11
9.77152
21
-2.95077
0
LINE
8
BLACK
6
CONTINUOUS
10
9.77152
20
-2.95077
11
9.77219
21
-2.95116
0
LINE
8
BLACK
6
CONTINUOUS
10
9.77219
20
-2.95116
11
9.77228
21
-2.95141
0
LINE
8
BLACK
6
CONTINUOUS
10
9.77228
20
-2.95141
11
9.77248
21
-2.95158
0
LINE
8
BLACK
6
CONTINUOUS
10
9.77248
20
-2.95158
11
9.77262
21
-2.95234
0
LINE
8
BLACK
6
CONTINUOUS
10
9.77262
20
-2.95234
11
9.77288
21
-2.95306
0
LINE
8
BLACK
6
CONTINUOUS
10
9.77288
20
-2.95306
11
9.77288
21
-2.96355
0
LINE
8
BLACK
6
CONTINUOUS
10
9.77288
20
-2.96355
11
9.7727
21
-2.96456
0
LINE
8
BLACK
6
CONTINUOUS
10
9.7727
20
-2.96456
11
9.77259
21
-2.9647
0
LINE
8
BLACK
6
CONTINUOUS
10
9.77259
20
-2.9647
11
9.77257
21
-2.96488
0
LINE
8
BLACK
6
CONTINUOUS
10
9.77257
20
-2.96488
11
9.77107
21
-2.96787
0
LINE
8
BLACK
6
CONTINUOUS
10
9.77107
20
-2.96787
11
9.77054
21
-2.96858
0
LINE
8
BLACK
6
CONTINUOUS
10
9.77054
20
-2.96858
11
9.77051
21
-2.96864
0
LINE
8
BLACK
6
CONTINUOUS
10
9.77051
20
-2.96864
11
9.76901
21
-2.97014
0
LINE
8
BLACK
6
CONTINUOUS
10
9.76901
20
-2.97014
11
9.76829
21
-2.97065
0
LINE
8
BLACK
6
CONTINUOUS
10
9.76829
20
-2.97065
11
9.76825
21
-2.9707
0
LINE
8
BLACK
6
CONTINUOUS
10
9.76825
20
-2.9707
11
9.76525
21
-2.97219
0
LINE
8
BLACK
6
CONTINUOUS
10
9.76525
20
-2.97219
11
9.76426
21
-2.97249
0
LINE
8
BLACK
6
CONTINUOUS
10
9.76426
20
-2.97249
11
9.76409
21
-2.97245
0
LINE
8
BLACK
6
CONTINUOUS
10
9.76409
20
-2.97245
11
9.76393
21
-2.97251
0
LINE
8
BLACK
6
CONTINUOUS
10
9.76393
20
-2.97251
11
9.76093
21
-2.97251
0
LINE
8
BLACK
6
CONTINUOUS
10
9.76093
20
-2.97251
11
9.75992
21
-2.97233
0
LINE
8
BLACK
6
CONTINUOUS
10
9.75992
20
-2.97233
11
9.75978
21
-2.97221
0
LINE
8
BLACK
6
CONTINUOUS
10
9.75978
20
-2.97221
11
9.75961
21
-2.97219
0
LINE
8
BLACK
6
CONTINUOUS
10
9.75961
20
-2.97219
11
9.75661
21
-2.9707
0
LINE
8
BLACK
6
CONTINUOUS
10
9.75661
20
-2.9707
11
9.7559
21
-2.97017
0
LINE
8
BLACK
6
CONTINUOUS
10
9.7559
20
-2.97017
11
9.75584
21
-2.97014
0
LINE
8
BLACK
6
CONTINUOUS
10
9.75584
20
-2.97014
11
9.75564
21
-2.96995
0
LINE
8
BLACK
6
CONTINUOUS
10
9.75564
20
-2.96995
11
9.75559
21
-2.96998
0
LINE
8
BLACK
6
CONTINUOUS
10
9.75559
20
-2.96998
11
9.75551
21
-2.97014
0
LINE
8
BLACK
6
CONTINUOUS
10
9.75551
20
-2.97014
11
9.75402
21
-2.97164
0
LINE
8
BLACK
6
CONTINUOUS
10
9.75402
20
-2.97164
11
9.75329
21
-2.97215
0
LINE
8
BLACK
6
CONTINUOUS
10
9.75329
20
-2.97215
11
9.75325
21
-2.97219
0
LINE
8
BLACK
6
CONTINUOUS
10
9.75325
20
-2.97219
11
9.75025
21
-2.97369
0
LINE
8
BLACK
6
CONTINUOUS
10
9.75025
20
-2.97369
11
9.74927
21
-2.97399
0
LINE
8
BLACK
6
CONTINUOUS
10
9.74927
20
-2.97399
11
9.74909
21
-2.97395
0
LINE
8
BLACK
6
CONTINUOUS
10
9.74909
20
-2.97395
11
9.74893
21
-2.97401
0
LINE
8
BLACK
6
CONTINUOUS
10
9.74893
20
-2.97401
11
9.74443
21
-2.97401
0
LINE
8
BLACK
6
CONTINUOUS
10
9.74443
20
-2.97401
11
9.74342
21
-2.97383
0
LINE
8
BLACK
6
CONTINUOUS
10
9.74342
20
-2.97383
11
9.74328
21
-2.97371
0
LINE
8
BLACK
6
CONTINUOUS
10
9.74328
20
-2.97371
11
9.74311
21
-2.97369
0
LINE
8
BLACK
6
CONTINUOUS
10
9.74311
20
-2.97369
11
9.74011
21
-2.97219
0
LINE
8
BLACK
6
CONTINUOUS
10
9.74011
20
-2.97219
11
9.7394
21
-2.97167
0
LINE
8
BLACK
6
CONTINUOUS
10
9.7394
20
-2.97167
11
9.73934
21
-2.97164
0
LINE
8
BLACK
6
CONTINUOUS
10
9.73934
20
-2.97164
11
9.73784
21
-2.97014
0
LINE
8
BLACK
6
CONTINUOUS
10
9.73784
20
-2.97014
11
9.73733
21
-2.96942
0
LINE
8
BLACK
6
CONTINUOUS
10
9.73733
20
-2.96942
11
9.73729
21
-2.96937
0
LINE
8
BLACK
6
CONTINUOUS
10
9.73729
20
-2.96937
11
9.73579
21
-2.96637
0
LINE
8
BLACK
6
CONTINUOUS
10
9.73579
20
-2.96637
11
9.7355
21
-2.96539
0
LINE
8
BLACK
6
CONTINUOUS
10
9.7355
20
-2.96539
11
9.73554
21
-2.96522
0
LINE
8
BLACK
6
CONTINUOUS
10
9.73554
20
-2.96522
11
9.73548
21
-2.96505
0
LINE
8
BLACK
6
CONTINUOUS
10
9.73548
20
-2.96505
11
9.73548
21
-2.95306
0
LINE
8
BLACK
6
CONTINUOUS
10
9.73548
20
-2.95306
11
9.73554
21
-2.95267
0
LINE
8
BLACK
6
CONTINUOUS
10
9.73554
20
-2.95267
11
9.73552
21
-2.95254
0
LINE
8
BLACK
6
CONTINUOUS
10
9.73552
20
-2.95254
11
9.73559
21
-2.95243
0
LINE
8
BLACK
6
CONTINUOUS
10
9.73559
20
-2.95243
11
9.73565
21
-2.95205
0
LINE
8
BLACK
6
CONTINUOUS
10
9.73565
20
-2.95205
11
9.73615
21
-2.95146
0
LINE
8
BLACK
6
CONTINUOUS
10
9.73615
20
-2.95146
11
9.73653
21
-2.95079
0
LINE
8
BLACK
6
CONTINUOUS
10
9.73653
20
-2.95079
11
9.73678
21
-2.9507
0
LINE
8
BLACK
6
CONTINUOUS
10
9.73678
20
-2.9507
11
9.73695
21
-2.9505
0
LINE
8
BLACK
6
CONTINUOUS
10
9.73695
20
-2.9505
11
9.73771
21
-2.95037
0
LINE
8
BLACK
6
CONTINUOUS
10
9.73771
20
-2.95037
11
9.73843
21
-2.9501
0
LINE
8
BLACK
6
CONTINUOUS
10
9.73843
20
-2.9501
11
9.76993
21
-2.9501
0
LINE
8
BLACK
6
CONTINUOUS
10
9.76993
20
-2.9501
11
9.77031
21
-2.95017
0
LINE
8
BLACK
6
CONTINUOUS
10
9.74138
20
-2.95601
11
9.74138
21
-2.96436
0
LINE
8
BLACK
6
CONTINUOUS
10
9.74138
20
-2.96436
11
9.74236
21
-2.9663
0
LINE
8
BLACK
6
CONTINUOUS
10
9.74236
20
-2.9663
11
9.74318
21
-2.96713
0
LINE
8
BLACK
6
CONTINUOUS
10
9.74318
20
-2.96713
11
9.74513
21
-2.9681
0
LINE
8
BLACK
6
CONTINUOUS
10
9.74513
20
-2.9681
11
9.74823
21
-2.9681
0
LINE
8
BLACK
6
CONTINUOUS
10
9.74823
20
-2.9681
11
9.75018
21
-2.96713
0
LINE
8
BLACK
6
CONTINUOUS
10
9.75018
20
-2.96713
11
9.75085
21
-2.96646
0
LINE
8
BLACK
6
CONTINUOUS
10
9.75085
20
-2.96646
11
9.75197
21
-2.96308
0
LINE
8
BLACK
6
CONTINUOUS
10
9.75197
20
-2.96308
11
9.75197
21
-2.95601
0
LINE
8
BLACK
6
CONTINUOUS
10
9.75197
20
-2.95601
11
9.74138
21
-2.95601
0
LINE
8
BLACK
6
CONTINUOUS
10
9.75788
20
-2.95601
11
9.75788
21
-2.96286
0
LINE
8
BLACK
6
CONTINUOUS
10
9.75788
20
-2.96286
11
9.75885
21
-2.96481
0
LINE
8
BLACK
6
CONTINUOUS
10
9.75885
20
-2.96481
11
9.75968
21
-2.96563
0
LINE
8
BLACK
6
CONTINUOUS
10
9.75968
20
-2.96563
11
9.76162
21
-2.9666
0
LINE
8
BLACK
6
CONTINUOUS
10
9.76162
20
-2.9666
11
9.76323
21
-2.9666
0
LINE
8
BLACK
6
CONTINUOUS
10
9.76323
20
-2.9666
11
9.76518
21
-2.96563
0
LINE
8
BLACK
6
CONTINUOUS
10
9.76518
20
-2.96563
11
9.766
21
-2.96481
0
LINE
8
BLACK
6
CONTINUOUS
10
9.766
20
-2.96481
11
9.76697
21
-2.96286
0
LINE
8
BLACK
6
CONTINUOUS
10
9.76697
20
-2.96286
11
9.76697
21
-2.95601
0
LINE
8
BLACK
6
CONTINUOUS
10
9.76697
20
-2.95601
11
9.75788
21
-2.95601
0
LINE
8
BLACK
6
CONTINUOUS
10
9.75701
20
-2.91721
11
9.75714
21
-2.9172
0
LINE
8
BLACK
6
CONTINUOUS
10
9.75714
20
-2.9172
11
9.76314
21
-2.9187
0
LINE
8
BLACK
6
CONTINUOUS
10
9.76314
20
-2.9187
11
9.76361
21
-2.9189
0
LINE
8
BLACK
6
CONTINUOUS
10
9.76361
20
-2.9189
11
9.76375
21
-2.91892
0
LINE
8
BLACK
6
CONTINUOUS
10
9.76375
20
-2.91892
11
9.76675
21
-2.92042
0
LINE
8
BLACK
6
CONTINUOUS
10
9.76675
20
-2.92042
11
9.76746
21
-2.92094
0
LINE
8
BLACK
6
CONTINUOUS
10
9.76746
20
-2.92094
11
9.76751
21
-2.92097
0
LINE
8
BLACK
6
CONTINUOUS
10
9.76751
20
-2.92097
11
9.77051
21
-2.92397
0
LINE
8
BLACK
6
CONTINUOUS
10
9.77051
20
-2.92397
11
9.7711
21
-2.92481
0
LINE
8
BLACK
6
CONTINUOUS
10
9.7711
20
-2.92481
11
9.77112
21
-2.92499
0
LINE
8
BLACK
6
CONTINUOUS
10
9.77112
20
-2.92499
11
9.77123
21
-2.92513
0
LINE
8
BLACK
6
CONTINUOUS
10
9.77123
20
-2.92513
11
9.77273
21
-2.92962
0
LINE
8
BLACK
6
CONTINUOUS
10
9.77273
20
-2.92962
11
9.77286
21
-2.9305
0
LINE
8
BLACK
6
CONTINUOUS
10
9.77286
20
-2.9305
11
9.77288
21
-2.93056
0
LINE
8
BLACK
6
CONTINUOUS
10
9.77288
20
-2.93056
11
9.77288
21
-2.93506
0
LINE
8
BLACK
6
CONTINUOUS
10
9.77288
20
-2.93506
11
9.7727
21
-2.93607
0
LINE
8
BLACK
6
CONTINUOUS
10
9.7727
20
-2.93607
11
9.77259
21
-2.9362
0
LINE
8
BLACK
6
CONTINUOUS
10
9.77259
20
-2.9362
11
9.77257
21
-2.93638
0
LINE
8
BLACK
6
CONTINUOUS
10
9.77257
20
-2.93638
11
9.77107
21
-2.93938
0
LINE
8
BLACK
6
CONTINUOUS
10
9.77107
20
-2.93938
11
9.77046
21
-2.9402
0
LINE
8
BLACK
6
CONTINUOUS
10
9.77046
20
-2.9402
11
9.7686
21
-2.94101
0
LINE
8
BLACK
6
CONTINUOUS
10
9.7686
20
-2.94101
11
9.76667
21
-2.94043
0
LINE
8
BLACK
6
CONTINUOUS
10
9.76667
20
-2.94043
11
9.76555
21
-2.93874
0
LINE
8
BLACK
6
CONTINUOUS
10
9.76555
20
-2.93874
11
9.76578
21
-2.93674
0
LINE
8
BLACK
6
CONTINUOUS
10
9.76578
20
-2.93674
11
9.76697
21
-2.93436
0
LINE
8
BLACK
6
CONTINUOUS
10
9.76697
20
-2.93436
11
9.76697
21
-2.93104
0
LINE
8
BLACK
6
CONTINUOUS
10
9.76697
20
-2.93104
11
9.76584
21
-2.92765
0
LINE
8
BLACK
6
CONTINUOUS
10
9.76584
20
-2.92765
11
9.76368
21
-2.92549
0
LINE
8
BLACK
6
CONTINUOUS
10
9.76368
20
-2.92549
11
9.7614
21
-2.92435
0
LINE
8
BLACK
6
CONTINUOUS
10
9.7614
20
-2.92435
11
9.75606
21
-2.92301
0
LINE
8
BLACK
6
CONTINUOUS
10
9.75606
20
-2.92301
11
9.75229
21
-2.92301
0
LINE
8
BLACK
6
CONTINUOUS
10
9.75229
20
-2.92301
11
9.74696
21
-2.92435
0
LINE
8
BLACK
6
CONTINUOUS
10
9.74696
20
-2.92435
11
9.74468
21
-2.92549
0
LINE
8
BLACK
6
CONTINUOUS
10
9.74468
20
-2.92549
11
9.74251
21
-2.92765
0
LINE
8
BLACK
6
CONTINUOUS
10
9.74251
20
-2.92765
11
9.74138
21
-2.93104
0
LINE
8
BLACK
6
CONTINUOUS
10
9.74138
20
-2.93104
11
9.74138
21
-2.93308
0
LINE
8
BLACK
6
CONTINUOUS
10
9.74138
20
-2.93308
11
9.74251
21
-2.93646
0
LINE
8
BLACK
6
CONTINUOUS
10
9.74251
20
-2.93646
11
9.74265
21
-2.9366
0
LINE
8
BLACK
6
CONTINUOUS
10
9.74265
20
-2.9366
11
9.74897
21
-2.9366
0
LINE
8
BLACK
6
CONTINUOUS
10
9.74897
20
-2.9366
11
9.74897
21
-2.93356
0
LINE
8
BLACK
6
CONTINUOUS
10
9.74897
20
-2.93356
11
9.74915
21
-2.93255
0
LINE
8
BLACK
6
CONTINUOUS
10
9.74915
20
-2.93255
11
9.75045
21
-2.931
0
LINE
8
BLACK
6
CONTINUOUS
10
9.75045
20
-2.931
11
9.75244
21
-2.93065
0
LINE
8
BLACK
6
CONTINUOUS
10
9.75244
20
-2.93065
11
9.75419
21
-2.93166
0
LINE
8
BLACK
6
CONTINUOUS
10
9.75419
20
-2.93166
11
9.75488
21
-2.93356
0
LINE
8
BLACK
6
CONTINUOUS
10
9.75488
20
-2.93356
11
9.75488
21
-2.93956
0
LINE
8
BLACK
6
CONTINUOUS
10
9.75488
20
-2.93956
11
9.75481
21
-2.93994
0
LINE
8
BLACK
6
CONTINUOUS
10
9.75481
20
-2.93994
11
9.75484
21
-2.94007
0
LINE
8
BLACK
6
CONTINUOUS
10
9.75484
20
-2.94007
11
9.75477
21
-2.94018
0
LINE
8
BLACK
6
CONTINUOUS
10
9.75477
20
-2.94018
11
9.7547
21
-2.94057
0
LINE
8
BLACK
6
CONTINUOUS
10
9.7547
20
-2.94057
11
9.75421
21
-2.94116
0
LINE
8
BLACK
6
CONTINUOUS
10
9.75421
20
-2.94116
11
9.75383
21
-2.94182
0
LINE
8
BLACK
6
CONTINUOUS
10
9.75383
20
-2.94182
11
9.75357
21
-2.94191
0
LINE
8
BLACK
6
CONTINUOUS
10
9.75357
20
-2.94191
11
9.7534
21
-2.94211
0
LINE
8
BLACK
6
CONTINUOUS
10
9.7534
20
-2.94211
11
9.75265
21
-2.94225
0
LINE
8
BLACK
6
CONTINUOUS
10
9.75265
20
-2.94225
11
9.75193
21
-2.94251
0
LINE
8
BLACK
6
CONTINUOUS
10
9.75193
20
-2.94251
11
9.74143
21
-2.94251
0
LINE
8
BLACK
6
CONTINUOUS
10
9.74143
20
-2.94251
11
9.74125
21
-2.94248
0
LINE
8
BLACK
6
CONTINUOUS
10
9.74125
20
-2.94248
11
9.74117
21
-2.9425
0
LINE
8
BLACK
6
CONTINUOUS
10
9.74117
20
-2.9425
11
9.74105
21
-2.94244
0
LINE
8
BLACK
6
CONTINUOUS
10
9.74105
20
-2.94244
11
9.74042
21
-2.94233
0
LINE
8
BLACK
6
CONTINUOUS
10
9.74042
20
-2.94233
11
9.73992
21
-2.94192
0
LINE
8
BLACK
6
CONTINUOUS
10
9.73992
20
-2.94192
11
9.73934
21
-2.94165
0
LINE
8
BLACK
6
CONTINUOUS
10
9.73934
20
-2.94165
11
9.73784
21
-2.94015
0
LINE
8
BLACK
6
CONTINUOUS
10
9.73784
20
-2.94015
11
9.73725
21
-2.93931
0
LINE
8
BLACK
6
CONTINUOUS
10
9.73725
20
-2.93931
11
9.73724
21
-2.93913
0
LINE
8
BLACK
6
CONTINUOUS
10
9.73724
20
-2.93913
11
9.73713
21
-2.93899
0
LINE
8
BLACK
6
CONTINUOUS
10
9.73713
20
-2.93899
11
9.73563
21
-2.93449
0
LINE
8
BLACK
6
CONTINUOUS
10
9.73563
20
-2.93449
11
9.7355
21
-2.93362
0
LINE
8
BLACK
6
CONTINUOUS
10
9.7355
20
-2.93362
11
9.73548
21
-2.93356
0
LINE
8
BLACK
6
CONTINUOUS
10
9.73548
20
-2.93356
11
9.73548
21
-2.93056
0
LINE
8
BLACK
6
CONTINUOUS
10
9.73548
20
-2.93056
11
9.73563
21
-2.92969
0
LINE
8
BLACK
6
CONTINUOUS
10
9.73563
20
-2.92969
11
9.73563
21
-2.92962
0
LINE
8
BLACK
6
CONTINUOUS
10
9.73563
20
-2.92962
11
9.73713
21
-2.92513
0
LINE
8
BLACK
6
CONTINUOUS
10
9.73713
20
-2.92513
11
9.73762
21
-2.92422
0
LINE
8
BLACK
6
CONTINUOUS
10
9.73762
20
-2.92422
11
9.73777
21
-2.92413
0
LINE
8
BLACK
6
CONTINUOUS
10
9.73777
20
-2.92413
11
9.73784
21
-2.92397
0
LINE
8
BLACK
6
CONTINUOUS
10
9.73784
20
-2.92397
11
9.74084
21
-2.92097
0
LINE
8
BLACK
6
CONTINUOUS
10
9.74084
20
-2.92097
11
9.74156
21
-2.92047
0
LINE
8
BLACK
6
CONTINUOUS
10
9.74156
20
-2.92047
11
9.74161
21
-2.92042
0
LINE
8
BLACK
6
CONTINUOUS
10
9.74161
20
-2.92042
11
9.74461
21
-2.91892
0
LINE
8
BLACK
6
CONTINUOUS
10
9.74461
20
-2.91892
11
9.7451
21
-2.91877
0
LINE
8
BLACK
6
CONTINUOUS
10
9.7451
20
-2.91877
11
9.74521
21
-2.9187
0
LINE
8
BLACK
6
CONTINUOUS
10
9.74521
20
-2.9187
11
9.75121
21
-2.9172
0
LINE
8
BLACK
6
CONTINUOUS
10
9.75121
20
-2.9172
11
9.7518
21
-2.91715
0
LINE
8
BLACK
6
CONTINUOUS
10
9.7518
20
-2.91715
11
9.75193
21
-2.91711
0
LINE
8
BLACK
6
CONTINUOUS
10
9.75193
20
-2.91711
11
9.75643
21
-2.91711
0
LINE
8
BLACK
6
CONTINUOUS
10
9.75643
20
-2.91711
11
9.75701
21
-2.91721
0
LINE
8
BLACK
6
CONTINUOUS
10
9.85313
20
-2.86888
11
9.85645
21
-2.86922
0
LINE
8
BLACK
6
CONTINUOUS
10
9.85645
20
-2.86922
11
9.8616
21
-2.87173
0
LINE
8
BLACK
6
CONTINUOUS
10
9.8616
20
-2.87173
11
9.86513
21
-2.8755
0
LINE
8
BLACK
6
CONTINUOUS
10
9.86513
20
-2.8755
11
9.86659
21
-2.87838
0
LINE
8
BLACK
6
CONTINUOUS
10
9.86659
20
-2.87838
11
9.86841
21
-2.88288
0
LINE
8
BLACK
6
CONTINUOUS
10
9.86841
20
-2.88288
11
9.87022
21
-2.88806
0
LINE
8
BLACK
6
CONTINUOUS
10
9.87022
20
-2.88806
11
9.87035
21
-2.88845
0
LINE
8
BLACK
6
CONTINUOUS
10
9.87035
20
-2.88845
11
9.87198
21
-2.89337
0
LINE
8
BLACK
6
CONTINUOUS
10
9.87198
20
-2.89337
11
9.87326
21
-2.89627
0
LINE
8
BLACK
6
CONTINUOUS
10
9.87326
20
-2.89627
11
9.87456
21
-2.89767
0
LINE
8
BLACK
6
CONTINUOUS
10
9.87456
20
-2.89767
11
9.87625
21
-2.89811
0
LINE
8
BLACK
6
CONTINUOUS
10
9.87625
20
-2.89811
11
9.87721
21
-2.89814
0
LINE
8
BLACK
6
CONTINUOUS
10
9.87721
20
-2.89814
11
9.87996
21
-2.89773
0
LINE
8
BLACK
6
CONTINUOUS
10
9.87996
20
-2.89773
11
9.88093
21
-2.89604
0
LINE
8
BLACK
6
CONTINUOUS
10
9.88093
20
-2.89604
11
9.88099
21
-2.89481
0
LINE
8
BLACK
6
CONTINUOUS
10
9.88099
20
-2.89481
11
9.88041
21
-2.89225
0
LINE
8
BLACK
6
CONTINUOUS
10
9.88041
20
-2.89225
11
9.87814
21
-2.89117
0
LINE
8
BLACK
6
CONTINUOUS
10
9.87814
20
-2.89117
11
9.87733
21
-2.89106
0
LINE
8
BLACK
6
CONTINUOUS
10
9.87733
20
-2.89106
11
9.87546
21
-2.89074
0
LINE
8
BLACK
6
CONTINUOUS
10
9.87546
20
-2.89074
11
9.87437
21
-2.88991
0
LINE
8
BLACK
6
CONTINUOUS
10
9.87437
20
-2.88991
11
9.87385
21
-2.88801
0
LINE
8
BLACK
6
CONTINUOUS
10
9.87385
20
-2.88801
11
9.87368
21
-2.88442
0
LINE
8
BLACK
6
CONTINUOUS
10
9.87368
20
-2.88442
11
9.87367
21
-2.88074
0
LINE
8
BLACK
6
CONTINUOUS
10
9.87367
20
-2.88074
11
9.87367
21
-2.87084
0
LINE
8
BLACK
6
CONTINUOUS
10
9.87367
20
-2.87084
11
9.88084
21
-2.87084
0
LINE
8
BLACK
6
CONTINUOUS
10
9.88084
20
-2.87084
11
9.88506
21
-2.87095
0
LINE
8
BLACK
6
CONTINUOUS
10
9.88506
20
-2.87095
11
9.88748
21
-2.87158
0
LINE
8
BLACK
6
CONTINUOUS
10
9.88748
20
-2.87158
11
9.889
21
-2.87313
0
LINE
8
BLACK
6
CONTINUOUS
10
9.889
20
-2.87313
11
9.89014
21
-2.87531
0
LINE
8
BLACK
6
CONTINUOUS
10
9.89014
20
-2.87531
11
9.8927
21
-2.88245
0
LINE
8
BLACK
6
CONTINUOUS
10
9.8927
20
-2.88245
11
9.8943
21
-2.89049
0
LINE
8
BLACK
6
CONTINUOUS
10
9.8943
20
-2.89049
11
9.8947
21
-2.8981
0
LINE
8
BLACK
6
CONTINUOUS
10
9.8947
20
-2.8981
11
9.89454
21
-2.90027
0
LINE
8
BLACK
6
CONTINUOUS
10
9.89454
20
-2.90027
11
9.89335
21
-2.90587
0
LINE
8
BLACK
6
CONTINUOUS
10
9.89335
20
-2.90587
11
9.89133
21
-2.91124
0
LINE
8
BLACK
6
CONTINUOUS
10
9.89133
20
-2.91124
11
9.88884
21
-2.91557
0
LINE
8
BLACK
6
CONTINUOUS
10
9.88884
20
-2.91557
11
9.88626
21
-2.91811
0
LINE
8
BLACK
6
CONTINUOUS
10
9.88626
20
-2.91811
11
9.88604
21
-2.91822
0
LINE
8
BLACK
6
CONTINUOUS
10
9.88604
20
-2.91822
11
9.88382
21
-2.91874
0
LINE
8
BLACK
6
CONTINUOUS
10
9.88382
20
-2.91874
11
9.87956
21
-2.91931
0
LINE
8
BLACK
6
CONTINUOUS
10
9.87956
20
-2.91931
11
9.87388
21
-2.91987
0
LINE
8
BLACK
6
CONTINUOUS
10
9.87388
20
-2.91987
11
9.86768
21
-2.92033
0
LINE
8
BLACK
6
CONTINUOUS
10
9.86768
20
-2.92033
11
9.86052
21
-2.92081
0
LINE
8
BLACK
6
CONTINUOUS
10
9.86052
20
-2.92081
11
9.8535
21
-2.92134
0
LINE
8
BLACK
6
CONTINUOUS
10
9.8535
20
-2.92134
11
9.84751
21
-2.92184
0
LINE
8
BLACK
6
CONTINUOUS
10
9.84751
20
-2.92184
11
9.84404
21
-2.92218
0
LINE
8
BLACK
6
CONTINUOUS
10
9.84404
20
-2.92218
11
9.83638
21
-2.92302
0
LINE
8
BLACK
6
CONTINUOUS
10
9.83638
20
-2.92302
11
9.83638
21
-2.91157
0
LINE
8
BLACK
6
CONTINUOUS
10
9.83638
20
-2.91157
11
9.83647
21
-2.90588
0
LINE
8
BLACK
6
CONTINUOUS
10
9.83647
20
-2.90588
11
9.83677
21
-2.90238
0
LINE
8
BLACK
6
CONTINUOUS
10
9.83677
20
-2.90238
11
9.83738
21
-2.90062
0
LINE
8
BLACK
6
CONTINUOUS
10
9.83738
20
-2.90062
11
9.83837
21
-2.90013
0
LINE
8
BLACK
6
CONTINUOUS
10
9.83837
20
-2.90013
11
9.83838
21
-2.90013
0
LINE
8
BLACK
6
CONTINUOUS
10
9.83838
20
-2.90013
11
9.83977
21
-2.90008
0
LINE
8
BLACK
6
CONTINUOUS
10
9.83977
20
-2.90008
11
9.84018
21
-2.8995
0
LINE
8
BLACK
6
CONTINUOUS
10
9.84018
20
-2.8995
11
9.83955
21
-2.89779
0
LINE
8
BLACK
6
CONTINUOUS
10
9.83955
20
-2.89779
11
9.83782
21
-2.89434
0
LINE
8
BLACK
6
CONTINUOUS
10
9.83782
20
-2.89434
11
9.83772
21
-2.89414
0
LINE
8
BLACK
6
CONTINUOUS
10
9.83772
20
-2.89414
11
9.8355
21
-2.88814
0
LINE
8
BLACK
6
CONTINUOUS
10
9.8355
20
-2.88814
11
9.83549
21
-2.88258
0
LINE
8
BLACK
6
CONTINUOUS
10
9.83549
20
-2.88258
11
9.837
21
-2.87793
0
LINE
8
BLACK
6
CONTINUOUS
10
9.837
20
-2.87793
11
9.84041
21
-2.87305
0
LINE
8
BLACK
6
CONTINUOUS
10
9.84041
20
-2.87305
11
9.84521
21
-2.86993
0
LINE
8
BLACK
6
CONTINUOUS
10
9.84521
20
-2.86993
11
9.85077
21
-2.86863
0
LINE
8
BLACK
6
CONTINUOUS
10
9.85077
20
-2.86863
11
9.85313
21
-2.86888
0
LINE
8
BLACK
6
CONTINUOUS
10
9.85125
20
-2.89188
11
9.85141
21
-2.89541
0
LINE
8
BLACK
6
CONTINUOUS
10
9.85141
20
-2.89541
11
9.85184
21
-2.8967
0
LINE
8
BLACK
6
CONTINUOUS
10
9.85184
20
-2.8967
11
9.85376
21
-2.89833
0
LINE
8
BLACK
6
CONTINUOUS
10
9.85376
20
-2.89833
11
9.85659
21
-2.8988
0
LINE
8
BLACK
6
CONTINUOUS
10
9.85659
20
-2.8988
11
9.85929
21
-2.89854
0
LINE
8
BLACK
6
CONTINUOUS
10
9.85929
20
-2.89854
11
9.85998
21
-2.89736
0
LINE
8
BLACK
6
CONTINUOUS
10
9.85998
20
-2.89736
11
9.85963
21
-2.89581
0
LINE
8
BLACK
6
CONTINUOUS
10
9.85963
20
-2.89581
11
9.85776
21
-2.89195
0
LINE
8
BLACK
6
CONTINUOUS
10
9.85776
20
-2.89195
11
9.85525
21
-2.88992
0
LINE
8
BLACK
6
CONTINUOUS
10
9.85525
20
-2.88992
11
9.85313
21
-2.88992
0
LINE
8
BLACK
6
CONTINUOUS
10
9.85313
20
-2.88992
11
9.85125
21
-2.89188
0
LINE
8
BLACK
6
CONTINUOUS
10
9.77031
20
-2.88718
11
9.77044
21
-2.88716
0
LINE
8
BLACK
6
CONTINUOUS
10
9.77044
20
-2.88716
11
9.77055
21
-2.88722
0
LINE
8
BLACK
6
CONTINUOUS
10
9.77055
20
-2.88722
11
9.77093
21
-2.88729
0
LINE
8
BLACK
6
CONTINUOUS
10
9.77093
20
-2.88729
11
9.77152
21
-2.88778
0
LINE
8
BLACK
6
CONTINUOUS
10
9.77152
20
-2.88778
11
9.77219
21
-2.88817
0
LINE
8
BLACK
6
CONTINUOUS
10
9.77219
20
-2.88817
11
9.77228
21
-2.88842
0
LINE
8
BLACK
6
CONTINUOUS
10
9.77228
20
-2.88842
11
9.77248
21
-2.88859
0
LINE
8
BLACK
6
CONTINUOUS
10
9.77248
20
-2.88859
11
9.77262
21
-2.88934
0
LINE
8
BLACK
6
CONTINUOUS
10
9.77262
20
-2.88934
11
9.77288
21
-2.89006
0
LINE
8
BLACK
6
CONTINUOUS
10
9.77288
20
-2.89006
11
9.77288
21
-2.90206
0
LINE
8
BLACK
6
CONTINUOUS
10
9.77288
20
-2.90206
11
9.7727
21
-2.90307
0
LINE
8
BLACK
6
CONTINUOUS
10
9.7727
20
-2.90307
11
9.77259
21
-2.90321
0
LINE
8
BLACK
6
CONTINUOUS
10
9.77259
20
-2.90321
11
9.77257
21
-2.90338
0
LINE
8
BLACK
6
CONTINUOUS
10
9.77257
20
-2.90338
11
9.77107
21
-2.90638
0
LINE
8
BLACK
6
CONTINUOUS
10
9.77107
20
-2.90638
11
9.77054
21
-2.90709
0
LINE
8
BLACK
6
CONTINUOUS
10
9.77054
20
-2.90709
11
9.77051
21
-2.90715
0
LINE
8
BLACK
6
CONTINUOUS
10
9.77051
20
-2.90715
11
9.76901
21
-2.90865
0
LINE
8
BLACK
6
CONTINUOUS
10
9.76901
20
-2.90865
11
9.76829
21
-2.90916
0
LINE
8
BLACK
6
CONTINUOUS
10
9.76829
20
-2.90916
11
9.76825
21
-2.9092
0
LINE
8
BLACK
6
CONTINUOUS
10
9.76825
20
-2.9092
11
9.76525
21
-2.9107
0
LINE
8
BLACK
6
CONTINUOUS
10
9.76525
20
-2.9107
11
9.76426
21
-2.91099
0
LINE
8
BLACK
6
CONTINUOUS
10
9.76426
20
-2.91099
11
9.76409
21
-2.91095
0
LINE
8
BLACK
6
CONTINUOUS
10
9.76409
20
-2.91095
11
9.76393
21
-2.91101
0
LINE
8
BLACK
6
CONTINUOUS
10
9.76393
20
-2.91101
11
9.75943
21
-2.91101
0
LINE
8
BLACK
6
CONTINUOUS
10
9.75943
20
-2.91101
11
9.75842
21
-2.91084
0
LINE
8
BLACK
6
CONTINUOUS
10
9.75842
20
-2.91084
11
9.75828
21
-2.91072
0
LINE
8
BLACK
6
CONTINUOUS
10
9.75828
20
-2.91072
11
9.75811
21
-2.9107
0
LINE
8
BLACK
6
CONTINUOUS
10
9.75811
20
-2.9107
11
9.75511
21
-2.9092
0
LINE
8
BLACK
6
CONTINUOUS
10
9.75511
20
-2.9092
11
9.7544
21
-2.90868
0
LINE
8
BLACK
6
CONTINUOUS
10
9.7544
20
-2.90868
11
9.75434
21
-2.90865
0
LINE
8
BLACK
6
CONTINUOUS
10
9.75434
20
-2.90865
11
9.75284
21
-2.90715
0
LINE
8
BLACK
6
CONTINUOUS
10
9.75284
20
-2.90715
11
9.75233
21
-2.90643
0
LINE
8
BLACK
6
CONTINUOUS
10
9.75233
20
-2.90643
11
9.75229
21
-2.90638
0
LINE
8
BLACK
6
CONTINUOUS
10
9.75229
20
-2.90638
11
9.75079
21
-2.90338
0
LINE
8
BLACK
6
CONTINUOUS
10
9.75079
20
-2.90338
11
9.7507
21
-2.90308
0
LINE
8
BLACK
6
CONTINUOUS
10
9.7507
20
-2.90308
11
9.74012
21
-2.91048
0
LINE
8
BLACK
6
CONTINUOUS
10
9.74012
20
-2.91048
11
9.73919
21
-2.91091
0
LINE
8
BLACK
6
CONTINUOUS
10
9.73919
20
-2.91091
11
9.73718
21
-2.91074
0
LINE
8
BLACK
6
CONTINUOUS
10
9.73718
20
-2.91074
11
9.73575
21
-2.90931
0
LINE
8
BLACK
6
CONTINUOUS
10
9.73575
20
-2.90931
11
9.73558
21
-2.9073
0
LINE
8
BLACK
6
CONTINUOUS
10
9.73558
20
-2.9073
11
9.73674
21
-2.90564
0
LINE
8
BLACK
6
CONTINUOUS
10
9.73674
20
-2.90564
11
9.75047
21
-2.89603
0
LINE
8
BLACK
6
CONTINUOUS
10
9.75047
20
-2.89603
11
9.75047
21
-2.89302
0
LINE
8
BLACK
6
CONTINUOUS
10
9.75047
20
-2.89302
11
9.73843
21
-2.89302
0
LINE
8
BLACK
6
CONTINUOUS
10
9.73843
20
-2.89302
11
9.73742
21
-2.89284
0
LINE
8
BLACK
6
CONTINUOUS
10
9.73742
20
-2.89284
11
9.73587
21
-2.89154
0
LINE
8
BLACK
6
CONTINUOUS
10
9.73587
20
-2.89154
11
9.73552
21
-2.88955
0
LINE
8
BLACK
6
CONTINUOUS
10
9.73552
20
-2.88955
11
9.73653
21
-2.8878
0
LINE
8
BLACK
6
CONTINUOUS
10
9.73653
20
-2.8878
11
9.73843
21
-2.88711
0
LINE
8
BLACK
6
CONTINUOUS
10
9.73843
20
-2.88711
11
9.76993
21
-2.88711
0
LINE
8
BLACK
6
CONTINUOUS
10
9.76993
20
-2.88711
11
9.77031
21
-2.88718
0
LINE
8
BLACK
6
CONTINUOUS
10
9.75638
20
-2.89302
11
9.75638
21
-2.90137
0
LINE
8
BLACK
6
CONTINUOUS
10
9.75638
20
-2.90137
11
9.75735
21
-2.90331
0
LINE
8
BLACK
6
CONTINUOUS
10
9.75735
20
-2.90331
11
9.75818
21
-2.90413
0
LINE
8
BLACK
6
CONTINUOUS
10
9.75818
20
-2.90413
11
9.76012
21
-2.90511
0
LINE
8
BLACK
6
CONTINUOUS
10
9.76012
20
-2.90511
11
9.76323
21
-2.90511
0
LINE
8
BLACK
6
CONTINUOUS
10
9.76323
20
-2.90511
11
9.76518
21
-2.90413
0
LINE
8
BLACK
6
CONTINUOUS
10
9.76518
20
-2.90413
11
9.766
21
-2.90331
0
LINE
8
BLACK
6
CONTINUOUS
10
9.766
20
-2.90331
11
9.76697
21
-2.90137
0
LINE
8
BLACK
6
CONTINUOUS
10
9.76697
20
-2.90137
11
9.76697
21
-2.89302
0
LINE
8
BLACK
6
CONTINUOUS
10
9.76697
20
-2.89302
11
9.75638
21
-2.89302
0
LINE
8
BLACK
6
CONTINUOUS
10
9.89364
20
-2.82376
11
9.89364
21
-2.8366
0
LINE
8
BLACK
6
CONTINUOUS
10
9.89364
20
-2.8366
11
9.88403
21
-2.8358
0
LINE
8
BLACK
6
CONTINUOUS
10
9.88403
20
-2.8358
11
9.87773
21
-2.83562
0
LINE
8
BLACK
6
CONTINUOUS
10
9.87773
20
-2.83562
11
9.87149
21
-2.83604
0
LINE
8
BLACK
6
CONTINUOUS
10
9.87149
20
-2.83604
11
9.86607
21
-2.83695
0
LINE
8
BLACK
6
CONTINUOUS
10
9.86607
20
-2.83695
11
9.86222
21
-2.83825
0
LINE
8
BLACK
6
CONTINUOUS
10
9.86222
20
-2.83825
11
9.86126
21
-2.83889
0
LINE
8
BLACK
6
CONTINUOUS
10
9.86126
20
-2.83889
11
9.86187
21
-2.83968
0
LINE
8
BLACK
6
CONTINUOUS
10
9.86187
20
-2.83968
11
9.86452
21
-2.84085
0
LINE
8
BLACK
6
CONTINUOUS
10
9.86452
20
-2.84085
11
9.86864
21
-2.84216
0
LINE
8
BLACK
6
CONTINUOUS
10
9.86864
20
-2.84216
11
9.86897
21
-2.84225
0
LINE
8
BLACK
6
CONTINUOUS
10
9.86897
20
-2.84225
11
9.87412
21
-2.84349
0
LINE
8
BLACK
6
CONTINUOUS
10
9.87412
20
-2.84349
11
9.87733
21
-2.84381
0
LINE
8
BLACK
6
CONTINUOUS
10
9.87733
20
-2.84381
11
9.87911
21
-2.84327
0
LINE
8
BLACK
6
CONTINUOUS
10
9.87911
20
-2.84327
11
9.87932
21
-2.84309
0
LINE
8
BLACK
6
CONTINUOUS
10
9.87932
20
-2.84309
11
9.88149
21
-2.84217
0
LINE
8
BLACK
6
CONTINUOUS
10
9.88149
20
-2.84217
11
9.88523
21
-2.84162
0
LINE
8
BLACK
6
CONTINUOUS
10
9.88523
20
-2.84162
11
9.88725
21
-2.84154
0
LINE
8
BLACK
6
CONTINUOUS
10
9.88725
20
-2.84154
11
9.89364
21
-2.84154
0
LINE
8
BLACK
6
CONTINUOUS
10
9.89364
20
-2.84154
11
9.89364
21
-2.85353
0
LINE
8
BLACK
6
CONTINUOUS
10
9.89364
20
-2.85353
11
9.89364
21
-2.86551
0
LINE
8
BLACK
6
CONTINUOUS
10
9.89364
20
-2.86551
11
9.8876
21
-2.86551
0
LINE
8
BLACK
6
CONTINUOUS
10
9.8876
20
-2.86551
11
9.88319
21
-2.8651
0
LINE
8
BLACK
6
CONTINUOUS
10
9.88319
20
-2.8651
11
9.87946
21
-2.86409
0
LINE
8
BLACK
6
CONTINUOUS
10
9.87946
20
-2.86409
11
9.87861
21
-2.86365
0
LINE
8
BLACK
6
CONTINUOUS
10
9.87861
20
-2.86365
11
9.87633
21
-2.86264
0
LINE
8
BLACK
6
CONTINUOUS
10
9.87633
20
-2.86264
11
9.87202
21
-2.86108
0
LINE
8
BLACK
6
CONTINUOUS
10
9.87202
20
-2.86108
11
9.8662
21
-2.85916
0
LINE
8
BLACK
6
CONTINUOUS
10
9.8662
20
-2.85916
11
9.85941
21
-2.85706
0
LINE
8
BLACK
6
CONTINUOUS
10
9.85941
20
-2.85706
11
9.85603
21
-2.85605
0
LINE
8
BLACK
6
CONTINUOUS
10
9.85603
20
-2.85605
11
9.83638
21
-2.85031
0
LINE
8
BLACK
6
CONTINUOUS
10
9.83638
20
-2.85031
11
9.83638
21
-2.83802
0
LINE
8
BLACK
6
CONTINUOUS
10
9.83638
20
-2.83802
11
9.83649
21
-2.83259
0
LINE
8
BLACK
6
CONTINUOUS
10
9.83649
20
-2.83259
11
9.83676
21
-2.82825
0
LINE
8
BLACK
6
CONTINUOUS
10
9.83676
20
-2.82825
11
9.83715
21
-2.82565
0
LINE
8
BLACK
6
CONTINUOUS
10
9.83715
20
-2.82565
11
9.83738
21
-2.82518
0
LINE
8
BLACK
6
CONTINUOUS
10
9.83738
20
-2.82518
11
9.83895
21
-2.82464
0
LINE
8
BLACK
6
CONTINUOUS
10
9.83895
20
-2.82464
11
9.84261
21
-2.82352
0
LINE
8
BLACK
6
CONTINUOUS
10
9.84261
20
-2.82352
11
9.84791
21
-2.82196
0
LINE
8
BLACK
6
CONTINUOUS
10
9.84791
20
-2.82196
11
9.85439
21
-2.82008
0
LINE
8
BLACK
6
CONTINUOUS
10
9.85439
20
-2.82008
11
9.85836
21
-2.81895
0
LINE
8
BLACK
6
CONTINUOUS
10
9.85836
20
-2.81895
11
9.86531
21
-2.81692
0
LINE
8
BLACK
6
CONTINUOUS
10
9.86531
20
-2.81692
11
9.87138
21
-2.81505
0
LINE
8
BLACK
6
CONTINUOUS
10
9.87138
20
-2.81505
11
9.87609
21
-2.81351
0
LINE
8
BLACK
6
CONTINUOUS
10
9.87609
20
-2.81351
11
9.87897
21
-2.81243
0
LINE
8
BLACK
6
CONTINUOUS
10
9.87897
20
-2.81243
11
9.87959
21
-2.81209
0
LINE
8
BLACK
6
CONTINUOUS
10
9.87959
20
-2.81209
11
9.88159
21
-2.8114
0
LINE
8
BLACK
6
CONTINUOUS
10
9.88159
20
-2.8114
11
9.8852
21
-2.81098
0
LINE
8
BLACK
6
CONTINUOUS
10
9.8852
20
-2.81098
11
9.88725
21
-2.81092
0
LINE
8
BLACK
6
CONTINUOUS
10
9.88725
20
-2.81092
11
9.89364
21
-2.81092
0
LINE
8
BLACK
6
CONTINUOUS
10
9.89364
20
-2.81092
11
9.89364
21
-2.82376
0
LINE
8
BLACK
6
CONTINUOUS
10
9.85313
20
-2.75436
11
9.85645
21
-2.7547
0
LINE
8
BLACK
6
CONTINUOUS
10
9.85645
20
-2.7547
11
9.8616
21
-2.75721
0
LINE
8
BLACK
6
CONTINUOUS
10
9.8616
20
-2.75721
11
9.86513
21
-2.76098
0
LINE
8
BLACK
6
CONTINUOUS
10
9.86513
20
-2.76098
11
9.86659
21
-2.76386
0
LINE
8
BLACK
6
CONTINUOUS
10
9.86659
20
-2.76386
11
9.86841
21
-2.76836
0
LINE
8
BLACK
6
CONTINUOUS
10
9.86841
20
-2.76836
11
9.87022
21
-2.77355
0
LINE
8
BLACK
6
CONTINUOUS
10
9.87022
20
-2.77355
11
9.87035
21
-2.77394
0
LINE
8
BLACK
6
CONTINUOUS
10
9.87035
20
-2.77394
11
9.87198
21
-2.77886
0
LINE
8
BLACK
6
CONTINUOUS
10
9.87198
20
-2.77886
11
9.87326
21
-2.78176
0
LINE
8
BLACK
6
CONTINUOUS
10
9.87326
20
-2.78176
11
9.87456
21
-2.78316
0
LINE
8
BLACK
6
CONTINUOUS
10
9.87456
20
-2.78316
11
9.87625
21
-2.7836
0
LINE
8
BLACK
6
CONTINUOUS
10
9.87625
20
-2.7836
11
9.87721
21
-2.78362
0
LINE
8
BLACK
6
CONTINUOUS
10
9.87721
20
-2.78362
11
9.87996
21
-2.78322
0
LINE
8
BLACK
6
CONTINUOUS
10
9.87996
20
-2.78322
11
9.88093
21
-2.78152
0
LINE
8
BLACK
6
CONTINUOUS
10
9.88093
20
-2.78152
11
9.88099
21
-2.78029
0
LINE
8
BLACK
6
CONTINUOUS
10
9.88099
20
-2.78029
11
9.88041
21
-2.77773
0
LINE
8
BLACK
6
CONTINUOUS
10
9.88041
20
-2.77773
11
9.87814
21
-2.77666
0
LINE
8
BLACK
6
CONTINUOUS
10
9.87814
20
-2.77666
11
9.87733
21
-2.77654
0
LINE
8
BLACK
6
CONTINUOUS
10
9.87733
20
-2.77654
11
9.87546
21
-2.77622
0
LINE
8
BLACK
6
CONTINUOUS
10
9.87546
20
-2.77622
11
9.87437
21
-2.7754
0
LINE
8
BLACK
6
CONTINUOUS
10
9.87437
20
-2.7754
11
9.87385
21
-2.77349
0
LINE
8
BLACK
6
CONTINUOUS
10
9.87385
20
-2.77349
11
9.87368
21
-2.76991
0
LINE
8
BLACK
6
CONTINUOUS
10
9.87368
20
-2.76991
11
9.87367
21
-2.76622
0
LINE
8
BLACK
6
CONTINUOUS
10
9.87367
20
-2.76622
11
9.87367
21
-2.75632
0
LINE
8
BLACK
6
CONTINUOUS
10
9.87367
20
-2.75632
11
9.88084
21
-2.75632
0
LINE
8
BLACK
6
CONTINUOUS
10
9.88084
20
-2.75632
11
9.88506
21
-2.75644
0
LINE
8
BLACK
6
CONTINUOUS
10
9.88506
20
-2.75644
11
9.88748
21
-2.75706
0
LINE
8
BLACK
6
CONTINUOUS
10
9.88748
20
-2.75706
11
9.889
21
-2.75862
0
LINE
8
BLACK
6
CONTINUOUS
10
9.889
20
-2.75862
11
9.89014
21
-2.7608
0
LINE
8
BLACK
6
CONTINUOUS
10
9.89014
20
-2.7608
11
9.8927
21
-2.76794
0
LINE
8
BLACK
6
CONTINUOUS
10
9.8927
20
-2.76794
11
9.8943
21
-2.77598
0
LINE
8
BLACK
6
CONTINUOUS
10
9.8943
20
-2.77598
11
9.8947
21
-2.78359
0
LINE
8
BLACK
6
CONTINUOUS
10
9.8947
20
-2.78359
11
9.89454
21
-2.78575
0
LINE
8
BLACK
6
CONTINUOUS
10
9.89454
20
-2.78575
11
9.89335
21
-2.79136
0
LINE
8
BLACK
6
CONTINUOUS
10
9.89335
20
-2.79136
11
9.89133
21
-2.79672
0
LINE
8
BLACK
6
CONTINUOUS
10
9.89133
20
-2.79672
11
9.88884
21
-2.80106
0
LINE
8
BLACK
6
CONTINUOUS
10
9.88884
20
-2.80106
11
9.88626
21
-2.8036
0
LINE
8
BLACK
6
CONTINUOUS
10
9.88626
20
-2.8036
11
9.88604
21
-2.80371
0
LINE
8
BLACK
6
CONTINUOUS
10
9.88604
20
-2.80371
11
9.88382
21
-2.80422
0
LINE
8
BLACK
6
CONTINUOUS
10
9.88382
20
-2.80422
11
9.87956
21
-2.8048
0
LINE
8
BLACK
6
CONTINUOUS
10
9.87956
20
-2.8048
11
9.87388
21
-2.80536
0
LINE
8
BLACK
6
CONTINUOUS
10
9.87388
20
-2.80536
11
9.86768
21
-2.80582
0
LINE
8
BLACK
6
CONTINUOUS
10
9.86768
20
-2.80582
11
9.86052
21
-2.8063
0
LINE
8
BLACK
6
CONTINUOUS
10
9.86052
20
-2.8063
11
9.8535
21
-2.80683
0
LINE
8
BLACK
6
CONTINUOUS
10
9.8535
20
-2.80683
11
9.84751
21
-2.80733
0
LINE
8
BLACK
6
CONTINUOUS
10
9.84751
20
-2.80733
11
9.84404
21
-2.80766
0
LINE
8
BLACK
6
CONTINUOUS
10
9.84404
20
-2.80766
11
9.83638
21
-2.8085
0
LINE
8
BLACK
6
CONTINUOUS
10
9.83638
20
-2.8085
11
9.83638
21
-2.79706
0
LINE
8
BLACK
6
CONTINUOUS
10
9.83638
20
-2.79706
11
9.83647
21
-2.79137
0
LINE
8
BLACK
6
CONTINUOUS
10
9.83647
20
-2.79137
11
9.83677
21
-2.78787
0
LINE
8
BLACK
6
CONTINUOUS
10
9.83677
20
-2.78787
11
9.83738
21
-2.78611
0
LINE
8
BLACK
6
CONTINUOUS
10
9.83738
20
-2.78611
11
9.83837
21
-2.78562
0
LINE
8
BLACK
6
CONTINUOUS
10
9.83837
20
-2.78562
11
9.83838
21
-2.78562
0
LINE
8
BLACK
6
CONTINUOUS
10
9.83838
20
-2.78562
11
9.83977
21
-2.78556
0
LINE
8
BLACK
6
CONTINUOUS
10
9.83977
20
-2.78556
11
9.84018
21
-2.78499
0
LINE
8
BLACK
6
CONTINUOUS
10
9.84018
20
-2.78499
11
9.83955
21
-2.78328
0
LINE
8
BLACK
6
CONTINUOUS
10
9.83955
20
-2.78328
11
9.83782
21
-2.77982
0
LINE
8
BLACK
6
CONTINUOUS
10
9.83782
20
-2.77982
11
9.83772
21
-2.77963
0
LINE
8
BLACK
6
CONTINUOUS
10
9.83772
20
-2.77963
11
9.8355
21
-2.77362
0
LINE
8
BLACK
6
CONTINUOUS
10
9.8355
20
-2.77362
11
9.83549
21
-2.76807
0
LINE
8
BLACK
6
CONTINUOUS
10
9.83549
20
-2.76807
11
9.837
21
-2.76342
0
LINE
8
BLACK
6
CONTINUOUS
10
9.837
20
-2.76342
11
9.84041
21
-2.75853
0
LINE
8
BLACK
6
CONTINUOUS
10
9.84041
20
-2.75853
11
9.84521
21
-2.75542
0
LINE
8
BLACK
6
CONTINUOUS
10
9.84521
20
-2.75542
11
9.85077
21
-2.75412
0
LINE
8
BLACK
6
CONTINUOUS
10
9.85077
20
-2.75412
11
9.85313
21
-2.75436
0
LINE
8
BLACK
6
CONTINUOUS
10
9.85125
20
-2.77736
11
9.85141
21
-2.78089
0
LINE
8
BLACK
6
CONTINUOUS
10
9.85141
20
-2.78089
11
9.85184
21
-2.78218
0
LINE
8
BLACK
6
CONTINUOUS
10
9.85184
20
-2.78218
11
9.85376
21
-2.78381
0
LINE
8
BLACK
6
CONTINUOUS
10
9.85376
20
-2.78381
11
9.85659
21
-2.78429
0
LINE
8
BLACK
6
CONTINUOUS
10
9.85659
20
-2.78429
11
9.85929
21
-2.78403
0
LINE
8
BLACK
6
CONTINUOUS
10
9.85929
20
-2.78403
11
9.85998
21
-2.78285
0
LINE
8
BLACK
6
CONTINUOUS
10
9.85998
20
-2.78285
11
9.85963
21
-2.78129
0
LINE
8
BLACK
6
CONTINUOUS
10
9.85963
20
-2.78129
11
9.85776
21
-2.77744
0
LINE
8
BLACK
6
CONTINUOUS
10
9.85776
20
-2.77744
11
9.85525
21
-2.77541
0
LINE
8
BLACK
6
CONTINUOUS
10
9.85525
20
-2.77541
11
9.85313
21
-2.77541
0
LINE
8
BLACK
6
CONTINUOUS
10
9.85313
20
-2.77541
11
9.85125
21
-2.77736
0
LINE
8
BLACK
6
CONTINUOUS
10
9.89364
20
-2.7268
11
9.89344
21
-2.7331
0
LINE
8
BLACK
6
CONTINUOUS
10
9.89344
20
-2.7331
11
9.89283
21
-2.73685
0
LINE
8
BLACK
6
CONTINUOUS
10
9.89283
20
-2.73685
11
9.89206
21
-2.73799
0
LINE
8
BLACK
6
CONTINUOUS
10
9.89206
20
-2.73799
11
9.89137
21
-2.73911
0
LINE
8
BLACK
6
CONTINUOUS
10
9.89137
20
-2.73911
11
9.89265
21
-2.74161
0
LINE
8
BLACK
6
CONTINUOUS
10
9.89265
20
-2.74161
11
9.89273
21
-2.74172
0
LINE
8
BLACK
6
CONTINUOUS
10
9.89273
20
-2.74172
11
9.89441
21
-2.74515
0
LINE
8
BLACK
6
CONTINUOUS
10
9.89441
20
-2.74515
11
9.89497
21
-2.74797
0
LINE
8
BLACK
6
CONTINUOUS
10
9.89497
20
-2.74797
11
9.89481
21
-2.74951
0
LINE
8
BLACK
6
CONTINUOUS
10
9.89481
20
-2.74951
11
9.89394
21
-2.75042
0
LINE
8
BLACK
6
CONTINUOUS
10
9.89394
20
-2.75042
11
9.89182
21
-2.75085
0
LINE
8
BLACK
6
CONTINUOUS
10
9.89182
20
-2.75085
11
9.88787
21
-2.75099
0
LINE
8
BLACK
6
CONTINUOUS
10
9.88787
20
-2.75099
11
9.88499
21
-2.751
0
LINE
8
BLACK
6
CONTINUOUS
10
9.88499
20
-2.751
11
9.875
21
-2.751
0
LINE
8
BLACK
6
CONTINUOUS
10
9.875
20
-2.751
11
9.87496
21
-2.74734
0
LINE
8
BLACK
6
CONTINUOUS
10
9.87496
20
-2.74734
11
9.87412
21
-2.74288
0
LINE
8
BLACK
6
CONTINUOUS
10
9.87412
20
-2.74288
11
9.87152
21
-2.73997
0
LINE
8
BLACK
6
CONTINUOUS
10
9.87152
20
-2.73997
11
9.86687
21
-2.73836
0
LINE
8
BLACK
6
CONTINUOUS
10
9.86687
20
-2.73836
11
9.86382
21
-2.73797
0
LINE
8
BLACK
6
CONTINUOUS
10
9.86382
20
-2.73797
11
9.85719
21
-2.73805
0
LINE
8
BLACK
6
CONTINUOUS
10
9.85719
20
-2.73805
11
9.85227
21
-2.73953
0
LINE
8
BLACK
6
CONTINUOUS
10
9.85227
20
-2.73953
11
9.84806
21
-2.74093
0
LINE
8
BLACK
6
CONTINUOUS
10
9.84806
20
-2.74093
11
9.84315
21
-2.74165
0
LINE
8
BLACK
6
CONTINUOUS
10
9.84315
20
-2.74165
11
9.84217
21
-2.74168
0
LINE
8
BLACK
6
CONTINUOUS
10
9.84217
20
-2.74168
11
9.83638
21
-2.74168
0
LINE
8
BLACK
6
CONTINUOUS
10
9.83638
20
-2.74168
11
9.83638
21
-2.72891
0
LINE
8
BLACK
6
CONTINUOUS
10
9.83638
20
-2.72891
11
9.83638
21
-2.71614
0
LINE
8
BLACK
6
CONTINUOUS
10
9.83638
20
-2.71614
11
9.84471
21
-2.71702
0
LINE
8
BLACK
6
CONTINUOUS
10
9.84471
20
-2.71702
11
9.85011
21
-2.71743
0
LINE
8
BLACK
6
CONTINUOUS
10
9.85011
20
-2.71743
11
9.85687
21
-2.71774
0
LINE
8
BLACK
6
CONTINUOUS
10
9.85687
20
-2.71774
11
9.86371
21
-2.71789
0
LINE
8
BLACK
6
CONTINUOUS
10
9.86371
20
-2.71789
11
9.86501
21
-2.71789
0
LINE
8
BLACK
6
CONTINUOUS
10
9.86501
20
-2.71789
11
9.87171
21
-2.71779
0
LINE
8
BLACK
6
CONTINUOUS
10
9.87171
20
-2.71779
11
9.8786
21
-2.71751
0
LINE
8
BLACK
6
CONTINUOUS
10
9.8786
20
-2.71751
11
9.88438
21
-2.71711
0
LINE
8
BLACK
6
CONTINUOUS
10
9.88438
20
-2.71711
11
9.88532
21
-2.71702
0
LINE
8
BLACK
6
CONTINUOUS
10
9.88532
20
-2.71702
11
9.89364
21
-2.71614
0
LINE
8
BLACK
6
CONTINUOUS
10
9.89364
20
-2.71614
11
9.89364
21
-2.7268
0
LINE
8
BLACK
6
CONTINUOUS
10
9.91495
20
-2.67643
11
9.91495
21
-2.70972
0
LINE
8
BLACK
6
CONTINUOUS
10
9.91495
20
-2.70972
11
9.89764
21
-2.70972
0
LINE
8
BLACK
6
CONTINUOUS
10
9.89764
20
-2.70972
11
9.88033
21
-2.70972
0
LINE
8
BLACK
6
CONTINUOUS
10
9.88033
20
-2.70972
11
9.88033
21
-2.70113
0
LINE
8
BLACK
6
CONTINUOUS
10
9.88033
20
-2.70113
11
9.88033
21
-2.69254
0
LINE
8
BLACK
6
CONTINUOUS
10
9.88033
20
-2.69254
11
9.88854
21
-2.69214
0
LINE
8
BLACK
6
CONTINUOUS
10
9.88854
20
-2.69214
11
9.89356
21
-2.69164
0
LINE
8
BLACK
6
CONTINUOUS
10
9.89356
20
-2.69164
11
9.8966
21
-2.69075
0
LINE
8
BLACK
6
CONTINUOUS
10
9.8966
20
-2.69075
11
9.89731
21
-2.69008
0
LINE
8
BLACK
6
CONTINUOUS
10
9.89731
20
-2.69008
11
9.89627
21
-2.68951
0
LINE
8
BLACK
6
CONTINUOUS
10
9.89627
20
-2.68951
11
9.89308
21
-2.68905
0
LINE
8
BLACK
6
CONTINUOUS
10
9.89308
20
-2.68905
11
9.88826
21
-2.68869
0
LINE
8
BLACK
6
CONTINUOUS
10
9.88826
20
-2.68869
11
9.88231
21
-2.68846
0
LINE
8
BLACK
6
CONTINUOUS
10
9.88231
20
-2.68846
11
9.87576
21
-2.68834
0
LINE
8
BLACK
6
CONTINUOUS
10
9.87576
20
-2.68834
11
9.86911
21
-2.68834
0
LINE
8
BLACK
6
CONTINUOUS
10
9.86911
20
-2.68834
11
9.86287
21
-2.68847
0
LINE
8
BLACK
6
CONTINUOUS
10
9.86287
20
-2.68847
11
9.85756
21
-2.68873
0
LINE
8
BLACK
6
CONTINUOUS
10
9.85756
20
-2.68873
11
9.8537
21
-2.68912
0
LINE
8
BLACK
6
CONTINUOUS
10
9.8537
20
-2.68912
11
9.85178
21
-2.68965
0
LINE
8
BLACK
6
CONTINUOUS
10
9.85178
20
-2.68965
11
9.8517
21
-2.68975
0
LINE
8
BLACK
6
CONTINUOUS
10
9.8517
20
-2.68975
11
9.85001
21
-2.69049
0
LINE
8
BLACK
6
CONTINUOUS
10
9.85001
20
-2.69049
11
9.84654
21
-2.69097
0
LINE
8
BLACK
6
CONTINUOUS
10
9.84654
20
-2.69097
11
9.84363
21
-2.69108
0
LINE
8
BLACK
6
CONTINUOUS
10
9.84363
20
-2.69108
11
9.83638
21
-2.69108
0
LINE
8
BLACK
6
CONTINUOUS
10
9.83638
20
-2.69108
11
9.83638
21
-2.67643
0
LINE
8
BLACK
6
CONTINUOUS
10
9.83638
20
-2.67643
11
9.83638
21
-2.66178
0
LINE
8
BLACK
6
CONTINUOUS
10
9.83638
20
-2.66178
11
9.84363
21
-2.66178
0
LINE
8
BLACK
6
CONTINUOUS
10
9.84363
20
-2.66178
11
9.8478
21
-2.66201
0
LINE
8
BLACK
6
CONTINUOUS
10
9.8478
20
-2.66201
11
9.85079
21
-2.66259
0
LINE
8
BLACK
6
CONTINUOUS
10
9.85079
20
-2.66259
11
9.8517
21
-2.66312
0
LINE
8
BLACK
6
CONTINUOUS
10
9.8517
20
-2.66312
11
9.85331
21
-2.66361
0
LINE
8
BLACK
6
CONTINUOUS
10
9.85331
20
-2.66361
11
9.85729
21
-2.66401
0
LINE
8
BLACK
6
CONTINUOUS
10
9.85729
20
-2.66401
11
9.86331
21
-2.66429
0
LINE
8
BLACK
6
CONTINUOUS
10
9.86331
20
-2.66429
11
9.87109
21
-2.66443
0
LINE
8
BLACK
6
CONTINUOUS
10
9.87109
20
-2.66443
11
9.87508
21
-2.66445
0
LINE
8
BLACK
6
CONTINUOUS
10
9.87508
20
-2.66445
11
9.88345
21
-2.66442
0
LINE
8
BLACK
6
CONTINUOUS
10
9.88345
20
-2.66442
11
9.88951
21
-2.6643
0
LINE
8
BLACK
6
CONTINUOUS
10
9.88951
20
-2.6643
11
9.89361
21
-2.66408
0
LINE
8
BLACK
6
CONTINUOUS
10
9.89361
20
-2.66408
11
9.89609
21
-2.66371
0
LINE
8
BLACK
6
CONTINUOUS
10
9.89609
20
-2.66371
11
9.89732
21
-2.66317
0
LINE
8
BLACK
6
CONTINUOUS
10
9.89732
20
-2.66317
11
9.89764
21
-2.66245
0
LINE
8
BLACK
6
CONTINUOUS
10
9.89764
20
-2.66245
11
9.89706
21
-2.66133
0
LINE
8
BLACK
6
CONTINUOUS
10
9.89706
20
-2.66133
11
9.89499
21
-2.66071
0
LINE
8
BLACK
6
CONTINUOUS
10
9.89499
20
-2.66071
11
9.89095
21
-2.66047
0
LINE
8
BLACK
6
CONTINUOUS
10
9.89095
20
-2.66047
11
9.88898
21
-2.66045
0
LINE
8
BLACK
6
CONTINUOUS
10
9.88898
20
-2.66045
11
9.88033
21
-2.66045
0
LINE
8
BLACK
6
CONTINUOUS
10
9.88033
20
-2.66045
11
9.88033
21
-2.6518
0
LINE
8
BLACK
6
CONTINUOUS
10
9.88033
20
-2.6518
11
9.88033
21
-2.64314
0
LINE
8
BLACK
6
CONTINUOUS
10
9.88033
20
-2.64314
11
9.89764
21
-2.64314
0
LINE
8
BLACK
6
CONTINUOUS
10
9.89764
20
-2.64314
11
9.91495
21
-2.64314
0
LINE
8
BLACK
6
CONTINUOUS
10
9.91495
20
-2.64314
11
9.91495
21
-2.67643
0
LINE
8
BLACK
6
CONTINUOUS
10
9.26185
20
-2.20835
11
9.2693
21
-2.21123
0
LINE
8
BLACK
6
CONTINUOUS
10
9.2693
20
-2.21123
11
9.2761
21
-2.21544
0
LINE
8
BLACK
6
CONTINUOUS
10
9.2761
20
-2.21544
11
9.282
21
-2.22082
0
LINE
8
BLACK
6
CONTINUOUS
10
9.282
20
-2.22082
11
9.28682
21
-2.2272
0
LINE
8
BLACK
6
CONTINUOUS
10
9.28682
20
-2.2272
11
9.29038
21
-2.23436
0
LINE
8
BLACK
6
CONTINUOUS
10
9.29038
20
-2.23436
11
9.29257
21
-2.24204
0
LINE
8
BLACK
6
CONTINUOUS
10
9.29257
20
-2.24204
11
9.29331
21
-2.25
0
LINE
8
BLACK
6
CONTINUOUS
10
9.29331
20
-2.25
11
9.29257
21
-2.25796
0
LINE
8
BLACK
6
CONTINUOUS
10
9.29257
20
-2.25796
11
9.29038
21
-2.26564
0
LINE
8
BLACK
6
CONTINUOUS
10
9.29038
20
-2.26564
11
9.28682
21
-2.2728
0
LINE
8
BLACK
6
CONTINUOUS
10
9.28682
20
-2.2728
11
9.282
21
-2.27918
0
LINE
8
BLACK
6
CONTINUOUS
10
9.282
20
-2.27918
11
9.2761
21
-2.28456
0
LINE
8
BLACK
6
CONTINUOUS
10
9.2761
20
-2.28456
11
9.2693
21
-2.28877
0
LINE
8
BLACK
6
CONTINUOUS
10
9.2693
20
-2.28877
11
9.26185
21
-2.29165
0
LINE
8
BLACK
6
CONTINUOUS
10
9.26185
20
-2.29165
11
9.254
21
-2.29312
0
LINE
8
BLACK
6
CONTINUOUS
10
9.254
20
-2.29312
11
9.246
21
-2.29312
0
LINE
8
BLACK
6
CONTINUOUS
10
9.246
20
-2.29312
11
9.23815
21
-2.29165
0
LINE
8
BLACK
6
CONTINUOUS
10
9.23815
20
-2.29165
11
9.2307
21
-2.28877
0
LINE
8
BLACK
6
CONTINUOUS
10
9.2307
20
-2.28877
11
9.2239
21
-2.28456
0
LINE
8
BLACK
6
CONTINUOUS
10
9.2239
20
-2.28456
11
9.218
21
-2.27918
0
LINE
8
BLACK
6
CONTINUOUS
10
9.218
20
-2.27918
11
9.21318
21
-2.2728
0
LINE
8
BLACK
6
CONTINUOUS
10
9.21318
20
-2.2728
11
9.20962
21
-2.26564
0
LINE
8
BLACK
6
CONTINUOUS
10
9.20962
20
-2.26564
11
9.20743
21
-2.25796
0
LINE
8
BLACK
6
CONTINUOUS
10
9.20743
20
-2.25796
11
9.20669
21
-2.25
0
LINE
8
BLACK
6
CONTINUOUS
10
9.20669
20
-2.25
11
9.20743
21
-2.24204
0
LINE
8
BLACK
6
CONTINUOUS
10
9.20743
20
-2.24204
11
9.20962
21
-2.23436
0
LINE
8
BLACK
6
CONTINUOUS
10
9.20962
20
-2.23436
11
9.21318
21
-2.2272
0
LINE
8
BLACK
6
CONTINUOUS
10
9.21318
20
-2.2272
11
9.218
21
-2.22082
0
LINE
8
BLACK
6
CONTINUOUS
10
9.218
20
-2.22082
11
9.2239
21
-2.21544
0
LINE
8
BLACK
6
CONTINUOUS
10
9.2239
20
-2.21544
11
9.2307
21
-2.21123
0
LINE
8
BLACK
6
CONTINUOUS
10
9.2307
20
-2.21123
11
9.23815
21
-2.20835
0
LINE
8
BLACK
6
CONTINUOUS
10
9.23815
20
-2.20835
11
9.246
21
-2.20688
0
LINE
8
BLACK
6
CONTINUOUS
10
9.246
20
-2.20688
11
9.254
21
-2.20688
0
LINE
8
BLACK
6
CONTINUOUS
10
9.254
20
-2.20688
11
9.26185
21
-2.20835
0
LINE
8
BLACK
6
CONTINUOUS
10
7.01185
20
-2.20835
11
7.0193
21
-2.21123
0
LINE
8
BLACK
6
CONTINUOUS
10
7.0193
20
-2.21123
11
7.0261
21
-2.21544
0
LINE
8
BLACK
6
CONTINUOUS
10
7.0261
20
-2.21544
11
7.032
21
-2.22082
0
LINE
8
BLACK
6
CONTINUOUS
10
7.032
20
-2.22082
11
7.03682
21
-2.2272
0
LINE
8
BLACK
6
CONTINUOUS
10
7.03682
20
-2.2272
11
7.04038
21
-2.23436
0
LINE
8
BLACK
6
CONTINUOUS
10
7.04038
20
-2.23436
11
7.04257
21
-2.24204
0
LINE
8
BLACK
6
CONTINUOUS
10
7.04257
20
-2.24204
11
7.04331
21
-2.25
0
LINE
8
BLACK
6
CONTINUOUS
10
7.04331
20
-2.25
11
7.04257
21
-2.25796
0
LINE
8
BLACK
6
CONTINUOUS
10
7.04257
20
-2.25796
11
7.04038
21
-2.26564
0
LINE
8
BLACK
6
CONTINUOUS
10
7.04038
20
-2.26564
11
7.03682
21
-2.2728
0
LINE
8
BLACK
6
CONTINUOUS
10
7.03682
20
-2.2728
11
7.032
21
-2.27918
0
LINE
8
BLACK
6
CONTINUOUS
10
7.032
20
-2.27918
11
7.0261
21
-2.28456
0
LINE
8
BLACK
6
CONTINUOUS
10
7.0261
20
-2.28456
11
7.0193
21
-2.28877
0
LINE
8
BLACK
6
CONTINUOUS
10
7.0193
20
-2.28877
11
7.01185
21
-2.29165
0
LINE
8
BLACK
6
CONTINUOUS
10
7.01185
20
-2.29165
11
7.004
21
-2.29312
0
LINE
8
BLACK
6
CONTINUOUS
10
7.004
20
-2.29312
11
6.996
21
-2.29312
0
LINE
8
BLACK
6
CONTINUOUS
10
6.996
20
-2.29312
11
6.98815
21
-2.29165
0
LINE
8
BLACK
6
CONTINUOUS
10
6.98815
20
-2.29165
11
6.9807
21
-2.28877
0
LINE
8
BLACK
6
CONTINUOUS
10
6.9807
20
-2.28877
11
6.9739
21
-2.28456
0
LINE
8
BLACK
6
CONTINUOUS
10
6.9739
20
-2.28456
11
6.968
21
-2.27918
0
LINE
8
BLACK
6
CONTINUOUS
10
6.968
20
-2.27918
11
6.96318
21
-2.2728
0
LINE
8
BLACK
6
CONTINUOUS
10
6.96318
20
-2.2728
11
6.95962
21
-2.26564
0
LINE
8
BLACK
6
CONTINUOUS
10
6.95962
20
-2.26564
11
6.95743
21
-2.25796
0
LINE
8
BLACK
6
CONTINUOUS
10
6.95743
20
-2.25796
11
6.95669
21
-2.25
0
LINE
8
BLACK
6
CONTINUOUS
10
6.95669
20
-2.25
11
6.95743
21
-2.24204
0
LINE
8
BLACK
6
CONTINUOUS
10
6.95743
20
-2.24204
11
6.95962
21
-2.23436
0
LINE
8
BLACK
6
CONTINUOUS
10
6.95962
20
-2.23436
11
6.96318
21
-2.2272
0
LINE
8
BLACK
6
CONTINUOUS
10
6.96318
20
-2.2272
11
6.968
21
-2.22082
0
LINE
8
BLACK
6
CONTINUOUS
10
6.968
20
-2.22082
11
6.9739
21
-2.21544
0
LINE
8
BLACK
6
CONTINUOUS
10
6.9739
20
-2.21544
11
6.9807
21
-2.21123
0
LINE
8
BLACK
6
CONTINUOUS
10
6.9807
20
-2.21123
11
6.98815
21
-2.20835
0
LINE
8
BLACK
6
CONTINUOUS
10
6.98815
20
-2.20835
11
6.996
21
-2.20688
0
LINE
8
BLACK
6
CONTINUOUS
10
6.996
20
-2.20688
11
7.004
21
-2.20688
0
LINE
8
BLACK
6
CONTINUOUS
10
7.004
20
-2.20688
11
7.01185
21
-2.20835
0
LINE
8
BLACK
6
CONTINUOUS
10
4.76185
20
-2.20835
11
4.7693
21
-2.21123
0
LINE
8
BLACK
6
CONTINUOUS
10
4.7693
20
-2.21123
11
4.7761
21
-2.21544
0
LINE
8
BLACK
6
CONTINUOUS
10
4.7761
20
-2.21544
11
4.782
21
-2.22082
0
LINE
8
BLACK
6
CONTINUOUS
10
4.782
20
-2.22082
11
4.78682
21
-2.2272
0
LINE
8
BLACK
6
CONTINUOUS
10
4.78682
20
-2.2272
11
4.79038
21
-2.23436
0
LINE
8
BLACK
6
CONTINUOUS
10
4.79038
20
-2.23436
11
4.79257
21
-2.24204
0
LINE
8
BLACK
6
CONTINUOUS
10
4.79257
20
-2.24204
11
4.79331
21
-2.25
0
LINE
8
BLACK
6
CONTINUOUS
10
4.79331
20
-2.25
11
4.79257
21
-2.25796
0
LINE
8
BLACK
6
CONTINUOUS
10
4.79257
20
-2.25796
11
4.79038
21
-2.26564
0
LINE
8
BLACK
6
CONTINUOUS
10
4.79038
20
-2.26564
11
4.78682
21
-2.2728
0
LINE
8
BLACK
6
CONTINUOUS
10
4.78682
20
-2.2728
11
4.782
21
-2.27918
0
LINE
8
BLACK
6
CONTINUOUS
10
4.782
20
-2.27918
11
4.7761
21
-2.28456
0
LINE
8
BLACK
6
CONTINUOUS
10
4.7761
20
-2.28456
11
4.7693
21
-2.28877
0
LINE
8
BLACK
6
CONTINUOUS
10
4.7693
20
-2.28877
11
4.76185
21
-2.29165
0
LINE
8
BLACK
6
CONTINUOUS
10
4.76185
20
-2.29165
11
4.754
21
-2.29312
0
LINE
8
BLACK
6
CONTINUOUS
10
4.754
20
-2.29312
11
4.746
21
-2.29312
0
LINE
8
BLACK
6
CONTINUOUS
10
4.746
20
-2.29312
11
4.73815
21
-2.29165
0
LINE
8
BLACK
6
CONTINUOUS
10
4.73815
20
-2.29165
11
4.7307
21
-2.28877
0
LINE
8
BLACK
6
CONTINUOUS
10
4.7307
20
-2.28877
11
4.7239
21
-2.28456
0
LINE
8
BLACK
6
CONTINUOUS
10
4.7239
20
-2.28456
11
4.718
21
-2.27918
0
LINE
8
BLACK
6
CONTINUOUS
10
4.718
20
-2.27918
11
4.71318
21
-2.2728
0
LINE
8
BLACK
6
CONTINUOUS
10
4.71318
20
-2.2728
11
4.70962
21
-2.26564
0
LINE
8
BLACK
6
CONTINUOUS
10
4.70962
20
-2.26564
11
4.70743
21
-2.25796
0
LINE
8
BLACK
6
CONTINUOUS
10
4.70743
20
-2.25796
11
4.70669
21
-2.25
0
LINE
8
BLACK
6
CONTINUOUS
10
4.70669
20
-2.25
11
4.70743
21
-2.24204
0
LINE
8
BLACK
6
CONTINUOUS
10
4.70743
20
-2.24204
11
4.70962
21
-2.23436
0
LINE
8
BLACK
6
CONTINUOUS
10
4.70962
20
-2.23436
11
4.71318
21
-2.2272
0
LINE
8
BLACK
6
CONTINUOUS
10
4.71318
20
-2.2272
11
4.718
21
-2.22082
0
LINE
8
BLACK
6
CONTINUOUS
10
4.718
20
-2.22082
11
4.7239
21
-2.21544
0
LINE
8
BLACK
6
CONTINUOUS
10
4.7239
20
-2.21544
11
4.7307
21
-2.21123
0
LINE
8
BLACK
6
CONTINUOUS
10
4.7307
20
-2.21123
11
4.73815
21
-2.20835
0
LINE
8
BLACK
6
CONTINUOUS
10
4.73815
20
-2.20835
11
4.746
21
-2.20688
0
LINE
8
BLACK
6
CONTINUOUS
10
4.746
20
-2.20688
11
4.754
21
-2.20688
0
LINE
8
BLACK
6
CONTINUOUS
10
4.754
20
-2.20688
11
4.76185
21
-2.20835
0
LINE
8
BLACK
6
CONTINUOUS
10
2.51185
20
-2.20835
11
2.5193
21
-2.21123
0
LINE
8
BLACK
6
CONTINUOUS
10
2.5193
20
-2.21123
11
2.5261
21
-2.21544
0
LINE
8
BLACK
6
CONTINUOUS
10
2.5261
20
-2.21544
11
2.532
21
-2.22082
0
LINE
8
BLACK
6
CONTINUOUS
10
2.532
20
-2.22082
11
2.53682
21
-2.2272
0
LINE
8
BLACK
6
CONTINUOUS
10
2.53682
20
-2.2272
11
2.54038
21
-2.23436
0
LINE
8
BLACK
6
CONTINUOUS
10
2.54038
20
-2.23436
11
2.54257
21
-2.24204
0
LINE
8
BLACK
6
CONTINUOUS
10
2.54257
20
-2.24204
11
2.54331
21
-2.25
0
LINE
8
BLACK
6
CONTINUOUS
10
2.54331
20
-2.25
11
2.54257
21
-2.25796
0
LINE
8
BLACK
6
CONTINUOUS
10
2.54257
20
-2.25796
11
2.54038
21
-2.26564
0
LINE
8
BLACK
6
CONTINUOUS
10
2.54038
20
-2.26564
11
2.53682
21
-2.2728
0
LINE
8
BLACK
6
CONTINUOUS
10
2.53682
20
-2.2728
11
2.532
21
-2.27918
0
LINE
8
BLACK
6
CONTINUOUS
10
2.532
20
-2.27918
11
2.5261
21
-2.28456
0
LINE
8
BLACK
6
CONTINUOUS
10
2.5261
20
-2.28456
11
2.5193
21
-2.28877
0
LINE
8
BLACK
6
CONTINUOUS
10
2.5193
20
-2.28877
11
2.51185
21
-2.29165
0
LINE
8
BLACK
6
CONTINUOUS
10
2.51185
20
-2.29165
11
2.504
21
-2.29312
0
LINE
8
BLACK
6
CONTINUOUS
10
2.504
20
-2.29312
11
2.496
21
-2.29312
0
LINE
8
BLACK
6
CONTINUOUS
10
2.496
20
-2.29312
11
2.48815
21
-2.29165
0
LINE
8
BLACK
6
CONTINUOUS
10
2.48815
20
-2.29165
11
2.4807
21
-2.28877
0
LINE
8
BLACK
6
CONTINUOUS
10
2.4807
20
-2.28877
11
2.4739
21
-2.28456
0
LINE
8
BLACK
6
CONTINUOUS
10
2.4739
20
-2.28456
11
2.468
21
-2.27918
0
LINE
8
BLACK
6
CONTINUOUS
10
2.468
20
-2.27918
11
2.46318
21
-2.2728
0
LINE
8
BLACK
6
CONTINUOUS
10
2.46318
20
-2.2728
11
2.45962
21
-2.26564
0
LINE
8
BLACK
6
CONTINUOUS
10
2.45962
20
-2.26564
11
2.45743
21
-2.25796
0
LINE
8
BLACK
6
CONTINUOUS
10
2.45743
20
-2.25796
11
2.45669
21
-2.25
0
LINE
8
BLACK
6
CONTINUOUS
10
2.45669
20
-2.25
11
2.45743
21
-2.24204
0
LINE
8
BLACK
6
CONTINUOUS
10
2.45743
20
-2.24204
11
2.45962
21
-2.23436
0
LINE
8
BLACK
6
CONTINUOUS
10
2.45962
20
-2.23436
11
2.46318
21
-2.2272
0
LINE
8
BLACK
6
CONTINUOUS
10
2.46318
20
-2.2272
11
2.468
21
-2.22082
0
LINE
8
BLACK
6
CONTINUOUS
10
2.468
20
-2.22082
11
2.4739
21
-2.21544
0
LINE
8
BLACK
6
CONTINUOUS
10
2.4739
20
-2.21544
11
2.4807
21
-2.21123
0
LINE
8
BLACK
6
CONTINUOUS
10
2.4807
20
-2.21123
11
2.48815
21
-2.20835
0
LINE
8
BLACK
6
CONTINUOUS
10
2.48815
20
-2.20835
11
2.496
21
-2.20688
0
LINE
8
BLACK
6
CONTINUOUS
10
2.496
20
-2.20688
11
2.504
21
-2.20688
0
LINE
8
BLACK
6
CONTINUOUS
10
2.504
20
-2.20688
11
2.51185
21
-2.20835
  0
ENDSEC
  0
EOF
