  0
SECTION
  2
HEADER
  9
$ANGBASE
  50
0.0
  9
$ANGDIR
  70
1
  9
$MEASUREMENT
  70
0
  0
ENDSEC
  0
SECTION
  2
TABLES
  0
TABLE
  2
LTYPE
  70
4
  0
LTYPE
  5
40F
  2
CONTINUOUS
  70
0
  3
Solid line
  72
65
  73
0
  40
0.0
  0
LTYPE
  5
410
  2
DASHDOT
 70
0
  3
Dash Dot ____ _ ____ _
 72
65
 73
4
 40
2.0
 49
1.25
 49
-0.25
 49
0.25
 49
-0.25
  0
LTYPE
  5
411
  2
DASHED
 70
0
  3
Dashed __ __ __ __ __
 72
65
 73
2
 40
0.75
 49
0.5
 49
-0.25
  0
LTYPE
  5
43B
  2
DOTTED
 70
0
  3
Dotted .  .  .  .
 72
65
 73
2
 40
0.2
 49
0.0
 49
-0.2
  0
ENDTAB
  0
TABLE
  2
STYLE
  70
4
  0
STYLE
  2
KICAD
  70
0
  40
0
  41
1
  42
1
  50
0
  71
0
  3
isocp.shx
  0
STYLE
  2
KICADB
  70
0
  40
0
  41
1
  42
1
  50
0
  71
0
  3
isocp.shx
  0
STYLE
  2
KICADI
  70
0
  40
0
  41
1
  42
1
  50
15
  71
0
  3
isocp.shx
  0
STYLE
  2
KICADBI
  70
0
  40
0
  41
1
  42
1
  50
15
  71
0
  3
isocp.shx
  0
ENDTAB
  0
TABLE
  2
LAYER
  70
1
  0
LAYER
  2
BLACK
  70
0
  62
7
  6
CONTINUOUS
  0
ENDTAB
  0
ENDSEC
  0
SECTION
  2
ENTITIES
0
LINE
8
BLACK
6
CONTINUOUS
10
9.86875
20
-3.29865
11
9.87101
21
-3.29856
0
LINE
8
BLACK
6
CONTINUOUS
10
9.87101
20
-3.29856
11
9.88314
21
-3.29847
0
LINE
8
BLACK
6
CONTINUOUS
10
9.88314
20
-3.29847
11
9.89306
21
-3.29906
0
LINE
8
BLACK
6
CONTINUOUS
10
9.89306
20
-3.29906
11
9.90066
21
-3.30031
0
LINE
8
BLACK
6
CONTINUOUS
10
9.90066
20
-3.30031
11
9.90582
21
-3.3022
0
LINE
8
BLACK
6
CONTINUOUS
10
9.90582
20
-3.3022
11
9.90732
21
-3.30326
0
LINE
8
BLACK
6
CONTINUOUS
10
9.90732
20
-3.30326
11
9.91157
21
-3.30872
0
LINE
8
BLACK
6
CONTINUOUS
10
9.91157
20
-3.30872
11
9.9144
21
-3.31573
0
LINE
8
BLACK
6
CONTINUOUS
10
9.9144
20
-3.31573
11
9.91583
21
-3.32364
0
LINE
8
BLACK
6
CONTINUOUS
10
9.91583
20
-3.32364
11
9.91584
21
-3.33183
0
LINE
8
BLACK
6
CONTINUOUS
10
9.91584
20
-3.33183
11
9.91442
21
-3.33965
0
LINE
8
BLACK
6
CONTINUOUS
10
9.91442
20
-3.33965
11
9.91159
21
-3.34645
0
LINE
8
BLACK
6
CONTINUOUS
10
9.91159
20
-3.34645
11
9.90768
21
-3.3513
0
LINE
8
BLACK
6
CONTINUOUS
10
9.90768
20
-3.3513
11
9.90502
21
-3.35333
0
LINE
8
BLACK
6
CONTINUOUS
10
9.90502
20
-3.35333
11
9.90203
21
-3.35483
0
LINE
8
BLACK
6
CONTINUOUS
10
9.90203
20
-3.35483
11
9.8983
21
-3.35587
0
LINE
8
BLACK
6
CONTINUOUS
10
9.8983
20
-3.35587
11
9.89343
21
-3.3565
0
LINE
8
BLACK
6
CONTINUOUS
10
9.89343
20
-3.3565
11
9.887
21
-3.35678
0
LINE
8
BLACK
6
CONTINUOUS
10
9.887
20
-3.35678
11
9.87861
21
-3.35677
0
LINE
8
BLACK
6
CONTINUOUS
10
9.87861
20
-3.35677
11
9.87151
21
-3.35663
0
LINE
8
BLACK
6
CONTINUOUS
10
9.87151
20
-3.35663
11
9.86229
21
-3.3563
0
LINE
8
BLACK
6
CONTINUOUS
10
9.86229
20
-3.3563
11
9.85531
21
-3.35572
0
LINE
8
BLACK
6
CONTINUOUS
10
9.85531
20
-3.35572
11
9.85015
21
-3.35475
0
LINE
8
BLACK
6
CONTINUOUS
10
9.85015
20
-3.35475
11
9.84639
21
-3.35326
0
LINE
8
BLACK
6
CONTINUOUS
10
9.84639
20
-3.35326
11
9.84363
21
-3.35108
0
LINE
8
BLACK
6
CONTINUOUS
10
9.84363
20
-3.35108
11
9.84142
21
-3.34809
0
LINE
8
BLACK
6
CONTINUOUS
10
9.84142
20
-3.34809
11
9.84028
21
-3.346
0
LINE
8
BLACK
6
CONTINUOUS
10
9.84028
20
-3.346
11
9.83825
21
-3.34014
0
LINE
8
BLACK
6
CONTINUOUS
10
9.83825
20
-3.34014
11
9.83709
21
-3.33277
0
LINE
8
BLACK
6
CONTINUOUS
10
9.83709
20
-3.33277
11
9.83686
21
-3.32492
0
LINE
8
BLACK
6
CONTINUOUS
10
9.83686
20
-3.32492
11
9.83762
21
-3.31763
0
LINE
8
BLACK
6
CONTINUOUS
10
9.83762
20
-3.31763
11
9.83818
21
-3.31525
0
LINE
8
BLACK
6
CONTINUOUS
10
9.83818
20
-3.31525
11
9.8401
21
-3.30983
0
LINE
8
BLACK
6
CONTINUOUS
10
9.8401
20
-3.30983
11
9.84262
21
-3.30574
0
LINE
8
BLACK
6
CONTINUOUS
10
9.84262
20
-3.30574
11
9.84614
21
-3.30277
0
LINE
8
BLACK
6
CONTINUOUS
10
9.84614
20
-3.30277
11
9.85101
21
-3.30074
0
LINE
8
BLACK
6
CONTINUOUS
10
9.85101
20
-3.30074
11
9.85762
21
-3.29947
0
LINE
8
BLACK
6
CONTINUOUS
10
9.85762
20
-3.29947
11
9.86633
21
-3.29875
0
LINE
8
BLACK
6
CONTINUOUS
10
9.86633
20
-3.29875
11
9.86875
21
-3.29865
0
LINE
8
BLACK
6
CONTINUOUS
10
9.86229
20
-3.3224
11
9.85779
21
-3.32266
0
LINE
8
BLACK
6
CONTINUOUS
10
9.85779
20
-3.32266
11
9.8549
21
-3.32323
0
LINE
8
BLACK
6
CONTINUOUS
10
9.8549
20
-3.32323
11
9.85326
21
-3.32417
0
LINE
8
BLACK
6
CONTINUOUS
10
9.85326
20
-3.32417
11
9.85253
21
-3.32556
0
LINE
8
BLACK
6
CONTINUOUS
10
9.85253
20
-3.32556
11
9.85236
21
-3.32746
0
LINE
8
BLACK
6
CONTINUOUS
10
9.85236
20
-3.32746
11
9.85236
21
-3.32756
0
LINE
8
BLACK
6
CONTINUOUS
10
9.85236
20
-3.32756
11
9.85294
21
-3.3307
0
LINE
8
BLACK
6
CONTINUOUS
10
9.85294
20
-3.3307
11
9.85501
21
-3.33215
0
LINE
8
BLACK
6
CONTINUOUS
10
9.85501
20
-3.33215
11
9.85536
21
-3.33225
0
LINE
8
BLACK
6
CONTINUOUS
10
9.85536
20
-3.33225
11
9.85774
21
-3.33249
0
LINE
8
BLACK
6
CONTINUOUS
10
9.85774
20
-3.33249
11
9.8622
21
-3.33264
0
LINE
8
BLACK
6
CONTINUOUS
10
9.8622
20
-3.33264
11
9.86819
21
-3.3327
0
LINE
8
BLACK
6
CONTINUOUS
10
9.86819
20
-3.3327
11
9.87511
21
-3.33265
0
LINE
8
BLACK
6
CONTINUOUS
10
9.87511
20
-3.33265
11
9.87752
21
-3.33261
0
LINE
8
BLACK
6
CONTINUOUS
10
9.87752
20
-3.33261
11
9.88519
21
-3.33241
0
LINE
8
BLACK
6
CONTINUOUS
10
9.88519
20
-3.33241
11
9.89061
21
-3.33216
0
LINE
8
BLACK
6
CONTINUOUS
10
9.89061
20
-3.33216
11
9.89422
21
-3.33179
0
LINE
8
BLACK
6
CONTINUOUS
10
9.89422
20
-3.33179
11
9.89645
21
-3.33124
0
LINE
8
BLACK
6
CONTINUOUS
10
9.89645
20
-3.33124
11
9.89771
21
-3.33045
0
LINE
8
BLACK
6
CONTINUOUS
10
9.89771
20
-3.33045
11
9.89815
21
-3.32989
0
LINE
8
BLACK
6
CONTINUOUS
10
9.89815
20
-3.32989
11
9.89891
21
-3.32703
0
LINE
8
BLACK
6
CONTINUOUS
10
9.89891
20
-3.32703
11
9.89815
21
-3.32523
0
LINE
8
BLACK
6
CONTINUOUS
10
9.89815
20
-3.32523
11
9.89725
21
-3.3243
0
LINE
8
BLACK
6
CONTINUOUS
10
9.89725
20
-3.3243
11
9.89562
21
-3.32362
0
LINE
8
BLACK
6
CONTINUOUS
10
9.89562
20
-3.32362
11
9.89284
21
-3.32316
0
LINE
8
BLACK
6
CONTINUOUS
10
9.89284
20
-3.32316
11
9.88848
21
-3.32284
0
LINE
8
BLACK
6
CONTINUOUS
10
9.88848
20
-3.32284
11
9.88212
21
-3.32262
0
LINE
8
BLACK
6
CONTINUOUS
10
9.88212
20
-3.32262
11
9.87752
21
-3.32252
0
LINE
8
BLACK
6
CONTINUOUS
10
9.87752
20
-3.32252
11
9.86875
21
-3.32238
0
LINE
8
BLACK
6
CONTINUOUS
10
9.86875
20
-3.32238
11
9.86229
21
-3.3224
0
LINE
8
BLACK
6
CONTINUOUS
10
9.8514
20
-3.27176
11
9.8536
21
-3.27381
0
LINE
8
BLACK
6
CONTINUOUS
10
9.8536
20
-3.27381
11
9.856
21
-3.2785
0
LINE
8
BLACK
6
CONTINUOUS
10
9.856
20
-3.2785
11
9.85576
21
-3.283
0
LINE
8
BLACK
6
CONTINUOUS
10
9.85576
20
-3.283
11
9.85309
21
-3.28701
0
LINE
8
BLACK
6
CONTINUOUS
10
9.85309
20
-3.28701
11
9.84874
21
-3.28982
0
LINE
8
BLACK
6
CONTINUOUS
10
9.84874
20
-3.28982
11
9.84415
21
-3.29028
0
LINE
8
BLACK
6
CONTINUOUS
10
9.84415
20
-3.29028
11
9.83997
21
-3.28848
0
LINE
8
BLACK
6
CONTINUOUS
10
9.83997
20
-3.28848
11
9.837
21
-3.28486
0
LINE
8
BLACK
6
CONTINUOUS
10
9.837
20
-3.28486
11
9.83554
21
-3.28168
0
LINE
8
BLACK
6
CONTINUOUS
10
9.83554
20
-3.28168
11
9.8353
21
-3.27942
0
LINE
8
BLACK
6
CONTINUOUS
10
9.8353
20
-3.27942
11
9.836
21
-3.27696
0
LINE
8
BLACK
6
CONTINUOUS
10
9.836
20
-3.27696
11
9.83868
21
-3.27292
0
LINE
8
BLACK
6
CONTINUOUS
10
9.83868
20
-3.27292
11
9.84265
21
-3.27061
0
LINE
8
BLACK
6
CONTINUOUS
10
9.84265
20
-3.27061
11
9.84714
21
-3.27018
0
LINE
8
BLACK
6
CONTINUOUS
10
9.84714
20
-3.27018
11
9.8514
21
-3.27176
0
LINE
8
BLACK
6
CONTINUOUS
10
9.8478
20
-3.22925
11
9.85079
21
-3.22984
0
LINE
8
BLACK
6
CONTINUOUS
10
9.85079
20
-3.22984
11
9.8517
21
-3.23036
0
LINE
8
BLACK
6
CONTINUOUS
10
9.8517
20
-3.23036
11
9.85331
21
-3.23085
0
LINE
8
BLACK
6
CONTINUOUS
10
9.85331
20
-3.23085
11
9.85729
21
-3.23125
0
LINE
8
BLACK
6
CONTINUOUS
10
9.85729
20
-3.23125
11
9.86335
21
-3.23152
0
LINE
8
BLACK
6
CONTINUOUS
10
9.86335
20
-3.23152
11
9.87118
21
-3.23167
0
LINE
8
BLACK
6
CONTINUOUS
10
9.87118
20
-3.23167
11
9.87567
21
-3.23169
0
LINE
8
BLACK
6
CONTINUOUS
10
9.87567
20
-3.23169
11
9.88428
21
-3.23162
0
LINE
8
BLACK
6
CONTINUOUS
10
9.88428
20
-3.23162
11
9.89126
21
-3.2314
0
LINE
8
BLACK
6
CONTINUOUS
10
9.89126
20
-3.2314
11
9.89631
21
-3.23106
0
LINE
8
BLACK
6
CONTINUOUS
10
9.89631
20
-3.23106
11
9.89914
21
-3.23062
0
LINE
8
BLACK
6
CONTINUOUS
10
9.89914
20
-3.23062
11
9.89963
21
-3.23036
0
LINE
8
BLACK
6
CONTINUOUS
10
9.89963
20
-3.23036
11
9.90134
21
-3.22959
0
LINE
8
BLACK
6
CONTINUOUS
10
9.90134
20
-3.22959
11
9.90477
21
-3.22911
0
LINE
8
BLACK
6
CONTINUOUS
10
9.90477
20
-3.22911
11
9.90704
21
-3.22903
0
LINE
8
BLACK
6
CONTINUOUS
10
9.90704
20
-3.22903
11
9.91362
21
-3.22903
0
LINE
8
BLACK
6
CONTINUOUS
10
9.91362
20
-3.22903
11
9.91362
21
-3.24234
0
LINE
8
BLACK
6
CONTINUOUS
10
9.91362
20
-3.24234
11
9.91362
21
-3.25566
0
LINE
8
BLACK
6
CONTINUOUS
10
9.91362
20
-3.25566
11
9.88307
21
-3.25566
0
LINE
8
BLACK
6
CONTINUOUS
10
9.88307
20
-3.25566
11
9.87273
21
-3.25572
0
LINE
8
BLACK
6
CONTINUOUS
10
9.87273
20
-3.25572
11
9.86422
21
-3.25588
0
LINE
8
BLACK
6
CONTINUOUS
10
9.86422
20
-3.25588
11
9.85775
21
-3.25615
0
LINE
8
BLACK
6
CONTINUOUS
10
9.85775
20
-3.25615
11
9.85351
21
-3.25651
0
LINE
8
BLACK
6
CONTINUOUS
10
9.85351
20
-3.25651
11
9.85173
21
-3.25695
0
LINE
8
BLACK
6
CONTINUOUS
10
9.85173
20
-3.25695
11
9.8517
21
-3.25699
0
LINE
8
BLACK
6
CONTINUOUS
10
9.8517
20
-3.25699
11
9.85001
21
-3.25773
0
LINE
8
BLACK
6
CONTINUOUS
10
9.85001
20
-3.25773
11
9.84654
21
-3.25821
0
LINE
8
BLACK
6
CONTINUOUS
10
9.84654
20
-3.25821
11
9.84363
21
-3.25832
0
LINE
8
BLACK
6
CONTINUOUS
10
9.84363
20
-3.25832
11
9.83638
21
-3.25832
0
LINE
8
BLACK
6
CONTINUOUS
10
9.83638
20
-3.25832
11
9.83638
21
-3.24368
0
LINE
8
BLACK
6
CONTINUOUS
10
9.83638
20
-3.24368
11
9.83638
21
-3.22903
0
LINE
8
BLACK
6
CONTINUOUS
10
9.83638
20
-3.22903
11
9.84363
21
-3.22903
0
LINE
8
BLACK
6
CONTINUOUS
10
9.84363
20
-3.22903
11
9.8478
21
-3.22925
0
LINE
8
BLACK
6
CONTINUOUS
10
9.89364
20
-3.18062
11
9.89364
21
-3.19346
0
LINE
8
BLACK
6
CONTINUOUS
10
9.89364
20
-3.19346
11
9.88403
21
-3.19266
0
LINE
8
BLACK
6
CONTINUOUS
10
9.88403
20
-3.19266
11
9.87773
21
-3.19248
0
LINE
8
BLACK
6
CONTINUOUS
10
9.87773
20
-3.19248
11
9.87149
21
-3.1929
0
LINE
8
BLACK
6
CONTINUOUS
10
9.87149
20
-3.1929
11
9.86607
21
-3.19381
0
LINE
8
BLACK
6
CONTINUOUS
10
9.86607
20
-3.19381
11
9.86222
21
-3.19511
0
LINE
8
BLACK
6
CONTINUOUS
10
9.86222
20
-3.19511
11
9.86126
21
-3.19575
0
LINE
8
BLACK
6
CONTINUOUS
10
9.86126
20
-3.19575
11
9.86187
21
-3.19654
0
LINE
8
BLACK
6
CONTINUOUS
10
9.86187
20
-3.19654
11
9.86452
21
-3.19771
0
LINE
8
BLACK
6
CONTINUOUS
10
9.86452
20
-3.19771
11
9.86864
21
-3.19902
0
LINE
8
BLACK
6
CONTINUOUS
10
9.86864
20
-3.19902
11
9.86897
21
-3.19911
0
LINE
8
BLACK
6
CONTINUOUS
10
9.86897
20
-3.19911
11
9.87412
21
-3.20034
0
LINE
8
BLACK
6
CONTINUOUS
10
9.87412
20
-3.20034
11
9.87733
21
-3.20067
0
LINE
8
BLACK
6
CONTINUOUS
10
9.87733
20
-3.20067
11
9.87911
21
-3.20013
0
LINE
8
BLACK
6
CONTINUOUS
10
9.87911
20
-3.20013
11
9.87932
21
-3.19995
0
LINE
8
BLACK
6
CONTINUOUS
10
9.87932
20
-3.19995
11
9.88149
21
-3.19903
0
LINE
8
BLACK
6
CONTINUOUS
10
9.88149
20
-3.19903
11
9.88523
21
-3.19848
0
LINE
8
BLACK
6
CONTINUOUS
10
9.88523
20
-3.19848
11
9.88725
21
-3.1984
0
LINE
8
BLACK
6
CONTINUOUS
10
9.88725
20
-3.1984
11
9.89364
21
-3.1984
0
LINE
8
BLACK
6
CONTINUOUS
10
9.89364
20
-3.1984
11
9.89364
21
-3.21039
0
LINE
8
BLACK
6
CONTINUOUS
10
9.89364
20
-3.21039
11
9.89364
21
-3.22237
0
LINE
8
BLACK
6
CONTINUOUS
10
9.89364
20
-3.22237
11
9.8876
21
-3.22237
0
LINE
8
BLACK
6
CONTINUOUS
10
9.8876
20
-3.22237
11
9.88319
21
-3.22196
0
LINE
8
BLACK
6
CONTINUOUS
10
9.88319
20
-3.22196
11
9.87946
21
-3.22094
0
LINE
8
BLACK
6
CONTINUOUS
10
9.87946
20
-3.22094
11
9.87861
21
-3.22051
0
LINE
8
BLACK
6
CONTINUOUS
10
9.87861
20
-3.22051
11
9.87633
21
-3.21949
0
LINE
8
BLACK
6
CONTINUOUS
10
9.87633
20
-3.21949
11
9.87202
21
-3.21794
0
LINE
8
BLACK
6
CONTINUOUS
10
9.87202
20
-3.21794
11
9.8662
21
-3.21602
0
LINE
8
BLACK
6
CONTINUOUS
10
9.8662
20
-3.21602
11
9.85941
21
-3.21391
0
LINE
8
BLACK
6
CONTINUOUS
10
9.85941
20
-3.21391
11
9.85603
21
-3.21291
0
LINE
8
BLACK
6
CONTINUOUS
10
9.85603
20
-3.21291
11
9.83638
21
-3.20717
0
LINE
8
BLACK
6
CONTINUOUS
10
9.83638
20
-3.20717
11
9.83638
21
-3.19487
0
LINE
8
BLACK
6
CONTINUOUS
10
9.83638
20
-3.19487
11
9.83649
21
-3.18944
0
LINE
8
BLACK
6
CONTINUOUS
10
9.83649
20
-3.18944
11
9.83676
21
-3.18511
0
LINE
8
BLACK
6
CONTINUOUS
10
9.83676
20
-3.18511
11
9.83715
21
-3.1825
0
LINE
8
BLACK
6
CONTINUOUS
10
9.83715
20
-3.1825
11
9.83738
21
-3.18203
0
LINE
8
BLACK
6
CONTINUOUS
10
9.83738
20
-3.18203
11
9.83895
21
-3.1815
0
LINE
8
BLACK
6
CONTINUOUS
10
9.83895
20
-3.1815
11
9.84261
21
-3.18038
0
LINE
8
BLACK
6
CONTINUOUS
10
9.84261
20
-3.18038
11
9.84791
21
-3.17881
0
LINE
8
BLACK
6
CONTINUOUS
10
9.84791
20
-3.17881
11
9.85439
21
-3.17694
0
LINE
8
BLACK
6
CONTINUOUS
10
9.85439
20
-3.17694
11
9.85836
21
-3.17581
0
LINE
8
BLACK
6
CONTINUOUS
10
9.85836
20
-3.17581
11
9.86531
21
-3.17378
0
LINE
8
BLACK
6
CONTINUOUS
10
9.86531
20
-3.17378
11
9.87138
21
-3.17191
0
LINE
8
BLACK
6
CONTINUOUS
10
9.87138
20
-3.17191
11
9.87609
21
-3.17036
0
LINE
8
BLACK
6
CONTINUOUS
10
9.87609
20
-3.17036
11
9.87897
21
-3.16929
0
LINE
8
BLACK
6
CONTINUOUS
10
9.87897
20
-3.16929
11
9.87959
21
-3.16895
0
LINE
8
BLACK
6
CONTINUOUS
10
9.87959
20
-3.16895
11
9.88159
21
-3.16826
0
LINE
8
BLACK
6
CONTINUOUS
10
9.88159
20
-3.16826
11
9.8852
21
-3.16783
0
LINE
8
BLACK
6
CONTINUOUS
10
9.8852
20
-3.16783
11
9.88725
21
-3.16778
0
LINE
8
BLACK
6
CONTINUOUS
10
9.88725
20
-3.16778
11
9.89364
21
-3.16778
0
LINE
8
BLACK
6
CONTINUOUS
10
9.89364
20
-3.16778
11
9.89364
21
-3.18062
0
LINE
8
BLACK
6
CONTINUOUS
10
9.75717
20
-3.11777
11
9.7573
21
-3.11789
0
LINE
8
BLACK
6
CONTINUOUS
10
9.7573
20
-3.11789
11
9.75748
21
-3.11791
0
LINE
8
BLACK
6
CONTINUOUS
10
9.75748
20
-3.11791
11
9.76123
21
-3.11978
0
LINE
8
BLACK
6
CONTINUOUS
10
9.76123
20
-3.11978
11
9.76205
21
-3.12039
0
LINE
8
BLACK
6
CONTINUOUS
10
9.76205
20
-3.12039
11
9.76223
21
-3.1208
0
LINE
8
BLACK
6
CONTINUOUS
10
9.76223
20
-3.1208
11
9.76255
21
-3.1211
0
LINE
8
BLACK
6
CONTINUOUS
10
9.76255
20
-3.1211
11
9.76442
21
-3.12485
0
LINE
8
BLACK
6
CONTINUOUS
10
9.76442
20
-3.12485
11
9.76472
21
-3.12583
0
LINE
8
BLACK
6
CONTINUOUS
10
9.76472
20
-3.12583
11
9.76468
21
-3.12601
0
LINE
8
BLACK
6
CONTINUOUS
10
9.76468
20
-3.12601
11
9.76474
21
-3.12617
0
LINE
8
BLACK
6
CONTINUOUS
10
9.76474
20
-3.12617
11
9.76474
21
-3.13367
0
LINE
8
BLACK
6
CONTINUOUS
10
9.76474
20
-3.13367
11
9.76456
21
-3.13468
0
LINE
8
BLACK
6
CONTINUOUS
10
9.76456
20
-3.13468
11
9.76444
21
-3.13482
0
LINE
8
BLACK
6
CONTINUOUS
10
9.76444
20
-3.13482
11
9.76442
21
-3.13499
0
LINE
8
BLACK
6
CONTINUOUS
10
9.76442
20
-3.13499
11
9.76255
21
-3.13874
0
LINE
8
BLACK
6
CONTINUOUS
10
9.76255
20
-3.13874
11
9.76194
21
-3.13956
0
LINE
8
BLACK
6
CONTINUOUS
10
9.76194
20
-3.13956
11
9.76153
21
-3.13974
0
LINE
8
BLACK
6
CONTINUOUS
10
9.76153
20
-3.13974
11
9.76123
21
-3.14006
0
LINE
8
BLACK
6
CONTINUOUS
10
9.76123
20
-3.14006
11
9.75748
21
-3.14194
0
LINE
8
BLACK
6
CONTINUOUS
10
9.75748
20
-3.14194
11
9.7565
21
-3.14223
0
LINE
8
BLACK
6
CONTINUOUS
10
9.7565
20
-3.14223
11
9.75632
21
-3.14219
0
LINE
8
BLACK
6
CONTINUOUS
10
9.75632
20
-3.14219
11
9.75616
21
-3.14225
0
LINE
8
BLACK
6
CONTINUOUS
10
9.75616
20
-3.14225
11
9.75241
21
-3.14225
0
LINE
8
BLACK
6
CONTINUOUS
10
9.75241
20
-3.14225
11
9.7514
21
-3.14207
0
LINE
8
BLACK
6
CONTINUOUS
10
9.7514
20
-3.14207
11
9.75103
21
-3.14176
0
LINE
8
BLACK
6
CONTINUOUS
10
9.75103
20
-3.14176
11
9.75056
21
-3.1416
0
LINE
8
BLACK
6
CONTINUOUS
10
9.75056
20
-3.1416
11
9.75028
21
-3.14113
0
LINE
8
BLACK
6
CONTINUOUS
10
9.75028
20
-3.14113
11
9.74985
21
-3.14077
0
LINE
8
BLACK
6
CONTINUOUS
10
9.74985
20
-3.14077
11
9.74977
21
-3.14029
0
LINE
8
BLACK
6
CONTINUOUS
10
9.74977
20
-3.14029
11
9.74951
21
-3.13987
0
LINE
8
BLACK
6
CONTINUOUS
10
9.74951
20
-3.13987
11
9.74624
21
-3.1235
0
LINE
8
BLACK
6
CONTINUOUS
10
9.74624
20
-3.1235
11
9.74186
21
-3.1235
0
LINE
8
BLACK
6
CONTINUOUS
10
9.74186
20
-3.1235
11
9.73961
21
-3.12462
0
LINE
8
BLACK
6
CONTINUOUS
10
9.73961
20
-3.12462
11
9.73849
21
-3.12687
0
LINE
8
BLACK
6
CONTINUOUS
10
9.73849
20
-3.12687
11
9.73849
21
-3.13297
0
LINE
8
BLACK
6
CONTINUOUS
10
9.73849
20
-3.13297
11
9.74005
21
-3.1361
0
LINE
8
BLACK
6
CONTINUOUS
10
9.74005
20
-3.1361
11
9.74034
21
-3.13708
0
LINE
8
BLACK
6
CONTINUOUS
10
9.74034
20
-3.13708
11
9.73988
21
-3.13905
0
LINE
8
BLACK
6
CONTINUOUS
10
9.73988
20
-3.13905
11
9.73825
21
-3.14025
0
LINE
8
BLACK
6
CONTINUOUS
10
9.73825
20
-3.14025
11
9.73624
21
-3.14013
0
LINE
8
BLACK
6
CONTINUOUS
10
9.73624
20
-3.14013
11
9.73477
21
-3.13874
0
LINE
8
BLACK
6
CONTINUOUS
10
9.73477
20
-3.13874
11
9.7329
21
-3.13499
0
LINE
8
BLACK
6
CONTINUOUS
10
9.7329
20
-3.13499
11
9.7326
21
-3.13401
0
LINE
8
BLACK
6
CONTINUOUS
10
9.7326
20
-3.13401
11
9.73264
21
-3.13384
0
LINE
8
BLACK
6
CONTINUOUS
10
9.73264
20
-3.13384
11
9.73258
21
-3.13367
0
LINE
8
BLACK
6
CONTINUOUS
10
9.73258
20
-3.13367
11
9.73258
21
-3.12617
0
LINE
8
BLACK
6
CONTINUOUS
10
9.73258
20
-3.12617
11
9.73276
21
-3.12516
0
LINE
8
BLACK
6
CONTINUOUS
10
9.73276
20
-3.12516
11
9.73287
21
-3.12503
0
LINE
8
BLACK
6
CONTINUOUS
10
9.73287
20
-3.12503
11
9.7329
21
-3.12485
0
LINE
8
BLACK
6
CONTINUOUS
10
9.7329
20
-3.12485
11
9.73477
21
-3.1211
0
LINE
8
BLACK
6
CONTINUOUS
10
9.73477
20
-3.1211
11
9.73538
21
-3.12028
0
LINE
8
BLACK
6
CONTINUOUS
10
9.73538
20
-3.12028
11
9.73579
21
-3.1201
0
LINE
8
BLACK
6
CONTINUOUS
10
9.73579
20
-3.1201
11
9.73609
21
-3.11978
0
LINE
8
BLACK
6
CONTINUOUS
10
9.73609
20
-3.11978
11
9.73984
21
-3.11791
0
LINE
8
BLACK
6
CONTINUOUS
10
9.73984
20
-3.11791
11
9.74082
21
-3.11761
0
LINE
8
BLACK
6
CONTINUOUS
10
9.74082
20
-3.11761
11
9.74099
21
-3.11766
0
LINE
8
BLACK
6
CONTINUOUS
10
9.74099
20
-3.11766
11
9.74116
21
-3.11759
0
LINE
8
BLACK
6
CONTINUOUS
10
9.74116
20
-3.11759
11
9.75616
21
-3.11759
0
LINE
8
BLACK
6
CONTINUOUS
10
9.75616
20
-3.11759
11
9.75717
21
-3.11777
0
LINE
8
BLACK
6
CONTINUOUS
10
9.75226
20
-3.1235
11
9.75483
21
-3.13634
0
LINE
8
BLACK
6
CONTINUOUS
10
9.75483
20
-3.13634
11
9.75546
21
-3.13634
0
LINE
8
BLACK
6
CONTINUOUS
10
9.75546
20
-3.13634
11
9.75771
21
-3.13522
0
LINE
8
BLACK
6
CONTINUOUS
10
9.75771
20
-3.13522
11
9.75883
21
-3.13297
0
LINE
8
BLACK
6
CONTINUOUS
10
9.75883
20
-3.13297
11
9.75883
21
-3.12687
0
LINE
8
BLACK
6
CONTINUOUS
10
9.75883
20
-3.12687
11
9.75771
21
-3.12462
0
LINE
8
BLACK
6
CONTINUOUS
10
9.75771
20
-3.12462
11
9.75546
21
-3.1235
0
LINE
8
BLACK
6
CONTINUOUS
10
9.75546
20
-3.1235
11
9.75226
21
-3.1235
0
LINE
8
BLACK
6
CONTINUOUS
10
9.76404
20
-3.0924
11
9.76474
21
-3.0943
0
LINE
8
BLACK
6
CONTINUOUS
10
9.76474
20
-3.0943
11
9.76474
21
-3.09697
0
LINE
8
BLACK
6
CONTINUOUS
10
9.76474
20
-3.09697
11
9.77491
21
-3.09697
0
LINE
8
BLACK
6
CONTINUOUS
10
9.77491
20
-3.09697
11
9.77592
21
-3.09715
0
LINE
8
BLACK
6
CONTINUOUS
10
9.77592
20
-3.09715
11
9.77746
21
-3.09845
0
LINE
8
BLACK
6
CONTINUOUS
10
9.77746
20
-3.09845
11
9.77781
21
-3.10044
0
LINE
8
BLACK
6
CONTINUOUS
10
9.77781
20
-3.10044
11
9.7768
21
-3.10219
0
LINE
8
BLACK
6
CONTINUOUS
10
9.7768
20
-3.10219
11
9.77491
21
-3.10288
0
LINE
8
BLACK
6
CONTINUOUS
10
9.77491
20
-3.10288
11
9.76474
21
-3.10288
0
LINE
8
BLACK
6
CONTINUOUS
10
9.76474
20
-3.10288
11
9.76474
21
-3.1093
0
LINE
8
BLACK
6
CONTINUOUS
10
9.76474
20
-3.1093
11
9.76456
21
-3.11031
0
LINE
8
BLACK
6
CONTINUOUS
10
9.76456
20
-3.11031
11
9.76326
21
-3.11186
0
LINE
8
BLACK
6
CONTINUOUS
10
9.76326
20
-3.11186
11
9.76127
21
-3.11221
0
LINE
8
BLACK
6
CONTINUOUS
10
9.76127
20
-3.11221
11
9.75952
21
-3.1112
0
LINE
8
BLACK
6
CONTINUOUS
10
9.75952
20
-3.1112
11
9.75883
21
-3.1093
0
LINE
8
BLACK
6
CONTINUOUS
10
9.75883
20
-3.1093
11
9.75883
21
-3.10288
0
LINE
8
BLACK
6
CONTINUOUS
10
9.75883
20
-3.10288
11
9.74186
21
-3.10288
0
LINE
8
BLACK
6
CONTINUOUS
10
9.74186
20
-3.10288
11
9.73961
21
-3.104
0
LINE
8
BLACK
6
CONTINUOUS
10
9.73961
20
-3.104
11
9.73849
21
-3.10625
0
LINE
8
BLACK
6
CONTINUOUS
10
9.73849
20
-3.10625
11
9.73849
21
-3.1093
0
LINE
8
BLACK
6
CONTINUOUS
10
9.73849
20
-3.1093
11
9.73831
21
-3.11031
0
LINE
8
BLACK
6
CONTINUOUS
10
9.73831
20
-3.11031
11
9.73701
21
-3.11186
0
LINE
8
BLACK
6
CONTINUOUS
10
9.73701
20
-3.11186
11
9.73502
21
-3.11221
0
LINE
8
BLACK
6
CONTINUOUS
10
9.73502
20
-3.11221
11
9.73327
21
-3.1112
0
LINE
8
BLACK
6
CONTINUOUS
10
9.73327
20
-3.1112
11
9.73258
21
-3.1093
0
LINE
8
BLACK
6
CONTINUOUS
10
9.73258
20
-3.1093
11
9.73258
21
-3.10555
0
LINE
8
BLACK
6
CONTINUOUS
10
9.73258
20
-3.10555
11
9.73276
21
-3.10454
0
LINE
8
BLACK
6
CONTINUOUS
10
9.73276
20
-3.10454
11
9.73287
21
-3.1044
0
LINE
8
BLACK
6
CONTINUOUS
10
9.73287
20
-3.1044
11
9.7329
21
-3.10423
0
LINE
8
BLACK
6
CONTINUOUS
10
9.7329
20
-3.10423
11
9.73477
21
-3.10048
0
LINE
8
BLACK
6
CONTINUOUS
10
9.73477
20
-3.10048
11
9.73538
21
-3.09966
0
LINE
8
BLACK
6
CONTINUOUS
10
9.73538
20
-3.09966
11
9.73579
21
-3.09948
0
LINE
8
BLACK
6
CONTINUOUS
10
9.73579
20
-3.09948
11
9.73609
21
-3.09916
0
LINE
8
BLACK
6
CONTINUOUS
10
9.73609
20
-3.09916
11
9.73984
21
-3.09728
0
LINE
8
BLACK
6
CONTINUOUS
10
9.73984
20
-3.09728
11
9.74082
21
-3.09699
0
LINE
8
BLACK
6
CONTINUOUS
10
9.74082
20
-3.09699
11
9.74099
21
-3.09703
0
LINE
8
BLACK
6
CONTINUOUS
10
9.74099
20
-3.09703
11
9.74116
21
-3.09697
0
LINE
8
BLACK
6
CONTINUOUS
10
9.74116
20
-3.09697
11
9.75883
21
-3.09697
0
LINE
8
BLACK
6
CONTINUOUS
10
9.75883
20
-3.09697
11
9.75883
21
-3.0943
0
LINE
8
BLACK
6
CONTINUOUS
10
9.75883
20
-3.0943
11
9.75901
21
-3.09329
0
LINE
8
BLACK
6
CONTINUOUS
10
9.75901
20
-3.09329
11
9.76031
21
-3.09174
0
LINE
8
BLACK
6
CONTINUOUS
10
9.76031
20
-3.09174
11
9.7623
21
-3.09139
0
LINE
8
BLACK
6
CONTINUOUS
10
9.7623
20
-3.09139
11
9.76404
21
-3.0924
0
LINE
8
BLACK
6
CONTINUOUS
10
9.85313
20
-3.05663
11
9.85645
21
-3.05697
0
LINE
8
BLACK
6
CONTINUOUS
10
9.85645
20
-3.05697
11
9.8616
21
-3.05948
0
LINE
8
BLACK
6
CONTINUOUS
10
9.8616
20
-3.05948
11
9.86513
21
-3.06325
0
LINE
8
BLACK
6
CONTINUOUS
10
9.86513
20
-3.06325
11
9.86659
21
-3.06613
0
LINE
8
BLACK
6
CONTINUOUS
10
9.86659
20
-3.06613
11
9.86841
21
-3.07063
0
LINE
8
BLACK
6
CONTINUOUS
10
9.86841
20
-3.07063
11
9.87022
21
-3.07581
0
LINE
8
BLACK
6
CONTINUOUS
10
9.87022
20
-3.07581
11
9.87035
21
-3.0762
0
LINE
8
BLACK
6
CONTINUOUS
10
9.87035
20
-3.0762
11
9.87198
21
-3.08112
0
LINE
8
BLACK
6
CONTINUOUS
10
9.87198
20
-3.08112
11
9.87326
21
-3.08402
0
LINE
8
BLACK
6
CONTINUOUS
10
9.87326
20
-3.08402
11
9.87456
21
-3.08542
0
LINE
8
BLACK
6
CONTINUOUS
10
9.87456
20
-3.08542
11
9.87625
21
-3.08586
0
LINE
8
BLACK
6
CONTINUOUS
10
9.87625
20
-3.08586
11
9.87721
21
-3.08589
0
LINE
8
BLACK
6
CONTINUOUS
10
9.87721
20
-3.08589
11
9.87996
21
-3.08548
0
LINE
8
BLACK
6
CONTINUOUS
10
9.87996
20
-3.08548
11
9.88093
21
-3.08379
0
LINE
8
BLACK
6
CONTINUOUS
10
9.88093
20
-3.08379
11
9.88099
21
-3.08256
0
LINE
8
BLACK
6
CONTINUOUS
10
9.88099
20
-3.08256
11
9.88041
21
-3.08
0
LINE
8
BLACK
6
CONTINUOUS
10
9.88041
20
-3.08
11
9.87814
21
-3.07892
0
LINE
8
BLACK
6
CONTINUOUS
10
9.87814
20
-3.07892
11
9.87733
21
-3.07881
0
LINE
8
BLACK
6
CONTINUOUS
10
9.87733
20
-3.07881
11
9.87546
21
-3.07848
0
LINE
8
BLACK
6
CONTINUOUS
10
9.87546
20
-3.07848
11
9.87437
21
-3.07766
0
LINE
8
BLACK
6
CONTINUOUS
10
9.87437
20
-3.07766
11
9.87385
21
-3.07576
0
LINE
8
BLACK
6
CONTINUOUS
10
9.87385
20
-3.07576
11
9.87368
21
-3.07217
0
LINE
8
BLACK
6
CONTINUOUS
10
9.87368
20
-3.07217
11
9.87367
21
-3.06849
0
LINE
8
BLACK
6
CONTINUOUS
10
9.87367
20
-3.06849
11
9.87367
21
-3.05859
0
LINE
8
BLACK
6
CONTINUOUS
10
9.87367
20
-3.05859
11
9.88084
21
-3.05859
0
LINE
8
BLACK
6
CONTINUOUS
10
9.88084
20
-3.05859
11
9.88506
21
-3.0587
0
LINE
8
BLACK
6
CONTINUOUS
10
9.88506
20
-3.0587
11
9.88748
21
-3.05933
0
LINE
8
BLACK
6
CONTINUOUS
10
9.88748
20
-3.05933
11
9.889
21
-3.06088
0
LINE
8
BLACK
6
CONTINUOUS
10
9.889
20
-3.06088
11
9.89014
21
-3.06306
0
LINE
8
BLACK
6
CONTINUOUS
10
9.89014
20
-3.06306
11
9.8927
21
-3.0702
0
LINE
8
BLACK
6
CONTINUOUS
10
9.8927
20
-3.0702
11
9.8943
21
-3.07824
0
LINE
8
BLACK
6
CONTINUOUS
10
9.8943
20
-3.07824
11
9.8947
21
-3.08585
0
LINE
8
BLACK
6
CONTINUOUS
10
9.8947
20
-3.08585
11
9.89454
21
-3.08802
0
LINE
8
BLACK
6
CONTINUOUS
10
9.89454
20
-3.08802
11
9.89335
21
-3.09362
0
LINE
8
BLACK
6
CONTINUOUS
10
9.89335
20
-3.09362
11
9.89133
21
-3.09899
0
LINE
8
BLACK
6
CONTINUOUS
10
9.89133
20
-3.09899
11
9.88884
21
-3.10332
0
LINE
8
BLACK
6
CONTINUOUS
10
9.88884
20
-3.10332
11
9.88626
21
-3.10586
0
LINE
8
BLACK
6
CONTINUOUS
10
9.88626
20
-3.10586
11
9.88604
21
-3.10597
0
LINE
8
BLACK
6
CONTINUOUS
10
9.88604
20
-3.10597
11
9.88382
21
-3.10649
0
LINE
8
BLACK
6
CONTINUOUS
10
9.88382
20
-3.10649
11
9.87956
21
-3.10706
0
LINE
8
BLACK
6
CONTINUOUS
10
9.87956
20
-3.10706
11
9.87388
21
-3.10762
0
LINE
8
BLACK
6
CONTINUOUS
10
9.87388
20
-3.10762
11
9.86768
21
-3.10808
0
LINE
8
BLACK
6
CONTINUOUS
10
9.86768
20
-3.10808
11
9.86052
21
-3.10856
0
LINE
8
BLACK
6
CONTINUOUS
10
9.86052
20
-3.10856
11
9.8535
21
-3.10909
0
LINE
8
BLACK
6
CONTINUOUS
10
9.8535
20
-3.10909
11
9.84751
21
-3.10959
0
LINE
8
BLACK
6
CONTINUOUS
10
9.84751
20
-3.10959
11
9.84404
21
-3.10993
0
LINE
8
BLACK
6
CONTINUOUS
10
9.84404
20
-3.10993
11
9.83638
21
-3.11077
0
LINE
8
BLACK
6
CONTINUOUS
10
9.83638
20
-3.11077
11
9.83638
21
-3.09932
0
LINE
8
BLACK
6
CONTINUOUS
10
9.83638
20
-3.09932
11
9.83647
21
-3.09363
0
LINE
8
BLACK
6
CONTINUOUS
10
9.83647
20
-3.09363
11
9.83677
21
-3.09013
0
LINE
8
BLACK
6
CONTINUOUS
10
9.83677
20
-3.09013
11
9.83738
21
-3.08837
0
LINE
8
BLACK
6
CONTINUOUS
10
9.83738
20
-3.08837
11
9.83837
21
-3.08788
0
LINE
8
BLACK
6
CONTINUOUS
10
9.83837
20
-3.08788
11
9.83838
21
-3.08788
0
LINE
8
BLACK
6
CONTINUOUS
10
9.83838
20
-3.08788
11
9.83977
21
-3.08783
0
LINE
8
BLACK
6
CONTINUOUS
10
9.83977
20
-3.08783
11
9.84018
21
-3.08725
0
LINE
8
BLACK
6
CONTINUOUS
10
9.84018
20
-3.08725
11
9.83955
21
-3.08554
0
LINE
8
BLACK
6
CONTINUOUS
10
9.83955
20
-3.08554
11
9.83782
21
-3.08209
0
LINE
8
BLACK
6
CONTINUOUS
10
9.83782
20
-3.08209
11
9.83772
21
-3.08189
0
LINE
8
BLACK
6
CONTINUOUS
10
9.83772
20
-3.08189
11
9.8355
21
-3.07589
0
LINE
8
BLACK
6
CONTINUOUS
10
9.8355
20
-3.07589
11
9.83549
21
-3.07033
0
LINE
8
BLACK
6
CONTINUOUS
10
9.83549
20
-3.07033
11
9.837
21
-3.06568
0
LINE
8
BLACK
6
CONTINUOUS
10
9.837
20
-3.06568
11
9.84041
21
-3.0608
0
LINE
8
BLACK
6
CONTINUOUS
10
9.84041
20
-3.0608
11
9.84521
21
-3.05768
0
LINE
8
BLACK
6
CONTINUOUS
10
9.84521
20
-3.05768
11
9.85077
21
-3.05638
0
LINE
8
BLACK
6
CONTINUOUS
10
9.85077
20
-3.05638
11
9.85313
21
-3.05663
0
LINE
8
BLACK
6
CONTINUOUS
10
9.85125
20
-3.07963
11
9.85141
21
-3.08316
0
LINE
8
BLACK
6
CONTINUOUS
10
9.85141
20
-3.08316
11
9.85184
21
-3.08445
0
LINE
8
BLACK
6
CONTINUOUS
10
9.85184
20
-3.08445
11
9.85376
21
-3.08607
0
LINE
8
BLACK
6
CONTINUOUS
10
9.85376
20
-3.08607
11
9.85659
21
-3.08655
0
LINE
8
BLACK
6
CONTINUOUS
10
9.85659
20
-3.08655
11
9.85929
21
-3.08629
0
LINE
8
BLACK
6
CONTINUOUS
10
9.85929
20
-3.08629
11
9.85998
21
-3.08511
0
LINE
8
BLACK
6
CONTINUOUS
10
9.85998
20
-3.08511
11
9.85963
21
-3.08356
0
LINE
8
BLACK
6
CONTINUOUS
10
9.85963
20
-3.08356
11
9.85776
21
-3.0797
0
LINE
8
BLACK
6
CONTINUOUS
10
9.85776
20
-3.0797
11
9.85525
21
-3.07767
0
LINE
8
BLACK
6
CONTINUOUS
10
9.85525
20
-3.07767
11
9.85313
21
-3.07767
0
LINE
8
BLACK
6
CONTINUOUS
10
9.85313
20
-3.07767
11
9.85125
21
-3.07963
0
LINE
8
BLACK
6
CONTINUOUS
10
9.74592
20
-3.05965
11
9.74606
21
-3.05977
0
LINE
8
BLACK
6
CONTINUOUS
10
9.74606
20
-3.05977
11
9.74623
21
-3.05979
0
LINE
8
BLACK
6
CONTINUOUS
10
9.74623
20
-3.05979
11
9.74998
21
-3.06166
0
LINE
8
BLACK
6
CONTINUOUS
10
9.74998
20
-3.06166
11
9.7508
21
-3.06227
0
LINE
8
BLACK
6
CONTINUOUS
10
9.7508
20
-3.06227
11
9.75098
21
-3.06268
0
LINE
8
BLACK
6
CONTINUOUS
10
9.75098
20
-3.06268
11
9.7513
21
-3.06298
0
LINE
8
BLACK
6
CONTINUOUS
10
9.7513
20
-3.06298
11
9.75318
21
-3.06673
0
LINE
8
BLACK
6
CONTINUOUS
10
9.75318
20
-3.06673
11
9.75347
21
-3.06772
0
LINE
8
BLACK
6
CONTINUOUS
10
9.75347
20
-3.06772
11
9.75343
21
-3.06789
0
LINE
8
BLACK
6
CONTINUOUS
10
9.75343
20
-3.06789
11
9.75349
21
-3.06805
0
LINE
8
BLACK
6
CONTINUOUS
10
9.75349
20
-3.06805
11
9.75349
21
-3.07673
0
LINE
8
BLACK
6
CONTINUOUS
10
9.75349
20
-3.07673
11
9.75423
21
-3.07822
0
LINE
8
BLACK
6
CONTINUOUS
10
9.75423
20
-3.07822
11
9.75546
21
-3.07822
0
LINE
8
BLACK
6
CONTINUOUS
10
9.75546
20
-3.07822
11
9.75771
21
-3.0771
0
LINE
8
BLACK
6
CONTINUOUS
10
9.75771
20
-3.0771
11
9.75883
21
-3.07486
0
LINE
8
BLACK
6
CONTINUOUS
10
9.75883
20
-3.07486
11
9.75883
21
-3.06875
0
LINE
8
BLACK
6
CONTINUOUS
10
9.75883
20
-3.06875
11
9.75727
21
-3.06562
0
LINE
8
BLACK
6
CONTINUOUS
10
9.75727
20
-3.06562
11
9.75697
21
-3.06464
0
LINE
8
BLACK
6
CONTINUOUS
10
9.75697
20
-3.06464
11
9.75744
21
-3.06268
0
LINE
8
BLACK
6
CONTINUOUS
10
9.75744
20
-3.06268
11
9.75907
21
-3.06147
0
LINE
8
BLACK
6
CONTINUOUS
10
9.75907
20
-3.06147
11
9.76108
21
-3.0616
0
LINE
8
BLACK
6
CONTINUOUS
10
9.76108
20
-3.0616
11
9.76255
21
-3.06298
0
LINE
8
BLACK
6
CONTINUOUS
10
9.76255
20
-3.06298
11
9.76442
21
-3.06673
0
LINE
8
BLACK
6
CONTINUOUS
10
9.76442
20
-3.06673
11
9.76472
21
-3.06772
0
LINE
8
BLACK
6
CONTINUOUS
10
9.76472
20
-3.06772
11
9.76468
21
-3.06789
0
LINE
8
BLACK
6
CONTINUOUS
10
9.76468
20
-3.06789
11
9.76474
21
-3.06805
0
LINE
8
BLACK
6
CONTINUOUS
10
9.76474
20
-3.06805
11
9.76474
21
-3.07555
0
LINE
8
BLACK
6
CONTINUOUS
10
9.76474
20
-3.07555
11
9.76456
21
-3.07656
0
LINE
8
BLACK
6
CONTINUOUS
10
9.76456
20
-3.07656
11
9.76444
21
-3.0767
0
LINE
8
BLACK
6
CONTINUOUS
10
9.76444
20
-3.0767
11
9.76442
21
-3.07687
0
LINE
8
BLACK
6
CONTINUOUS
10
9.76442
20
-3.07687
11
9.76255
21
-3.08062
0
LINE
8
BLACK
6
CONTINUOUS
10
9.76255
20
-3.08062
11
9.76194
21
-3.08145
0
LINE
8
BLACK
6
CONTINUOUS
10
9.76194
20
-3.08145
11
9.76153
21
-3.08162
0
LINE
8
BLACK
6
CONTINUOUS
10
9.76153
20
-3.08162
11
9.76123
21
-3.08194
0
LINE
8
BLACK
6
CONTINUOUS
10
9.76123
20
-3.08194
11
9.75748
21
-3.08382
0
LINE
8
BLACK
6
CONTINUOUS
10
9.75748
20
-3.08382
11
9.7565
21
-3.08411
0
LINE
8
BLACK
6
CONTINUOUS
10
9.7565
20
-3.08411
11
9.75632
21
-3.08407
0
LINE
8
BLACK
6
CONTINUOUS
10
9.75632
20
-3.08407
11
9.75616
21
-3.08413
0
LINE
8
BLACK
6
CONTINUOUS
10
9.75616
20
-3.08413
11
9.73554
21
-3.08413
0
LINE
8
BLACK
6
CONTINUOUS
10
9.73554
20
-3.08413
11
9.73453
21
-3.08395
0
LINE
8
BLACK
6
CONTINUOUS
10
9.73453
20
-3.08395
11
9.73298
21
-3.08265
0
LINE
8
BLACK
6
CONTINUOUS
10
9.73298
20
-3.08265
11
9.73263
21
-3.08066
0
LINE
8
BLACK
6
CONTINUOUS
10
9.73263
20
-3.08066
11
9.73328
21
-3.07953
0
LINE
8
BLACK
6
CONTINUOUS
10
9.73328
20
-3.07953
11
9.7329
21
-3.07875
0
LINE
8
BLACK
6
CONTINUOUS
10
9.7329
20
-3.07875
11
9.7326
21
-3.07777
0
LINE
8
BLACK
6
CONTINUOUS
10
9.7326
20
-3.07777
11
9.73264
21
-3.07759
0
LINE
8
BLACK
6
CONTINUOUS
10
9.73264
20
-3.07759
11
9.73258
21
-3.07743
0
LINE
8
BLACK
6
CONTINUOUS
10
9.73258
20
-3.07743
11
9.73258
21
-3.06805
0
LINE
8
BLACK
6
CONTINUOUS
10
9.73258
20
-3.06805
11
9.73276
21
-3.06704
0
LINE
8
BLACK
6
CONTINUOUS
10
9.73276
20
-3.06704
11
9.73287
21
-3.06691
0
LINE
8
BLACK
6
CONTINUOUS
10
9.73287
20
-3.06691
11
9.7329
21
-3.06673
0
LINE
8
BLACK
6
CONTINUOUS
10
9.7329
20
-3.06673
11
9.73477
21
-3.06298
0
LINE
8
BLACK
6
CONTINUOUS
10
9.73477
20
-3.06298
11
9.73538
21
-3.06216
0
LINE
8
BLACK
6
CONTINUOUS
10
9.73538
20
-3.06216
11
9.73579
21
-3.06198
0
LINE
8
BLACK
6
CONTINUOUS
10
9.73579
20
-3.06198
11
9.73609
21
-3.06166
0
LINE
8
BLACK
6
CONTINUOUS
10
9.73609
20
-3.06166
11
9.73984
21
-3.05979
0
LINE
8
BLACK
6
CONTINUOUS
10
9.73984
20
-3.05979
11
9.74082
21
-3.0595
0
LINE
8
BLACK
6
CONTINUOUS
10
9.74082
20
-3.0595
11
9.74099
21
-3.05954
0
LINE
8
BLACK
6
CONTINUOUS
10
9.74099
20
-3.05954
11
9.74116
21
-3.05948
0
LINE
8
BLACK
6
CONTINUOUS
10
9.74116
20
-3.05948
11
9.74491
21
-3.05948
0
LINE
8
BLACK
6
CONTINUOUS
10
9.74491
20
-3.05948
11
9.74592
21
-3.05965
0
LINE
8
BLACK
6
CONTINUOUS
10
9.74186
20
-3.06538
11
9.73961
21
-3.06651
0
LINE
8
BLACK
6
CONTINUOUS
10
9.73961
20
-3.06651
11
9.73849
21
-3.06875
0
LINE
8
BLACK
6
CONTINUOUS
10
9.73849
20
-3.06875
11
9.73849
21
-3.07673
0
LINE
8
BLACK
6
CONTINUOUS
10
9.73849
20
-3.07673
11
9.73924
21
-3.07822
0
LINE
8
BLACK
6
CONTINUOUS
10
9.73924
20
-3.07822
11
9.74774
21
-3.07822
0
LINE
8
BLACK
6
CONTINUOUS
10
9.74774
20
-3.07822
11
9.7476
21
-3.07777
0
LINE
8
BLACK
6
CONTINUOUS
10
9.7476
20
-3.07777
11
9.74764
21
-3.07759
0
LINE
8
BLACK
6
CONTINUOUS
10
9.74764
20
-3.07759
11
9.74758
21
-3.07743
0
LINE
8
BLACK
6
CONTINUOUS
10
9.74758
20
-3.07743
11
9.74758
21
-3.06875
0
LINE
8
BLACK
6
CONTINUOUS
10
9.74758
20
-3.06875
11
9.74646
21
-3.06651
0
LINE
8
BLACK
6
CONTINUOUS
10
9.74646
20
-3.06651
11
9.74421
21
-3.06538
0
LINE
8
BLACK
6
CONTINUOUS
10
9.74421
20
-3.06538
11
9.74186
21
-3.06538
0
LINE
8
BLACK
6
CONTINUOUS
10
9.77592
20
-3.04091
11
9.77746
21
-3.04221
0
LINE
8
BLACK
6
CONTINUOUS
10
9.77746
20
-3.04221
11
9.77781
21
-3.04419
0
LINE
8
BLACK
6
CONTINUOUS
10
9.77781
20
-3.04419
11
9.7768
21
-3.04594
0
LINE
8
BLACK
6
CONTINUOUS
10
9.7768
20
-3.04594
11
9.77491
21
-3.04663
0
LINE
8
BLACK
6
CONTINUOUS
10
9.77491
20
-3.04663
11
9.74186
21
-3.04663
0
LINE
8
BLACK
6
CONTINUOUS
10
9.74186
20
-3.04663
11
9.73961
21
-3.04776
0
LINE
8
BLACK
6
CONTINUOUS
10
9.73961
20
-3.04776
11
9.73818
21
-3.05063
0
LINE
8
BLACK
6
CONTINUOUS
10
9.73818
20
-3.05063
11
9.73757
21
-3.05145
0
LINE
8
BLACK
6
CONTINUOUS
10
9.73757
20
-3.05145
11
9.73571
21
-3.05225
0
LINE
8
BLACK
6
CONTINUOUS
10
9.73571
20
-3.05225
11
9.73378
21
-3.05168
0
LINE
8
BLACK
6
CONTINUOUS
10
9.73378
20
-3.05168
11
9.73266
21
-3.04999
0
LINE
8
BLACK
6
CONTINUOUS
10
9.73266
20
-3.04999
11
9.7329
21
-3.04799
0
LINE
8
BLACK
6
CONTINUOUS
10
9.7329
20
-3.04799
11
9.73477
21
-3.04424
0
LINE
8
BLACK
6
CONTINUOUS
10
9.73477
20
-3.04424
11
9.73538
21
-3.04341
0
LINE
8
BLACK
6
CONTINUOUS
10
9.73538
20
-3.04341
11
9.73579
21
-3.04324
0
LINE
8
BLACK
6
CONTINUOUS
10
9.73579
20
-3.04324
11
9.73609
21
-3.04292
0
LINE
8
BLACK
6
CONTINUOUS
10
9.73609
20
-3.04292
11
9.73984
21
-3.04104
0
LINE
8
BLACK
6
CONTINUOUS
10
9.73984
20
-3.04104
11
9.74082
21
-3.04075
0
LINE
8
BLACK
6
CONTINUOUS
10
9.74082
20
-3.04075
11
9.74099
21
-3.04079
0
LINE
8
BLACK
6
CONTINUOUS
10
9.74099
20
-3.04079
11
9.74116
21
-3.04073
0
LINE
8
BLACK
6
CONTINUOUS
10
9.74116
20
-3.04073
11
9.77491
21
-3.04073
0
LINE
8
BLACK
6
CONTINUOUS
10
9.77491
20
-3.04073
11
9.77592
21
-3.04091
0
LINE
8
BLACK
6
CONTINUOUS
10
9.89078
20
-3.02021
11
9.89319
21
-3.02083
0
LINE
8
BLACK
6
CONTINUOUS
10
9.89319
20
-3.02083
11
9.89364
21
-3.0213
0
LINE
8
BLACK
6
CONTINUOUS
10
9.89364
20
-3.0213
11
9.89483
21
-3.02211
0
LINE
8
BLACK
6
CONTINUOUS
10
9.89483
20
-3.02211
11
9.89782
21
-3.02259
0
LINE
8
BLACK
6
CONTINUOUS
10
9.89782
20
-3.02259
11
9.89939
21
-3.02264
0
LINE
8
BLACK
6
CONTINUOUS
10
9.89939
20
-3.02264
11
9.90514
21
-3.02264
0
LINE
8
BLACK
6
CONTINUOUS
10
9.90514
20
-3.02264
11
9.9074
21
-3.03229
0
LINE
8
BLACK
6
CONTINUOUS
10
9.9074
20
-3.03229
11
9.90849
21
-3.03709
0
LINE
8
BLACK
6
CONTINUOUS
10
9.90849
20
-3.03709
11
9.90928
21
-3.04085
0
LINE
8
BLACK
6
CONTINUOUS
10
9.90928
20
-3.04085
11
9.90963
21
-3.04285
0
LINE
8
BLACK
6
CONTINUOUS
10
9.90963
20
-3.04285
11
9.90964
21
-3.04294
0
LINE
8
BLACK
6
CONTINUOUS
10
9.90964
20
-3.04294
11
9.90842
21
-3.04347
0
LINE
8
BLACK
6
CONTINUOUS
10
9.90842
20
-3.04347
11
9.90527
21
-3.04383
0
LINE
8
BLACK
6
CONTINUOUS
10
9.90527
20
-3.04383
11
9.90163
21
-3.04394
0
LINE
8
BLACK
6
CONTINUOUS
10
9.90163
20
-3.04394
11
9.89364
21
-3.04394
0
LINE
8
BLACK
6
CONTINUOUS
10
9.89364
20
-3.04394
11
9.89364
21
-3.04794
0
LINE
8
BLACK
6
CONTINUOUS
10
9.89364
20
-3.04794
11
9.8935
21
-3.0503
0
LINE
8
BLACK
6
CONTINUOUS
10
9.8935
20
-3.0503
11
9.8926
21
-3.05148
0
LINE
8
BLACK
6
CONTINUOUS
10
9.8926
20
-3.05148
11
9.89027
21
-3.05189
0
LINE
8
BLACK
6
CONTINUOUS
10
9.89027
20
-3.05189
11
9.88698
21
-3.05193
0
LINE
8
BLACK
6
CONTINUOUS
10
9.88698
20
-3.05193
11
9.88304
21
-3.05184
0
LINE
8
BLACK
6
CONTINUOUS
10
9.88304
20
-3.05184
11
9.88108
21
-3.05131
0
LINE
8
BLACK
6
CONTINUOUS
10
9.88108
20
-3.05131
11
9.8804
21
-3.04991
0
LINE
8
BLACK
6
CONTINUOUS
10
9.8804
20
-3.04991
11
9.88033
21
-3.04794
0
LINE
8
BLACK
6
CONTINUOUS
10
9.88033
20
-3.04794
11
9.88033
21
-3.04394
0
LINE
8
BLACK
6
CONTINUOUS
10
9.88033
20
-3.04394
11
9.86797
21
-3.04394
0
LINE
8
BLACK
6
CONTINUOUS
10
9.86797
20
-3.04394
11
9.85991
21
-3.04428
0
LINE
8
BLACK
6
CONTINUOUS
10
9.85991
20
-3.04428
11
9.85427
21
-3.04532
0
LINE
8
BLACK
6
CONTINUOUS
10
9.85427
20
-3.04532
11
9.85092
21
-3.04711
0
LINE
8
BLACK
6
CONTINUOUS
10
9.85092
20
-3.04711
11
9.84971
21
-3.04971
0
LINE
8
BLACK
6
CONTINUOUS
10
9.84971
20
-3.04971
11
9.8497
21
-3.05001
0
LINE
8
BLACK
6
CONTINUOUS
10
9.8497
20
-3.05001
11
9.8488
21
-3.05131
0
LINE
8
BLACK
6
CONTINUOUS
10
9.8488
20
-3.05131
11
9.84585
21
-3.05188
0
LINE
8
BLACK
6
CONTINUOUS
10
9.84585
20
-3.05188
11
9.84386
21
-3.05193
0
LINE
8
BLACK
6
CONTINUOUS
10
9.84386
20
-3.05193
11
9.84008
21
-3.05171
0
LINE
8
BLACK
6
CONTINUOUS
10
9.84008
20
-3.05171
11
9.83813
21
-3.05081
0
LINE
8
BLACK
6
CONTINUOUS
10
9.83813
20
-3.05081
11
9.83722
21
-3.04893
0
LINE
8
BLACK
6
CONTINUOUS
10
9.83722
20
-3.04893
11
9.83663
21
-3.04487
0
LINE
8
BLACK
6
CONTINUOUS
10
9.83663
20
-3.04487
11
9.83652
21
-3.03977
0
LINE
8
BLACK
6
CONTINUOUS
10
9.83652
20
-3.03977
11
9.83686
21
-3.03485
0
LINE
8
BLACK
6
CONTINUOUS
10
9.83686
20
-3.03485
11
9.83763
21
-3.03133
0
LINE
8
BLACK
6
CONTINUOUS
10
9.83763
20
-3.03133
11
9.83764
21
-3.03129
0
LINE
8
BLACK
6
CONTINUOUS
10
9.83764
20
-3.03129
11
9.83945
21
-3.02841
0
LINE
8
BLACK
6
CONTINUOUS
10
9.83945
20
-3.02841
11
9.84169
21
-3.02597
0
LINE
8
BLACK
6
CONTINUOUS
10
9.84169
20
-3.02597
11
9.84322
21
-3.02486
0
LINE
8
BLACK
6
CONTINUOUS
10
9.84322
20
-3.02486
11
9.84524
21
-3.02408
0
LINE
8
BLACK
6
CONTINUOUS
10
9.84524
20
-3.02408
11
9.84826
21
-3.02354
0
LINE
8
BLACK
6
CONTINUOUS
10
9.84826
20
-3.02354
11
9.85277
21
-3.02319
0
LINE
8
BLACK
6
CONTINUOUS
10
9.85277
20
-3.02319
11
9.85925
21
-3.02293
0
LINE
8
BLACK
6
CONTINUOUS
10
9.85925
20
-3.02293
11
9.86249
21
-3.02284
0
LINE
8
BLACK
6
CONTINUOUS
10
9.86249
20
-3.02284
11
9.86903
21
-3.02258
0
LINE
8
BLACK
6
CONTINUOUS
10
9.86903
20
-3.02258
11
9.8745
21
-3.02221
0
LINE
8
BLACK
6
CONTINUOUS
10
9.8745
20
-3.02221
11
9.8784
21
-3.02177
0
LINE
8
BLACK
6
CONTINUOUS
10
9.8784
20
-3.02177
11
9.88024
21
-3.02129
0
LINE
8
BLACK
6
CONTINUOUS
10
9.88024
20
-3.02129
11
9.88033
21
-3.02117
0
LINE
8
BLACK
6
CONTINUOUS
10
9.88033
20
-3.02117
11
9.88152
21
-3.02049
0
LINE
8
BLACK
6
CONTINUOUS
10
9.88152
20
-3.02049
11
9.88459
21
-3.02005
0
LINE
8
BLACK
6
CONTINUOUS
10
9.88459
20
-3.02005
11
9.88698
21
-3.01997
0
LINE
8
BLACK
6
CONTINUOUS
10
9.88698
20
-3.01997
11
9.89078
21
-3.02021
0
LINE
8
BLACK
6
CONTINUOUS
10
9.76279
20
-3.00529
11
9.76434
21
-3.00659
0
LINE
8
BLACK
6
CONTINUOUS
10
9.76434
20
-3.00659
11
9.76469
21
-3.00857
0
LINE
8
BLACK
6
CONTINUOUS
10
9.76469
20
-3.00857
11
9.76403
21
-3.00971
0
LINE
8
BLACK
6
CONTINUOUS
10
9.76403
20
-3.00971
11
9.76442
21
-3.01049
0
LINE
8
BLACK
6
CONTINUOUS
10
9.76442
20
-3.01049
11
9.76472
21
-3.01147
0
LINE
8
BLACK
6
CONTINUOUS
10
9.76472
20
-3.01147
11
9.76468
21
-3.01165
0
LINE
8
BLACK
6
CONTINUOUS
10
9.76468
20
-3.01165
11
9.76474
21
-3.01181
0
LINE
8
BLACK
6
CONTINUOUS
10
9.76474
20
-3.01181
11
9.76474
21
-3.01931
0
LINE
8
BLACK
6
CONTINUOUS
10
9.76474
20
-3.01931
11
9.76456
21
-3.02032
0
LINE
8
BLACK
6
CONTINUOUS
10
9.76456
20
-3.02032
11
9.76444
21
-3.02046
0
LINE
8
BLACK
6
CONTINUOUS
10
9.76444
20
-3.02046
11
9.76442
21
-3.02063
0
LINE
8
BLACK
6
CONTINUOUS
10
9.76442
20
-3.02063
11
9.76255
21
-3.02438
0
LINE
8
BLACK
6
CONTINUOUS
10
9.76255
20
-3.02438
11
9.76202
21
-3.02509
0
LINE
8
BLACK
6
CONTINUOUS
10
9.76202
20
-3.02509
11
9.762
21
-3.02515
0
LINE
8
BLACK
6
CONTINUOUS
10
9.762
20
-3.02515
11
9.76012
21
-3.02702
0
LINE
8
BLACK
6
CONTINUOUS
10
9.76012
20
-3.02702
11
9.7594
21
-3.02753
0
LINE
8
BLACK
6
CONTINUOUS
10
9.7594
20
-3.02753
11
9.75935
21
-3.02758
0
LINE
8
BLACK
6
CONTINUOUS
10
9.75935
20
-3.02758
11
9.7556
21
-3.02945
0
LINE
8
BLACK
6
CONTINUOUS
10
9.7556
20
-3.02945
11
9.75462
21
-3.02974
0
LINE
8
BLACK
6
CONTINUOUS
10
9.75462
20
-3.02974
11
9.75445
21
-3.0297
0
LINE
8
BLACK
6
CONTINUOUS
10
9.75445
20
-3.0297
11
9.75428
21
-3.02976
0
LINE
8
BLACK
6
CONTINUOUS
10
9.75428
20
-3.02976
11
9.74304
21
-3.02976
0
LINE
8
BLACK
6
CONTINUOUS
10
9.74304
20
-3.02976
11
9.74203
21
-3.02958
0
LINE
8
BLACK
6
CONTINUOUS
10
9.74203
20
-3.02958
11
9.74189
21
-3.02947
0
LINE
8
BLACK
6
CONTINUOUS
10
9.74189
20
-3.02947
11
9.74171
21
-3.02945
0
LINE
8
BLACK
6
CONTINUOUS
10
9.74171
20
-3.02945
11
9.73797
21
-3.02758
0
LINE
8
BLACK
6
CONTINUOUS
10
9.73797
20
-3.02758
11
9.73726
21
-3.02705
0
LINE
8
BLACK
6
CONTINUOUS
10
9.73726
20
-3.02705
11
9.7372
21
-3.02702
0
LINE
8
BLACK
6
CONTINUOUS
10
9.7372
20
-3.02702
11
9.73532
21
-3.02515
0
LINE
8
BLACK
6
CONTINUOUS
10
9.73532
20
-3.02515
11
9.73482
21
-3.02442
0
LINE
8
BLACK
6
CONTINUOUS
10
9.73482
20
-3.02442
11
9.73477
21
-3.02438
0
LINE
8
BLACK
6
CONTINUOUS
10
9.73477
20
-3.02438
11
9.7329
21
-3.02063
0
LINE
8
BLACK
6
CONTINUOUS
10
9.7329
20
-3.02063
11
9.7326
21
-3.01965
0
LINE
8
BLACK
6
CONTINUOUS
10
9.7326
20
-3.01965
11
9.73264
21
-3.01948
0
LINE
8
BLACK
6
CONTINUOUS
10
9.73264
20
-3.01948
11
9.73258
21
-3.01931
0
LINE
8
BLACK
6
CONTINUOUS
10
9.73258
20
-3.01931
11
9.73258
21
-3.01181
0
LINE
8
BLACK
6
CONTINUOUS
10
9.73258
20
-3.01181
11
9.73272
21
-3.01101
0
LINE
8
BLACK
6
CONTINUOUS
10
9.73272
20
-3.01101
11
9.72241
21
-3.01101
0
LINE
8
BLACK
6
CONTINUOUS
10
9.72241
20
-3.01101
11
9.7214
21
-3.01084
0
LINE
8
BLACK
6
CONTINUOUS
10
9.7214
20
-3.01084
11
9.71986
21
-3.00954
0
LINE
8
BLACK
6
CONTINUOUS
10
9.71986
20
-3.00954
11
9.7195
21
-3.00755
0
LINE
8
BLACK
6
CONTINUOUS
10
9.7195
20
-3.00755
11
9.72051
21
-3.0058
0
LINE
8
BLACK
6
CONTINUOUS
10
9.72051
20
-3.0058
11
9.72241
21
-3.00511
0
LINE
8
BLACK
6
CONTINUOUS
10
9.72241
20
-3.00511
11
9.76178
21
-3.00511
0
LINE
8
BLACK
6
CONTINUOUS
10
9.76178
20
-3.00511
11
9.76279
21
-3.00529
0
LINE
8
BLACK
6
CONTINUOUS
10
9.73924
20
-3.01101
11
9.73849
21
-3.01251
0
LINE
8
BLACK
6
CONTINUOUS
10
9.73849
20
-3.01251
11
9.73849
21
-3.01861
0
LINE
8
BLACK
6
CONTINUOUS
10
9.73849
20
-3.01861
11
9.73984
21
-3.02131
0
LINE
8
BLACK
6
CONTINUOUS
10
9.73984
20
-3.02131
11
9.74103
21
-3.02251
0
LINE
8
BLACK
6
CONTINUOUS
10
9.74103
20
-3.02251
11
9.74373
21
-3.02386
0
LINE
8
BLACK
6
CONTINUOUS
10
9.74373
20
-3.02386
11
9.75359
21
-3.02386
0
LINE
8
BLACK
6
CONTINUOUS
10
9.75359
20
-3.02386
11
9.75628
21
-3.02251
0
LINE
8
BLACK
6
CONTINUOUS
10
9.75628
20
-3.02251
11
9.75748
21
-3.02131
0
LINE
8
BLACK
6
CONTINUOUS
10
9.75748
20
-3.02131
11
9.75883
21
-3.01861
0
LINE
8
BLACK
6
CONTINUOUS
10
9.75883
20
-3.01861
11
9.75883
21
-3.01251
0
LINE
8
BLACK
6
CONTINUOUS
10
9.75883
20
-3.01251
11
9.75808
21
-3.01101
0
LINE
8
BLACK
6
CONTINUOUS
10
9.75808
20
-3.01101
11
9.73924
21
-3.01101
0
LINE
8
BLACK
6
CONTINUOUS
10
9.84694
20
-2.99093
11
9.8497
21
-2.99156
0
LINE
8
BLACK
6
CONTINUOUS
10
9.8497
20
-2.99156
11
9.85037
21
-2.99201
0
LINE
8
BLACK
6
CONTINUOUS
10
9.85037
20
-2.99201
11
9.85198
21
-2.9925
0
LINE
8
BLACK
6
CONTINUOUS
10
9.85198
20
-2.9925
11
9.85597
21
-2.99289
0
LINE
8
BLACK
6
CONTINUOUS
10
9.85597
20
-2.99289
11
9.86206
21
-2.99317
0
LINE
8
BLACK
6
CONTINUOUS
10
9.86206
20
-2.99317
11
9.86995
21
-2.99332
0
LINE
8
BLACK
6
CONTINUOUS
10
9.86995
20
-2.99332
11
9.875
21
-2.99334
0
LINE
8
BLACK
6
CONTINUOUS
10
9.875
20
-2.99334
11
9.88378
21
-2.99327
0
LINE
8
BLACK
6
CONTINUOUS
10
9.88378
20
-2.99327
11
9.8909
21
-2.99306
0
LINE
8
BLACK
6
CONTINUOUS
10
9.8909
20
-2.99306
11
9.89609
21
-2.99273
0
LINE
8
BLACK
6
CONTINUOUS
10
9.89609
20
-2.99273
11
9.89905
21
-2.99229
0
LINE
8
BLACK
6
CONTINUOUS
10
9.89905
20
-2.99229
11
9.89963
21
-2.99201
0
LINE
8
BLACK
6
CONTINUOUS
10
9.89963
20
-2.99201
11
9.90134
21
-2.99124
0
LINE
8
BLACK
6
CONTINUOUS
10
9.90134
20
-2.99124
11
9.90477
21
-2.99076
0
LINE
8
BLACK
6
CONTINUOUS
10
9.90477
20
-2.99076
11
9.90704
21
-2.99068
0
LINE
8
BLACK
6
CONTINUOUS
10
9.90704
20
-2.99068
11
9.91362
21
-2.99068
0
LINE
8
BLACK
6
CONTINUOUS
10
9.91362
20
-2.99068
11
9.91362
21
-3.00191
0
LINE
8
BLACK
6
CONTINUOUS
10
9.91362
20
-3.00191
11
9.91362
21
-3.01314
0
LINE
8
BLACK
6
CONTINUOUS
10
9.91362
20
-3.01314
11
9.88305
21
-3.01356
0
LINE
8
BLACK
6
CONTINUOUS
10
9.88305
20
-3.01356
11
9.87222
21
-3.01375
0
LINE
8
BLACK
6
CONTINUOUS
10
9.87222
20
-3.01375
11
9.86384
21
-3.01402
0
LINE
8
BLACK
6
CONTINUOUS
10
9.86384
20
-3.01402
11
9.85771
21
-3.01436
0
LINE
8
BLACK
6
CONTINUOUS
10
9.85771
20
-3.01436
11
9.85361
21
-3.0148
0
LINE
8
BLACK
6
CONTINUOUS
10
9.85361
20
-3.0148
11
9.85134
21
-3.01534
0
LINE
8
BLACK
6
CONTINUOUS
10
9.85134
20
-3.01534
11
9.85083
21
-3.01565
0
LINE
8
BLACK
6
CONTINUOUS
10
9.85083
20
-3.01565
11
9.84858
21
-3.01664
0
LINE
8
BLACK
6
CONTINUOUS
10
9.84858
20
-3.01664
11
9.84479
21
-3.01723
0
LINE
8
BLACK
6
CONTINUOUS
10
9.84479
20
-3.01723
11
9.84278
21
-3.01731
0
LINE
8
BLACK
6
CONTINUOUS
10
9.84278
20
-3.01731
11
9.83638
21
-3.01731
0
LINE
8
BLACK
6
CONTINUOUS
10
9.83638
20
-3.01731
11
9.83638
21
-3.00399
0
LINE
8
BLACK
6
CONTINUOUS
10
9.83638
20
-3.00399
11
9.83638
21
-2.99068
0
LINE
8
BLACK
6
CONTINUOUS
10
9.83638
20
-2.99068
11
9.84296
21
-2.99068
0
LINE
8
BLACK
6
CONTINUOUS
10
9.84296
20
-2.99068
11
9.84694
21
-2.99093
0
LINE
8
BLACK
6
CONTINUOUS
10
9.89364
20
-2.93927
11
9.89354
21
-2.945
0
LINE
8
BLACK
6
CONTINUOUS
10
9.89354
20
-2.945
11
9.89319
21
-2.94858
0
LINE
8
BLACK
6
CONTINUOUS
10
9.89319
20
-2.94858
11
9.89248
21
-2.95051
0
LINE
8
BLACK
6
CONTINUOUS
10
9.89248
20
-2.95051
11
9.89154
21
-2.95126
0
LINE
8
BLACK
6
CONTINUOUS
10
9.89154
20
-2.95126
11
9.88943
21
-2.95157
0
LINE
8
BLACK
6
CONTINUOUS
10
9.88943
20
-2.95157
11
9.88527
21
-2.95183
0
LINE
8
BLACK
6
CONTINUOUS
10
9.88527
20
-2.95183
11
9.87966
21
-2.95201
0
LINE
8
BLACK
6
CONTINUOUS
10
9.87966
20
-2.95201
11
9.87323
21
-2.95208
0
LINE
8
BLACK
6
CONTINUOUS
10
9.87323
20
-2.95208
11
9.865
21
-2.95215
0
LINE
8
BLACK
6
CONTINUOUS
10
9.865
20
-2.95215
11
9.85908
21
-2.95237
0
LINE
8
BLACK
6
CONTINUOUS
10
9.85908
20
-2.95237
11
9.85509
21
-2.95283
0
LINE
8
BLACK
6
CONTINUOUS
10
9.85509
20
-2.95283
11
9.85266
21
-2.95361
0
LINE
8
BLACK
6
CONTINUOUS
10
9.85266
20
-2.95361
11
9.85143
21
-2.95479
0
LINE
8
BLACK
6
CONTINUOUS
10
9.85143
20
-2.95479
11
9.85104
21
-2.95645
0
LINE
8
BLACK
6
CONTINUOUS
10
9.85104
20
-2.95645
11
9.85103
21
-2.95688
0
LINE
8
BLACK
6
CONTINUOUS
10
9.85103
20
-2.95688
11
9.85113
21
-2.9583
0
LINE
8
BLACK
6
CONTINUOUS
10
9.85113
20
-2.9583
11
9.85172
21
-2.95921
0
LINE
8
BLACK
6
CONTINUOUS
10
9.85172
20
-2.95921
11
9.8533
21
-2.95974
0
LINE
8
BLACK
6
CONTINUOUS
10
9.8533
20
-2.95974
11
9.85633
21
-2.95998
0
LINE
8
BLACK
6
CONTINUOUS
10
9.85633
20
-2.95998
11
9.86129
21
-2.96005
0
LINE
8
BLACK
6
CONTINUOUS
10
9.86129
20
-2.96005
11
9.86493
21
-2.96005
0
LINE
8
BLACK
6
CONTINUOUS
10
9.86493
20
-2.96005
11
9.87094
21
-2.95993
0
LINE
8
BLACK
6
CONTINUOUS
10
9.87094
20
-2.95993
11
9.87576
21
-2.9596
0
LINE
8
BLACK
6
CONTINUOUS
10
9.87576
20
-2.9596
11
9.87884
21
-2.95911
0
LINE
8
BLACK
6
CONTINUOUS
10
9.87884
20
-2.95911
11
9.87966
21
-2.95872
0
LINE
8
BLACK
6
CONTINUOUS
10
9.87966
20
-2.95872
11
9.88137
21
-2.95795
0
LINE
8
BLACK
6
CONTINUOUS
10
9.88137
20
-2.95795
11
9.88479
21
-2.95747
0
LINE
8
BLACK
6
CONTINUOUS
10
9.88479
20
-2.95747
11
9.88706
21
-2.95739
0
LINE
8
BLACK
6
CONTINUOUS
10
9.88706
20
-2.95739
11
9.89364
21
-2.95739
0
LINE
8
BLACK
6
CONTINUOUS
10
9.89364
20
-2.95739
11
9.89364
21
-2.96931
0
LINE
8
BLACK
6
CONTINUOUS
10
9.89364
20
-2.96931
11
9.89364
21
-2.98123
0
LINE
8
BLACK
6
CONTINUOUS
10
9.89364
20
-2.98123
11
9.87267
21
-2.98187
0
LINE
8
BLACK
6
CONTINUOUS
10
9.87267
20
-2.98187
11
9.86475
21
-2.98215
0
LINE
8
BLACK
6
CONTINUOUS
10
9.86475
20
-2.98215
11
9.85711
21
-2.9825
0
LINE
8
BLACK
6
CONTINUOUS
10
9.85711
20
-2.9825
11
9.85046
21
-2.98287
0
LINE
8
BLACK
6
CONTINUOUS
10
9.85046
20
-2.98287
11
9.84547
21
-2.98324
0
LINE
8
BLACK
6
CONTINUOUS
10
9.84547
20
-2.98324
11
9.84404
21
-2.98338
0
LINE
8
BLACK
6
CONTINUOUS
10
9.84404
20
-2.98338
11
9.83638
21
-2.98427
0
LINE
8
BLACK
6
CONTINUOUS
10
9.83638
20
-2.98427
11
9.83638
21
-2.97216
0
LINE
8
BLACK
6
CONTINUOUS
10
9.83638
20
-2.97216
11
9.83652
21
-2.96657
0
LINE
8
BLACK
6
CONTINUOUS
10
9.83652
20
-2.96657
11
9.83688
21
-2.96243
0
LINE
8
BLACK
6
CONTINUOUS
10
9.83688
20
-2.96243
11
9.83743
21
-2.96026
0
LINE
8
BLACK
6
CONTINUOUS
10
9.83743
20
-2.96026
11
9.83768
21
-2.96005
0
LINE
8
BLACK
6
CONTINUOUS
10
9.83768
20
-2.96005
11
9.83831
21
-2.95899
0
LINE
8
BLACK
6
CONTINUOUS
10
9.83831
20
-2.95899
11
9.83768
21
-2.95664
0
LINE
8
BLACK
6
CONTINUOUS
10
9.83768
20
-2.95664
11
9.83677
21
-2.95233
0
LINE
8
BLACK
6
CONTINUOUS
10
9.83677
20
-2.95233
11
9.83651
21
-2.9468
0
LINE
8
BLACK
6
CONTINUOUS
10
9.83651
20
-2.9468
11
9.8369
21
-2.94137
0
LINE
8
BLACK
6
CONTINUOUS
10
9.8369
20
-2.94137
11
9.83778
21
-2.93769
0
LINE
8
BLACK
6
CONTINUOUS
10
9.83778
20
-2.93769
11
9.83973
21
-2.93492
0
LINE
8
BLACK
6
CONTINUOUS
10
9.83973
20
-2.93492
11
9.8432
21
-2.93292
0
LINE
8
BLACK
6
CONTINUOUS
10
9.8432
20
-2.93292
11
9.84849
21
-2.93161
0
LINE
8
BLACK
6
CONTINUOUS
10
9.84849
20
-2.93161
11
9.85588
21
-2.93092
0
LINE
8
BLACK
6
CONTINUOUS
10
9.85588
20
-2.93092
11
9.86356
21
-2.93076
0
LINE
8
BLACK
6
CONTINUOUS
10
9.86356
20
-2.93076
11
9.86999
21
-2.93065
0
LINE
8
BLACK
6
CONTINUOUS
10
9.86999
20
-2.93065
11
9.87516
21
-2.93034
0
LINE
8
BLACK
6
CONTINUOUS
10
9.87516
20
-2.93034
11
9.87855
21
-2.92988
0
LINE
8
BLACK
6
CONTINUOUS
10
9.87855
20
-2.92988
11
9.87966
21
-2.92943
0
LINE
8
BLACK
6
CONTINUOUS
10
9.87966
20
-2.92943
11
9.88137
21
-2.92865
0
LINE
8
BLACK
6
CONTINUOUS
10
9.88137
20
-2.92865
11
9.88479
21
-2.92817
0
LINE
8
BLACK
6
CONTINUOUS
10
9.88479
20
-2.92817
11
9.88706
21
-2.9281
0
LINE
8
BLACK
6
CONTINUOUS
10
9.88706
20
-2.9281
11
9.89364
21
-2.9281
0
LINE
8
BLACK
6
CONTINUOUS
10
9.89364
20
-2.9281
11
9.89364
21
-2.93927
0
LINE
8
BLACK
6
CONTINUOUS
10
9.77592
20
-2.93667
11
9.77622
21
-2.93692
0
LINE
8
BLACK
6
CONTINUOUS
10
9.77622
20
-2.93692
11
9.7766
21
-2.93703
0
LINE
8
BLACK
6
CONTINUOUS
10
9.7766
20
-2.93703
11
9.77697
21
-2.93755
0
LINE
8
BLACK
6
CONTINUOUS
10
9.77697
20
-2.93755
11
9.77746
21
-2.93797
0
LINE
8
BLACK
6
CONTINUOUS
10
9.77746
20
-2.93797
11
9.77753
21
-2.93836
0
LINE
8
BLACK
6
CONTINUOUS
10
9.77753
20
-2.93836
11
9.77776
21
-2.93868
0
LINE
8
BLACK
6
CONTINUOUS
10
9.77776
20
-2.93868
11
9.7777
21
-2.93932
0
LINE
8
BLACK
6
CONTINUOUS
10
9.7777
20
-2.93932
11
9.77781
21
-2.93996
0
LINE
8
BLACK
6
CONTINUOUS
10
9.77781
20
-2.93996
11
9.77762
21
-2.9403
0
LINE
8
BLACK
6
CONTINUOUS
10
9.77762
20
-2.9403
11
9.77758
21
-2.94069
0
LINE
8
BLACK
6
CONTINUOUS
10
9.77758
20
-2.94069
11
9.77713
21
-2.94115
0
LINE
8
BLACK
6
CONTINUOUS
10
9.77713
20
-2.94115
11
9.7768
21
-2.94171
0
LINE
8
BLACK
6
CONTINUOUS
10
9.7768
20
-2.94171
11
9.77643
21
-2.94184
0
LINE
8
BLACK
6
CONTINUOUS
10
9.77643
20
-2.94184
11
9.77615
21
-2.94212
0
LINE
8
BLACK
6
CONTINUOUS
10
9.77615
20
-2.94212
11
9.75377
21
-2.95257
0
LINE
8
BLACK
6
CONTINUOUS
10
9.75377
20
-2.95257
11
9.77615
21
-2.96302
0
LINE
8
BLACK
6
CONTINUOUS
10
9.77615
20
-2.96302
11
9.77699
21
-2.9636
0
LINE
8
BLACK
6
CONTINUOUS
10
9.77699
20
-2.9636
11
9.77716
21
-2.96396
0
LINE
8
BLACK
6
CONTINUOUS
10
9.77716
20
-2.96396
11
9.77746
21
-2.96422
0
LINE
8
BLACK
6
CONTINUOUS
10
9.77746
20
-2.96422
11
9.77758
21
-2.96485
0
LINE
8
BLACK
6
CONTINUOUS
10
9.77758
20
-2.96485
11
9.77785
21
-2.96544
0
LINE
8
BLACK
6
CONTINUOUS
10
9.77785
20
-2.96544
11
9.77775
21
-2.96582
0
LINE
8
BLACK
6
CONTINUOUS
10
9.77775
20
-2.96582
11
9.77781
21
-2.9662
0
LINE
8
BLACK
6
CONTINUOUS
10
9.77781
20
-2.9662
11
9.77749
21
-2.96676
0
LINE
8
BLACK
6
CONTINUOUS
10
9.77749
20
-2.96676
11
9.77732
21
-2.96739
0
LINE
8
BLACK
6
CONTINUOUS
10
9.77732
20
-2.96739
11
9.777
21
-2.96761
0
LINE
8
BLACK
6
CONTINUOUS
10
9.777
20
-2.96761
11
9.7768
21
-2.96795
0
LINE
8
BLACK
6
CONTINUOUS
10
9.7768
20
-2.96795
11
9.7762
21
-2.96817
0
LINE
8
BLACK
6
CONTINUOUS
10
9.7762
20
-2.96817
11
9.77567
21
-2.96854
0
LINE
8
BLACK
6
CONTINUOUS
10
9.77567
20
-2.96854
11
9.77528
21
-2.96851
0
LINE
8
BLACK
6
CONTINUOUS
10
9.77528
20
-2.96851
11
9.77491
21
-2.96864
0
LINE
8
BLACK
6
CONTINUOUS
10
9.77491
20
-2.96864
11
9.73554
21
-2.96864
0
LINE
8
BLACK
6
CONTINUOUS
10
9.73554
20
-2.96864
11
9.73453
21
-2.96847
0
LINE
8
BLACK
6
CONTINUOUS
10
9.73453
20
-2.96847
11
9.73298
21
-2.96717
0
LINE
8
BLACK
6
CONTINUOUS
10
9.73298
20
-2.96717
11
9.73263
21
-2.96518
0
LINE
8
BLACK
6
CONTINUOUS
10
9.73263
20
-2.96518
11
9.73364
21
-2.96343
0
LINE
8
BLACK
6
CONTINUOUS
10
9.73364
20
-2.96343
11
9.73554
21
-2.96274
0
LINE
8
BLACK
6
CONTINUOUS
10
9.73554
20
-2.96274
11
9.7616
21
-2.96274
0
LINE
8
BLACK
6
CONTINUOUS
10
9.7616
20
-2.96274
11
9.74554
21
-2.95524
0
LINE
8
BLACK
6
CONTINUOUS
10
9.74554
20
-2.95524
11
9.74522
21
-2.95502
0
LINE
8
BLACK
6
CONTINUOUS
10
9.74522
20
-2.95502
11
9.74509
21
-2.95499
0
LINE
8
BLACK
6
CONTINUOUS
10
9.74509
20
-2.95499
11
9.74502
21
-2.95488
0
LINE
8
BLACK
6
CONTINUOUS
10
9.74502
20
-2.95488
11
9.7447
21
-2.95466
0
LINE
8
BLACK
6
CONTINUOUS
10
9.7447
20
-2.95466
11
9.74437
21
-2.95396
0
LINE
8
BLACK
6
CONTINUOUS
10
9.74437
20
-2.95396
11
9.74393
21
-2.95333
0
LINE
8
BLACK
6
CONTINUOUS
10
9.74393
20
-2.95333
11
9.74396
21
-2.95307
0
LINE
8
BLACK
6
CONTINUOUS
10
9.74396
20
-2.95307
11
9.74384
21
-2.95282
0
LINE
8
BLACK
6
CONTINUOUS
10
9.74384
20
-2.95282
11
9.74404
21
-2.95208
0
LINE
8
BLACK
6
CONTINUOUS
10
9.74404
20
-2.95208
11
9.74411
21
-2.95132
0
LINE
8
BLACK
6
CONTINUOUS
10
9.74411
20
-2.95132
11
9.7443
21
-2.95113
0
LINE
8
BLACK
6
CONTINUOUS
10
9.7443
20
-2.95113
11
9.74437
21
-2.95087
0
LINE
8
BLACK
6
CONTINUOUS
10
9.74437
20
-2.95087
11
9.74499
21
-2.95043
0
LINE
8
BLACK
6
CONTINUOUS
10
9.74499
20
-2.95043
11
9.74554
21
-2.94989
0
LINE
8
BLACK
6
CONTINUOUS
10
9.74554
20
-2.94989
11
9.7616
21
-2.9424
0
LINE
8
BLACK
6
CONTINUOUS
10
9.7616
20
-2.9424
11
9.73554
21
-2.9424
0
LINE
8
BLACK
6
CONTINUOUS
10
9.73554
20
-2.9424
11
9.73453
21
-2.94222
0
LINE
8
BLACK
6
CONTINUOUS
10
9.73453
20
-2.94222
11
9.73298
21
-2.94092
0
LINE
8
BLACK
6
CONTINUOUS
10
9.73298
20
-2.94092
11
9.73263
21
-2.93893
0
LINE
8
BLACK
6
CONTINUOUS
10
9.73263
20
-2.93893
11
9.73364
21
-2.93718
0
LINE
8
BLACK
6
CONTINUOUS
10
9.73364
20
-2.93718
11
9.73554
21
-2.93649
0
LINE
8
BLACK
6
CONTINUOUS
10
9.73554
20
-2.93649
11
9.77491
21
-2.93649
0
LINE
8
BLACK
6
CONTINUOUS
10
9.77491
20
-2.93649
11
9.77592
21
-2.93667
0
LINE
8
BLACK
6
CONTINUOUS
10
9.77529
20
-2.90094
11
9.77542
21
-2.90092
0
LINE
8
BLACK
6
CONTINUOUS
10
9.77542
20
-2.90092
11
9.77553
21
-2.90098
0
LINE
8
BLACK
6
CONTINUOUS
10
9.77553
20
-2.90098
11
9.77592
21
-2.90105
0
LINE
8
BLACK
6
CONTINUOUS
10
9.77592
20
-2.90105
11
9.7765
21
-2.90154
0
LINE
8
BLACK
6
CONTINUOUS
10
9.7765
20
-2.90154
11
9.77717
21
-2.90193
0
LINE
8
BLACK
6
CONTINUOUS
10
9.77717
20
-2.90193
11
9.77726
21
-2.90218
0
LINE
8
BLACK
6
CONTINUOUS
10
9.77726
20
-2.90218
11
9.77746
21
-2.90235
0
LINE
8
BLACK
6
CONTINUOUS
10
9.77746
20
-2.90235
11
9.7776
21
-2.9031
0
LINE
8
BLACK
6
CONTINUOUS
10
9.7776
20
-2.9031
11
9.77786
21
-2.90382
0
LINE
8
BLACK
6
CONTINUOUS
10
9.77786
20
-2.90382
11
9.77786
21
-2.92257
0
LINE
8
BLACK
6
CONTINUOUS
10
9.77786
20
-2.92257
11
9.77768
21
-2.92358
0
LINE
8
BLACK
6
CONTINUOUS
10
9.77768
20
-2.92358
11
9.77638
21
-2.92513
0
LINE
8
BLACK
6
CONTINUOUS
10
9.77638
20
-2.92513
11
9.77439
21
-2.92548
0
LINE
8
BLACK
6
CONTINUOUS
10
9.77439
20
-2.92548
11
9.77264
21
-2.92447
0
LINE
8
BLACK
6
CONTINUOUS
10
9.77264
20
-2.92447
11
9.77195
21
-2.92257
0
LINE
8
BLACK
6
CONTINUOUS
10
9.77195
20
-2.92257
11
9.77195
21
-2.90678
0
LINE
8
BLACK
6
CONTINUOUS
10
9.77195
20
-2.90678
11
9.75911
21
-2.90678
0
LINE
8
BLACK
6
CONTINUOUS
10
9.75911
20
-2.90678
11
9.75911
21
-2.91695
0
LINE
8
BLACK
6
CONTINUOUS
10
9.75911
20
-2.91695
11
9.75893
21
-2.91796
0
LINE
8
BLACK
6
CONTINUOUS
10
9.75893
20
-2.91796
11
9.75763
21
-2.91951
0
LINE
8
BLACK
6
CONTINUOUS
10
9.75763
20
-2.91951
11
9.75565
21
-2.91986
0
LINE
8
BLACK
6
CONTINUOUS
10
9.75565
20
-2.91986
11
9.7539
21
-2.91885
0
LINE
8
BLACK
6
CONTINUOUS
10
9.7539
20
-2.91885
11
9.75321
21
-2.91695
0
LINE
8
BLACK
6
CONTINUOUS
10
9.75321
20
-2.91695
11
9.75321
21
-2.90678
0
LINE
8
BLACK
6
CONTINUOUS
10
9.75321
20
-2.90678
11
9.73849
21
-2.90678
0
LINE
8
BLACK
6
CONTINUOUS
10
9.73849
20
-2.90678
11
9.73849
21
-2.92257
0
LINE
8
BLACK
6
CONTINUOUS
10
9.73849
20
-2.92257
11
9.73831
21
-2.92358
0
LINE
8
BLACK
6
CONTINUOUS
10
9.73831
20
-2.92358
11
9.73701
21
-2.92513
0
LINE
8
BLACK
6
CONTINUOUS
10
9.73701
20
-2.92513
11
9.73502
21
-2.92548
0
LINE
8
BLACK
6
CONTINUOUS
10
9.73502
20
-2.92548
11
9.73327
21
-2.92447
0
LINE
8
BLACK
6
CONTINUOUS
10
9.73327
20
-2.92447
11
9.73258
21
-2.92257
0
LINE
8
BLACK
6
CONTINUOUS
10
9.73258
20
-2.92257
11
9.73258
21
-2.90382
0
LINE
8
BLACK
6
CONTINUOUS
10
9.73258
20
-2.90382
11
9.73265
21
-2.90344
0
LINE
8
BLACK
6
CONTINUOUS
10
9.73265
20
-2.90344
11
9.73263
21
-2.90331
0
LINE
8
BLACK
6
CONTINUOUS
10
9.73263
20
-2.90331
11
9.73269
21
-2.9032
0
LINE
8
BLACK
6
CONTINUOUS
10
9.73269
20
-2.9032
11
9.73276
21
-2.90281
0
LINE
8
BLACK
6
CONTINUOUS
10
9.73276
20
-2.90281
11
9.73325
21
-2.90223
0
LINE
8
BLACK
6
CONTINUOUS
10
9.73325
20
-2.90223
11
9.73364
21
-2.90156
0
LINE
8
BLACK
6
CONTINUOUS
10
9.73364
20
-2.90156
11
9.73389
21
-2.90147
0
LINE
8
BLACK
6
CONTINUOUS
10
9.73389
20
-2.90147
11
9.73406
21
-2.90127
0
LINE
8
BLACK
6
CONTINUOUS
10
9.73406
20
-2.90127
11
9.73482
21
-2.90113
0
LINE
8
BLACK
6
CONTINUOUS
10
9.73482
20
-2.90113
11
9.73554
21
-2.90087
0
LINE
8
BLACK
6
CONTINUOUS
10
9.73554
20
-2.90087
11
9.77491
21
-2.90087
0
LINE
8
BLACK
6
CONTINUOUS
10
9.77491
20
-2.90087
11
9.77529
21
-2.90094
0
LINE
8
BLACK
6
CONTINUOUS
10
9.85313
20
-2.86888
11
9.85645
21
-2.86922
0
LINE
8
BLACK
6
CONTINUOUS
10
9.85645
20
-2.86922
11
9.8616
21
-2.87173
0
LINE
8
BLACK
6
CONTINUOUS
10
9.8616
20
-2.87173
11
9.86513
21
-2.8755
0
LINE
8
BLACK
6
CONTINUOUS
10
9.86513
20
-2.8755
11
9.86659
21
-2.87838
0
LINE
8
BLACK
6
CONTINUOUS
10
9.86659
20
-2.87838
11
9.86841
21
-2.88288
0
LINE
8
BLACK
6
CONTINUOUS
10
9.86841
20
-2.88288
11
9.87022
21
-2.88806
0
LINE
8
BLACK
6
CONTINUOUS
10
9.87022
20
-2.88806
11
9.87035
21
-2.88845
0
LINE
8
BLACK
6
CONTINUOUS
10
9.87035
20
-2.88845
11
9.87198
21
-2.89337
0
LINE
8
BLACK
6
CONTINUOUS
10
9.87198
20
-2.89337
11
9.87326
21
-2.89627
0
LINE
8
BLACK
6
CONTINUOUS
10
9.87326
20
-2.89627
11
9.87456
21
-2.89767
0
LINE
8
BLACK
6
CONTINUOUS
10
9.87456
20
-2.89767
11
9.87625
21
-2.89811
0
LINE
8
BLACK
6
CONTINUOUS
10
9.87625
20
-2.89811
11
9.87721
21
-2.89814
0
LINE
8
BLACK
6
CONTINUOUS
10
9.87721
20
-2.89814
11
9.87996
21
-2.89773
0
LINE
8
BLACK
6
CONTINUOUS
10
9.87996
20
-2.89773
11
9.88093
21
-2.89604
0
LINE
8
BLACK
6
CONTINUOUS
10
9.88093
20
-2.89604
11
9.88099
21
-2.89481
0
LINE
8
BLACK
6
CONTINUOUS
10
9.88099
20
-2.89481
11
9.88041
21
-2.89225
0
LINE
8
BLACK
6
CONTINUOUS
10
9.88041
20
-2.89225
11
9.87814
21
-2.89117
0
LINE
8
BLACK
6
CONTINUOUS
10
9.87814
20
-2.89117
11
9.87733
21
-2.89106
0
LINE
8
BLACK
6
CONTINUOUS
10
9.87733
20
-2.89106
11
9.87546
21
-2.89074
0
LINE
8
BLACK
6
CONTINUOUS
10
9.87546
20
-2.89074
11
9.87437
21
-2.88991
0
LINE
8
BLACK
6
CONTINUOUS
10
9.87437
20
-2.88991
11
9.87385
21
-2.88801
0
LINE
8
BLACK
6
CONTINUOUS
10
9.87385
20
-2.88801
11
9.87368
21
-2.88442
0
LINE
8
BLACK
6
CONTINUOUS
10
9.87368
20
-2.88442
11
9.87367
21
-2.88074
0
LINE
8
BLACK
6
CONTINUOUS
10
9.87367
20
-2.88074
11
9.87367
21
-2.87084
0
LINE
8
BLACK
6
CONTINUOUS
10
9.87367
20
-2.87084
11
9.88084
21
-2.87084
0
LINE
8
BLACK
6
CONTINUOUS
10
9.88084
20
-2.87084
11
9.88506
21
-2.87095
0
LINE
8
BLACK
6
CONTINUOUS
10
9.88506
20
-2.87095
11
9.88748
21
-2.87158
0
LINE
8
BLACK
6
CONTINUOUS
10
9.88748
20
-2.87158
11
9.889
21
-2.87313
0
LINE
8
BLACK
6
CONTINUOUS
10
9.889
20
-2.87313
11
9.89014
21
-2.87531
0
LINE
8
BLACK
6
CONTINUOUS
10
9.89014
20
-2.87531
11
9.8927
21
-2.88245
0
LINE
8
BLACK
6
CONTINUOUS
10
9.8927
20
-2.88245
11
9.8943
21
-2.89049
0
LINE
8
BLACK
6
CONTINUOUS
10
9.8943
20
-2.89049
11
9.8947
21
-2.8981
0
LINE
8
BLACK
6
CONTINUOUS
10
9.8947
20
-2.8981
11
9.89454
21
-2.90027
0
LINE
8
BLACK
6
CONTINUOUS
10
9.89454
20
-2.90027
11
9.89335
21
-2.90587
0
LINE
8
BLACK
6
CONTINUOUS
10
9.89335
20
-2.90587
11
9.89133
21
-2.91124
0
LINE
8
BLACK
6
CONTINUOUS
10
9.89133
20
-2.91124
11
9.88884
21
-2.91557
0
LINE
8
BLACK
6
CONTINUOUS
10
9.88884
20
-2.91557
11
9.88626
21
-2.91811
0
LINE
8
BLACK
6
CONTINUOUS
10
9.88626
20
-2.91811
11
9.88604
21
-2.91822
0
LINE
8
BLACK
6
CONTINUOUS
10
9.88604
20
-2.91822
11
9.88382
21
-2.91874
0
LINE
8
BLACK
6
CONTINUOUS
10
9.88382
20
-2.91874
11
9.87956
21
-2.91931
0
LINE
8
BLACK
6
CONTINUOUS
10
9.87956
20
-2.91931
11
9.87388
21
-2.91987
0
LINE
8
BLACK
6
CONTINUOUS
10
9.87388
20
-2.91987
11
9.86768
21
-2.92033
0
LINE
8
BLACK
6
CONTINUOUS
10
9.86768
20
-2.92033
11
9.86052
21
-2.92081
0
LINE
8
BLACK
6
CONTINUOUS
10
9.86052
20
-2.92081
11
9.8535
21
-2.92134
0
LINE
8
BLACK
6
CONTINUOUS
10
9.8535
20
-2.92134
11
9.84751
21
-2.92184
0
LINE
8
BLACK
6
CONTINUOUS
10
9.84751
20
-2.92184
11
9.84404
21
-2.92218
0
LINE
8
BLACK
6
CONTINUOUS
10
9.84404
20
-2.92218
11
9.83638
21
-2.92302
0
LINE
8
BLACK
6
CONTINUOUS
10
9.83638
20
-2.92302
11
9.83638
21
-2.91157
0
LINE
8
BLACK
6
CONTINUOUS
10
9.83638
20
-2.91157
11
9.83647
21
-2.90588
0
LINE
8
BLACK
6
CONTINUOUS
10
9.83647
20
-2.90588
11
9.83677
21
-2.90238
0
LINE
8
BLACK
6
CONTINUOUS
10
9.83677
20
-2.90238
11
9.83738
21
-2.90062
0
LINE
8
BLACK
6
CONTINUOUS
10
9.83738
20
-2.90062
11
9.83837
21
-2.90013
0
LINE
8
BLACK
6
CONTINUOUS
10
9.83837
20
-2.90013
11
9.83838
21
-2.90013
0
LINE
8
BLACK
6
CONTINUOUS
10
9.83838
20
-2.90013
11
9.83977
21
-2.90008
0
LINE
8
BLACK
6
CONTINUOUS
10
9.83977
20
-2.90008
11
9.84018
21
-2.8995
0
LINE
8
BLACK
6
CONTINUOUS
10
9.84018
20
-2.8995
11
9.83955
21
-2.89779
0
LINE
8
BLACK
6
CONTINUOUS
10
9.83955
20
-2.89779
11
9.83782
21
-2.89434
0
LINE
8
BLACK
6
CONTINUOUS
10
9.83782
20
-2.89434
11
9.83772
21
-2.89414
0
LINE
8
BLACK
6
CONTINUOUS
10
9.83772
20
-2.89414
11
9.8355
21
-2.88814
0
LINE
8
BLACK
6
CONTINUOUS
10
9.8355
20
-2.88814
11
9.83549
21
-2.88258
0
LINE
8
BLACK
6
CONTINUOUS
10
9.83549
20
-2.88258
11
9.837
21
-2.87793
0
LINE
8
BLACK
6
CONTINUOUS
10
9.837
20
-2.87793
11
9.84041
21
-2.87305
0
LINE
8
BLACK
6
CONTINUOUS
10
9.84041
20
-2.87305
11
9.84521
21
-2.86993
0
LINE
8
BLACK
6
CONTINUOUS
10
9.84521
20
-2.86993
11
9.85077
21
-2.86863
0
LINE
8
BLACK
6
CONTINUOUS
10
9.85077
20
-2.86863
11
9.85313
21
-2.86888
0
LINE
8
BLACK
6
CONTINUOUS
10
9.85125
20
-2.89188
11
9.85141
21
-2.89541
0
LINE
8
BLACK
6
CONTINUOUS
10
9.85141
20
-2.89541
11
9.85184
21
-2.8967
0
LINE
8
BLACK
6
CONTINUOUS
10
9.85184
20
-2.8967
11
9.85376
21
-2.89833
0
LINE
8
BLACK
6
CONTINUOUS
10
9.85376
20
-2.89833
11
9.85659
21
-2.8988
0
LINE
8
BLACK
6
CONTINUOUS
10
9.85659
20
-2.8988
11
9.85929
21
-2.89854
0
LINE
8
BLACK
6
CONTINUOUS
10
9.85929
20
-2.89854
11
9.85998
21
-2.89736
0
LINE
8
BLACK
6
CONTINUOUS
10
9.85998
20
-2.89736
11
9.85963
21
-2.89581
0
LINE
8
BLACK
6
CONTINUOUS
10
9.85963
20
-2.89581
11
9.85776
21
-2.89195
0
LINE
8
BLACK
6
CONTINUOUS
10
9.85776
20
-2.89195
11
9.85525
21
-2.88992
0
LINE
8
BLACK
6
CONTINUOUS
10
9.85525
20
-2.88992
11
9.85313
21
-2.88992
0
LINE
8
BLACK
6
CONTINUOUS
10
9.85313
20
-2.88992
11
9.85125
21
-2.89188
0
LINE
8
BLACK
6
CONTINUOUS
10
9.76236
20
-2.85785
11
9.7625
21
-2.85784
0
LINE
8
BLACK
6
CONTINUOUS
10
9.7625
20
-2.85784
11
9.77
21
-2.85972
0
LINE
8
BLACK
6
CONTINUOUS
10
9.77
20
-2.85972
11
9.77093
21
-2.86013
0
LINE
8
BLACK
6
CONTINUOUS
10
9.77093
20
-2.86013
11
9.77111
21
-2.86037
0
LINE
8
BLACK
6
CONTINUOUS
10
9.77111
20
-2.86037
11
9.77137
21
-2.86049
0
LINE
8
BLACK
6
CONTINUOUS
10
9.77137
20
-2.86049
11
9.77512
21
-2.86424
0
LINE
8
BLACK
6
CONTINUOUS
10
9.77512
20
-2.86424
11
9.77563
21
-2.86496
0
LINE
8
BLACK
6
CONTINUOUS
10
9.77563
20
-2.86496
11
9.77567
21
-2.86501
0
LINE
8
BLACK
6
CONTINUOUS
10
9.77567
20
-2.86501
11
9.77755
21
-2.86876
0
LINE
8
BLACK
6
CONTINUOUS
10
9.77755
20
-2.86876
11
9.77784
21
-2.86974
0
LINE
8
BLACK
6
CONTINUOUS
10
9.77784
20
-2.86974
11
9.7778
21
-2.86991
0
LINE
8
BLACK
6
CONTINUOUS
10
9.7778
20
-2.86991
11
9.77786
21
-2.87008
0
LINE
8
BLACK
6
CONTINUOUS
10
9.77786
20
-2.87008
11
9.77786
21
-2.87758
0
LINE
8
BLACK
6
CONTINUOUS
10
9.77786
20
-2.87758
11
9.77768
21
-2.87859
0
LINE
8
BLACK
6
CONTINUOUS
10
9.77768
20
-2.87859
11
9.77757
21
-2.87872
0
LINE
8
BLACK
6
CONTINUOUS
10
9.77757
20
-2.87872
11
9.77755
21
-2.8789
0
LINE
8
BLACK
6
CONTINUOUS
10
9.77755
20
-2.8789
11
9.77567
21
-2.88265
0
LINE
8
BLACK
6
CONTINUOUS
10
9.77567
20
-2.88265
11
9.77515
21
-2.88336
0
LINE
8
BLACK
6
CONTINUOUS
10
9.77515
20
-2.88336
11
9.77512
21
-2.88342
0
LINE
8
BLACK
6
CONTINUOUS
10
9.77512
20
-2.88342
11
9.77137
21
-2.88716
0
LINE
8
BLACK
6
CONTINUOUS
10
9.77137
20
-2.88716
11
9.77053
21
-2.88775
0
LINE
8
BLACK
6
CONTINUOUS
10
9.77053
20
-2.88775
11
9.77024
21
-2.88778
0
LINE
8
BLACK
6
CONTINUOUS
10
9.77024
20
-2.88778
11
9.77
21
-2.88794
0
LINE
8
BLACK
6
CONTINUOUS
10
9.77
20
-2.88794
11
9.7625
21
-2.88982
0
LINE
8
BLACK
6
CONTINUOUS
10
9.7625
20
-2.88982
11
9.76191
21
-2.88986
0
LINE
8
BLACK
6
CONTINUOUS
10
9.76191
20
-2.88986
11
9.76178
21
-2.8899
0
LINE
8
BLACK
6
CONTINUOUS
10
9.76178
20
-2.8899
11
9.74866
21
-2.8899
0
LINE
8
BLACK
6
CONTINUOUS
10
9.74866
20
-2.8899
11
9.74808
21
-2.8898
0
LINE
8
BLACK
6
CONTINUOUS
10
9.74808
20
-2.8898
11
9.74794
21
-2.88982
0
LINE
8
BLACK
6
CONTINUOUS
10
9.74794
20
-2.88982
11
9.74044
21
-2.88794
0
LINE
8
BLACK
6
CONTINUOUS
10
9.74044
20
-2.88794
11
9.73951
21
-2.88752
0
LINE
8
BLACK
6
CONTINUOUS
10
9.73951
20
-2.88752
11
9.73934
21
-2.88729
0
LINE
8
BLACK
6
CONTINUOUS
10
9.73934
20
-2.88729
11
9.73907
21
-2.88716
0
LINE
8
BLACK
6
CONTINUOUS
10
9.73907
20
-2.88716
11
9.73532
21
-2.88342
0
LINE
8
BLACK
6
CONTINUOUS
10
9.73532
20
-2.88342
11
9.73482
21
-2.88269
0
LINE
8
BLACK
6
CONTINUOUS
10
9.73482
20
-2.88269
11
9.73477
21
-2.88265
0
LINE
8
BLACK
6
CONTINUOUS
10
9.73477
20
-2.88265
11
9.7329
21
-2.8789
0
LINE
8
BLACK
6
CONTINUOUS
10
9.7329
20
-2.8789
11
9.7326
21
-2.87792
0
LINE
8
BLACK
6
CONTINUOUS
10
9.7326
20
-2.87792
11
9.73264
21
-2.87774
0
LINE
8
BLACK
6
CONTINUOUS
10
9.73264
20
-2.87774
11
9.73258
21
-2.87758
0
LINE
8
BLACK
6
CONTINUOUS
10
9.73258
20
-2.87758
11
9.73258
21
-2.87008
0
LINE
8
BLACK
6
CONTINUOUS
10
9.73258
20
-2.87008
11
9.73276
21
-2.86907
0
LINE
8
BLACK
6
CONTINUOUS
10
9.73276
20
-2.86907
11
9.73287
21
-2.86893
0
LINE
8
BLACK
6
CONTINUOUS
10
9.73287
20
-2.86893
11
9.7329
21
-2.86876
0
LINE
8
BLACK
6
CONTINUOUS
10
9.7329
20
-2.86876
11
9.73477
21
-2.86501
0
LINE
8
BLACK
6
CONTINUOUS
10
9.73477
20
-2.86501
11
9.7353
21
-2.8643
0
LINE
8
BLACK
6
CONTINUOUS
10
9.7353
20
-2.8643
11
9.73532
21
-2.86424
0
LINE
8
BLACK
6
CONTINUOUS
10
9.73532
20
-2.86424
11
9.73907
21
-2.86049
0
LINE
8
BLACK
6
CONTINUOUS
10
9.73907
20
-2.86049
11
9.73991
21
-2.8599
0
LINE
8
BLACK
6
CONTINUOUS
10
9.73991
20
-2.8599
11
9.7402
21
-2.85988
0
LINE
8
BLACK
6
CONTINUOUS
10
9.7402
20
-2.85988
11
9.74044
21
-2.85972
0
LINE
8
BLACK
6
CONTINUOUS
10
9.74044
20
-2.85972
11
9.74794
21
-2.85784
0
LINE
8
BLACK
6
CONTINUOUS
10
9.74794
20
-2.85784
11
9.74853
21
-2.8578
0
LINE
8
BLACK
6
CONTINUOUS
10
9.74853
20
-2.8578
11
9.74866
21
-2.85775
0
LINE
8
BLACK
6
CONTINUOUS
10
9.74866
20
-2.85775
11
9.76178
21
-2.85775
0
LINE
8
BLACK
6
CONTINUOUS
10
9.76178
20
-2.85775
11
9.76236
21
-2.85785
0
LINE
8
BLACK
6
CONTINUOUS
10
9.74902
20
-2.86366
11
9.74267
21
-2.86525
0
LINE
8
BLACK
6
CONTINUOUS
10
9.74267
20
-2.86525
11
9.73984
21
-2.86808
0
LINE
8
BLACK
6
CONTINUOUS
10
9.73984
20
-2.86808
11
9.73849
21
-2.87078
0
LINE
8
BLACK
6
CONTINUOUS
10
9.73849
20
-2.87078
11
9.73849
21
-2.87688
0
LINE
8
BLACK
6
CONTINUOUS
10
9.73849
20
-2.87688
11
9.73984
21
-2.87958
0
LINE
8
BLACK
6
CONTINUOUS
10
9.73984
20
-2.87958
11
9.74267
21
-2.88241
0
LINE
8
BLACK
6
CONTINUOUS
10
9.74267
20
-2.88241
11
9.74902
21
-2.884
0
LINE
8
BLACK
6
CONTINUOUS
10
9.74902
20
-2.884
11
9.76142
21
-2.884
0
LINE
8
BLACK
6
CONTINUOUS
10
9.76142
20
-2.884
11
9.76777
21
-2.88241
0
LINE
8
BLACK
6
CONTINUOUS
10
9.76777
20
-2.88241
11
9.7706
21
-2.87958
0
LINE
8
BLACK
6
CONTINUOUS
10
9.7706
20
-2.87958
11
9.77195
21
-2.87688
0
LINE
8
BLACK
6
CONTINUOUS
10
9.77195
20
-2.87688
11
9.77195
21
-2.87078
0
LINE
8
BLACK
6
CONTINUOUS
10
9.77195
20
-2.87078
11
9.7706
21
-2.86808
0
LINE
8
BLACK
6
CONTINUOUS
10
9.7706
20
-2.86808
11
9.76777
21
-2.86525
0
LINE
8
BLACK
6
CONTINUOUS
10
9.76777
20
-2.86525
11
9.76142
21
-2.86366
0
LINE
8
BLACK
6
CONTINUOUS
10
9.76142
20
-2.86366
11
9.74902
21
-2.86366
0
LINE
8
BLACK
6
CONTINUOUS
10
9.89364
20
-2.82376
11
9.89364
21
-2.8366
0
LINE
8
BLACK
6
CONTINUOUS
10
9.89364
20
-2.8366
11
9.88403
21
-2.8358
0
LINE
8
BLACK
6
CONTINUOUS
10
9.88403
20
-2.8358
11
9.87773
21
-2.83562
0
LINE
8
BLACK
6
CONTINUOUS
10
9.87773
20
-2.83562
11
9.87149
21
-2.83604
0
LINE
8
BLACK
6
CONTINUOUS
10
9.87149
20
-2.83604
11
9.86607
21
-2.83695
0
LINE
8
BLACK
6
CONTINUOUS
10
9.86607
20
-2.83695
11
9.86222
21
-2.83825
0
LINE
8
BLACK
6
CONTINUOUS
10
9.86222
20
-2.83825
11
9.86126
21
-2.83889
0
LINE
8
BLACK
6
CONTINUOUS
10
9.86126
20
-2.83889
11
9.86187
21
-2.83968
0
LINE
8
BLACK
6
CONTINUOUS
10
9.86187
20
-2.83968
11
9.86452
21
-2.84085
0
LINE
8
BLACK
6
CONTINUOUS
10
9.86452
20
-2.84085
11
9.86864
21
-2.84216
0
LINE
8
BLACK
6
CONTINUOUS
10
9.86864
20
-2.84216
11
9.86897
21
-2.84225
0
LINE
8
BLACK
6
CONTINUOUS
10
9.86897
20
-2.84225
11
9.87412
21
-2.84349
0
LINE
8
BLACK
6
CONTINUOUS
10
9.87412
20
-2.84349
11
9.87733
21
-2.84381
0
LINE
8
BLACK
6
CONTINUOUS
10
9.87733
20
-2.84381
11
9.87911
21
-2.84327
0
LINE
8
BLACK
6
CONTINUOUS
10
9.87911
20
-2.84327
11
9.87932
21
-2.84309
0
LINE
8
BLACK
6
CONTINUOUS
10
9.87932
20
-2.84309
11
9.88149
21
-2.84217
0
LINE
8
BLACK
6
CONTINUOUS
10
9.88149
20
-2.84217
11
9.88523
21
-2.84162
0
LINE
8
BLACK
6
CONTINUOUS
10
9.88523
20
-2.84162
11
9.88725
21
-2.84154
0
LINE
8
BLACK
6
CONTINUOUS
10
9.88725
20
-2.84154
11
9.89364
21
-2.84154
0
LINE
8
BLACK
6
CONTINUOUS
10
9.89364
20
-2.84154
11
9.89364
21
-2.85353
0
LINE
8
BLACK
6
CONTINUOUS
10
9.89364
20
-2.85353
11
9.89364
21
-2.86551
0
LINE
8
BLACK
6
CONTINUOUS
10
9.89364
20
-2.86551
11
9.8876
21
-2.86551
0
LINE
8
BLACK
6
CONTINUOUS
10
9.8876
20
-2.86551
11
9.88319
21
-2.8651
0
LINE
8
BLACK
6
CONTINUOUS
10
9.88319
20
-2.8651
11
9.87946
21
-2.86409
0
LINE
8
BLACK
6
CONTINUOUS
10
9.87946
20
-2.86409
11
9.87861
21
-2.86365
0
LINE
8
BLACK
6
CONTINUOUS
10
9.87861
20
-2.86365
11
9.87633
21
-2.86264
0
LINE
8
BLACK
6
CONTINUOUS
10
9.87633
20
-2.86264
11
9.87202
21
-2.86108
0
LINE
8
BLACK
6
CONTINUOUS
10
9.87202
20
-2.86108
11
9.8662
21
-2.85916
0
LINE
8
BLACK
6
CONTINUOUS
10
9.8662
20
-2.85916
11
9.85941
21
-2.85706
0
LINE
8
BLACK
6
CONTINUOUS
10
9.85941
20
-2.85706
11
9.85603
21
-2.85605
0
LINE
8
BLACK
6
CONTINUOUS
10
9.85603
20
-2.85605
11
9.83638
21
-2.85031
0
LINE
8
BLACK
6
CONTINUOUS
10
9.83638
20
-2.85031
11
9.83638
21
-2.83802
0
LINE
8
BLACK
6
CONTINUOUS
10
9.83638
20
-2.83802
11
9.83649
21
-2.83259
0
LINE
8
BLACK
6
CONTINUOUS
10
9.83649
20
-2.83259
11
9.83676
21
-2.82825
0
LINE
8
BLACK
6
CONTINUOUS
10
9.83676
20
-2.82825
11
9.83715
21
-2.82565
0
LINE
8
BLACK
6
CONTINUOUS
10
9.83715
20
-2.82565
11
9.83738
21
-2.82518
0
LINE
8
BLACK
6
CONTINUOUS
10
9.83738
20
-2.82518
11
9.83895
21
-2.82464
0
LINE
8
BLACK
6
CONTINUOUS
10
9.83895
20
-2.82464
11
9.84261
21
-2.82352
0
LINE
8
BLACK
6
CONTINUOUS
10
9.84261
20
-2.82352
11
9.84791
21
-2.82196
0
LINE
8
BLACK
6
CONTINUOUS
10
9.84791
20
-2.82196
11
9.85439
21
-2.82008
0
LINE
8
BLACK
6
CONTINUOUS
10
9.85439
20
-2.82008
11
9.85836
21
-2.81895
0
LINE
8
BLACK
6
CONTINUOUS
10
9.85836
20
-2.81895
11
9.86531
21
-2.81692
0
LINE
8
BLACK
6
CONTINUOUS
10
9.86531
20
-2.81692
11
9.87138
21
-2.81505
0
LINE
8
BLACK
6
CONTINUOUS
10
9.87138
20
-2.81505
11
9.87609
21
-2.81351
0
LINE
8
BLACK
6
CONTINUOUS
10
9.87609
20
-2.81351
11
9.87897
21
-2.81243
0
LINE
8
BLACK
6
CONTINUOUS
10
9.87897
20
-2.81243
11
9.87959
21
-2.81209
0
LINE
8
BLACK
6
CONTINUOUS
10
9.87959
20
-2.81209
11
9.88159
21
-2.8114
0
LINE
8
BLACK
6
CONTINUOUS
10
9.88159
20
-2.8114
11
9.8852
21
-2.81098
0
LINE
8
BLACK
6
CONTINUOUS
10
9.8852
20
-2.81098
11
9.88725
21
-2.81092
0
LINE
8
BLACK
6
CONTINUOUS
10
9.88725
20
-2.81092
11
9.89364
21
-2.81092
0
LINE
8
BLACK
6
CONTINUOUS
10
9.89364
20
-2.81092
11
9.89364
21
-2.82376
0
LINE
8
BLACK
6
CONTINUOUS
10
9.85313
20
-2.75436
11
9.85645
21
-2.7547
0
LINE
8
BLACK
6
CONTINUOUS
10
9.85645
20
-2.7547
11
9.8616
21
-2.75721
0
LINE
8
BLACK
6
CONTINUOUS
10
9.8616
20
-2.75721
11
9.86513
21
-2.76098
0
LINE
8
BLACK
6
CONTINUOUS
10
9.86513
20
-2.76098
11
9.86659
21
-2.76386
0
LINE
8
BLACK
6
CONTINUOUS
10
9.86659
20
-2.76386
11
9.86841
21
-2.76836
0
LINE
8
BLACK
6
CONTINUOUS
10
9.86841
20
-2.76836
11
9.87022
21
-2.77355
0
LINE
8
BLACK
6
CONTINUOUS
10
9.87022
20
-2.77355
11
9.87035
21
-2.77394
0
LINE
8
BLACK
6
CONTINUOUS
10
9.87035
20
-2.77394
11
9.87198
21
-2.77886
0
LINE
8
BLACK
6
CONTINUOUS
10
9.87198
20
-2.77886
11
9.87326
21
-2.78176
0
LINE
8
BLACK
6
CONTINUOUS
10
9.87326
20
-2.78176
11
9.87456
21
-2.78316
0
LINE
8
BLACK
6
CONTINUOUS
10
9.87456
20
-2.78316
11
9.87625
21
-2.7836
0
LINE
8
BLACK
6
CONTINUOUS
10
9.87625
20
-2.7836
11
9.87721
21
-2.78362
0
LINE
8
BLACK
6
CONTINUOUS
10
9.87721
20
-2.78362
11
9.87996
21
-2.78322
0
LINE
8
BLACK
6
CONTINUOUS
10
9.87996
20
-2.78322
11
9.88093
21
-2.78152
0
LINE
8
BLACK
6
CONTINUOUS
10
9.88093
20
-2.78152
11
9.88099
21
-2.78029
0
LINE
8
BLACK
6
CONTINUOUS
10
9.88099
20
-2.78029
11
9.88041
21
-2.77773
0
LINE
8
BLACK
6
CONTINUOUS
10
9.88041
20
-2.77773
11
9.87814
21
-2.77666
0
LINE
8
BLACK
6
CONTINUOUS
10
9.87814
20
-2.77666
11
9.87733
21
-2.77654
0
LINE
8
BLACK
6
CONTINUOUS
10
9.87733
20
-2.77654
11
9.87546
21
-2.77622
0
LINE
8
BLACK
6
CONTINUOUS
10
9.87546
20
-2.77622
11
9.87437
21
-2.7754
0
LINE
8
BLACK
6
CONTINUOUS
10
9.87437
20
-2.7754
11
9.87385
21
-2.77349
0
LINE
8
BLACK
6
CONTINUOUS
10
9.87385
20
-2.77349
11
9.87368
21
-2.76991
0
LINE
8
BLACK
6
CONTINUOUS
10
9.87368
20
-2.76991
11
9.87367
21
-2.76622
0
LINE
8
BLACK
6
CONTINUOUS
10
9.87367
20
-2.76622
11
9.87367
21
-2.75632
0
LINE
8
BLACK
6
CONTINUOUS
10
9.87367
20
-2.75632
11
9.88084
21
-2.75632
0
LINE
8
BLACK
6
CONTINUOUS
10
9.88084
20
-2.75632
11
9.88506
21
-2.75644
0
LINE
8
BLACK
6
CONTINUOUS
10
9.88506
20
-2.75644
11
9.88748
21
-2.75706
0
LINE
8
BLACK
6
CONTINUOUS
10
9.88748
20
-2.75706
11
9.889
21
-2.75862
0
LINE
8
BLACK
6
CONTINUOUS
10
9.889
20
-2.75862
11
9.89014
21
-2.7608
0
LINE
8
BLACK
6
CONTINUOUS
10
9.89014
20
-2.7608
11
9.8927
21
-2.76794
0
LINE
8
BLACK
6
CONTINUOUS
10
9.8927
20
-2.76794
11
9.8943
21
-2.77598
0
LINE
8
BLACK
6
CONTINUOUS
10
9.8943
20
-2.77598
11
9.8947
21
-2.78359
0
LINE
8
BLACK
6
CONTINUOUS
10
9.8947
20
-2.78359
11
9.89454
21
-2.78575
0
LINE
8
BLACK
6
CONTINUOUS
10
9.89454
20
-2.78575
11
9.89335
21
-2.79136
0
LINE
8
BLACK
6
CONTINUOUS
10
9.89335
20
-2.79136
11
9.89133
21
-2.79672
0
LINE
8
BLACK
6
CONTINUOUS
10
9.89133
20
-2.79672
11
9.88884
21
-2.80106
0
LINE
8
BLACK
6
CONTINUOUS
10
9.88884
20
-2.80106
11
9.88626
21
-2.8036
0
LINE
8
BLACK
6
CONTINUOUS
10
9.88626
20
-2.8036
11
9.88604
21
-2.80371
0
LINE
8
BLACK
6
CONTINUOUS
10
9.88604
20
-2.80371
11
9.88382
21
-2.80422
0
LINE
8
BLACK
6
CONTINUOUS
10
9.88382
20
-2.80422
11
9.87956
21
-2.8048
0
LINE
8
BLACK
6
CONTINUOUS
10
9.87956
20
-2.8048
11
9.87388
21
-2.80536
0
LINE
8
BLACK
6
CONTINUOUS
10
9.87388
20
-2.80536
11
9.86768
21
-2.80582
0
LINE
8
BLACK
6
CONTINUOUS
10
9.86768
20
-2.80582
11
9.86052
21
-2.8063
0
LINE
8
BLACK
6
CONTINUOUS
10
9.86052
20
-2.8063
11
9.8535
21
-2.80683
0
LINE
8
BLACK
6
CONTINUOUS
10
9.8535
20
-2.80683
11
9.84751
21
-2.80733
0
LINE
8
BLACK
6
CONTINUOUS
10
9.84751
20
-2.80733
11
9.84404
21
-2.80766
0
LINE
8
BLACK
6
CONTINUOUS
10
9.84404
20
-2.80766
11
9.83638
21
-2.8085
0
LINE
8
BLACK
6
CONTINUOUS
10
9.83638
20
-2.8085
11
9.83638
21
-2.79706
0
LINE
8
BLACK
6
CONTINUOUS
10
9.83638
20
-2.79706
11
9.83647
21
-2.79137
0
LINE
8
BLACK
6
CONTINUOUS
10
9.83647
20
-2.79137
11
9.83677
21
-2.78787
0
LINE
8
BLACK
6
CONTINUOUS
10
9.83677
20
-2.78787
11
9.83738
21
-2.78611
0
LINE
8
BLACK
6
CONTINUOUS
10
9.83738
20
-2.78611
11
9.83837
21
-2.78562
0
LINE
8
BLACK
6
CONTINUOUS
10
9.83837
20
-2.78562
11
9.83838
21
-2.78562
0
LINE
8
BLACK
6
CONTINUOUS
10
9.83838
20
-2.78562
11
9.83977
21
-2.78556
0
LINE
8
BLACK
6
CONTINUOUS
10
9.83977
20
-2.78556
11
9.84018
21
-2.78499
0
LINE
8
BLACK
6
CONTINUOUS
10
9.84018
20
-2.78499
11
9.83955
21
-2.78328
0
LINE
8
BLACK
6
CONTINUOUS
10
9.83955
20
-2.78328
11
9.83782
21
-2.77982
0
LINE
8
BLACK
6
CONTINUOUS
10
9.83782
20
-2.77982
11
9.83772
21
-2.77963
0
LINE
8
BLACK
6
CONTINUOUS
10
9.83772
20
-2.77963
11
9.8355
21
-2.77362
0
LINE
8
BLACK
6
CONTINUOUS
10
9.8355
20
-2.77362
11
9.83549
21
-2.76807
0
LINE
8
BLACK
6
CONTINUOUS
10
9.83549
20
-2.76807
11
9.837
21
-2.76342
0
LINE
8
BLACK
6
CONTINUOUS
10
9.837
20
-2.76342
11
9.84041
21
-2.75853
0
LINE
8
BLACK
6
CONTINUOUS
10
9.84041
20
-2.75853
11
9.84521
21
-2.75542
0
LINE
8
BLACK
6
CONTINUOUS
10
9.84521
20
-2.75542
11
9.85077
21
-2.75412
0
LINE
8
BLACK
6
CONTINUOUS
10
9.85077
20
-2.75412
11
9.85313
21
-2.75436
0
LINE
8
BLACK
6
CONTINUOUS
10
9.85125
20
-2.77736
11
9.85141
21
-2.78089
0
LINE
8
BLACK
6
CONTINUOUS
10
9.85141
20
-2.78089
11
9.85184
21
-2.78218
0
LINE
8
BLACK
6
CONTINUOUS
10
9.85184
20
-2.78218
11
9.85376
21
-2.78381
0
LINE
8
BLACK
6
CONTINUOUS
10
9.85376
20
-2.78381
11
9.85659
21
-2.78429
0
LINE
8
BLACK
6
CONTINUOUS
10
9.85659
20
-2.78429
11
9.85929
21
-2.78403
0
LINE
8
BLACK
6
CONTINUOUS
10
9.85929
20
-2.78403
11
9.85998
21
-2.78285
0
LINE
8
BLACK
6
CONTINUOUS
10
9.85998
20
-2.78285
11
9.85963
21
-2.78129
0
LINE
8
BLACK
6
CONTINUOUS
10
9.85963
20
-2.78129
11
9.85776
21
-2.77744
0
LINE
8
BLACK
6
CONTINUOUS
10
9.85776
20
-2.77744
11
9.85525
21
-2.77541
0
LINE
8
BLACK
6
CONTINUOUS
10
9.85525
20
-2.77541
11
9.85313
21
-2.77541
0
LINE
8
BLACK
6
CONTINUOUS
10
9.85313
20
-2.77541
11
9.85125
21
-2.77736
0
LINE
8
BLACK
6
CONTINUOUS
10
9.89364
20
-2.7268
11
9.89344
21
-2.7331
0
LINE
8
BLACK
6
CONTINUOUS
10
9.89344
20
-2.7331
11
9.89283
21
-2.73685
0
LINE
8
BLACK
6
CONTINUOUS
10
9.89283
20
-2.73685
11
9.89206
21
-2.73799
0
LINE
8
BLACK
6
CONTINUOUS
10
9.89206
20
-2.73799
11
9.89137
21
-2.73911
0
LINE
8
BLACK
6
CONTINUOUS
10
9.89137
20
-2.73911
11
9.89265
21
-2.74161
0
LINE
8
BLACK
6
CONTINUOUS
10
9.89265
20
-2.74161
11
9.89273
21
-2.74172
0
LINE
8
BLACK
6
CONTINUOUS
10
9.89273
20
-2.74172
11
9.89441
21
-2.74515
0
LINE
8
BLACK
6
CONTINUOUS
10
9.89441
20
-2.74515
11
9.89497
21
-2.74797
0
LINE
8
BLACK
6
CONTINUOUS
10
9.89497
20
-2.74797
11
9.89481
21
-2.74951
0
LINE
8
BLACK
6
CONTINUOUS
10
9.89481
20
-2.74951
11
9.89394
21
-2.75042
0
LINE
8
BLACK
6
CONTINUOUS
10
9.89394
20
-2.75042
11
9.89182
21
-2.75085
0
LINE
8
BLACK
6
CONTINUOUS
10
9.89182
20
-2.75085
11
9.88787
21
-2.75099
0
LINE
8
BLACK
6
CONTINUOUS
10
9.88787
20
-2.75099
11
9.88499
21
-2.751
0
LINE
8
BLACK
6
CONTINUOUS
10
9.88499
20
-2.751
11
9.875
21
-2.751
0
LINE
8
BLACK
6
CONTINUOUS
10
9.875
20
-2.751
11
9.87496
21
-2.74734
0
LINE
8
BLACK
6
CONTINUOUS
10
9.87496
20
-2.74734
11
9.87412
21
-2.74288
0
LINE
8
BLACK
6
CONTINUOUS
10
9.87412
20
-2.74288
11
9.87152
21
-2.73997
0
LINE
8
BLACK
6
CONTINUOUS
10
9.87152
20
-2.73997
11
9.86687
21
-2.73836
0
LINE
8
BLACK
6
CONTINUOUS
10
9.86687
20
-2.73836
11
9.86382
21
-2.73797
0
LINE
8
BLACK
6
CONTINUOUS
10
9.86382
20
-2.73797
11
9.85719
21
-2.73805
0
LINE
8
BLACK
6
CONTINUOUS
10
9.85719
20
-2.73805
11
9.85227
21
-2.73953
0
LINE
8
BLACK
6
CONTINUOUS
10
9.85227
20
-2.73953
11
9.84806
21
-2.74093
0
LINE
8
BLACK
6
CONTINUOUS
10
9.84806
20
-2.74093
11
9.84315
21
-2.74165
0
LINE
8
BLACK
6
CONTINUOUS
10
9.84315
20
-2.74165
11
9.84217
21
-2.74168
0
LINE
8
BLACK
6
CONTINUOUS
10
9.84217
20
-2.74168
11
9.83638
21
-2.74168
0
LINE
8
BLACK
6
CONTINUOUS
10
9.83638
20
-2.74168
11
9.83638
21
-2.72891
0
LINE
8
BLACK
6
CONTINUOUS
10
9.83638
20
-2.72891
11
9.83638
21
-2.71614
0
LINE
8
BLACK
6
CONTINUOUS
10
9.83638
20
-2.71614
11
9.84471
21
-2.71702
0
LINE
8
BLACK
6
CONTINUOUS
10
9.84471
20
-2.71702
11
9.85011
21
-2.71743
0
LINE
8
BLACK
6
CONTINUOUS
10
9.85011
20
-2.71743
11
9.85687
21
-2.71774
0
LINE
8
BLACK
6
CONTINUOUS
10
9.85687
20
-2.71774
11
9.86371
21
-2.71789
0
LINE
8
BLACK
6
CONTINUOUS
10
9.86371
20
-2.71789
11
9.86501
21
-2.71789
0
LINE
8
BLACK
6
CONTINUOUS
10
9.86501
20
-2.71789
11
9.87171
21
-2.71779
0
LINE
8
BLACK
6
CONTINUOUS
10
9.87171
20
-2.71779
11
9.8786
21
-2.71751
0
LINE
8
BLACK
6
CONTINUOUS
10
9.8786
20
-2.71751
11
9.88438
21
-2.71711
0
LINE
8
BLACK
6
CONTINUOUS
10
9.88438
20
-2.71711
11
9.88532
21
-2.71702
0
LINE
8
BLACK
6
CONTINUOUS
10
9.88532
20
-2.71702
11
9.89364
21
-2.71614
0
LINE
8
BLACK
6
CONTINUOUS
10
9.89364
20
-2.71614
11
9.89364
21
-2.7268
0
LINE
8
BLACK
6
CONTINUOUS
10
9.91495
20
-2.67643
11
9.91495
21
-2.70972
0
LINE
8
BLACK
6
CONTINUOUS
10
9.91495
20
-2.70972
11
9.89764
21
-2.70972
0
LINE
8
BLACK
6
CONTINUOUS
10
9.89764
20
-2.70972
11
9.88033
21
-2.70972
0
LINE
8
BLACK
6
CONTINUOUS
10
9.88033
20
-2.70972
11
9.88033
21
-2.70113
0
LINE
8
BLACK
6
CONTINUOUS
10
9.88033
20
-2.70113
11
9.88033
21
-2.69254
0
LINE
8
BLACK
6
CONTINUOUS
10
9.88033
20
-2.69254
11
9.88854
21
-2.69214
0
LINE
8
BLACK
6
CONTINUOUS
10
9.88854
20
-2.69214
11
9.89356
21
-2.69164
0
LINE
8
BLACK
6
CONTINUOUS
10
9.89356
20
-2.69164
11
9.8966
21
-2.69075
0
LINE
8
BLACK
6
CONTINUOUS
10
9.8966
20
-2.69075
11
9.89731
21
-2.69008
0
LINE
8
BLACK
6
CONTINUOUS
10
9.89731
20
-2.69008
11
9.89627
21
-2.68951
0
LINE
8
BLACK
6
CONTINUOUS
10
9.89627
20
-2.68951
11
9.89308
21
-2.68905
0
LINE
8
BLACK
6
CONTINUOUS
10
9.89308
20
-2.68905
11
9.88826
21
-2.68869
0
LINE
8
BLACK
6
CONTINUOUS
10
9.88826
20
-2.68869
11
9.88231
21
-2.68846
0
LINE
8
BLACK
6
CONTINUOUS
10
9.88231
20
-2.68846
11
9.87576
21
-2.68834
0
LINE
8
BLACK
6
CONTINUOUS
10
9.87576
20
-2.68834
11
9.86911
21
-2.68834
0
LINE
8
BLACK
6
CONTINUOUS
10
9.86911
20
-2.68834
11
9.86287
21
-2.68847
0
LINE
8
BLACK
6
CONTINUOUS
10
9.86287
20
-2.68847
11
9.85756
21
-2.68873
0
LINE
8
BLACK
6
CONTINUOUS
10
9.85756
20
-2.68873
11
9.8537
21
-2.68912
0
LINE
8
BLACK
6
CONTINUOUS
10
9.8537
20
-2.68912
11
9.85178
21
-2.68965
0
LINE
8
BLACK
6
CONTINUOUS
10
9.85178
20
-2.68965
11
9.8517
21
-2.68975
0
LINE
8
BLACK
6
CONTINUOUS
10
9.8517
20
-2.68975
11
9.85001
21
-2.69049
0
LINE
8
BLACK
6
CONTINUOUS
10
9.85001
20
-2.69049
11
9.84654
21
-2.69097
0
LINE
8
BLACK
6
CONTINUOUS
10
9.84654
20
-2.69097
11
9.84363
21
-2.69108
0
LINE
8
BLACK
6
CONTINUOUS
10
9.84363
20
-2.69108
11
9.83638
21
-2.69108
0
LINE
8
BLACK
6
CONTINUOUS
10
9.83638
20
-2.69108
11
9.83638
21
-2.67643
0
LINE
8
BLACK
6
CONTINUOUS
10
9.83638
20
-2.67643
11
9.83638
21
-2.66178
0
LINE
8
BLACK
6
CONTINUOUS
10
9.83638
20
-2.66178
11
9.84363
21
-2.66178
0
LINE
8
BLACK
6
CONTINUOUS
10
9.84363
20
-2.66178
11
9.8478
21
-2.66201
0
LINE
8
BLACK
6
CONTINUOUS
10
9.8478
20
-2.66201
11
9.85079
21
-2.66259
0
LINE
8
BLACK
6
CONTINUOUS
10
9.85079
20
-2.66259
11
9.8517
21
-2.66312
0
LINE
8
BLACK
6
CONTINUOUS
10
9.8517
20
-2.66312
11
9.85331
21
-2.66361
0
LINE
8
BLACK
6
CONTINUOUS
10
9.85331
20
-2.66361
11
9.85729
21
-2.66401
0
LINE
8
BLACK
6
CONTINUOUS
10
9.85729
20
-2.66401
11
9.86331
21
-2.66429
0
LINE
8
BLACK
6
CONTINUOUS
10
9.86331
20
-2.66429
11
9.87109
21
-2.66443
0
LINE
8
BLACK
6
CONTINUOUS
10
9.87109
20
-2.66443
11
9.87508
21
-2.66445
0
LINE
8
BLACK
6
CONTINUOUS
10
9.87508
20
-2.66445
11
9.88345
21
-2.66442
0
LINE
8
BLACK
6
CONTINUOUS
10
9.88345
20
-2.66442
11
9.88951
21
-2.6643
0
LINE
8
BLACK
6
CONTINUOUS
10
9.88951
20
-2.6643
11
9.89361
21
-2.66408
0
LINE
8
BLACK
6
CONTINUOUS
10
9.89361
20
-2.66408
11
9.89609
21
-2.66371
0
LINE
8
BLACK
6
CONTINUOUS
10
9.89609
20
-2.66371
11
9.89732
21
-2.66317
0
LINE
8
BLACK
6
CONTINUOUS
10
9.89732
20
-2.66317
11
9.89764
21
-2.66245
0
LINE
8
BLACK
6
CONTINUOUS
10
9.89764
20
-2.66245
11
9.89706
21
-2.66133
0
LINE
8
BLACK
6
CONTINUOUS
10
9.89706
20
-2.66133
11
9.89499
21
-2.66071
0
LINE
8
BLACK
6
CONTINUOUS
10
9.89499
20
-2.66071
11
9.89095
21
-2.66047
0
LINE
8
BLACK
6
CONTINUOUS
10
9.89095
20
-2.66047
11
9.88898
21
-2.66045
0
LINE
8
BLACK
6
CONTINUOUS
10
9.88898
20
-2.66045
11
9.88033
21
-2.66045
0
LINE
8
BLACK
6
CONTINUOUS
10
9.88033
20
-2.66045
11
9.88033
21
-2.6518
0
LINE
8
BLACK
6
CONTINUOUS
10
9.88033
20
-2.6518
11
9.88033
21
-2.64314
0
LINE
8
BLACK
6
CONTINUOUS
10
9.88033
20
-2.64314
11
9.89764
21
-2.64314
0
LINE
8
BLACK
6
CONTINUOUS
10
9.89764
20
-2.64314
11
9.91495
21
-2.64314
0
LINE
8
BLACK
6
CONTINUOUS
10
9.91495
20
-2.64314
11
9.91495
21
-2.67643
  0
ENDSEC
  0
EOF
