  0
SECTION
  2
HEADER
  9
$ANGBASE
  50
0.0
  9
$ANGDIR
  70
1
  9
$MEASUREMENT
  70
0
  0
ENDSEC
  0
SECTION
  2
TABLES
  0
TABLE
  2
LTYPE
  70
4
  0
LTYPE
  5
40F
  2
CONTINUOUS
  70
0
  3
Solid line
  72
65
  73
0
  40
0.0
  0
LTYPE
  5
410
  2
DASHDOT
 70
0
  3
Dash Dot ____ _ ____ _
 72
65
 73
4
 40
2.0
 49
1.25
 49
-0.25
 49
0.25
 49
-0.25
  0
LTYPE
  5
411
  2
DASHED
 70
0
  3
Dashed __ __ __ __ __
 72
65
 73
2
 40
0.75
 49
0.5
 49
-0.25
  0
LTYPE
  5
43B
  2
DOTTED
 70
0
  3
Dotted .  .  .  .
 72
65
 73
2
 40
0.2
 49
0.0
 49
-0.2
  0
ENDTAB
  0
TABLE
  2
STYLE
  70
4
  0
STYLE
  2
KICAD
  70
0
  40
0
  41
1
  42
1
  50
0
  71
0
  3
isocp.shx
  0
STYLE
  2
KICADB
  70
0
  40
0
  41
1
  42
1
  50
0
  71
0
  3
isocp.shx
  0
STYLE
  2
KICADI
  70
0
  40
0
  41
1
  42
1
  50
15
  71
0
  3
isocp.shx
  0
STYLE
  2
KICADBI
  70
0
  40
0
  41
1
  42
1
  50
15
  71
0
  3
isocp.shx
  0
ENDTAB
  0
TABLE
  2
LAYER
  70
1
  0
LAYER
  2
BLACK
  70
0
  62
7
  6
CONTINUOUS
  0
ENDTAB
  0
ENDSEC
  0
SECTION
  2
ENTITIES
0
LINE
8
BLACK
6
CONTINUOUS
10
9.82111
20
-3.16775
11
9.82125
21
-3.16774
0
LINE
8
BLACK
6
CONTINUOUS
10
9.82125
20
-3.16774
11
9.82875
21
-3.16961
0
LINE
8
BLACK
6
CONTINUOUS
10
9.82875
20
-3.16961
11
9.82921
21
-3.16982
0
LINE
8
BLACK
6
CONTINUOUS
10
9.82921
20
-3.16982
11
9.82935
21
-3.16984
0
LINE
8
BLACK
6
CONTINUOUS
10
9.82935
20
-3.16984
11
9.8331
21
-3.17171
0
LINE
8
BLACK
6
CONTINUOUS
10
9.8331
20
-3.17171
11
9.83381
21
-3.17224
0
LINE
8
BLACK
6
CONTINUOUS
10
9.83381
20
-3.17224
11
9.83387
21
-3.17227
0
LINE
8
BLACK
6
CONTINUOUS
10
9.83387
20
-3.17227
11
9.83762
21
-3.17601
0
LINE
8
BLACK
6
CONTINUOUS
10
9.83762
20
-3.17601
11
9.83821
21
-3.17685
0
LINE
8
BLACK
6
CONTINUOUS
10
9.83821
20
-3.17685
11
9.83822
21
-3.17703
0
LINE
8
BLACK
6
CONTINUOUS
10
9.83822
20
-3.17703
11
9.83833
21
-3.17717
0
LINE
8
BLACK
6
CONTINUOUS
10
9.83833
20
-3.17717
11
9.84021
21
-3.18279
0
LINE
8
BLACK
6
CONTINUOUS
10
9.84021
20
-3.18279
11
9.84034
21
-3.18367
0
LINE
8
BLACK
6
CONTINUOUS
10
9.84034
20
-3.18367
11
9.84036
21
-3.18373
0
LINE
8
BLACK
6
CONTINUOUS
10
9.84036
20
-3.18373
11
9.84036
21
-3.18748
0
LINE
8
BLACK
6
CONTINUOUS
10
9.84036
20
-3.18748
11
9.84021
21
-3.18835
0
LINE
8
BLACK
6
CONTINUOUS
10
9.84021
20
-3.18835
11
9.84021
21
-3.18841
0
LINE
8
BLACK
6
CONTINUOUS
10
9.84021
20
-3.18841
11
9.83833
21
-3.19403
0
LINE
8
BLACK
6
CONTINUOUS
10
9.83833
20
-3.19403
11
9.83784
21
-3.19494
0
LINE
8
BLACK
6
CONTINUOUS
10
9.83784
20
-3.19494
11
9.83769
21
-3.19503
0
LINE
8
BLACK
6
CONTINUOUS
10
9.83769
20
-3.19503
11
9.83762
21
-3.19519
0
LINE
8
BLACK
6
CONTINUOUS
10
9.83762
20
-3.19519
11
9.83574
21
-3.19706
0
LINE
8
BLACK
6
CONTINUOUS
10
9.83574
20
-3.19706
11
9.8349
21
-3.19765
0
LINE
8
BLACK
6
CONTINUOUS
10
9.8349
20
-3.19765
11
9.83289
21
-3.19783
0
LINE
8
BLACK
6
CONTINUOUS
10
9.83289
20
-3.19783
11
9.83124
21
-3.19667
0
LINE
8
BLACK
6
CONTINUOUS
10
9.83124
20
-3.19667
11
9.83072
21
-3.19472
0
LINE
8
BLACK
6
CONTINUOUS
10
9.83072
20
-3.19472
11
9.83157
21
-3.19289
0
LINE
8
BLACK
6
CONTINUOUS
10
9.83157
20
-3.19289
11
9.83295
21
-3.19151
0
LINE
8
BLACK
6
CONTINUOUS
10
9.83295
20
-3.19151
11
9.83445
21
-3.187
0
LINE
8
BLACK
6
CONTINUOUS
10
9.83445
20
-3.187
11
9.83445
21
-3.18421
0
LINE
8
BLACK
6
CONTINUOUS
10
9.83445
20
-3.18421
11
9.83295
21
-3.1797
0
LINE
8
BLACK
6
CONTINUOUS
10
9.83295
20
-3.1797
11
9.83003
21
-3.17678
0
LINE
8
BLACK
6
CONTINUOUS
10
9.83003
20
-3.17678
11
9.827
21
-3.17526
0
LINE
8
BLACK
6
CONTINUOUS
10
9.827
20
-3.17526
11
9.82017
21
-3.17356
0
LINE
8
BLACK
6
CONTINUOUS
10
9.82017
20
-3.17356
11
9.81527
21
-3.17356
0
LINE
8
BLACK
6
CONTINUOUS
10
9.81527
20
-3.17356
11
9.80844
21
-3.17526
0
LINE
8
BLACK
6
CONTINUOUS
10
9.80844
20
-3.17526
11
9.80541
21
-3.17678
0
LINE
8
BLACK
6
CONTINUOUS
10
9.80541
20
-3.17678
11
9.80249
21
-3.1797
0
LINE
8
BLACK
6
CONTINUOUS
10
9.80249
20
-3.1797
11
9.80099
21
-3.18421
0
LINE
8
BLACK
6
CONTINUOUS
10
9.80099
20
-3.18421
11
9.80099
21
-3.187
0
LINE
8
BLACK
6
CONTINUOUS
10
9.80099
20
-3.187
11
9.80249
21
-3.19151
0
LINE
8
BLACK
6
CONTINUOUS
10
9.80249
20
-3.19151
11
9.80387
21
-3.19289
0
LINE
8
BLACK
6
CONTINUOUS
10
9.80387
20
-3.19289
11
9.80446
21
-3.19373
0
LINE
8
BLACK
6
CONTINUOUS
10
9.80446
20
-3.19373
11
9.80464
21
-3.19574
0
LINE
8
BLACK
6
CONTINUOUS
10
9.80464
20
-3.19574
11
9.80348
21
-3.19739
0
LINE
8
BLACK
6
CONTINUOUS
10
9.80348
20
-3.19739
11
9.80153
21
-3.19792
0
LINE
8
BLACK
6
CONTINUOUS
10
9.80153
20
-3.19792
11
9.7997
21
-3.19706
0
LINE
8
BLACK
6
CONTINUOUS
10
9.7997
20
-3.19706
11
9.79782
21
-3.19519
0
LINE
8
BLACK
6
CONTINUOUS
10
9.79782
20
-3.19519
11
9.79723
21
-3.19435
0
LINE
8
BLACK
6
CONTINUOUS
10
9.79723
20
-3.19435
11
9.79722
21
-3.19417
0
LINE
8
BLACK
6
CONTINUOUS
10
9.79722
20
-3.19417
11
9.79711
21
-3.19403
0
LINE
8
BLACK
6
CONTINUOUS
10
9.79711
20
-3.19403
11
9.79523
21
-3.18841
0
LINE
8
BLACK
6
CONTINUOUS
10
9.79523
20
-3.18841
11
9.79511
21
-3.18754
0
LINE
8
BLACK
6
CONTINUOUS
10
9.79511
20
-3.18754
11
9.79508
21
-3.18748
0
LINE
8
BLACK
6
CONTINUOUS
10
9.79508
20
-3.18748
11
9.79508
21
-3.18373
0
LINE
8
BLACK
6
CONTINUOUS
10
9.79508
20
-3.18373
11
9.79524
21
-3.18286
0
LINE
8
BLACK
6
CONTINUOUS
10
9.79524
20
-3.18286
11
9.79523
21
-3.18279
0
LINE
8
BLACK
6
CONTINUOUS
10
9.79523
20
-3.18279
11
9.79711
21
-3.17717
0
LINE
8
BLACK
6
CONTINUOUS
10
9.79711
20
-3.17717
11
9.7976
21
-3.17627
0
LINE
8
BLACK
6
CONTINUOUS
10
9.7976
20
-3.17627
11
9.79775
21
-3.17617
0
LINE
8
BLACK
6
CONTINUOUS
10
9.79775
20
-3.17617
11
9.79782
21
-3.17601
0
LINE
8
BLACK
6
CONTINUOUS
10
9.79782
20
-3.17601
11
9.80157
21
-3.17227
0
LINE
8
BLACK
6
CONTINUOUS
10
9.80157
20
-3.17227
11
9.8023
21
-3.17176
0
LINE
8
BLACK
6
CONTINUOUS
10
9.8023
20
-3.17176
11
9.80234
21
-3.17171
0
LINE
8
BLACK
6
CONTINUOUS
10
9.80234
20
-3.17171
11
9.80609
21
-3.16984
0
LINE
8
BLACK
6
CONTINUOUS
10
9.80609
20
-3.16984
11
9.80658
21
-3.16969
0
LINE
8
BLACK
6
CONTINUOUS
10
9.80658
20
-3.16969
11
9.80669
21
-3.16961
0
LINE
8
BLACK
6
CONTINUOUS
10
9.80669
20
-3.16961
11
9.81419
21
-3.16774
0
LINE
8
BLACK
6
CONTINUOUS
10
9.81419
20
-3.16774
11
9.81478
21
-3.1677
0
LINE
8
BLACK
6
CONTINUOUS
10
9.81478
20
-3.1677
11
9.81491
21
-3.16765
0
LINE
8
BLACK
6
CONTINUOUS
10
9.81491
20
-3.16765
11
9.82053
21
-3.16765
0
LINE
8
BLACK
6
CONTINUOUS
10
9.82053
20
-3.16765
11
9.82111
21
-3.16775
0
LINE
8
BLACK
6
CONTINUOUS
10
9.83842
20
-3.13783
11
9.83996
21
-3.13913
0
LINE
8
BLACK
6
CONTINUOUS
10
9.83996
20
-3.13913
11
9.84031
21
-3.14112
0
LINE
8
BLACK
6
CONTINUOUS
10
9.84031
20
-3.14112
11
9.8393
21
-3.14287
0
LINE
8
BLACK
6
CONTINUOUS
10
9.8393
20
-3.14287
11
9.83741
21
-3.14356
0
LINE
8
BLACK
6
CONTINUOUS
10
9.83741
20
-3.14356
11
9.80099
21
-3.14356
0
LINE
8
BLACK
6
CONTINUOUS
10
9.80099
20
-3.14356
11
9.80099
21
-3.15936
0
LINE
8
BLACK
6
CONTINUOUS
10
9.80099
20
-3.15936
11
9.80081
21
-3.16037
0
LINE
8
BLACK
6
CONTINUOUS
10
9.80081
20
-3.16037
11
9.79951
21
-3.16191
0
LINE
8
BLACK
6
CONTINUOUS
10
9.79951
20
-3.16191
11
9.79752
21
-3.16226
0
LINE
8
BLACK
6
CONTINUOUS
10
9.79752
20
-3.16226
11
9.79577
21
-3.16125
0
LINE
8
BLACK
6
CONTINUOUS
10
9.79577
20
-3.16125
11
9.79508
21
-3.15936
0
LINE
8
BLACK
6
CONTINUOUS
10
9.79508
20
-3.15936
11
9.79508
21
-3.14061
0
LINE
8
BLACK
6
CONTINUOUS
10
9.79508
20
-3.14061
11
9.79515
21
-3.14022
0
LINE
8
BLACK
6
CONTINUOUS
10
9.79515
20
-3.14022
11
9.79513
21
-3.14009
0
LINE
8
BLACK
6
CONTINUOUS
10
9.79513
20
-3.14009
11
9.79519
21
-3.13998
0
LINE
8
BLACK
6
CONTINUOUS
10
9.79519
20
-3.13998
11
9.79526
21
-3.1396
0
LINE
8
BLACK
6
CONTINUOUS
10
9.79526
20
-3.1396
11
9.79575
21
-3.13901
0
LINE
8
BLACK
6
CONTINUOUS
10
9.79575
20
-3.13901
11
9.79614
21
-3.13835
0
LINE
8
BLACK
6
CONTINUOUS
10
9.79614
20
-3.13835
11
9.79639
21
-3.13825
0
LINE
8
BLACK
6
CONTINUOUS
10
9.79639
20
-3.13825
11
9.79656
21
-3.13805
0
LINE
8
BLACK
6
CONTINUOUS
10
9.79656
20
-3.13805
11
9.79732
21
-3.13792
0
LINE
8
BLACK
6
CONTINUOUS
10
9.79732
20
-3.13792
11
9.79804
21
-3.13765
0
LINE
8
BLACK
6
CONTINUOUS
10
9.79804
20
-3.13765
11
9.83741
21
-3.13765
0
LINE
8
BLACK
6
CONTINUOUS
10
9.83741
20
-3.13765
11
9.83842
21
-3.13783
0
LINE
8
BLACK
6
CONTINUOUS
10
9.8003
20
-3.10496
11
9.80099
21
-3.10686
0
LINE
8
BLACK
6
CONTINUOUS
10
9.80099
20
-3.10686
11
9.80099
21
-3.11013
0
LINE
8
BLACK
6
CONTINUOUS
10
9.80099
20
-3.11013
11
9.80249
21
-3.11464
0
LINE
8
BLACK
6
CONTINUOUS
10
9.80249
20
-3.11464
11
9.80526
21
-3.1174
0
LINE
8
BLACK
6
CONTINUOUS
10
9.80526
20
-3.1174
11
9.80976
21
-3.11891
0
LINE
8
BLACK
6
CONTINUOUS
10
9.80976
20
-3.11891
11
9.83741
21
-3.11891
0
LINE
8
BLACK
6
CONTINUOUS
10
9.83741
20
-3.11891
11
9.83842
21
-3.11909
0
LINE
8
BLACK
6
CONTINUOUS
10
9.83842
20
-3.11909
11
9.83996
21
-3.12038
0
LINE
8
BLACK
6
CONTINUOUS
10
9.83996
20
-3.12038
11
9.84031
21
-3.12237
0
LINE
8
BLACK
6
CONTINUOUS
10
9.84031
20
-3.12237
11
9.8393
21
-3.12412
0
LINE
8
BLACK
6
CONTINUOUS
10
9.8393
20
-3.12412
11
9.83741
21
-3.12481
0
LINE
8
BLACK
6
CONTINUOUS
10
9.83741
20
-3.12481
11
9.80928
21
-3.12481
0
LINE
8
BLACK
6
CONTINUOUS
10
9.80928
20
-3.12481
11
9.80842
21
-3.12466
0
LINE
8
BLACK
6
CONTINUOUS
10
9.80842
20
-3.12466
11
9.80835
21
-3.12466
0
LINE
8
BLACK
6
CONTINUOUS
10
9.80835
20
-3.12466
11
9.80273
21
-3.12279
0
LINE
8
BLACK
6
CONTINUOUS
10
9.80273
20
-3.12279
11
9.80182
21
-3.1223
0
LINE
8
BLACK
6
CONTINUOUS
10
9.80182
20
-3.1223
11
9.80173
21
-3.12215
0
LINE
8
BLACK
6
CONTINUOUS
10
9.80173
20
-3.12215
11
9.80157
21
-3.12207
0
LINE
8
BLACK
6
CONTINUOUS
10
9.80157
20
-3.12207
11
9.79782
21
-3.11832
0
LINE
8
BLACK
6
CONTINUOUS
10
9.79782
20
-3.11832
11
9.79723
21
-3.11748
0
LINE
8
BLACK
6
CONTINUOUS
10
9.79723
20
-3.11748
11
9.79722
21
-3.11731
0
LINE
8
BLACK
6
CONTINUOUS
10
9.79722
20
-3.11731
11
9.79711
21
-3.11717
0
LINE
8
BLACK
6
CONTINUOUS
10
9.79711
20
-3.11717
11
9.79523
21
-3.11154
0
LINE
8
BLACK
6
CONTINUOUS
10
9.79523
20
-3.11154
11
9.79511
21
-3.11067
0
LINE
8
BLACK
6
CONTINUOUS
10
9.79511
20
-3.11067
11
9.79508
21
-3.11061
0
LINE
8
BLACK
6
CONTINUOUS
10
9.79508
20
-3.11061
11
9.79508
21
-3.10686
0
LINE
8
BLACK
6
CONTINUOUS
10
9.79508
20
-3.10686
11
9.79526
21
-3.10585
0
LINE
8
BLACK
6
CONTINUOUS
10
9.79526
20
-3.10585
11
9.79656
21
-3.1043
0
LINE
8
BLACK
6
CONTINUOUS
10
9.79656
20
-3.1043
11
9.79855
21
-3.10395
0
LINE
8
BLACK
6
CONTINUOUS
10
9.79855
20
-3.10395
11
9.8003
21
-3.10496
0
LINE
8
BLACK
6
CONTINUOUS
10
9.82111
20
-3.06652
11
9.82125
21
-3.0665
0
LINE
8
BLACK
6
CONTINUOUS
10
9.82125
20
-3.0665
11
9.82875
21
-3.06838
0
LINE
8
BLACK
6
CONTINUOUS
10
9.82875
20
-3.06838
11
9.82921
21
-3.06858
0
LINE
8
BLACK
6
CONTINUOUS
10
9.82921
20
-3.06858
11
9.82935
21
-3.0686
0
LINE
8
BLACK
6
CONTINUOUS
10
9.82935
20
-3.0686
11
9.8331
21
-3.07047
0
LINE
8
BLACK
6
CONTINUOUS
10
9.8331
20
-3.07047
11
9.83381
21
-3.071
0
LINE
8
BLACK
6
CONTINUOUS
10
9.83381
20
-3.071
11
9.83387
21
-3.07103
0
LINE
8
BLACK
6
CONTINUOUS
10
9.83387
20
-3.07103
11
9.83762
21
-3.07478
0
LINE
8
BLACK
6
CONTINUOUS
10
9.83762
20
-3.07478
11
9.83821
21
-3.07562
0
LINE
8
BLACK
6
CONTINUOUS
10
9.83821
20
-3.07562
11
9.83822
21
-3.07579
0
LINE
8
BLACK
6
CONTINUOUS
10
9.83822
20
-3.07579
11
9.83833
21
-3.07593
0
LINE
8
BLACK
6
CONTINUOUS
10
9.83833
20
-3.07593
11
9.84021
21
-3.08156
0
LINE
8
BLACK
6
CONTINUOUS
10
9.84021
20
-3.08156
11
9.84034
21
-3.08243
0
LINE
8
BLACK
6
CONTINUOUS
10
9.84034
20
-3.08243
11
9.84036
21
-3.08249
0
LINE
8
BLACK
6
CONTINUOUS
10
9.84036
20
-3.08249
11
9.84036
21
-3.08624
0
LINE
8
BLACK
6
CONTINUOUS
10
9.84036
20
-3.08624
11
9.84021
21
-3.08711
0
LINE
8
BLACK
6
CONTINUOUS
10
9.84021
20
-3.08711
11
9.84021
21
-3.08717
0
LINE
8
BLACK
6
CONTINUOUS
10
9.84021
20
-3.08717
11
9.83833
21
-3.0928
0
LINE
8
BLACK
6
CONTINUOUS
10
9.83833
20
-3.0928
11
9.83784
21
-3.0937
0
LINE
8
BLACK
6
CONTINUOUS
10
9.83784
20
-3.0937
11
9.83769
21
-3.09379
0
LINE
8
BLACK
6
CONTINUOUS
10
9.83769
20
-3.09379
11
9.83762
21
-3.09395
0
LINE
8
BLACK
6
CONTINUOUS
10
9.83762
20
-3.09395
11
9.83574
21
-3.09583
0
LINE
8
BLACK
6
CONTINUOUS
10
9.83574
20
-3.09583
11
9.8349
21
-3.09641
0
LINE
8
BLACK
6
CONTINUOUS
10
9.8349
20
-3.09641
11
9.83289
21
-3.09659
0
LINE
8
BLACK
6
CONTINUOUS
10
9.83289
20
-3.09659
11
9.83124
21
-3.09543
0
LINE
8
BLACK
6
CONTINUOUS
10
9.83124
20
-3.09543
11
9.83072
21
-3.09348
0
LINE
8
BLACK
6
CONTINUOUS
10
9.83072
20
-3.09348
11
9.83157
21
-3.09165
0
LINE
8
BLACK
6
CONTINUOUS
10
9.83157
20
-3.09165
11
9.83295
21
-3.09027
0
LINE
8
BLACK
6
CONTINUOUS
10
9.83295
20
-3.09027
11
9.83445
21
-3.08576
0
LINE
8
BLACK
6
CONTINUOUS
10
9.83445
20
-3.08576
11
9.83445
21
-3.08297
0
LINE
8
BLACK
6
CONTINUOUS
10
9.83445
20
-3.08297
11
9.83295
21
-3.07846
0
LINE
8
BLACK
6
CONTINUOUS
10
9.83295
20
-3.07846
11
9.83003
21
-3.07554
0
LINE
8
BLACK
6
CONTINUOUS
10
9.83003
20
-3.07554
11
9.827
21
-3.07403
0
LINE
8
BLACK
6
CONTINUOUS
10
9.827
20
-3.07403
11
9.82017
21
-3.07232
0
LINE
8
BLACK
6
CONTINUOUS
10
9.82017
20
-3.07232
11
9.81527
21
-3.07232
0
LINE
8
BLACK
6
CONTINUOUS
10
9.81527
20
-3.07232
11
9.80844
21
-3.07403
0
LINE
8
BLACK
6
CONTINUOUS
10
9.80844
20
-3.07403
11
9.80541
21
-3.07554
0
LINE
8
BLACK
6
CONTINUOUS
10
9.80541
20
-3.07554
11
9.80249
21
-3.07846
0
LINE
8
BLACK
6
CONTINUOUS
10
9.80249
20
-3.07846
11
9.80099
21
-3.08297
0
LINE
8
BLACK
6
CONTINUOUS
10
9.80099
20
-3.08297
11
9.80099
21
-3.08576
0
LINE
8
BLACK
6
CONTINUOUS
10
9.80099
20
-3.08576
11
9.80249
21
-3.09027
0
LINE
8
BLACK
6
CONTINUOUS
10
9.80249
20
-3.09027
11
9.80387
21
-3.09165
0
LINE
8
BLACK
6
CONTINUOUS
10
9.80387
20
-3.09165
11
9.80446
21
-3.09249
0
LINE
8
BLACK
6
CONTINUOUS
10
9.80446
20
-3.09249
11
9.80464
21
-3.0945
0
LINE
8
BLACK
6
CONTINUOUS
10
9.80464
20
-3.0945
11
9.80348
21
-3.09616
0
LINE
8
BLACK
6
CONTINUOUS
10
9.80348
20
-3.09616
11
9.80153
21
-3.09668
0
LINE
8
BLACK
6
CONTINUOUS
10
9.80153
20
-3.09668
11
9.7997
21
-3.09583
0
LINE
8
BLACK
6
CONTINUOUS
10
9.7997
20
-3.09583
11
9.79782
21
-3.09395
0
LINE
8
BLACK
6
CONTINUOUS
10
9.79782
20
-3.09395
11
9.79723
21
-3.09311
0
LINE
8
BLACK
6
CONTINUOUS
10
9.79723
20
-3.09311
11
9.79722
21
-3.09294
0
LINE
8
BLACK
6
CONTINUOUS
10
9.79722
20
-3.09294
11
9.79711
21
-3.0928
0
LINE
8
BLACK
6
CONTINUOUS
10
9.79711
20
-3.0928
11
9.79523
21
-3.08717
0
LINE
8
BLACK
6
CONTINUOUS
10
9.79523
20
-3.08717
11
9.79511
21
-3.0863
0
LINE
8
BLACK
6
CONTINUOUS
10
9.79511
20
-3.0863
11
9.79508
21
-3.08624
0
LINE
8
BLACK
6
CONTINUOUS
10
9.79508
20
-3.08624
11
9.79508
21
-3.08249
0
LINE
8
BLACK
6
CONTINUOUS
10
9.79508
20
-3.08249
11
9.79524
21
-3.08162
0
LINE
8
BLACK
6
CONTINUOUS
10
9.79524
20
-3.08162
11
9.79523
21
-3.08156
0
LINE
8
BLACK
6
CONTINUOUS
10
9.79523
20
-3.08156
11
9.79711
21
-3.07593
0
LINE
8
BLACK
6
CONTINUOUS
10
9.79711
20
-3.07593
11
9.7976
21
-3.07503
0
LINE
8
BLACK
6
CONTINUOUS
10
9.7976
20
-3.07503
11
9.79775
21
-3.07494
0
LINE
8
BLACK
6
CONTINUOUS
10
9.79775
20
-3.07494
11
9.79782
21
-3.07478
0
LINE
8
BLACK
6
CONTINUOUS
10
9.79782
20
-3.07478
11
9.80157
21
-3.07103
0
LINE
8
BLACK
6
CONTINUOUS
10
9.80157
20
-3.07103
11
9.8023
21
-3.07052
0
LINE
8
BLACK
6
CONTINUOUS
10
9.8023
20
-3.07052
11
9.80234
21
-3.07047
0
LINE
8
BLACK
6
CONTINUOUS
10
9.80234
20
-3.07047
11
9.80609
21
-3.0686
0
LINE
8
BLACK
6
CONTINUOUS
10
9.80609
20
-3.0686
11
9.80658
21
-3.06845
0
LINE
8
BLACK
6
CONTINUOUS
10
9.80658
20
-3.06845
11
9.80669
21
-3.06838
0
LINE
8
BLACK
6
CONTINUOUS
10
9.80669
20
-3.06838
11
9.81419
21
-3.0665
0
LINE
8
BLACK
6
CONTINUOUS
10
9.81419
20
-3.0665
11
9.81478
21
-3.06646
0
LINE
8
BLACK
6
CONTINUOUS
10
9.81478
20
-3.06646
11
9.81491
21
-3.06641
0
LINE
8
BLACK
6
CONTINUOUS
10
9.81491
20
-3.06641
11
9.82053
21
-3.06641
0
LINE
8
BLACK
6
CONTINUOUS
10
9.82053
20
-3.06641
11
9.82111
21
-3.06652
0
LINE
8
BLACK
6
CONTINUOUS
10
9.83842
20
-3.0366
11
9.83996
21
-3.03789
0
LINE
8
BLACK
6
CONTINUOUS
10
9.83996
20
-3.03789
11
9.84031
21
-3.03988
0
LINE
8
BLACK
6
CONTINUOUS
10
9.84031
20
-3.03988
11
9.8393
21
-3.04163
0
LINE
8
BLACK
6
CONTINUOUS
10
9.8393
20
-3.04163
11
9.83741
21
-3.04232
0
LINE
8
BLACK
6
CONTINUOUS
10
9.83741
20
-3.04232
11
9.80099
21
-3.04232
0
LINE
8
BLACK
6
CONTINUOUS
10
9.80099
20
-3.04232
11
9.80099
21
-3.05812
0
LINE
8
BLACK
6
CONTINUOUS
10
9.80099
20
-3.05812
11
9.80081
21
-3.05913
0
LINE
8
BLACK
6
CONTINUOUS
10
9.80081
20
-3.05913
11
9.79951
21
-3.06067
0
LINE
8
BLACK
6
CONTINUOUS
10
9.79951
20
-3.06067
11
9.79752
21
-3.06103
0
LINE
8
BLACK
6
CONTINUOUS
10
9.79752
20
-3.06103
11
9.79577
21
-3.06002
0
LINE
8
BLACK
6
CONTINUOUS
10
9.79577
20
-3.06002
11
9.79508
21
-3.05812
0
LINE
8
BLACK
6
CONTINUOUS
10
9.79508
20
-3.05812
11
9.79508
21
-3.03937
0
LINE
8
BLACK
6
CONTINUOUS
10
9.79508
20
-3.03937
11
9.79515
21
-3.03899
0
LINE
8
BLACK
6
CONTINUOUS
10
9.79515
20
-3.03899
11
9.79513
21
-3.03886
0
LINE
8
BLACK
6
CONTINUOUS
10
9.79513
20
-3.03886
11
9.79519
21
-3.03874
0
LINE
8
BLACK
6
CONTINUOUS
10
9.79519
20
-3.03874
11
9.79526
21
-3.03836
0
LINE
8
BLACK
6
CONTINUOUS
10
9.79526
20
-3.03836
11
9.79575
21
-3.03777
0
LINE
8
BLACK
6
CONTINUOUS
10
9.79575
20
-3.03777
11
9.79614
21
-3.03711
0
LINE
8
BLACK
6
CONTINUOUS
10
9.79614
20
-3.03711
11
9.79639
21
-3.03702
0
LINE
8
BLACK
6
CONTINUOUS
10
9.79639
20
-3.03702
11
9.79656
21
-3.03681
0
LINE
8
BLACK
6
CONTINUOUS
10
9.79656
20
-3.03681
11
9.79732
21
-3.03668
0
LINE
8
BLACK
6
CONTINUOUS
10
9.79732
20
-3.03668
11
9.79804
21
-3.03642
0
LINE
8
BLACK
6
CONTINUOUS
10
9.79804
20
-3.03642
11
9.83741
21
-3.03642
0
LINE
8
BLACK
6
CONTINUOUS
10
9.83741
20
-3.03642
11
9.83842
21
-3.0366
0
LINE
8
BLACK
6
CONTINUOUS
10
9.8003
20
-3.00373
11
9.80099
21
-3.00562
0
LINE
8
BLACK
6
CONTINUOUS
10
9.80099
20
-3.00562
11
9.80099
21
-3.00889
0
LINE
8
BLACK
6
CONTINUOUS
10
9.80099
20
-3.00889
11
9.80249
21
-3.0134
0
LINE
8
BLACK
6
CONTINUOUS
10
9.80249
20
-3.0134
11
9.80526
21
-3.01617
0
LINE
8
BLACK
6
CONTINUOUS
10
9.80526
20
-3.01617
11
9.80976
21
-3.01767
0
LINE
8
BLACK
6
CONTINUOUS
10
9.80976
20
-3.01767
11
9.83741
21
-3.01767
0
LINE
8
BLACK
6
CONTINUOUS
10
9.83741
20
-3.01767
11
9.83842
21
-3.01785
0
LINE
8
BLACK
6
CONTINUOUS
10
9.83842
20
-3.01785
11
9.83996
21
-3.01915
0
LINE
8
BLACK
6
CONTINUOUS
10
9.83996
20
-3.01915
11
9.84031
21
-3.02114
0
LINE
8
BLACK
6
CONTINUOUS
10
9.84031
20
-3.02114
11
9.8393
21
-3.02288
0
LINE
8
BLACK
6
CONTINUOUS
10
9.8393
20
-3.02288
11
9.83741
21
-3.02358
0
LINE
8
BLACK
6
CONTINUOUS
10
9.83741
20
-3.02358
11
9.80928
21
-3.02358
0
LINE
8
BLACK
6
CONTINUOUS
10
9.80928
20
-3.02358
11
9.80842
21
-3.02342
0
LINE
8
BLACK
6
CONTINUOUS
10
9.80842
20
-3.02342
11
9.80835
21
-3.02342
0
LINE
8
BLACK
6
CONTINUOUS
10
9.80835
20
-3.02342
11
9.80273
21
-3.02155
0
LINE
8
BLACK
6
CONTINUOUS
10
9.80273
20
-3.02155
11
9.80182
21
-3.02106
0
LINE
8
BLACK
6
CONTINUOUS
10
9.80182
20
-3.02106
11
9.80173
21
-3.02091
0
LINE
8
BLACK
6
CONTINUOUS
10
9.80173
20
-3.02091
11
9.80157
21
-3.02084
0
LINE
8
BLACK
6
CONTINUOUS
10
9.80157
20
-3.02084
11
9.79782
21
-3.01709
0
LINE
8
BLACK
6
CONTINUOUS
10
9.79782
20
-3.01709
11
9.79723
21
-3.01625
0
LINE
8
BLACK
6
CONTINUOUS
10
9.79723
20
-3.01625
11
9.79722
21
-3.01607
0
LINE
8
BLACK
6
CONTINUOUS
10
9.79722
20
-3.01607
11
9.79711
21
-3.01593
0
LINE
8
BLACK
6
CONTINUOUS
10
9.79711
20
-3.01593
11
9.79523
21
-3.01031
0
LINE
8
BLACK
6
CONTINUOUS
10
9.79523
20
-3.01031
11
9.79511
21
-3.00943
0
LINE
8
BLACK
6
CONTINUOUS
10
9.79511
20
-3.00943
11
9.79508
21
-3.00937
0
LINE
8
BLACK
6
CONTINUOUS
10
9.79508
20
-3.00937
11
9.79508
21
-3.00562
0
LINE
8
BLACK
6
CONTINUOUS
10
9.79508
20
-3.00562
11
9.79526
21
-3.00461
0
LINE
8
BLACK
6
CONTINUOUS
10
9.79526
20
-3.00461
11
9.79656
21
-3.00307
0
LINE
8
BLACK
6
CONTINUOUS
10
9.79656
20
-3.00307
11
9.79855
21
-3.00272
0
LINE
8
BLACK
6
CONTINUOUS
10
9.79855
20
-3.00272
11
9.8003
21
-3.00373
0
LINE
8
BLACK
6
CONTINUOUS
10
9.82111
20
-2.96528
11
9.82125
21
-2.96526
0
LINE
8
BLACK
6
CONTINUOUS
10
9.82125
20
-2.96526
11
9.82875
21
-2.96714
0
LINE
8
BLACK
6
CONTINUOUS
10
9.82875
20
-2.96714
11
9.82921
21
-2.96735
0
LINE
8
BLACK
6
CONTINUOUS
10
9.82921
20
-2.96735
11
9.82935
21
-2.96736
0
LINE
8
BLACK
6
CONTINUOUS
10
9.82935
20
-2.96736
11
9.8331
21
-2.96924
0
LINE
8
BLACK
6
CONTINUOUS
10
9.8331
20
-2.96924
11
9.83381
21
-2.96976
0
LINE
8
BLACK
6
CONTINUOUS
10
9.83381
20
-2.96976
11
9.83387
21
-2.96979
0
LINE
8
BLACK
6
CONTINUOUS
10
9.83387
20
-2.96979
11
9.83762
21
-2.97354
0
LINE
8
BLACK
6
CONTINUOUS
10
9.83762
20
-2.97354
11
9.83821
21
-2.97438
0
LINE
8
BLACK
6
CONTINUOUS
10
9.83821
20
-2.97438
11
9.83822
21
-2.97456
0
LINE
8
BLACK
6
CONTINUOUS
10
9.83822
20
-2.97456
11
9.83833
21
-2.97469
0
LINE
8
BLACK
6
CONTINUOUS
10
9.83833
20
-2.97469
11
9.84021
21
-2.98032
0
LINE
8
BLACK
6
CONTINUOUS
10
9.84021
20
-2.98032
11
9.84034
21
-2.98119
0
LINE
8
BLACK
6
CONTINUOUS
10
9.84034
20
-2.98119
11
9.84036
21
-2.98125
0
LINE
8
BLACK
6
CONTINUOUS
10
9.84036
20
-2.98125
11
9.84036
21
-2.985
0
LINE
8
BLACK
6
CONTINUOUS
10
9.84036
20
-2.985
11
9.84021
21
-2.98587
0
LINE
8
BLACK
6
CONTINUOUS
10
9.84021
20
-2.98587
11
9.84021
21
-2.98594
0
LINE
8
BLACK
6
CONTINUOUS
10
9.84021
20
-2.98594
11
9.83833
21
-2.99156
0
LINE
8
BLACK
6
CONTINUOUS
10
9.83833
20
-2.99156
11
9.83784
21
-2.99246
0
LINE
8
BLACK
6
CONTINUOUS
10
9.83784
20
-2.99246
11
9.83769
21
-2.99255
0
LINE
8
BLACK
6
CONTINUOUS
10
9.83769
20
-2.99255
11
9.83762
21
-2.99271
0
LINE
8
BLACK
6
CONTINUOUS
10
9.83762
20
-2.99271
11
9.83574
21
-2.99459
0
LINE
8
BLACK
6
CONTINUOUS
10
9.83574
20
-2.99459
11
9.8349
21
-2.99518
0
LINE
8
BLACK
6
CONTINUOUS
10
9.8349
20
-2.99518
11
9.83289
21
-2.99535
0
LINE
8
BLACK
6
CONTINUOUS
10
9.83289
20
-2.99535
11
9.83124
21
-2.99419
0
LINE
8
BLACK
6
CONTINUOUS
10
9.83124
20
-2.99419
11
9.83072
21
-2.99224
0
LINE
8
BLACK
6
CONTINUOUS
10
9.83072
20
-2.99224
11
9.83157
21
-2.99041
0
LINE
8
BLACK
6
CONTINUOUS
10
9.83157
20
-2.99041
11
9.83295
21
-2.98903
0
LINE
8
BLACK
6
CONTINUOUS
10
9.83295
20
-2.98903
11
9.83445
21
-2.98452
0
LINE
8
BLACK
6
CONTINUOUS
10
9.83445
20
-2.98452
11
9.83445
21
-2.98173
0
LINE
8
BLACK
6
CONTINUOUS
10
9.83445
20
-2.98173
11
9.83295
21
-2.97722
0
LINE
8
BLACK
6
CONTINUOUS
10
9.83295
20
-2.97722
11
9.83003
21
-2.97431
0
LINE
8
BLACK
6
CONTINUOUS
10
9.83003
20
-2.97431
11
9.827
21
-2.97279
0
LINE
8
BLACK
6
CONTINUOUS
10
9.827
20
-2.97279
11
9.82017
21
-2.97108
0
LINE
8
BLACK
6
CONTINUOUS
10
9.82017
20
-2.97108
11
9.81527
21
-2.97108
0
LINE
8
BLACK
6
CONTINUOUS
10
9.81527
20
-2.97108
11
9.80844
21
-2.97279
0
LINE
8
BLACK
6
CONTINUOUS
10
9.80844
20
-2.97279
11
9.80541
21
-2.97431
0
LINE
8
BLACK
6
CONTINUOUS
10
9.80541
20
-2.97431
11
9.80249
21
-2.97722
0
LINE
8
BLACK
6
CONTINUOUS
10
9.80249
20
-2.97722
11
9.80099
21
-2.98173
0
LINE
8
BLACK
6
CONTINUOUS
10
9.80099
20
-2.98173
11
9.80099
21
-2.98452
0
LINE
8
BLACK
6
CONTINUOUS
10
9.80099
20
-2.98452
11
9.80249
21
-2.98903
0
LINE
8
BLACK
6
CONTINUOUS
10
9.80249
20
-2.98903
11
9.80387
21
-2.99041
0
LINE
8
BLACK
6
CONTINUOUS
10
9.80387
20
-2.99041
11
9.80446
21
-2.99125
0
LINE
8
BLACK
6
CONTINUOUS
10
9.80446
20
-2.99125
11
9.80464
21
-2.99327
0
LINE
8
BLACK
6
CONTINUOUS
10
9.80464
20
-2.99327
11
9.80348
21
-2.99492
0
LINE
8
BLACK
6
CONTINUOUS
10
9.80348
20
-2.99492
11
9.80153
21
-2.99544
0
LINE
8
BLACK
6
CONTINUOUS
10
9.80153
20
-2.99544
11
9.7997
21
-2.99459
0
LINE
8
BLACK
6
CONTINUOUS
10
9.7997
20
-2.99459
11
9.79782
21
-2.99271
0
LINE
8
BLACK
6
CONTINUOUS
10
9.79782
20
-2.99271
11
9.79723
21
-2.99187
0
LINE
8
BLACK
6
CONTINUOUS
10
9.79723
20
-2.99187
11
9.79722
21
-2.9917
0
LINE
8
BLACK
6
CONTINUOUS
10
9.79722
20
-2.9917
11
9.79711
21
-2.99156
0
LINE
8
BLACK
6
CONTINUOUS
10
9.79711
20
-2.99156
11
9.79523
21
-2.98594
0
LINE
8
BLACK
6
CONTINUOUS
10
9.79523
20
-2.98594
11
9.79511
21
-2.98506
0
LINE
8
BLACK
6
CONTINUOUS
10
9.79511
20
-2.98506
11
9.79508
21
-2.985
0
LINE
8
BLACK
6
CONTINUOUS
10
9.79508
20
-2.985
11
9.79508
21
-2.98125
0
LINE
8
BLACK
6
CONTINUOUS
10
9.79508
20
-2.98125
11
9.79524
21
-2.98038
0
LINE
8
BLACK
6
CONTINUOUS
10
9.79524
20
-2.98038
11
9.79523
21
-2.98032
0
LINE
8
BLACK
6
CONTINUOUS
10
9.79523
20
-2.98032
11
9.79711
21
-2.97469
0
LINE
8
BLACK
6
CONTINUOUS
10
9.79711
20
-2.97469
11
9.7976
21
-2.97379
0
LINE
8
BLACK
6
CONTINUOUS
10
9.7976
20
-2.97379
11
9.79775
21
-2.9737
0
LINE
8
BLACK
6
CONTINUOUS
10
9.79775
20
-2.9737
11
9.79782
21
-2.97354
0
LINE
8
BLACK
6
CONTINUOUS
10
9.79782
20
-2.97354
11
9.80157
21
-2.96979
0
LINE
8
BLACK
6
CONTINUOUS
10
9.80157
20
-2.96979
11
9.8023
21
-2.96928
0
LINE
8
BLACK
6
CONTINUOUS
10
9.8023
20
-2.96928
11
9.80234
21
-2.96924
0
LINE
8
BLACK
6
CONTINUOUS
10
9.80234
20
-2.96924
11
9.80609
21
-2.96736
0
LINE
8
BLACK
6
CONTINUOUS
10
9.80609
20
-2.96736
11
9.80658
21
-2.96722
0
LINE
8
BLACK
6
CONTINUOUS
10
9.80658
20
-2.96722
11
9.80669
21
-2.96714
0
LINE
8
BLACK
6
CONTINUOUS
10
9.80669
20
-2.96714
11
9.81419
21
-2.96526
0
LINE
8
BLACK
6
CONTINUOUS
10
9.81419
20
-2.96526
11
9.81478
21
-2.96522
0
LINE
8
BLACK
6
CONTINUOUS
10
9.81478
20
-2.96522
11
9.81491
21
-2.96518
0
LINE
8
BLACK
6
CONTINUOUS
10
9.81491
20
-2.96518
11
9.82053
21
-2.96518
0
LINE
8
BLACK
6
CONTINUOUS
10
9.82053
20
-2.96518
11
9.82111
21
-2.96528
0
LINE
8
BLACK
6
CONTINUOUS
10
9.83842
20
-2.93536
11
9.83996
21
-2.93666
0
LINE
8
BLACK
6
CONTINUOUS
10
9.83996
20
-2.93666
11
9.84031
21
-2.93865
0
LINE
8
BLACK
6
CONTINUOUS
10
9.84031
20
-2.93865
11
9.8393
21
-2.94039
0
LINE
8
BLACK
6
CONTINUOUS
10
9.8393
20
-2.94039
11
9.83741
21
-2.94109
0
LINE
8
BLACK
6
CONTINUOUS
10
9.83741
20
-2.94109
11
9.80099
21
-2.94109
0
LINE
8
BLACK
6
CONTINUOUS
10
9.80099
20
-2.94109
11
9.80099
21
-2.95688
0
LINE
8
BLACK
6
CONTINUOUS
10
9.80099
20
-2.95688
11
9.80081
21
-2.95789
0
LINE
8
BLACK
6
CONTINUOUS
10
9.80081
20
-2.95789
11
9.79951
21
-2.95944
0
LINE
8
BLACK
6
CONTINUOUS
10
9.79951
20
-2.95944
11
9.79752
21
-2.95979
0
LINE
8
BLACK
6
CONTINUOUS
10
9.79752
20
-2.95979
11
9.79577
21
-2.95878
0
LINE
8
BLACK
6
CONTINUOUS
10
9.79577
20
-2.95878
11
9.79508
21
-2.95688
0
LINE
8
BLACK
6
CONTINUOUS
10
9.79508
20
-2.95688
11
9.79508
21
-2.93813
0
LINE
8
BLACK
6
CONTINUOUS
10
9.79508
20
-2.93813
11
9.79515
21
-2.93775
0
LINE
8
BLACK
6
CONTINUOUS
10
9.79515
20
-2.93775
11
9.79513
21
-2.93762
0
LINE
8
BLACK
6
CONTINUOUS
10
9.79513
20
-2.93762
11
9.79519
21
-2.93751
0
LINE
8
BLACK
6
CONTINUOUS
10
9.79519
20
-2.93751
11
9.79526
21
-2.93712
0
LINE
8
BLACK
6
CONTINUOUS
10
9.79526
20
-2.93712
11
9.79575
21
-2.93654
0
LINE
8
BLACK
6
CONTINUOUS
10
9.79575
20
-2.93654
11
9.79614
21
-2.93587
0
LINE
8
BLACK
6
CONTINUOUS
10
9.79614
20
-2.93587
11
9.79639
21
-2.93578
0
LINE
8
BLACK
6
CONTINUOUS
10
9.79639
20
-2.93578
11
9.79656
21
-2.93558
0
LINE
8
BLACK
6
CONTINUOUS
10
9.79656
20
-2.93558
11
9.79732
21
-2.93544
0
LINE
8
BLACK
6
CONTINUOUS
10
9.79732
20
-2.93544
11
9.79804
21
-2.93518
0
LINE
8
BLACK
6
CONTINUOUS
10
9.79804
20
-2.93518
11
9.83741
21
-2.93518
0
LINE
8
BLACK
6
CONTINUOUS
10
9.83741
20
-2.93518
11
9.83842
21
-2.93536
0
LINE
8
BLACK
6
CONTINUOUS
10
9.8003
20
-2.90249
11
9.80099
21
-2.90439
0
LINE
8
BLACK
6
CONTINUOUS
10
9.80099
20
-2.90439
11
9.80099
21
-2.90766
0
LINE
8
BLACK
6
CONTINUOUS
10
9.80099
20
-2.90766
11
9.80249
21
-2.91217
0
LINE
8
BLACK
6
CONTINUOUS
10
9.80249
20
-2.91217
11
9.80526
21
-2.91493
0
LINE
8
BLACK
6
CONTINUOUS
10
9.80526
20
-2.91493
11
9.80976
21
-2.91643
0
LINE
8
BLACK
6
CONTINUOUS
10
9.80976
20
-2.91643
11
9.83741
21
-2.91643
0
LINE
8
BLACK
6
CONTINUOUS
10
9.83741
20
-2.91643
11
9.83842
21
-2.91661
0
LINE
8
BLACK
6
CONTINUOUS
10
9.83842
20
-2.91661
11
9.83996
21
-2.91791
0
LINE
8
BLACK
6
CONTINUOUS
10
9.83996
20
-2.91791
11
9.84031
21
-2.9199
0
LINE
8
BLACK
6
CONTINUOUS
10
9.84031
20
-2.9199
11
9.8393
21
-2.92165
0
LINE
8
BLACK
6
CONTINUOUS
10
9.8393
20
-2.92165
11
9.83741
21
-2.92234
0
LINE
8
BLACK
6
CONTINUOUS
10
9.83741
20
-2.92234
11
9.80928
21
-2.92234
0
LINE
8
BLACK
6
CONTINUOUS
10
9.80928
20
-2.92234
11
9.80842
21
-2.92218
0
LINE
8
BLACK
6
CONTINUOUS
10
9.80842
20
-2.92218
11
9.80835
21
-2.92219
0
LINE
8
BLACK
6
CONTINUOUS
10
9.80835
20
-2.92219
11
9.80273
21
-2.92031
0
LINE
8
BLACK
6
CONTINUOUS
10
9.80273
20
-2.92031
11
9.80182
21
-2.91982
0
LINE
8
BLACK
6
CONTINUOUS
10
9.80182
20
-2.91982
11
9.80173
21
-2.91967
0
LINE
8
BLACK
6
CONTINUOUS
10
9.80173
20
-2.91967
11
9.80157
21
-2.9196
0
LINE
8
BLACK
6
CONTINUOUS
10
9.80157
20
-2.9196
11
9.79782
21
-2.91585
0
LINE
8
BLACK
6
CONTINUOUS
10
9.79782
20
-2.91585
11
9.79723
21
-2.91501
0
LINE
8
BLACK
6
CONTINUOUS
10
9.79723
20
-2.91501
11
9.79722
21
-2.91483
0
LINE
8
BLACK
6
CONTINUOUS
10
9.79722
20
-2.91483
11
9.79711
21
-2.91469
0
LINE
8
BLACK
6
CONTINUOUS
10
9.79711
20
-2.91469
11
9.79523
21
-2.90907
0
LINE
8
BLACK
6
CONTINUOUS
10
9.79523
20
-2.90907
11
9.79511
21
-2.9082
0
LINE
8
BLACK
6
CONTINUOUS
10
9.79511
20
-2.9082
11
9.79508
21
-2.90814
0
LINE
8
BLACK
6
CONTINUOUS
10
9.79508
20
-2.90814
11
9.79508
21
-2.90439
0
LINE
8
BLACK
6
CONTINUOUS
10
9.79508
20
-2.90439
11
9.79526
21
-2.90338
0
LINE
8
BLACK
6
CONTINUOUS
10
9.79526
20
-2.90338
11
9.79656
21
-2.90183
0
LINE
8
BLACK
6
CONTINUOUS
10
9.79656
20
-2.90183
11
9.79855
21
-2.90148
0
LINE
8
BLACK
6
CONTINUOUS
10
9.79855
20
-2.90148
11
9.8003
21
-2.90249
0
LINE
8
BLACK
6
CONTINUOUS
10
9.82111
20
-2.86404
11
9.82125
21
-2.86403
0
LINE
8
BLACK
6
CONTINUOUS
10
9.82125
20
-2.86403
11
9.82875
21
-2.8659
0
LINE
8
BLACK
6
CONTINUOUS
10
9.82875
20
-2.8659
11
9.82921
21
-2.86611
0
LINE
8
BLACK
6
CONTINUOUS
10
9.82921
20
-2.86611
11
9.82935
21
-2.86613
0
LINE
8
BLACK
6
CONTINUOUS
10
9.82935
20
-2.86613
11
9.8331
21
-2.868
0
LINE
8
BLACK
6
CONTINUOUS
10
9.8331
20
-2.868
11
9.83381
21
-2.86853
0
LINE
8
BLACK
6
CONTINUOUS
10
9.83381
20
-2.86853
11
9.83387
21
-2.86855
0
LINE
8
BLACK
6
CONTINUOUS
10
9.83387
20
-2.86855
11
9.83762
21
-2.8723
0
LINE
8
BLACK
6
CONTINUOUS
10
9.83762
20
-2.8723
11
9.83821
21
-2.87314
0
LINE
8
BLACK
6
CONTINUOUS
10
9.83821
20
-2.87314
11
9.83822
21
-2.87332
0
LINE
8
BLACK
6
CONTINUOUS
10
9.83822
20
-2.87332
11
9.83833
21
-2.87346
0
LINE
8
BLACK
6
CONTINUOUS
10
9.83833
20
-2.87346
11
9.84021
21
-2.87908
0
LINE
8
BLACK
6
CONTINUOUS
10
9.84021
20
-2.87908
11
9.84034
21
-2.87995
0
LINE
8
BLACK
6
CONTINUOUS
10
9.84034
20
-2.87995
11
9.84036
21
-2.88001
0
LINE
8
BLACK
6
CONTINUOUS
10
9.84036
20
-2.88001
11
9.84036
21
-2.88376
0
LINE
8
BLACK
6
CONTINUOUS
10
9.84036
20
-2.88376
11
9.84021
21
-2.88463
0
LINE
8
BLACK
6
CONTINUOUS
10
9.84021
20
-2.88463
11
9.84021
21
-2.8847
0
LINE
8
BLACK
6
CONTINUOUS
10
9.84021
20
-2.8847
11
9.83833
21
-2.89032
0
LINE
8
BLACK
6
CONTINUOUS
10
9.83833
20
-2.89032
11
9.83784
21
-2.89122
0
LINE
8
BLACK
6
CONTINUOUS
10
9.83784
20
-2.89122
11
9.83769
21
-2.89132
0
LINE
8
BLACK
6
CONTINUOUS
10
9.83769
20
-2.89132
11
9.83762
21
-2.89148
0
LINE
8
BLACK
6
CONTINUOUS
10
9.83762
20
-2.89148
11
9.83574
21
-2.89335
0
LINE
8
BLACK
6
CONTINUOUS
10
9.83574
20
-2.89335
11
9.8349
21
-2.89394
0
LINE
8
BLACK
6
CONTINUOUS
10
9.8349
20
-2.89394
11
9.83289
21
-2.89412
0
LINE
8
BLACK
6
CONTINUOUS
10
9.83289
20
-2.89412
11
9.83124
21
-2.89296
0
LINE
8
BLACK
6
CONTINUOUS
10
9.83124
20
-2.89296
11
9.83072
21
-2.89101
0
LINE
8
BLACK
6
CONTINUOUS
10
9.83072
20
-2.89101
11
9.83157
21
-2.88918
0
LINE
8
BLACK
6
CONTINUOUS
10
9.83157
20
-2.88918
11
9.83295
21
-2.88779
0
LINE
8
BLACK
6
CONTINUOUS
10
9.83295
20
-2.88779
11
9.83445
21
-2.88329
0
LINE
8
BLACK
6
CONTINUOUS
10
9.83445
20
-2.88329
11
9.83445
21
-2.88049
0
LINE
8
BLACK
6
CONTINUOUS
10
9.83445
20
-2.88049
11
9.83295
21
-2.87599
0
LINE
8
BLACK
6
CONTINUOUS
10
9.83295
20
-2.87599
11
9.83003
21
-2.87307
0
LINE
8
BLACK
6
CONTINUOUS
10
9.83003
20
-2.87307
11
9.827
21
-2.87155
0
LINE
8
BLACK
6
CONTINUOUS
10
9.827
20
-2.87155
11
9.82017
21
-2.86984
0
LINE
8
BLACK
6
CONTINUOUS
10
9.82017
20
-2.86984
11
9.81527
21
-2.86984
0
LINE
8
BLACK
6
CONTINUOUS
10
9.81527
20
-2.86984
11
9.80844
21
-2.87155
0
LINE
8
BLACK
6
CONTINUOUS
10
9.80844
20
-2.87155
11
9.80541
21
-2.87307
0
LINE
8
BLACK
6
CONTINUOUS
10
9.80541
20
-2.87307
11
9.80249
21
-2.87599
0
LINE
8
BLACK
6
CONTINUOUS
10
9.80249
20
-2.87599
11
9.80099
21
-2.88049
0
LINE
8
BLACK
6
CONTINUOUS
10
9.80099
20
-2.88049
11
9.80099
21
-2.88329
0
LINE
8
BLACK
6
CONTINUOUS
10
9.80099
20
-2.88329
11
9.80249
21
-2.88779
0
LINE
8
BLACK
6
CONTINUOUS
10
9.80249
20
-2.88779
11
9.80387
21
-2.88918
0
LINE
8
BLACK
6
CONTINUOUS
10
9.80387
20
-2.88918
11
9.80446
21
-2.89002
0
LINE
8
BLACK
6
CONTINUOUS
10
9.80446
20
-2.89002
11
9.80464
21
-2.89203
0
LINE
8
BLACK
6
CONTINUOUS
10
9.80464
20
-2.89203
11
9.80348
21
-2.89368
0
LINE
8
BLACK
6
CONTINUOUS
10
9.80348
20
-2.89368
11
9.80153
21
-2.89421
0
LINE
8
BLACK
6
CONTINUOUS
10
9.80153
20
-2.89421
11
9.7997
21
-2.89335
0
LINE
8
BLACK
6
CONTINUOUS
10
9.7997
20
-2.89335
11
9.79782
21
-2.89148
0
LINE
8
BLACK
6
CONTINUOUS
10
9.79782
20
-2.89148
11
9.79723
21
-2.89064
0
LINE
8
BLACK
6
CONTINUOUS
10
9.79723
20
-2.89064
11
9.79722
21
-2.89046
0
LINE
8
BLACK
6
CONTINUOUS
10
9.79722
20
-2.89046
11
9.79711
21
-2.89032
0
LINE
8
BLACK
6
CONTINUOUS
10
9.79711
20
-2.89032
11
9.79523
21
-2.8847
0
LINE
8
BLACK
6
CONTINUOUS
10
9.79523
20
-2.8847
11
9.79511
21
-2.88383
0
LINE
8
BLACK
6
CONTINUOUS
10
9.79511
20
-2.88383
11
9.79508
21
-2.88376
0
LINE
8
BLACK
6
CONTINUOUS
10
9.79508
20
-2.88376
11
9.79508
21
-2.88001
0
LINE
8
BLACK
6
CONTINUOUS
10
9.79508
20
-2.88001
11
9.79524
21
-2.87915
0
LINE
8
BLACK
6
CONTINUOUS
10
9.79524
20
-2.87915
11
9.79523
21
-2.87908
0
LINE
8
BLACK
6
CONTINUOUS
10
9.79523
20
-2.87908
11
9.79711
21
-2.87346
0
LINE
8
BLACK
6
CONTINUOUS
10
9.79711
20
-2.87346
11
9.7976
21
-2.87256
0
LINE
8
BLACK
6
CONTINUOUS
10
9.7976
20
-2.87256
11
9.79775
21
-2.87246
0
LINE
8
BLACK
6
CONTINUOUS
10
9.79775
20
-2.87246
11
9.79782
21
-2.8723
0
LINE
8
BLACK
6
CONTINUOUS
10
9.79782
20
-2.8723
11
9.80157
21
-2.86855
0
LINE
8
BLACK
6
CONTINUOUS
10
9.80157
20
-2.86855
11
9.8023
21
-2.86805
0
LINE
8
BLACK
6
CONTINUOUS
10
9.8023
20
-2.86805
11
9.80234
21
-2.868
0
LINE
8
BLACK
6
CONTINUOUS
10
9.80234
20
-2.868
11
9.80609
21
-2.86613
0
LINE
8
BLACK
6
CONTINUOUS
10
9.80609
20
-2.86613
11
9.80658
21
-2.86598
0
LINE
8
BLACK
6
CONTINUOUS
10
9.80658
20
-2.86598
11
9.80669
21
-2.8659
0
LINE
8
BLACK
6
CONTINUOUS
10
9.80669
20
-2.8659
11
9.81419
21
-2.86403
0
LINE
8
BLACK
6
CONTINUOUS
10
9.81419
20
-2.86403
11
9.81478
21
-2.86399
0
LINE
8
BLACK
6
CONTINUOUS
10
9.81478
20
-2.86399
11
9.81491
21
-2.86394
0
LINE
8
BLACK
6
CONTINUOUS
10
9.81491
20
-2.86394
11
9.82053
21
-2.86394
0
LINE
8
BLACK
6
CONTINUOUS
10
9.82053
20
-2.86394
11
9.82111
21
-2.86404
0
LINE
8
BLACK
6
CONTINUOUS
10
9.83842
20
-2.83412
11
9.83996
21
-2.83542
0
LINE
8
BLACK
6
CONTINUOUS
10
9.83996
20
-2.83542
11
9.84031
21
-2.83741
0
LINE
8
BLACK
6
CONTINUOUS
10
9.84031
20
-2.83741
11
9.8393
21
-2.83916
0
LINE
8
BLACK
6
CONTINUOUS
10
9.8393
20
-2.83916
11
9.83741
21
-2.83985
0
LINE
8
BLACK
6
CONTINUOUS
10
9.83741
20
-2.83985
11
9.80099
21
-2.83985
0
LINE
8
BLACK
6
CONTINUOUS
10
9.80099
20
-2.83985
11
9.80099
21
-2.85564
0
LINE
8
BLACK
6
CONTINUOUS
10
9.80099
20
-2.85564
11
9.80081
21
-2.85665
0
LINE
8
BLACK
6
CONTINUOUS
10
9.80081
20
-2.85665
11
9.79951
21
-2.8582
0
LINE
8
BLACK
6
CONTINUOUS
10
9.79951
20
-2.8582
11
9.79752
21
-2.85855
0
LINE
8
BLACK
6
CONTINUOUS
10
9.79752
20
-2.85855
11
9.79577
21
-2.85754
0
LINE
8
BLACK
6
CONTINUOUS
10
9.79577
20
-2.85754
11
9.79508
21
-2.85564
0
LINE
8
BLACK
6
CONTINUOUS
10
9.79508
20
-2.85564
11
9.79508
21
-2.8369
0
LINE
8
BLACK
6
CONTINUOUS
10
9.79508
20
-2.8369
11
9.79515
21
-2.83651
0
LINE
8
BLACK
6
CONTINUOUS
10
9.79515
20
-2.83651
11
9.79513
21
-2.83638
0
LINE
8
BLACK
6
CONTINUOUS
10
9.79513
20
-2.83638
11
9.79519
21
-2.83627
0
LINE
8
BLACK
6
CONTINUOUS
10
9.79519
20
-2.83627
11
9.79526
21
-2.83589
0
LINE
8
BLACK
6
CONTINUOUS
10
9.79526
20
-2.83589
11
9.79575
21
-2.8353
0
LINE
8
BLACK
6
CONTINUOUS
10
9.79575
20
-2.8353
11
9.79614
21
-2.83463
0
LINE
8
BLACK
6
CONTINUOUS
10
9.79614
20
-2.83463
11
9.79639
21
-2.83454
0
LINE
8
BLACK
6
CONTINUOUS
10
9.79639
20
-2.83454
11
9.79656
21
-2.83434
0
LINE
8
BLACK
6
CONTINUOUS
10
9.79656
20
-2.83434
11
9.79732
21
-2.8342
0
LINE
8
BLACK
6
CONTINUOUS
10
9.79732
20
-2.8342
11
9.79804
21
-2.83394
0
LINE
8
BLACK
6
CONTINUOUS
10
9.79804
20
-2.83394
11
9.83741
21
-2.83394
0
LINE
8
BLACK
6
CONTINUOUS
10
9.83741
20
-2.83394
11
9.83842
21
-2.83412
0
LINE
8
BLACK
6
CONTINUOUS
10
9.8003
20
-2.80125
11
9.80099
21
-2.80315
0
LINE
8
BLACK
6
CONTINUOUS
10
9.80099
20
-2.80315
11
9.80099
21
-2.80642
0
LINE
8
BLACK
6
CONTINUOUS
10
9.80099
20
-2.80642
11
9.80249
21
-2.81093
0
LINE
8
BLACK
6
CONTINUOUS
10
9.80249
20
-2.81093
11
9.80526
21
-2.81369
0
LINE
8
BLACK
6
CONTINUOUS
10
9.80526
20
-2.81369
11
9.80976
21
-2.81519
0
LINE
8
BLACK
6
CONTINUOUS
10
9.80976
20
-2.81519
11
9.83741
21
-2.81519
0
LINE
8
BLACK
6
CONTINUOUS
10
9.83741
20
-2.81519
11
9.83842
21
-2.81537
0
LINE
8
BLACK
6
CONTINUOUS
10
9.83842
20
-2.81537
11
9.83996
21
-2.81667
0
LINE
8
BLACK
6
CONTINUOUS
10
9.83996
20
-2.81667
11
9.84031
21
-2.81866
0
LINE
8
BLACK
6
CONTINUOUS
10
9.84031
20
-2.81866
11
9.8393
21
-2.82041
0
LINE
8
BLACK
6
CONTINUOUS
10
9.8393
20
-2.82041
11
9.83741
21
-2.8211
0
LINE
8
BLACK
6
CONTINUOUS
10
9.83741
20
-2.8211
11
9.80928
21
-2.8211
0
LINE
8
BLACK
6
CONTINUOUS
10
9.80928
20
-2.8211
11
9.80842
21
-2.82095
0
LINE
8
BLACK
6
CONTINUOUS
10
9.80842
20
-2.82095
11
9.80835
21
-2.82095
0
LINE
8
BLACK
6
CONTINUOUS
10
9.80835
20
-2.82095
11
9.80273
21
-2.81907
0
LINE
8
BLACK
6
CONTINUOUS
10
9.80273
20
-2.81907
11
9.80182
21
-2.81859
0
LINE
8
BLACK
6
CONTINUOUS
10
9.80182
20
-2.81859
11
9.80173
21
-2.81844
0
LINE
8
BLACK
6
CONTINUOUS
10
9.80173
20
-2.81844
11
9.80157
21
-2.81836
0
LINE
8
BLACK
6
CONTINUOUS
10
9.80157
20
-2.81836
11
9.79782
21
-2.81461
0
LINE
8
BLACK
6
CONTINUOUS
10
9.79782
20
-2.81461
11
9.79723
21
-2.81377
0
LINE
8
BLACK
6
CONTINUOUS
10
9.79723
20
-2.81377
11
9.79722
21
-2.8136
0
LINE
8
BLACK
6
CONTINUOUS
10
9.79722
20
-2.8136
11
9.79711
21
-2.81346
0
LINE
8
BLACK
6
CONTINUOUS
10
9.79711
20
-2.81346
11
9.79523
21
-2.80783
0
LINE
8
BLACK
6
CONTINUOUS
10
9.79523
20
-2.80783
11
9.79511
21
-2.80696
0
LINE
8
BLACK
6
CONTINUOUS
10
9.79511
20
-2.80696
11
9.79508
21
-2.8069
0
LINE
8
BLACK
6
CONTINUOUS
10
9.79508
20
-2.8069
11
9.79508
21
-2.80315
0
LINE
8
BLACK
6
CONTINUOUS
10
9.79508
20
-2.80315
11
9.79526
21
-2.80214
0
LINE
8
BLACK
6
CONTINUOUS
10
9.79526
20
-2.80214
11
9.79656
21
-2.80059
0
LINE
8
BLACK
6
CONTINUOUS
10
9.79656
20
-2.80059
11
9.79855
21
-2.80024
0
LINE
8
BLACK
6
CONTINUOUS
10
9.79855
20
-2.80024
11
9.8003
21
-2.80125
  0
ENDSEC
  0
EOF
