M48
; DRILL file {KiCad (7.0.0)} date Tue Feb  6 10:54:21 2024
; FORMAT={-:-/ absolute / inch / decimal}
; #@! TF.CreationDate,2024-02-06T10:54:21+01:00
; #@! TF.GenerationSoftware,Kicad,Pcbnew,(7.0.0)
; #@! TF.FileFunction,Plated,1,4,PTH
FMAT,2
INCH
; #@! TA.AperFunction,Plated,PTH,ViaDrill
T1C0.0157
; #@! TA.AperFunction,Plated,PTH,ComponentDrill
T2C0.0315
; #@! TA.AperFunction,Plated,PTH,ComponentDrill
T3C0.0394
%
G90
G05
T1
X1.855Y-3.0
X1.865Y-2.0
X1.95Y-2.75
X2.025Y-3.75
X2.085Y-2.25
X2.14Y-3.5
X2.165Y-2.25
X2.18Y-3.0
X2.255Y-3.0
X2.365Y-3.75
X2.3652Y-2.5266
X2.3668Y-2.5987
X2.445Y-3.75
X2.4452Y-2.5266
X2.4468Y-2.5987
X2.4887Y-3.2782
X2.489Y-3.3492
X2.5687Y-3.2782
X2.569Y-3.3492
X2.585Y-3.0
X2.6425Y-4.0193
X2.6425Y-4.0965
X2.695Y-3.0
X2.7941Y-4.0202
X2.835Y-2.25
X2.915Y-2.25
X2.925Y-3.91
X2.9308Y-4.1042
X2.9314Y-4.0215
X2.98Y-1.925
X2.985Y-4.755
X3.02Y-3.0
X3.0433Y-4.2643
X3.0484Y-2.0116
X3.0551Y-4.1041
X3.0552Y-4.0223
X3.065Y-3.75
X3.0938Y-2.5
X3.0938Y-2.6875
X3.0948Y-2.597
X3.105Y-3.0
X3.1352Y-4.0223
X3.136Y-4.1041
X3.1875Y-2.365
X3.2Y-2.255
X3.2106Y-4.5
X3.2358Y-2.5257
X3.25Y-1.9685
X3.2504Y-3.2783
X3.2507Y-3.3493
X3.2894Y-4.5
X3.31Y-2.75
X3.3125Y-2.6875
X3.3149Y-2.2554
X3.3304Y-3.2783
X3.3307Y-3.3493
X3.375Y-2.6875
X3.376Y-2.597
X3.395Y-3.75
X3.3972Y-4.1029
X3.435Y-2.86
X3.435Y-3.15
X3.4375Y-2.5
X3.4375Y-4.25
X3.4509Y-2.0119
X3.4769Y-3.75
X3.5Y-2.6875
X3.501Y-2.597
X3.52Y-1.925
X3.5625Y-4.125
X3.585Y-2.25
X3.625Y-2.597
X3.625Y-2.6875
X3.625Y-4.0
X3.625Y-4.1006
X3.625Y-4.625
X3.6562Y-4.25
X3.6644Y-2.25
X3.75Y-2.597
X3.75Y-2.6875
X3.775Y-3.0
X3.7978Y-4.0006
X3.81Y-3.75
X3.85Y-3.0
X3.8749Y-2.5965
X3.875Y-2.6875
X3.875Y-4.2812
X3.875Y-4.7657
X3.89Y-2.0
X3.906Y-4.1004
X3.9298Y-2.5288
X3.9318Y-2.5966
X3.98Y-4.0
X3.981Y-3.3502
X3.9811Y-4.1006
X3.9825Y-3.2727
X4.0Y-2.25
X4.0098Y-2.5288
X4.0118Y-2.5966
X4.0123Y-2.6875
X4.0543Y-4.5
X4.061Y-3.3502
X4.0625Y-3.2727
X4.1232Y-4.1011
X4.125Y-2.5969
X4.125Y-2.6881
X4.1331Y-4.5
X4.1481Y-3.75
X4.19Y-3.0
X4.2269Y-3.75
X4.2495Y-2.5962
X4.25Y-2.6881
X4.25Y-4.102
X4.335Y-2.25
X4.375Y-2.5969
X4.375Y-2.6881
X4.375Y-4.1029
X4.375Y-4.25
X4.4144Y-2.25
X4.46Y-4.5
X4.4943Y-4.25
X4.4989Y-2.597
X4.4999Y-4.1031
X4.5Y-2.6881
X4.5Y-4.7657
X4.525Y-3.0
X4.5515Y-4.0055
X4.56Y-3.595
X4.56Y-3.91
X4.5865Y-4.1014
X4.6019Y-3.0
X4.6193Y-4.25
X4.6238Y-2.5973
X4.625Y-2.6875
X4.625Y-4.7657
X4.6604Y-4.1024
X4.6861Y-2.5264
X4.6876Y-2.5974
X4.7329Y-3.2783
X4.7332Y-3.3493
X4.7443Y-4.25
X4.75Y-2.095
X4.75Y-2.4
X4.75Y-4.7657
X4.7594Y-4.1034
X4.76Y-4.005
X4.7661Y-2.5264
X4.7676Y-2.5974
X4.7688Y-2.6903
X4.8125Y-4.6562
X4.8129Y-3.2783
X4.8132Y-3.3493
X4.842Y-4.1043
X4.875Y-2.5965
X4.875Y-2.6893
X4.8981Y-3.75
X4.9006Y-4.25
X4.9063Y-4.7657
X4.935Y-2.855
X4.935Y-3.15
X4.9688Y-4.1048
X4.9769Y-3.75
X5.0Y-2.5965
X5.0Y-2.6893
X5.085Y-2.25
X5.0938Y-4.1048
X5.125Y-2.5965
X5.125Y-2.6893
X5.1644Y-2.25
X5.175Y-4.01
X5.1793Y-4.5
X5.2188Y-4.1043
X5.25Y-2.6893
X5.2513Y-2.5966
X5.2581Y-4.5
X5.275Y-3.0
X5.275Y-4.005
X5.31Y-3.75
X5.3385Y-4.1048
X5.3519Y-3.0
X5.375Y-2.6875
X5.3763Y-2.5966
X5.4165Y-4.1062
X5.4281Y-2.5974
X5.4292Y-2.5288
X5.445Y-4.015
X5.4824Y-3.2774
X5.4828Y-3.3484
X5.5Y-2.25
X5.5081Y-2.5974
X5.5092Y-2.5288
X5.51Y-2.6909
X5.5185Y-4.3986
X5.5312Y-4.1076
X5.5312Y-4.1875
X5.5624Y-3.2774
X5.5628Y-3.3484
X5.585Y-2.855
X5.585Y-3.15
X5.5938Y-4.1875
X5.5938Y-4.25
X5.595Y-4.355
X5.6481Y-3.75
X5.6518Y-4.4271
X5.6562Y-4.108
X5.6562Y-4.3125
X5.6755Y-4.1991
X5.684Y-4.5754
X5.695Y-2.5278
X5.695Y-2.665
X5.695Y-2.855
X5.695Y-3.0
X5.695Y-3.15
X5.6964Y-3.2761
X5.6975Y-3.3633
X5.725Y-4.2
X5.7269Y-3.75
X5.735Y-3.3459
X5.7749Y-2.5278
X5.775Y-2.665
X5.775Y-2.855
X5.775Y-3.15
X5.7793Y-4.1072
X5.79Y-4.225
X5.7949Y-3.3455
X5.8227Y-4.3021
X5.835Y-2.25
X5.835Y-4.015
X5.8438Y-4.125
X5.8499Y-3.2772
X5.8722Y-4.265
X5.8724Y-4.5876
X5.8736Y-4.7043
X5.8856Y-4.02
X5.9062Y-3.5
X5.915Y-2.25
X5.925Y-4.02
X5.945Y-3.91
X6.0072Y-4.445
X6.025Y-3.0
X6.0363Y-4.104
X6.0451Y-4.2119
X6.0625Y-3.5
X6.0625Y-3.625
X6.0625Y-3.9062
X6.0625Y-4.0184
X6.0631Y-3.3615
X6.0938Y-4.1549
X6.1Y-3.0
X6.16Y-2.5255
X6.1604Y-2.5965
X6.1636Y-4.6114
X6.1727Y-4.125
X6.1727Y-4.1875
X6.1875Y-3.91
X6.1926Y-4.2639
X6.1948Y-4.7782
X6.195Y-4.36
X6.195Y-4.44
X6.195Y-4.6985
X6.1952Y-4.3998
X6.1955Y-4.7384
X6.2188Y-3.5
X6.24Y-2.5255
X6.2404Y-2.5965
X6.2438Y-3.2778
X6.2442Y-3.3488
X6.25Y-2.25
X6.25Y-4.25
X6.2501Y-4.1071
X6.26Y-4.36
X6.3238Y-3.2778
X6.3242Y-3.3488
X6.3351Y-4.1056
X6.3354Y-4.0275
X6.3438Y-4.25
X6.3981Y-3.75
X6.44Y-3.0
X6.4688Y-4.1059
X6.4769Y-3.75
X6.49Y-4.5
X6.57Y-4.5
X6.585Y-2.25
X6.5938Y-4.1059
X6.665Y-2.25
X6.675Y-4.015
X6.7196Y-4.1066
X6.765Y-4.015
X6.77Y-3.0
X6.788Y-4.2335
X6.815Y-3.75
X6.8336Y-4.106
X6.85Y-3.0
X6.9062Y-4.2335
X6.9076Y-4.107
X6.9216Y-2.5273
X6.9219Y-2.5983
X6.925Y-4.015
X6.975Y-4.325
X6.975Y-4.6875
X6.9755Y-3.2778
X6.9758Y-3.3488
X7.0Y-2.095
X7.0Y-2.4
X7.0016Y-2.5273
X7.0019Y-2.5983
X7.0312Y-4.1073
X7.0312Y-4.2335
X7.0555Y-3.2778
X7.0558Y-3.3488
X7.1481Y-3.75
X7.1562Y-4.1073
X7.1562Y-4.2261
X7.185Y-2.85
X7.185Y-3.15
X7.2188Y-4.325
X7.2188Y-4.6875
X7.2269Y-3.75
X7.2528Y-4.2261
X7.281Y-4.1068
X7.29Y-4.5
X7.335Y-2.25
X7.3707Y-4.2255
X7.375Y-4.02
X7.406Y-4.1068
X7.4144Y-2.25
X7.4268Y-4.7911
X7.4466Y-4.2886
X7.4895Y-4.106
X7.4898Y-4.0198
X7.525Y-3.0
X7.56Y-3.595
X7.5803Y-4.0192
X7.5812Y-4.1063
X7.6Y-3.0
X7.615Y-4.5
X7.659Y-4.107
X7.6773Y-2.5273
X7.6776Y-2.5983
X7.695Y-4.5
X7.7295Y-3.3502
X7.7299Y-3.2764
X7.75Y-2.25
X7.7573Y-2.5273
X7.7576Y-2.5983
X7.7812Y-4.1072
X7.8095Y-3.3502
X7.8099Y-3.2764
X7.8682Y-4.7935
X7.8981Y-3.75
X7.9003Y-4.2299
X7.9006Y-4.1853
X7.937Y-4.1172
X7.94Y-3.0
X7.9769Y-3.75
X8.025Y-4.5
X8.0613Y-4.2057
X8.0625Y-4.1091
X8.0625Y-4.245
X8.085Y-2.25
X8.125Y-4.6562
X8.1301Y-4.2304
X8.1562Y-3.995
X8.165Y-2.25
X8.1875Y-4.1089
X8.25Y-3.9964
X8.275Y-3.0
X8.2812Y-4.2912
X8.2816Y-4.2117
X8.315Y-3.75
X8.3339Y-4.1091
X8.3427Y-4.0
X8.35Y-3.0
X8.4153Y-2.5273
X8.4157Y-2.5983
X8.4375Y-4.1082
X8.4419Y-4.0193
X8.46Y-4.5
X8.4753Y-3.2769
X8.4756Y-3.3479
X8.4953Y-2.5273
X8.4957Y-2.5983
X8.5Y-2.25
X8.54Y-4.5
X8.5553Y-3.2769
X8.5556Y-3.3479
X8.5597Y-4.1084
X8.6481Y-3.75
X8.6875Y-4.1084
X8.7269Y-3.75
X8.77Y-4.75
X8.7812Y-4.2812
X8.83Y-2.85
X8.83Y-3.155
X8.835Y-2.25
X8.8987Y-4.0
X8.915Y-2.25
X8.975Y-3.0
X9.0Y-3.875
X9.0Y-4.0
X9.025Y-3.75
X9.1147Y-3.8532
X9.115Y-3.59
X9.1155Y-3.9991
X9.1274Y-2.527
X9.1277Y-2.5981
X9.1384Y-3.3507
X9.1387Y-3.2757
X9.2074Y-2.527
X9.2077Y-2.5981
X9.2184Y-3.3507
X9.2187Y-3.2757
X9.25Y-2.1
X9.25Y-2.405
X9.305Y-3.0
X9.3125Y-4.0
X9.38Y-3.0
X9.4919Y-3.75
X9.57Y-3.75
X9.585Y-2.25
X9.605Y-3.375
X9.61Y-2.745
X9.665Y-2.25
X9.6875Y-3.0
X9.7037Y-4.0026
X9.725Y-3.505
X9.7875Y-3.9925
X9.885Y-2.0
X9.885Y-3.745
X9.89Y-2.5
T2
X2.9261Y-3.4558
X2.9261Y-3.5306
X2.9261Y-3.6054
T3
X7.125Y-4.4498
X7.125Y-4.5498
T0
M30
