%TF.GenerationSoftware,KiCad,Pcbnew,(7.0.0)*%
%TF.CreationDate,2024-01-31T22:55:10+01:00*%
%TF.ProjectId,travaulta HHKB,74726176-6175-46c7-9461-2048484b422e,rev?*%
%TF.SameCoordinates,Original*%
%TF.FileFunction,Paste,Bot*%
%TF.FilePolarity,Positive*%
%FSLAX46Y46*%
G04 Gerber Fmt 4.6, Leading zero omitted, Abs format (unit mm)*
G04 Created by KiCad (PCBNEW (7.0.0)) date 2024-01-31 22:55:10*
%MOMM*%
%LPD*%
G01*
G04 APERTURE LIST*
G04 Aperture macros list*
%AMRoundRect*
0 Rectangle with rounded corners*
0 $1 Rounding radius*
0 $2 $3 $4 $5 $6 $7 $8 $9 X,Y pos of 4 corners*
0 Add a 4 corners polygon primitive as box body*
4,1,4,$2,$3,$4,$5,$6,$7,$8,$9,$2,$3,0*
0 Add four circle primitives for the rounded corners*
1,1,$1+$1,$2,$3*
1,1,$1+$1,$4,$5*
1,1,$1+$1,$6,$7*
1,1,$1+$1,$8,$9*
0 Add four rect primitives between the rounded corners*
20,1,$1+$1,$2,$3,$4,$5,0*
20,1,$1+$1,$4,$5,$6,$7,0*
20,1,$1+$1,$6,$7,$8,$9,0*
20,1,$1+$1,$8,$9,$2,$3,0*%
G04 Aperture macros list end*
%ADD10R,0.400000X1.900000*%
%ADD11RoundRect,0.140000X0.140000X0.170000X-0.140000X0.170000X-0.140000X-0.170000X0.140000X-0.170000X0*%
%ADD12RoundRect,0.140000X-0.140000X-0.170000X0.140000X-0.170000X0.140000X0.170000X-0.140000X0.170000X0*%
%ADD13RoundRect,0.140000X-0.170000X0.140000X-0.170000X-0.140000X0.170000X-0.140000X0.170000X0.140000X0*%
%ADD14RoundRect,0.150000X-0.825000X-0.150000X0.825000X-0.150000X0.825000X0.150000X-0.825000X0.150000X0*%
%ADD15RoundRect,0.135000X-0.185000X0.135000X-0.185000X-0.135000X0.185000X-0.135000X0.185000X0.135000X0*%
%ADD16RoundRect,0.135000X0.185000X-0.135000X0.185000X0.135000X-0.185000X0.135000X-0.185000X-0.135000X0*%
%ADD17RoundRect,0.135000X-0.135000X-0.185000X0.135000X-0.185000X0.135000X0.185000X-0.135000X0.185000X0*%
%ADD18RoundRect,0.250000X0.315000X-0.315000X0.315000X0.315000X-0.315000X0.315000X-0.315000X-0.315000X0*%
%ADD19RoundRect,0.062500X0.062500X-0.375000X0.062500X0.375000X-0.062500X0.375000X-0.062500X-0.375000X0*%
%ADD20RoundRect,0.062500X0.375000X-0.062500X0.375000X0.062500X-0.375000X0.062500X-0.375000X-0.062500X0*%
%ADD21RoundRect,0.135000X0.135000X0.185000X-0.135000X0.185000X-0.135000X-0.185000X0.135000X-0.185000X0*%
%ADD22R,1.778000X0.419100*%
%ADD23RoundRect,0.250000X-0.625000X0.375000X-0.625000X-0.375000X0.625000X-0.375000X0.625000X0.375000X0*%
%ADD24R,0.700000X1.000000*%
%ADD25R,0.700000X0.600000*%
%ADD26RoundRect,0.140000X0.170000X-0.140000X0.170000X0.140000X-0.170000X0.140000X-0.170000X-0.140000X0*%
%ADD27RoundRect,0.150000X0.587500X0.150000X-0.587500X0.150000X-0.587500X-0.150000X0.587500X-0.150000X0*%
%ADD28RoundRect,0.237500X0.250000X0.237500X-0.250000X0.237500X-0.250000X-0.237500X0.250000X-0.237500X0*%
%ADD29RoundRect,0.050000X-0.300000X-0.650000X0.300000X-0.650000X0.300000X0.650000X-0.300000X0.650000X0*%
%ADD30RoundRect,0.050000X-0.150000X-0.650000X0.150000X-0.650000X0.150000X0.650000X-0.150000X0.650000X0*%
%ADD31RoundRect,0.050000X-1.000000X-1.000000X1.000000X-1.000000X1.000000X1.000000X-1.000000X1.000000X0*%
G04 APERTURE END LIST*
D10*
%TO.C,Y1*%
X153415999Y-118744999D03*
X154615999Y-118744999D03*
X155815999Y-118744999D03*
%TD*%
D11*
%TO.C,C7*%
X147984000Y-108331000D03*
X147024000Y-108331000D03*
%TD*%
D12*
%TO.C,C12*%
X202609436Y-104534305D03*
X203569436Y-104534305D03*
%TD*%
D13*
%TO.C,C15*%
X149031000Y-117540000D03*
X149031000Y-118500000D03*
%TD*%
D14*
%TO.C,U5*%
X141899097Y-118120501D03*
X141899097Y-116850501D03*
X141899097Y-115580501D03*
X141899097Y-114310501D03*
X146849097Y-114310501D03*
X146849097Y-115580501D03*
X146849097Y-116850501D03*
X146849097Y-118120501D03*
%TD*%
D15*
%TO.C,R7*%
X146843750Y-110107000D03*
X146843750Y-111127000D03*
%TD*%
D16*
%TO.C,R11*%
X98425000Y-102110000D03*
X98425000Y-101090000D03*
%TD*%
D15*
%TO.C,R2*%
X151511000Y-105877000D03*
X151511000Y-106897000D03*
%TD*%
D12*
%TO.C,C9*%
X157311000Y-115663994D03*
X158271000Y-115663994D03*
%TD*%
D17*
%TO.C,R4*%
X152525000Y-105918000D03*
X153545000Y-105918000D03*
%TD*%
D18*
%TO.C,U1*%
X150554000Y-115003000D03*
X151954000Y-115003000D03*
X153354000Y-115003000D03*
X154754000Y-115003000D03*
X150554000Y-113603000D03*
X151954000Y-113603000D03*
X153354000Y-113603000D03*
X154754000Y-113603000D03*
X150554000Y-112203000D03*
X151954000Y-112203000D03*
X153354000Y-112203000D03*
X154754000Y-112203000D03*
X150554000Y-110803000D03*
X151954000Y-110803000D03*
X153354000Y-110803000D03*
X154754000Y-110803000D03*
D19*
X155404000Y-116340500D03*
X154904000Y-116340500D03*
X154404000Y-116340500D03*
X153904000Y-116340500D03*
X153404000Y-116340500D03*
X152904000Y-116340500D03*
X152404000Y-116340500D03*
X151904000Y-116340500D03*
X151404000Y-116340500D03*
X150904000Y-116340500D03*
X150404000Y-116340500D03*
X149904000Y-116340500D03*
D20*
X149216500Y-115653000D03*
X149216500Y-115153000D03*
X149216500Y-114653000D03*
X149216500Y-114153000D03*
X149216500Y-113653000D03*
X149216500Y-113153000D03*
X149216500Y-112653000D03*
X149216500Y-112153000D03*
X149216500Y-111653000D03*
X149216500Y-111153000D03*
X149216500Y-110653000D03*
X149216500Y-110153000D03*
D19*
X149904000Y-109465500D03*
X150404000Y-109465500D03*
X150904000Y-109465500D03*
X151404000Y-109465500D03*
X151904000Y-109465500D03*
X152404000Y-109465500D03*
X152904000Y-109465500D03*
X153404000Y-109465500D03*
X153904000Y-109465500D03*
X154404000Y-109465500D03*
X154904000Y-109465500D03*
X155404000Y-109465500D03*
D20*
X156091500Y-110153000D03*
X156091500Y-110653000D03*
X156091500Y-111153000D03*
X156091500Y-111653000D03*
X156091500Y-112153000D03*
X156091500Y-112653000D03*
X156091500Y-113153000D03*
X156091500Y-113653000D03*
X156091500Y-114153000D03*
X156091500Y-114653000D03*
X156091500Y-115153000D03*
X156091500Y-115653000D03*
%TD*%
D16*
%TO.C,R12*%
X157956250Y-102110000D03*
X157956250Y-101090000D03*
%TD*%
%TO.C,R15*%
X69088000Y-100522500D03*
X69088000Y-99502500D03*
%TD*%
D13*
%TO.C,C11*%
X151063000Y-117540000D03*
X151063000Y-118500000D03*
%TD*%
D21*
%TO.C,R13*%
X76305148Y-107156250D03*
X75285148Y-107156250D03*
%TD*%
D12*
%TO.C,C8*%
X157311000Y-109474000D03*
X158271000Y-109474000D03*
%TD*%
D16*
%TO.C,R10*%
X174625000Y-102110000D03*
X174625000Y-101090000D03*
%TD*%
D22*
%TO.C,U3*%
X208555589Y-105676699D03*
X208555589Y-106326939D03*
X208555589Y-106977179D03*
X208555589Y-107627419D03*
X208555589Y-108272579D03*
X208555589Y-108922819D03*
X208555589Y-109573059D03*
X208555589Y-110223299D03*
X202606909Y-110223299D03*
X202606909Y-109573059D03*
X202606909Y-108922819D03*
X202606909Y-108272579D03*
X202606909Y-107627419D03*
X202606909Y-106977179D03*
X202606909Y-106326939D03*
X202606909Y-105676699D03*
%TD*%
D16*
%TO.C,R1*%
X148463000Y-106897000D03*
X148463000Y-105877000D03*
%TD*%
D15*
%TO.C,R16*%
X234156250Y-99377387D03*
X234156250Y-100397387D03*
%TD*%
D11*
%TO.C,C14*%
X141132500Y-112712500D03*
X140172500Y-112712500D03*
%TD*%
D16*
%TO.C,R9*%
X149479000Y-106897000D03*
X149479000Y-105877000D03*
%TD*%
D11*
%TO.C,C13*%
X89380000Y-104485820D03*
X88420000Y-104485820D03*
%TD*%
D17*
%TO.C,R21*%
X146332687Y-119390501D03*
X147352687Y-119390501D03*
%TD*%
D12*
%TO.C,C5*%
X81943000Y-69850000D03*
X82903000Y-69850000D03*
%TD*%
D16*
%TO.C,R20*%
X193675000Y-102110000D03*
X193675000Y-101090000D03*
%TD*%
D21*
%TO.C,R23*%
X142592312Y-119390501D03*
X141572312Y-119390501D03*
%TD*%
D15*
%TO.C,R14*%
X208548088Y-111558447D03*
X208548088Y-112578447D03*
%TD*%
D17*
%TO.C,R6*%
X150169000Y-119507000D03*
X151189000Y-119507000D03*
%TD*%
D23*
%TO.C,F_USBC1*%
X80962500Y-58671000D03*
X80962500Y-61471000D03*
%TD*%
D24*
%TO.C,D1*%
X84692999Y-59828999D03*
D25*
X84692999Y-61528999D03*
X82692999Y-61528999D03*
X82692999Y-59628999D03*
%TD*%
D16*
%TO.C,R18*%
X81280000Y-56356250D03*
X81280000Y-55336250D03*
%TD*%
D15*
%TO.C,R3*%
X157410000Y-113663000D03*
X157410000Y-114683000D03*
%TD*%
%TO.C,R8*%
X150495000Y-105877000D03*
X150495000Y-106897000D03*
%TD*%
D17*
%TO.C,R5*%
X222146885Y-107164145D03*
X223166885Y-107164145D03*
%TD*%
D26*
%TO.C,C1*%
X147885000Y-111097000D03*
X147885000Y-110137000D03*
%TD*%
D12*
%TO.C,C4*%
X80927000Y-62865000D03*
X81887000Y-62865000D03*
%TD*%
D22*
%TO.C,U4*%
X95843089Y-105676699D03*
X95843089Y-106326939D03*
X95843089Y-106977179D03*
X95843089Y-107627419D03*
X95843089Y-108272579D03*
X95843089Y-108922819D03*
X95843089Y-109573059D03*
X95843089Y-110223299D03*
X89894409Y-110223299D03*
X89894409Y-109573059D03*
X89894409Y-108922819D03*
X89894409Y-108272579D03*
X89894409Y-107627419D03*
X89894409Y-106977179D03*
X89894409Y-106326939D03*
X89894409Y-105676699D03*
%TD*%
D13*
%TO.C,C6*%
X157410000Y-117503000D03*
X157410000Y-118463000D03*
%TD*%
D27*
%TO.C,U2*%
X81963500Y-66614000D03*
X81963500Y-68514000D03*
X80088500Y-67564000D03*
%TD*%
D28*
%TO.C,JP1*%
X145462340Y-120650000D03*
X143637340Y-120650000D03*
%TD*%
D29*
%TO.C,USB1*%
X79350000Y-53631250D03*
X80150000Y-53631250D03*
D30*
X80800000Y-53631250D03*
X81300000Y-53631250D03*
X81800000Y-53631250D03*
X82300000Y-53631250D03*
X82800000Y-53631250D03*
X83300000Y-53631250D03*
X83800000Y-53631250D03*
X84300000Y-53631250D03*
D29*
X84950000Y-53631250D03*
X85750000Y-53631250D03*
D31*
X77430000Y-48871250D03*
X77430000Y-52771250D03*
X87670000Y-48871250D03*
X87670000Y-52771250D03*
%TD*%
D16*
%TO.C,R19*%
X136525000Y-102110000D03*
X136525000Y-101090000D03*
%TD*%
D15*
%TO.C,R24*%
X84201000Y-55336250D03*
X84201000Y-56356250D03*
%TD*%
D13*
%TO.C,C10*%
X150047000Y-117540000D03*
X150047000Y-118500000D03*
%TD*%
D16*
%TO.C,R17*%
X117475000Y-102110000D03*
X117475000Y-101090000D03*
%TD*%
M02*
