%TF.GenerationSoftware,KiCad,Pcbnew,(7.0.0)*%
%TF.CreationDate,2023-02-16T23:07:07+01:00*%
%TF.ProjectId,travaulta simplified,74726176-6175-46c7-9461-2073696d706c,rev?*%
%TF.SameCoordinates,Original*%
%TF.FileFunction,Legend,Top*%
%TF.FilePolarity,Positive*%
%FSLAX46Y46*%
G04 Gerber Fmt 4.6, Leading zero omitted, Abs format (unit mm)*
G04 Created by KiCad (PCBNEW (7.0.0)) date 2023-02-16 23:07:07*
%MOMM*%
%LPD*%
G01*
G04 APERTURE LIST*
%ADD10C,0.900000*%
%ADD11C,2.200000*%
G04 APERTURE END LIST*
D10*
%TO.C,SW20*%
X217604500Y-76200000D02*
G75*
G03*
X217604500Y-76200000I-6467000J0D01*
G01*
%TO.C,SW27*%
X169979500Y-95250000D02*
G75*
G03*
X169979500Y-95250000I-6467000J0D01*
G01*
%TO.C,SW15*%
X122354500Y-76200000D02*
G75*
G03*
X122354500Y-76200000I-6467000J0D01*
G01*
%TO.C,SW18*%
X179504500Y-76200000D02*
G75*
G03*
X179504500Y-76200000I-6467000J0D01*
G01*
%TO.C,SW1*%
X60442000Y-57150000D02*
G75*
G03*
X60442000Y-57150000I-6467000J0D01*
G01*
%TO.C,SW9*%
X212842000Y-57150000D02*
G75*
G03*
X212842000Y-57150000I-6467000J0D01*
G01*
%TO.C,SW28*%
X189029500Y-95250000D02*
G75*
G03*
X189029500Y-95250000I-6467000J0D01*
G01*
%TO.C,SW4*%
X117592000Y-57150000D02*
G75*
G03*
X117592000Y-57150000I-6467000J0D01*
G01*
%TO.C,SW17*%
X160454500Y-76200000D02*
G75*
G03*
X160454500Y-76200000I-6467000J0D01*
G01*
%TO.C,SW12*%
X62825000Y-76200000D02*
G75*
G03*
X62825000Y-76200000I-6467000J0D01*
G01*
%TO.C,G\u002A\u002A\u002A*%
G36*
X241937728Y-54571805D02*
G01*
X241924087Y-54585446D01*
X241910445Y-54571805D01*
X241924087Y-54558164D01*
X241937728Y-54571805D01*
G37*
G36*
X241992293Y-54544522D02*
G01*
X241978652Y-54558164D01*
X241965010Y-54544522D01*
X241978652Y-54530881D01*
X241992293Y-54544522D01*
G37*
G36*
X242210553Y-57818421D02*
G01*
X242196912Y-57832063D01*
X242183270Y-57818421D01*
X242196912Y-57804780D01*
X242210553Y-57818421D01*
G37*
G36*
X242374248Y-60546671D02*
G01*
X242360607Y-60560312D01*
X242346965Y-60546671D01*
X242360607Y-60533029D01*
X242374248Y-60546671D01*
G37*
G36*
X242810768Y-53944307D02*
G01*
X242797126Y-53957949D01*
X242783485Y-53944307D01*
X242797126Y-53930666D01*
X242810768Y-53944307D01*
G37*
G36*
X243247288Y-51407036D02*
G01*
X243233646Y-51420677D01*
X243220005Y-51407036D01*
X243233646Y-51393394D01*
X243247288Y-51407036D01*
G37*
G36*
X243301853Y-53562353D02*
G01*
X243288211Y-53575994D01*
X243274570Y-53562353D01*
X243288211Y-53548711D01*
X243301853Y-53562353D01*
G37*
G36*
X243601960Y-51679861D02*
G01*
X243588319Y-51693502D01*
X243574677Y-51679861D01*
X243588319Y-51666219D01*
X243601960Y-51679861D01*
G37*
G36*
X244147610Y-51325188D02*
G01*
X244133969Y-51338829D01*
X244120327Y-51325188D01*
X244133969Y-51311547D01*
X244147610Y-51325188D01*
G37*
G36*
X244229457Y-51352471D02*
G01*
X244215816Y-51366112D01*
X244202175Y-51352471D01*
X244215816Y-51338829D01*
X244229457Y-51352471D01*
G37*
G36*
X246848576Y-54926477D02*
G01*
X246834935Y-54940118D01*
X246821294Y-54926477D01*
X246834935Y-54912836D01*
X246848576Y-54926477D01*
G37*
G36*
X247230531Y-57763856D02*
G01*
X247216890Y-57777498D01*
X247203249Y-57763856D01*
X247216890Y-57750215D01*
X247230531Y-57763856D01*
G37*
G36*
X242174176Y-58796044D02*
G01*
X242177441Y-58828422D01*
X242174176Y-58832421D01*
X242157957Y-58828676D01*
X242155988Y-58814232D01*
X242165970Y-58791776D01*
X242174176Y-58796044D01*
G37*
G36*
X243265925Y-59272919D02*
G01*
X243269177Y-59315558D01*
X243263771Y-59325211D01*
X243251370Y-59317074D01*
X243249441Y-59289402D01*
X243256104Y-59260291D01*
X243265925Y-59272919D01*
G37*
G36*
X243892973Y-51375206D02*
G01*
X243889228Y-51391426D01*
X243874785Y-51393394D01*
X243852328Y-51383412D01*
X243856597Y-51375206D01*
X243888974Y-51371941D01*
X243892973Y-51375206D01*
G37*
G36*
X244083951Y-51293359D02*
G01*
X244080206Y-51309578D01*
X244065762Y-51311547D01*
X244043306Y-51301565D01*
X244047574Y-51293359D01*
X244079952Y-51290093D01*
X244083951Y-51293359D01*
G37*
G36*
X246758084Y-54662178D02*
G01*
X246761336Y-54704817D01*
X246755930Y-54714469D01*
X246743529Y-54706333D01*
X246741600Y-54678661D01*
X246748263Y-54649550D01*
X246758084Y-54662178D01*
G37*
G36*
X241842046Y-54640324D02*
G01*
X241812866Y-54662940D01*
X241781594Y-54666735D01*
X241774033Y-54656571D01*
X241795433Y-54639049D01*
X241816374Y-54629601D01*
X241844537Y-54627694D01*
X241842046Y-54640324D01*
G37*
G36*
X243216327Y-53474170D02*
G01*
X243212998Y-53512473D01*
X243201722Y-53547494D01*
X243187921Y-53531374D01*
X243179933Y-53513432D01*
X243169858Y-53465328D01*
X243175711Y-53447499D01*
X243202685Y-53441436D01*
X243216327Y-53474170D01*
G37*
G36*
X243682697Y-51658742D02*
G01*
X243683807Y-51666219D01*
X243674499Y-51692793D01*
X243671776Y-51693502D01*
X243648483Y-51674384D01*
X243642884Y-51666219D01*
X243645047Y-51641079D01*
X243654915Y-51638937D01*
X243682697Y-51658742D01*
G37*
G36*
X245099609Y-54743980D02*
G01*
X245102497Y-54762782D01*
X245085742Y-54800409D01*
X245048074Y-54793667D01*
X245039580Y-54786259D01*
X245034062Y-54752250D01*
X245061714Y-54724675D01*
X245076825Y-54721858D01*
X245099609Y-54743980D01*
G37*
G36*
X243245870Y-54618290D02*
G01*
X243250076Y-54628181D01*
X243270996Y-54709466D01*
X243262151Y-54761933D01*
X243233952Y-54776423D01*
X243202751Y-54753493D01*
X243197895Y-54701397D01*
X243207999Y-54625065D01*
X243224748Y-54596299D01*
X243245870Y-54618290D01*
G37*
G36*
X242915700Y-54271795D02*
G01*
X242918631Y-54320091D01*
X242918931Y-54346724D01*
X242911828Y-54416479D01*
X242893079Y-54448702D01*
X242868963Y-54436552D01*
X242857556Y-54413556D01*
X242859686Y-54365221D01*
X242880953Y-54311247D01*
X242905126Y-54270701D01*
X242915700Y-54271795D01*
G37*
G36*
X243820220Y-51393394D02*
G01*
X243804263Y-51421779D01*
X243799758Y-51422951D01*
X243713214Y-51432369D01*
X243671945Y-51434496D01*
X243666938Y-51427531D01*
X243689181Y-51409676D01*
X243698668Y-51402771D01*
X243758425Y-51371945D01*
X243804299Y-51369890D01*
X243820220Y-51393394D01*
G37*
G36*
X241237644Y-62118539D02*
G01*
X241230346Y-62146383D01*
X241203787Y-62208345D01*
X241169614Y-62279109D01*
X241094026Y-62429162D01*
X241092998Y-62313841D01*
X241099235Y-62231876D01*
X241126052Y-62181228D01*
X241161028Y-62153271D01*
X241211600Y-62124594D01*
X241237510Y-62118371D01*
X241237644Y-62118539D01*
G37*
G36*
X244029964Y-60227713D02*
G01*
X244037440Y-60270492D01*
X244033626Y-60328584D01*
X244018522Y-60382950D01*
X244011197Y-60396617D01*
X243993673Y-60410634D01*
X243985581Y-60378232D01*
X243984333Y-60336841D01*
X243990813Y-60266518D01*
X244007314Y-60222709D01*
X244011197Y-60219281D01*
X244029964Y-60227713D01*
G37*
G36*
X242882562Y-53398169D02*
G01*
X242862806Y-53444065D01*
X242830379Y-53519800D01*
X242808823Y-53589635D01*
X242795197Y-53639308D01*
X242788630Y-53638240D01*
X242786278Y-53607399D01*
X242793470Y-53554294D01*
X242813926Y-53486962D01*
X242840689Y-53422310D01*
X242866802Y-53377246D01*
X242884756Y-53368063D01*
X242882562Y-53398169D01*
G37*
G36*
X247035145Y-57529595D02*
G01*
X247067365Y-57558374D01*
X247107356Y-57607750D01*
X247144406Y-57662045D01*
X247167806Y-57705581D01*
X247167055Y-57722696D01*
X247146436Y-57705535D01*
X247098606Y-57661745D01*
X247058560Y-57624116D01*
X246995512Y-57558416D01*
X246970690Y-57518818D01*
X246984951Y-57508780D01*
X247035145Y-57529595D01*
G37*
G36*
X246734754Y-57243409D02*
G01*
X246803647Y-57269102D01*
X246871134Y-57300477D01*
X246916786Y-57328535D01*
X246924922Y-57338113D01*
X246917519Y-57364406D01*
X246877479Y-57364726D01*
X246818359Y-57342141D01*
X246753715Y-57299722D01*
X246753088Y-57299208D01*
X246704681Y-57257088D01*
X246683878Y-57233945D01*
X246684882Y-57232394D01*
X246734754Y-57243409D01*
G37*
G36*
X241635603Y-55006453D02*
G01*
X241629421Y-55060166D01*
X241608234Y-55154225D01*
X241573194Y-55282927D01*
X241557687Y-55335715D01*
X241532642Y-55413129D01*
X241516277Y-55450833D01*
X241511236Y-55443260D01*
X241512343Y-55431203D01*
X241526377Y-55346788D01*
X241548265Y-55246423D01*
X241573866Y-55145919D01*
X241599037Y-55061087D01*
X241619636Y-55007736D01*
X241625631Y-54998786D01*
X241635603Y-55006453D01*
G37*
G36*
X242888425Y-54498317D02*
G01*
X242903172Y-54517373D01*
X242921958Y-54566460D01*
X242940687Y-54653154D01*
X242957237Y-54760535D01*
X242969487Y-54871683D01*
X242975315Y-54969679D01*
X242972600Y-55037602D01*
X242969876Y-55049368D01*
X242955186Y-55043602D01*
X242927293Y-54997128D01*
X242895005Y-54926423D01*
X242848802Y-54792823D01*
X242822521Y-54668810D01*
X242817997Y-54567476D01*
X242835790Y-54503731D01*
X242860897Y-54479645D01*
X242888425Y-54498317D01*
G37*
G36*
X246425680Y-57284015D02*
G01*
X246445109Y-57349337D01*
X246463632Y-57441098D01*
X246478916Y-57545302D01*
X246488625Y-57647950D01*
X246490427Y-57735044D01*
X246489569Y-57750215D01*
X246484537Y-57801298D01*
X246478258Y-57817638D01*
X246468757Y-57794457D01*
X246454058Y-57726977D01*
X246432518Y-57612233D01*
X246406635Y-57465824D01*
X246391537Y-57365055D01*
X246386682Y-57302189D01*
X246391524Y-57269490D01*
X246405520Y-57259223D01*
X246407680Y-57259130D01*
X246425680Y-57284015D01*
G37*
G36*
X247326116Y-57897240D02*
G01*
X247381006Y-57947730D01*
X247395122Y-57961654D01*
X247460366Y-58023228D01*
X247511145Y-58065275D01*
X247533032Y-58077605D01*
X247561242Y-58097742D01*
X247603669Y-58147394D01*
X247612486Y-58159452D01*
X247649940Y-58216136D01*
X247654395Y-58236439D01*
X247623738Y-58220077D01*
X247555856Y-58166768D01*
X247534483Y-58149023D01*
X247444078Y-58071898D01*
X247385339Y-58016302D01*
X247346940Y-57970167D01*
X247317556Y-57921422D01*
X247313333Y-57913347D01*
X247304334Y-57886237D01*
X247326116Y-57897240D01*
G37*
G36*
X246512001Y-57966449D02*
G01*
X246535516Y-58022713D01*
X246559385Y-58097449D01*
X246591653Y-58204021D01*
X246632785Y-58334766D01*
X246674123Y-58462182D01*
X246675881Y-58467491D01*
X246706437Y-58567482D01*
X246725846Y-58646763D01*
X246731020Y-58692050D01*
X246729242Y-58697118D01*
X246713662Y-58692981D01*
X246712164Y-58680870D01*
X246701556Y-58637263D01*
X246674811Y-58566277D01*
X246660399Y-58533090D01*
X246620235Y-58433034D01*
X246586131Y-58329779D01*
X246580595Y-58309506D01*
X246554514Y-58208709D01*
X246526188Y-58100220D01*
X246521339Y-58081769D01*
X246501700Y-57994653D01*
X246499658Y-57956654D01*
X246512001Y-57966449D01*
G37*
G36*
X247472952Y-56023608D02*
G01*
X247483030Y-56034944D01*
X247538705Y-56087883D01*
X247621633Y-56153130D01*
X247698566Y-56206394D01*
X247800806Y-56281666D01*
X247865287Y-56354814D01*
X247897506Y-56417713D01*
X247922855Y-56490401D01*
X247931206Y-56533331D01*
X247923350Y-56539571D01*
X247900076Y-56502186D01*
X247890233Y-56481487D01*
X247844954Y-56424162D01*
X247774699Y-56373119D01*
X247763307Y-56367321D01*
X247697181Y-56325955D01*
X247655997Y-56282045D01*
X247652522Y-56274162D01*
X247624417Y-56229405D01*
X247569149Y-56167205D01*
X247529474Y-56129100D01*
X247468664Y-56068159D01*
X247429568Y-56017447D01*
X247421644Y-55997386D01*
X247436467Y-55992471D01*
X247472952Y-56023608D01*
G37*
G36*
X241505744Y-55564136D02*
G01*
X241498867Y-55625993D01*
X241483317Y-55697208D01*
X241465142Y-55788245D01*
X241446446Y-55915930D01*
X241429577Y-56062420D01*
X241418142Y-56192269D01*
X241407874Y-56321919D01*
X241397939Y-56430279D01*
X241389422Y-56506593D01*
X241383406Y-56540101D01*
X241383058Y-56540617D01*
X241377240Y-56519657D01*
X241369495Y-56455036D01*
X241360953Y-56357571D01*
X241354745Y-56270025D01*
X241347729Y-56124107D01*
X241349386Y-56016134D01*
X241360752Y-55930022D01*
X241381603Y-55853470D01*
X241411596Y-55771186D01*
X241438806Y-55710069D01*
X241450269Y-55691751D01*
X241469221Y-55645683D01*
X241473926Y-55603083D01*
X241483097Y-55554469D01*
X241498747Y-55540333D01*
X241505744Y-55564136D01*
G37*
G36*
X245252995Y-54145526D02*
G01*
X245281967Y-54207797D01*
X245315956Y-54294392D01*
X245349954Y-54391245D01*
X245378951Y-54484292D01*
X245397940Y-54559467D01*
X245402604Y-54595014D01*
X245384254Y-54629912D01*
X245339373Y-54683851D01*
X245283215Y-54741206D01*
X245231032Y-54786354D01*
X245198875Y-54803706D01*
X245183047Y-54781496D01*
X245170986Y-54750033D01*
X245159576Y-54685913D01*
X245153994Y-54597445D01*
X245154298Y-54505262D01*
X245160546Y-54429996D01*
X245169982Y-54395635D01*
X245202853Y-54378401D01*
X245213893Y-54382228D01*
X245226656Y-54368271D01*
X245227536Y-54308665D01*
X245222832Y-54259902D01*
X245217127Y-54170854D01*
X245226244Y-54125905D01*
X245234047Y-54121644D01*
X245252995Y-54145526D01*
G37*
G36*
X246765745Y-61823687D02*
G01*
X246767279Y-62048128D01*
X246771053Y-62247706D01*
X246776812Y-62415620D01*
X246784298Y-62545066D01*
X246793255Y-62629241D01*
X246796835Y-62647333D01*
X246812471Y-62779096D01*
X246800600Y-62843571D01*
X246788140Y-62869945D01*
X246778357Y-62862369D01*
X246769950Y-62815072D01*
X246761622Y-62722283D01*
X246756450Y-62647422D01*
X246745991Y-62521170D01*
X246732582Y-62407002D01*
X246718357Y-62321546D01*
X246710939Y-62292750D01*
X246699903Y-62236299D01*
X246688690Y-62137716D01*
X246678411Y-62009421D01*
X246670181Y-61863831D01*
X246668149Y-61815306D01*
X246662844Y-61654806D01*
X246661691Y-61536778D01*
X246665588Y-61449225D01*
X246675431Y-61380151D01*
X246692115Y-61317560D01*
X246708911Y-61269657D01*
X246764761Y-61119603D01*
X246765745Y-61823687D01*
G37*
G36*
X246819962Y-58995701D02*
G01*
X246838711Y-59039142D01*
X246852842Y-59087349D01*
X246863094Y-59148723D01*
X246870206Y-59231665D01*
X246874916Y-59344579D01*
X246877964Y-59495864D01*
X246879949Y-59677763D01*
X246881029Y-59894635D01*
X246879539Y-60064873D01*
X246874748Y-60196377D01*
X246865926Y-60297047D01*
X246852343Y-60374783D01*
X246833269Y-60437486D01*
X246807973Y-60493055D01*
X246803867Y-60500764D01*
X246764300Y-60573953D01*
X246779449Y-60478464D01*
X246786058Y-60407809D01*
X246791532Y-60293113D01*
X246795821Y-60144888D01*
X246798876Y-59973648D01*
X246800646Y-59789905D01*
X246801082Y-59604172D01*
X246800135Y-59426963D01*
X246797753Y-59268789D01*
X246793889Y-59140164D01*
X246788490Y-59051601D01*
X246786298Y-59032492D01*
X246764944Y-58882439D01*
X246819962Y-58995701D01*
G37*
G36*
X243097860Y-51481972D02*
G01*
X243076537Y-51514626D01*
X243014720Y-51580335D01*
X242973137Y-51621477D01*
X242884122Y-51720192D01*
X242799503Y-51833616D01*
X242742431Y-51928405D01*
X242704591Y-52008399D01*
X242680854Y-52077354D01*
X242668066Y-52152392D01*
X242663074Y-52250638D01*
X242662591Y-52361923D01*
X242666237Y-52510001D01*
X242678221Y-52626820D01*
X242702163Y-52735483D01*
X242739562Y-52853008D01*
X242779829Y-52962571D01*
X242819097Y-53058912D01*
X242850296Y-53124935D01*
X242856210Y-53135020D01*
X242887176Y-53190169D01*
X242886451Y-53206312D01*
X242858176Y-53185593D01*
X242806490Y-53130157D01*
X242775812Y-53093366D01*
X242717787Y-53009962D01*
X242681516Y-52934244D01*
X242674355Y-52899116D01*
X242669399Y-52840923D01*
X242656209Y-52746599D01*
X242637302Y-52633510D01*
X242630409Y-52595950D01*
X242602822Y-52397631D01*
X242603729Y-52228516D01*
X242635207Y-52070069D01*
X242699333Y-51903752D01*
X242710635Y-51879620D01*
X242800198Y-51718509D01*
X242897387Y-51600756D01*
X243011597Y-51515184D01*
X243021837Y-51509345D01*
X243079392Y-51480751D01*
X243097860Y-51481972D01*
G37*
G36*
X243797562Y-59591494D02*
G01*
X243819763Y-59609959D01*
X243836206Y-59650892D01*
X243850925Y-59724630D01*
X243867953Y-59841513D01*
X243869252Y-59850967D01*
X243885475Y-59981795D01*
X243898267Y-60108575D01*
X243905624Y-60210487D01*
X243906594Y-60239401D01*
X243910853Y-60312317D01*
X243919708Y-60353940D01*
X243925687Y-60358050D01*
X243933076Y-60360749D01*
X243939009Y-60383341D01*
X243943905Y-60432390D01*
X243948185Y-60514459D01*
X243952270Y-60636111D01*
X243956581Y-60803910D01*
X243957894Y-60860419D01*
X243961995Y-60969230D01*
X243968302Y-61057327D01*
X243975674Y-61110281D01*
X243978264Y-61117792D01*
X243996582Y-61120060D01*
X244016046Y-61082641D01*
X244031212Y-61020015D01*
X244036562Y-60962729D01*
X244046087Y-60902480D01*
X244064474Y-60888942D01*
X244082976Y-60917179D01*
X244092849Y-60982258D01*
X244093045Y-60994600D01*
X244097136Y-61075423D01*
X244107220Y-61137324D01*
X244109605Y-61144654D01*
X244107184Y-61180296D01*
X244076081Y-61187809D01*
X244025311Y-61197522D01*
X243942092Y-61222598D01*
X243843077Y-61256940D01*
X243744921Y-61294455D01*
X243664278Y-61329047D01*
X243617802Y-61354620D01*
X243615918Y-61356222D01*
X243591469Y-61403490D01*
X243588635Y-61425230D01*
X243577306Y-61470874D01*
X243549050Y-61470778D01*
X243510974Y-61428189D01*
X243483334Y-61377120D01*
X243448603Y-61268487D01*
X243448276Y-61151587D01*
X243449807Y-61139167D01*
X243469553Y-60970705D01*
X243490333Y-60761218D01*
X243510957Y-60524200D01*
X243530235Y-60273144D01*
X243543575Y-60076202D01*
X243553969Y-59921938D01*
X243563587Y-59812599D01*
X243574360Y-59738612D01*
X243588214Y-59690403D01*
X243607079Y-59658400D01*
X243632850Y-59633058D01*
X243701385Y-59595470D01*
X243765573Y-59585159D01*
X243797562Y-59591494D01*
G37*
G36*
X247542858Y-57923004D02*
G01*
X248603750Y-57923004D01*
X248607495Y-57939224D01*
X248621938Y-57941193D01*
X248644395Y-57931210D01*
X248640127Y-57923004D01*
X248607749Y-57919739D01*
X248603750Y-57923004D01*
X247542858Y-57923004D01*
X247541453Y-57830130D01*
X247558162Y-57702657D01*
X247589657Y-57560118D01*
X247632579Y-57420056D01*
X247646883Y-57381901D01*
X247726438Y-57249395D01*
X247846166Y-57138359D01*
X247992861Y-57058965D01*
X248107566Y-57027137D01*
X248219954Y-57003848D01*
X248300866Y-56974237D01*
X248373339Y-56929634D01*
X248380408Y-56924460D01*
X248466621Y-56888114D01*
X248578539Y-56876396D01*
X248695489Y-56887860D01*
X248796799Y-56921057D01*
X248848079Y-56957214D01*
X248885210Y-57005347D01*
X248879004Y-57030387D01*
X248873293Y-57033032D01*
X248830415Y-57058315D01*
X248769654Y-57103933D01*
X248757310Y-57114139D01*
X248652602Y-57172434D01*
X248500676Y-57212295D01*
X248499134Y-57212560D01*
X248399222Y-57232980D01*
X248343790Y-57254160D01*
X248322868Y-57280461D01*
X248321831Y-57290116D01*
X248344647Y-57335673D01*
X248376396Y-57354619D01*
X248420411Y-57376623D01*
X248430961Y-57391499D01*
X248452065Y-57417156D01*
X248503627Y-57453899D01*
X248511148Y-57458428D01*
X248570900Y-57504408D01*
X248605846Y-57550926D01*
X248606567Y-57552979D01*
X248635052Y-57594114D01*
X248699851Y-57644050D01*
X248806923Y-57707006D01*
X248874301Y-57742686D01*
X248927755Y-57782651D01*
X248947757Y-57841210D01*
X248949328Y-57878499D01*
X248949328Y-57975505D01*
X248812916Y-57957409D01*
X248730573Y-57949354D01*
X248689258Y-57954993D01*
X248676674Y-57976470D01*
X248676503Y-57981177D01*
X248668198Y-58007853D01*
X248635136Y-58023359D01*
X248565095Y-58031842D01*
X248519629Y-58034408D01*
X248462161Y-58055105D01*
X248430961Y-58079499D01*
X248374486Y-58123707D01*
X248342293Y-58140028D01*
X248301899Y-58174589D01*
X248294549Y-58199520D01*
X248272109Y-58234334D01*
X248244555Y-58241300D01*
X248199592Y-58262983D01*
X248146685Y-58317916D01*
X248128554Y-58343609D01*
X248076025Y-58411648D01*
X248021992Y-58442725D01*
X247967108Y-58450199D01*
X247890219Y-58449704D01*
X247833177Y-58442688D01*
X247830746Y-58441999D01*
X247786943Y-58412396D01*
X247737542Y-58358074D01*
X247735915Y-58355871D01*
X247682008Y-58282224D01*
X247749556Y-58325798D01*
X247841147Y-58384766D01*
X247900017Y-58416561D01*
X247940483Y-58421667D01*
X247976864Y-58400567D01*
X248023474Y-58353745D01*
X248040748Y-58335633D01*
X248144495Y-58227659D01*
X248062647Y-58219837D01*
X247869686Y-58191604D01*
X247725169Y-58147050D01*
X247624763Y-58083719D01*
X247564138Y-57999152D01*
X247542888Y-57924997D01*
X247542858Y-57923004D01*
G37*
G36*
X243523180Y-52334640D02*
G01*
X244611412Y-52334640D01*
X244625053Y-52348282D01*
X244638695Y-52334640D01*
X244625053Y-52320999D01*
X244611412Y-52334640D01*
X243523180Y-52334640D01*
X243516409Y-52287763D01*
X243508522Y-52241720D01*
X243488454Y-52102954D01*
X243487797Y-52004768D01*
X243510516Y-51935410D01*
X243560579Y-51883128D01*
X243641951Y-51836167D01*
X243646057Y-51834164D01*
X243722794Y-51803185D01*
X243807030Y-51784965D01*
X243916242Y-51776705D01*
X244013385Y-51775349D01*
X244133557Y-51774026D01*
X244214256Y-51767844D01*
X244270552Y-51753489D01*
X244317517Y-51727643D01*
X244353425Y-51700528D01*
X244418237Y-51635877D01*
X244433455Y-51583658D01*
X244431977Y-51577757D01*
X244434774Y-51537405D01*
X244459520Y-51529807D01*
X244490152Y-51547568D01*
X244501856Y-51606853D01*
X244502282Y-51628568D01*
X244509356Y-51691580D01*
X244536851Y-51748137D01*
X244594176Y-51814463D01*
X244631171Y-51850823D01*
X244760061Y-51974317D01*
X244774406Y-52366914D01*
X244781543Y-52529576D01*
X244789835Y-52645245D01*
X244800281Y-52721493D01*
X244813884Y-52765893D01*
X244829673Y-52784892D01*
X244859222Y-52833252D01*
X244872235Y-52932168D01*
X244872832Y-52954412D01*
X244878150Y-53049749D01*
X244889186Y-53131061D01*
X244896476Y-53159936D01*
X244904395Y-53207158D01*
X244877702Y-53221252D01*
X244873778Y-53221321D01*
X244835498Y-53236568D01*
X244829672Y-53251523D01*
X244849582Y-53269594D01*
X244871414Y-53265706D01*
X244900419Y-53266601D01*
X244910806Y-53306764D01*
X244910934Y-53337814D01*
X244914958Y-53415050D01*
X244927773Y-53507043D01*
X244945697Y-53594473D01*
X244965047Y-53658021D01*
X244975457Y-53676308D01*
X245008422Y-53686102D01*
X245081981Y-53697960D01*
X245182322Y-53709783D01*
X245219624Y-53713380D01*
X245377422Y-53733432D01*
X245546465Y-53764175D01*
X245705306Y-53801144D01*
X245832497Y-53839876D01*
X245839124Y-53842335D01*
X245874826Y-53855370D01*
X245906745Y-53864235D01*
X245954566Y-53873454D01*
X246030102Y-53886233D01*
X246123340Y-53908347D01*
X246218277Y-53941050D01*
X246298329Y-53977495D01*
X246346911Y-54010840D01*
X246353001Y-54019504D01*
X246379225Y-54028870D01*
X246384685Y-54026210D01*
X246411273Y-54038187D01*
X246459591Y-54079807D01*
X246517366Y-54138039D01*
X246572324Y-54199852D01*
X246612195Y-54252214D01*
X246624923Y-54281304D01*
X246633221Y-54314218D01*
X246658321Y-54379561D01*
X246680417Y-54430834D01*
X246721794Y-54528871D01*
X246738416Y-54580618D01*
X246732334Y-54587311D01*
X246705598Y-54550186D01*
X246660257Y-54470480D01*
X246621083Y-54395042D01*
X246548576Y-54262348D01*
X246485706Y-54173090D01*
X246426123Y-54118535D01*
X246414974Y-54111561D01*
X246334691Y-54074033D01*
X246221490Y-54032629D01*
X246092812Y-53992482D01*
X245966096Y-53958726D01*
X245858783Y-53936493D01*
X245799602Y-53930452D01*
X245725093Y-53922493D01*
X245614018Y-53901377D01*
X245480759Y-53870843D01*
X245339695Y-53834634D01*
X245205209Y-53796491D01*
X245091681Y-53760155D01*
X245013493Y-53729368D01*
X245000360Y-53722523D01*
X244942517Y-53680854D01*
X244912756Y-53643186D01*
X244911692Y-53637379D01*
X244894480Y-53606342D01*
X244859779Y-53612416D01*
X244843313Y-53630559D01*
X244845476Y-53655699D01*
X244855344Y-53657841D01*
X244880968Y-53679913D01*
X244884237Y-53698765D01*
X244861492Y-53732093D01*
X244829672Y-53739689D01*
X244785339Y-53751114D01*
X244775107Y-53766971D01*
X244753258Y-53791726D01*
X244737489Y-53794254D01*
X244722075Y-53805501D01*
X244709919Y-53843704D01*
X244700148Y-53915559D01*
X244691892Y-54027760D01*
X244684278Y-54187002D01*
X244683338Y-54210312D01*
X244677356Y-54377671D01*
X244672478Y-54546540D01*
X244669125Y-54699771D01*
X244667720Y-54820217D01*
X244667728Y-54844630D01*
X244663925Y-54954907D01*
X244652867Y-55101273D01*
X244636175Y-55265976D01*
X244615474Y-55431267D01*
X244611623Y-55458486D01*
X244586989Y-55635451D01*
X244559403Y-55843462D01*
X244531868Y-56059324D01*
X244507386Y-56259843D01*
X244502166Y-56304243D01*
X244464091Y-56625529D01*
X244430923Y-56893320D01*
X244402542Y-57108453D01*
X244378832Y-57271768D01*
X244359673Y-57384101D01*
X244344946Y-57446292D01*
X244338808Y-57459305D01*
X244308754Y-57460941D01*
X244293922Y-57445664D01*
X244268956Y-57395918D01*
X244231738Y-57308934D01*
X244187792Y-57199060D01*
X244142641Y-57080648D01*
X244101808Y-56968047D01*
X244070817Y-56875607D01*
X244059363Y-56836252D01*
X244037874Y-56756693D01*
X244019920Y-56695642D01*
X244016797Y-56686198D01*
X244007492Y-56634021D01*
X244008792Y-56619034D01*
X243995103Y-56582647D01*
X243975747Y-56564055D01*
X243959343Y-56543886D01*
X243936315Y-56500579D01*
X243905059Y-56430040D01*
X243870824Y-56345167D01*
X244038480Y-56345167D01*
X244052121Y-56358808D01*
X244065762Y-56345167D01*
X244052121Y-56331526D01*
X244038480Y-56345167D01*
X243870824Y-56345167D01*
X243863969Y-56328174D01*
X243811441Y-56190888D01*
X243787711Y-56126907D01*
X244046934Y-56126907D01*
X244048357Y-56199382D01*
X244052355Y-56231260D01*
X244057974Y-56216064D01*
X244062722Y-56133108D01*
X244058252Y-56052369D01*
X244052675Y-56029879D01*
X244048614Y-56056230D01*
X244046936Y-56125703D01*
X244046934Y-56126907D01*
X243787711Y-56126907D01*
X243745869Y-56014089D01*
X243665651Y-55793682D01*
X243574471Y-55540333D01*
X243522540Y-55389014D01*
X243471446Y-55228598D01*
X243423929Y-55069028D01*
X243420880Y-55058016D01*
X244031602Y-55058016D01*
X244032611Y-55186455D01*
X244033176Y-55212896D01*
X244037152Y-55344839D01*
X244042123Y-55454530D01*
X244047506Y-55531841D01*
X244052716Y-55566644D01*
X244053638Y-55567616D01*
X244058148Y-55542022D01*
X244061898Y-55471996D01*
X244064540Y-55367666D01*
X244065729Y-55239162D01*
X244065762Y-55212943D01*
X244064286Y-55081002D01*
X244060246Y-54971309D01*
X244054227Y-54893996D01*
X244046813Y-54859194D01*
X244045300Y-54858223D01*
X244038293Y-54883783D01*
X244033611Y-54953753D01*
X244031602Y-55058016D01*
X243420880Y-55058016D01*
X243382729Y-54920244D01*
X243350587Y-54792189D01*
X243344444Y-54762782D01*
X244202175Y-54762782D01*
X244215816Y-54776423D01*
X244229457Y-54762782D01*
X244215816Y-54749141D01*
X244202175Y-54762782D01*
X243344444Y-54762782D01*
X243330244Y-54694804D01*
X243324439Y-54638030D01*
X243324810Y-54634668D01*
X243324727Y-54634005D01*
X243959551Y-54634005D01*
X243973635Y-54679856D01*
X244003006Y-54713308D01*
X244036686Y-54701689D01*
X244059783Y-54651005D01*
X244060839Y-54644695D01*
X244054911Y-54597854D01*
X244013095Y-54585446D01*
X243967167Y-54595877D01*
X243959551Y-54634005D01*
X243324727Y-54634005D01*
X243317877Y-54579116D01*
X243291090Y-54509180D01*
X243290175Y-54507395D01*
X243273089Y-54462099D01*
X243264690Y-54415213D01*
X243941820Y-54415213D01*
X243972446Y-54419432D01*
X243983915Y-54419741D01*
X244044791Y-54403833D01*
X244123356Y-54361362D01*
X244165692Y-54330919D01*
X244233334Y-54272688D01*
X244301236Y-54207168D01*
X244359992Y-54144559D01*
X244400199Y-54095060D01*
X244412451Y-54068871D01*
X244408982Y-54067079D01*
X244378854Y-54084607D01*
X244319918Y-54131405D01*
X244242572Y-54198791D01*
X244163894Y-54271697D01*
X244099514Y-54321046D01*
X244019077Y-54368379D01*
X244011197Y-54372262D01*
X243953490Y-54401659D01*
X243941820Y-54415213D01*
X243264690Y-54415213D01*
X243261593Y-54397928D01*
X243255017Y-54305831D01*
X243254402Y-54271697D01*
X244065762Y-54271697D01*
X244079404Y-54285339D01*
X244093045Y-54271697D01*
X244079404Y-54258056D01*
X244065762Y-54271697D01*
X243254402Y-54271697D01*
X243253911Y-54244415D01*
X243601960Y-54244415D01*
X243615601Y-54258056D01*
X243629242Y-54244415D01*
X243615601Y-54230774D01*
X243601960Y-54244415D01*
X243253911Y-54244415D01*
X243252693Y-54176755D01*
X243253771Y-54014833D01*
X243253858Y-54009655D01*
X243315069Y-54009655D01*
X243352392Y-54063057D01*
X243387299Y-54096601D01*
X243449325Y-54152290D01*
X243496245Y-54194405D01*
X243506471Y-54203579D01*
X243547821Y-54227539D01*
X243573258Y-54221337D01*
X243574677Y-54214238D01*
X243555460Y-54187645D01*
X243508964Y-54146023D01*
X243506471Y-54144052D01*
X243458500Y-54094991D01*
X243438268Y-54051804D01*
X243438265Y-54051457D01*
X243428683Y-54036051D01*
X244399613Y-54036051D01*
X244420435Y-54032792D01*
X244457637Y-53999559D01*
X244467698Y-53969329D01*
X244468289Y-53938928D01*
X244456786Y-53957949D01*
X244423359Y-54008546D01*
X244409523Y-54021411D01*
X244399613Y-54036051D01*
X243428683Y-54036051D01*
X243416557Y-54016555D01*
X243399342Y-54012514D01*
X243360853Y-53989867D01*
X243348999Y-53964769D01*
X243337928Y-53931666D01*
X243323922Y-53948876D01*
X243316495Y-53965558D01*
X243315069Y-54009655D01*
X243253858Y-54009655D01*
X243256436Y-53856087D01*
X243260183Y-53743975D01*
X243263783Y-53698765D01*
X244829672Y-53698765D01*
X244843313Y-53712406D01*
X244856955Y-53698765D01*
X244843313Y-53685124D01*
X244829672Y-53698765D01*
X243263783Y-53698765D01*
X243266028Y-53670568D01*
X243274986Y-53627936D01*
X243288073Y-53608149D01*
X243306304Y-53603277D01*
X243306482Y-53603276D01*
X243359658Y-53624757D01*
X243377228Y-53645307D01*
X243419327Y-53673766D01*
X243446790Y-53669671D01*
X243487799Y-53634735D01*
X243482680Y-53592121D01*
X243438328Y-53562373D01*
X243400654Y-53532797D01*
X244859108Y-53532797D01*
X244864124Y-53568182D01*
X244873438Y-53568605D01*
X244879951Y-53532090D01*
X244875592Y-53516313D01*
X244863477Y-53505979D01*
X244859108Y-53532797D01*
X243400654Y-53532797D01*
X243389854Y-53524318D01*
X243381635Y-53507788D01*
X244775107Y-53507788D01*
X244788748Y-53521429D01*
X244802390Y-53507788D01*
X244788748Y-53494146D01*
X244775107Y-53507788D01*
X243381635Y-53507788D01*
X243373433Y-53491293D01*
X244698771Y-53491293D01*
X244729594Y-53484520D01*
X244801431Y-53468946D01*
X244831903Y-53466864D01*
X244874989Y-53453736D01*
X244884237Y-53436624D01*
X244862971Y-53420922D01*
X244812920Y-53424172D01*
X244754704Y-53442167D01*
X244708946Y-53470698D01*
X244706901Y-53472810D01*
X244698771Y-53491293D01*
X243373433Y-53491293D01*
X243367165Y-53478687D01*
X243340680Y-53428343D01*
X243310926Y-53412299D01*
X243285039Y-53398282D01*
X243288211Y-53385016D01*
X243286048Y-53359876D01*
X243276180Y-53357734D01*
X243250833Y-53335551D01*
X243247288Y-53315200D01*
X243234061Y-53286961D01*
X243220005Y-53289528D01*
X243194865Y-53287365D01*
X243192723Y-53277497D01*
X243211927Y-53249707D01*
X243219149Y-53248604D01*
X243234410Y-53228708D01*
X243230372Y-53208987D01*
X243225567Y-53151957D01*
X243258696Y-53129068D01*
X243307614Y-53142558D01*
X243342714Y-53159751D01*
X243347183Y-53152043D01*
X243320487Y-53111158D01*
X243304101Y-53088066D01*
X243272990Y-53034672D01*
X243269200Y-53005132D01*
X243274506Y-53003061D01*
X243351368Y-53028317D01*
X243412738Y-53096048D01*
X243434698Y-53146085D01*
X243450279Y-53217658D01*
X243457560Y-53296741D01*
X243456643Y-53367521D01*
X243447632Y-53414183D01*
X243432906Y-53422628D01*
X243412202Y-53429246D01*
X243410982Y-53437971D01*
X243433102Y-53463478D01*
X243452581Y-53466864D01*
X243493784Y-53443549D01*
X243523676Y-53389380D01*
X243533247Y-53328018D01*
X243520124Y-53289541D01*
X243510894Y-53258817D01*
X243546820Y-53240849D01*
X243583516Y-53220264D01*
X243598681Y-53178168D01*
X243591960Y-53106915D01*
X243583368Y-53074857D01*
X244591019Y-53074857D01*
X244600416Y-53082376D01*
X244653621Y-53075014D01*
X244725699Y-53072791D01*
X244776392Y-53086280D01*
X244828481Y-53111092D01*
X244843379Y-53101949D01*
X244815311Y-53063977D01*
X244808675Y-53057626D01*
X244739281Y-53010613D01*
X244675632Y-53013025D01*
X244623447Y-53045943D01*
X244591019Y-53074857D01*
X243583368Y-53074857D01*
X243562999Y-52998856D01*
X243531129Y-52902501D01*
X243496274Y-52798227D01*
X243478521Y-52728441D01*
X243476448Y-52676304D01*
X243488637Y-52624979D01*
X243504137Y-52582499D01*
X243525157Y-52519381D01*
X243529010Y-52494000D01*
X244187796Y-52494000D01*
X244204954Y-52513694D01*
X244225451Y-52541571D01*
X244207478Y-52573793D01*
X244189386Y-52617595D01*
X244219099Y-52641556D01*
X244283001Y-52642821D01*
X244339042Y-52620371D01*
X244352228Y-52581413D01*
X244327436Y-52530716D01*
X244284022Y-52509106D01*
X244247018Y-52494769D01*
X244254466Y-52487414D01*
X244281011Y-52477371D01*
X244278833Y-52470411D01*
X244244833Y-52466772D01*
X244217433Y-52474207D01*
X244187796Y-52494000D01*
X243529010Y-52494000D01*
X243534061Y-52460721D01*
X243532210Y-52416488D01*
X244556847Y-52416488D01*
X244577187Y-52452692D01*
X244594852Y-52457412D01*
X244636970Y-52479418D01*
X244648561Y-52498335D01*
X244669494Y-52534281D01*
X244677906Y-52539259D01*
X244682159Y-52518952D01*
X244676902Y-52501095D01*
X244679957Y-52456971D01*
X244691400Y-52444920D01*
X244720491Y-52411756D01*
X244701049Y-52385993D01*
X244639103Y-52375564D01*
X244638695Y-52375564D01*
X244573715Y-52387765D01*
X244556847Y-52416488D01*
X243532210Y-52416488D01*
X243531071Y-52389266D01*
X243523180Y-52334640D01*
G37*
G36*
X241906855Y-57295737D02*
G01*
X242472181Y-57295737D01*
X242506928Y-57309095D01*
X242537943Y-57314860D01*
X242611938Y-57321962D01*
X242655332Y-57317246D01*
X242660513Y-57304098D01*
X242619872Y-57285903D01*
X242609568Y-57283005D01*
X242537737Y-57273953D01*
X242487890Y-57280957D01*
X242472181Y-57295737D01*
X241906855Y-57295737D01*
X241924369Y-57284521D01*
X241992200Y-57250705D01*
X242048866Y-57238181D01*
X242110530Y-57241118D01*
X242116342Y-57241870D01*
X242234187Y-57240455D01*
X242347499Y-57214966D01*
X242533454Y-57162077D01*
X242695779Y-57142496D01*
X242852463Y-57154243D01*
X242870340Y-57157403D01*
X242957250Y-57178722D01*
X243014208Y-57202883D01*
X243029028Y-57219921D01*
X243048902Y-57257256D01*
X243104801Y-57324021D01*
X243191136Y-57414351D01*
X243302321Y-57522378D01*
X243422635Y-57633143D01*
X243490238Y-57691514D01*
X243544512Y-57726361D01*
X243604215Y-57744506D01*
X243688107Y-57752770D01*
X243760305Y-57755915D01*
X243869348Y-57762116D01*
X243933229Y-57772022D01*
X243961332Y-57787877D01*
X243964610Y-57804780D01*
X243955998Y-57850860D01*
X243938833Y-57932532D01*
X243916811Y-58032213D01*
X243916551Y-58033364D01*
X243893859Y-58159259D01*
X243892706Y-58262809D01*
X243916543Y-58361865D01*
X243968824Y-58474277D01*
X244018637Y-58561194D01*
X244152748Y-58810358D01*
X244284000Y-59100545D01*
X244407243Y-59418262D01*
X244517324Y-59750017D01*
X244609093Y-60082315D01*
X244625596Y-60151074D01*
X244660529Y-60289006D01*
X244703204Y-60441265D01*
X244737864Y-60554334D01*
X244768552Y-60649877D01*
X244791327Y-60722819D01*
X244802054Y-60759871D01*
X244802390Y-60761806D01*
X244777041Y-60766874D01*
X244708606Y-60773570D01*
X244608499Y-60780903D01*
X244524028Y-60785976D01*
X244391784Y-60791863D01*
X244299378Y-60791221D01*
X244232316Y-60782542D01*
X244176103Y-60764321D01*
X244136731Y-60745739D01*
X244072082Y-60709948D01*
X244050270Y-60686058D01*
X244064205Y-60663956D01*
X244074061Y-60656333D01*
X244112534Y-60604178D01*
X244120327Y-60568672D01*
X244128676Y-60515203D01*
X244138625Y-60496544D01*
X244149164Y-60461041D01*
X244156753Y-60389261D01*
X244159086Y-60329153D01*
X244164118Y-60237716D01*
X244181826Y-60178775D01*
X244221140Y-60130386D01*
X244250642Y-60104181D01*
X244306000Y-60052372D01*
X244325900Y-60010585D01*
X244318582Y-59956168D01*
X244312421Y-59934368D01*
X244275955Y-59856364D01*
X244217063Y-59771742D01*
X244192105Y-59743391D01*
X244117041Y-59656894D01*
X244044627Y-59561374D01*
X244028270Y-59537218D01*
X243970408Y-59452263D01*
X243912446Y-59372873D01*
X243897296Y-59353465D01*
X243852050Y-59266833D01*
X243818209Y-59132275D01*
X243808373Y-59069939D01*
X243784135Y-58937641D01*
X243752921Y-58855218D01*
X243710689Y-58818059D01*
X243653394Y-58821554D01*
X243608545Y-58842108D01*
X243545038Y-58900329D01*
X243508275Y-58969478D01*
X243471213Y-59039065D01*
X243426427Y-59068959D01*
X243366386Y-59086735D01*
X243282910Y-59115100D01*
X243251194Y-59126615D01*
X243179826Y-59150288D01*
X243124637Y-59156055D01*
X243062437Y-59142926D01*
X242984166Y-59115209D01*
X242886872Y-59084066D01*
X242797060Y-59063955D01*
X242755179Y-59059775D01*
X242666710Y-59035141D01*
X242663521Y-59032492D01*
X243042669Y-59032492D01*
X243051695Y-59050617D01*
X243096567Y-59057315D01*
X243159775Y-59052586D01*
X243223808Y-59036431D01*
X243233646Y-59032492D01*
X243256845Y-59017722D01*
X243234914Y-59009916D01*
X243173871Y-59007127D01*
X243099004Y-59011903D01*
X243049781Y-59026171D01*
X243042669Y-59032492D01*
X242663521Y-59032492D01*
X242590504Y-58971833D01*
X242538813Y-58885743D01*
X242524209Y-58794774D01*
X242593884Y-58794774D01*
X242613464Y-58863233D01*
X242649768Y-58935444D01*
X242697985Y-58995423D01*
X242749370Y-59028745D01*
X242791149Y-59030959D01*
X242810548Y-58997611D01*
X242810768Y-58991568D01*
X242804472Y-58977927D01*
X243301853Y-58977927D01*
X243323950Y-59002132D01*
X243342776Y-59005210D01*
X243379083Y-58990478D01*
X243383700Y-58977927D01*
X243361602Y-58953723D01*
X243342776Y-58950645D01*
X243306470Y-58965377D01*
X243301853Y-58977927D01*
X242804472Y-58977927D01*
X242794025Y-58955295D01*
X242779672Y-58950645D01*
X242735856Y-58927995D01*
X242695475Y-58875192D01*
X242675443Y-58814959D01*
X242675223Y-58810331D01*
X242659438Y-58776728D01*
X242916112Y-58776728D01*
X242952349Y-58781451D01*
X242960821Y-58781631D01*
X243007415Y-58778682D01*
X243011517Y-58770141D01*
X243009085Y-58769054D01*
X242954924Y-58763657D01*
X242927237Y-58768043D01*
X242916112Y-58776728D01*
X242659438Y-58776728D01*
X242652722Y-58762432D01*
X242633431Y-58749801D01*
X242600251Y-58753688D01*
X242593884Y-58794774D01*
X242524209Y-58794774D01*
X242523886Y-58792761D01*
X242528467Y-58765674D01*
X242527550Y-58713618D01*
X242513037Y-58692930D01*
X242504222Y-58677820D01*
X243533754Y-58677820D01*
X243535917Y-58702960D01*
X243545785Y-58705102D01*
X243573567Y-58685298D01*
X243574677Y-58677820D01*
X243565369Y-58651247D01*
X243562646Y-58650537D01*
X243539353Y-58669655D01*
X243533754Y-58677820D01*
X242504222Y-58677820D01*
X242488347Y-58650610D01*
X242486100Y-58587002D01*
X242488262Y-58580967D01*
X242831341Y-58580967D01*
X242858978Y-58602794D01*
X242865333Y-58606762D01*
X242939245Y-58642380D01*
X242987617Y-58645920D01*
X243001745Y-58623255D01*
X242991156Y-58612794D01*
X243029028Y-58612794D01*
X243050472Y-58623430D01*
X243096217Y-58621107D01*
X243138376Y-58608812D01*
X243149363Y-58599913D01*
X243138176Y-58586930D01*
X243096408Y-58589453D01*
X243045683Y-58602744D01*
X243029028Y-58612794D01*
X242991156Y-58612794D01*
X242978996Y-58600782D01*
X242949411Y-58595972D01*
X242875998Y-58587589D01*
X242847102Y-58580447D01*
X242831341Y-58580967D01*
X242488262Y-58580967D01*
X242489402Y-58577784D01*
X243201817Y-58577784D01*
X243205562Y-58594003D01*
X243220005Y-58595972D01*
X243242462Y-58585990D01*
X243238193Y-58577784D01*
X243205815Y-58574519D01*
X243201817Y-58577784D01*
X242489402Y-58577784D01*
X242506318Y-58530563D01*
X242512900Y-58522798D01*
X242527047Y-58481521D01*
X242509494Y-58441372D01*
X243583772Y-58441372D01*
X243587517Y-58457591D01*
X243601960Y-58459560D01*
X243624417Y-58449578D01*
X243620148Y-58441372D01*
X243587770Y-58438106D01*
X243583772Y-58441372D01*
X242509494Y-58441372D01*
X242508293Y-58438625D01*
X242493416Y-58368576D01*
X242519338Y-58289424D01*
X242576282Y-58212546D01*
X242654473Y-58149317D01*
X242744132Y-58111112D01*
X242795134Y-58104887D01*
X242853544Y-58094186D01*
X242880096Y-58075790D01*
X242875431Y-58039946D01*
X242836522Y-58001231D01*
X242780870Y-57974089D01*
X242751097Y-57969343D01*
X242728269Y-57960959D01*
X243044506Y-57960959D01*
X243054984Y-58010937D01*
X243084932Y-58046393D01*
X243100416Y-58050323D01*
X243134307Y-58030734D01*
X243137740Y-58016219D01*
X243123355Y-57961422D01*
X243091733Y-57925535D01*
X243061922Y-57924083D01*
X243044506Y-57960959D01*
X242728269Y-57960959D01*
X242721351Y-57958418D01*
X242714950Y-57917917D01*
X242720564Y-57872986D01*
X242722943Y-57801693D01*
X242700026Y-57778475D01*
X242653032Y-57804043D01*
X242633569Y-57822181D01*
X242593509Y-57845324D01*
X242524227Y-57871452D01*
X242441277Y-57896418D01*
X242360209Y-57916073D01*
X242296577Y-57926267D01*
X242265931Y-57922852D01*
X242265118Y-57920477D01*
X242284755Y-57892116D01*
X242333113Y-57846107D01*
X242394359Y-57796306D01*
X242451865Y-57757036D01*
X242534637Y-57727184D01*
X242628858Y-57733605D01*
X242746129Y-57777668D01*
X242783100Y-57796119D01*
X242872306Y-57837399D01*
X242924570Y-57848265D01*
X242943980Y-57837240D01*
X242982027Y-57818043D01*
X243051896Y-57811114D01*
X243071439Y-57811799D01*
X243141425Y-57811657D01*
X243168635Y-57797016D01*
X243168354Y-57777498D01*
X243161331Y-57717981D01*
X243161559Y-57671193D01*
X243153424Y-57605689D01*
X243136946Y-57571419D01*
X243091402Y-57548637D01*
X242996248Y-57526887D01*
X242856441Y-57507064D01*
X242694256Y-57491428D01*
X242621679Y-57477435D01*
X242595422Y-57453158D01*
X242619537Y-57422426D01*
X242620580Y-57421760D01*
X242642353Y-57400541D01*
X242626689Y-57395960D01*
X242588002Y-57412769D01*
X242527287Y-57456072D01*
X242490277Y-57487411D01*
X242419286Y-57544896D01*
X242355661Y-57586223D01*
X242333283Y-57596228D01*
X242280571Y-57627954D01*
X242220842Y-57684352D01*
X242210512Y-57696460D01*
X242150214Y-57767990D01*
X242076529Y-57852601D01*
X242044820Y-57888194D01*
X241970473Y-57988070D01*
X241888296Y-58126897D01*
X241804960Y-58291022D01*
X241727135Y-58466793D01*
X241661491Y-58640556D01*
X241632395Y-58732385D01*
X241608373Y-58803479D01*
X241586084Y-58851765D01*
X241583734Y-58855156D01*
X241566601Y-58895455D01*
X241544695Y-58970258D01*
X241529727Y-59032492D01*
X241501456Y-59137573D01*
X241466478Y-59237255D01*
X241448342Y-59278035D01*
X241410162Y-59365029D01*
X241381949Y-59448875D01*
X241380310Y-59455371D01*
X241353684Y-59543005D01*
X241324167Y-59619066D01*
X241293938Y-59691629D01*
X241255943Y-59788881D01*
X241232701Y-59850967D01*
X241190404Y-59959004D01*
X241143969Y-60067078D01*
X241121588Y-60114792D01*
X241057022Y-60258012D01*
X241015283Y-60377216D01*
X240998402Y-60465130D01*
X241008407Y-60514480D01*
X241009678Y-60515833D01*
X241038991Y-60523349D01*
X241082889Y-60493835D01*
X241136244Y-60437541D01*
X241202956Y-60360438D01*
X241245000Y-60307772D01*
X241273781Y-60263040D01*
X241300702Y-60209738D01*
X241315342Y-60178357D01*
X241380688Y-60033725D01*
X241435676Y-59901793D01*
X241482983Y-59773212D01*
X241525286Y-59638635D01*
X241565263Y-59488713D01*
X241605590Y-59314098D01*
X241648944Y-59105440D01*
X241698002Y-58853393D01*
X241704434Y-58819605D01*
X241738115Y-58653512D01*
X241768727Y-58530481D01*
X241799699Y-58439396D01*
X241834460Y-58369141D01*
X241851703Y-58342161D01*
X241906473Y-58252590D01*
X241952119Y-58161989D01*
X241964180Y-58132119D01*
X242004801Y-58049371D01*
X242063492Y-57961912D01*
X242080397Y-57941142D01*
X242162436Y-57845704D01*
X242146200Y-57982116D01*
X242138532Y-58059461D01*
X242141226Y-58090678D01*
X242156053Y-58083524D01*
X242166445Y-58070784D01*
X242226675Y-58033294D01*
X242302229Y-58023040D01*
X242371328Y-58031046D01*
X242401233Y-58050749D01*
X242385678Y-58075670D01*
X242363493Y-58086363D01*
X242318085Y-58121328D01*
X242262153Y-58186627D01*
X242209539Y-58263774D01*
X242174084Y-58334281D01*
X242171012Y-58343438D01*
X242164317Y-58387071D01*
X242187211Y-58391163D01*
X242192439Y-58389295D01*
X242232408Y-58352166D01*
X242246234Y-58321260D01*
X242270588Y-58277995D01*
X242290247Y-58268582D01*
X242326425Y-58291578D01*
X242368247Y-58348311D01*
X242405193Y-58420403D01*
X242426744Y-58489475D01*
X242428711Y-58510514D01*
X242413133Y-58558802D01*
X242373620Y-58620198D01*
X242321184Y-58682786D01*
X242266836Y-58734654D01*
X242221586Y-58763887D01*
X242197523Y-58760656D01*
X242192581Y-58714705D01*
X242196778Y-58705318D01*
X242198399Y-58662106D01*
X242185577Y-58630292D01*
X242166846Y-58607157D01*
X242157538Y-58627257D01*
X242154098Y-58677820D01*
X242148972Y-58736848D01*
X242140841Y-58749078D01*
X242131101Y-58722100D01*
X242121149Y-58663501D01*
X242112381Y-58580873D01*
X242106194Y-58481803D01*
X242104142Y-58406359D01*
X242100287Y-58299454D01*
X242092315Y-58227950D01*
X242081310Y-58200100D01*
X242077339Y-58201740D01*
X242062574Y-58238444D01*
X242041565Y-58317434D01*
X242016643Y-58427108D01*
X241990138Y-58555867D01*
X241964379Y-58692109D01*
X241941698Y-58824233D01*
X241924425Y-58940637D01*
X241917889Y-58995532D01*
X241912272Y-59088349D01*
X241922119Y-59132441D01*
X241950740Y-59132279D01*
X241994352Y-59098835D01*
X242049725Y-59074098D01*
X242106612Y-59100531D01*
X242166664Y-59179325D01*
X242204161Y-59250681D01*
X242243462Y-59350911D01*
X242246512Y-59419593D01*
X242211797Y-59467254D01*
X242169571Y-59491357D01*
X242107804Y-59533562D01*
X242055595Y-59604290D01*
X242006671Y-59713532D01*
X241977998Y-59796402D01*
X241944354Y-59896160D01*
X241911203Y-59987816D01*
X241895293Y-60028303D01*
X241872895Y-60099261D01*
X241849555Y-60200020D01*
X241833813Y-60287487D01*
X241818955Y-60382660D01*
X241807015Y-60456894D01*
X241800948Y-60492106D01*
X241804301Y-60537725D01*
X241815188Y-60580774D01*
X241832784Y-60614188D01*
X241866758Y-60635345D01*
X241928012Y-60647070D01*
X242027449Y-60652185D01*
X242094602Y-60653145D01*
X242141091Y-60663166D01*
X242156716Y-60682716D01*
X242132891Y-60697479D01*
X242121885Y-60698642D01*
X242115144Y-60707690D01*
X242141738Y-60721640D01*
X242178813Y-60739272D01*
X242169432Y-60755906D01*
X242137782Y-60773714D01*
X242085480Y-60790239D01*
X242047593Y-60765801D01*
X242046382Y-60764357D01*
X241996166Y-60734918D01*
X241931776Y-60724007D01*
X241849298Y-60709644D01*
X241770862Y-60676870D01*
X241710857Y-60647245D01*
X241667598Y-60648829D01*
X241630240Y-60669422D01*
X241487893Y-60753540D01*
X241340637Y-60825517D01*
X241202229Y-60879654D01*
X241086428Y-60910253D01*
X241037388Y-60914984D01*
X240948780Y-60923486D01*
X240876124Y-60944835D01*
X240858463Y-60955040D01*
X240824995Y-60983610D01*
X240836068Y-60994128D01*
X240882126Y-60995964D01*
X241007655Y-60988415D01*
X241152726Y-60966199D01*
X241296758Y-60933666D01*
X241419171Y-60895162D01*
X241473708Y-60870987D01*
X241552950Y-60833113D01*
X241617457Y-60809624D01*
X241638768Y-60805854D01*
X241694929Y-60787712D01*
X241714011Y-60773115D01*
X241741807Y-60757300D01*
X241746750Y-60768887D01*
X241723229Y-60815109D01*
X241664294Y-60861651D01*
X241587388Y-60895286D01*
X241576235Y-60898198D01*
X241515698Y-60922869D01*
X241505752Y-60952666D01*
X241548204Y-60982018D01*
X241548952Y-60982311D01*
X241571459Y-60998243D01*
X241553013Y-61018977D01*
X241501208Y-61045825D01*
X241405719Y-61090740D01*
X241535311Y-61099846D01*
X241610884Y-61110027D01*
X241657585Y-61125701D01*
X241664903Y-61134739D01*
X241642783Y-61157625D01*
X241623979Y-61160527D01*
X241587673Y-61175258D01*
X241583056Y-61187809D01*
X241605153Y-61212014D01*
X241623979Y-61215092D01*
X241660286Y-61200360D01*
X241664903Y-61187809D01*
X241689262Y-61171421D01*
X241750783Y-61161690D01*
X241785581Y-61160527D01*
X241892857Y-61146754D01*
X241978893Y-61099228D01*
X241987317Y-61092320D01*
X242047080Y-61048181D01*
X242092597Y-61025095D01*
X242098925Y-61024114D01*
X242140668Y-61045443D01*
X242198476Y-61100559D01*
X242260855Y-61176155D01*
X242316310Y-61258926D01*
X242339838Y-61302991D01*
X242375602Y-61364192D01*
X242407294Y-61395173D01*
X242415172Y-61396088D01*
X242427786Y-61366727D01*
X242437962Y-61295091D01*
X242444225Y-61193460D01*
X242445339Y-61144494D01*
X242443442Y-61002419D01*
X242431383Y-60910176D01*
X242405602Y-60863430D01*
X242362538Y-60857849D01*
X242298633Y-60889100D01*
X242258287Y-60916796D01*
X242190109Y-60963071D01*
X242139254Y-60991974D01*
X242124612Y-60996832D01*
X242101275Y-60981393D01*
X242118055Y-60939572D01*
X242171705Y-60878109D01*
X242190091Y-60860834D01*
X242235873Y-60812985D01*
X242250847Y-60783643D01*
X242244656Y-60779371D01*
X242235083Y-60763592D01*
X242266090Y-60723034D01*
X242317137Y-60683854D01*
X242354759Y-60671702D01*
X242414488Y-60671683D01*
X242443723Y-60644006D01*
X242452063Y-60577004D01*
X242452018Y-60553491D01*
X242458752Y-60423674D01*
X242479656Y-60279442D01*
X242511102Y-60135897D01*
X242549465Y-60008136D01*
X242591120Y-59911258D01*
X242614735Y-59875889D01*
X242650962Y-59814872D01*
X242682920Y-59730854D01*
X242688532Y-59710284D01*
X242716350Y-59598105D01*
X242819950Y-59724536D01*
X242881141Y-59792194D01*
X242933642Y-59838074D01*
X242960347Y-59850967D01*
X242998407Y-59869532D01*
X243056998Y-59917265D01*
X243100555Y-59960097D01*
X243163373Y-60020672D01*
X243214858Y-60060298D01*
X243235958Y-60069227D01*
X243267869Y-60091837D01*
X243299850Y-60146241D01*
X243299998Y-60146597D01*
X243312442Y-60245146D01*
X243275769Y-60351709D01*
X243218554Y-60430311D01*
X243203469Y-60454009D01*
X243192824Y-60491601D01*
X243186195Y-60550769D01*
X243183158Y-60639192D01*
X243183286Y-60764551D01*
X243186157Y-60934525D01*
X243187440Y-60993184D01*
X243190701Y-61213129D01*
X243189248Y-61382845D01*
X243182935Y-61506473D01*
X243171619Y-61588156D01*
X243165961Y-61609109D01*
X243150981Y-61681807D01*
X243139311Y-61790104D01*
X243132751Y-61915059D01*
X243131957Y-61966643D01*
X243128372Y-62088732D01*
X243119426Y-62188123D01*
X243106520Y-62251569D01*
X243100518Y-62263975D01*
X243049532Y-62291895D01*
X242952095Y-62307740D01*
X242913080Y-62309945D01*
X242801775Y-62321295D01*
X242732388Y-62347404D01*
X242711054Y-62365625D01*
X242651241Y-62408612D01*
X242597492Y-62409782D01*
X242563894Y-62370209D01*
X242560302Y-62354136D01*
X242543492Y-62309419D01*
X242524301Y-62300352D01*
X242512431Y-62297254D01*
X242501386Y-62276090D01*
X242489737Y-62229726D01*
X242476055Y-62151024D01*
X242458908Y-62032847D01*
X242436868Y-61868059D01*
X242435319Y-61856230D01*
X242420092Y-61771218D01*
X242401956Y-61714230D01*
X242387254Y-61698406D01*
X242350764Y-61709850D01*
X242276758Y-61735226D01*
X242178991Y-61769784D01*
X242142347Y-61782939D01*
X241984937Y-61837142D01*
X241847789Y-61877301D01*
X241710753Y-61908152D01*
X241553680Y-61934430D01*
X241419361Y-61952854D01*
X241279535Y-61972914D01*
X241135488Y-61996734D01*
X241012542Y-62020044D01*
X240982841Y-62026461D01*
X240806905Y-62055254D01*
X240637818Y-62063020D01*
X240488485Y-62050331D01*
X240371813Y-62017759D01*
X240334840Y-61997743D01*
X240272989Y-61946846D01*
X240233828Y-61897575D01*
X240230460Y-61889599D01*
X240204685Y-61843330D01*
X240154371Y-61774168D01*
X240107729Y-61717424D01*
X240050081Y-61643485D01*
X240011269Y-61579664D01*
X240000806Y-61547643D01*
X240009879Y-61501796D01*
X240033908Y-61420169D01*
X240068304Y-61317927D01*
X240080764Y-61283298D01*
X240099902Y-61230736D01*
X240240649Y-61230736D01*
X240283191Y-61274792D01*
X240338340Y-61311227D01*
X240387376Y-61329715D01*
X240409970Y-61324122D01*
X240444514Y-61311014D01*
X240513572Y-61307868D01*
X240555332Y-61310630D01*
X240635001Y-61315766D01*
X240678072Y-61306196D01*
X240701807Y-61275938D01*
X240709567Y-61257196D01*
X240715377Y-61224186D01*
X241373890Y-61224186D01*
X241377635Y-61240405D01*
X241392078Y-61242374D01*
X241414535Y-61232392D01*
X241410266Y-61224186D01*
X241483020Y-61224186D01*
X241486765Y-61240405D01*
X241501208Y-61242374D01*
X241523665Y-61232392D01*
X241519396Y-61224186D01*
X241487018Y-61220921D01*
X241483020Y-61224186D01*
X241410266Y-61224186D01*
X241377888Y-61220921D01*
X241373890Y-61224186D01*
X240715377Y-61224186D01*
X240720795Y-61193400D01*
X240722736Y-61100180D01*
X240718257Y-61032386D01*
X240710869Y-60924493D01*
X240707086Y-60790103D01*
X240707668Y-60657212D01*
X240707866Y-60649647D01*
X240708826Y-60542405D01*
X240705902Y-60455715D01*
X240699713Y-60404411D01*
X240697402Y-60398279D01*
X240669672Y-60388924D01*
X240633691Y-60417411D01*
X240599451Y-60470160D01*
X240576943Y-60533588D01*
X240573186Y-60567132D01*
X240563782Y-60656032D01*
X240530210Y-60705032D01*
X240462828Y-60726829D01*
X240450743Y-60728366D01*
X240394484Y-60740952D01*
X240375683Y-60773230D01*
X240377578Y-60823611D01*
X240375278Y-60888737D01*
X240357837Y-60927056D01*
X240357116Y-60927530D01*
X240335216Y-60965760D01*
X240328061Y-61017145D01*
X240309481Y-61091178D01*
X240274752Y-61145549D01*
X240242241Y-61195259D01*
X240240649Y-61230736D01*
X240099902Y-61230736D01*
X240122477Y-61168733D01*
X240161153Y-61061635D01*
X240189691Y-60981686D01*
X240193954Y-60969549D01*
X240226801Y-60876218D01*
X240261907Y-60777384D01*
X240264694Y-60769589D01*
X240288874Y-60681716D01*
X240310086Y-60570491D01*
X240318951Y-60503584D01*
X240331743Y-60417967D01*
X240347844Y-60359401D01*
X240360945Y-60342052D01*
X240378922Y-60320029D01*
X240379223Y-60294307D01*
X240380365Y-60261380D01*
X240391272Y-60205101D01*
X240391444Y-60204444D01*
X240551299Y-60204444D01*
X240569682Y-60238541D01*
X240597973Y-60263331D01*
X240661097Y-60306166D01*
X240698707Y-60306253D01*
X240720116Y-60262847D01*
X240722324Y-60253384D01*
X240732544Y-60191150D01*
X240743877Y-60100166D01*
X240749606Y-60044667D01*
X240764700Y-59952966D01*
X240788095Y-59879322D01*
X240803685Y-59852977D01*
X240832521Y-59799217D01*
X240856657Y-59717660D01*
X240862399Y-59686559D01*
X240882175Y-59601507D01*
X240909482Y-59534662D01*
X240919429Y-59520140D01*
X240948845Y-59464446D01*
X240971528Y-59384729D01*
X240974057Y-59370087D01*
X240993237Y-59290450D01*
X241019677Y-59230296D01*
X241024701Y-59223470D01*
X241050091Y-59182905D01*
X241092039Y-59104892D01*
X241144229Y-59001521D01*
X241188621Y-58909721D01*
X241247986Y-58789051D01*
X241306043Y-58678710D01*
X241354977Y-58593165D01*
X241380175Y-58555049D01*
X241421248Y-58487732D01*
X241469282Y-58389840D01*
X241513899Y-58282535D01*
X241514004Y-58282255D01*
X241552209Y-58186025D01*
X241586432Y-58109385D01*
X241609913Y-58067349D01*
X241611671Y-58065359D01*
X241636309Y-58015574D01*
X241637621Y-58002791D01*
X241644143Y-57970293D01*
X241668201Y-57929304D01*
X241716535Y-57870950D01*
X241795881Y-57786354D01*
X241823881Y-57757468D01*
X241883658Y-57692816D01*
X241922173Y-57644790D01*
X241931023Y-57625286D01*
X241900632Y-57626970D01*
X241848721Y-57647890D01*
X241798804Y-57676471D01*
X241774393Y-57701138D01*
X241774246Y-57702471D01*
X241751401Y-57720663D01*
X241726289Y-57724621D01*
X241681538Y-57747391D01*
X241626495Y-57802409D01*
X241572899Y-57873522D01*
X241532490Y-57944582D01*
X241517008Y-57999435D01*
X241518855Y-58010000D01*
X241516159Y-58063231D01*
X241496520Y-58099083D01*
X241430476Y-58201905D01*
X241391429Y-58309690D01*
X241385257Y-58361829D01*
X241377123Y-58414178D01*
X241360800Y-58432277D01*
X241333597Y-58454524D01*
X241303080Y-58507304D01*
X241253101Y-58602536D01*
X241178687Y-58722382D01*
X241099432Y-58837297D01*
X241058242Y-58908359D01*
X241021491Y-58993418D01*
X241019796Y-58998265D01*
X240992439Y-59065902D01*
X240967779Y-59108202D01*
X240964187Y-59111612D01*
X240932418Y-59147287D01*
X240905039Y-59195666D01*
X240891569Y-59236678D01*
X240898195Y-59250752D01*
X240906644Y-59271366D01*
X240892442Y-59315806D01*
X240858313Y-59359466D01*
X240826802Y-59367452D01*
X240796972Y-59376834D01*
X240791863Y-59397887D01*
X240781419Y-59436100D01*
X240771401Y-59441772D01*
X240759468Y-59466333D01*
X240751572Y-59529003D01*
X240749876Y-59576495D01*
X240739049Y-59681063D01*
X240711283Y-59753403D01*
X240705703Y-59760609D01*
X240679881Y-59809150D01*
X240671552Y-59883909D01*
X240675498Y-59966918D01*
X240680274Y-60057902D01*
X240674200Y-60106250D01*
X240655313Y-60123162D01*
X240647985Y-60123792D01*
X240598455Y-60143178D01*
X240571008Y-60167843D01*
X240551299Y-60204444D01*
X240391444Y-60204444D01*
X240413354Y-60120672D01*
X240448019Y-60003291D01*
X240496678Y-59848158D01*
X240560741Y-59650473D01*
X240629573Y-59441730D01*
X240677147Y-59293910D01*
X240719194Y-59155174D01*
X240752115Y-59038006D01*
X240772310Y-58954892D01*
X240776044Y-58933793D01*
X240796551Y-58839478D01*
X240827053Y-58753665D01*
X240832364Y-58742815D01*
X240861214Y-58677706D01*
X240873538Y-58630489D01*
X240873543Y-58630075D01*
X240890625Y-58598372D01*
X240900473Y-58595972D01*
X240926541Y-58572870D01*
X240943859Y-58529740D01*
X240970818Y-58473149D01*
X240998944Y-58448749D01*
X241033656Y-58412106D01*
X241037406Y-58393113D01*
X241054774Y-58356113D01*
X241101402Y-58290496D01*
X241169073Y-58207309D01*
X241212095Y-58158279D01*
X241322056Y-58022281D01*
X241391189Y-57904998D01*
X241417746Y-57810170D01*
X241404091Y-57747580D01*
X241412834Y-57713303D01*
X241458286Y-57655085D01*
X241532543Y-57580401D01*
X241627701Y-57496727D01*
X241735857Y-57411541D01*
X241829212Y-57345461D01*
X241906855Y-57295737D01*
G37*
%TO.C,SW23*%
X93779500Y-95250000D02*
G75*
G03*
X93779500Y-95250000I-6467000J0D01*
G01*
%TO.C,SW34*%
X139022000Y-114300000D02*
G75*
G03*
X139022000Y-114300000I-6467000J0D01*
G01*
%TO.C,SW22*%
X67587000Y-95250000D02*
G75*
G03*
X67587000Y-95250000I-6467000J0D01*
G01*
%TO.C,SW16*%
X141404500Y-76200000D02*
G75*
G03*
X141404500Y-76200000I-6467000J0D01*
G01*
%TO.C,SW14*%
X103304500Y-76200000D02*
G75*
G03*
X103304500Y-76200000I-6467000J0D01*
G01*
%TO.C,SW7*%
X174742000Y-57150000D02*
G75*
G03*
X174742000Y-57150000I-6467000J0D01*
G01*
%TO.C,SW24*%
X112829500Y-95250000D02*
G75*
G03*
X112829500Y-95250000I-6467000J0D01*
G01*
%TO.C,SW11*%
X250942000Y-57150000D02*
G75*
G03*
X250942000Y-57150000I-6467000J0D01*
G01*
%TO.C,SW31*%
X248562000Y-95250000D02*
G75*
G03*
X248562000Y-95250000I-6467000J0D01*
G01*
%TO.C,SW2*%
X79492000Y-57150000D02*
G75*
G03*
X79492000Y-57150000I-6467000J0D01*
G01*
%TO.C,SW5*%
X136642000Y-57150000D02*
G75*
G03*
X136642000Y-57150000I-6467000J0D01*
G01*
%TO.C,SW8*%
X193792000Y-57150000D02*
G75*
G03*
X193792000Y-57150000I-6467000J0D01*
G01*
%TO.C,SW13*%
X84254500Y-76200000D02*
G75*
G03*
X84254500Y-76200000I-6467000J0D01*
G01*
%TO.C,SW21*%
X243797000Y-76200000D02*
G75*
G03*
X243797000Y-76200000I-6467000J0D01*
G01*
%TO.C,SW36*%
X200937000Y-114300000D02*
G75*
G03*
X200937000Y-114300000I-6467000J0D01*
G01*
%TO.C,SW35*%
X172359000Y-114300000D02*
G75*
G03*
X172359000Y-114300000I-6467000J0D01*
G01*
%TO.C,SW25*%
X131879500Y-95250000D02*
G75*
G03*
X131879500Y-95250000I-6467000J0D01*
G01*
%TO.C,SW33*%
X110447000Y-114300000D02*
G75*
G03*
X110447000Y-114300000I-6467000J0D01*
G01*
%TO.C,SW32*%
X89017000Y-114300000D02*
G75*
G03*
X89017000Y-114300000I-6467000J0D01*
G01*
%TO.C,SW3*%
X98542000Y-57150000D02*
G75*
G03*
X98542000Y-57150000I-6467000J0D01*
G01*
%TO.C,SW26*%
X150929500Y-95250000D02*
G75*
G03*
X150929500Y-95250000I-6467000J0D01*
G01*
%TO.C,SW6*%
X155692000Y-57150000D02*
G75*
G03*
X155692000Y-57150000I-6467000J0D01*
G01*
%TO.C,SW30*%
X227129500Y-95250000D02*
G75*
G03*
X227129500Y-95250000I-6467000J0D01*
G01*
%TO.C,SW29*%
X208079500Y-95250000D02*
G75*
G03*
X208079500Y-95250000I-6467000J0D01*
G01*
%TO.C,SW37*%
X222367000Y-114300000D02*
G75*
G03*
X222367000Y-114300000I-6467000J0D01*
G01*
%TO.C,SW10*%
X231892000Y-57150000D02*
G75*
G03*
X231892000Y-57150000I-6467000J0D01*
G01*
%TO.C,SW19*%
X198554500Y-76200000D02*
G75*
G03*
X198554500Y-76200000I-6467000J0D01*
G01*
%TD*%
D11*
%TO.C,H2*%
X120650000Y-57150000D03*
%TD*%
%TO.C,H11*%
X153987500Y-95250000D03*
%TD*%
%TO.C,H1*%
X63500000Y-57150000D03*
%TD*%
%TO.C,H9*%
X71437500Y-95250000D03*
%TD*%
%TO.C,H13*%
X231775000Y-95250000D03*
%TD*%
%TO.C,H5*%
X87312500Y-76200000D03*
%TD*%
%TO.C,H10*%
X115887500Y-95250000D03*
%TD*%
%TO.C,H8*%
X220662500Y-76200000D03*
%TD*%
%TO.C,H15*%
X122237500Y-114300000D03*
%TD*%
%TO.C,H3*%
X177800000Y-57150000D03*
%TD*%
%TO.C,H17*%
X206375000Y-114300000D03*
%TD*%
%TO.C,H4*%
X234950000Y-57150000D03*
%TD*%
%TO.C,H6*%
X125412500Y-76200000D03*
%TD*%
%TO.C,H16*%
X176212500Y-114300000D03*
%TD*%
%TO.C,H12*%
X192087500Y-95250000D03*
%TD*%
%TO.C,H7*%
X182562500Y-76200000D03*
%TD*%
%TO.C,H14*%
X92075000Y-114300000D03*
%TD*%
M02*
