%TF.GenerationSoftware,KiCad,Pcbnew,(7.0.0)*%
%TF.CreationDate,2023-02-16T23:07:07+01:00*%
%TF.ProjectId,travaulta simplified,74726176-6175-46c7-9461-2073696d706c,rev?*%
%TF.SameCoordinates,Original*%
%TF.FileFunction,Legend,Bot*%
%TF.FilePolarity,Positive*%
%FSLAX46Y46*%
G04 Gerber Fmt 4.6, Leading zero omitted, Abs format (unit mm)*
G04 Created by KiCad (PCBNEW (7.0.0)) date 2023-02-16 23:07:07*
%MOMM*%
%LPD*%
G01*
G04 APERTURE LIST*
%ADD10C,0.200000*%
%ADD11C,0.150000*%
%ADD12C,0.120000*%
%ADD13C,0.170180*%
%ADD14C,0.002540*%
%ADD15C,0.254000*%
G04 APERTURE END LIST*
D10*
X166354166Y-83050834D02*
X164354166Y-83050834D01*
X165354166Y-86550834D02*
X165354166Y-83050834D01*
X163187499Y-86550834D02*
X163187499Y-84217501D01*
X163187499Y-84884167D02*
X163020833Y-84550834D01*
X163020833Y-84550834D02*
X162854166Y-84384167D01*
X162854166Y-84384167D02*
X162520833Y-84217501D01*
X162520833Y-84217501D02*
X162187499Y-84217501D01*
X159520832Y-86550834D02*
X159520832Y-84717501D01*
X159520832Y-84717501D02*
X159687499Y-84384167D01*
X159687499Y-84384167D02*
X160020832Y-84217501D01*
X160020832Y-84217501D02*
X160687499Y-84217501D01*
X160687499Y-84217501D02*
X161020832Y-84384167D01*
X159520832Y-86384167D02*
X159854166Y-86550834D01*
X159854166Y-86550834D02*
X160687499Y-86550834D01*
X160687499Y-86550834D02*
X161020832Y-86384167D01*
X161020832Y-86384167D02*
X161187499Y-86050834D01*
X161187499Y-86050834D02*
X161187499Y-85717501D01*
X161187499Y-85717501D02*
X161020832Y-85384167D01*
X161020832Y-85384167D02*
X160687499Y-85217501D01*
X160687499Y-85217501D02*
X159854166Y-85217501D01*
X159854166Y-85217501D02*
X159520832Y-85050834D01*
X158187499Y-84217501D02*
X157354165Y-86550834D01*
X157354165Y-86550834D02*
X156520832Y-84217501D01*
X153687498Y-86550834D02*
X153687498Y-84717501D01*
X153687498Y-84717501D02*
X153854165Y-84384167D01*
X153854165Y-84384167D02*
X154187498Y-84217501D01*
X154187498Y-84217501D02*
X154854165Y-84217501D01*
X154854165Y-84217501D02*
X155187498Y-84384167D01*
X153687498Y-86384167D02*
X154020832Y-86550834D01*
X154020832Y-86550834D02*
X154854165Y-86550834D01*
X154854165Y-86550834D02*
X155187498Y-86384167D01*
X155187498Y-86384167D02*
X155354165Y-86050834D01*
X155354165Y-86050834D02*
X155354165Y-85717501D01*
X155354165Y-85717501D02*
X155187498Y-85384167D01*
X155187498Y-85384167D02*
X154854165Y-85217501D01*
X154854165Y-85217501D02*
X154020832Y-85217501D01*
X154020832Y-85217501D02*
X153687498Y-85050834D01*
X150520831Y-84217501D02*
X150520831Y-86550834D01*
X152020831Y-84217501D02*
X152020831Y-86050834D01*
X152020831Y-86050834D02*
X151854165Y-86384167D01*
X151854165Y-86384167D02*
X151520831Y-86550834D01*
X151520831Y-86550834D02*
X151020831Y-86550834D01*
X151020831Y-86550834D02*
X150687498Y-86384167D01*
X150687498Y-86384167D02*
X150520831Y-86217501D01*
X148354164Y-86550834D02*
X148687498Y-86384167D01*
X148687498Y-86384167D02*
X148854164Y-86050834D01*
X148854164Y-86050834D02*
X148854164Y-83050834D01*
X147520831Y-84217501D02*
X146187498Y-84217501D01*
X147020831Y-83050834D02*
X147020831Y-86050834D01*
X147020831Y-86050834D02*
X146854165Y-86384167D01*
X146854165Y-86384167D02*
X146520831Y-86550834D01*
X146520831Y-86550834D02*
X146187498Y-86550834D01*
X143520831Y-86550834D02*
X143520831Y-84717501D01*
X143520831Y-84717501D02*
X143687498Y-84384167D01*
X143687498Y-84384167D02*
X144020831Y-84217501D01*
X144020831Y-84217501D02*
X144687498Y-84217501D01*
X144687498Y-84217501D02*
X145020831Y-84384167D01*
X143520831Y-86384167D02*
X143854165Y-86550834D01*
X143854165Y-86550834D02*
X144687498Y-86550834D01*
X144687498Y-86550834D02*
X145020831Y-86384167D01*
X145020831Y-86384167D02*
X145187498Y-86050834D01*
X145187498Y-86050834D02*
X145187498Y-85717501D01*
X145187498Y-85717501D02*
X145020831Y-85384167D01*
X145020831Y-85384167D02*
X144687498Y-85217501D01*
X144687498Y-85217501D02*
X143854165Y-85217501D01*
X143854165Y-85217501D02*
X143520831Y-85050834D01*
X140087498Y-84217501D02*
X139254164Y-86550834D01*
X139254164Y-86550834D02*
X138420831Y-84217501D01*
X135254164Y-86550834D02*
X137254164Y-86550834D01*
X136254164Y-86550834D02*
X136254164Y-83050834D01*
X136254164Y-83050834D02*
X136587497Y-83550834D01*
X136587497Y-83550834D02*
X136920831Y-83884167D01*
X136920831Y-83884167D02*
X137254164Y-84050834D01*
X133754164Y-86217501D02*
X133587498Y-86384167D01*
X133587498Y-86384167D02*
X133754164Y-86550834D01*
X133754164Y-86550834D02*
X133920831Y-86384167D01*
X133920831Y-86384167D02*
X133754164Y-86217501D01*
X133754164Y-86217501D02*
X133754164Y-86550834D01*
X131420831Y-83050834D02*
X131087497Y-83050834D01*
X131087497Y-83050834D02*
X130754164Y-83217501D01*
X130754164Y-83217501D02*
X130587497Y-83384167D01*
X130587497Y-83384167D02*
X130420831Y-83717501D01*
X130420831Y-83717501D02*
X130254164Y-84384167D01*
X130254164Y-84384167D02*
X130254164Y-85217501D01*
X130254164Y-85217501D02*
X130420831Y-85884167D01*
X130420831Y-85884167D02*
X130587497Y-86217501D01*
X130587497Y-86217501D02*
X130754164Y-86384167D01*
X130754164Y-86384167D02*
X131087497Y-86550834D01*
X131087497Y-86550834D02*
X131420831Y-86550834D01*
X131420831Y-86550834D02*
X131754164Y-86384167D01*
X131754164Y-86384167D02*
X131920831Y-86217501D01*
X131920831Y-86217501D02*
X132087497Y-85884167D01*
X132087497Y-85884167D02*
X132254164Y-85217501D01*
X132254164Y-85217501D02*
X132254164Y-84384167D01*
X132254164Y-84384167D02*
X132087497Y-83717501D01*
X132087497Y-83717501D02*
X131920831Y-83384167D01*
X131920831Y-83384167D02*
X131754164Y-83217501D01*
X131754164Y-83217501D02*
X131420831Y-83050834D01*
D11*
X77930951Y-50167380D02*
X77930951Y-50881666D01*
X77930951Y-50881666D02*
X77883332Y-51024523D01*
X77883332Y-51024523D02*
X77788094Y-51119761D01*
X77788094Y-51119761D02*
X77645237Y-51167380D01*
X77645237Y-51167380D02*
X77549999Y-51167380D01*
X78883332Y-51167380D02*
X78407142Y-51167380D01*
X78407142Y-51167380D02*
X78407142Y-50167380D01*
X79788094Y-51072142D02*
X79740475Y-51119761D01*
X79740475Y-51119761D02*
X79597618Y-51167380D01*
X79597618Y-51167380D02*
X79502380Y-51167380D01*
X79502380Y-51167380D02*
X79359523Y-51119761D01*
X79359523Y-51119761D02*
X79264285Y-51024523D01*
X79264285Y-51024523D02*
X79216666Y-50929285D01*
X79216666Y-50929285D02*
X79169047Y-50738809D01*
X79169047Y-50738809D02*
X79169047Y-50595952D01*
X79169047Y-50595952D02*
X79216666Y-50405476D01*
X79216666Y-50405476D02*
X79264285Y-50310238D01*
X79264285Y-50310238D02*
X79359523Y-50215000D01*
X79359523Y-50215000D02*
X79502380Y-50167380D01*
X79502380Y-50167380D02*
X79597618Y-50167380D01*
X79597618Y-50167380D02*
X79740475Y-50215000D01*
X79740475Y-50215000D02*
X79788094Y-50262619D01*
X80502380Y-50167380D02*
X80502380Y-50881666D01*
X80502380Y-50881666D02*
X80454761Y-51024523D01*
X80454761Y-51024523D02*
X80359523Y-51119761D01*
X80359523Y-51119761D02*
X80216666Y-51167380D01*
X80216666Y-51167380D02*
X80121428Y-51167380D01*
X81454761Y-51167380D02*
X80978571Y-51167380D01*
X80978571Y-51167380D02*
X80978571Y-50167380D01*
X82359523Y-51072142D02*
X82311904Y-51119761D01*
X82311904Y-51119761D02*
X82169047Y-51167380D01*
X82169047Y-51167380D02*
X82073809Y-51167380D01*
X82073809Y-51167380D02*
X81930952Y-51119761D01*
X81930952Y-51119761D02*
X81835714Y-51024523D01*
X81835714Y-51024523D02*
X81788095Y-50929285D01*
X81788095Y-50929285D02*
X81740476Y-50738809D01*
X81740476Y-50738809D02*
X81740476Y-50595952D01*
X81740476Y-50595952D02*
X81788095Y-50405476D01*
X81788095Y-50405476D02*
X81835714Y-50310238D01*
X81835714Y-50310238D02*
X81930952Y-50215000D01*
X81930952Y-50215000D02*
X82073809Y-50167380D01*
X82073809Y-50167380D02*
X82169047Y-50167380D01*
X82169047Y-50167380D02*
X82311904Y-50215000D01*
X82311904Y-50215000D02*
X82359523Y-50262619D01*
X83073809Y-50167380D02*
X83073809Y-50881666D01*
X83073809Y-50881666D02*
X83026190Y-51024523D01*
X83026190Y-51024523D02*
X82930952Y-51119761D01*
X82930952Y-51119761D02*
X82788095Y-51167380D01*
X82788095Y-51167380D02*
X82692857Y-51167380D01*
X84026190Y-51167380D02*
X83550000Y-51167380D01*
X83550000Y-51167380D02*
X83550000Y-50167380D01*
X84930952Y-51072142D02*
X84883333Y-51119761D01*
X84883333Y-51119761D02*
X84740476Y-51167380D01*
X84740476Y-51167380D02*
X84645238Y-51167380D01*
X84645238Y-51167380D02*
X84502381Y-51119761D01*
X84502381Y-51119761D02*
X84407143Y-51024523D01*
X84407143Y-51024523D02*
X84359524Y-50929285D01*
X84359524Y-50929285D02*
X84311905Y-50738809D01*
X84311905Y-50738809D02*
X84311905Y-50595952D01*
X84311905Y-50595952D02*
X84359524Y-50405476D01*
X84359524Y-50405476D02*
X84407143Y-50310238D01*
X84407143Y-50310238D02*
X84502381Y-50215000D01*
X84502381Y-50215000D02*
X84645238Y-50167380D01*
X84645238Y-50167380D02*
X84740476Y-50167380D01*
X84740476Y-50167380D02*
X84883333Y-50215000D01*
X84883333Y-50215000D02*
X84930952Y-50262619D01*
X85645238Y-50167380D02*
X85645238Y-50881666D01*
X85645238Y-50881666D02*
X85597619Y-51024523D01*
X85597619Y-51024523D02*
X85502381Y-51119761D01*
X85502381Y-51119761D02*
X85359524Y-51167380D01*
X85359524Y-51167380D02*
X85264286Y-51167380D01*
X86597619Y-51167380D02*
X86121429Y-51167380D01*
X86121429Y-51167380D02*
X86121429Y-50167380D01*
X87502381Y-51072142D02*
X87454762Y-51119761D01*
X87454762Y-51119761D02*
X87311905Y-51167380D01*
X87311905Y-51167380D02*
X87216667Y-51167380D01*
X87216667Y-51167380D02*
X87073810Y-51119761D01*
X87073810Y-51119761D02*
X86978572Y-51024523D01*
X86978572Y-51024523D02*
X86930953Y-50929285D01*
X86930953Y-50929285D02*
X86883334Y-50738809D01*
X86883334Y-50738809D02*
X86883334Y-50595952D01*
X86883334Y-50595952D02*
X86930953Y-50405476D01*
X86930953Y-50405476D02*
X86978572Y-50310238D01*
X86978572Y-50310238D02*
X87073810Y-50215000D01*
X87073810Y-50215000D02*
X87216667Y-50167380D01*
X87216667Y-50167380D02*
X87311905Y-50167380D01*
X87311905Y-50167380D02*
X87454762Y-50215000D01*
X87454762Y-50215000D02*
X87502381Y-50262619D01*
X250470904Y-70774165D02*
X249670904Y-70774165D01*
X250432809Y-70774165D02*
X250470904Y-70697974D01*
X250470904Y-70697974D02*
X250470904Y-70545593D01*
X250470904Y-70545593D02*
X250432809Y-70469403D01*
X250432809Y-70469403D02*
X250394714Y-70431308D01*
X250394714Y-70431308D02*
X250318523Y-70393212D01*
X250318523Y-70393212D02*
X250089952Y-70393212D01*
X250089952Y-70393212D02*
X250013761Y-70431308D01*
X250013761Y-70431308D02*
X249975666Y-70469403D01*
X249975666Y-70469403D02*
X249937571Y-70545593D01*
X249937571Y-70545593D02*
X249937571Y-70697974D01*
X249937571Y-70697974D02*
X249975666Y-70774165D01*
X250432809Y-71459880D02*
X250470904Y-71383689D01*
X250470904Y-71383689D02*
X250470904Y-71231308D01*
X250470904Y-71231308D02*
X250432809Y-71155118D01*
X250432809Y-71155118D02*
X250356619Y-71117022D01*
X250356619Y-71117022D02*
X250051857Y-71117022D01*
X250051857Y-71117022D02*
X249975666Y-71155118D01*
X249975666Y-71155118D02*
X249937571Y-71231308D01*
X249937571Y-71231308D02*
X249937571Y-71383689D01*
X249937571Y-71383689D02*
X249975666Y-71459880D01*
X249975666Y-71459880D02*
X250051857Y-71497975D01*
X250051857Y-71497975D02*
X250128047Y-71497975D01*
X250128047Y-71497975D02*
X250204238Y-71117022D01*
X250432809Y-71802736D02*
X250470904Y-71878927D01*
X250470904Y-71878927D02*
X250470904Y-72031308D01*
X250470904Y-72031308D02*
X250432809Y-72107498D01*
X250432809Y-72107498D02*
X250356619Y-72145594D01*
X250356619Y-72145594D02*
X250318523Y-72145594D01*
X250318523Y-72145594D02*
X250242333Y-72107498D01*
X250242333Y-72107498D02*
X250204238Y-72031308D01*
X250204238Y-72031308D02*
X250204238Y-71917022D01*
X250204238Y-71917022D02*
X250166142Y-71840832D01*
X250166142Y-71840832D02*
X250089952Y-71802736D01*
X250089952Y-71802736D02*
X250051857Y-71802736D01*
X250051857Y-71802736D02*
X249975666Y-71840832D01*
X249975666Y-71840832D02*
X249937571Y-71917022D01*
X249937571Y-71917022D02*
X249937571Y-72031308D01*
X249937571Y-72031308D02*
X249975666Y-72107498D01*
X250470904Y-72488451D02*
X249937571Y-72488451D01*
X249670904Y-72488451D02*
X249709000Y-72450355D01*
X249709000Y-72450355D02*
X249747095Y-72488451D01*
X249747095Y-72488451D02*
X249709000Y-72526546D01*
X249709000Y-72526546D02*
X249670904Y-72488451D01*
X249670904Y-72488451D02*
X249747095Y-72488451D01*
X249937571Y-73212260D02*
X250585190Y-73212260D01*
X250585190Y-73212260D02*
X250661380Y-73174165D01*
X250661380Y-73174165D02*
X250699476Y-73136069D01*
X250699476Y-73136069D02*
X250737571Y-73059879D01*
X250737571Y-73059879D02*
X250737571Y-72945593D01*
X250737571Y-72945593D02*
X250699476Y-72869403D01*
X250432809Y-73212260D02*
X250470904Y-73136069D01*
X250470904Y-73136069D02*
X250470904Y-72983688D01*
X250470904Y-72983688D02*
X250432809Y-72907498D01*
X250432809Y-72907498D02*
X250394714Y-72869403D01*
X250394714Y-72869403D02*
X250318523Y-72831307D01*
X250318523Y-72831307D02*
X250089952Y-72831307D01*
X250089952Y-72831307D02*
X250013761Y-72869403D01*
X250013761Y-72869403D02*
X249975666Y-72907498D01*
X249975666Y-72907498D02*
X249937571Y-72983688D01*
X249937571Y-72983688D02*
X249937571Y-73136069D01*
X249937571Y-73136069D02*
X249975666Y-73212260D01*
X249937571Y-73593213D02*
X250470904Y-73593213D01*
X250013761Y-73593213D02*
X249975666Y-73631308D01*
X249975666Y-73631308D02*
X249937571Y-73707498D01*
X249937571Y-73707498D02*
X249937571Y-73821784D01*
X249937571Y-73821784D02*
X249975666Y-73897975D01*
X249975666Y-73897975D02*
X250051857Y-73936070D01*
X250051857Y-73936070D02*
X250470904Y-73936070D01*
X250432809Y-74621785D02*
X250470904Y-74545594D01*
X250470904Y-74545594D02*
X250470904Y-74393213D01*
X250470904Y-74393213D02*
X250432809Y-74317023D01*
X250432809Y-74317023D02*
X250356619Y-74278927D01*
X250356619Y-74278927D02*
X250051857Y-74278927D01*
X250051857Y-74278927D02*
X249975666Y-74317023D01*
X249975666Y-74317023D02*
X249937571Y-74393213D01*
X249937571Y-74393213D02*
X249937571Y-74545594D01*
X249937571Y-74545594D02*
X249975666Y-74621785D01*
X249975666Y-74621785D02*
X250051857Y-74659880D01*
X250051857Y-74659880D02*
X250128047Y-74659880D01*
X250128047Y-74659880D02*
X250204238Y-74278927D01*
X250470904Y-75345594D02*
X249670904Y-75345594D01*
X250432809Y-75345594D02*
X250470904Y-75269403D01*
X250470904Y-75269403D02*
X250470904Y-75117022D01*
X250470904Y-75117022D02*
X250432809Y-75040832D01*
X250432809Y-75040832D02*
X250394714Y-75002737D01*
X250394714Y-75002737D02*
X250318523Y-74964641D01*
X250318523Y-74964641D02*
X250089952Y-74964641D01*
X250089952Y-74964641D02*
X250013761Y-75002737D01*
X250013761Y-75002737D02*
X249975666Y-75040832D01*
X249975666Y-75040832D02*
X249937571Y-75117022D01*
X249937571Y-75117022D02*
X249937571Y-75269403D01*
X249937571Y-75269403D02*
X249975666Y-75345594D01*
X250470904Y-76206547D02*
X249670904Y-76206547D01*
X249975666Y-76206547D02*
X249937571Y-76282737D01*
X249937571Y-76282737D02*
X249937571Y-76435118D01*
X249937571Y-76435118D02*
X249975666Y-76511309D01*
X249975666Y-76511309D02*
X250013761Y-76549404D01*
X250013761Y-76549404D02*
X250089952Y-76587499D01*
X250089952Y-76587499D02*
X250318523Y-76587499D01*
X250318523Y-76587499D02*
X250394714Y-76549404D01*
X250394714Y-76549404D02*
X250432809Y-76511309D01*
X250432809Y-76511309D02*
X250470904Y-76435118D01*
X250470904Y-76435118D02*
X250470904Y-76282737D01*
X250470904Y-76282737D02*
X250432809Y-76206547D01*
X249937571Y-76854166D02*
X250470904Y-77044642D01*
X249937571Y-77235119D02*
X250470904Y-77044642D01*
X250470904Y-77044642D02*
X250661380Y-76968452D01*
X250661380Y-76968452D02*
X250699476Y-76930357D01*
X250699476Y-76930357D02*
X250737571Y-76854166D01*
X250394714Y-78477024D02*
X250432809Y-78438928D01*
X250432809Y-78438928D02*
X250470904Y-78324643D01*
X250470904Y-78324643D02*
X250470904Y-78248452D01*
X250470904Y-78248452D02*
X250432809Y-78134166D01*
X250432809Y-78134166D02*
X250356619Y-78057976D01*
X250356619Y-78057976D02*
X250280428Y-78019881D01*
X250280428Y-78019881D02*
X250128047Y-77981785D01*
X250128047Y-77981785D02*
X250013761Y-77981785D01*
X250013761Y-77981785D02*
X249861380Y-78019881D01*
X249861380Y-78019881D02*
X249785190Y-78057976D01*
X249785190Y-78057976D02*
X249709000Y-78134166D01*
X249709000Y-78134166D02*
X249670904Y-78248452D01*
X249670904Y-78248452D02*
X249670904Y-78324643D01*
X249670904Y-78324643D02*
X249709000Y-78438928D01*
X249709000Y-78438928D02*
X249747095Y-78477024D01*
X250470904Y-79162738D02*
X250051857Y-79162738D01*
X250051857Y-79162738D02*
X249975666Y-79124643D01*
X249975666Y-79124643D02*
X249937571Y-79048452D01*
X249937571Y-79048452D02*
X249937571Y-78896071D01*
X249937571Y-78896071D02*
X249975666Y-78819881D01*
X250432809Y-79162738D02*
X250470904Y-79086547D01*
X250470904Y-79086547D02*
X250470904Y-78896071D01*
X250470904Y-78896071D02*
X250432809Y-78819881D01*
X250432809Y-78819881D02*
X250356619Y-78781785D01*
X250356619Y-78781785D02*
X250280428Y-78781785D01*
X250280428Y-78781785D02*
X250204238Y-78819881D01*
X250204238Y-78819881D02*
X250166142Y-78896071D01*
X250166142Y-78896071D02*
X250166142Y-79086547D01*
X250166142Y-79086547D02*
X250128047Y-79162738D01*
X250470904Y-79657976D02*
X250432809Y-79581786D01*
X250432809Y-79581786D02*
X250356619Y-79543691D01*
X250356619Y-79543691D02*
X249670904Y-79543691D01*
X249937571Y-79886548D02*
X250470904Y-80077024D01*
X250470904Y-80077024D02*
X249937571Y-80267501D01*
X250470904Y-80572263D02*
X249937571Y-80572263D01*
X249670904Y-80572263D02*
X249709000Y-80534167D01*
X249709000Y-80534167D02*
X249747095Y-80572263D01*
X249747095Y-80572263D02*
X249709000Y-80610358D01*
X249709000Y-80610358D02*
X249670904Y-80572263D01*
X249670904Y-80572263D02*
X249747095Y-80572263D01*
X249937571Y-80953215D02*
X250470904Y-80953215D01*
X250013761Y-80953215D02*
X249975666Y-80991310D01*
X249975666Y-80991310D02*
X249937571Y-81067500D01*
X249937571Y-81067500D02*
X249937571Y-81181786D01*
X249937571Y-81181786D02*
X249975666Y-81257977D01*
X249975666Y-81257977D02*
X250051857Y-81296072D01*
X250051857Y-81296072D02*
X250470904Y-81296072D01*
X249937571Y-81638929D02*
X249937571Y-82210358D01*
X249594714Y-81867501D02*
X250623285Y-81638929D01*
X250280428Y-82134168D02*
X250280428Y-81562739D01*
X250623285Y-81905596D02*
X249594714Y-82134168D01*
X249670904Y-82629406D02*
X249670904Y-82705596D01*
X249670904Y-82705596D02*
X249709000Y-82781787D01*
X249709000Y-82781787D02*
X249747095Y-82819882D01*
X249747095Y-82819882D02*
X249823285Y-82857977D01*
X249823285Y-82857977D02*
X249975666Y-82896072D01*
X249975666Y-82896072D02*
X250166142Y-82896072D01*
X250166142Y-82896072D02*
X250318523Y-82857977D01*
X250318523Y-82857977D02*
X250394714Y-82819882D01*
X250394714Y-82819882D02*
X250432809Y-82781787D01*
X250432809Y-82781787D02*
X250470904Y-82705596D01*
X250470904Y-82705596D02*
X250470904Y-82629406D01*
X250470904Y-82629406D02*
X250432809Y-82553215D01*
X250432809Y-82553215D02*
X250394714Y-82515120D01*
X250394714Y-82515120D02*
X250318523Y-82477025D01*
X250318523Y-82477025D02*
X250166142Y-82438929D01*
X250166142Y-82438929D02*
X249975666Y-82438929D01*
X249975666Y-82438929D02*
X249823285Y-82477025D01*
X249823285Y-82477025D02*
X249747095Y-82515120D01*
X249747095Y-82515120D02*
X249709000Y-82553215D01*
X249709000Y-82553215D02*
X249670904Y-82629406D01*
X249670904Y-83619882D02*
X249670904Y-83238930D01*
X249670904Y-83238930D02*
X250051857Y-83200834D01*
X250051857Y-83200834D02*
X250013761Y-83238930D01*
X250013761Y-83238930D02*
X249975666Y-83315120D01*
X249975666Y-83315120D02*
X249975666Y-83505596D01*
X249975666Y-83505596D02*
X250013761Y-83581787D01*
X250013761Y-83581787D02*
X250051857Y-83619882D01*
X250051857Y-83619882D02*
X250128047Y-83657977D01*
X250128047Y-83657977D02*
X250318523Y-83657977D01*
X250318523Y-83657977D02*
X250394714Y-83619882D01*
X250394714Y-83619882D02*
X250432809Y-83581787D01*
X250432809Y-83581787D02*
X250470904Y-83505596D01*
X250470904Y-83505596D02*
X250470904Y-83315120D01*
X250470904Y-83315120D02*
X250432809Y-83238930D01*
X250432809Y-83238930D02*
X250394714Y-83200834D01*
X249670904Y-84343692D02*
X249670904Y-84191311D01*
X249670904Y-84191311D02*
X249709000Y-84115120D01*
X249709000Y-84115120D02*
X249747095Y-84077025D01*
X249747095Y-84077025D02*
X249861380Y-84000835D01*
X249861380Y-84000835D02*
X250013761Y-83962739D01*
X250013761Y-83962739D02*
X250318523Y-83962739D01*
X250318523Y-83962739D02*
X250394714Y-84000835D01*
X250394714Y-84000835D02*
X250432809Y-84038930D01*
X250432809Y-84038930D02*
X250470904Y-84115120D01*
X250470904Y-84115120D02*
X250470904Y-84267501D01*
X250470904Y-84267501D02*
X250432809Y-84343692D01*
X250432809Y-84343692D02*
X250394714Y-84381787D01*
X250394714Y-84381787D02*
X250318523Y-84419882D01*
X250318523Y-84419882D02*
X250128047Y-84419882D01*
X250128047Y-84419882D02*
X250051857Y-84381787D01*
X250051857Y-84381787D02*
X250013761Y-84343692D01*
X250013761Y-84343692D02*
X249975666Y-84267501D01*
X249975666Y-84267501D02*
X249975666Y-84115120D01*
X249975666Y-84115120D02*
X250013761Y-84038930D01*
X250013761Y-84038930D02*
X250051857Y-84000835D01*
X250051857Y-84000835D02*
X250128047Y-83962739D01*
X249670904Y-84686549D02*
X249670904Y-85181787D01*
X249670904Y-85181787D02*
X249975666Y-84915121D01*
X249975666Y-84915121D02*
X249975666Y-85029406D01*
X249975666Y-85029406D02*
X250013761Y-85105597D01*
X250013761Y-85105597D02*
X250051857Y-85143692D01*
X250051857Y-85143692D02*
X250128047Y-85181787D01*
X250128047Y-85181787D02*
X250318523Y-85181787D01*
X250318523Y-85181787D02*
X250394714Y-85143692D01*
X250394714Y-85143692D02*
X250432809Y-85105597D01*
X250432809Y-85105597D02*
X250470904Y-85029406D01*
X250470904Y-85029406D02*
X250470904Y-84800835D01*
X250470904Y-84800835D02*
X250432809Y-84724644D01*
X250432809Y-84724644D02*
X250394714Y-84686549D01*
X251766904Y-66781783D02*
X250966904Y-66781783D01*
X251271666Y-66781783D02*
X251233571Y-66857973D01*
X251233571Y-66857973D02*
X251233571Y-67010354D01*
X251233571Y-67010354D02*
X251271666Y-67086545D01*
X251271666Y-67086545D02*
X251309761Y-67124640D01*
X251309761Y-67124640D02*
X251385952Y-67162735D01*
X251385952Y-67162735D02*
X251614523Y-67162735D01*
X251614523Y-67162735D02*
X251690714Y-67124640D01*
X251690714Y-67124640D02*
X251728809Y-67086545D01*
X251728809Y-67086545D02*
X251766904Y-67010354D01*
X251766904Y-67010354D02*
X251766904Y-66857973D01*
X251766904Y-66857973D02*
X251728809Y-66781783D01*
X251766904Y-67848450D02*
X251347857Y-67848450D01*
X251347857Y-67848450D02*
X251271666Y-67810355D01*
X251271666Y-67810355D02*
X251233571Y-67734164D01*
X251233571Y-67734164D02*
X251233571Y-67581783D01*
X251233571Y-67581783D02*
X251271666Y-67505593D01*
X251728809Y-67848450D02*
X251766904Y-67772259D01*
X251766904Y-67772259D02*
X251766904Y-67581783D01*
X251766904Y-67581783D02*
X251728809Y-67505593D01*
X251728809Y-67505593D02*
X251652619Y-67467497D01*
X251652619Y-67467497D02*
X251576428Y-67467497D01*
X251576428Y-67467497D02*
X251500238Y-67505593D01*
X251500238Y-67505593D02*
X251462142Y-67581783D01*
X251462142Y-67581783D02*
X251462142Y-67772259D01*
X251462142Y-67772259D02*
X251424047Y-67848450D01*
X251728809Y-68191307D02*
X251766904Y-68267498D01*
X251766904Y-68267498D02*
X251766904Y-68419879D01*
X251766904Y-68419879D02*
X251728809Y-68496069D01*
X251728809Y-68496069D02*
X251652619Y-68534165D01*
X251652619Y-68534165D02*
X251614523Y-68534165D01*
X251614523Y-68534165D02*
X251538333Y-68496069D01*
X251538333Y-68496069D02*
X251500238Y-68419879D01*
X251500238Y-68419879D02*
X251500238Y-68305593D01*
X251500238Y-68305593D02*
X251462142Y-68229403D01*
X251462142Y-68229403D02*
X251385952Y-68191307D01*
X251385952Y-68191307D02*
X251347857Y-68191307D01*
X251347857Y-68191307D02*
X251271666Y-68229403D01*
X251271666Y-68229403D02*
X251233571Y-68305593D01*
X251233571Y-68305593D02*
X251233571Y-68419879D01*
X251233571Y-68419879D02*
X251271666Y-68496069D01*
X251728809Y-69181784D02*
X251766904Y-69105593D01*
X251766904Y-69105593D02*
X251766904Y-68953212D01*
X251766904Y-68953212D02*
X251728809Y-68877022D01*
X251728809Y-68877022D02*
X251652619Y-68838926D01*
X251652619Y-68838926D02*
X251347857Y-68838926D01*
X251347857Y-68838926D02*
X251271666Y-68877022D01*
X251271666Y-68877022D02*
X251233571Y-68953212D01*
X251233571Y-68953212D02*
X251233571Y-69105593D01*
X251233571Y-69105593D02*
X251271666Y-69181784D01*
X251271666Y-69181784D02*
X251347857Y-69219879D01*
X251347857Y-69219879D02*
X251424047Y-69219879D01*
X251424047Y-69219879D02*
X251500238Y-68838926D01*
X251766904Y-69905593D02*
X250966904Y-69905593D01*
X251728809Y-69905593D02*
X251766904Y-69829402D01*
X251766904Y-69829402D02*
X251766904Y-69677021D01*
X251766904Y-69677021D02*
X251728809Y-69600831D01*
X251728809Y-69600831D02*
X251690714Y-69562736D01*
X251690714Y-69562736D02*
X251614523Y-69524640D01*
X251614523Y-69524640D02*
X251385952Y-69524640D01*
X251385952Y-69524640D02*
X251309761Y-69562736D01*
X251309761Y-69562736D02*
X251271666Y-69600831D01*
X251271666Y-69600831D02*
X251233571Y-69677021D01*
X251233571Y-69677021D02*
X251233571Y-69829402D01*
X251233571Y-69829402D02*
X251271666Y-69905593D01*
X251766904Y-70880831D02*
X251728809Y-70804641D01*
X251728809Y-70804641D02*
X251690714Y-70766546D01*
X251690714Y-70766546D02*
X251614523Y-70728450D01*
X251614523Y-70728450D02*
X251385952Y-70728450D01*
X251385952Y-70728450D02*
X251309761Y-70766546D01*
X251309761Y-70766546D02*
X251271666Y-70804641D01*
X251271666Y-70804641D02*
X251233571Y-70880831D01*
X251233571Y-70880831D02*
X251233571Y-70995117D01*
X251233571Y-70995117D02*
X251271666Y-71071308D01*
X251271666Y-71071308D02*
X251309761Y-71109403D01*
X251309761Y-71109403D02*
X251385952Y-71147498D01*
X251385952Y-71147498D02*
X251614523Y-71147498D01*
X251614523Y-71147498D02*
X251690714Y-71109403D01*
X251690714Y-71109403D02*
X251728809Y-71071308D01*
X251728809Y-71071308D02*
X251766904Y-70995117D01*
X251766904Y-70995117D02*
X251766904Y-70880831D01*
X251233571Y-71490356D02*
X251766904Y-71490356D01*
X251309761Y-71490356D02*
X251271666Y-71528451D01*
X251271666Y-71528451D02*
X251233571Y-71604641D01*
X251233571Y-71604641D02*
X251233571Y-71718927D01*
X251233571Y-71718927D02*
X251271666Y-71795118D01*
X251271666Y-71795118D02*
X251347857Y-71833213D01*
X251347857Y-71833213D02*
X251766904Y-71833213D01*
X251233571Y-72694166D02*
X252033571Y-72694166D01*
X251271666Y-72694166D02*
X251233571Y-72770356D01*
X251233571Y-72770356D02*
X251233571Y-72922737D01*
X251233571Y-72922737D02*
X251271666Y-72998928D01*
X251271666Y-72998928D02*
X251309761Y-73037023D01*
X251309761Y-73037023D02*
X251385952Y-73075118D01*
X251385952Y-73075118D02*
X251614523Y-73075118D01*
X251614523Y-73075118D02*
X251690714Y-73037023D01*
X251690714Y-73037023D02*
X251728809Y-72998928D01*
X251728809Y-72998928D02*
X251766904Y-72922737D01*
X251766904Y-72922737D02*
X251766904Y-72770356D01*
X251766904Y-72770356D02*
X251728809Y-72694166D01*
X251766904Y-73417976D02*
X251233571Y-73417976D01*
X251385952Y-73417976D02*
X251309761Y-73456071D01*
X251309761Y-73456071D02*
X251271666Y-73494166D01*
X251271666Y-73494166D02*
X251233571Y-73570357D01*
X251233571Y-73570357D02*
X251233571Y-73646547D01*
X251766904Y-74027499D02*
X251728809Y-73951309D01*
X251728809Y-73951309D02*
X251690714Y-73913214D01*
X251690714Y-73913214D02*
X251614523Y-73875118D01*
X251614523Y-73875118D02*
X251385952Y-73875118D01*
X251385952Y-73875118D02*
X251309761Y-73913214D01*
X251309761Y-73913214D02*
X251271666Y-73951309D01*
X251271666Y-73951309D02*
X251233571Y-74027499D01*
X251233571Y-74027499D02*
X251233571Y-74141785D01*
X251233571Y-74141785D02*
X251271666Y-74217976D01*
X251271666Y-74217976D02*
X251309761Y-74256071D01*
X251309761Y-74256071D02*
X251385952Y-74294166D01*
X251385952Y-74294166D02*
X251614523Y-74294166D01*
X251614523Y-74294166D02*
X251690714Y-74256071D01*
X251690714Y-74256071D02*
X251728809Y-74217976D01*
X251728809Y-74217976D02*
X251766904Y-74141785D01*
X251766904Y-74141785D02*
X251766904Y-74027499D01*
X251233571Y-74637024D02*
X251919285Y-74637024D01*
X251919285Y-74637024D02*
X251995476Y-74598928D01*
X251995476Y-74598928D02*
X252033571Y-74522738D01*
X252033571Y-74522738D02*
X252033571Y-74484643D01*
X250966904Y-74637024D02*
X251005000Y-74598928D01*
X251005000Y-74598928D02*
X251043095Y-74637024D01*
X251043095Y-74637024D02*
X251005000Y-74675119D01*
X251005000Y-74675119D02*
X250966904Y-74637024D01*
X250966904Y-74637024D02*
X251043095Y-74637024D01*
X251728809Y-75322738D02*
X251766904Y-75246547D01*
X251766904Y-75246547D02*
X251766904Y-75094166D01*
X251766904Y-75094166D02*
X251728809Y-75017976D01*
X251728809Y-75017976D02*
X251652619Y-74979880D01*
X251652619Y-74979880D02*
X251347857Y-74979880D01*
X251347857Y-74979880D02*
X251271666Y-75017976D01*
X251271666Y-75017976D02*
X251233571Y-75094166D01*
X251233571Y-75094166D02*
X251233571Y-75246547D01*
X251233571Y-75246547D02*
X251271666Y-75322738D01*
X251271666Y-75322738D02*
X251347857Y-75360833D01*
X251347857Y-75360833D02*
X251424047Y-75360833D01*
X251424047Y-75360833D02*
X251500238Y-74979880D01*
X251728809Y-76046547D02*
X251766904Y-75970356D01*
X251766904Y-75970356D02*
X251766904Y-75817975D01*
X251766904Y-75817975D02*
X251728809Y-75741785D01*
X251728809Y-75741785D02*
X251690714Y-75703690D01*
X251690714Y-75703690D02*
X251614523Y-75665594D01*
X251614523Y-75665594D02*
X251385952Y-75665594D01*
X251385952Y-75665594D02*
X251309761Y-75703690D01*
X251309761Y-75703690D02*
X251271666Y-75741785D01*
X251271666Y-75741785D02*
X251233571Y-75817975D01*
X251233571Y-75817975D02*
X251233571Y-75970356D01*
X251233571Y-75970356D02*
X251271666Y-76046547D01*
X251233571Y-76275118D02*
X251233571Y-76579880D01*
X250966904Y-76389404D02*
X251652619Y-76389404D01*
X251652619Y-76389404D02*
X251728809Y-76427499D01*
X251728809Y-76427499D02*
X251766904Y-76503689D01*
X251766904Y-76503689D02*
X251766904Y-76579880D01*
X251728809Y-77189404D02*
X251766904Y-77113213D01*
X251766904Y-77113213D02*
X251766904Y-76960832D01*
X251766904Y-76960832D02*
X251728809Y-76884642D01*
X251728809Y-76884642D02*
X251690714Y-76846547D01*
X251690714Y-76846547D02*
X251614523Y-76808451D01*
X251614523Y-76808451D02*
X251385952Y-76808451D01*
X251385952Y-76808451D02*
X251309761Y-76846547D01*
X251309761Y-76846547D02*
X251271666Y-76884642D01*
X251271666Y-76884642D02*
X251233571Y-76960832D01*
X251233571Y-76960832D02*
X251233571Y-77113213D01*
X251233571Y-77113213D02*
X251271666Y-77189404D01*
X251766904Y-77875118D02*
X251347857Y-77875118D01*
X251347857Y-77875118D02*
X251271666Y-77837023D01*
X251271666Y-77837023D02*
X251233571Y-77760832D01*
X251233571Y-77760832D02*
X251233571Y-77608451D01*
X251233571Y-77608451D02*
X251271666Y-77532261D01*
X251728809Y-77875118D02*
X251766904Y-77798927D01*
X251766904Y-77798927D02*
X251766904Y-77608451D01*
X251766904Y-77608451D02*
X251728809Y-77532261D01*
X251728809Y-77532261D02*
X251652619Y-77494165D01*
X251652619Y-77494165D02*
X251576428Y-77494165D01*
X251576428Y-77494165D02*
X251500238Y-77532261D01*
X251500238Y-77532261D02*
X251462142Y-77608451D01*
X251462142Y-77608451D02*
X251462142Y-77798927D01*
X251462142Y-77798927D02*
X251424047Y-77875118D01*
X251766904Y-78256071D02*
X251233571Y-78256071D01*
X250966904Y-78256071D02*
X251005000Y-78217975D01*
X251005000Y-78217975D02*
X251043095Y-78256071D01*
X251043095Y-78256071D02*
X251005000Y-78294166D01*
X251005000Y-78294166D02*
X250966904Y-78256071D01*
X250966904Y-78256071D02*
X251043095Y-78256071D01*
X251233571Y-78637023D02*
X251766904Y-78637023D01*
X251309761Y-78637023D02*
X251271666Y-78675118D01*
X251271666Y-78675118D02*
X251233571Y-78751308D01*
X251233571Y-78751308D02*
X251233571Y-78865594D01*
X251233571Y-78865594D02*
X251271666Y-78941785D01*
X251271666Y-78941785D02*
X251347857Y-78979880D01*
X251347857Y-78979880D02*
X251766904Y-78979880D01*
X251233571Y-79322737D02*
X251233571Y-79894166D01*
X250890714Y-79551309D02*
X251919285Y-79322737D01*
X251576428Y-79817976D02*
X251576428Y-79246547D01*
X251919285Y-79589404D02*
X250890714Y-79817976D01*
X250966904Y-80541785D02*
X250966904Y-80160833D01*
X250966904Y-80160833D02*
X251347857Y-80122737D01*
X251347857Y-80122737D02*
X251309761Y-80160833D01*
X251309761Y-80160833D02*
X251271666Y-80237023D01*
X251271666Y-80237023D02*
X251271666Y-80427499D01*
X251271666Y-80427499D02*
X251309761Y-80503690D01*
X251309761Y-80503690D02*
X251347857Y-80541785D01*
X251347857Y-80541785D02*
X251424047Y-80579880D01*
X251424047Y-80579880D02*
X251614523Y-80579880D01*
X251614523Y-80579880D02*
X251690714Y-80541785D01*
X251690714Y-80541785D02*
X251728809Y-80503690D01*
X251728809Y-80503690D02*
X251766904Y-80427499D01*
X251766904Y-80427499D02*
X251766904Y-80237023D01*
X251766904Y-80237023D02*
X251728809Y-80160833D01*
X251728809Y-80160833D02*
X251690714Y-80122737D01*
X251043095Y-80884642D02*
X251005000Y-80922738D01*
X251005000Y-80922738D02*
X250966904Y-80998928D01*
X250966904Y-80998928D02*
X250966904Y-81189404D01*
X250966904Y-81189404D02*
X251005000Y-81265595D01*
X251005000Y-81265595D02*
X251043095Y-81303690D01*
X251043095Y-81303690D02*
X251119285Y-81341785D01*
X251119285Y-81341785D02*
X251195476Y-81341785D01*
X251195476Y-81341785D02*
X251309761Y-81303690D01*
X251309761Y-81303690D02*
X251766904Y-80846547D01*
X251766904Y-80846547D02*
X251766904Y-81341785D01*
X250966904Y-82027500D02*
X250966904Y-81875119D01*
X250966904Y-81875119D02*
X251005000Y-81798928D01*
X251005000Y-81798928D02*
X251043095Y-81760833D01*
X251043095Y-81760833D02*
X251157380Y-81684643D01*
X251157380Y-81684643D02*
X251309761Y-81646547D01*
X251309761Y-81646547D02*
X251614523Y-81646547D01*
X251614523Y-81646547D02*
X251690714Y-81684643D01*
X251690714Y-81684643D02*
X251728809Y-81722738D01*
X251728809Y-81722738D02*
X251766904Y-81798928D01*
X251766904Y-81798928D02*
X251766904Y-81951309D01*
X251766904Y-81951309D02*
X251728809Y-82027500D01*
X251728809Y-82027500D02*
X251690714Y-82065595D01*
X251690714Y-82065595D02*
X251614523Y-82103690D01*
X251614523Y-82103690D02*
X251424047Y-82103690D01*
X251424047Y-82103690D02*
X251347857Y-82065595D01*
X251347857Y-82065595D02*
X251309761Y-82027500D01*
X251309761Y-82027500D02*
X251271666Y-81951309D01*
X251271666Y-81951309D02*
X251271666Y-81798928D01*
X251271666Y-81798928D02*
X251309761Y-81722738D01*
X251309761Y-81722738D02*
X251347857Y-81684643D01*
X251347857Y-81684643D02*
X251424047Y-81646547D01*
X250966904Y-82827500D02*
X250966904Y-82446548D01*
X250966904Y-82446548D02*
X251347857Y-82408452D01*
X251347857Y-82408452D02*
X251309761Y-82446548D01*
X251309761Y-82446548D02*
X251271666Y-82522738D01*
X251271666Y-82522738D02*
X251271666Y-82713214D01*
X251271666Y-82713214D02*
X251309761Y-82789405D01*
X251309761Y-82789405D02*
X251347857Y-82827500D01*
X251347857Y-82827500D02*
X251424047Y-82865595D01*
X251424047Y-82865595D02*
X251614523Y-82865595D01*
X251614523Y-82865595D02*
X251690714Y-82827500D01*
X251690714Y-82827500D02*
X251728809Y-82789405D01*
X251728809Y-82789405D02*
X251766904Y-82713214D01*
X251766904Y-82713214D02*
X251766904Y-82522738D01*
X251766904Y-82522738D02*
X251728809Y-82446548D01*
X251728809Y-82446548D02*
X251690714Y-82408452D01*
X250966904Y-83246548D02*
X251119285Y-83170357D01*
X251728809Y-83551309D02*
X251766904Y-83627500D01*
X251766904Y-83627500D02*
X251766904Y-83779881D01*
X251766904Y-83779881D02*
X251728809Y-83856071D01*
X251728809Y-83856071D02*
X251652619Y-83894167D01*
X251652619Y-83894167D02*
X251614523Y-83894167D01*
X251614523Y-83894167D02*
X251538333Y-83856071D01*
X251538333Y-83856071D02*
X251500238Y-83779881D01*
X251500238Y-83779881D02*
X251500238Y-83665595D01*
X251500238Y-83665595D02*
X251462142Y-83589405D01*
X251462142Y-83589405D02*
X251385952Y-83551309D01*
X251385952Y-83551309D02*
X251347857Y-83551309D01*
X251347857Y-83551309D02*
X251271666Y-83589405D01*
X251271666Y-83589405D02*
X251233571Y-83665595D01*
X251233571Y-83665595D02*
X251233571Y-83779881D01*
X251233571Y-83779881D02*
X251271666Y-83856071D01*
X251233571Y-84640833D02*
X251766904Y-84831309D01*
X251766904Y-84831309D02*
X251233571Y-85021786D01*
X251766904Y-85669405D02*
X251347857Y-85669405D01*
X251347857Y-85669405D02*
X251271666Y-85631310D01*
X251271666Y-85631310D02*
X251233571Y-85555119D01*
X251233571Y-85555119D02*
X251233571Y-85402738D01*
X251233571Y-85402738D02*
X251271666Y-85326548D01*
X251728809Y-85669405D02*
X251766904Y-85593214D01*
X251766904Y-85593214D02*
X251766904Y-85402738D01*
X251766904Y-85402738D02*
X251728809Y-85326548D01*
X251728809Y-85326548D02*
X251652619Y-85288452D01*
X251652619Y-85288452D02*
X251576428Y-85288452D01*
X251576428Y-85288452D02*
X251500238Y-85326548D01*
X251500238Y-85326548D02*
X251462142Y-85402738D01*
X251462142Y-85402738D02*
X251462142Y-85593214D01*
X251462142Y-85593214D02*
X251424047Y-85669405D01*
X251233571Y-86393215D02*
X251766904Y-86393215D01*
X251233571Y-86050358D02*
X251652619Y-86050358D01*
X251652619Y-86050358D02*
X251728809Y-86088453D01*
X251728809Y-86088453D02*
X251766904Y-86164643D01*
X251766904Y-86164643D02*
X251766904Y-86278929D01*
X251766904Y-86278929D02*
X251728809Y-86355120D01*
X251728809Y-86355120D02*
X251690714Y-86393215D01*
X251766904Y-86888453D02*
X251728809Y-86812263D01*
X251728809Y-86812263D02*
X251652619Y-86774168D01*
X251652619Y-86774168D02*
X250966904Y-86774168D01*
X251233571Y-87078930D02*
X251233571Y-87383692D01*
X250966904Y-87193216D02*
X251652619Y-87193216D01*
X251652619Y-87193216D02*
X251728809Y-87231311D01*
X251728809Y-87231311D02*
X251766904Y-87307501D01*
X251766904Y-87307501D02*
X251766904Y-87383692D01*
X250966904Y-87574168D02*
X250966904Y-88069406D01*
X250966904Y-88069406D02*
X251271666Y-87802740D01*
X251271666Y-87802740D02*
X251271666Y-87917025D01*
X251271666Y-87917025D02*
X251309761Y-87993216D01*
X251309761Y-87993216D02*
X251347857Y-88031311D01*
X251347857Y-88031311D02*
X251424047Y-88069406D01*
X251424047Y-88069406D02*
X251614523Y-88069406D01*
X251614523Y-88069406D02*
X251690714Y-88031311D01*
X251690714Y-88031311D02*
X251728809Y-87993216D01*
X251728809Y-87993216D02*
X251766904Y-87917025D01*
X251766904Y-87917025D02*
X251766904Y-87688454D01*
X251766904Y-87688454D02*
X251728809Y-87612263D01*
X251728809Y-87612263D02*
X251690714Y-87574168D01*
X250966904Y-88793216D02*
X250966904Y-88412264D01*
X250966904Y-88412264D02*
X251347857Y-88374168D01*
X251347857Y-88374168D02*
X251309761Y-88412264D01*
X251309761Y-88412264D02*
X251271666Y-88488454D01*
X251271666Y-88488454D02*
X251271666Y-88678930D01*
X251271666Y-88678930D02*
X251309761Y-88755121D01*
X251309761Y-88755121D02*
X251347857Y-88793216D01*
X251347857Y-88793216D02*
X251424047Y-88831311D01*
X251424047Y-88831311D02*
X251614523Y-88831311D01*
X251614523Y-88831311D02*
X251690714Y-88793216D01*
X251690714Y-88793216D02*
X251728809Y-88755121D01*
X251728809Y-88755121D02*
X251766904Y-88678930D01*
X251766904Y-88678930D02*
X251766904Y-88488454D01*
X251766904Y-88488454D02*
X251728809Y-88412264D01*
X251728809Y-88412264D02*
X251690714Y-88374168D01*
D12*
%TO.C,Y1*%
X152616000Y-117945000D02*
X152616000Y-117545000D01*
X152616000Y-119945000D02*
X152616000Y-117945000D01*
X152816000Y-117945000D02*
X152816000Y-117545000D01*
X152816000Y-117945000D02*
X152816000Y-119945000D01*
X152816000Y-119945000D02*
X153816000Y-119945000D01*
X153816000Y-117545000D02*
X152816000Y-117545000D01*
X153816000Y-117545000D02*
X153816000Y-117145000D01*
X155616000Y-119945000D02*
X156416000Y-119945000D01*
X156416000Y-117545000D02*
X155616000Y-117545000D01*
X156416000Y-117945000D02*
X156416000Y-117545000D01*
X156416000Y-119945000D02*
X156416000Y-117945000D01*
%TO.C,C7*%
X147611836Y-108691000D02*
X147396164Y-108691000D01*
X147611836Y-107971000D02*
X147396164Y-107971000D01*
%TO.C,C12*%
X202203164Y-102510000D02*
X202418836Y-102510000D01*
X202203164Y-103230000D02*
X202418836Y-103230000D01*
%TO.C,C15*%
X149391000Y-117912164D02*
X149391000Y-118127836D01*
X148671000Y-117912164D02*
X148671000Y-118127836D01*
%TO.C,U5*%
X144460375Y-115804000D02*
X142510375Y-115804000D01*
X144460375Y-115804000D02*
X146410375Y-115804000D01*
X144460375Y-120924000D02*
X141010375Y-120924000D01*
X144460375Y-120924000D02*
X146410375Y-120924000D01*
%TO.C,R7*%
X147122000Y-110463359D02*
X147122000Y-110770641D01*
X146362000Y-110463359D02*
X146362000Y-110770641D01*
%TO.C,R11*%
X98045000Y-101753641D02*
X98045000Y-101446359D01*
X98805000Y-101753641D02*
X98805000Y-101446359D01*
%TO.C,R2*%
X151891000Y-106233359D02*
X151891000Y-106540641D01*
X151131000Y-106233359D02*
X151131000Y-106540641D01*
%TO.C,C9*%
X157683164Y-115303994D02*
X157898836Y-115303994D01*
X157683164Y-116023994D02*
X157898836Y-116023994D01*
%TO.C,R4*%
X152881359Y-105538000D02*
X153188641Y-105538000D01*
X152881359Y-106298000D02*
X153188641Y-106298000D01*
%TO.C,R12*%
X156782500Y-101753641D02*
X156782500Y-101446359D01*
X157542500Y-101753641D02*
X157542500Y-101446359D01*
%TO.C,R15*%
X68708000Y-101753641D02*
X68708000Y-101446359D01*
X69468000Y-101753641D02*
X69468000Y-101446359D01*
%TO.C,C11*%
X151423000Y-117912164D02*
X151423000Y-118127836D01*
X150703000Y-117912164D02*
X150703000Y-118127836D01*
%TO.C,R13*%
X79503000Y-106452641D02*
X79503000Y-106145359D01*
X80263000Y-106452641D02*
X80263000Y-106145359D01*
%TO.C,C8*%
X157683164Y-109114000D02*
X157898836Y-109114000D01*
X157683164Y-109834000D02*
X157898836Y-109834000D01*
%TO.C,R10*%
X174245000Y-101753641D02*
X174245000Y-101446359D01*
X175005000Y-101753641D02*
X175005000Y-101446359D01*
D13*
%TO.C,U3*%
X208817860Y-103692500D02*
X206987500Y-103692500D01*
X206987500Y-103692500D02*
X206987500Y-109032500D01*
X202588220Y-103692500D02*
X206987500Y-103692500D01*
X208817860Y-104091280D02*
X208817860Y-103692500D01*
D14*
X202587860Y-108846620D02*
X202587860Y-108861860D01*
D13*
X206987500Y-109032500D02*
X202588220Y-109032500D01*
X202588220Y-109032500D02*
X202588220Y-103692500D01*
D12*
%TO.C,U1*%
X149036000Y-116513000D02*
X149511000Y-116513000D01*
X149036000Y-116038000D02*
X149036000Y-116513000D01*
X156256000Y-116038000D02*
X156256000Y-116513000D01*
X149036000Y-109768000D02*
X149036000Y-109293000D01*
X156256000Y-109768000D02*
X156256000Y-109293000D01*
X149036000Y-109293000D02*
X149511000Y-109293000D01*
X156256000Y-109293000D02*
X155781000Y-109293000D01*
%TO.C,R1*%
X148083000Y-106540641D02*
X148083000Y-106233359D01*
X148843000Y-106540641D02*
X148843000Y-106233359D01*
%TO.C,R16*%
X234570000Y-101753641D02*
X234570000Y-101446359D01*
X235330000Y-101753641D02*
X235330000Y-101446359D01*
%TO.C,C14*%
X140758211Y-115295000D02*
X140542539Y-115295000D01*
X140758211Y-114575000D02*
X140542539Y-114575000D01*
%TO.C,R9*%
X149099000Y-106540641D02*
X149099000Y-106233359D01*
X149859000Y-106540641D02*
X149859000Y-106233359D01*
%TO.C,C13*%
X89479317Y-102518779D02*
X89694989Y-102518779D01*
X89479317Y-103238779D02*
X89694989Y-103238779D01*
%TO.C,R21*%
X140395375Y-120242359D02*
X140395375Y-120549641D01*
X139635375Y-120242359D02*
X139635375Y-120549641D01*
%TO.C,C5*%
X77999000Y-64369836D02*
X77999000Y-64154164D01*
X78719000Y-64369836D02*
X78719000Y-64154164D01*
%TO.C,R20*%
X193295000Y-101753641D02*
X193295000Y-101446359D01*
X194055000Y-101753641D02*
X194055000Y-101446359D01*
%TO.C,R23*%
X139788016Y-118871000D02*
X139480734Y-118871000D01*
X139788016Y-118111000D02*
X139480734Y-118111000D01*
%TO.C,R14*%
X208342500Y-110971359D02*
X208342500Y-111278641D01*
X207582500Y-110971359D02*
X207582500Y-111278641D01*
%TO.C,R6*%
X150525359Y-119127000D02*
X150832641Y-119127000D01*
X150525359Y-119887000D02*
X150832641Y-119887000D01*
%TO.C,F_USBC1*%
X81809000Y-57436936D02*
X81809000Y-58641064D01*
X79989000Y-57436936D02*
X79989000Y-58641064D01*
%TO.C,D1*%
X84343000Y-59599000D02*
X83043000Y-59599000D01*
X83043000Y-56479000D02*
X85043000Y-56479000D01*
%TO.C,R18*%
X74014359Y-48515000D02*
X74321641Y-48515000D01*
X74014359Y-49275000D02*
X74321641Y-49275000D01*
%TO.C,R3*%
X157790000Y-114019359D02*
X157790000Y-114326641D01*
X157030000Y-114019359D02*
X157030000Y-114326641D01*
%TO.C,R8*%
X150875000Y-106233359D02*
X150875000Y-106540641D01*
X150115000Y-106233359D02*
X150115000Y-106540641D01*
%TO.C,C1*%
X147525000Y-110724836D02*
X147525000Y-110509164D01*
X148245000Y-110724836D02*
X148245000Y-110509164D01*
%TO.C,C4*%
X80498836Y-61320000D02*
X80283164Y-61320000D01*
X80498836Y-60600000D02*
X80283164Y-60600000D01*
D13*
%TO.C,U4*%
X96105360Y-103692500D02*
X94275000Y-103692500D01*
X94275000Y-103692500D02*
X94275000Y-109032500D01*
X89875720Y-103692500D02*
X94275000Y-103692500D01*
X96105360Y-104091280D02*
X96105360Y-103692500D01*
D14*
X89875360Y-108846620D02*
X89875360Y-108861860D01*
D13*
X94275000Y-109032500D02*
X89875720Y-109032500D01*
X89875720Y-109032500D02*
X89875720Y-103692500D01*
D12*
%TO.C,SW38*%
X182305000Y-116895000D02*
X179645000Y-116895000D01*
X182305000Y-114295000D02*
X182305000Y-116895000D01*
X182305000Y-114295000D02*
X179645000Y-114295000D01*
X182305000Y-113025000D02*
X182305000Y-111695000D01*
X182305000Y-111695000D02*
X180975000Y-111695000D01*
X179645000Y-114295000D02*
X179645000Y-116895000D01*
%TO.C,C6*%
X157770000Y-117875164D02*
X157770000Y-118090836D01*
X157050000Y-117875164D02*
X157050000Y-118090836D01*
%TO.C,U2*%
X79339000Y-63754000D02*
X79339000Y-64404000D01*
X79339000Y-63754000D02*
X79339000Y-63104000D01*
X82459000Y-63754000D02*
X82459000Y-65429000D01*
X82459000Y-63754000D02*
X82459000Y-63104000D01*
%TO.C,JP1*%
X137306795Y-120460654D02*
X137667029Y-120100420D01*
X138045721Y-121199580D02*
X138405955Y-120839346D01*
D15*
%TO.C,USB1*%
X78050000Y-45974000D02*
X78050000Y-47693000D01*
X78050000Y-45974000D02*
X87050000Y-45974000D01*
X78050000Y-50155000D02*
X78050000Y-51474000D01*
X87050000Y-45974000D02*
X87050000Y-47693000D01*
X87050000Y-50155000D02*
X87050000Y-51674000D01*
D12*
%TO.C,R19*%
X136145000Y-101753641D02*
X136145000Y-101446359D01*
X136905000Y-101753641D02*
X136905000Y-101446359D01*
%TO.C,R24*%
X91032359Y-48515000D02*
X91339641Y-48515000D01*
X91032359Y-49275000D02*
X91339641Y-49275000D01*
%TO.C,C10*%
X150407000Y-117912164D02*
X150407000Y-118127836D01*
X149687000Y-117912164D02*
X149687000Y-118127836D01*
%TO.C,R17*%
X117095000Y-101753641D02*
X117095000Y-101446359D01*
X117855000Y-101753641D02*
X117855000Y-101446359D01*
%TD*%
M02*
