%TF.GenerationSoftware,KiCad,Pcbnew,(7.0.0)*%
%TF.CreationDate,2023-09-29T19:26:45+02:00*%
%TF.ProjectId,plate wkl,706c6174-6520-4776-9b6c-2e6b69636164,rev?*%
%TF.SameCoordinates,Original*%
%TF.FileFunction,Legend,Top*%
%TF.FilePolarity,Positive*%
%FSLAX46Y46*%
G04 Gerber Fmt 4.6, Leading zero omitted, Abs format (unit mm)*
G04 Created by KiCad (PCBNEW (7.0.0)) date 2023-09-29 19:26:45*
%MOMM*%
%LPD*%
G01*
G04 APERTURE LIST*
%ADD10C,0.150000*%
%ADD11C,0.400000*%
G04 APERTURE END LIST*
D10*
X178562202Y-118636130D02*
X178562202Y-117969464D01*
X178562202Y-118159940D02*
X178609821Y-118064702D01*
X178609821Y-118064702D02*
X178657440Y-118017083D01*
X178657440Y-118017083D02*
X178752678Y-117969464D01*
X178752678Y-117969464D02*
X178847916Y-117969464D01*
X179562202Y-118588511D02*
X179466964Y-118636130D01*
X179466964Y-118636130D02*
X179276488Y-118636130D01*
X179276488Y-118636130D02*
X179181250Y-118588511D01*
X179181250Y-118588511D02*
X179133631Y-118493273D01*
X179133631Y-118493273D02*
X179133631Y-118112321D01*
X179133631Y-118112321D02*
X179181250Y-118017083D01*
X179181250Y-118017083D02*
X179276488Y-117969464D01*
X179276488Y-117969464D02*
X179466964Y-117969464D01*
X179466964Y-117969464D02*
X179562202Y-118017083D01*
X179562202Y-118017083D02*
X179609821Y-118112321D01*
X179609821Y-118112321D02*
X179609821Y-118207559D01*
X179609821Y-118207559D02*
X179133631Y-118302797D01*
X179990774Y-118588511D02*
X180086012Y-118636130D01*
X180086012Y-118636130D02*
X180276488Y-118636130D01*
X180276488Y-118636130D02*
X180371726Y-118588511D01*
X180371726Y-118588511D02*
X180419345Y-118493273D01*
X180419345Y-118493273D02*
X180419345Y-118445654D01*
X180419345Y-118445654D02*
X180371726Y-118350416D01*
X180371726Y-118350416D02*
X180276488Y-118302797D01*
X180276488Y-118302797D02*
X180133631Y-118302797D01*
X180133631Y-118302797D02*
X180038393Y-118255178D01*
X180038393Y-118255178D02*
X179990774Y-118159940D01*
X179990774Y-118159940D02*
X179990774Y-118112321D01*
X179990774Y-118112321D02*
X180038393Y-118017083D01*
X180038393Y-118017083D02*
X180133631Y-117969464D01*
X180133631Y-117969464D02*
X180276488Y-117969464D01*
X180276488Y-117969464D02*
X180371726Y-118017083D01*
X181228869Y-118588511D02*
X181133631Y-118636130D01*
X181133631Y-118636130D02*
X180943155Y-118636130D01*
X180943155Y-118636130D02*
X180847917Y-118588511D01*
X180847917Y-118588511D02*
X180800298Y-118493273D01*
X180800298Y-118493273D02*
X180800298Y-118112321D01*
X180800298Y-118112321D02*
X180847917Y-118017083D01*
X180847917Y-118017083D02*
X180943155Y-117969464D01*
X180943155Y-117969464D02*
X181133631Y-117969464D01*
X181133631Y-117969464D02*
X181228869Y-118017083D01*
X181228869Y-118017083D02*
X181276488Y-118112321D01*
X181276488Y-118112321D02*
X181276488Y-118207559D01*
X181276488Y-118207559D02*
X180800298Y-118302797D01*
X181562203Y-117969464D02*
X181943155Y-117969464D01*
X181705060Y-117636130D02*
X181705060Y-118493273D01*
X181705060Y-118493273D02*
X181752679Y-118588511D01*
X181752679Y-118588511D02*
X181847917Y-118636130D01*
X181847917Y-118636130D02*
X181943155Y-118636130D01*
D11*
X252756639Y-95750576D02*
X250756639Y-96226766D01*
X250756639Y-96226766D02*
X252185210Y-96607719D01*
X252185210Y-96607719D02*
X250756639Y-96988671D01*
X250756639Y-96988671D02*
X252756639Y-97464862D01*
X250756639Y-98226766D02*
X252756639Y-98226766D01*
X250756639Y-99369623D02*
X251899496Y-98512480D01*
X252756639Y-99369623D02*
X251613781Y-98226766D01*
X250756639Y-101179147D02*
X250756639Y-100226766D01*
X250756639Y-100226766D02*
X252756639Y-100226766D01*
%TO.C,G\u002A\u002A\u002A*%
G36*
X251083004Y-91260433D02*
G01*
X251159830Y-91332209D01*
X251243892Y-91496056D01*
X251235433Y-91653674D01*
X251142028Y-91794098D01*
X250989913Y-91892331D01*
X250829262Y-91908402D01*
X250682652Y-91845333D01*
X250578920Y-91718738D01*
X250527935Y-91607369D01*
X250519220Y-91528387D01*
X250543799Y-91442438D01*
X250637772Y-91300733D01*
X250776593Y-91220010D01*
X250933817Y-91204999D01*
X251083004Y-91260433D01*
G37*
G36*
X250926609Y-81430960D02*
G01*
X251023404Y-81453132D01*
X251046699Y-81468860D01*
X251103136Y-81485955D01*
X251242824Y-81499645D01*
X251455846Y-81509394D01*
X251732286Y-81514667D01*
X251908901Y-81515465D01*
X252216174Y-81512900D01*
X252465517Y-81505562D01*
X252647014Y-81493986D01*
X252750748Y-81478709D01*
X252771103Y-81468860D01*
X252830829Y-81441819D01*
X252950774Y-81425002D01*
X253030183Y-81422254D01*
X253260460Y-81422254D01*
X253260460Y-81815251D01*
X253260460Y-82208247D01*
X252190774Y-82223049D01*
X251811598Y-82229924D01*
X251518309Y-82239116D01*
X251303600Y-82251098D01*
X251160165Y-82266342D01*
X251080698Y-82285323D01*
X251062921Y-82296108D01*
X250984119Y-82330768D01*
X250851406Y-82351628D01*
X250781047Y-82354364D01*
X250557341Y-82354364D01*
X250557341Y-81888309D01*
X250557341Y-81422254D01*
X250787618Y-81422254D01*
X250926609Y-81430960D01*
G37*
G36*
X250956878Y-89772569D02*
G01*
X251061544Y-89792956D01*
X251093304Y-89811245D01*
X251149785Y-89828495D01*
X251289141Y-89842282D01*
X251501080Y-89852035D01*
X251775312Y-89857183D01*
X251932203Y-89857851D01*
X252233664Y-89855215D01*
X252477965Y-89847688D01*
X252654818Y-89835841D01*
X252753929Y-89820248D01*
X252771103Y-89811245D01*
X252830829Y-89784204D01*
X252950774Y-89767387D01*
X253030183Y-89764640D01*
X253260460Y-89764640D01*
X253260460Y-90230695D01*
X253260460Y-90696750D01*
X252191284Y-90696750D01*
X251829283Y-90698765D01*
X251531473Y-90704610D01*
X251304969Y-90713983D01*
X251156885Y-90726581D01*
X251094336Y-90742102D01*
X251093304Y-90743355D01*
X251034138Y-90769280D01*
X250912754Y-90786201D01*
X250810921Y-90789961D01*
X250557341Y-90789961D01*
X250557341Y-90277300D01*
X250557341Y-89764640D01*
X250810921Y-89764640D01*
X250956878Y-89772569D01*
G37*
G36*
X252561378Y-72186341D02*
G01*
X252554241Y-72406700D01*
X252532999Y-72538070D01*
X252506014Y-72577896D01*
X252481838Y-72617251D01*
X252526518Y-72704644D01*
X252529316Y-72708663D01*
X252588157Y-72828553D01*
X252607983Y-72927120D01*
X252602232Y-72981173D01*
X252571936Y-73012866D01*
X252497529Y-73028140D01*
X252359446Y-73032937D01*
X252258442Y-73033264D01*
X251908901Y-73033264D01*
X251907418Y-72905098D01*
X251877996Y-72749109D01*
X251787068Y-72647289D01*
X251624187Y-72590854D01*
X251517655Y-72577330D01*
X251285556Y-72579956D01*
X251113499Y-72631682D01*
X250966109Y-72680720D01*
X250794016Y-72706068D01*
X250759905Y-72707025D01*
X250557341Y-72707025D01*
X250557341Y-72260133D01*
X250557341Y-71813241D01*
X250848625Y-71843858D01*
X251037595Y-71858398D01*
X251274456Y-71869198D01*
X251513902Y-71874308D01*
X251559359Y-71874475D01*
X251793718Y-71870779D01*
X252034813Y-71860990D01*
X252237338Y-71847060D01*
X252270093Y-71843858D01*
X252561378Y-71813241D01*
X252561378Y-72186341D01*
G37*
G36*
X253307066Y-70423355D02*
G01*
X253307066Y-71588493D01*
X252701194Y-71588493D01*
X252095323Y-71588493D01*
X252095323Y-71287781D01*
X252095323Y-70987069D01*
X252382908Y-70973194D01*
X252558531Y-70955519D01*
X252665085Y-70924626D01*
X252689728Y-70901062D01*
X252653354Y-70881076D01*
X252541790Y-70864851D01*
X252372984Y-70852518D01*
X252164887Y-70844209D01*
X251935447Y-70840054D01*
X251702615Y-70840183D01*
X251484339Y-70844729D01*
X251298570Y-70853822D01*
X251163256Y-70867593D01*
X251096348Y-70886174D01*
X251093304Y-70889410D01*
X251034138Y-70915335D01*
X250912754Y-70932256D01*
X250810921Y-70936016D01*
X250557341Y-70936016D01*
X250557341Y-70423355D01*
X250557341Y-69910695D01*
X250810921Y-69910695D01*
X250956878Y-69918624D01*
X251061544Y-69939011D01*
X251093304Y-69957300D01*
X251149822Y-69974690D01*
X251288863Y-69988565D01*
X251499787Y-69998319D01*
X251771951Y-70003347D01*
X251911651Y-70003906D01*
X252204657Y-70002837D01*
X252416737Y-69998905D01*
X252560161Y-69991025D01*
X252647197Y-69978110D01*
X252690113Y-69959074D01*
X252701194Y-69933997D01*
X252680970Y-69894785D01*
X252608705Y-69872990D01*
X252467010Y-69864601D01*
X252398258Y-69864089D01*
X252095323Y-69864089D01*
X252095323Y-69561153D01*
X252095323Y-69258218D01*
X252701194Y-69258218D01*
X253307066Y-69258218D01*
X253307066Y-70423355D01*
G37*
G36*
X252561378Y-75580023D02*
G01*
X252561378Y-76029535D01*
X252225061Y-76001339D01*
X252004416Y-75995116D01*
X251785954Y-76009748D01*
X251596179Y-76041637D01*
X251461597Y-76087188D01*
X251427932Y-76109505D01*
X251449459Y-76137317D01*
X251542064Y-76178302D01*
X251686172Y-76223931D01*
X251697805Y-76227111D01*
X251878220Y-76270417D01*
X251990306Y-76281803D01*
X252052744Y-76262786D01*
X252059930Y-76256473D01*
X252136050Y-76224379D01*
X252266914Y-76205019D01*
X252337671Y-76202438D01*
X252561378Y-76202438D01*
X252561378Y-76621887D01*
X252561378Y-77041337D01*
X252350013Y-77041337D01*
X252195678Y-77027068D01*
X252065178Y-76991375D01*
X252035426Y-76976269D01*
X251955559Y-76940704D01*
X251804523Y-76886200D01*
X251600894Y-76819008D01*
X251363246Y-76745377D01*
X251244772Y-76710232D01*
X250557341Y-76509264D01*
X250557341Y-76078968D01*
X250560882Y-75888878D01*
X250570376Y-75737288D01*
X250584131Y-75645960D01*
X250592295Y-75629568D01*
X250647093Y-75610826D01*
X250775366Y-75571643D01*
X250960871Y-75516843D01*
X251187362Y-75451251D01*
X251326332Y-75411523D01*
X251569808Y-75340488D01*
X251782236Y-75275215D01*
X251947051Y-75221051D01*
X252047687Y-75183343D01*
X252069690Y-75171547D01*
X252139516Y-75147271D01*
X252266021Y-75132548D01*
X252337671Y-75130511D01*
X252561378Y-75130511D01*
X252561378Y-75580023D01*
G37*
G36*
X252561378Y-88070298D02*
G01*
X252561378Y-88519810D01*
X252225061Y-88491615D01*
X252004416Y-88485392D01*
X251785954Y-88500023D01*
X251596179Y-88531912D01*
X251461597Y-88577463D01*
X251427932Y-88599780D01*
X251449459Y-88627592D01*
X251542064Y-88668577D01*
X251686172Y-88714206D01*
X251697805Y-88717387D01*
X251878220Y-88760692D01*
X251990306Y-88772078D01*
X252052744Y-88753061D01*
X252059930Y-88746748D01*
X252136050Y-88714655D01*
X252266914Y-88695294D01*
X252337671Y-88692713D01*
X252561378Y-88692713D01*
X252561378Y-89112163D01*
X252561378Y-89531612D01*
X252350013Y-89531612D01*
X252195678Y-89517343D01*
X252065178Y-89481650D01*
X252035426Y-89466544D01*
X251955559Y-89430979D01*
X251804523Y-89376476D01*
X251600894Y-89309283D01*
X251363246Y-89235652D01*
X251244772Y-89200507D01*
X250557341Y-88999539D01*
X250557341Y-88569244D01*
X250560882Y-88379153D01*
X250570376Y-88227563D01*
X250584131Y-88136235D01*
X250592295Y-88119843D01*
X250647093Y-88101102D01*
X250775366Y-88061918D01*
X250960871Y-88007118D01*
X251187362Y-87941526D01*
X251326332Y-87901798D01*
X251569808Y-87830763D01*
X251782236Y-87765490D01*
X251947051Y-87711326D01*
X252047687Y-87673619D01*
X252069690Y-87661822D01*
X252139516Y-87637547D01*
X252266021Y-87622823D01*
X252337671Y-87620786D01*
X252561378Y-87620786D01*
X252561378Y-88070298D01*
G37*
G36*
X252461279Y-82455959D02*
G01*
X252545652Y-82477393D01*
X252561378Y-82494181D01*
X252602927Y-82522460D01*
X252707593Y-82539006D01*
X252762581Y-82540786D01*
X252963784Y-82540786D01*
X253042811Y-82878676D01*
X253081010Y-83046723D01*
X253108882Y-83178360D01*
X253121086Y-83248196D01*
X253121241Y-83251520D01*
X253078562Y-83269961D01*
X252968240Y-83282627D01*
X252841011Y-83286475D01*
X252561378Y-83286475D01*
X252561378Y-83426291D01*
X252556287Y-83509059D01*
X252524984Y-83550332D01*
X252443425Y-83564538D01*
X252328350Y-83566108D01*
X252190404Y-83563053D01*
X252121615Y-83544271D01*
X252097939Y-83495336D01*
X252095323Y-83426291D01*
X252095323Y-83286475D01*
X251662940Y-83286475D01*
X251380570Y-83298238D01*
X251183361Y-83334676D01*
X251066138Y-83397506D01*
X251023723Y-83488449D01*
X251023396Y-83498842D01*
X250991963Y-83544354D01*
X250888644Y-83564289D01*
X250819107Y-83566108D01*
X250686588Y-83558431D01*
X250618331Y-83526893D01*
X250586716Y-83461245D01*
X250566032Y-83319078D01*
X250562164Y-83140609D01*
X250574101Y-82968430D01*
X250600830Y-82845133D01*
X250601400Y-82843722D01*
X250664590Y-82742939D01*
X250743092Y-82657300D01*
X250796408Y-82618590D01*
X250867335Y-82591192D01*
X250973065Y-82572520D01*
X251130788Y-82559991D01*
X251357694Y-82551019D01*
X251470979Y-82547865D01*
X251700015Y-82538967D01*
X251891293Y-82525923D01*
X252027767Y-82510324D01*
X252092391Y-82493759D01*
X252095323Y-82489608D01*
X252137246Y-82465629D01*
X252244434Y-82450410D01*
X252328350Y-82447575D01*
X252461279Y-82455959D01*
G37*
G36*
X252561378Y-79622956D02*
G01*
X252557912Y-79823416D01*
X252545428Y-79948655D01*
X252520796Y-80016479D01*
X252487658Y-80042406D01*
X252414121Y-80053455D01*
X252268497Y-80062595D01*
X252071906Y-80068872D01*
X251846832Y-80071331D01*
X251559064Y-80073582D01*
X251351682Y-80081432D01*
X251211902Y-80097643D01*
X251126942Y-80124980D01*
X251084020Y-80166204D01*
X251070352Y-80224079D01*
X251070002Y-80239250D01*
X251073264Y-80288789D01*
X251094152Y-80320852D01*
X251149317Y-80339240D01*
X251255412Y-80347755D01*
X251429089Y-80350196D01*
X251556609Y-80350328D01*
X251766685Y-80346081D01*
X251935426Y-80334511D01*
X252043395Y-80317377D01*
X252072020Y-80303722D01*
X252131747Y-80276681D01*
X252251692Y-80259864D01*
X252331101Y-80257117D01*
X252561378Y-80257117D01*
X252561378Y-80674341D01*
X252561378Y-81091565D01*
X251827341Y-81113789D01*
X251550182Y-81123663D01*
X251282891Y-81135835D01*
X251049827Y-81149013D01*
X250875346Y-81161906D01*
X250825323Y-81166933D01*
X250557341Y-81197853D01*
X250557341Y-80774091D01*
X250562023Y-80578309D01*
X250574818Y-80433645D01*
X250593847Y-80357607D01*
X250602793Y-80350328D01*
X250624715Y-80313255D01*
X250602793Y-80230780D01*
X250570928Y-80079989D01*
X250561883Y-79886441D01*
X250575421Y-79696300D01*
X250606165Y-79567615D01*
X250674253Y-79470640D01*
X250795831Y-79400623D01*
X250980940Y-79354863D01*
X251239622Y-79330661D01*
X251508506Y-79325007D01*
X251733718Y-79321110D01*
X251914407Y-79310378D01*
X252033204Y-79294246D01*
X252072020Y-79278401D01*
X252131747Y-79251360D01*
X252251692Y-79234543D01*
X252331101Y-79231796D01*
X252561378Y-79231796D01*
X252561378Y-79622956D01*
G37*
G36*
X251690106Y-92201454D02*
G01*
X251769084Y-92198243D01*
X252193923Y-92195290D01*
X252541145Y-92215877D01*
X252806984Y-92259514D01*
X252987672Y-92325716D01*
X253040225Y-92362762D01*
X253188714Y-92553831D01*
X253287983Y-92799130D01*
X253337865Y-93076258D01*
X253338192Y-93362815D01*
X253288794Y-93636400D01*
X253189505Y-93874612D01*
X253052839Y-94044248D01*
X252959586Y-94115362D01*
X252854932Y-94167972D01*
X252724527Y-94204193D01*
X252554023Y-94226136D01*
X252329070Y-94235917D01*
X252035319Y-94235649D01*
X251786719Y-94230751D01*
X251463929Y-94219199D01*
X251219608Y-94199003D01*
X251039089Y-94165173D01*
X250907701Y-94112718D01*
X250810775Y-94036647D01*
X250733641Y-93931971D01*
X250693560Y-93858873D01*
X250622758Y-93653744D01*
X250582019Y-93395746D01*
X250576571Y-93213447D01*
X251116607Y-93213447D01*
X251136776Y-93323062D01*
X251209247Y-93374093D01*
X251221470Y-93377406D01*
X251304658Y-93385848D01*
X251460977Y-93391211D01*
X251670383Y-93393173D01*
X251912838Y-93391409D01*
X251997108Y-93389945D01*
X252265389Y-93383251D01*
X252455324Y-93374327D01*
X252581782Y-93361218D01*
X252659627Y-93341972D01*
X252703726Y-93314632D01*
X252719255Y-93295007D01*
X252745696Y-93194671D01*
X252719255Y-93131887D01*
X252687585Y-93099148D01*
X252630514Y-93075599D01*
X252533175Y-93059286D01*
X252380704Y-93048253D01*
X252158234Y-93040548D01*
X251997108Y-93036949D01*
X251690106Y-93032006D01*
X251463976Y-93032841D01*
X251306438Y-93041916D01*
X251205213Y-93061693D01*
X251148021Y-93094632D01*
X251122581Y-93143195D01*
X251116615Y-93209844D01*
X251116607Y-93213447D01*
X250576571Y-93213447D01*
X250573809Y-93121041D01*
X250600592Y-92865788D01*
X250620201Y-92782318D01*
X250687250Y-92592799D01*
X250775715Y-92449461D01*
X250898676Y-92345653D01*
X251069217Y-92274724D01*
X251300420Y-92230023D01*
X251605368Y-92204899D01*
X251690106Y-92201454D01*
G37*
G36*
X251143524Y-73150978D02*
G01*
X251259602Y-73162864D01*
X251439879Y-73250829D01*
X251563592Y-73382724D01*
X251614617Y-73483472D01*
X251678388Y-73640994D01*
X251741723Y-73822534D01*
X251746073Y-73836158D01*
X251803272Y-74008452D01*
X251847980Y-74109792D01*
X251893402Y-74158825D01*
X251952740Y-74174195D01*
X251986080Y-74175098D01*
X252082611Y-74160866D01*
X252116372Y-74101627D01*
X252118625Y-74058585D01*
X252098133Y-73968952D01*
X252018901Y-73931371D01*
X251990460Y-73927324D01*
X251925052Y-73916075D01*
X251886834Y-73887343D01*
X251868501Y-73820542D01*
X251862749Y-73695083D01*
X251862295Y-73566131D01*
X251862295Y-73219686D01*
X252113315Y-73219686D01*
X252260839Y-73223694D01*
X252345824Y-73245547D01*
X252398889Y-73299983D01*
X252438648Y-73376289D01*
X252528275Y-73626105D01*
X252584329Y-73907531D01*
X252598580Y-74173930D01*
X252592810Y-74249719D01*
X252551245Y-74445937D01*
X252480483Y-74633595D01*
X252393415Y-74785459D01*
X252302930Y-74874298D01*
X252295381Y-74878123D01*
X252217644Y-74896136D01*
X252068547Y-74916224D01*
X251869830Y-74935887D01*
X251652570Y-74952042D01*
X251402088Y-74968881D01*
X251156313Y-74987277D01*
X250946712Y-75004774D01*
X250825323Y-75016573D01*
X250557341Y-75045927D01*
X250557341Y-74645467D01*
X250560274Y-74446184D01*
X250570957Y-74323801D01*
X250592214Y-74262136D01*
X250626870Y-74245008D01*
X250627249Y-74245007D01*
X250675732Y-74243071D01*
X250690186Y-74222941D01*
X250668223Y-74163134D01*
X250607457Y-74042165D01*
X250603947Y-74035282D01*
X250574671Y-73956069D01*
X251077780Y-73956069D01*
X251083281Y-74079656D01*
X251098291Y-74124681D01*
X251165421Y-74181730D01*
X251264551Y-74198401D01*
X251359184Y-74189413D01*
X251383115Y-74148090D01*
X251371076Y-74093539D01*
X251305529Y-73958615D01*
X251217598Y-73887704D01*
X251143524Y-73887630D01*
X251077780Y-73956069D01*
X250574671Y-73956069D01*
X250526287Y-73825152D01*
X250526066Y-73630665D01*
X250578739Y-73467882D01*
X250698122Y-73296969D01*
X250866325Y-73187870D01*
X251060951Y-73142523D01*
X251143524Y-73150978D01*
G37*
G36*
X251143524Y-77159051D02*
G01*
X251259602Y-77170937D01*
X251439879Y-77258902D01*
X251563592Y-77390798D01*
X251614617Y-77491545D01*
X251678388Y-77649067D01*
X251741723Y-77830607D01*
X251746073Y-77844232D01*
X251803272Y-78016526D01*
X251847980Y-78117866D01*
X251893402Y-78166898D01*
X251952740Y-78182268D01*
X251986080Y-78183172D01*
X252082611Y-78168940D01*
X252116372Y-78109701D01*
X252118625Y-78066658D01*
X252098133Y-77977026D01*
X252018901Y-77939444D01*
X251990460Y-77935397D01*
X251925052Y-77924148D01*
X251886834Y-77895417D01*
X251868501Y-77828616D01*
X251862749Y-77703157D01*
X251862295Y-77574205D01*
X251862295Y-77227759D01*
X252113315Y-77227759D01*
X252260839Y-77231768D01*
X252345824Y-77253620D01*
X252398889Y-77308056D01*
X252438648Y-77384362D01*
X252528275Y-77634178D01*
X252584329Y-77915604D01*
X252598580Y-78182003D01*
X252592810Y-78257792D01*
X252551245Y-78454011D01*
X252480483Y-78641668D01*
X252393415Y-78793533D01*
X252302930Y-78882371D01*
X252295381Y-78886196D01*
X252217644Y-78904209D01*
X252068547Y-78924297D01*
X251869830Y-78943960D01*
X251652570Y-78960115D01*
X251402088Y-78976955D01*
X251156313Y-78995351D01*
X250946712Y-79012847D01*
X250825323Y-79024647D01*
X250557341Y-79054000D01*
X250557341Y-78653540D01*
X250560274Y-78454257D01*
X250570957Y-78331874D01*
X250592214Y-78270209D01*
X250626870Y-78253081D01*
X250627249Y-78253080D01*
X250675732Y-78251144D01*
X250690186Y-78231014D01*
X250668223Y-78171207D01*
X250607457Y-78050239D01*
X250603947Y-78043355D01*
X250574671Y-77964142D01*
X251077780Y-77964142D01*
X251083281Y-78087730D01*
X251098291Y-78132755D01*
X251165421Y-78189803D01*
X251264551Y-78206475D01*
X251359184Y-78197487D01*
X251383115Y-78156163D01*
X251371076Y-78101612D01*
X251305529Y-77966688D01*
X251217598Y-77895778D01*
X251143524Y-77895703D01*
X251077780Y-77964142D01*
X250574671Y-77964142D01*
X250526287Y-77833225D01*
X250526066Y-77638739D01*
X250578739Y-77475955D01*
X250698122Y-77305042D01*
X250866325Y-77195943D01*
X251060951Y-77150596D01*
X251143524Y-77159051D01*
G37*
G36*
X251143524Y-83730427D02*
G01*
X251259602Y-83742313D01*
X251439879Y-83830279D01*
X251563592Y-83962174D01*
X251614617Y-84062921D01*
X251678388Y-84220443D01*
X251741723Y-84401983D01*
X251746073Y-84415608D01*
X251803272Y-84587902D01*
X251847980Y-84689242D01*
X251893402Y-84738274D01*
X251952740Y-84753645D01*
X251986080Y-84754548D01*
X252082611Y-84740316D01*
X252116372Y-84681077D01*
X252118625Y-84638034D01*
X252098133Y-84548402D01*
X252018901Y-84510820D01*
X251990460Y-84506773D01*
X251925052Y-84495524D01*
X251886834Y-84466793D01*
X251868501Y-84399992D01*
X251862749Y-84274533D01*
X251862295Y-84145581D01*
X251862295Y-83799135D01*
X252113315Y-83799135D01*
X252260839Y-83803144D01*
X252345824Y-83824996D01*
X252398889Y-83879432D01*
X252438648Y-83955738D01*
X252528275Y-84205554D01*
X252584329Y-84486981D01*
X252598580Y-84753379D01*
X252592810Y-84829168D01*
X252551245Y-85025387D01*
X252480483Y-85213044D01*
X252393415Y-85364909D01*
X252302930Y-85453748D01*
X252295381Y-85457572D01*
X252217644Y-85475585D01*
X252068547Y-85495673D01*
X251869830Y-85515336D01*
X251652570Y-85531491D01*
X251402088Y-85548331D01*
X251156313Y-85566727D01*
X250946712Y-85584224D01*
X250825323Y-85596023D01*
X250557341Y-85625376D01*
X250557341Y-85224916D01*
X250560274Y-85025634D01*
X250570957Y-84903250D01*
X250592214Y-84841585D01*
X250626870Y-84824457D01*
X250627249Y-84824456D01*
X250675732Y-84822520D01*
X250690186Y-84802390D01*
X250668223Y-84742583D01*
X250607457Y-84621615D01*
X250603947Y-84614731D01*
X250574671Y-84535518D01*
X251077780Y-84535518D01*
X251083281Y-84659106D01*
X251098291Y-84704131D01*
X251165421Y-84761179D01*
X251264551Y-84777851D01*
X251359184Y-84768863D01*
X251383115Y-84727539D01*
X251371076Y-84672988D01*
X251305529Y-84538064D01*
X251217598Y-84467154D01*
X251143524Y-84467079D01*
X251077780Y-84535518D01*
X250574671Y-84535518D01*
X250526287Y-84404601D01*
X250526066Y-84210115D01*
X250578739Y-84047332D01*
X250698122Y-83876418D01*
X250866325Y-83767320D01*
X251060951Y-83721972D01*
X251143524Y-83730427D01*
G37*
%TD*%
M02*
