0
SECTION
2
HEADER
9
$INSUNITS
70
4
9
$ACADVER
1
AC1014
9
$HANDSEED
5
FFFF
0
ENDSEC
0
SECTION
2
TABLES
0
TABLE
2
VPORT
5
8
100
AcDbSymbolTable
0
ENDTAB
0
TABLE
2
LTYPE
5
5
100
AcDbSymbolTable
0
LTYPE
5
14
100
AcDbSymbolTableRecord
100
AcDbLinetypeTableRecord
2
BYBLOCK
70
0
0
LTYPE
5
15
100
AcDbSymbolTableRecord
100
AcDbLinetypeTableRecord
2
BYLAYER
70
0
0
ENDTAB
0
TABLE
2
LAYER
5
2
100
AcDbSymbolTable
70
2
0
LAYER
5
50
100
AcDbSymbolTableRecord
100
AcDbLayerTableRecord
2
0
70
0
6
CONTINUOUS
0
ENDTAB
0
TABLE
2
STYLE
5
3
100
AcDbSymbolTable
70
1
0
STYLE
5
11
100
AcDbSymbolTableRecord
100
AcDbTextStyleTableRecord
2
STANDARD
70
0
0
ENDTAB
0
TABLE
2
VIEW
5
6
100
AcDbSymbolTable
70
0
0
ENDTAB
0
TABLE
2
UCS
5
7
100
AcDbSymbolTable
70
0
0
ENDTAB
0
TABLE
2
APPID
5
9
100
AcDbSymbolTable
70
2
0
APPID
5
12
100
AcDbSymbolTableRecord
100
AcDbRegAppTableRecord
2
ACAD
70
0
0
ENDTAB
0
TABLE
2
DIMSTYLE
5
A
100
AcDbSymbolTable
70
1
0
ENDTAB
0
TABLE
2
BLOCK_RECORD
5
1
100
AcDbSymbolTable
70
1
0
BLOCK_RECORD
5
1F
100
AcDbSymbolTableRecord
100
AcDbBlockTableRecord
2
*MODEL_SPACE
0
BLOCK_RECORD
5
1B
100
AcDbSymbolTableRecord
100
AcDbBlockTableRecord
2
*PAPER_SPACE
0
ENDTAB
0
ENDSEC
0
SECTION
2
BLOCKS
0
BLOCK
5
20
100
AcDbEntity
100
AcDbBlockBegin
2
*MODEL_SPACE
0
ENDBLK
5
21
100
AcDbEntity
100
AcDbBlockEnd
0
BLOCK
5
1C
100
AcDbEntity
100
AcDbBlockBegin
2
*PAPER_SPACE
0
ENDBLK
5
1D
100
AcDbEntity
100
AcDbBlockEnd
0
ENDSEC
0
SECTION
2
ENTITIES
0
LWPOLYLINE
5
100
100
AcDbEntity
8
0
100
AcDbPolyline
90
110
70
1
43
0.0
10
-252.164815
20
47.552723000000007
10
-251.82209
20
47.494492000000001
10
-251.47500000000002
20
47.474999000000004
10
-46.975000000000016
20
47.474999000000004
10
-46.62791
20
47.494490999999996
10
-46.285184999999998
20
47.552722000000003
10
-45.951135000000001
20
47.648961000000007
10
-45.629959999999997
20
47.781995000000002
10
-45.325699999999998
20
47.950153999999998
10
-45.042180999999999
20
48.151321000000003
10
-44.782969000000001
20
48.382968000000005
10
-44.551322000000006
20
48.642181000000008
10
-44.350154000000003
20
48.925699000000009
10
-44.181996000000005
20
49.229959000000001
10
-44.048961000000006
20
49.551134000000005
10
-43.952723000000006
20
49.885184000000002
10
-43.894491000000002
20
50.227909000000004
10
-43.875
20
50.574998999999998
10
-43.875
20
102.67499900000001
10
-43.894492000000007
20
103.02208899999999
10
-43.952723000000006
20
103.364814
10
-44.048961000000006
20
103.698864
10
-44.181996000000005
20
104.020039
10
-44.350155000000001
20
104.32429900000001
10
-44.551322000000006
20
104.60781799999999
10
-44.782969000000001
20
104.867031
10
-45.042180999999999
20
105.09867700000001
10
-45.325699999999998
20
105.299845
10
-45.629959999999997
20
105.46800300000001
10
-45.951135000000001
20
105.601038
10
-46.285184999999998
20
105.697276
10
-46.62791
20
105.75550800000002
10
-46.975000000000009
20
105.77499899999999
10
-71.25
20
105.77499899999999
10
-71.458377999999996
20
105.79323000000001
10
-71.660424000000006
20
105.84736800000002
10
-71.849999999999994
20
105.93576800000001
10
-72.021344999999997
20
106.055746
10
-72.169253999999995
20
106.203654
10
-72.289231000000001
20
106.37499900000002
10
-72.377632000000006
20
106.56457500000002
10
-72.43177
20
106.76662100000001
10
-72.450000000000017
20
106.974999
10
-72.450000000000017
20
121.724999
10
-72.469492000000002
20
122.07208900000001
10
-72.527723000000009
20
122.41481400000001
10
-72.623961000000008
20
122.748864
10
-72.756996000000001
20
123.07003899999999
10
-72.925155000000004
20
123.37429900000001
10
-73.126322000000002
20
123.65781800000001
10
-73.357968999999997
20
123.91703100000001
10
-73.617181000000016
20
124.14867700000002
10
-73.900700000000001
20
124.349845
10
-74.20496
20
124.51800300000001
10
-74.526134999999996
20
124.65103800000001
10
-74.860185000000001
20
124.74727600000001
10
-75.202910000000003
20
124.80550800000002
10
-75.549999999999997
20
124.82499900000001
10
-222.90000000000003
20
124.82499900000001
10
-223.24708999999999
20
124.80550700000002
10
-223.58981499999999
20
124.74727600000001
10
-223.92386500000001
20
124.651037
10
-224.24503900000002
20
124.51800200000001
10
-224.54929899999999
20
124.34984400000002
10
-224.832818
20
124.14867700000002
10
-225.09203100000002
20
123.91703
10
-225.32367700000003
20
123.65781699999999
10
-225.52484500000003
20
123.37429800000001
10
-225.69300300000003
20
123.07003899999999
10
-225.82603800000001
20
122.748864
10
-225.92227600000001
20
122.41481400000001
10
-225.98050700000002
20
122.07208900000001
10
-226
20
121.724999
10
-226
20
106.974999
10
-226.01823100000001
20
106.76662100000001
10
-226.07236900000004
20
106.56457500000002
10
-226.16077000000004
20
106.37499900000002
10
-226.28074699999999
20
106.203654
10
-226.42865499999999
20
106.055746
10
-226.59999999999999
20
105.93576900000001
10
-226.78957600000004
20
105.84736900000001
10
-226.99162200000004
20
105.79323100000002
10
-227.19999999999999
20
105.77499899999999
10
-251.47500000000002
20
105.77499899999999
10
-251.82209
20
105.75550700000001
10
-252.164815
20
105.697276
10
-252.49886500000002
20
105.60103700000001
10
-252.82003900000004
20
105.468002
10
-253.12429900000001
20
105.29984400000001
10
-253.40781800000002
20
105.09867700000001
10
-253.66703100000001
20
104.86703
10
-253.89867699999999
20
104.607817
10
-254.09984500000002
20
104.32429800000001
10
-254.26800299999999
20
104.020039
10
-254.40103800000003
20
103.698864
10
-254.49727600000003
20
103.364814
10
-254.55550700000003
20
103.02208899999999
10
-254.57499999999999
20
102.67499900000001
10
-254.57499999999999
20
50.574998999999998
10
-254.555508
20
50.227909000000004
10
-254.49727600000003
20
49.885184000000002
10
-254.40103800000003
20
49.551134000000005
10
-254.26800299999999
20
49.229960000000005
10
-254.09984500000002
20
48.925699999999999
10
-253.89867699999999
20
48.642181000000008
10
-253.66703100000001
20
48.382969000000003
10
-253.40781800000002
20
48.151322000000008
10
-253.12429900000001
20
47.950155000000009
10
-252.82003900000004
20
47.781995999999999
10
-252.49886500000002
20
47.648961999999997
0
LWPOLYLINE
5
101
100
AcDbEntity
8
0
100
AcDbPolyline
90
8
70
1
43
0.0
10
-208.59999999999999
20
108.3
10
-209.60000000000002
20
107.30000000000001
10
-222.19999999999999
20
107.30000000000001
10
-223.19999999999999
20
108.3
10
-223.19999999999999
20
120.30000000000001
10
-222.19999999999999
20
121.30000000000001
10
-209.60000000000002
20
121.30000000000001
10
-208.59999999999999
20
120.30000000000001
0
LWPOLYLINE
5
102
100
AcDbEntity
8
0
100
AcDbPolyline
90
34
70
1
43
0.0
10
-206.06028800000004
20
113.193901
10
-206.268891
20
113.15490600000001
10
-206.48110900000003
20
113.15490600000001
10
-206.68971200000001
20
113.193901
10
-206.88759900000002
20
113.27056200000001
10
-207.06803000000002
20
113.38228000000001
10
-207.22486000000004
20
113.52525
10
-207.35275000000001
20
113.694603
10
-207.44734300000002
20
113.88457200000002
10
-207.50541900000002
20
114.088688
10
-207.52500000000001
20
114.3
10
-207.50541900000002
20
114.511312
10
-207.44734300000002
20
114.71542800000002
10
-207.35275000000001
20
114.90539699999999
10
-207.22486000000004
20
115.07474999999999
10
-207.06803000000002
20
115.21772
10
-206.88759900000002
20
115.329438
10
-206.68971200000001
20
115.406099
10
-206.48110900000003
20
115.44509400000001
10
-206.268891
20
115.44509400000001
10
-206.06028800000004
20
115.406099
10
-205.86240100000001
20
115.329438
10
-205.68197000000001
20
115.21772
10
-205.52514000000002
20
115.07474999999999
10
-205.39725000000004
20
114.90539699999999
10
-205.30265700000001
20
114.71542800000002
10
-205.24458100000004
20
114.511312
10
-205.22500000000002
20
114.3
10
-205.24458100000004
20
114.088688
10
-205.30265700000001
20
113.88457200000002
10
-205.39725000000004
20
113.694603
10
-205.52514000000002
20
113.52525
10
-205.68197000000001
20
113.38228000000001
10
-205.86240100000001
20
113.27056200000001
0
LWPOLYLINE
5
103
100
AcDbEntity
8
0
100
AcDbPolyline
90
8
70
1
43
0.0
10
-187.16999999999999
20
108.3
10
-188.17000000000002
20
107.30000000000001
10
-200.77000000000001
20
107.30000000000001
10
-201.77000000000004
20
108.3
10
-201.77000000000004
20
120.30000000000001
10
-200.77000000000001
20
121.30000000000001
10
-188.17000000000002
20
121.30000000000001
10
-187.16999999999999
20
120.30000000000001
0
LWPOLYLINE
5
104
100
AcDbEntity
8
0
100
AcDbPolyline
90
34
70
1
43
0.0
10
-175.10403800000003
20
113.193901
10
-175.31264100000001
20
113.15490600000001
10
-175.52485899999999
20
113.15490600000001
10
-175.733462
20
113.193901
10
-175.93134900000001
20
113.27056200000001
10
-176.11178000000001
20
113.38228000000001
10
-176.26861000000002
20
113.52525
10
-176.3965
20
113.694603
10
-176.49109300000003
20
113.88457200000002
10
-176.54916900000001
20
114.088688
10
-176.56874999999999
20
114.3
10
-176.54916900000001
20
114.511312
10
-176.49109300000003
20
114.71542800000002
10
-176.3965
20
114.90539699999999
10
-176.26861000000002
20
115.07474999999999
10
-176.11178000000001
20
115.21772
10
-175.93134900000001
20
115.329438
10
-175.733462
20
115.406099
10
-175.52485899999999
20
115.44509400000001
10
-175.31264100000001
20
115.44509400000001
10
-175.10403800000003
20
115.406099
10
-174.90615099999999
20
115.329438
10
-174.72572
20
115.21772
10
-174.56889000000001
20
115.07474999999999
10
-174.44100000000003
20
114.90539699999999
10
-174.346407
20
114.71542800000002
10
-174.28833100000003
20
114.511312
10
-174.26875000000001
20
114.3
10
-174.28833100000003
20
114.088688
10
-174.346407
20
113.88457200000002
10
-174.44100000000003
20
113.694603
10
-174.56889000000001
20
113.52525
10
-174.72572
20
113.38228000000001
10
-174.90615099999999
20
113.27056200000001
0
LWPOLYLINE
5
105
100
AcDbEntity
8
0
100
AcDbPolyline
90
8
70
1
43
0.0
10
-158.59200000000001
20
108.3
10
-159.59200000000004
20
107.30000000000001
10
-172.19200000000001
20
107.30000000000001
10
-173.19200000000001
20
108.3
10
-173.19200000000001
20
120.30000000000001
10
-172.19200000000001
20
121.30000000000001
10
-159.59200000000004
20
121.30000000000001
10
-158.59200000000001
20
120.30000000000001
0
LWPOLYLINE
5
106
100
AcDbEntity
8
0
100
AcDbPolyline
90
34
70
1
43
0.0
10
-251.41966300000004
20
101.8279
10
-251.62826600000002
20
101.78890500000001
10
-251.840484
20
101.78890500000001
10
-252.04908700000001
20
101.8279
10
-252.24697399999999
20
101.904561
10
-252.42740499999999
20
102.016279
10
-252.58423500000004
20
102.15924900000002
10
-252.71212500000001
20
102.32860200000002
10
-252.80671799999999
20
102.51857100000001
10
-252.86479400000002
20
102.72268699999999
10
-252.88437500000001
20
102.933999
10
-252.86479400000002
20
103.14531100000002
10
-252.80671799999999
20
103.34942700000001
10
-252.71212500000001
20
103.53939600000001
10
-252.58423500000004
20
103.70874900000001
10
-252.42740499999999
20
103.85171900000002
10
-252.24697399999999
20
103.96343700000001
10
-252.04908700000001
20
104.040098
10
-251.840484
20
104.079093
10
-251.62826600000002
20
104.079093
10
-251.41966300000004
20
104.040098
10
-251.22177600000001
20
103.96343700000001
10
-251.04134500000001
20
103.85171900000002
10
-250.88451500000002
20
103.70874900000001
10
-250.75662500000004
20
103.53939600000001
10
-250.66203200000004
20
103.34942700000001
10
-250.60395600000004
20
103.14531100000002
10
-250.58437499999999
20
102.933999
10
-250.60395600000004
20
102.72268699999999
10
-250.66203200000004
20
102.51857100000001
10
-250.75662500000004
20
102.32860200000002
10
-250.88451500000002
20
102.15924900000002
10
-251.04134500000001
20
102.016279
10
-251.22177600000001
20
101.904561
0
LWPOLYLINE
5
107
100
AcDbEntity
8
0
100
AcDbPolyline
90
8
70
1
43
0.0
10
-234.79500000000002
20
89.25
10
-235.79499999999999
20
88.250000000000014
10
-248.39500000000001
20
88.250000000000014
10
-249.39500000000004
20
89.25
10
-249.39500000000004
20
101.25
10
-248.39500000000001
20
102.25000000000001
10
-235.79499999999999
20
102.25000000000001
10
-234.79500000000002
20
101.25
0
LWPOLYLINE
5
108
100
AcDbEntity
8
0
100
AcDbPolyline
90
34
70
1
43
0.0
10
-232.25403800000004
20
94.143901
10
-232.46264100000002
20
94.104906000000014
10
-232.674859
20
94.104906000000014
10
-232.88346200000004
20
94.143901
10
-233.08134899999999
20
94.220562000000001
10
-233.26177999999999
20
94.332279999999997
10
-233.41861
20
94.475250000000003
10
-233.54650000000004
20
94.644603000000004
10
-233.64109300000001
20
94.834572000000009
10
-233.69916900000004
20
95.038687999999993
10
-233.71875000000003
20
95.25
10
-233.69916900000004
20
95.461312000000021
10
-233.64109300000001
20
95.665428000000006
10
-233.54650000000004
20
95.855396999999996
10
-233.41861
20
96.024749999999997
10
-233.26177999999999
20
96.167720000000003
10
-233.08134899999999
20
96.279437999999999
10
-232.88346200000004
20
96.356099
10
-232.674859
20
96.395094000000014
10
-232.46264100000002
20
96.395094000000014
10
-232.25403800000004
20
96.356099
10
-232.05615100000003
20
96.279437999999999
10
-231.87572000000003
20
96.167720000000003
10
-231.71888999999999
20
96.024749999999997
10
-231.59100000000001
20
95.855396999999996
10
-231.49640700000003
20
95.665428000000006
10
-231.43833100000001
20
95.461312000000021
10
-231.41874999999999
20
95.25
10
-231.43833100000001
20
95.038687999999993
10
-231.49640700000003
20
94.834572000000009
10
-231.59100000000001
20
94.644603000000004
10
-231.71888999999999
20
94.475250000000003
10
-231.87572000000003
20
94.332279999999997
10
-232.05615100000003
20
94.220562000000001
0
LWPOLYLINE
5
109
100
AcDbEntity
8
0
100
AcDbPolyline
90
8
70
1
43
0.0
10
-213.36250000000004
20
89.25
10
-214.36250000000001
20
88.250000000000014
10
-226.96250000000003
20
88.250000000000014
10
-227.96250000000001
20
89.25
10
-227.96250000000001
20
101.25
10
-226.96250000000003
20
102.25000000000001
10
-214.36250000000001
20
102.25000000000001
10
-213.36250000000004
20
101.25
0
LWPOLYLINE
5
110
100
AcDbEntity
8
0
100
AcDbPolyline
90
8
70
1
43
0.0
10
-194.31250000000003
20
89.25
10
-195.3125
20
88.250000000000014
10
-207.91250000000002
20
88.250000000000014
10
-208.91249999999999
20
89.25
10
-208.91249999999999
20
101.25
10
-207.91250000000002
20
102.25000000000001
10
-195.3125
20
102.25000000000001
10
-194.31250000000003
20
101.25
0
LWPOLYLINE
5
111
100
AcDbEntity
8
0
100
AcDbPolyline
90
34
70
1
43
0.0
10
-191.77278799999999
20
94.143901
10
-191.98139100000003
20
94.104906000000014
10
-192.19360900000001
20
94.104906000000014
10
-192.40221200000002
20
94.143901
10
-192.600099
20
94.220562000000001
10
-192.78053
20
94.332279999999997
10
-192.93736000000001
20
94.475250000000003
10
-193.06524999999999
20
94.644603000000004
10
-193.159843
20
94.834572000000009
10
-193.21791899999999
20
95.038687999999993
10
-193.23750000000004
20
95.25
10
-193.21791899999999
20
95.461312000000021
10
-193.159843
20
95.665428000000006
10
-193.06524999999999
20
95.855396999999996
10
-192.93736000000001
20
96.024749999999997
10
-192.78053
20
96.167720000000003
10
-192.600099
20
96.279437999999999
10
-192.40221200000002
20
96.356099
10
-192.19360900000001
20
96.395094000000014
10
-191.98139100000003
20
96.395094000000014
10
-191.77278799999999
20
96.356099
10
-191.57490100000001
20
96.279437999999999
10
-191.39447000000001
20
96.167720000000003
10
-191.23764
20
96.024749999999997
10
-191.10974999999999
20
95.855396999999996
10
-191.01515699999999
20
95.665428000000006
10
-190.95708099999999
20
95.461312000000021
10
-190.9375
20
95.25
10
-190.95708099999999
20
95.038687999999993
10
-191.01515699999999
20
94.834572000000009
10
-191.10974999999999
20
94.644603000000004
10
-191.23764
20
94.475250000000003
10
-191.39447000000001
20
94.332279999999997
10
-191.57490100000001
20
94.220562000000001
0
LWPOLYLINE
5
112
100
AcDbEntity
8
0
100
AcDbPolyline
90
8
70
1
43
0.0
10
-175.26250000000002
20
89.25
10
-176.26249999999999
20
88.250000000000014
10
-188.86250000000001
20
88.250000000000014
10
-189.86250000000001
20
89.25
10
-189.86250000000001
20
101.25
10
-188.86250000000001
20
102.25000000000001
10
-176.26249999999999
20
102.25000000000001
10
-175.26250000000002
20
101.25
0
LWPOLYLINE
5
113
100
AcDbEntity
8
0
100
AcDbPolyline
90
8
70
1
43
0.0
10
-156.21250000000001
20
89.25
10
-157.21250000000001
20
88.250000000000014
10
-169.8125
20
88.250000000000014
10
-170.8125
20
89.25
10
-170.8125
20
101.25
10
-169.8125
20
102.25000000000001
10
-157.21250000000001
20
102.25000000000001
10
-156.21250000000001
20
101.25
0
LWPOLYLINE
5
114
100
AcDbEntity
8
0
100
AcDbPolyline
90
34
70
1
43
0.0
10
-153.67278800000003
20
94.143901
10
-153.88139100000001
20
94.104906000000014
10
-154.09360899999999
20
94.104906000000014
10
-154.302212
20
94.143901
10
-154.50009900000001
20
94.220562000000001
10
-154.68053
20
94.332279999999997
10
-154.83735999999999
20
94.475250000000003
10
-154.96525
20
94.644603000000004
10
-155.059843
20
94.834572000000009
10
-155.117919
20
95.038687999999993
10
-155.13749999999999
20
95.25
10
-155.117919
20
95.461312000000021
10
-155.059843
20
95.665428000000006
10
-154.96525
20
95.855396999999996
10
-154.83735999999999
20
96.024749999999997
10
-154.68053
20
96.167720000000003
10
-154.50009900000001
20
96.279437999999999
10
-154.302212
20
96.356099
10
-154.09360899999999
20
96.395094000000014
10
-153.88139100000001
20
96.395094000000014
10
-153.67278800000003
20
96.356099
10
-153.47490099999999
20
96.279437999999999
10
-153.29446999999999
20
96.167720000000003
10
-153.13764
20
96.024749999999997
10
-153.00975
20
95.855396999999996
10
-152.91515699999999
20
95.665428000000006
10
-152.85708099999999
20
95.461312000000021
10
-152.83750000000001
20
95.25
10
-152.85708099999999
20
95.038687999999993
10
-152.91515699999999
20
94.834572000000009
10
-153.00975
20
94.644603000000004
10
-153.13764
20
94.475250000000003
10
-153.29446999999999
20
94.332279999999997
10
-153.47490099999999
20
94.220562000000001
0
LWPOLYLINE
5
115
100
AcDbEntity
8
0
100
AcDbPolyline
90
8
70
1
43
0.0
10
-125.25500000000001
20
108.3
10
-126.25500000000001
20
107.30000000000001
10
-138.85500000000002
20
107.30000000000001
10
-139.85499999999999
20
108.3
10
-139.85499999999999
20
120.30000000000001
10
-138.85500000000002
20
121.30000000000001
10
-126.25500000000001
20
121.30000000000001
10
-125.25500000000001
20
120.30000000000001
0
LWPOLYLINE
5
116
100
AcDbEntity
8
0
100
AcDbPolyline
90
34
70
1
43
0.0
10
-122.71653800000001
20
113.193901
10
-122.925141
20
113.15490600000001
10
-123.137359
20
113.15490600000001
10
-123.345962
20
113.193901
10
-123.54384899999999
20
113.27056200000001
10
-123.72427999999999
20
113.38228000000001
10
-123.88111000000002
20
113.52525
10
-124.009
20
113.694603
10
-124.10359300000002
20
113.88457200000002
10
-124.161669
20
114.088688
10
-124.18125000000002
20
114.3
10
-124.161669
20
114.511312
10
-124.10359300000002
20
114.71542800000002
10
-124.009
20
114.90539699999999
10
-123.88111000000002
20
115.07474999999999
10
-123.72427999999999
20
115.21772
10
-123.54384899999999
20
115.329438
10
-123.345962
20
115.406099
10
-123.137359
20
115.44509400000001
10
-122.925141
20
115.44509400000001
10
-122.71653800000001
20
115.406099
10
-122.51865100000002
20
115.329438
10
-122.33822000000002
20
115.21772
10
-122.18139000000001
20
115.07474999999999
10
-122.05350000000001
20
114.90539699999999
10
-121.958907
20
114.71542800000002
10
-121.90083100000001
20
114.511312
10
-121.88124999999999
20
114.3
10
-121.90083100000001
20
114.088688
10
-121.958907
20
113.88457200000002
10
-122.05350000000001
20
113.694603
10
-122.18139000000001
20
113.52525
10
-122.33822000000002
20
113.38228000000001
10
-122.51865100000002
20
113.27056200000001
0
LWPOLYLINE
5
117
100
AcDbEntity
8
0
100
AcDbPolyline
90
8
70
1
43
0.0
10
-96.680000000000007
20
108.3
10
-97.680000000000007
20
107.30000000000001
10
-110.28
20
107.30000000000001
10
-111.28
20
108.3
10
-111.28
20
120.30000000000001
10
-110.28
20
121.30000000000001
10
-97.680000000000007
20
121.30000000000001
10
-96.680000000000007
20
120.30000000000001
0
LWPOLYLINE
5
118
100
AcDbEntity
8
0
100
AcDbPolyline
90
34
70
1
43
0.0
10
-91.760288000000003
20
113.193901
10
-91.968890999999999
20
113.15490600000001
10
-92.181109000000006
20
113.15490600000001
10
-92.389712000000003
20
113.193901
10
-92.587598999999997
20
113.27056200000001
10
-92.768029999999996
20
113.38228000000001
10
-92.924859999999995
20
113.52525
10
-93.052750000000003
20
113.694603
10
-93.147343000000006
20
113.88457200000002
10
-93.205419000000006
20
114.088688
10
-93.224999999999994
20
114.3
10
-93.205419000000006
20
114.511312
10
-93.147343000000006
20
114.71542800000002
10
-93.052750000000003
20
114.90539699999999
10
-92.924859999999995
20
115.07474999999999
10
-92.768029999999996
20
115.21772
10
-92.587598999999997
20
115.329438
10
-92.389712000000003
20
115.406099
10
-92.181109000000006
20
115.44509400000001
10
-91.968890999999999
20
115.44509400000001
10
-91.760288000000003
20
115.406099
10
-91.562400999999994
20
115.329438
10
-91.381969999999995
20
115.21772
10
-91.22514000000001
20
115.07474999999999
10
-91.097250000000003
20
114.90539699999999
10
-91.002656999999999
20
114.71542800000002
10
-90.944580999999999
20
114.511312
10
-90.924999999999997
20
114.3
10
-90.944580999999999
20
114.088688
10
-91.002656999999999
20
113.88457200000002
10
-91.097250000000003
20
113.694603
10
-91.22514000000001
20
113.52525
10
-91.381969999999995
20
113.38228000000001
10
-91.562400999999994
20
113.27056200000001
0
LWPOLYLINE
5
119
100
AcDbEntity
8
0
100
AcDbPolyline
90
8
70
1
43
0.0
10
-75.25
20
108.3
10
-76.25
20
107.30000000000001
10
-88.849999999999994
20
107.30000000000001
10
-89.849999999999994
20
108.3
10
-89.849999999999994
20
120.30000000000001
10
-88.849999999999994
20
121.30000000000001
10
-76.25
20
121.30000000000001
10
-75.25
20
120.30000000000001
0
LWPOLYLINE
5
120
100
AcDbEntity
8
0
100
AcDbPolyline
90
8
70
1
43
0.0
10
-137.16249999999999
20
89.25
10
-138.16249999999999
20
88.250000000000014
10
-150.76249999999999
20
88.250000000000014
10
-151.76249999999999
20
89.25
10
-151.76249999999999
20
101.25
10
-150.76249999999999
20
102.25000000000001
10
-138.16249999999999
20
102.25000000000001
10
-137.16249999999999
20
101.25
0
LWPOLYLINE
5
121
100
AcDbEntity
8
0
100
AcDbPolyline
90
8
70
1
43
0.0
10
-118.11250000000001
20
89.25
10
-119.11250000000001
20
88.250000000000014
10
-131.71250000000001
20
88.250000000000014
10
-132.71250000000003
20
89.25
10
-132.71250000000003
20
101.25
10
-131.71250000000001
20
102.25000000000001
10
-119.11250000000001
20
102.25000000000001
10
-118.11250000000001
20
101.25
0
LWPOLYLINE
5
122
100
AcDbEntity
8
0
100
AcDbPolyline
90
34
70
1
43
0.0
10
-115.572788
20
94.143901
10
-115.78139100000001
20
94.104906000000014
10
-115.99360900000001
20
94.104906000000014
10
-116.20221200000002
20
94.143901
10
-116.40009900000001
20
94.220562000000001
10
-116.58053000000001
20
94.332279999999997
10
-116.73736
20
94.475250000000003
10
-116.86525000000002
20
94.644603000000004
10
-116.95984300000001
20
94.834572000000009
10
-117.01791900000002
20
95.038687999999993
10
-117.03749999999999
20
95.25
10
-117.01791900000002
20
95.461312000000021
10
-116.95984300000001
20
95.665428000000006
10
-116.86525000000002
20
95.855396999999996
10
-116.73736
20
96.024749999999997
10
-116.58053000000001
20
96.167720000000003
10
-116.40009900000001
20
96.279437999999999
10
-116.20221200000002
20
96.356099
10
-115.99360900000001
20
96.395094000000014
10
-115.78139100000001
20
96.395094000000014
10
-115.572788
20
96.356099
10
-115.37490099999999
20
96.279437999999999
10
-115.19447
20
96.167720000000003
10
-115.03764000000001
20
96.024749999999997
10
-114.90975
20
95.855396999999996
10
-114.81515700000001
20
95.665428000000006
10
-114.757081
20
95.461312000000021
10
-114.73750000000001
20
95.25
10
-114.757081
20
95.038687999999993
10
-114.81515700000001
20
94.834572000000009
10
-114.90975
20
94.644603000000004
10
-115.03764000000001
20
94.475250000000003
10
-115.19447
20
94.332279999999997
10
-115.37490099999999
20
94.220562000000001
0
LWPOLYLINE
5
123
100
AcDbEntity
8
0
100
AcDbPolyline
90
8
70
1
43
0.0
10
-99.0625
20
89.25
10
-100.06250000000001
20
88.250000000000014
10
-112.66249999999999
20
88.250000000000014
10
-113.66250000000001
20
89.25
10
-113.66250000000001
20
101.25
10
-112.66249999999999
20
102.25000000000001
10
-100.06250000000001
20
102.25000000000001
10
-99.0625
20
101.25
0
LWPOLYLINE
5
124
100
AcDbEntity
8
0
100
AcDbPolyline
90
8
70
1
43
0.0
10
-80.012500000000003
20
89.25
10
-81.012500000000003
20
88.250000000000014
10
-93.612499999999997
20
88.250000000000014
10
-94.612499999999997
20
89.25
10
-94.612499999999997
20
101.25
10
-93.612499999999997
20
102.25000000000001
10
-81.012500000000003
20
102.25000000000001
10
-80.012500000000003
20
101.25
0
LWPOLYLINE
5
125
100
AcDbEntity
8
0
100
AcDbPolyline
90
34
70
1
43
0.0
10
-46.401288000000001
20
101.8279
10
-46.609891000000005
20
101.78890500000001
10
-46.822109000000005
20
101.78890500000001
10
-47.030712000000001
20
101.8279
10
-47.228599000000003
20
101.904561
10
-47.409030000000001
20
102.016279
10
-47.565860000000001
20
102.15924900000002
10
-47.693750000000001
20
102.32860200000002
10
-47.788342999999998
20
102.51857100000001
10
-47.846418999999997
20
102.72268699999999
10
-47.866
20
102.933999
10
-47.846418999999997
20
103.14531100000002
10
-47.788342999999998
20
103.34942700000001
10
-47.693750000000001
20
103.53939600000001
10
-47.565860000000001
20
103.70874900000001
10
-47.409030000000001
20
103.85171900000002
10
-47.228599000000003
20
103.96343700000001
10
-47.030712000000001
20
104.040098
10
-46.822109000000005
20
104.079093
10
-46.609891000000005
20
104.079093
10
-46.401288000000001
20
104.040098
10
-46.203400999999999
20
103.96343700000001
10
-46.022970000000001
20
103.85171900000002
10
-45.866140000000001
20
103.70874900000001
10
-45.738250000000001
20
103.53939600000001
10
-45.643656999999997
20
103.34942700000001
10
-45.585580999999998
20
103.14531100000002
10
-45.566000000000003
20
102.933999
10
-45.585580999999998
20
102.72268699999999
10
-45.643656999999997
20
102.51857100000001
10
-45.738250000000001
20
102.32860200000002
10
-45.866140000000001
20
102.15924900000002
10
-46.022970000000001
20
102.016279
10
-46.203400999999999
20
101.904561
0
LWPOLYLINE
5
126
100
AcDbEntity
8
0
100
AcDbPolyline
90
34
70
1
43
0.0
10
-70.329037999999997
20
94.143901
10
-70.537640999999994
20
94.104906000000014
10
-70.749859000000001
20
94.104906000000014
10
-70.958461999999997
20
94.143901
10
-71.156349000000006
20
94.220562000000001
10
-71.336780000000005
20
94.332279999999997
10
-71.493610000000004
20
94.475250000000003
10
-71.621499999999997
20
94.644603000000004
10
-71.716093000000001
20
94.834572000000009
10
-71.774169000000001
20
95.038687999999993
10
-71.793750000000003
20
95.25
10
-71.774169000000001
20
95.461312000000021
10
-71.716093000000001
20
95.665428000000006
10
-71.621499999999997
20
95.855396999999996
10
-71.493610000000004
20
96.024749999999997
10
-71.336780000000005
20
96.167720000000003
10
-71.156349000000006
20
96.279437999999999
10
-70.958461999999997
20
96.356099
10
-70.749859000000001
20
96.395094000000014
10
-70.537640999999994
20
96.395094000000014
10
-70.329037999999997
20
96.356099
10
-70.131151000000003
20
96.279437999999999
10
-69.950720000000004
20
96.167720000000003
10
-69.793890000000005
20
96.024749999999997
10
-69.665999999999997
20
95.855396999999996
10
-69.571406999999994
20
95.665428000000006
10
-69.513330999999994
20
95.461312000000021
10
-69.493750000000006
20
95.25
10
-69.513330999999994
20
95.038687999999993
10
-69.571406999999994
20
94.834572000000009
10
-69.665999999999997
20
94.644603000000004
10
-69.793890000000005
20
94.475250000000003
10
-69.950720000000004
20
94.332279999999997
10
-70.131151000000003
20
94.220562000000001
0
LWPOLYLINE
5
127
100
AcDbEntity
8
0
100
AcDbPolyline
90
8
70
1
43
0.0
10
-53.820000000000007
20
89.25
10
-54.82
20
88.250000000000014
10
-67.420000000000016
20
88.250000000000014
10
-68.420000000000002
20
89.25
10
-68.420000000000002
20
101.25
10
-67.420000000000016
20
102.25000000000001
10
-54.82
20
102.25000000000001
10
-53.820000000000007
20
101.25
0
LWPOLYLINE
5
128
100
AcDbEntity
8
0
100
AcDbPolyline
90
8
70
1
43
0.0
10
-230.03
20
70.200000000000003
10
-231.03000000000003
20
69.200000000000003
10
-243.63
20
69.200000000000003
10
-244.63
20
70.200000000000003
10
-244.63
20
82.200000000000003
10
-243.63
20
83.200000000000003
10
-231.03000000000003
20
83.200000000000003
10
-230.03
20
82.200000000000003
0
LWPOLYLINE
5
129
100
AcDbEntity
8
0
100
AcDbPolyline
90
34
70
1
43
0.0
10
-220.34778800000001
20
75.093901000000017
10
-220.55639100000002
20
75.054906000000003
10
-220.768609
20
75.054906000000003
10
-220.97721200000001
20
75.093901000000017
10
-221.17509900000002
20
75.170562000000004
10
-221.35553000000002
20
75.28228
10
-221.51236
20
75.425250000000005
10
-221.64025000000004
20
75.594603000000006
10
-221.73484300000001
20
75.784571999999997
10
-221.79291900000004
20
75.988687999999996
10
-221.81250000000003
20
76.200000000000017
10
-221.79291900000004
20
76.411312000000009
10
-221.73484300000001
20
76.615427999999994
10
-221.64025000000004
20
76.805396999999999
10
-221.51236
20
76.97475
10
-221.35553000000002
20
77.117720000000006
10
-221.17509900000002
20
77.229438000000002
10
-220.97721200000001
20
77.306099000000017
10
-220.768609
20
77.345094000000003
10
-220.55639100000002
20
77.345094000000003
10
-220.34778800000001
20
77.306099000000017
10
-220.14990100000003
20
77.229438000000002
10
-219.96947000000003
20
77.117720000000006
10
-219.81263999999999
20
76.97475
10
-219.68475000000001
20
76.805396999999999
10
-219.59015700000003
20
76.615427999999994
10
-219.53208100000001
20
76.411312000000009
10
-219.51250000000002
20
76.200000000000017
10
-219.53208100000001
20
75.988687999999996
10
-219.59015700000003
20
75.784571999999997
10
-219.68475000000001
20
75.594603000000006
10
-219.81263999999999
20
75.425250000000005
10
-219.96947000000003
20
75.28228
10
-220.14990100000003
20
75.170562000000004
0
LWPOLYLINE
5
130
100
AcDbEntity
8
0
100
AcDbPolyline
90
8
70
1
43
0.0
10
-203.83750000000003
20
70.200000000000003
10
-204.83750000000001
20
69.200000000000003
10
-217.43750000000003
20
69.200000000000003
10
-218.4375
20
70.200000000000003
10
-218.4375
20
82.200000000000003
10
-217.43750000000003
20
83.200000000000003
10
-204.83750000000001
20
83.200000000000003
10
-203.83750000000003
20
82.200000000000003
0
LWPOLYLINE
5
131
100
AcDbEntity
8
0
100
AcDbPolyline
90
8
70
1
43
0.0
10
-184.78750000000002
20
70.200000000000003
10
-185.78749999999999
20
69.200000000000003
10
-198.38750000000002
20
69.200000000000003
10
-199.38749999999999
20
70.200000000000003
10
-199.38749999999999
20
82.200000000000003
10
-198.38750000000002
20
83.200000000000003
10
-185.78749999999999
20
83.200000000000003
10
-184.78750000000002
20
82.200000000000003
0
LWPOLYLINE
5
132
100
AcDbEntity
8
0
100
AcDbPolyline
90
34
70
1
43
0.0
10
-182.24778800000001
20
75.093901000000017
10
-182.45639100000002
20
75.054906000000003
10
-182.668609
20
75.054906000000003
10
-182.87721199999999
20
75.093901000000017
10
-183.07509899999999
20
75.170562000000004
10
-183.25552999999999
20
75.28228
10
-183.41236000000004
20
75.425250000000005
10
-183.54025000000001
20
75.594603000000006
10
-183.63484299999999
20
75.784571999999997
10
-183.69291900000002
20
75.988687999999996
10
-183.71250000000001
20
76.200000000000017
10
-183.69291900000002
20
76.411312000000009
10
-183.63484299999999
20
76.615427999999994
10
-183.54025000000001
20
76.805396999999999
10
-183.41236000000004
20
76.97475
10
-183.25552999999999
20
77.117720000000006
10
-183.07509899999999
20
77.229438000000002
10
-182.87721199999999
20
77.306099000000017
10
-182.668609
20
77.345094000000003
10
-182.45639100000002
20
77.345094000000003
10
-182.24778800000001
20
77.306099000000017
10
-182.04990100000001
20
77.229438000000002
10
-181.86947000000001
20
77.117720000000006
10
-181.71264000000002
20
76.97475
10
-181.58475000000004
20
76.805396999999999
10
-181.49015700000004
20
76.615427999999994
10
-181.43208100000004
20
76.411312000000009
10
-181.41249999999999
20
76.200000000000017
10
-181.43208100000004
20
75.988687999999996
10
-181.49015700000004
20
75.784571999999997
10
-181.58475000000004
20
75.594603000000006
10
-181.71264000000002
20
75.425250000000005
10
-181.86947000000001
20
75.28228
10
-182.04990100000001
20
75.170562000000004
0
LWPOLYLINE
5
133
100
AcDbEntity
8
0
100
AcDbPolyline
90
8
70
1
43
0.0
10
-165.73750000000001
20
70.200000000000003
10
-166.73750000000001
20
69.200000000000003
10
-179.33750000000001
20
69.200000000000003
10
-180.33750000000001
20
70.200000000000003
10
-180.33750000000001
20
82.200000000000003
10
-179.33750000000001
20
83.200000000000003
10
-166.73750000000001
20
83.200000000000003
10
-165.73750000000001
20
82.200000000000003
0
LWPOLYLINE
5
134
100
AcDbEntity
8
0
100
AcDbPolyline
90
8
70
1
43
0.0
10
-146.6875
20
70.200000000000003
10
-147.6875
20
69.200000000000003
10
-160.28749999999999
20
69.200000000000003
10
-161.28749999999999
20
70.200000000000003
10
-161.28749999999999
20
82.200000000000003
10
-160.28749999999999
20
83.200000000000003
10
-147.6875
20
83.200000000000003
10
-146.6875
20
82.200000000000003
0
LWPOLYLINE
5
135
100
AcDbEntity
8
0
100
AcDbPolyline
90
8
70
1
43
0.0
10
-237.17500000000001
20
51.150000000000006
10
-238.17500000000001
20
50.150000000000006
10
-250.77500000000001
20
50.150000000000006
10
-251.77500000000003
20
51.150000000000006
10
-251.77500000000003
20
63.150000000000006
10
-250.77500000000001
20
64.150000000000006
10
-238.17500000000001
20
64.150000000000006
10
-237.17500000000001
20
63.150000000000006
0
LWPOLYLINE
5
136
100
AcDbEntity
8
0
100
AcDbPolyline
90
34
70
1
43
0.0
10
-234.63528800000003
20
56.043900999999998
10
-234.84389100000001
20
56.004906000000005
10
-235.05610899999999
20
56.004906000000005
10
-235.26471200000003
20
56.043900999999998
10
-235.46259900000001
20
56.120562000000007
10
-235.64303000000001
20
56.23228000000001
10
-235.79986000000002
20
56.375250000000001
10
-235.92775000000003
20
56.544603000000002
10
-236.02234300000003
20
56.734572000000007
10
-236.08041900000003
20
56.938688000000006
10
-236.09999999999999
20
57.149999999999999
10
-236.08041900000003
20
57.361311999999998
10
-236.02234300000003
20
57.565427999999997
10
-235.92775000000003
20
57.755397000000002
10
-235.79986000000002
20
57.924750000000003
10
-235.64303000000001
20
58.067720000000008
10
-235.46259900000001
20
58.179438000000005
10
-235.26471200000003
20
58.256098999999999
10
-235.05610899999999
20
58.295093999999999
10
-234.84389100000001
20
58.295093999999999
10
-234.63528800000003
20
58.256098999999999
10
-234.43740099999999
20
58.179438000000005
10
-234.25697
20
58.067720000000008
10
-234.10014000000004
20
57.924750000000003
10
-233.97225000000003
20
57.755397000000002
10
-233.87765700000003
20
57.565427999999997
10
-233.81958100000003
20
57.361311999999998
10
-233.80000000000001
20
57.149999999999999
10
-233.81958100000003
20
56.938688000000006
10
-233.87765700000003
20
56.734572000000007
10
-233.97225000000003
20
56.544603000000002
10
-234.10014000000004
20
56.375250000000001
10
-234.25697
20
56.23228000000001
10
-234.43740099999999
20
56.120562000000007
0
LWPOLYLINE
5
137
100
AcDbEntity
8
0
100
AcDbPolyline
90
34
70
1
43
0.0
10
-234.63528800000003
20
49.468899999999998
10
-234.84389100000001
20
49.429905000000005
10
-235.05610899999999
20
49.429905000000005
10
-235.26471200000003
20
49.468899999999998
10
-235.46259900000001
20
49.545561000000006
10
-235.64303000000001
20
49.65727900000001
10
-235.79986000000002
20
49.800249000000001
10
-235.92775000000003
20
49.969602000000002
10
-236.02234300000003
20
50.159571000000007
10
-236.08041900000003
20
50.363687000000006
10
-236.09999999999999
20
50.574998999999998
10
-236.08041900000003
20
50.786310999999998
10
-236.02234300000003
20
50.990426999999997
10
-235.92775000000003
20
51.180396000000002
10
-235.79986000000002
20
51.349749000000003
10
-235.64303000000001
20
51.492719000000008
10
-235.46259900000001
20
51.604437000000004
10
-235.26471200000003
20
51.681097999999999
10
-235.05610899999999
20
51.720092999999999
10
-234.84389100000001
20
51.720092999999999
10
-234.63528800000003
20
51.681097999999999
10
-234.43740099999999
20
51.604437000000004
10
-234.25697
20
51.492719000000008
10
-234.10014000000004
20
51.349749000000003
10
-233.97225000000003
20
51.180396000000002
10
-233.87765700000003
20
50.990426999999997
10
-233.81958100000003
20
50.786310999999998
10
-233.80000000000001
20
50.574998999999998
10
-233.81958100000003
20
50.363687000000006
10
-233.87765700000003
20
50.159571000000007
10
-233.97225000000003
20
49.969602000000002
10
-234.10014000000004
20
49.800249000000001
10
-234.25697
20
49.65727900000001
10
-234.43740099999999
20
49.545561000000006
0
LWPOLYLINE
5
138
100
AcDbEntity
8
0
100
AcDbPolyline
90
8
70
1
43
0.0
10
-218.125
20
51.150000000000006
10
-219.125
20
50.150000000000006
10
-231.72499999999999
20
50.150000000000006
10
-232.72500000000002
20
51.150000000000006
10
-232.72500000000002
20
63.150000000000006
10
-231.72499999999999
20
64.150000000000006
10
-219.125
20
64.150000000000006
10
-218.125
20
63.150000000000006
0
LWPOLYLINE
5
139
100
AcDbEntity
8
0
100
AcDbPolyline
90
8
70
1
43
0.0
10
-199.07499999999999
20
51.150000000000006
10
-200.07499999999999
20
50.150000000000006
10
-212.67500000000001
20
50.150000000000006
10
-213.67500000000004
20
51.150000000000006
10
-213.67500000000004
20
63.150000000000006
10
-212.67500000000001
20
64.150000000000006
10
-200.07499999999999
20
64.150000000000006
10
-199.07499999999999
20
63.150000000000006
0
LWPOLYLINE
5
140
100
AcDbEntity
8
0
100
AcDbPolyline
90
8
70
1
43
0.0
10
-180.02500000000001
20
51.150000000000006
10
-181.02500000000003
20
50.150000000000006
10
-193.625
20
50.150000000000006
10
-194.62500000000003
20
51.150000000000006
10
-194.62500000000003
20
63.150000000000006
10
-193.625
20
64.150000000000006
10
-181.02500000000003
20
64.150000000000006
10
-180.02500000000001
20
63.150000000000006
0
LWPOLYLINE
5
141
100
AcDbEntity
8
0
100
AcDbPolyline
90
34
70
1
43
0.0
10
-177.485288
20
56.043900999999998
10
-177.69389100000001
20
56.004906000000005
10
-177.90610900000001
20
56.004906000000005
10
-178.114712
20
56.043900999999998
10
-178.31259900000003
20
56.120562000000007
10
-178.49303000000003
20
56.23228000000001
10
-178.64985999999999
20
56.375250000000001
10
-178.77775
20
56.544603000000002
10
-178.872343
20
56.734572000000007
10
-178.930419
20
56.938688000000006
10
-178.94999999999999
20
57.149999999999999
10
-178.930419
20
57.361311999999998
10
-178.872343
20
57.565427999999997
10
-178.77775
20
57.755397000000002
10
-178.64985999999999
20
57.924750000000003
10
-178.49303000000003
20
58.067720000000008
10
-178.31259900000003
20
58.179438000000005
10
-178.114712
20
58.256098999999999
10
-177.90610900000001
20
58.295093999999999
10
-177.69389100000001
20
58.295093999999999
10
-177.485288
20
58.256098999999999
10
-177.28740099999999
20
58.179438000000005
10
-177.10696999999999
20
58.067720000000008
10
-176.95014
20
57.924750000000003
10
-176.82225
20
57.755397000000002
10
-176.72765699999999
20
57.565427999999997
10
-176.66958099999999
20
57.361311999999998
10
-176.65000000000003
20
57.149999999999999
10
-176.66958099999999
20
56.938688000000006
10
-176.72765699999999
20
56.734572000000007
10
-176.82225
20
56.544603000000002
10
-176.95014
20
56.375250000000001
10
-177.10696999999999
20
56.23228000000001
10
-177.28740099999999
20
56.120562000000007
0
LWPOLYLINE
5
142
100
AcDbEntity
8
0
100
AcDbPolyline
90
8
70
1
43
0.0
10
-160.97499999999999
20
51.150000000000006
10
-161.97500000000002
20
50.150000000000006
10
-174.57499999999999
20
50.150000000000006
10
-175.57500000000002
20
51.150000000000006
10
-175.57500000000002
20
63.150000000000006
10
-174.57499999999999
20
64.150000000000006
10
-161.97500000000002
20
64.150000000000006
10
-160.97499999999999
20
63.150000000000006
0
LWPOLYLINE
5
143
100
AcDbEntity
8
0
100
AcDbPolyline
90
8
70
1
43
0.0
10
-127.63750000000002
20
70.200000000000003
10
-128.63749999999999
20
69.200000000000003
10
-141.23750000000001
20
69.200000000000003
10
-142.23750000000001
20
70.200000000000003
10
-142.23750000000001
20
82.200000000000003
10
-141.23750000000001
20
83.200000000000003
10
-128.63749999999999
20
83.200000000000003
10
-127.63750000000002
20
82.200000000000003
0
LWPOLYLINE
5
144
100
AcDbEntity
8
0
100
AcDbPolyline
90
34
70
1
43
0.0
10
-125.09778799999999
20
75.093901000000017
10
-125.30639100000002
20
75.054906000000003
10
-125.51860900000001
20
75.054906000000003
10
-125.72721200000001
20
75.093901000000017
10
-125.92509900000002
20
75.170562000000004
10
-126.10553000000002
20
75.28228
10
-126.26236
20
75.425250000000005
10
-126.39025000000001
20
75.594603000000006
10
-126.484843
20
75.784571999999997
10
-126.54291900000001
20
75.988687999999996
10
-126.5625
20
76.200000000000017
10
-126.54291900000001
20
76.411312000000009
10
-126.484843
20
76.615427999999994
10
-126.39025000000001
20
76.805396999999999
10
-126.26236
20
76.97475
10
-126.10553000000002
20
77.117720000000006
10
-125.92509900000002
20
77.229438000000002
10
-125.72721200000001
20
77.306099000000017
10
-125.51860900000001
20
77.345094000000003
10
-125.30639100000002
20
77.345094000000003
10
-125.09778799999999
20
77.306099000000017
10
-124.899901
20
77.229438000000002
10
-124.71947
20
77.117720000000006
10
-124.56264000000002
20
76.97475
10
-124.43474999999999
20
76.805396999999999
10
-124.34015700000002
20
76.615427999999994
10
-124.28208100000001
20
76.411312000000009
10
-124.26250000000002
20
76.200000000000017
10
-124.28208100000001
20
75.988687999999996
10
-124.34015700000002
20
75.784571999999997
10
-124.43474999999999
20
75.594603000000006
10
-124.56264000000002
20
75.425250000000005
10
-124.71947
20
75.28228
10
-124.899901
20
75.170562000000004
0
LWPOLYLINE
5
145
100
AcDbEntity
8
0
100
AcDbPolyline
90
8
70
1
43
0.0
10
-108.58750000000001
20
70.200000000000003
10
-109.58750000000002
20
69.200000000000003
10
-122.1875
20
69.200000000000003
10
-123.18750000000001
20
70.200000000000003
10
-123.18750000000001
20
82.200000000000003
10
-122.1875
20
83.200000000000003
10
-109.58750000000002
20
83.200000000000003
10
-108.58750000000001
20
82.200000000000003
0
LWPOLYLINE
5
146
100
AcDbEntity
8
0
100
AcDbPolyline
90
8
70
1
43
0.0
10
-89.537499999999994
20
70.200000000000003
10
-90.537499999999994
20
69.200000000000003
10
-103.1375
20
69.200000000000003
10
-104.1375
20
70.200000000000003
10
-104.1375
20
82.200000000000003
10
-103.1375
20
83.200000000000003
10
-90.537499999999994
20
83.200000000000003
10
-89.537499999999994
20
82.200000000000003
0
LWPOLYLINE
5
147
100
AcDbEntity
8
0
100
AcDbPolyline
90
34
70
1
43
0.0
10
-86.997788000000014
20
75.093901000000017
10
-87.206390999999996
20
75.054906000000003
10
-87.418609000000004
20
75.054906000000003
10
-87.627212
20
75.093901000000017
10
-87.825098999999994
20
75.170562000000004
10
-88.005529999999993
20
75.28228
10
-88.162360000000021
20
75.425250000000005
10
-88.29025
20
75.594603000000006
10
-88.384843000000018
20
75.784571999999997
10
-88.442919000000003
20
75.988687999999996
10
-88.462500000000006
20
76.200000000000017
10
-88.442919000000003
20
76.411312000000009
10
-88.384843000000018
20
76.615427999999994
10
-88.29025
20
76.805396999999999
10
-88.162360000000021
20
76.97475
10
-88.005529999999993
20
77.117720000000006
10
-87.825098999999994
20
77.229438000000002
10
-87.627212
20
77.306099000000017
10
-87.418609000000004
20
77.345094000000003
10
-87.206390999999996
20
77.345094000000003
10
-86.997788000000014
20
77.306099000000017
10
-86.799901000000006
20
77.229438000000002
10
-86.619470000000007
20
77.117720000000006
10
-86.462640000000007
20
76.97475
10
-86.334750000000014
20
76.805396999999999
10
-86.240156999999996
20
76.615427999999994
10
-86.182081000000011
20
76.411312000000009
10
-86.162499999999994
20
76.200000000000017
10
-86.182081000000011
20
75.988687999999996
10
-86.240156999999996
20
75.784571999999997
10
-86.334750000000014
20
75.594603000000006
10
-86.462640000000007
20
75.425250000000005
10
-86.619470000000007
20
75.28228
10
-86.799901000000006
20
75.170562000000004
0
LWPOLYLINE
5
148
100
AcDbEntity
8
0
100
AcDbPolyline
90
8
70
1
43
0.0
10
-70.487499999999997
20
70.200000000000003
10
-71.487499999999997
20
69.200000000000003
10
-84.087500000000006
20
69.200000000000003
10
-85.087500000000006
20
70.200000000000003
10
-85.087500000000006
20
82.200000000000003
10
-84.087500000000006
20
83.200000000000003
10
-71.487499999999997
20
83.200000000000003
10
-70.487499999999997
20
82.200000000000003
0
LWPOLYLINE
5
149
100
AcDbEntity
8
0
100
AcDbPolyline
90
8
70
1
43
0.0
10
-49.058
20
70.200000000000003
10
-50.058000000000007
20
69.200000000000003
10
-62.658000000000001
20
69.200000000000003
10
-63.658000000000001
20
70.200000000000003
10
-63.658000000000001
20
82.200000000000003
10
-62.658000000000001
20
83.200000000000003
10
-50.058000000000007
20
83.200000000000003
10
-49.058
20
82.200000000000003
0
LWPOLYLINE
5
150
100
AcDbEntity
8
0
100
AcDbPolyline
90
8
70
1
43
0.0
10
-141.92500000000001
20
51.150000000000006
10
-142.92500000000001
20
50.150000000000006
10
-155.52500000000003
20
50.150000000000006
10
-156.52500000000001
20
51.150000000000006
10
-156.52500000000001
20
63.150000000000006
10
-155.52500000000003
20
64.150000000000006
10
-142.92500000000001
20
64.150000000000006
10
-141.92500000000001
20
63.150000000000006
0
LWPOLYLINE
5
151
100
AcDbEntity
8
0
100
AcDbPolyline
90
8
70
1
43
0.0
10
-122.87500000000001
20
51.150000000000006
10
-123.87500000000001
20
50.150000000000006
10
-136.47500000000002
20
50.150000000000006
10
-137.47499999999999
20
51.150000000000006
10
-137.47499999999999
20
63.150000000000006
10
-136.47500000000002
20
64.150000000000006
10
-123.87500000000001
20
64.150000000000006
10
-122.87500000000001
20
63.150000000000006
0
LWPOLYLINE
5
152
100
AcDbEntity
8
0
100
AcDbPolyline
90
34
70
1
43
0.0
10
-120.33528800000001
20
56.043900999999998
10
-120.54389100000002
20
56.004906000000005
10
-120.75610900000001
20
56.004906000000005
10
-120.96471200000002
20
56.043900999999998
10
-121.16259900000001
20
56.120562000000007
10
-121.34303000000001
20
56.23228000000001
10
-121.49986
20
56.375250000000001
10
-121.62775000000002
20
56.544603000000002
10
-121.722343
20
56.734572000000007
10
-121.78041899999999
20
56.938688000000006
10
-121.8
20
57.149999999999999
10
-121.78041899999999
20
57.361311999999998
10
-121.722343
20
57.565427999999997
10
-121.62775000000002
20
57.755397000000002
10
-121.49986
20
57.924750000000003
10
-121.34303000000001
20
58.067720000000008
10
-121.16259900000001
20
58.179438000000005
10
-120.96471200000002
20
58.256098999999999
10
-120.75610900000001
20
58.295093999999999
10
-120.54389100000002
20
58.295093999999999
10
-120.33528800000001
20
58.256098999999999
10
-120.137401
20
58.179438000000005
10
-119.95697
20
58.067720000000008
10
-119.80014
20
57.924750000000003
10
-119.67225000000001
20
57.755397000000002
10
-119.57765700000002
20
57.565427999999997
10
-119.519581
20
57.361311999999998
10
-119.50000000000001
20
57.149999999999999
10
-119.519581
20
56.938688000000006
10
-119.57765700000002
20
56.734572000000007
10
-119.67225000000001
20
56.544603000000002
10
-119.80014
20
56.375250000000001
10
-119.95697
20
56.23228000000001
10
-120.137401
20
56.120562000000007
0
LWPOLYLINE
5
153
100
AcDbEntity
8
0
100
AcDbPolyline
90
8
70
1
43
0.0
10
-103.825
20
51.150000000000006
10
-104.82500000000002
20
50.150000000000006
10
-117.425
20
50.150000000000006
10
-118.42500000000001
20
51.150000000000006
10
-118.42500000000001
20
63.150000000000006
10
-117.425
20
64.150000000000006
10
-104.82500000000002
20
64.150000000000006
10
-103.825
20
63.150000000000006
0
LWPOLYLINE
5
154
100
AcDbEntity
8
0
100
AcDbPolyline
90
8
70
1
43
0.0
10
-84.775000000000006
20
51.150000000000006
10
-85.775000000000006
20
50.150000000000006
10
-98.375
20
50.150000000000006
10
-99.375
20
51.150000000000006
10
-99.375
20
63.150000000000006
10
-98.375
20
64.150000000000006
10
-85.775000000000006
20
64.150000000000006
10
-84.775000000000006
20
63.150000000000006
0
LWPOLYLINE
5
155
100
AcDbEntity
8
0
100
AcDbPolyline
90
8
70
1
43
0.0
10
-65.724999999999994
20
51.150000000000006
10
-66.724999999999994
20
50.150000000000006
10
-79.325000000000017
20
50.150000000000006
10
-80.325000000000003
20
51.150000000000006
10
-80.325000000000003
20
63.150000000000006
10
-79.325000000000017
20
64.150000000000006
10
-66.724999999999994
20
64.150000000000006
10
-65.724999999999994
20
63.150000000000006
0
LWPOLYLINE
5
156
100
AcDbEntity
8
0
100
AcDbPolyline
90
34
70
1
43
0.0
10
-63.185288
20
56.043900999999998
10
-63.393891000000011
20
56.004906000000005
10
-63.606109000000004
20
56.004906000000005
10
-63.814712
20
56.043900999999998
10
-64.012598999999994
20
56.120562000000007
10
-64.193029999999993
20
56.23228000000001
10
-64.349860000000007
20
56.375250000000001
10
-64.47775
20
56.544603000000002
10
-64.572343000000004
20
56.734572000000007
10
-64.630419000000003
20
56.938688000000006
10
-64.650000000000006
20
57.149999999999999
10
-64.630419000000003
20
57.361311999999998
10
-64.572343000000004
20
57.565427999999997
10
-64.47775
20
57.755397000000002
10
-64.349860000000007
20
57.924750000000003
10
-64.193029999999993
20
58.067720000000008
10
-64.012598999999994
20
58.179438000000005
10
-63.814712
20
58.256098999999999
10
-63.606109000000004
20
58.295093999999999
10
-63.393891000000011
20
58.295093999999999
10
-63.185288
20
58.256098999999999
10
-62.987400999999998
20
58.179438000000005
10
-62.80697
20
58.067720000000008
10
-62.650140000000007
20
57.924750000000003
10
-62.52225
20
57.755397000000002
10
-62.427657000000004
20
57.565427999999997
10
-62.369580999999997
20
57.361311999999998
10
-62.350000000000001
20
57.149999999999999
10
-62.369580999999997
20
56.938688000000006
10
-62.427657000000004
20
56.734572000000007
10
-62.52225
20
56.544603000000002
10
-62.650140000000007
20
56.375250000000001
10
-62.80697
20
56.23228000000001
10
-62.987400999999998
20
56.120562000000007
0
LWPOLYLINE
5
157
100
AcDbEntity
8
0
100
AcDbPolyline
90
8
70
1
43
0.0
10
-46.674999999999997
20
51.150000000000006
10
-47.674999999999997
20
50.150000000000006
10
-60.274999999999999
20
50.150000000000006
10
-61.275000000000006
20
51.150000000000006
10
-61.275000000000006
20
63.150000000000006
10
-60.274999999999999
20
64.150000000000006
10
-47.674999999999997
20
64.150000000000006
10
-46.674999999999997
20
63.150000000000006
0
LWPOLYLINE
5
158
100
AcDbEntity
8
0
100
AcDbPolyline
90
34
70
1
43
0.0
10
-63.185288
20
49.468899999999998
10
-63.393891000000011
20
49.429905000000005
10
-63.606109000000004
20
49.429905000000005
10
-63.814712
20
49.468899999999998
10
-64.012598999999994
20
49.545561000000006
10
-64.193029999999993
20
49.65727900000001
10
-64.349860000000007
20
49.800249000000001
10
-64.47775
20
49.969602000000002
10
-64.572343000000004
20
50.159571000000007
10
-64.630419000000003
20
50.363687000000006
10
-64.650000000000006
20
50.574998999999998
10
-64.630419000000003
20
50.786310999999998
10
-64.572343000000004
20
50.990426999999997
10
-64.47775
20
51.180396000000002
10
-64.349860000000007
20
51.349749000000003
10
-64.193029999999993
20
51.492719000000008
10
-64.012598999999994
20
51.604437000000004
10
-63.814712
20
51.681097999999999
10
-63.606109000000004
20
51.720092999999999
10
-63.393891000000011
20
51.720092999999999
10
-63.185288
20
51.681097999999999
10
-62.987400999999998
20
51.604437000000004
10
-62.80697
20
51.492719000000008
10
-62.650140000000007
20
51.349749000000003
10
-62.52225
20
51.180396000000002
10
-62.427657000000004
20
50.990426999999997
10
-62.369580999999997
20
50.786310999999998
10
-62.350000000000001
20
50.574998999999998
10
-62.369580999999997
20
50.363687000000006
10
-62.427657000000004
20
50.159571000000007
10
-62.52225
20
49.969602000000002
10
-62.650140000000007
20
49.800249000000001
10
-62.80697
20
49.65727900000001
10
-62.987400999999998
20
49.545561000000006
0
ENDSEC
0
SECTION
2
OBJECTS
0
DICTIONARY
5
C
100
AcDbDictionary
3
ACAD_GROUP
350
D
3
ACAD_MLINESTYLE
350
17
0
DICTIONARY
5
D
100
AcDbDictionary
0
DICTIONARY
5
1A
330
C
100
AcDbDictionary
0
DICTIONARY
5
17
100
AcDbDictionary
0
ENDSEC
0
EOF
