%TF.GenerationSoftware,KiCad,Pcbnew,8.0.9*%
%TF.CreationDate,2026-02-07T17:36:35+01:00*%
%TF.ProjectId,travaulta plate dyna fr4,74726176-6175-46c7-9461-20706c617465,rev?*%
%TF.SameCoordinates,Original*%
%TF.FileFunction,Legend,Bot*%
%TF.FilePolarity,Positive*%
%FSLAX46Y46*%
G04 Gerber Fmt 4.6, Leading zero omitted, Abs format (unit mm)*
G04 Created by KiCad (PCBNEW 8.0.9) date 2026-02-07 17:36:35*
%MOMM*%
%LPD*%
G01*
G04 APERTURE LIST*
%ADD10C,0.150000*%
G04 APERTURE END LIST*
D10*
X249782680Y-71580951D02*
X249068395Y-71580951D01*
X249068395Y-71580951D02*
X248925538Y-71533332D01*
X248925538Y-71533332D02*
X248830300Y-71438094D01*
X248830300Y-71438094D02*
X248782680Y-71295237D01*
X248782680Y-71295237D02*
X248782680Y-71199999D01*
X248782680Y-72533332D02*
X248782680Y-72057142D01*
X248782680Y-72057142D02*
X249782680Y-72057142D01*
X248877919Y-73438094D02*
X248830300Y-73390475D01*
X248830300Y-73390475D02*
X248782680Y-73247618D01*
X248782680Y-73247618D02*
X248782680Y-73152380D01*
X248782680Y-73152380D02*
X248830300Y-73009523D01*
X248830300Y-73009523D02*
X248925538Y-72914285D01*
X248925538Y-72914285D02*
X249020776Y-72866666D01*
X249020776Y-72866666D02*
X249211252Y-72819047D01*
X249211252Y-72819047D02*
X249354109Y-72819047D01*
X249354109Y-72819047D02*
X249544585Y-72866666D01*
X249544585Y-72866666D02*
X249639823Y-72914285D01*
X249639823Y-72914285D02*
X249735061Y-73009523D01*
X249735061Y-73009523D02*
X249782680Y-73152380D01*
X249782680Y-73152380D02*
X249782680Y-73247618D01*
X249782680Y-73247618D02*
X249735061Y-73390475D01*
X249735061Y-73390475D02*
X249687442Y-73438094D01*
X249782680Y-74152380D02*
X249068395Y-74152380D01*
X249068395Y-74152380D02*
X248925538Y-74104761D01*
X248925538Y-74104761D02*
X248830300Y-74009523D01*
X248830300Y-74009523D02*
X248782680Y-73866666D01*
X248782680Y-73866666D02*
X248782680Y-73771428D01*
X248782680Y-75104761D02*
X248782680Y-74628571D01*
X248782680Y-74628571D02*
X249782680Y-74628571D01*
X248877919Y-76009523D02*
X248830300Y-75961904D01*
X248830300Y-75961904D02*
X248782680Y-75819047D01*
X248782680Y-75819047D02*
X248782680Y-75723809D01*
X248782680Y-75723809D02*
X248830300Y-75580952D01*
X248830300Y-75580952D02*
X248925538Y-75485714D01*
X248925538Y-75485714D02*
X249020776Y-75438095D01*
X249020776Y-75438095D02*
X249211252Y-75390476D01*
X249211252Y-75390476D02*
X249354109Y-75390476D01*
X249354109Y-75390476D02*
X249544585Y-75438095D01*
X249544585Y-75438095D02*
X249639823Y-75485714D01*
X249639823Y-75485714D02*
X249735061Y-75580952D01*
X249735061Y-75580952D02*
X249782680Y-75723809D01*
X249782680Y-75723809D02*
X249782680Y-75819047D01*
X249782680Y-75819047D02*
X249735061Y-75961904D01*
X249735061Y-75961904D02*
X249687442Y-76009523D01*
X249782680Y-76723809D02*
X249068395Y-76723809D01*
X249068395Y-76723809D02*
X248925538Y-76676190D01*
X248925538Y-76676190D02*
X248830300Y-76580952D01*
X248830300Y-76580952D02*
X248782680Y-76438095D01*
X248782680Y-76438095D02*
X248782680Y-76342857D01*
X248782680Y-77676190D02*
X248782680Y-77200000D01*
X248782680Y-77200000D02*
X249782680Y-77200000D01*
X248877919Y-78580952D02*
X248830300Y-78533333D01*
X248830300Y-78533333D02*
X248782680Y-78390476D01*
X248782680Y-78390476D02*
X248782680Y-78295238D01*
X248782680Y-78295238D02*
X248830300Y-78152381D01*
X248830300Y-78152381D02*
X248925538Y-78057143D01*
X248925538Y-78057143D02*
X249020776Y-78009524D01*
X249020776Y-78009524D02*
X249211252Y-77961905D01*
X249211252Y-77961905D02*
X249354109Y-77961905D01*
X249354109Y-77961905D02*
X249544585Y-78009524D01*
X249544585Y-78009524D02*
X249639823Y-78057143D01*
X249639823Y-78057143D02*
X249735061Y-78152381D01*
X249735061Y-78152381D02*
X249782680Y-78295238D01*
X249782680Y-78295238D02*
X249782680Y-78390476D01*
X249782680Y-78390476D02*
X249735061Y-78533333D01*
X249735061Y-78533333D02*
X249687442Y-78580952D01*
X249782680Y-79295238D02*
X249068395Y-79295238D01*
X249068395Y-79295238D02*
X248925538Y-79247619D01*
X248925538Y-79247619D02*
X248830300Y-79152381D01*
X248830300Y-79152381D02*
X248782680Y-79009524D01*
X248782680Y-79009524D02*
X248782680Y-78914286D01*
X248782680Y-80247619D02*
X248782680Y-79771429D01*
X248782680Y-79771429D02*
X249782680Y-79771429D01*
X248877919Y-81152381D02*
X248830300Y-81104762D01*
X248830300Y-81104762D02*
X248782680Y-80961905D01*
X248782680Y-80961905D02*
X248782680Y-80866667D01*
X248782680Y-80866667D02*
X248830300Y-80723810D01*
X248830300Y-80723810D02*
X248925538Y-80628572D01*
X248925538Y-80628572D02*
X249020776Y-80580953D01*
X249020776Y-80580953D02*
X249211252Y-80533334D01*
X249211252Y-80533334D02*
X249354109Y-80533334D01*
X249354109Y-80533334D02*
X249544585Y-80580953D01*
X249544585Y-80580953D02*
X249639823Y-80628572D01*
X249639823Y-80628572D02*
X249735061Y-80723810D01*
X249735061Y-80723810D02*
X249782680Y-80866667D01*
X249782680Y-80866667D02*
X249782680Y-80961905D01*
X249782680Y-80961905D02*
X249735061Y-81104762D01*
X249735061Y-81104762D02*
X249687442Y-81152381D01*
M02*
