%TF.GenerationSoftware,KiCad,Pcbnew,8.0.9*%
%TF.CreationDate,2026-02-07T17:36:23+01:00*%
%TF.ProjectId,travaulta plate topre fr4,74726176-6175-46c7-9461-20706c617465,rev?*%
%TF.SameCoordinates,Original*%
%TF.FileFunction,Profile,NP*%
%FSLAX46Y46*%
G04 Gerber Fmt 4.6, Leading zero omitted, Abs format (unit mm)*
G04 Created by KiCad (PCBNEW 8.0.9) date 2026-02-07 17:36:23*
%MOMM*%
%LPD*%
G01*
G04 APERTURE LIST*
%TA.AperFunction,Profile*%
%ADD10C,0.200000*%
%TD*%
%TA.AperFunction,Profile*%
%ADD11C,0.100000*%
%TD*%
%TA.AperFunction,Profile*%
%ADD12C,0.050000*%
%TD*%
%TA.AperFunction,Profile*%
%ADD13C,0.120000*%
%TD*%
G04 APERTURE END LIST*
D10*
X176568750Y-114300000D02*
G75*
G02*
X174268750Y-114300000I-1150000J0D01*
G01*
X174268750Y-114300000D02*
G75*
G02*
X176568750Y-114300000I1150000J0D01*
G01*
D11*
X179168161Y-111215427D02*
X182763392Y-111215427D01*
X182763392Y-117358174D01*
X179168161Y-117358174D01*
X179168161Y-111215427D01*
D10*
X72450000Y-121724999D02*
X72450000Y-106974999D01*
X155137500Y-95250000D02*
G75*
G02*
X152837500Y-95250000I-1150000J0D01*
G01*
X152837500Y-95250000D02*
G75*
G02*
X155137500Y-95250000I1150000J0D01*
G01*
X93225000Y-114300000D02*
G75*
G02*
X90925000Y-114300000I-1150000J0D01*
G01*
X90925000Y-114300000D02*
G75*
G02*
X93225000Y-114300000I1150000J0D01*
G01*
X252884375Y-102933999D02*
G75*
G02*
X250584375Y-102933999I-1150000J0D01*
G01*
X250584375Y-102933999D02*
G75*
G02*
X252884375Y-102933999I1150000J0D01*
G01*
D12*
X61087000Y-50927000D02*
X61087000Y-50927000D01*
D10*
X71793750Y-95250000D02*
G75*
G02*
X69493750Y-95250000I-1150000J0D01*
G01*
X69493750Y-95250000D02*
G75*
G02*
X71793750Y-95250000I1150000J0D01*
G01*
X233718750Y-95250000D02*
G75*
G02*
X231418750Y-95250000I-1150000J0D01*
G01*
X231418750Y-95250000D02*
G75*
G02*
X233718750Y-95250000I1150000J0D01*
G01*
X47866000Y-102933999D02*
G75*
G02*
X45566000Y-102933999I-1150000J0D01*
G01*
X45566000Y-102933999D02*
G75*
G02*
X47866000Y-102933999I1150000J0D01*
G01*
X254575000Y-102674999D02*
G75*
G02*
X251475000Y-105775000I-3100000J-1D01*
G01*
X236100000Y-57150000D02*
G75*
G02*
X233800000Y-57150000I-1150000J0D01*
G01*
X233800000Y-57150000D02*
G75*
G02*
X236100000Y-57150000I1150000J0D01*
G01*
X124181250Y-114300000D02*
G75*
G02*
X121881250Y-114300000I-1150000J0D01*
G01*
X121881250Y-114300000D02*
G75*
G02*
X124181250Y-114300000I1150000J0D01*
G01*
X121800000Y-57150000D02*
G75*
G02*
X119500000Y-57150000I-1150000J0D01*
G01*
X119500000Y-57150000D02*
G75*
G02*
X121800000Y-57150000I1150000J0D01*
G01*
X71250000Y-105774999D02*
G75*
G02*
X72450001Y-106974999I0J-1200001D01*
G01*
X46975000Y-47474999D02*
X251475000Y-47474999D01*
X207525000Y-114300000D02*
G75*
G02*
X205225000Y-114300000I-1150000J0D01*
G01*
X205225000Y-114300000D02*
G75*
G02*
X207525000Y-114300000I1150000J0D01*
G01*
X226000000Y-106974999D02*
X226000000Y-121724999D01*
X222900000Y-124824999D02*
X75550000Y-124824999D01*
X64650000Y-50574999D02*
G75*
G02*
X62350000Y-50574999I-1150000J0D01*
G01*
X62350000Y-50574999D02*
G75*
G02*
X64650000Y-50574999I1150000J0D01*
G01*
X178950000Y-57150000D02*
G75*
G02*
X176650000Y-57150000I-1150000J0D01*
G01*
X176650000Y-57150000D02*
G75*
G02*
X178950000Y-57150000I1150000J0D01*
G01*
X236100000Y-50574999D02*
G75*
G02*
X233800000Y-50574999I-1150000J0D01*
G01*
X233800000Y-50574999D02*
G75*
G02*
X236100000Y-50574999I1150000J0D01*
G01*
X64650000Y-57150000D02*
G75*
G02*
X62350000Y-57150000I-1150000J0D01*
G01*
X62350000Y-57150000D02*
G75*
G02*
X64650000Y-57150000I1150000J0D01*
G01*
X46975000Y-105774999D02*
G75*
G02*
X43875001Y-102674999I0J3099999D01*
G01*
X117037500Y-95250000D02*
G75*
G02*
X114737500Y-95250000I-1150000J0D01*
G01*
X114737500Y-95250000D02*
G75*
G02*
X117037500Y-95250000I1150000J0D01*
G01*
X251475000Y-47474999D02*
G75*
G02*
X254575001Y-50574999I0J-3100001D01*
G01*
X226000000Y-106974999D02*
G75*
G02*
X227200000Y-105775000I1200000J-1D01*
G01*
X183712500Y-76200000D02*
G75*
G02*
X181412500Y-76200000I-1150000J0D01*
G01*
X181412500Y-76200000D02*
G75*
G02*
X183712500Y-76200000I1150000J0D01*
G01*
X226000000Y-121724999D02*
G75*
G02*
X222900000Y-124825000I-3100000J-1D01*
G01*
X221812500Y-76200000D02*
G75*
G02*
X219512500Y-76200000I-1150000J0D01*
G01*
X219512500Y-76200000D02*
G75*
G02*
X221812500Y-76200000I1150000J0D01*
G01*
X126562500Y-76200000D02*
G75*
G02*
X124262500Y-76200000I-1150000J0D01*
G01*
X124262500Y-76200000D02*
G75*
G02*
X126562500Y-76200000I1150000J0D01*
G01*
X254575000Y-50574999D02*
X254575000Y-102674999D01*
X88462500Y-76200000D02*
G75*
G02*
X86162500Y-76200000I-1150000J0D01*
G01*
X86162500Y-76200000D02*
G75*
G02*
X88462500Y-76200000I1150000J0D01*
G01*
X193237500Y-95250000D02*
G75*
G02*
X190937500Y-95250000I-1150000J0D01*
G01*
X190937500Y-95250000D02*
G75*
G02*
X193237500Y-95250000I1150000J0D01*
G01*
X43875000Y-50574999D02*
G75*
G02*
X46975000Y-47475000I3100000J-1D01*
G01*
X71250000Y-105774999D02*
X46975000Y-105774999D01*
X251475000Y-105774999D02*
X227200000Y-105774999D01*
X75550000Y-124824999D02*
G75*
G02*
X72450001Y-121724999I0J3099999D01*
G01*
X43875000Y-102674999D02*
X43875000Y-50574999D01*
D13*
%TO.C,REF\u002A\u002A*%
X208600000Y-108300000D02*
X208600000Y-120300000D01*
X208600000Y-120300000D02*
X209600000Y-121300000D01*
X209600000Y-107300000D02*
X208600000Y-108300000D01*
X209600000Y-121300000D02*
X222200000Y-121300000D01*
X222200000Y-107300000D02*
X209600000Y-107300000D01*
X222200000Y-107300000D02*
X223200000Y-108300000D01*
X222200000Y-121300000D02*
X223200000Y-120300000D01*
X223200000Y-120300000D02*
X223200000Y-108300000D01*
X213362500Y-89250000D02*
X213362500Y-101250000D01*
X213362500Y-101250000D02*
X214362500Y-102250000D01*
X214362500Y-88250000D02*
X213362500Y-89250000D01*
X214362500Y-102250000D02*
X226962500Y-102250000D01*
X226962500Y-88250000D02*
X214362500Y-88250000D01*
X226962500Y-88250000D02*
X227962500Y-89250000D01*
X226962500Y-102250000D02*
X227962500Y-101250000D01*
X227962500Y-101250000D02*
X227962500Y-89250000D01*
X125255000Y-108300000D02*
X125255000Y-120300000D01*
X125255000Y-120300000D02*
X126255000Y-121300000D01*
X126255000Y-107300000D02*
X125255000Y-108300000D01*
X126255000Y-121300000D02*
X138855000Y-121300000D01*
X138855000Y-107300000D02*
X126255000Y-107300000D01*
X138855000Y-107300000D02*
X139855000Y-108300000D01*
X138855000Y-121300000D02*
X139855000Y-120300000D01*
X139855000Y-120300000D02*
X139855000Y-108300000D01*
X165737500Y-70200000D02*
X165737500Y-82200000D01*
X165737500Y-82200000D02*
X166737500Y-83200000D01*
X166737500Y-69200000D02*
X165737500Y-70200000D01*
X166737500Y-83200000D02*
X179337500Y-83200000D01*
X179337500Y-69200000D02*
X166737500Y-69200000D01*
X179337500Y-69200000D02*
X180337500Y-70200000D01*
X179337500Y-83200000D02*
X180337500Y-82200000D01*
X180337500Y-82200000D02*
X180337500Y-70200000D01*
X96680000Y-108300000D02*
X96680000Y-120300000D01*
X96680000Y-120300000D02*
X97680000Y-121300000D01*
X97680000Y-107300000D02*
X96680000Y-108300000D01*
X97680000Y-121300000D02*
X110280000Y-121300000D01*
X110280000Y-107300000D02*
X97680000Y-107300000D01*
X110280000Y-107300000D02*
X111280000Y-108300000D01*
X110280000Y-121300000D02*
X111280000Y-120300000D01*
X111280000Y-120300000D02*
X111280000Y-108300000D01*
X108587500Y-70200000D02*
X108587500Y-82200000D01*
X108587500Y-82200000D02*
X109587500Y-83200000D01*
X109587500Y-69200000D02*
X108587500Y-70200000D01*
X109587500Y-83200000D02*
X122187500Y-83200000D01*
X122187500Y-69200000D02*
X109587500Y-69200000D01*
X122187500Y-69200000D02*
X123187500Y-70200000D01*
X122187500Y-83200000D02*
X123187500Y-82200000D01*
X123187500Y-82200000D02*
X123187500Y-70200000D01*
X75250000Y-108300000D02*
X75250000Y-120300000D01*
X75250000Y-120300000D02*
X76250000Y-121300000D01*
X76250000Y-107300000D02*
X75250000Y-108300000D01*
X76250000Y-121300000D02*
X88850000Y-121300000D01*
X88850000Y-107300000D02*
X76250000Y-107300000D01*
X88850000Y-107300000D02*
X89850000Y-108300000D01*
X88850000Y-121300000D02*
X89850000Y-120300000D01*
X89850000Y-120300000D02*
X89850000Y-108300000D01*
X49058000Y-70200000D02*
X49058000Y-82200000D01*
X49058000Y-82200000D02*
X50058000Y-83200000D01*
X50058000Y-69200000D02*
X49058000Y-70200000D01*
X50058000Y-83200000D02*
X62658000Y-83200000D01*
X62658000Y-69200000D02*
X50058000Y-69200000D01*
X62658000Y-69200000D02*
X63658000Y-70200000D01*
X62658000Y-83200000D02*
X63658000Y-82200000D01*
X63658000Y-82200000D02*
X63658000Y-70200000D01*
X70487500Y-70200000D02*
X70487500Y-82200000D01*
X70487500Y-82200000D02*
X71487500Y-83200000D01*
X71487500Y-69200000D02*
X70487500Y-70200000D01*
X71487500Y-83200000D02*
X84087500Y-83200000D01*
X84087500Y-69200000D02*
X71487500Y-69200000D01*
X84087500Y-69200000D02*
X85087500Y-70200000D01*
X84087500Y-83200000D02*
X85087500Y-82200000D01*
X85087500Y-82200000D02*
X85087500Y-70200000D01*
X230030000Y-70200000D02*
X230030000Y-82200000D01*
X230030000Y-82200000D02*
X231030000Y-83200000D01*
X231030000Y-69200000D02*
X230030000Y-70200000D01*
X231030000Y-83200000D02*
X243630000Y-83200000D01*
X243630000Y-69200000D02*
X231030000Y-69200000D01*
X243630000Y-69200000D02*
X244630000Y-70200000D01*
X243630000Y-83200000D02*
X244630000Y-82200000D01*
X244630000Y-82200000D02*
X244630000Y-70200000D01*
X122875000Y-51150000D02*
X122875000Y-63150000D01*
X122875000Y-63150000D02*
X123875000Y-64150000D01*
X123875000Y-50150000D02*
X122875000Y-51150000D01*
X123875000Y-64150000D02*
X136475000Y-64150000D01*
X136475000Y-50150000D02*
X123875000Y-50150000D01*
X136475000Y-50150000D02*
X137475000Y-51150000D01*
X136475000Y-64150000D02*
X137475000Y-63150000D01*
X137475000Y-63150000D02*
X137475000Y-51150000D01*
X158592000Y-108300000D02*
X158592000Y-120300000D01*
X158592000Y-120300000D02*
X159592000Y-121300000D01*
X159592000Y-107300000D02*
X158592000Y-108300000D01*
X159592000Y-121300000D02*
X172192000Y-121300000D01*
X172192000Y-107300000D02*
X159592000Y-107300000D01*
X172192000Y-107300000D02*
X173192000Y-108300000D01*
X172192000Y-121300000D02*
X173192000Y-120300000D01*
X173192000Y-120300000D02*
X173192000Y-108300000D01*
X194312500Y-89250000D02*
X194312500Y-101250000D01*
X194312500Y-101250000D02*
X195312500Y-102250000D01*
X195312500Y-88250000D02*
X194312500Y-89250000D01*
X195312500Y-102250000D02*
X207912500Y-102250000D01*
X207912500Y-88250000D02*
X195312500Y-88250000D01*
X207912500Y-88250000D02*
X208912500Y-89250000D01*
X207912500Y-102250000D02*
X208912500Y-101250000D01*
X208912500Y-101250000D02*
X208912500Y-89250000D01*
X218125000Y-51150000D02*
X218125000Y-63150000D01*
X218125000Y-63150000D02*
X219125000Y-64150000D01*
X219125000Y-50150000D02*
X218125000Y-51150000D01*
X219125000Y-64150000D02*
X231725000Y-64150000D01*
X231725000Y-50150000D02*
X219125000Y-50150000D01*
X231725000Y-50150000D02*
X232725000Y-51150000D01*
X231725000Y-64150000D02*
X232725000Y-63150000D01*
X232725000Y-63150000D02*
X232725000Y-51150000D01*
X80012500Y-89250000D02*
X80012500Y-101250000D01*
X80012500Y-101250000D02*
X81012500Y-102250000D01*
X81012500Y-88250000D02*
X80012500Y-89250000D01*
X81012500Y-102250000D02*
X93612500Y-102250000D01*
X93612500Y-88250000D02*
X81012500Y-88250000D01*
X93612500Y-88250000D02*
X94612500Y-89250000D01*
X93612500Y-102250000D02*
X94612500Y-101250000D01*
X94612500Y-101250000D02*
X94612500Y-89250000D01*
X160975000Y-51150000D02*
X160975000Y-63150000D01*
X160975000Y-63150000D02*
X161975000Y-64150000D01*
X161975000Y-50150000D02*
X160975000Y-51150000D01*
X161975000Y-64150000D02*
X174575000Y-64150000D01*
X174575000Y-50150000D02*
X161975000Y-50150000D01*
X174575000Y-50150000D02*
X175575000Y-51150000D01*
X174575000Y-64150000D02*
X175575000Y-63150000D01*
X175575000Y-63150000D02*
X175575000Y-51150000D01*
X137162500Y-89250000D02*
X137162500Y-101250000D01*
X137162500Y-101250000D02*
X138162500Y-102250000D01*
X138162500Y-88250000D02*
X137162500Y-89250000D01*
X138162500Y-102250000D02*
X150762500Y-102250000D01*
X150762500Y-88250000D02*
X138162500Y-88250000D01*
X150762500Y-88250000D02*
X151762500Y-89250000D01*
X150762500Y-102250000D02*
X151762500Y-101250000D01*
X151762500Y-101250000D02*
X151762500Y-89250000D01*
X118112500Y-89250000D02*
X118112500Y-101250000D01*
X118112500Y-101250000D02*
X119112500Y-102250000D01*
X119112500Y-88250000D02*
X118112500Y-89250000D01*
X119112500Y-102250000D02*
X131712500Y-102250000D01*
X131712500Y-88250000D02*
X119112500Y-88250000D01*
X131712500Y-88250000D02*
X132712500Y-89250000D01*
X131712500Y-102250000D02*
X132712500Y-101250000D01*
X132712500Y-101250000D02*
X132712500Y-89250000D01*
X46675000Y-51150000D02*
X46675000Y-63150000D01*
X46675000Y-63150000D02*
X47675000Y-64150000D01*
X47675000Y-50150000D02*
X46675000Y-51150000D01*
X47675000Y-64150000D02*
X60275000Y-64150000D01*
X60275000Y-50150000D02*
X47675000Y-50150000D01*
X60275000Y-50150000D02*
X61275000Y-51150000D01*
X60275000Y-64150000D02*
X61275000Y-63150000D01*
X61275000Y-63150000D02*
X61275000Y-51150000D01*
X203837500Y-70200000D02*
X203837500Y-82200000D01*
X203837500Y-82200000D02*
X204837500Y-83200000D01*
X204837500Y-69200000D02*
X203837500Y-70200000D01*
X204837500Y-83200000D02*
X217437500Y-83200000D01*
X217437500Y-69200000D02*
X204837500Y-69200000D01*
X217437500Y-69200000D02*
X218437500Y-70200000D01*
X217437500Y-83200000D02*
X218437500Y-82200000D01*
X218437500Y-82200000D02*
X218437500Y-70200000D01*
X89537500Y-70200000D02*
X89537500Y-82200000D01*
X89537500Y-82200000D02*
X90537500Y-83200000D01*
X90537500Y-69200000D02*
X89537500Y-70200000D01*
X90537500Y-83200000D02*
X103137500Y-83200000D01*
X103137500Y-69200000D02*
X90537500Y-69200000D01*
X103137500Y-69200000D02*
X104137500Y-70200000D01*
X103137500Y-83200000D02*
X104137500Y-82200000D01*
X104137500Y-82200000D02*
X104137500Y-70200000D01*
X156212500Y-89250000D02*
X156212500Y-101250000D01*
X156212500Y-101250000D02*
X157212500Y-102250000D01*
X157212500Y-88250000D02*
X156212500Y-89250000D01*
X157212500Y-102250000D02*
X169812500Y-102250000D01*
X169812500Y-88250000D02*
X157212500Y-88250000D01*
X169812500Y-88250000D02*
X170812500Y-89250000D01*
X169812500Y-102250000D02*
X170812500Y-101250000D01*
X170812500Y-101250000D02*
X170812500Y-89250000D01*
X184787500Y-70200000D02*
X184787500Y-82200000D01*
X184787500Y-82200000D02*
X185787500Y-83200000D01*
X185787500Y-69200000D02*
X184787500Y-70200000D01*
X185787500Y-83200000D02*
X198387500Y-83200000D01*
X198387500Y-69200000D02*
X185787500Y-69200000D01*
X198387500Y-69200000D02*
X199387500Y-70200000D01*
X198387500Y-83200000D02*
X199387500Y-82200000D01*
X199387500Y-82200000D02*
X199387500Y-70200000D01*
X103825000Y-51150000D02*
X103825000Y-63150000D01*
X103825000Y-63150000D02*
X104825000Y-64150000D01*
X104825000Y-50150000D02*
X103825000Y-51150000D01*
X104825000Y-64150000D02*
X117425000Y-64150000D01*
X117425000Y-50150000D02*
X104825000Y-50150000D01*
X117425000Y-50150000D02*
X118425000Y-51150000D01*
X117425000Y-64150000D02*
X118425000Y-63150000D01*
X118425000Y-63150000D02*
X118425000Y-51150000D01*
X175262500Y-89250000D02*
X175262500Y-101250000D01*
X175262500Y-101250000D02*
X176262500Y-102250000D01*
X176262500Y-88250000D02*
X175262500Y-89250000D01*
X176262500Y-102250000D02*
X188862500Y-102250000D01*
X188862500Y-88250000D02*
X176262500Y-88250000D01*
X188862500Y-88250000D02*
X189862500Y-89250000D01*
X188862500Y-102250000D02*
X189862500Y-101250000D01*
X189862500Y-101250000D02*
X189862500Y-89250000D01*
X180025000Y-51150000D02*
X180025000Y-63150000D01*
X180025000Y-63150000D02*
X181025000Y-64150000D01*
X181025000Y-50150000D02*
X180025000Y-51150000D01*
X181025000Y-64150000D02*
X193625000Y-64150000D01*
X193625000Y-50150000D02*
X181025000Y-50150000D01*
X193625000Y-50150000D02*
X194625000Y-51150000D01*
X193625000Y-64150000D02*
X194625000Y-63150000D01*
X194625000Y-63150000D02*
X194625000Y-51150000D01*
X187170000Y-108300000D02*
X187170000Y-120300000D01*
X187170000Y-120300000D02*
X188170000Y-121300000D01*
X188170000Y-107300000D02*
X187170000Y-108300000D01*
X188170000Y-121300000D02*
X200770000Y-121300000D01*
X200770000Y-107300000D02*
X188170000Y-107300000D01*
X200770000Y-107300000D02*
X201770000Y-108300000D01*
X200770000Y-121300000D02*
X201770000Y-120300000D01*
X201770000Y-120300000D02*
X201770000Y-108300000D01*
X237175000Y-51150000D02*
X237175000Y-63150000D01*
X237175000Y-63150000D02*
X238175000Y-64150000D01*
X238175000Y-50150000D02*
X237175000Y-51150000D01*
X238175000Y-64150000D02*
X250775000Y-64150000D01*
X250775000Y-50150000D02*
X238175000Y-50150000D01*
X250775000Y-50150000D02*
X251775000Y-51150000D01*
X250775000Y-64150000D02*
X251775000Y-63150000D01*
X251775000Y-63150000D02*
X251775000Y-51150000D01*
X141925000Y-51150000D02*
X141925000Y-63150000D01*
X141925000Y-63150000D02*
X142925000Y-64150000D01*
X142925000Y-50150000D02*
X141925000Y-51150000D01*
X142925000Y-64150000D02*
X155525000Y-64150000D01*
X155525000Y-50150000D02*
X142925000Y-50150000D01*
X155525000Y-50150000D02*
X156525000Y-51150000D01*
X155525000Y-64150000D02*
X156525000Y-63150000D01*
X156525000Y-63150000D02*
X156525000Y-51150000D01*
X53820000Y-89250000D02*
X53820000Y-101250000D01*
X53820000Y-101250000D02*
X54820000Y-102250000D01*
X54820000Y-88250000D02*
X53820000Y-89250000D01*
X54820000Y-102250000D02*
X67420000Y-102250000D01*
X67420000Y-88250000D02*
X54820000Y-88250000D01*
X67420000Y-88250000D02*
X68420000Y-89250000D01*
X67420000Y-102250000D02*
X68420000Y-101250000D01*
X68420000Y-101250000D02*
X68420000Y-89250000D01*
X84775000Y-51150000D02*
X84775000Y-63150000D01*
X84775000Y-63150000D02*
X85775000Y-64150000D01*
X85775000Y-50150000D02*
X84775000Y-51150000D01*
X85775000Y-64150000D02*
X98375000Y-64150000D01*
X98375000Y-50150000D02*
X85775000Y-50150000D01*
X98375000Y-50150000D02*
X99375000Y-51150000D01*
X98375000Y-64150000D02*
X99375000Y-63150000D01*
X99375000Y-63150000D02*
X99375000Y-51150000D01*
X65725000Y-51150000D02*
X65725000Y-63150000D01*
X65725000Y-63150000D02*
X66725000Y-64150000D01*
X66725000Y-50150000D02*
X65725000Y-51150000D01*
X66725000Y-64150000D02*
X79325000Y-64150000D01*
X79325000Y-50150000D02*
X66725000Y-50150000D01*
X79325000Y-50150000D02*
X80325000Y-51150000D01*
X79325000Y-64150000D02*
X80325000Y-63150000D01*
X80325000Y-63150000D02*
X80325000Y-51150000D01*
X127637500Y-70200000D02*
X127637500Y-82200000D01*
X127637500Y-82200000D02*
X128637500Y-83200000D01*
X128637500Y-69200000D02*
X127637500Y-70200000D01*
X128637500Y-83200000D02*
X141237500Y-83200000D01*
X141237500Y-69200000D02*
X128637500Y-69200000D01*
X141237500Y-69200000D02*
X142237500Y-70200000D01*
X141237500Y-83200000D02*
X142237500Y-82200000D01*
X142237500Y-82200000D02*
X142237500Y-70200000D01*
X234795000Y-89250000D02*
X234795000Y-101250000D01*
X234795000Y-101250000D02*
X235795000Y-102250000D01*
X235795000Y-88250000D02*
X234795000Y-89250000D01*
X235795000Y-102250000D02*
X248395000Y-102250000D01*
X248395000Y-88250000D02*
X235795000Y-88250000D01*
X248395000Y-88250000D02*
X249395000Y-89250000D01*
X248395000Y-102250000D02*
X249395000Y-101250000D01*
X249395000Y-101250000D02*
X249395000Y-89250000D01*
X99062500Y-89250000D02*
X99062500Y-101250000D01*
X99062500Y-101250000D02*
X100062500Y-102250000D01*
X100062500Y-88250000D02*
X99062500Y-89250000D01*
X100062500Y-102250000D02*
X112662500Y-102250000D01*
X112662500Y-88250000D02*
X100062500Y-88250000D01*
X112662500Y-88250000D02*
X113662500Y-89250000D01*
X112662500Y-102250000D02*
X113662500Y-101250000D01*
X113662500Y-101250000D02*
X113662500Y-89250000D01*
X199075000Y-51150000D02*
X199075000Y-63150000D01*
X199075000Y-63150000D02*
X200075000Y-64150000D01*
X200075000Y-50150000D02*
X199075000Y-51150000D01*
X200075000Y-64150000D02*
X212675000Y-64150000D01*
X212675000Y-50150000D02*
X200075000Y-50150000D01*
X212675000Y-50150000D02*
X213675000Y-51150000D01*
X212675000Y-64150000D02*
X213675000Y-63150000D01*
X213675000Y-63150000D02*
X213675000Y-51150000D01*
X146687500Y-70200000D02*
X146687500Y-82200000D01*
X146687500Y-82200000D02*
X147687500Y-83200000D01*
X147687500Y-69200000D02*
X146687500Y-70200000D01*
X147687500Y-83200000D02*
X160287500Y-83200000D01*
X160287500Y-69200000D02*
X147687500Y-69200000D01*
X160287500Y-69200000D02*
X161287500Y-70200000D01*
X160287500Y-83200000D02*
X161287500Y-82200000D01*
X161287500Y-82200000D02*
X161287500Y-70200000D01*
%TD*%
M02*
