%TF.GenerationSoftware,KiCad,Pcbnew,8.0.9*%
%TF.CreationDate,2026-02-07T17:36:35+01:00*%
%TF.ProjectId,travaulta plate dyna fr4,74726176-6175-46c7-9461-20706c617465,rev?*%
%TF.SameCoordinates,Original*%
%TF.FileFunction,Profile,NP*%
%FSLAX46Y46*%
G04 Gerber Fmt 4.6, Leading zero omitted, Abs format (unit mm)*
G04 Created by KiCad (PCBNEW 8.0.9) date 2026-02-07 17:36:35*
%MOMM*%
%LPD*%
G01*
G04 APERTURE LIST*
%TA.AperFunction,Profile*%
%ADD10C,0.200000*%
%TD*%
%TA.AperFunction,Profile*%
%ADD11C,0.100000*%
%TD*%
G04 APERTURE END LIST*
D10*
X113709100Y-100221400D02*
G75*
G02*
X111634100Y-102296400I-2075000J0D01*
G01*
X249440350Y-100221300D02*
G75*
G02*
X247379560Y-102296400I-2075150J0D01*
G01*
X201815350Y-119271300D02*
G75*
G02*
X199754560Y-121346400I-2075150J0D01*
G01*
X180384100Y-81171400D02*
G75*
G02*
X178309100Y-83246400I-2075000J0D01*
G01*
X127584100Y-71221400D02*
X127584100Y-81171400D01*
X98702800Y-121346400D02*
X109267060Y-121346400D01*
X105846600Y-64196400D02*
X116396600Y-64196400D01*
X215384100Y-102296400D02*
G75*
G02*
X213309100Y-100221400I0J2075000D01*
G01*
X111327850Y-119271300D02*
G75*
G02*
X109267060Y-121346400I-2075150J0D01*
G01*
X175621600Y-62121400D02*
X175621600Y-52171400D01*
X237121600Y-52171400D02*
X237121600Y-62121400D01*
X221171600Y-107246400D02*
G75*
G02*
X223246600Y-109321400I0J-2075000D01*
G01*
X140209100Y-69146400D02*
X129659100Y-69146400D01*
X137521600Y-62121400D02*
G75*
G02*
X135446600Y-64196400I-2075000J0D01*
G01*
X211646600Y-50096400D02*
X201096600Y-50096400D01*
X113709100Y-100221400D02*
X113709100Y-90271400D01*
X46621600Y-52171400D02*
G75*
G02*
X48696600Y-50096400I2075000J0D01*
G01*
X137521600Y-62121400D02*
X137521600Y-52171400D01*
X72450000Y-121724999D02*
X72450000Y-106974999D01*
X110609100Y-83246400D02*
X121159100Y-83246400D01*
X111634100Y-88196400D02*
G75*
G02*
X113709100Y-90271400I0J-2075000D01*
G01*
X97346600Y-50096400D02*
G75*
G02*
X99421600Y-52171400I0J-2075000D01*
G01*
X156159100Y-90271400D02*
G75*
G02*
X158234100Y-88196400I2075000J0D01*
G01*
X148709100Y-83246400D02*
G75*
G02*
X146634100Y-81171400I0J2075000D01*
G01*
X48696600Y-64196400D02*
G75*
G02*
X46621600Y-62121400I0J2075000D01*
G01*
X239196600Y-64196400D02*
X249746600Y-64196400D01*
X77271600Y-121346400D02*
G75*
G02*
X75196600Y-119271400I0J2075000D01*
G01*
X197359100Y-69146400D02*
X186809100Y-69146400D01*
X155137500Y-95250000D02*
G75*
G02*
X152837500Y-95250000I-1150000J0D01*
G01*
X152837500Y-95250000D02*
G75*
G02*
X155137500Y-95250000I1150000J0D01*
G01*
X146634100Y-71221400D02*
G75*
G02*
X148709100Y-69146400I2075000J0D01*
G01*
X192596600Y-50096400D02*
X182046600Y-50096400D01*
X51077850Y-83246400D02*
X61627850Y-83246400D01*
X80371600Y-62121400D02*
X80371600Y-52171400D01*
X93225000Y-114300000D02*
G75*
G02*
X90925000Y-114300000I-1150000J0D01*
G01*
X90925000Y-114300000D02*
G75*
G02*
X93225000Y-114300000I1150000J0D01*
G01*
X189190300Y-121346400D02*
X199754560Y-121346400D01*
X61321600Y-62121400D02*
G75*
G02*
X59246600Y-64196400I-2075000J0D01*
G01*
D11*
X179179211Y-111222627D02*
X182774442Y-111222627D01*
X182774442Y-117365374D01*
X179179211Y-117365374D01*
X179179211Y-111222627D01*
D10*
X252884375Y-102933999D02*
G75*
G02*
X250584375Y-102933999I-1150000J0D01*
G01*
X250584375Y-102933999D02*
G75*
G02*
X252884375Y-102933999I1150000J0D01*
G01*
X91559100Y-83246400D02*
X102109100Y-83246400D01*
X96627850Y-109321400D02*
G75*
G02*
X98688496Y-107246401I2075150J-100D01*
G01*
X158540350Y-109321500D02*
X158540350Y-119271400D01*
X122821600Y-52171400D02*
X122821600Y-62121400D01*
X206884100Y-88196400D02*
X196334100Y-88196400D01*
X97346600Y-50096400D02*
X86796600Y-50096400D01*
X121159100Y-69146400D02*
G75*
G02*
X123234100Y-71221400I0J-2075000D01*
G01*
X156571600Y-62121400D02*
G75*
G02*
X154496600Y-64196400I-2075000J0D01*
G01*
X249746600Y-50096400D02*
G75*
G02*
X251821600Y-52171400I0J-2075000D01*
G01*
X234740350Y-90271500D02*
X234740350Y-100221400D01*
X199740400Y-107246400D02*
X189175996Y-107246400D01*
X218071600Y-52171400D02*
X218071600Y-62121400D01*
X116396600Y-50096400D02*
X105846600Y-50096400D01*
X99421600Y-62121400D02*
G75*
G02*
X97346600Y-64196400I-2075000J0D01*
G01*
X205859100Y-83246400D02*
X216409100Y-83246400D01*
X123234100Y-81171400D02*
G75*
G02*
X121159100Y-83246400I-2075000J0D01*
G01*
X120134100Y-102296400D02*
X130684100Y-102296400D01*
X244677850Y-81171300D02*
G75*
G02*
X242617060Y-83246400I-2075150J0D01*
G01*
X168784100Y-88196400D02*
X158234100Y-88196400D01*
X79959100Y-90271400D02*
X79959100Y-100221400D01*
X71793750Y-95250000D02*
G75*
G02*
X69493750Y-95250000I-1150000J0D01*
G01*
X69493750Y-95250000D02*
G75*
G02*
X71793750Y-95250000I1150000J0D01*
G01*
X154496600Y-50096400D02*
G75*
G02*
X156571600Y-52171400I0J-2075000D01*
G01*
X167759100Y-83246400D02*
X178309100Y-83246400D01*
X177284100Y-102296400D02*
G75*
G02*
X175209100Y-100221400I0J2075000D01*
G01*
X233718750Y-95250000D02*
G75*
G02*
X231418750Y-95250000I-1150000J0D01*
G01*
X231418750Y-95250000D02*
G75*
G02*
X233718750Y-95250000I1150000J0D01*
G01*
X205859100Y-83246400D02*
G75*
G02*
X203784100Y-81171400I0J2075000D01*
G01*
X179971600Y-52171400D02*
X179971600Y-62121400D01*
X187115350Y-109321500D02*
X187115350Y-119271400D01*
X234740350Y-90271500D02*
G75*
G02*
X236800996Y-88196401I2075150J0D01*
G01*
X232052800Y-83246400D02*
X242617060Y-83246400D01*
X175209100Y-90271400D02*
X175209100Y-100221400D01*
X189909100Y-100221400D02*
G75*
G02*
X187834100Y-102296400I-2075000J0D01*
G01*
X242602900Y-69146400D02*
X232038496Y-69146400D01*
X99009100Y-90271400D02*
G75*
G02*
X101084100Y-88196400I2075000J0D01*
G01*
X47866000Y-102933999D02*
G75*
G02*
X45566000Y-102933999I-1150000J0D01*
G01*
X45566000Y-102933999D02*
G75*
G02*
X47866000Y-102933999I1150000J0D01*
G01*
X199434100Y-81171400D02*
X199434100Y-71221400D01*
X201096600Y-64196400D02*
G75*
G02*
X199021600Y-62121400I0J2075000D01*
G01*
X89484100Y-71221400D02*
G75*
G02*
X91559100Y-69146400I2075000J0D01*
G01*
X104184100Y-81171400D02*
G75*
G02*
X102109100Y-83246400I-2075000J0D01*
G01*
X225934100Y-88196400D02*
X215384100Y-88196400D01*
X148709100Y-83246400D02*
X159259100Y-83246400D01*
X84721600Y-52171400D02*
G75*
G02*
X86796600Y-50096400I2075000J0D01*
G01*
X171165400Y-107246400D02*
G75*
G02*
X173240300Y-109321400I0J-2074900D01*
G01*
X66390350Y-88196400D02*
X55840350Y-88196400D01*
X254575000Y-102674999D02*
G75*
G02*
X251475000Y-105775000I-3100000J-1D01*
G01*
X94659100Y-100221400D02*
X94659100Y-90271400D01*
X236100000Y-57150000D02*
G75*
G02*
X233800000Y-57150000I-1150000J0D01*
G01*
X233800000Y-57150000D02*
G75*
G02*
X236100000Y-57150000I1150000J0D01*
G01*
X130684100Y-88196400D02*
G75*
G02*
X132759100Y-90271400I0J-2075000D01*
G01*
X218484100Y-81171400D02*
G75*
G02*
X216409100Y-83246400I-2075000J0D01*
G01*
X156159100Y-90271400D02*
X156159100Y-100221400D01*
X68465350Y-100221400D02*
X68465350Y-90271400D01*
X124181250Y-114300000D02*
G75*
G02*
X121881250Y-114300000I-1150000J0D01*
G01*
X121881250Y-114300000D02*
G75*
G02*
X124181250Y-114300000I1150000J0D01*
G01*
X177284100Y-102296400D02*
X187834100Y-102296400D01*
X121800000Y-57150000D02*
G75*
G02*
X119500000Y-57150000I-1150000J0D01*
G01*
X119500000Y-57150000D02*
G75*
G02*
X121800000Y-57150000I1150000J0D01*
G01*
X78296600Y-50096400D02*
G75*
G02*
X80371600Y-52171400I0J-2075000D01*
G01*
X82034100Y-102296400D02*
X92584100Y-102296400D01*
X65671600Y-52171400D02*
G75*
G02*
X67746600Y-50096400I2075000J0D01*
G01*
X71250000Y-105774999D02*
G75*
G02*
X72450001Y-106974999I0J-1200001D01*
G01*
X120134100Y-102296400D02*
G75*
G02*
X118059100Y-100221400I0J2075000D01*
G01*
X89896600Y-119271400D02*
X89896600Y-109321400D01*
X61321600Y-62121400D02*
X61321600Y-52171400D01*
X63702850Y-81171400D02*
G75*
G02*
X61627850Y-83246350I-2074950J0D01*
G01*
X199740400Y-107246400D02*
G75*
G02*
X201815300Y-109321400I0J-2074900D01*
G01*
X85134100Y-81171400D02*
X85134100Y-71221400D01*
X123234100Y-81171400D02*
X123234100Y-71221400D01*
X194259100Y-90271400D02*
G75*
G02*
X196334100Y-88196400I2075000J0D01*
G01*
X178309100Y-69146400D02*
G75*
G02*
X180384100Y-71221400I0J-2075000D01*
G01*
X46975000Y-47474999D02*
X251475000Y-47474999D01*
X160615300Y-121346400D02*
G75*
G02*
X158540400Y-119271400I0J2074900D01*
G01*
X208959100Y-100221400D02*
G75*
G02*
X206884100Y-102296400I-2075000J0D01*
G01*
X80371600Y-62121400D02*
G75*
G02*
X78296600Y-64196400I-2075000J0D01*
G01*
X143946600Y-64196400D02*
G75*
G02*
X141871600Y-62121400I0J2075000D01*
G01*
X55840350Y-102296400D02*
G75*
G02*
X53765300Y-100221400I-50J2075000D01*
G01*
X137827900Y-107246400D02*
X127263496Y-107246400D01*
X146634100Y-71221400D02*
X146634100Y-81171400D01*
X46621600Y-52171400D02*
X46621600Y-62121400D01*
X111634100Y-88196400D02*
X101084100Y-88196400D01*
X203784100Y-71221400D02*
X203784100Y-81171400D01*
X99421600Y-62121400D02*
X99421600Y-52171400D01*
X132759100Y-100221400D02*
X132759100Y-90271400D01*
X162996600Y-64196400D02*
G75*
G02*
X160921600Y-62121400I0J2075000D01*
G01*
X199021600Y-52171400D02*
X199021600Y-62121400D01*
X151809100Y-100221400D02*
X151809100Y-90271400D01*
X207525000Y-114300000D02*
G75*
G02*
X205225000Y-114300000I-1150000J0D01*
G01*
X205225000Y-114300000D02*
G75*
G02*
X207525000Y-114300000I1150000J0D01*
G01*
X201096600Y-64196400D02*
X211646600Y-64196400D01*
X129659100Y-83246400D02*
X140209100Y-83246400D01*
X226000000Y-106974999D02*
X226000000Y-121724999D01*
X222900000Y-124824999D02*
X75550000Y-124824999D01*
X139184100Y-102296400D02*
G75*
G02*
X137109100Y-100221400I0J2075000D01*
G01*
X223246600Y-119271400D02*
X223246600Y-109321400D01*
X218071600Y-52171400D02*
G75*
G02*
X220146600Y-50096400I2075000J0D01*
G01*
X68465350Y-100221400D02*
G75*
G02*
X66390350Y-102296350I-2074950J0D01*
G01*
X121159100Y-69146400D02*
X110609100Y-69146400D01*
X103771600Y-52171400D02*
G75*
G02*
X105846600Y-50096400I2075000J0D01*
G01*
X179971600Y-52171400D02*
G75*
G02*
X182046600Y-50096400I2075000J0D01*
G01*
X86796600Y-64196400D02*
G75*
G02*
X84721600Y-62121400I0J2075000D01*
G01*
X141871600Y-52171400D02*
X141871600Y-62121400D01*
X61627850Y-69146400D02*
X51077850Y-69146400D01*
X130684100Y-88196400D02*
X120134100Y-88196400D01*
X49002850Y-71221400D02*
G75*
G02*
X51077850Y-69146450I2074950J0D01*
G01*
X216409100Y-69146400D02*
X205859100Y-69146400D01*
X249440350Y-100221300D02*
X249440350Y-90271400D01*
X180384100Y-81171400D02*
X180384100Y-71221400D01*
X64650000Y-50574999D02*
G75*
G02*
X62350000Y-50574999I-1150000J0D01*
G01*
X62350000Y-50574999D02*
G75*
G02*
X64650000Y-50574999I1150000J0D01*
G01*
X201815350Y-119271300D02*
X201815350Y-109321400D01*
X160615300Y-121346400D02*
X171179560Y-121346400D01*
X247365400Y-88196400D02*
X236800996Y-88196400D01*
X194259100Y-90271400D02*
X194259100Y-100221400D01*
X228009100Y-100221400D02*
X228009100Y-90271400D01*
X72509100Y-83246400D02*
X83059100Y-83246400D01*
X48696600Y-64196400D02*
X59246600Y-64196400D01*
X197359100Y-69146400D02*
G75*
G02*
X199434100Y-71221400I0J-2075000D01*
G01*
X103771600Y-52171400D02*
X103771600Y-62121400D01*
X173546600Y-50096400D02*
X162996600Y-50096400D01*
X213721600Y-62121400D02*
G75*
G02*
X211646600Y-64196400I-2075000J0D01*
G01*
X171165400Y-107246400D02*
X160600996Y-107246400D01*
X89484100Y-71221400D02*
X89484100Y-81171400D01*
X77271600Y-121346400D02*
X87821600Y-121346400D01*
X105846600Y-64196400D02*
G75*
G02*
X103771600Y-62121400I0J2075000D01*
G01*
X211646600Y-50096400D02*
G75*
G02*
X213721600Y-52171400I0J-2075000D01*
G01*
X154496600Y-50096400D02*
X143946600Y-50096400D01*
X251821600Y-62121400D02*
G75*
G02*
X249746600Y-64196400I-2075000J0D01*
G01*
X124896600Y-64196400D02*
G75*
G02*
X122821600Y-62121400I0J2075000D01*
G01*
X75196600Y-109321400D02*
X75196600Y-119271400D01*
X151809100Y-100221400D02*
G75*
G02*
X149734100Y-102296400I-2075000J0D01*
G01*
X178950000Y-57150000D02*
G75*
G02*
X176650000Y-57150000I-1150000J0D01*
G01*
X176650000Y-57150000D02*
G75*
G02*
X178950000Y-57150000I1150000J0D01*
G01*
X236100000Y-50574999D02*
G75*
G02*
X233800000Y-50574999I-1150000J0D01*
G01*
X233800000Y-50574999D02*
G75*
G02*
X236100000Y-50574999I1150000J0D01*
G01*
X110609100Y-83246400D02*
G75*
G02*
X108534100Y-81171400I0J2075000D01*
G01*
X99009100Y-90271400D02*
X99009100Y-100221400D01*
X173546600Y-50096400D02*
G75*
G02*
X175621600Y-52171400I0J-2075000D01*
G01*
X210621600Y-121346400D02*
G75*
G02*
X208546600Y-119271400I0J2075000D01*
G01*
X96627850Y-109321400D02*
X96627850Y-119271400D01*
X64650000Y-57150000D02*
G75*
G02*
X62350000Y-57150000I-1150000J0D01*
G01*
X62350000Y-57150000D02*
G75*
G02*
X64650000Y-57150000I1150000J0D01*
G01*
X199021600Y-52171400D02*
G75*
G02*
X201096600Y-50096400I2075000J0D01*
G01*
X186809100Y-83246400D02*
G75*
G02*
X184734100Y-81171400I0J2075000D01*
G01*
X46975000Y-105774999D02*
G75*
G02*
X43875001Y-102674999I0J3099999D01*
G01*
X189909100Y-100221400D02*
X189909100Y-90271400D01*
X140209100Y-69146400D02*
G75*
G02*
X142284100Y-71221400I0J-2075000D01*
G01*
X161334100Y-81171400D02*
X161334100Y-71221400D01*
X189190300Y-121346400D02*
G75*
G02*
X187115400Y-119271400I0J2074900D01*
G01*
X67746600Y-64196400D02*
G75*
G02*
X65671600Y-62121400I0J2075000D01*
G01*
X117037500Y-95250000D02*
G75*
G02*
X114737500Y-95250000I-1150000J0D01*
G01*
X114737500Y-95250000D02*
G75*
G02*
X117037500Y-95250000I1150000J0D01*
G01*
X109252900Y-107246400D02*
X98688496Y-107246400D01*
X182046600Y-64196400D02*
G75*
G02*
X179971600Y-62121400I0J2075000D01*
G01*
X251475000Y-47474999D02*
G75*
G02*
X254575001Y-50574999I0J-3100001D01*
G01*
X49002850Y-71221400D02*
X49002850Y-81171400D01*
X137827900Y-107246400D02*
G75*
G02*
X139902800Y-109321400I0J-2074900D01*
G01*
X91559100Y-83246400D02*
G75*
G02*
X89484100Y-81171400I0J2075000D01*
G01*
X196334100Y-102296400D02*
X206884100Y-102296400D01*
X63702850Y-81171400D02*
X63702850Y-71221400D01*
X176568750Y-114300000D02*
G75*
G02*
X174268750Y-114300000I-1150000J0D01*
G01*
X174268750Y-114300000D02*
G75*
G02*
X176568750Y-114300000I1150000J0D01*
G01*
X139184100Y-102296400D02*
X149734100Y-102296400D01*
X127277800Y-121346400D02*
X137842060Y-121346400D01*
X229977850Y-71221500D02*
X229977850Y-81171400D01*
X226000000Y-106974999D02*
G75*
G02*
X227200000Y-105775000I1200000J-1D01*
G01*
X230696600Y-50096400D02*
G75*
G02*
X232771600Y-52171400I0J-2075000D01*
G01*
X118471600Y-62121400D02*
X118471600Y-52171400D01*
X137109100Y-90271400D02*
X137109100Y-100221400D01*
X173240350Y-119271300D02*
G75*
G02*
X171179560Y-121346400I-2075150J0D01*
G01*
X135446600Y-50096400D02*
G75*
G02*
X137521600Y-52171400I0J-2075000D01*
G01*
X215384100Y-102296400D02*
X225934100Y-102296400D01*
X251821600Y-62121400D02*
X251821600Y-52171400D01*
X143946600Y-64196400D02*
X154496600Y-64196400D01*
X170859100Y-100221400D02*
X170859100Y-90271400D01*
X199434100Y-81171400D02*
G75*
G02*
X197359100Y-83246400I-2075000J0D01*
G01*
X239196600Y-64196400D02*
G75*
G02*
X237121600Y-62121400I0J2075000D01*
G01*
X232052800Y-83246400D02*
G75*
G02*
X229977900Y-81171400I0J2074900D01*
G01*
X104184100Y-81171400D02*
X104184100Y-71221400D01*
X129659100Y-83246400D02*
G75*
G02*
X127584100Y-81171400I0J2075000D01*
G01*
X230696600Y-50096400D02*
X220146600Y-50096400D01*
X220146600Y-64196400D02*
X230696600Y-64196400D01*
X82034100Y-102296400D02*
G75*
G02*
X79959100Y-100221400I0J2075000D01*
G01*
X208546600Y-109321400D02*
G75*
G02*
X210621600Y-107246400I2075000J0D01*
G01*
X101084100Y-102296400D02*
G75*
G02*
X99009100Y-100221400I0J2075000D01*
G01*
X220146600Y-64196400D02*
G75*
G02*
X218071600Y-62121400I0J2075000D01*
G01*
X221171600Y-107246400D02*
X210621600Y-107246400D01*
X149734100Y-88196400D02*
X139184100Y-88196400D01*
X213721600Y-62121400D02*
X213721600Y-52171400D01*
X55840350Y-102296400D02*
X66390350Y-102296400D01*
X142284100Y-81171400D02*
G75*
G02*
X140209100Y-83246400I-2075000J0D01*
G01*
X160921600Y-52171400D02*
X160921600Y-62121400D01*
X203784100Y-71221400D02*
G75*
G02*
X205859100Y-69146400I2075000J0D01*
G01*
X168784100Y-88196400D02*
G75*
G02*
X170859100Y-90271400I0J-2075000D01*
G01*
X187834100Y-88196400D02*
G75*
G02*
X189909100Y-90271400I0J-2075000D01*
G01*
X186809100Y-83246400D02*
X197359100Y-83246400D01*
X183712500Y-76200000D02*
G75*
G02*
X181412500Y-76200000I-1150000J0D01*
G01*
X181412500Y-76200000D02*
G75*
G02*
X183712500Y-76200000I1150000J0D01*
G01*
X70434100Y-71221400D02*
G75*
G02*
X72509100Y-69146400I2075000J0D01*
G01*
X167759100Y-83246400D02*
G75*
G02*
X165684100Y-81171400I0J2075000D01*
G01*
X223246600Y-119271400D02*
G75*
G02*
X221171600Y-121346400I-2075000J0D01*
G01*
X142284100Y-81171400D02*
X142284100Y-71221400D01*
X109252900Y-107246400D02*
G75*
G02*
X111327800Y-109321400I0J-2074900D01*
G01*
X87821600Y-107246400D02*
X77271600Y-107246400D01*
X206884100Y-88196400D02*
G75*
G02*
X208959100Y-90271400I0J-2075000D01*
G01*
X78296600Y-50096400D02*
X67746600Y-50096400D01*
X162996600Y-64196400D02*
X173546600Y-64196400D01*
X159259100Y-69146400D02*
G75*
G02*
X161334100Y-71221400I0J-2075000D01*
G01*
X182046600Y-64196400D02*
X192596600Y-64196400D01*
X108534100Y-71221400D02*
G75*
G02*
X110609100Y-69146400I2075000J0D01*
G01*
X187834100Y-88196400D02*
X177284100Y-88196400D01*
X83059100Y-69146400D02*
X72509100Y-69146400D01*
X226000000Y-121724999D02*
G75*
G02*
X222900000Y-124825000I-3100000J-1D01*
G01*
X98702800Y-121346400D02*
G75*
G02*
X96627900Y-119271400I0J2074900D01*
G01*
X158234100Y-102296400D02*
G75*
G02*
X156159100Y-100221400I0J2075000D01*
G01*
X165684100Y-71221400D02*
G75*
G02*
X167759100Y-69146400I2075000J0D01*
G01*
X249746600Y-50096400D02*
X239196600Y-50096400D01*
X175209100Y-90271400D02*
G75*
G02*
X177284100Y-88196400I2075000J0D01*
G01*
X161334100Y-81171400D02*
G75*
G02*
X159259100Y-83246400I-2075000J0D01*
G01*
X225934100Y-88196400D02*
G75*
G02*
X228009100Y-90271400I0J-2075000D01*
G01*
X178309100Y-69146400D02*
X167759100Y-69146400D01*
X221812500Y-76200000D02*
G75*
G02*
X219512500Y-76200000I-1150000J0D01*
G01*
X219512500Y-76200000D02*
G75*
G02*
X221812500Y-76200000I1150000J0D01*
G01*
X196334100Y-102296400D02*
G75*
G02*
X194259100Y-100221400I0J2075000D01*
G01*
X232771600Y-62121400D02*
X232771600Y-52171400D01*
X94659100Y-100221400D02*
G75*
G02*
X92584100Y-102296400I-2075000J0D01*
G01*
X232771600Y-62121400D02*
G75*
G02*
X230696600Y-64196400I-2075000J0D01*
G01*
X59246600Y-50096400D02*
G75*
G02*
X61321600Y-52171400I0J-2075000D01*
G01*
X118471600Y-62121400D02*
G75*
G02*
X116396600Y-64196400I-2075000J0D01*
G01*
X126562500Y-76200000D02*
G75*
G02*
X124262500Y-76200000I-1150000J0D01*
G01*
X124262500Y-76200000D02*
G75*
G02*
X126562500Y-76200000I1150000J0D01*
G01*
X118059100Y-90271400D02*
X118059100Y-100221400D01*
X92584100Y-88196400D02*
G75*
G02*
X94659100Y-90271400I0J-2075000D01*
G01*
X51077850Y-83246400D02*
G75*
G02*
X49002800Y-81171400I-50J2075000D01*
G01*
X67746600Y-64196400D02*
X78296600Y-64196400D01*
X254575000Y-50574999D02*
X254575000Y-102674999D01*
X87821600Y-107246400D02*
G75*
G02*
X89896600Y-109321400I0J-2075000D01*
G01*
X194671600Y-62121400D02*
G75*
G02*
X192596600Y-64196400I-2075000J0D01*
G01*
X66390350Y-88196400D02*
G75*
G02*
X68465400Y-90271400I50J-2075000D01*
G01*
X116396600Y-50096400D02*
G75*
G02*
X118471600Y-52171400I0J-2075000D01*
G01*
X175621600Y-62121400D02*
G75*
G02*
X173546600Y-64196400I-2075000J0D01*
G01*
X132759100Y-100221400D02*
G75*
G02*
X130684100Y-102296400I-2075000J0D01*
G01*
X84721600Y-52171400D02*
X84721600Y-62121400D01*
X88462500Y-76200000D02*
G75*
G02*
X86162500Y-76200000I-1150000J0D01*
G01*
X86162500Y-76200000D02*
G75*
G02*
X88462500Y-76200000I1150000J0D01*
G01*
X160921600Y-52171400D02*
G75*
G02*
X162996600Y-50096400I2075000J0D01*
G01*
X108534100Y-71221400D02*
X108534100Y-81171400D01*
X193237500Y-95250000D02*
G75*
G02*
X190937500Y-95250000I-1150000J0D01*
G01*
X190937500Y-95250000D02*
G75*
G02*
X193237500Y-95250000I1150000J0D01*
G01*
X89896600Y-119271400D02*
G75*
G02*
X87821600Y-121346400I-2075000J0D01*
G01*
X43875000Y-50574999D02*
G75*
G02*
X46975000Y-47475000I3100000J-1D01*
G01*
X137109100Y-90271400D02*
G75*
G02*
X139184100Y-88196400I2075000J0D01*
G01*
X79959100Y-90271400D02*
G75*
G02*
X82034100Y-88196400I2075000J0D01*
G01*
X173240350Y-119271300D02*
X173240350Y-109321400D01*
X236815300Y-102296400D02*
X247379560Y-102296400D01*
X127277800Y-121346400D02*
G75*
G02*
X125202900Y-119271400I0J2074900D01*
G01*
X101084100Y-102296400D02*
X111634100Y-102296400D01*
X210621600Y-121346400D02*
X221171600Y-121346400D01*
X85134100Y-81171400D02*
G75*
G02*
X83059100Y-83246400I-2075000J0D01*
G01*
X139902850Y-119271300D02*
G75*
G02*
X137842060Y-121346400I-2075150J0D01*
G01*
X165684100Y-71221400D02*
X165684100Y-81171400D01*
X53765350Y-90271400D02*
G75*
G02*
X55840350Y-88196450I2074950J0D01*
G01*
X61627850Y-69146400D02*
G75*
G02*
X63702900Y-71221400I50J-2075000D01*
G01*
X242602900Y-69146400D02*
G75*
G02*
X244677800Y-71221400I0J-2074900D01*
G01*
X184734100Y-71221400D02*
X184734100Y-81171400D01*
X149734100Y-88196400D02*
G75*
G02*
X151809100Y-90271400I0J-2075000D01*
G01*
X170859100Y-100221400D02*
G75*
G02*
X168784100Y-102296400I-2075000J0D01*
G01*
X236815300Y-102296400D02*
G75*
G02*
X234740400Y-100221400I0J2074900D01*
G01*
X65671600Y-52171400D02*
X65671600Y-62121400D01*
X228009100Y-100221400D02*
G75*
G02*
X225934100Y-102296400I-2075000J0D01*
G01*
X92584100Y-88196400D02*
X82034100Y-88196400D01*
X59246600Y-50096400D02*
X48696600Y-50096400D01*
X111327850Y-119271300D02*
X111327850Y-109321400D01*
X237121600Y-52171400D02*
G75*
G02*
X239196600Y-50096400I2075000J0D01*
G01*
X72509100Y-83246400D02*
G75*
G02*
X70434100Y-81171400I0J2075000D01*
G01*
X71250000Y-105774999D02*
X46975000Y-105774999D01*
X251475000Y-105774999D02*
X227200000Y-105774999D01*
X156571600Y-62121400D02*
X156571600Y-52171400D01*
X139902850Y-119271300D02*
X139902850Y-109321400D01*
X213309100Y-90271400D02*
G75*
G02*
X215384100Y-88196400I2075000J0D01*
G01*
X124896600Y-64196400D02*
X135446600Y-64196400D01*
X102109100Y-69146400D02*
G75*
G02*
X104184100Y-71221400I0J-2075000D01*
G01*
X158234100Y-102296400D02*
X168784100Y-102296400D01*
X118059100Y-90271400D02*
G75*
G02*
X120134100Y-88196400I2075000J0D01*
G01*
X75550000Y-124824999D02*
G75*
G02*
X72450001Y-121724999I0J3099999D01*
G01*
X86796600Y-64196400D02*
X97346600Y-64196400D01*
X192596600Y-50096400D02*
G75*
G02*
X194671600Y-52171400I0J-2075000D01*
G01*
X216409100Y-69146400D02*
G75*
G02*
X218484100Y-71221400I0J-2075000D01*
G01*
X187115350Y-109321500D02*
G75*
G02*
X189175996Y-107246401I2075150J0D01*
G01*
X159259100Y-69146400D02*
X148709100Y-69146400D01*
X194671600Y-62121400D02*
X194671600Y-52171400D01*
X102109100Y-69146400D02*
X91559100Y-69146400D01*
X70434100Y-71221400D02*
X70434100Y-81171400D01*
X208959100Y-100221400D02*
X208959100Y-90271400D01*
X247365400Y-88196400D02*
G75*
G02*
X249440300Y-90271400I0J-2074900D01*
G01*
X218484100Y-81171400D02*
X218484100Y-71221400D01*
X125202850Y-109321500D02*
X125202850Y-119271400D01*
X75196600Y-109321400D02*
G75*
G02*
X77271600Y-107246400I2075000J0D01*
G01*
X141871600Y-52171400D02*
G75*
G02*
X143946600Y-50096400I2075000J0D01*
G01*
X213309100Y-90271400D02*
X213309100Y-100221400D01*
X244677850Y-81171300D02*
X244677850Y-71221400D01*
X53765350Y-90271400D02*
X53765350Y-100221400D01*
X127584100Y-71221400D02*
G75*
G02*
X129659100Y-69146400I2075000J0D01*
G01*
X122821600Y-52171400D02*
G75*
G02*
X124896600Y-50096400I2075000J0D01*
G01*
X83059100Y-69146400D02*
G75*
G02*
X85134100Y-71221400I0J-2075000D01*
G01*
X208546600Y-109321400D02*
X208546600Y-119271400D01*
X43875000Y-102674999D02*
X43875000Y-50574999D01*
X184734100Y-71221400D02*
G75*
G02*
X186809100Y-69146400I2075000J0D01*
G01*
X158540350Y-109321500D02*
G75*
G02*
X160600996Y-107246401I2075150J0D01*
G01*
X125202850Y-109321500D02*
G75*
G02*
X127263496Y-107246401I2075150J0D01*
G01*
X229977850Y-71221500D02*
G75*
G02*
X232038496Y-69146401I2075150J0D01*
G01*
X135446600Y-50096400D02*
X124896600Y-50096400D01*
M02*
