%TF.GenerationSoftware,KiCad,Pcbnew,8.0.8*%
%TF.CreationDate,2025-09-22T22:29:29+02:00*%
%TF.ProjectId,travaulta plate naevies fr4,74726176-6175-46c7-9461-20706c617465,rev?*%
%TF.SameCoordinates,Original*%
%TF.FileFunction,Copper,L1,Top*%
%TF.FilePolarity,Positive*%
%FSLAX46Y46*%
G04 Gerber Fmt 4.6, Leading zero omitted, Abs format (unit mm)*
G04 Created by KiCad (PCBNEW 8.0.8) date 2025-09-22 22:29:29*
%MOMM*%
%LPD*%
G01*
G04 APERTURE LIST*
G04 APERTURE END LIST*
%TA.AperFunction,Conductor*%
%TO.N,GND*%
G36*
X251478525Y-47975696D02*
G01*
X251758989Y-47991447D01*
X251773025Y-47993028D01*
X252046475Y-48039490D01*
X252060233Y-48042630D01*
X252326771Y-48119418D01*
X252340091Y-48124079D01*
X252547321Y-48209916D01*
X252596343Y-48230222D01*
X252609073Y-48236353D01*
X252851820Y-48370514D01*
X252863785Y-48378031D01*
X253089992Y-48538534D01*
X253101039Y-48547344D01*
X253307847Y-48732160D01*
X253317838Y-48742151D01*
X253502654Y-48948959D01*
X253511464Y-48960006D01*
X253671967Y-49186214D01*
X253679484Y-49198178D01*
X253813645Y-49440924D01*
X253819776Y-49453655D01*
X253925915Y-49709897D01*
X253930582Y-49723234D01*
X254007367Y-49989759D01*
X254010511Y-50003534D01*
X254056970Y-50276971D01*
X254058552Y-50291012D01*
X254074302Y-50571455D01*
X254074500Y-50578520D01*
X254074500Y-102671459D01*
X254074302Y-102678524D01*
X254058551Y-102958985D01*
X254056969Y-102973026D01*
X254010510Y-103246465D01*
X254007366Y-103260240D01*
X253930583Y-103526762D01*
X253925916Y-103540099D01*
X253819776Y-103796342D01*
X253813645Y-103809072D01*
X253679484Y-104051819D01*
X253671967Y-104063784D01*
X253511464Y-104289991D01*
X253502654Y-104301037D01*
X253317838Y-104507847D01*
X253307847Y-104517839D01*
X253101035Y-104702657D01*
X253089988Y-104711467D01*
X252863790Y-104871963D01*
X252851825Y-104879480D01*
X252609073Y-105013644D01*
X252596344Y-105019775D01*
X252340100Y-105125916D01*
X252326762Y-105130583D01*
X252060241Y-105207366D01*
X252046466Y-105210510D01*
X251773027Y-105256969D01*
X251758986Y-105258551D01*
X251478544Y-105274301D01*
X251471479Y-105274499D01*
X227126390Y-105274499D01*
X227126374Y-105274500D01*
X227078378Y-105274500D01*
X226917866Y-105297578D01*
X226837608Y-105309117D01*
X226837601Y-105309119D01*
X226604218Y-105377646D01*
X226382954Y-105478694D01*
X226178330Y-105610198D01*
X225994493Y-105769493D01*
X225835202Y-105953324D01*
X225703697Y-106157950D01*
X225602646Y-106379218D01*
X225534118Y-106612603D01*
X225534117Y-106612608D01*
X225502873Y-106829921D01*
X225499500Y-106853379D01*
X225499500Y-121721459D01*
X225499302Y-121728524D01*
X225483551Y-122008985D01*
X225481969Y-122023026D01*
X225435510Y-122296465D01*
X225432366Y-122310240D01*
X225355583Y-122576762D01*
X225350916Y-122590099D01*
X225244776Y-122846342D01*
X225238645Y-122859072D01*
X225104484Y-123101819D01*
X225096967Y-123113784D01*
X224936464Y-123339991D01*
X224927654Y-123351037D01*
X224742838Y-123557847D01*
X224732847Y-123567839D01*
X224526035Y-123752657D01*
X224514988Y-123761467D01*
X224288790Y-123921963D01*
X224276825Y-123929480D01*
X224034073Y-124063644D01*
X224021344Y-124069775D01*
X223765100Y-124175916D01*
X223751762Y-124180583D01*
X223485241Y-124257366D01*
X223471466Y-124260510D01*
X223198027Y-124306969D01*
X223183986Y-124308551D01*
X222903544Y-124324301D01*
X222896479Y-124324499D01*
X75553539Y-124324499D01*
X75546474Y-124324301D01*
X75266013Y-124308550D01*
X75251972Y-124306968D01*
X74978533Y-124260509D01*
X74964758Y-124257365D01*
X74698237Y-124180582D01*
X74684900Y-124175915D01*
X74428656Y-124069775D01*
X74415925Y-124063644D01*
X74173179Y-123929483D01*
X74161215Y-123921966D01*
X73935008Y-123761463D01*
X73923961Y-123752653D01*
X73717152Y-123567837D01*
X73707161Y-123557846D01*
X73522346Y-123351038D01*
X73513536Y-123339991D01*
X73353033Y-123113783D01*
X73345516Y-123101819D01*
X73211355Y-122859073D01*
X73205224Y-122846342D01*
X73185930Y-122799764D01*
X73099081Y-122590089D01*
X73094420Y-122576769D01*
X73017632Y-122310232D01*
X73014492Y-122296474D01*
X72968030Y-122023024D01*
X72966449Y-122008985D01*
X72954201Y-121790894D01*
X72950697Y-121728505D01*
X72950500Y-121721443D01*
X72950500Y-107712468D01*
X75049500Y-107712468D01*
X75049500Y-107734108D01*
X75049500Y-120865892D01*
X75049501Y-120865895D01*
X75050578Y-120874075D01*
X75050487Y-120874086D01*
X75051973Y-120882511D01*
X75052312Y-120886390D01*
X75052313Y-120886395D01*
X75052313Y-120886397D01*
X75052513Y-120887530D01*
X75082704Y-121058794D01*
X75142567Y-121223291D01*
X75142571Y-121223300D01*
X75230093Y-121374907D01*
X75342610Y-121509014D01*
X75476703Y-121621545D01*
X75478700Y-121622698D01*
X75628307Y-121709085D01*
X75792803Y-121768968D01*
X75792807Y-121768968D01*
X75792808Y-121768969D01*
X75792807Y-121768969D01*
X75965197Y-121799378D01*
X75965199Y-121799378D01*
X75967333Y-121799378D01*
X75983784Y-121800457D01*
X75984106Y-121800499D01*
X75984108Y-121800500D01*
X75984110Y-121800500D01*
X89137531Y-121800500D01*
X89137532Y-121800500D01*
X89309938Y-121770101D01*
X89474445Y-121710225D01*
X89626055Y-121622692D01*
X89760163Y-121510163D01*
X89872692Y-121376055D01*
X89960225Y-121224445D01*
X90020101Y-121059938D01*
X90050500Y-120887532D01*
X90050500Y-120800000D01*
X90050500Y-120734108D01*
X90050500Y-114300000D01*
X90419396Y-114300000D01*
X90439779Y-114558994D01*
X90500427Y-114811610D01*
X90599846Y-115051628D01*
X90599847Y-115051629D01*
X90735585Y-115273136D01*
X90735590Y-115273143D01*
X90904310Y-115470689D01*
X91101856Y-115639409D01*
X91101860Y-115639412D01*
X91323372Y-115775154D01*
X91563390Y-115874573D01*
X91816006Y-115935221D01*
X92075000Y-115955604D01*
X92333994Y-115935221D01*
X92586610Y-115874573D01*
X92826628Y-115775154D01*
X93048140Y-115639412D01*
X93245689Y-115470689D01*
X93414412Y-115273140D01*
X93550154Y-115051628D01*
X93649573Y-114811610D01*
X93710221Y-114558994D01*
X93730604Y-114300000D01*
X93710221Y-114041006D01*
X93649573Y-113788390D01*
X93550154Y-113548372D01*
X93414412Y-113326860D01*
X93414409Y-113326856D01*
X93245689Y-113129310D01*
X93048143Y-112960590D01*
X93048136Y-112960585D01*
X92918260Y-112880998D01*
X92826628Y-112824846D01*
X92586610Y-112725427D01*
X92333994Y-112664779D01*
X92075000Y-112644396D01*
X91816006Y-112664779D01*
X91563389Y-112725427D01*
X91323370Y-112824847D01*
X91101863Y-112960585D01*
X91101856Y-112960590D01*
X90904310Y-113129310D01*
X90735590Y-113326856D01*
X90735585Y-113326863D01*
X90599847Y-113548370D01*
X90500427Y-113788389D01*
X90450065Y-113998162D01*
X90439779Y-114041006D01*
X90419396Y-114300000D01*
X90050500Y-114300000D01*
X90050500Y-107734108D01*
X90050500Y-107712474D01*
X96480749Y-107712474D01*
X96480750Y-107766373D01*
X96480750Y-120865891D01*
X96481828Y-120874082D01*
X96481714Y-120874096D01*
X96483148Y-120882232D01*
X96483513Y-120886405D01*
X96513907Y-121058807D01*
X96513911Y-121058822D01*
X96573780Y-121223318D01*
X96573782Y-121223323D01*
X96574429Y-121224443D01*
X96661316Y-121374939D01*
X96661318Y-121374941D01*
X96661319Y-121374943D01*
X96773839Y-121509042D01*
X96773844Y-121509046D01*
X96773847Y-121509050D01*
X96823721Y-121550899D01*
X96907951Y-121621577D01*
X96907956Y-121621581D01*
X96948576Y-121645033D01*
X97059572Y-121709115D01*
X97224084Y-121768990D01*
X97224088Y-121768990D01*
X97224089Y-121768991D01*
X97230533Y-121770127D01*
X97396494Y-121799386D01*
X97398630Y-121799385D01*
X97415096Y-121800465D01*
X97415354Y-121800498D01*
X97415358Y-121800500D01*
X110407062Y-121800500D01*
X110407182Y-121800507D01*
X110415405Y-121800506D01*
X110415408Y-121800507D01*
X110429051Y-121800505D01*
X110429220Y-121800554D01*
X110481300Y-121800549D01*
X110481300Y-121800550D01*
X110568831Y-121800542D01*
X110741231Y-121770127D01*
X110905732Y-121710240D01*
X110905738Y-121710236D01*
X110905743Y-121710234D01*
X111057332Y-121622699D01*
X111057331Y-121622699D01*
X111057334Y-121622698D01*
X111191434Y-121510163D01*
X111303956Y-121376052D01*
X111391482Y-121224441D01*
X111451353Y-121059934D01*
X111481751Y-120887531D01*
X111481750Y-120800000D01*
X111481750Y-120734108D01*
X111481750Y-114300000D01*
X121375646Y-114300000D01*
X121396029Y-114558994D01*
X121456677Y-114811610D01*
X121556096Y-115051628D01*
X121556097Y-115051629D01*
X121691835Y-115273136D01*
X121691840Y-115273143D01*
X121860560Y-115470689D01*
X122058106Y-115639409D01*
X122058110Y-115639412D01*
X122279622Y-115775154D01*
X122519640Y-115874573D01*
X122772256Y-115935221D01*
X123031250Y-115955604D01*
X123290244Y-115935221D01*
X123542860Y-115874573D01*
X123782878Y-115775154D01*
X124004390Y-115639412D01*
X124201939Y-115470689D01*
X124370662Y-115273140D01*
X124506404Y-115051628D01*
X124605823Y-114811610D01*
X124666471Y-114558994D01*
X124686854Y-114300000D01*
X124666471Y-114041006D01*
X124605823Y-113788390D01*
X124506404Y-113548372D01*
X124370662Y-113326860D01*
X124370659Y-113326856D01*
X124201939Y-113129310D01*
X124004393Y-112960590D01*
X124004386Y-112960585D01*
X123874510Y-112880998D01*
X123782878Y-112824846D01*
X123542860Y-112725427D01*
X123290244Y-112664779D01*
X123031250Y-112644396D01*
X122772256Y-112664779D01*
X122519639Y-112725427D01*
X122279620Y-112824847D01*
X122058113Y-112960585D01*
X122058106Y-112960590D01*
X121860560Y-113129310D01*
X121691840Y-113326856D01*
X121691835Y-113326863D01*
X121556097Y-113548370D01*
X121456677Y-113788389D01*
X121406315Y-113998162D01*
X121396029Y-114041006D01*
X121375646Y-114300000D01*
X111481750Y-114300000D01*
X111481750Y-107734108D01*
X111481750Y-107726107D01*
X111481700Y-107725358D01*
X111481701Y-107712474D01*
X125055749Y-107712474D01*
X125055750Y-107766373D01*
X125055750Y-120865891D01*
X125056828Y-120874082D01*
X125056714Y-120874096D01*
X125058148Y-120882232D01*
X125058513Y-120886405D01*
X125088907Y-121058807D01*
X125088911Y-121058822D01*
X125148780Y-121223318D01*
X125148782Y-121223323D01*
X125149429Y-121224443D01*
X125236316Y-121374939D01*
X125236318Y-121374941D01*
X125236319Y-121374943D01*
X125348839Y-121509042D01*
X125348844Y-121509046D01*
X125348847Y-121509050D01*
X125398721Y-121550899D01*
X125482951Y-121621577D01*
X125482956Y-121621581D01*
X125523576Y-121645033D01*
X125634572Y-121709115D01*
X125799084Y-121768990D01*
X125799088Y-121768990D01*
X125799089Y-121768991D01*
X125805533Y-121770127D01*
X125971494Y-121799386D01*
X125973630Y-121799385D01*
X125990096Y-121800465D01*
X125990354Y-121800498D01*
X125990358Y-121800500D01*
X138982062Y-121800500D01*
X138982182Y-121800507D01*
X138990405Y-121800506D01*
X138990408Y-121800507D01*
X139004051Y-121800505D01*
X139004220Y-121800554D01*
X139056300Y-121800549D01*
X139056300Y-121800550D01*
X139143831Y-121800542D01*
X139316231Y-121770127D01*
X139480732Y-121710240D01*
X139480738Y-121710236D01*
X139480743Y-121710234D01*
X139632332Y-121622699D01*
X139632331Y-121622699D01*
X139632334Y-121622698D01*
X139766434Y-121510163D01*
X139878956Y-121376052D01*
X139966482Y-121224441D01*
X140026353Y-121059934D01*
X140056751Y-120887531D01*
X140056750Y-120800000D01*
X140056750Y-120734108D01*
X140056750Y-107734108D01*
X140056750Y-107726107D01*
X140056700Y-107725358D01*
X140056701Y-107712474D01*
X158393249Y-107712474D01*
X158393250Y-107766373D01*
X158393250Y-120865891D01*
X158394328Y-120874082D01*
X158394214Y-120874096D01*
X158395648Y-120882232D01*
X158396013Y-120886405D01*
X158426407Y-121058807D01*
X158426411Y-121058822D01*
X158486280Y-121223318D01*
X158486282Y-121223323D01*
X158486929Y-121224443D01*
X158573816Y-121374939D01*
X158573818Y-121374941D01*
X158573819Y-121374943D01*
X158686339Y-121509042D01*
X158686344Y-121509046D01*
X158686347Y-121509050D01*
X158736221Y-121550899D01*
X158820451Y-121621577D01*
X158820456Y-121621581D01*
X158861076Y-121645033D01*
X158972072Y-121709115D01*
X159136584Y-121768990D01*
X159136588Y-121768990D01*
X159136589Y-121768991D01*
X159143033Y-121770127D01*
X159308994Y-121799386D01*
X159311130Y-121799385D01*
X159327596Y-121800465D01*
X159327854Y-121800498D01*
X159327858Y-121800500D01*
X172319562Y-121800500D01*
X172319682Y-121800507D01*
X172327905Y-121800506D01*
X172327908Y-121800507D01*
X172341551Y-121800505D01*
X172341720Y-121800554D01*
X172393800Y-121800549D01*
X172393800Y-121800550D01*
X172481331Y-121800542D01*
X172653731Y-121770127D01*
X172818232Y-121710240D01*
X172818238Y-121710236D01*
X172818243Y-121710234D01*
X172969832Y-121622699D01*
X172969831Y-121622699D01*
X172969834Y-121622698D01*
X173103934Y-121510163D01*
X173216456Y-121376052D01*
X173303982Y-121224441D01*
X173363853Y-121059934D01*
X173394251Y-120887531D01*
X173394250Y-120800000D01*
X173394250Y-120734108D01*
X173394250Y-114300000D01*
X173763146Y-114300000D01*
X173783529Y-114558994D01*
X173844177Y-114811610D01*
X173943596Y-115051628D01*
X173943597Y-115051629D01*
X174079335Y-115273136D01*
X174079340Y-115273143D01*
X174248060Y-115470689D01*
X174445606Y-115639409D01*
X174445610Y-115639412D01*
X174667122Y-115775154D01*
X174907140Y-115874573D01*
X175159756Y-115935221D01*
X175418750Y-115955604D01*
X175677744Y-115935221D01*
X175930360Y-115874573D01*
X176170378Y-115775154D01*
X176391890Y-115639412D01*
X176589439Y-115470689D01*
X176758162Y-115273140D01*
X176893904Y-115051628D01*
X176993323Y-114811610D01*
X177053971Y-114558994D01*
X177074354Y-114300000D01*
X177053971Y-114041006D01*
X176993323Y-113788390D01*
X176893904Y-113548372D01*
X176758162Y-113326860D01*
X176758159Y-113326856D01*
X176589439Y-113129310D01*
X176391893Y-112960590D01*
X176391886Y-112960585D01*
X176262010Y-112880998D01*
X176170378Y-112824846D01*
X175930360Y-112725427D01*
X175677744Y-112664779D01*
X175418750Y-112644396D01*
X175159756Y-112664779D01*
X174907139Y-112725427D01*
X174667120Y-112824847D01*
X174445613Y-112960585D01*
X174445606Y-112960590D01*
X174248060Y-113129310D01*
X174079340Y-113326856D01*
X174079335Y-113326863D01*
X173943597Y-113548370D01*
X173844177Y-113788389D01*
X173793815Y-113998162D01*
X173783529Y-114041006D01*
X173763146Y-114300000D01*
X173394250Y-114300000D01*
X173394250Y-107734108D01*
X173394250Y-107726107D01*
X173394200Y-107725358D01*
X173394201Y-107712474D01*
X186968249Y-107712474D01*
X186968250Y-107766373D01*
X186968250Y-120865891D01*
X186969328Y-120874082D01*
X186969214Y-120874096D01*
X186970648Y-120882232D01*
X186971013Y-120886405D01*
X187001407Y-121058807D01*
X187001411Y-121058822D01*
X187061280Y-121223318D01*
X187061282Y-121223323D01*
X187061929Y-121224443D01*
X187148816Y-121374939D01*
X187148818Y-121374941D01*
X187148819Y-121374943D01*
X187261339Y-121509042D01*
X187261344Y-121509046D01*
X187261347Y-121509050D01*
X187311221Y-121550899D01*
X187395451Y-121621577D01*
X187395456Y-121621581D01*
X187436076Y-121645033D01*
X187547072Y-121709115D01*
X187711584Y-121768990D01*
X187711588Y-121768990D01*
X187711589Y-121768991D01*
X187718033Y-121770127D01*
X187883994Y-121799386D01*
X187886130Y-121799385D01*
X187902596Y-121800465D01*
X187902854Y-121800498D01*
X187902858Y-121800500D01*
X200894562Y-121800500D01*
X200894682Y-121800507D01*
X200902905Y-121800506D01*
X200902908Y-121800507D01*
X200916551Y-121800505D01*
X200916720Y-121800554D01*
X200968800Y-121800549D01*
X200968800Y-121800550D01*
X201056331Y-121800542D01*
X201228731Y-121770127D01*
X201393232Y-121710240D01*
X201393238Y-121710236D01*
X201393243Y-121710234D01*
X201544832Y-121622699D01*
X201544831Y-121622699D01*
X201544834Y-121622698D01*
X201678934Y-121510163D01*
X201791456Y-121376052D01*
X201878982Y-121224441D01*
X201938853Y-121059934D01*
X201969251Y-120887531D01*
X201969250Y-120800000D01*
X201969250Y-120734108D01*
X201969250Y-114300000D01*
X204719396Y-114300000D01*
X204739779Y-114558994D01*
X204800427Y-114811610D01*
X204899846Y-115051628D01*
X204899847Y-115051629D01*
X205035585Y-115273136D01*
X205035590Y-115273143D01*
X205204310Y-115470689D01*
X205401856Y-115639409D01*
X205401860Y-115639412D01*
X205623372Y-115775154D01*
X205863390Y-115874573D01*
X206116006Y-115935221D01*
X206375000Y-115955604D01*
X206633994Y-115935221D01*
X206886610Y-115874573D01*
X207126628Y-115775154D01*
X207348140Y-115639412D01*
X207545689Y-115470689D01*
X207714412Y-115273140D01*
X207850154Y-115051628D01*
X207949573Y-114811610D01*
X208010221Y-114558994D01*
X208030604Y-114300000D01*
X208010221Y-114041006D01*
X207949573Y-113788390D01*
X207850154Y-113548372D01*
X207714412Y-113326860D01*
X207714409Y-113326856D01*
X207545689Y-113129310D01*
X207348143Y-112960590D01*
X207348136Y-112960585D01*
X207218260Y-112880998D01*
X207126628Y-112824846D01*
X206886610Y-112725427D01*
X206633994Y-112664779D01*
X206375000Y-112644396D01*
X206116006Y-112664779D01*
X205863389Y-112725427D01*
X205623370Y-112824847D01*
X205401863Y-112960585D01*
X205401856Y-112960590D01*
X205204310Y-113129310D01*
X205035590Y-113326856D01*
X205035585Y-113326863D01*
X204899847Y-113548370D01*
X204800427Y-113788389D01*
X204750065Y-113998162D01*
X204739779Y-114041006D01*
X204719396Y-114300000D01*
X201969250Y-114300000D01*
X201969250Y-107734108D01*
X201969250Y-107726107D01*
X201969200Y-107725358D01*
X201969201Y-107712473D01*
X201969200Y-107712468D01*
X208399500Y-107712468D01*
X208399500Y-107734108D01*
X208399500Y-120865892D01*
X208399501Y-120865895D01*
X208400578Y-120874075D01*
X208400487Y-120874086D01*
X208401973Y-120882511D01*
X208402312Y-120886390D01*
X208402313Y-120886395D01*
X208402313Y-120886397D01*
X208402513Y-120887530D01*
X208432704Y-121058794D01*
X208492567Y-121223291D01*
X208492571Y-121223300D01*
X208580093Y-121374907D01*
X208692610Y-121509014D01*
X208826703Y-121621545D01*
X208828700Y-121622698D01*
X208978307Y-121709085D01*
X209142803Y-121768968D01*
X209142807Y-121768968D01*
X209142808Y-121768969D01*
X209142807Y-121768969D01*
X209315197Y-121799378D01*
X209315199Y-121799378D01*
X209317333Y-121799378D01*
X209333784Y-121800457D01*
X209334106Y-121800499D01*
X209334108Y-121800500D01*
X209334110Y-121800500D01*
X222487531Y-121800500D01*
X222487532Y-121800500D01*
X222659938Y-121770101D01*
X222824445Y-121710225D01*
X222976055Y-121622692D01*
X223110163Y-121510163D01*
X223222692Y-121376055D01*
X223310225Y-121224445D01*
X223370101Y-121059938D01*
X223400500Y-120887532D01*
X223400500Y-120800000D01*
X223400500Y-120734108D01*
X223400500Y-107734108D01*
X223400500Y-107712468D01*
X223370101Y-107540062D01*
X223310225Y-107375555D01*
X223222692Y-107223945D01*
X223110163Y-107089837D01*
X222976055Y-106977308D01*
X222824445Y-106889775D01*
X222824444Y-106889774D01*
X222824443Y-106889774D01*
X222824441Y-106889773D01*
X222659937Y-106829898D01*
X222517930Y-106804859D01*
X222487532Y-106799500D01*
X222465892Y-106799500D01*
X209465892Y-106799500D01*
X209400000Y-106799500D01*
X209312468Y-106799500D01*
X209282070Y-106804859D01*
X209140063Y-106829898D01*
X209140061Y-106829898D01*
X208975558Y-106889773D01*
X208975556Y-106889774D01*
X208975501Y-106889806D01*
X208823956Y-106977302D01*
X208823940Y-106977311D01*
X208689837Y-107089837D01*
X208577311Y-107223940D01*
X208489774Y-107375556D01*
X208489773Y-107375558D01*
X208429898Y-107540061D01*
X208429898Y-107540063D01*
X208399501Y-107712463D01*
X208399500Y-107712468D01*
X201969200Y-107712468D01*
X201938805Y-107540079D01*
X201938800Y-107540066D01*
X201878936Y-107375577D01*
X201791418Y-107223982D01*
X201791417Y-107223981D01*
X201791415Y-107223977D01*
X201678898Y-107089873D01*
X201678896Y-107089871D01*
X201678895Y-107089870D01*
X201544807Y-106977344D01*
X201544806Y-106977343D01*
X201480749Y-106940353D01*
X201393212Y-106889806D01*
X201228721Y-106829921D01*
X201056328Y-106799508D01*
X201043072Y-106799506D01*
X201042970Y-106799500D01*
X201034642Y-106799500D01*
X200968800Y-106799500D01*
X200968736Y-106799499D01*
X200894682Y-106799492D01*
X200894562Y-106799500D01*
X188042938Y-106799500D01*
X188042817Y-106799492D01*
X188020943Y-106799494D01*
X188020776Y-106799445D01*
X187881165Y-106799458D01*
X187708766Y-106829873D01*
X187544268Y-106889759D01*
X187544256Y-106889765D01*
X187392667Y-106977300D01*
X187392663Y-106977303D01*
X187258571Y-107089832D01*
X187258565Y-107089837D01*
X187146045Y-107223945D01*
X187058517Y-107375559D01*
X186998647Y-107540062D01*
X186998647Y-107540064D01*
X186968250Y-107712463D01*
X186968250Y-107712468D01*
X186968249Y-107712474D01*
X173394201Y-107712474D01*
X173394201Y-107712473D01*
X173363805Y-107540079D01*
X173363800Y-107540066D01*
X173303936Y-107375577D01*
X173216418Y-107223982D01*
X173216417Y-107223981D01*
X173216415Y-107223977D01*
X173103898Y-107089873D01*
X173103896Y-107089871D01*
X173103895Y-107089870D01*
X172969807Y-106977344D01*
X172969806Y-106977343D01*
X172905749Y-106940353D01*
X172818212Y-106889806D01*
X172653721Y-106829921D01*
X172481328Y-106799508D01*
X172468072Y-106799506D01*
X172467970Y-106799500D01*
X172459642Y-106799500D01*
X172393800Y-106799500D01*
X172393736Y-106799499D01*
X172319682Y-106799492D01*
X172319562Y-106799500D01*
X159467938Y-106799500D01*
X159467817Y-106799492D01*
X159445943Y-106799494D01*
X159445776Y-106799445D01*
X159306165Y-106799458D01*
X159133766Y-106829873D01*
X158969268Y-106889759D01*
X158969256Y-106889765D01*
X158817667Y-106977300D01*
X158817663Y-106977303D01*
X158683571Y-107089832D01*
X158683565Y-107089837D01*
X158571045Y-107223945D01*
X158483517Y-107375559D01*
X158423647Y-107540062D01*
X158423647Y-107540064D01*
X158393250Y-107712463D01*
X158393250Y-107712468D01*
X158393249Y-107712474D01*
X140056701Y-107712474D01*
X140056701Y-107712473D01*
X140026305Y-107540079D01*
X140026300Y-107540066D01*
X139966436Y-107375577D01*
X139878918Y-107223982D01*
X139878917Y-107223981D01*
X139878915Y-107223977D01*
X139766398Y-107089873D01*
X139766396Y-107089871D01*
X139766395Y-107089870D01*
X139632307Y-106977344D01*
X139632306Y-106977343D01*
X139568249Y-106940353D01*
X139480712Y-106889806D01*
X139316221Y-106829921D01*
X139143828Y-106799508D01*
X139130572Y-106799506D01*
X139130470Y-106799500D01*
X139122142Y-106799500D01*
X139056300Y-106799500D01*
X139056236Y-106799499D01*
X138982182Y-106799492D01*
X138982062Y-106799500D01*
X126130438Y-106799500D01*
X126130317Y-106799492D01*
X126108443Y-106799494D01*
X126108276Y-106799445D01*
X125968665Y-106799458D01*
X125796266Y-106829873D01*
X125631768Y-106889759D01*
X125631756Y-106889765D01*
X125480167Y-106977300D01*
X125480163Y-106977303D01*
X125346071Y-107089832D01*
X125346065Y-107089837D01*
X125233545Y-107223945D01*
X125146017Y-107375559D01*
X125086147Y-107540062D01*
X125086147Y-107540064D01*
X125055750Y-107712463D01*
X125055750Y-107712468D01*
X125055749Y-107712474D01*
X111481701Y-107712474D01*
X111481701Y-107712473D01*
X111451305Y-107540079D01*
X111451300Y-107540066D01*
X111391436Y-107375577D01*
X111303918Y-107223982D01*
X111303917Y-107223981D01*
X111303915Y-107223977D01*
X111191398Y-107089873D01*
X111191396Y-107089871D01*
X111191395Y-107089870D01*
X111057307Y-106977344D01*
X111057306Y-106977343D01*
X110993249Y-106940353D01*
X110905712Y-106889806D01*
X110741221Y-106829921D01*
X110568828Y-106799508D01*
X110555572Y-106799506D01*
X110555470Y-106799500D01*
X110547142Y-106799500D01*
X110481300Y-106799500D01*
X110481236Y-106799499D01*
X110407182Y-106799492D01*
X110407062Y-106799500D01*
X97555438Y-106799500D01*
X97555317Y-106799492D01*
X97533443Y-106799494D01*
X97533276Y-106799445D01*
X97393665Y-106799458D01*
X97221266Y-106829873D01*
X97056768Y-106889759D01*
X97056756Y-106889765D01*
X96905167Y-106977300D01*
X96905163Y-106977303D01*
X96771071Y-107089832D01*
X96771065Y-107089837D01*
X96658545Y-107223945D01*
X96571017Y-107375559D01*
X96511147Y-107540062D01*
X96511147Y-107540064D01*
X96480750Y-107712463D01*
X96480750Y-107712468D01*
X96480749Y-107712474D01*
X90050500Y-107712474D01*
X90050500Y-107712468D01*
X90020101Y-107540062D01*
X89960225Y-107375555D01*
X89872692Y-107223945D01*
X89760163Y-107089837D01*
X89626055Y-106977308D01*
X89474445Y-106889775D01*
X89474444Y-106889774D01*
X89474443Y-106889774D01*
X89474441Y-106889773D01*
X89309937Y-106829898D01*
X89167930Y-106804859D01*
X89137532Y-106799500D01*
X89115892Y-106799500D01*
X76115892Y-106799500D01*
X76050000Y-106799500D01*
X75962468Y-106799500D01*
X75932070Y-106804859D01*
X75790063Y-106829898D01*
X75790061Y-106829898D01*
X75625558Y-106889773D01*
X75625556Y-106889774D01*
X75625501Y-106889806D01*
X75473956Y-106977302D01*
X75473940Y-106977311D01*
X75339837Y-107089837D01*
X75227311Y-107223940D01*
X75139774Y-107375556D01*
X75139773Y-107375558D01*
X75079898Y-107540061D01*
X75079898Y-107540063D01*
X75049501Y-107712463D01*
X75049500Y-107712468D01*
X72950500Y-107712468D01*
X72950500Y-107027191D01*
X72950501Y-107027187D01*
X72950501Y-106853379D01*
X72948367Y-106838534D01*
X72915884Y-106612608D01*
X72847354Y-106379217D01*
X72746306Y-106157954D01*
X72614798Y-105953324D01*
X72455507Y-105769492D01*
X72271675Y-105610201D01*
X72271673Y-105610200D01*
X72271670Y-105610197D01*
X72067046Y-105478693D01*
X71845783Y-105377646D01*
X71612395Y-105309117D01*
X71612393Y-105309116D01*
X71612391Y-105309116D01*
X71371622Y-105274499D01*
X71371618Y-105274499D01*
X46978539Y-105274499D01*
X46971474Y-105274301D01*
X46691013Y-105258550D01*
X46676972Y-105256968D01*
X46403533Y-105210509D01*
X46389758Y-105207365D01*
X46123237Y-105130582D01*
X46109900Y-105125915D01*
X45853656Y-105019775D01*
X45840925Y-105013644D01*
X45598179Y-104879483D01*
X45586215Y-104871966D01*
X45360008Y-104711463D01*
X45348961Y-104702653D01*
X45142152Y-104517837D01*
X45132161Y-104507846D01*
X44947346Y-104301038D01*
X44938536Y-104289991D01*
X44778033Y-104063783D01*
X44770516Y-104051819D01*
X44636355Y-103809073D01*
X44630224Y-103796342D01*
X44540100Y-103578763D01*
X44524081Y-103540089D01*
X44519420Y-103526769D01*
X44442632Y-103260232D01*
X44439492Y-103246474D01*
X44393030Y-102973024D01*
X44391449Y-102958985D01*
X44390046Y-102933999D01*
X45060396Y-102933999D01*
X45080779Y-103192993D01*
X45141427Y-103445609D01*
X45240846Y-103685627D01*
X45240847Y-103685628D01*
X45376585Y-103907135D01*
X45376590Y-103907142D01*
X45545310Y-104104688D01*
X45675954Y-104216268D01*
X45742860Y-104273411D01*
X45964372Y-104409153D01*
X46204390Y-104508572D01*
X46457006Y-104569220D01*
X46716000Y-104589603D01*
X46974994Y-104569220D01*
X47227610Y-104508572D01*
X47467628Y-104409153D01*
X47689140Y-104273411D01*
X47886689Y-104104688D01*
X48055412Y-103907139D01*
X48191154Y-103685627D01*
X48290573Y-103445609D01*
X48351221Y-103192993D01*
X48371604Y-102933999D01*
X250078771Y-102933999D01*
X250099154Y-103192993D01*
X250159802Y-103445609D01*
X250259221Y-103685627D01*
X250259222Y-103685628D01*
X250394960Y-103907135D01*
X250394965Y-103907142D01*
X250563685Y-104104688D01*
X250694329Y-104216268D01*
X250761235Y-104273411D01*
X250982747Y-104409153D01*
X251222765Y-104508572D01*
X251475381Y-104569220D01*
X251734375Y-104589603D01*
X251993369Y-104569220D01*
X252245985Y-104508572D01*
X252486003Y-104409153D01*
X252707515Y-104273411D01*
X252905064Y-104104688D01*
X253073787Y-103907139D01*
X253209529Y-103685627D01*
X253308948Y-103445609D01*
X253369596Y-103192993D01*
X253389979Y-102933999D01*
X253369596Y-102675005D01*
X253308948Y-102422389D01*
X253209529Y-102182371D01*
X253073787Y-101960859D01*
X252968455Y-101837531D01*
X252905064Y-101763309D01*
X252707518Y-101594589D01*
X252707511Y-101594584D01*
X252577635Y-101514997D01*
X252486003Y-101458845D01*
X252245985Y-101359426D01*
X251993369Y-101298778D01*
X251734375Y-101278395D01*
X251475381Y-101298778D01*
X251222764Y-101359426D01*
X250982745Y-101458846D01*
X250761238Y-101594584D01*
X250761231Y-101594589D01*
X250563685Y-101763309D01*
X250394965Y-101960855D01*
X250394960Y-101960862D01*
X250259222Y-102182369D01*
X250159802Y-102422388D01*
X250123993Y-102571545D01*
X250099154Y-102675005D01*
X250078771Y-102933999D01*
X48371604Y-102933999D01*
X48351221Y-102675005D01*
X48290573Y-102422389D01*
X48191154Y-102182371D01*
X48055412Y-101960859D01*
X47950080Y-101837531D01*
X47886689Y-101763309D01*
X47689143Y-101594589D01*
X47689136Y-101594584D01*
X47559260Y-101514997D01*
X47467628Y-101458845D01*
X47227610Y-101359426D01*
X46974994Y-101298778D01*
X46716000Y-101278395D01*
X46457006Y-101298778D01*
X46204389Y-101359426D01*
X45964370Y-101458846D01*
X45742863Y-101594584D01*
X45742856Y-101594589D01*
X45545310Y-101763309D01*
X45376590Y-101960855D01*
X45376585Y-101960862D01*
X45240847Y-102182369D01*
X45141427Y-102422388D01*
X45105618Y-102571545D01*
X45080779Y-102675005D01*
X45060396Y-102933999D01*
X44390046Y-102933999D01*
X44379201Y-102740894D01*
X44375697Y-102678505D01*
X44375500Y-102671443D01*
X44375500Y-88662474D01*
X53618249Y-88662474D01*
X53618250Y-88716373D01*
X53618250Y-101815891D01*
X53619328Y-101824082D01*
X53619214Y-101824096D01*
X53620648Y-101832232D01*
X53621013Y-101836405D01*
X53651407Y-102008807D01*
X53651411Y-102008822D01*
X53711280Y-102173318D01*
X53711282Y-102173323D01*
X53711929Y-102174443D01*
X53798816Y-102324939D01*
X53798818Y-102324941D01*
X53798819Y-102324943D01*
X53911339Y-102459042D01*
X53911344Y-102459046D01*
X53911347Y-102459050D01*
X53961221Y-102500899D01*
X54045451Y-102571577D01*
X54045456Y-102571581D01*
X54086076Y-102595033D01*
X54197072Y-102659115D01*
X54361584Y-102718990D01*
X54361588Y-102718990D01*
X54361589Y-102718991D01*
X54368033Y-102720127D01*
X54533994Y-102749386D01*
X54536130Y-102749385D01*
X54552596Y-102750465D01*
X54552854Y-102750498D01*
X54552858Y-102750500D01*
X67544562Y-102750500D01*
X67544682Y-102750507D01*
X67552905Y-102750506D01*
X67552908Y-102750507D01*
X67566551Y-102750505D01*
X67566720Y-102750554D01*
X67618800Y-102750549D01*
X67618800Y-102750550D01*
X67706331Y-102750542D01*
X67878731Y-102720127D01*
X68043232Y-102660240D01*
X68043238Y-102660236D01*
X68043243Y-102660234D01*
X68194832Y-102572699D01*
X68194831Y-102572699D01*
X68194834Y-102572698D01*
X68328934Y-102460163D01*
X68441456Y-102326052D01*
X68528982Y-102174441D01*
X68588853Y-102009934D01*
X68619251Y-101837531D01*
X68619250Y-101750000D01*
X68619250Y-101684108D01*
X68619250Y-95250000D01*
X68988146Y-95250000D01*
X69008529Y-95508994D01*
X69069177Y-95761610D01*
X69168596Y-96001628D01*
X69168597Y-96001629D01*
X69304335Y-96223136D01*
X69304340Y-96223143D01*
X69473060Y-96420689D01*
X69670606Y-96589409D01*
X69670610Y-96589412D01*
X69892122Y-96725154D01*
X70132140Y-96824573D01*
X70384756Y-96885221D01*
X70643750Y-96905604D01*
X70902744Y-96885221D01*
X71155360Y-96824573D01*
X71395378Y-96725154D01*
X71616890Y-96589412D01*
X71814439Y-96420689D01*
X71983162Y-96223140D01*
X72118904Y-96001628D01*
X72218323Y-95761610D01*
X72278971Y-95508994D01*
X72299354Y-95250000D01*
X72278971Y-94991006D01*
X72218323Y-94738390D01*
X72118904Y-94498372D01*
X71983162Y-94276860D01*
X71983159Y-94276856D01*
X71814439Y-94079310D01*
X71616893Y-93910590D01*
X71616886Y-93910585D01*
X71487010Y-93830998D01*
X71395378Y-93774846D01*
X71155360Y-93675427D01*
X70902744Y-93614779D01*
X70643750Y-93594396D01*
X70384756Y-93614779D01*
X70132139Y-93675427D01*
X69892120Y-93774847D01*
X69670613Y-93910585D01*
X69670606Y-93910590D01*
X69473060Y-94079310D01*
X69304340Y-94276856D01*
X69304335Y-94276863D01*
X69168597Y-94498370D01*
X69069177Y-94738389D01*
X69018815Y-94948162D01*
X69008529Y-94991006D01*
X68988146Y-95250000D01*
X68619250Y-95250000D01*
X68619250Y-88684108D01*
X68619250Y-88676107D01*
X68619200Y-88675358D01*
X68619201Y-88662473D01*
X68619200Y-88662468D01*
X79812000Y-88662468D01*
X79812000Y-88684108D01*
X79812000Y-101815892D01*
X79812001Y-101815895D01*
X79813078Y-101824075D01*
X79812987Y-101824086D01*
X79814473Y-101832511D01*
X79814812Y-101836390D01*
X79814813Y-101836395D01*
X79814813Y-101836397D01*
X79815013Y-101837530D01*
X79845204Y-102008794D01*
X79905067Y-102173291D01*
X79905071Y-102173300D01*
X79992593Y-102324907D01*
X80105110Y-102459014D01*
X80239203Y-102571545D01*
X80241200Y-102572698D01*
X80390807Y-102659085D01*
X80555303Y-102718968D01*
X80555307Y-102718968D01*
X80555308Y-102718969D01*
X80555307Y-102718969D01*
X80727697Y-102749378D01*
X80727699Y-102749378D01*
X80729833Y-102749378D01*
X80746284Y-102750457D01*
X80746606Y-102750499D01*
X80746608Y-102750500D01*
X80746610Y-102750500D01*
X93900031Y-102750500D01*
X93900032Y-102750500D01*
X94072438Y-102720101D01*
X94236945Y-102660225D01*
X94388555Y-102572692D01*
X94522663Y-102460163D01*
X94635192Y-102326055D01*
X94722725Y-102174445D01*
X94782601Y-102009938D01*
X94813000Y-101837532D01*
X94813000Y-101750000D01*
X94813000Y-101684108D01*
X94813000Y-88684108D01*
X94813000Y-88662468D01*
X98862000Y-88662468D01*
X98862000Y-88684108D01*
X98862000Y-101815892D01*
X98862001Y-101815895D01*
X98863078Y-101824075D01*
X98862987Y-101824086D01*
X98864473Y-101832511D01*
X98864812Y-101836390D01*
X98864813Y-101836395D01*
X98864813Y-101836397D01*
X98865013Y-101837530D01*
X98895204Y-102008794D01*
X98955067Y-102173291D01*
X98955071Y-102173300D01*
X99042593Y-102324907D01*
X99155110Y-102459014D01*
X99289203Y-102571545D01*
X99291200Y-102572698D01*
X99440807Y-102659085D01*
X99605303Y-102718968D01*
X99605307Y-102718968D01*
X99605308Y-102718969D01*
X99605307Y-102718969D01*
X99777697Y-102749378D01*
X99777699Y-102749378D01*
X99779833Y-102749378D01*
X99796284Y-102750457D01*
X99796606Y-102750499D01*
X99796608Y-102750500D01*
X99796610Y-102750500D01*
X112950031Y-102750500D01*
X112950032Y-102750500D01*
X113122438Y-102720101D01*
X113286945Y-102660225D01*
X113438555Y-102572692D01*
X113572663Y-102460163D01*
X113685192Y-102326055D01*
X113772725Y-102174445D01*
X113832601Y-102009938D01*
X113863000Y-101837532D01*
X113863000Y-101750000D01*
X113863000Y-101684108D01*
X113863000Y-95250000D01*
X114231896Y-95250000D01*
X114252279Y-95508994D01*
X114312927Y-95761610D01*
X114412346Y-96001628D01*
X114412347Y-96001629D01*
X114548085Y-96223136D01*
X114548090Y-96223143D01*
X114716810Y-96420689D01*
X114914356Y-96589409D01*
X114914360Y-96589412D01*
X115135872Y-96725154D01*
X115375890Y-96824573D01*
X115628506Y-96885221D01*
X115887500Y-96905604D01*
X116146494Y-96885221D01*
X116399110Y-96824573D01*
X116639128Y-96725154D01*
X116860640Y-96589412D01*
X117058189Y-96420689D01*
X117226912Y-96223140D01*
X117362654Y-96001628D01*
X117462073Y-95761610D01*
X117522721Y-95508994D01*
X117543104Y-95250000D01*
X117522721Y-94991006D01*
X117462073Y-94738390D01*
X117362654Y-94498372D01*
X117226912Y-94276860D01*
X117226909Y-94276856D01*
X117058189Y-94079310D01*
X116860643Y-93910590D01*
X116860636Y-93910585D01*
X116730760Y-93830998D01*
X116639128Y-93774846D01*
X116399110Y-93675427D01*
X116146494Y-93614779D01*
X115887500Y-93594396D01*
X115628506Y-93614779D01*
X115375889Y-93675427D01*
X115135870Y-93774847D01*
X114914363Y-93910585D01*
X114914356Y-93910590D01*
X114716810Y-94079310D01*
X114548090Y-94276856D01*
X114548085Y-94276863D01*
X114412347Y-94498370D01*
X114312927Y-94738389D01*
X114262565Y-94948162D01*
X114252279Y-94991006D01*
X114231896Y-95250000D01*
X113863000Y-95250000D01*
X113863000Y-88684108D01*
X113863000Y-88662468D01*
X117912000Y-88662468D01*
X117912000Y-88684108D01*
X117912000Y-101815892D01*
X117912001Y-101815895D01*
X117913078Y-101824075D01*
X117912987Y-101824086D01*
X117914473Y-101832511D01*
X117914812Y-101836390D01*
X117914813Y-101836395D01*
X117914813Y-101836397D01*
X117915013Y-101837530D01*
X117945204Y-102008794D01*
X118005067Y-102173291D01*
X118005071Y-102173300D01*
X118092593Y-102324907D01*
X118205110Y-102459014D01*
X118339203Y-102571545D01*
X118341200Y-102572698D01*
X118490807Y-102659085D01*
X118655303Y-102718968D01*
X118655307Y-102718968D01*
X118655308Y-102718969D01*
X118655307Y-102718969D01*
X118827697Y-102749378D01*
X118827699Y-102749378D01*
X118829833Y-102749378D01*
X118846284Y-102750457D01*
X118846606Y-102750499D01*
X118846608Y-102750500D01*
X118846610Y-102750500D01*
X132000031Y-102750500D01*
X132000032Y-102750500D01*
X132172438Y-102720101D01*
X132336945Y-102660225D01*
X132488555Y-102572692D01*
X132622663Y-102460163D01*
X132735192Y-102326055D01*
X132822725Y-102174445D01*
X132882601Y-102009938D01*
X132913000Y-101837532D01*
X132913000Y-101750000D01*
X132913000Y-101684108D01*
X132913000Y-88684108D01*
X132913000Y-88662468D01*
X136962000Y-88662468D01*
X136962000Y-88684108D01*
X136962000Y-101815892D01*
X136962001Y-101815895D01*
X136963078Y-101824075D01*
X136962987Y-101824086D01*
X136964473Y-101832511D01*
X136964812Y-101836390D01*
X136964813Y-101836395D01*
X136964813Y-101836397D01*
X136965013Y-101837530D01*
X136995204Y-102008794D01*
X137055067Y-102173291D01*
X137055071Y-102173300D01*
X137142593Y-102324907D01*
X137255110Y-102459014D01*
X137389203Y-102571545D01*
X137391200Y-102572698D01*
X137540807Y-102659085D01*
X137705303Y-102718968D01*
X137705307Y-102718968D01*
X137705308Y-102718969D01*
X137705307Y-102718969D01*
X137877697Y-102749378D01*
X137877699Y-102749378D01*
X137879833Y-102749378D01*
X137896284Y-102750457D01*
X137896606Y-102750499D01*
X137896608Y-102750500D01*
X137896610Y-102750500D01*
X151050031Y-102750500D01*
X151050032Y-102750500D01*
X151222438Y-102720101D01*
X151386945Y-102660225D01*
X151538555Y-102572692D01*
X151672663Y-102460163D01*
X151785192Y-102326055D01*
X151872725Y-102174445D01*
X151932601Y-102009938D01*
X151963000Y-101837532D01*
X151963000Y-101750000D01*
X151963000Y-101684108D01*
X151963000Y-95250000D01*
X152331896Y-95250000D01*
X152352279Y-95508994D01*
X152412927Y-95761610D01*
X152512346Y-96001628D01*
X152512347Y-96001629D01*
X152648085Y-96223136D01*
X152648090Y-96223143D01*
X152816810Y-96420689D01*
X153014356Y-96589409D01*
X153014360Y-96589412D01*
X153235872Y-96725154D01*
X153475890Y-96824573D01*
X153728506Y-96885221D01*
X153987500Y-96905604D01*
X154246494Y-96885221D01*
X154499110Y-96824573D01*
X154739128Y-96725154D01*
X154960640Y-96589412D01*
X155158189Y-96420689D01*
X155326912Y-96223140D01*
X155462654Y-96001628D01*
X155562073Y-95761610D01*
X155622721Y-95508994D01*
X155643104Y-95250000D01*
X155622721Y-94991006D01*
X155562073Y-94738390D01*
X155462654Y-94498372D01*
X155326912Y-94276860D01*
X155326909Y-94276856D01*
X155158189Y-94079310D01*
X154960643Y-93910590D01*
X154960636Y-93910585D01*
X154830760Y-93830998D01*
X154739128Y-93774846D01*
X154499110Y-93675427D01*
X154246494Y-93614779D01*
X153987500Y-93594396D01*
X153728506Y-93614779D01*
X153475889Y-93675427D01*
X153235870Y-93774847D01*
X153014363Y-93910585D01*
X153014356Y-93910590D01*
X152816810Y-94079310D01*
X152648090Y-94276856D01*
X152648085Y-94276863D01*
X152512347Y-94498370D01*
X152412927Y-94738389D01*
X152362565Y-94948162D01*
X152352279Y-94991006D01*
X152331896Y-95250000D01*
X151963000Y-95250000D01*
X151963000Y-88684108D01*
X151963000Y-88662468D01*
X156012000Y-88662468D01*
X156012000Y-88684108D01*
X156012000Y-101815892D01*
X156012001Y-101815895D01*
X156013078Y-101824075D01*
X156012987Y-101824086D01*
X156014473Y-101832511D01*
X156014812Y-101836390D01*
X156014813Y-101836395D01*
X156014813Y-101836397D01*
X156015013Y-101837530D01*
X156045204Y-102008794D01*
X156105067Y-102173291D01*
X156105071Y-102173300D01*
X156192593Y-102324907D01*
X156305110Y-102459014D01*
X156439203Y-102571545D01*
X156441200Y-102572698D01*
X156590807Y-102659085D01*
X156755303Y-102718968D01*
X156755307Y-102718968D01*
X156755308Y-102718969D01*
X156755307Y-102718969D01*
X156927697Y-102749378D01*
X156927699Y-102749378D01*
X156929833Y-102749378D01*
X156946284Y-102750457D01*
X156946606Y-102750499D01*
X156946608Y-102750500D01*
X156946610Y-102750500D01*
X170100031Y-102750500D01*
X170100032Y-102750500D01*
X170272438Y-102720101D01*
X170436945Y-102660225D01*
X170588555Y-102572692D01*
X170722663Y-102460163D01*
X170835192Y-102326055D01*
X170922725Y-102174445D01*
X170982601Y-102009938D01*
X171013000Y-101837532D01*
X171013000Y-101750000D01*
X171013000Y-101684108D01*
X171013000Y-88684108D01*
X171013000Y-88662468D01*
X175062000Y-88662468D01*
X175062000Y-88684108D01*
X175062000Y-101815892D01*
X175062001Y-101815895D01*
X175063078Y-101824075D01*
X175062987Y-101824086D01*
X175064473Y-101832511D01*
X175064812Y-101836390D01*
X175064813Y-101836395D01*
X175064813Y-101836397D01*
X175065013Y-101837530D01*
X175095204Y-102008794D01*
X175155067Y-102173291D01*
X175155071Y-102173300D01*
X175242593Y-102324907D01*
X175355110Y-102459014D01*
X175489203Y-102571545D01*
X175491200Y-102572698D01*
X175640807Y-102659085D01*
X175805303Y-102718968D01*
X175805307Y-102718968D01*
X175805308Y-102718969D01*
X175805307Y-102718969D01*
X175977697Y-102749378D01*
X175977699Y-102749378D01*
X175979833Y-102749378D01*
X175996284Y-102750457D01*
X175996606Y-102750499D01*
X175996608Y-102750500D01*
X175996610Y-102750500D01*
X189150031Y-102750500D01*
X189150032Y-102750500D01*
X189322438Y-102720101D01*
X189486945Y-102660225D01*
X189638555Y-102572692D01*
X189772663Y-102460163D01*
X189885192Y-102326055D01*
X189972725Y-102174445D01*
X190032601Y-102009938D01*
X190063000Y-101837532D01*
X190063000Y-101750000D01*
X190063000Y-101684108D01*
X190063000Y-95250000D01*
X190431896Y-95250000D01*
X190452279Y-95508994D01*
X190512927Y-95761610D01*
X190612346Y-96001628D01*
X190612347Y-96001629D01*
X190748085Y-96223136D01*
X190748090Y-96223143D01*
X190916810Y-96420689D01*
X191114356Y-96589409D01*
X191114360Y-96589412D01*
X191335872Y-96725154D01*
X191575890Y-96824573D01*
X191828506Y-96885221D01*
X192087500Y-96905604D01*
X192346494Y-96885221D01*
X192599110Y-96824573D01*
X192839128Y-96725154D01*
X193060640Y-96589412D01*
X193258189Y-96420689D01*
X193426912Y-96223140D01*
X193562654Y-96001628D01*
X193662073Y-95761610D01*
X193722721Y-95508994D01*
X193743104Y-95250000D01*
X193722721Y-94991006D01*
X193662073Y-94738390D01*
X193562654Y-94498372D01*
X193426912Y-94276860D01*
X193426909Y-94276856D01*
X193258189Y-94079310D01*
X193060643Y-93910590D01*
X193060636Y-93910585D01*
X192930760Y-93830998D01*
X192839128Y-93774846D01*
X192599110Y-93675427D01*
X192346494Y-93614779D01*
X192087500Y-93594396D01*
X191828506Y-93614779D01*
X191575889Y-93675427D01*
X191335870Y-93774847D01*
X191114363Y-93910585D01*
X191114356Y-93910590D01*
X190916810Y-94079310D01*
X190748090Y-94276856D01*
X190748085Y-94276863D01*
X190612347Y-94498370D01*
X190512927Y-94738389D01*
X190462565Y-94948162D01*
X190452279Y-94991006D01*
X190431896Y-95250000D01*
X190063000Y-95250000D01*
X190063000Y-88684108D01*
X190063000Y-88662468D01*
X194112000Y-88662468D01*
X194112000Y-88684108D01*
X194112000Y-101815892D01*
X194112001Y-101815895D01*
X194113078Y-101824075D01*
X194112987Y-101824086D01*
X194114473Y-101832511D01*
X194114812Y-101836390D01*
X194114813Y-101836395D01*
X194114813Y-101836397D01*
X194115013Y-101837530D01*
X194145204Y-102008794D01*
X194205067Y-102173291D01*
X194205071Y-102173300D01*
X194292593Y-102324907D01*
X194405110Y-102459014D01*
X194539203Y-102571545D01*
X194541200Y-102572698D01*
X194690807Y-102659085D01*
X194855303Y-102718968D01*
X194855307Y-102718968D01*
X194855308Y-102718969D01*
X194855307Y-102718969D01*
X195027697Y-102749378D01*
X195027699Y-102749378D01*
X195029833Y-102749378D01*
X195046284Y-102750457D01*
X195046606Y-102750499D01*
X195046608Y-102750500D01*
X195046610Y-102750500D01*
X208200031Y-102750500D01*
X208200032Y-102750500D01*
X208372438Y-102720101D01*
X208536945Y-102660225D01*
X208688555Y-102572692D01*
X208822663Y-102460163D01*
X208935192Y-102326055D01*
X209022725Y-102174445D01*
X209082601Y-102009938D01*
X209113000Y-101837532D01*
X209113000Y-101750000D01*
X209113000Y-101684108D01*
X209113000Y-88684108D01*
X209113000Y-88662468D01*
X213162000Y-88662468D01*
X213162000Y-88684108D01*
X213162000Y-101815892D01*
X213162001Y-101815895D01*
X213163078Y-101824075D01*
X213162987Y-101824086D01*
X213164473Y-101832511D01*
X213164812Y-101836390D01*
X213164813Y-101836395D01*
X213164813Y-101836397D01*
X213165013Y-101837530D01*
X213195204Y-102008794D01*
X213255067Y-102173291D01*
X213255071Y-102173300D01*
X213342593Y-102324907D01*
X213455110Y-102459014D01*
X213589203Y-102571545D01*
X213591200Y-102572698D01*
X213740807Y-102659085D01*
X213905303Y-102718968D01*
X213905307Y-102718968D01*
X213905308Y-102718969D01*
X213905307Y-102718969D01*
X214077697Y-102749378D01*
X214077699Y-102749378D01*
X214079833Y-102749378D01*
X214096284Y-102750457D01*
X214096606Y-102750499D01*
X214096608Y-102750500D01*
X214096610Y-102750500D01*
X227250031Y-102750500D01*
X227250032Y-102750500D01*
X227422438Y-102720101D01*
X227586945Y-102660225D01*
X227738555Y-102572692D01*
X227872663Y-102460163D01*
X227985192Y-102326055D01*
X228072725Y-102174445D01*
X228132601Y-102009938D01*
X228163000Y-101837532D01*
X228163000Y-101750000D01*
X228163000Y-101684108D01*
X228163000Y-95250000D01*
X230913146Y-95250000D01*
X230933529Y-95508994D01*
X230994177Y-95761610D01*
X231093596Y-96001628D01*
X231093597Y-96001629D01*
X231229335Y-96223136D01*
X231229340Y-96223143D01*
X231398060Y-96420689D01*
X231595606Y-96589409D01*
X231595610Y-96589412D01*
X231817122Y-96725154D01*
X232057140Y-96824573D01*
X232309756Y-96885221D01*
X232568750Y-96905604D01*
X232827744Y-96885221D01*
X233080360Y-96824573D01*
X233320378Y-96725154D01*
X233541890Y-96589412D01*
X233739439Y-96420689D01*
X233908162Y-96223140D01*
X234043904Y-96001628D01*
X234143323Y-95761610D01*
X234203971Y-95508994D01*
X234224354Y-95250000D01*
X234203971Y-94991006D01*
X234143323Y-94738390D01*
X234043904Y-94498372D01*
X233908162Y-94276860D01*
X233908159Y-94276856D01*
X233739439Y-94079310D01*
X233541893Y-93910590D01*
X233541886Y-93910585D01*
X233412010Y-93830998D01*
X233320378Y-93774846D01*
X233080360Y-93675427D01*
X232827744Y-93614779D01*
X232568750Y-93594396D01*
X232309756Y-93614779D01*
X232057139Y-93675427D01*
X231817120Y-93774847D01*
X231595613Y-93910585D01*
X231595606Y-93910590D01*
X231398060Y-94079310D01*
X231229340Y-94276856D01*
X231229335Y-94276863D01*
X231093597Y-94498370D01*
X230994177Y-94738389D01*
X230943815Y-94948162D01*
X230933529Y-94991006D01*
X230913146Y-95250000D01*
X228163000Y-95250000D01*
X228163000Y-88684108D01*
X228163000Y-88662474D01*
X234593249Y-88662474D01*
X234593250Y-88716373D01*
X234593250Y-101815891D01*
X234594328Y-101824082D01*
X234594214Y-101824096D01*
X234595648Y-101832232D01*
X234596013Y-101836405D01*
X234626407Y-102008807D01*
X234626411Y-102008822D01*
X234686280Y-102173318D01*
X234686282Y-102173323D01*
X234686929Y-102174443D01*
X234773816Y-102324939D01*
X234773818Y-102324941D01*
X234773819Y-102324943D01*
X234886339Y-102459042D01*
X234886344Y-102459046D01*
X234886347Y-102459050D01*
X234936221Y-102500899D01*
X235020451Y-102571577D01*
X235020456Y-102571581D01*
X235061076Y-102595033D01*
X235172072Y-102659115D01*
X235336584Y-102718990D01*
X235336588Y-102718990D01*
X235336589Y-102718991D01*
X235343033Y-102720127D01*
X235508994Y-102749386D01*
X235511130Y-102749385D01*
X235527596Y-102750465D01*
X235527854Y-102750498D01*
X235527858Y-102750500D01*
X248519562Y-102750500D01*
X248519682Y-102750507D01*
X248527905Y-102750506D01*
X248527908Y-102750507D01*
X248541551Y-102750505D01*
X248541720Y-102750554D01*
X248593800Y-102750549D01*
X248593800Y-102750550D01*
X248681331Y-102750542D01*
X248853731Y-102720127D01*
X249018232Y-102660240D01*
X249018238Y-102660236D01*
X249018243Y-102660234D01*
X249169832Y-102572699D01*
X249169831Y-102572699D01*
X249169834Y-102572698D01*
X249303934Y-102460163D01*
X249416456Y-102326052D01*
X249503982Y-102174441D01*
X249563853Y-102009934D01*
X249594251Y-101837531D01*
X249594250Y-101750000D01*
X249594250Y-101684108D01*
X249594250Y-88684108D01*
X249594250Y-88676107D01*
X249594200Y-88675358D01*
X249594201Y-88662473D01*
X249563805Y-88490079D01*
X249563800Y-88490066D01*
X249503936Y-88325577D01*
X249416418Y-88173982D01*
X249416417Y-88173981D01*
X249416415Y-88173977D01*
X249303898Y-88039873D01*
X249303896Y-88039871D01*
X249303895Y-88039870D01*
X249169807Y-87927344D01*
X249169806Y-87927343D01*
X249105749Y-87890353D01*
X249018212Y-87839806D01*
X248853721Y-87779921D01*
X248681328Y-87749508D01*
X248668072Y-87749506D01*
X248667970Y-87749500D01*
X248659642Y-87749500D01*
X248593800Y-87749500D01*
X248593736Y-87749499D01*
X248519682Y-87749492D01*
X248519562Y-87749500D01*
X235667938Y-87749500D01*
X235667817Y-87749492D01*
X235645943Y-87749494D01*
X235645776Y-87749445D01*
X235506165Y-87749458D01*
X235333766Y-87779873D01*
X235169268Y-87839759D01*
X235169256Y-87839765D01*
X235017667Y-87927300D01*
X235017663Y-87927303D01*
X234883571Y-88039832D01*
X234883565Y-88039837D01*
X234771045Y-88173945D01*
X234683517Y-88325559D01*
X234623647Y-88490062D01*
X234623647Y-88490064D01*
X234593250Y-88662463D01*
X234593250Y-88662468D01*
X234593249Y-88662474D01*
X228163000Y-88662474D01*
X228163000Y-88662468D01*
X228132601Y-88490062D01*
X228072725Y-88325555D01*
X227985192Y-88173945D01*
X227872663Y-88039837D01*
X227738555Y-87927308D01*
X227586945Y-87839775D01*
X227586944Y-87839774D01*
X227586943Y-87839774D01*
X227586941Y-87839773D01*
X227422437Y-87779898D01*
X227280430Y-87754859D01*
X227250032Y-87749500D01*
X227228392Y-87749500D01*
X214228392Y-87749500D01*
X214162500Y-87749500D01*
X214074968Y-87749500D01*
X214044570Y-87754859D01*
X213902563Y-87779898D01*
X213902561Y-87779898D01*
X213738058Y-87839773D01*
X213738056Y-87839774D01*
X213738001Y-87839806D01*
X213586456Y-87927302D01*
X213586440Y-87927311D01*
X213452337Y-88039837D01*
X213339811Y-88173940D01*
X213252274Y-88325556D01*
X213252273Y-88325558D01*
X213192398Y-88490061D01*
X213192398Y-88490063D01*
X213162001Y-88662463D01*
X213162000Y-88662468D01*
X209113000Y-88662468D01*
X209082601Y-88490062D01*
X209022725Y-88325555D01*
X208935192Y-88173945D01*
X208822663Y-88039837D01*
X208688555Y-87927308D01*
X208536945Y-87839775D01*
X208536944Y-87839774D01*
X208536943Y-87839774D01*
X208536941Y-87839773D01*
X208372437Y-87779898D01*
X208230430Y-87754859D01*
X208200032Y-87749500D01*
X208178392Y-87749500D01*
X195178392Y-87749500D01*
X195112500Y-87749500D01*
X195024968Y-87749500D01*
X194994570Y-87754859D01*
X194852563Y-87779898D01*
X194852561Y-87779898D01*
X194688058Y-87839773D01*
X194688056Y-87839774D01*
X194688001Y-87839806D01*
X194536456Y-87927302D01*
X194536440Y-87927311D01*
X194402337Y-88039837D01*
X194289811Y-88173940D01*
X194202274Y-88325556D01*
X194202273Y-88325558D01*
X194142398Y-88490061D01*
X194142398Y-88490063D01*
X194112001Y-88662463D01*
X194112000Y-88662468D01*
X190063000Y-88662468D01*
X190032601Y-88490062D01*
X189972725Y-88325555D01*
X189885192Y-88173945D01*
X189772663Y-88039837D01*
X189638555Y-87927308D01*
X189486945Y-87839775D01*
X189486944Y-87839774D01*
X189486943Y-87839774D01*
X189486941Y-87839773D01*
X189322437Y-87779898D01*
X189180430Y-87754859D01*
X189150032Y-87749500D01*
X189128392Y-87749500D01*
X176128392Y-87749500D01*
X176062500Y-87749500D01*
X175974968Y-87749500D01*
X175944570Y-87754859D01*
X175802563Y-87779898D01*
X175802561Y-87779898D01*
X175638058Y-87839773D01*
X175638056Y-87839774D01*
X175638001Y-87839806D01*
X175486456Y-87927302D01*
X175486440Y-87927311D01*
X175352337Y-88039837D01*
X175239811Y-88173940D01*
X175152274Y-88325556D01*
X175152273Y-88325558D01*
X175092398Y-88490061D01*
X175092398Y-88490063D01*
X175062001Y-88662463D01*
X175062000Y-88662468D01*
X171013000Y-88662468D01*
X170982601Y-88490062D01*
X170922725Y-88325555D01*
X170835192Y-88173945D01*
X170722663Y-88039837D01*
X170588555Y-87927308D01*
X170436945Y-87839775D01*
X170436944Y-87839774D01*
X170436943Y-87839774D01*
X170436941Y-87839773D01*
X170272437Y-87779898D01*
X170130430Y-87754859D01*
X170100032Y-87749500D01*
X170078392Y-87749500D01*
X157078392Y-87749500D01*
X157012500Y-87749500D01*
X156924968Y-87749500D01*
X156894570Y-87754859D01*
X156752563Y-87779898D01*
X156752561Y-87779898D01*
X156588058Y-87839773D01*
X156588056Y-87839774D01*
X156588001Y-87839806D01*
X156436456Y-87927302D01*
X156436440Y-87927311D01*
X156302337Y-88039837D01*
X156189811Y-88173940D01*
X156102274Y-88325556D01*
X156102273Y-88325558D01*
X156042398Y-88490061D01*
X156042398Y-88490063D01*
X156012001Y-88662463D01*
X156012000Y-88662468D01*
X151963000Y-88662468D01*
X151932601Y-88490062D01*
X151872725Y-88325555D01*
X151785192Y-88173945D01*
X151672663Y-88039837D01*
X151538555Y-87927308D01*
X151386945Y-87839775D01*
X151386944Y-87839774D01*
X151386943Y-87839774D01*
X151386941Y-87839773D01*
X151222437Y-87779898D01*
X151080430Y-87754859D01*
X151050032Y-87749500D01*
X151028392Y-87749500D01*
X138028392Y-87749500D01*
X137962500Y-87749500D01*
X137874968Y-87749500D01*
X137844570Y-87754859D01*
X137702563Y-87779898D01*
X137702561Y-87779898D01*
X137538058Y-87839773D01*
X137538056Y-87839774D01*
X137538001Y-87839806D01*
X137386456Y-87927302D01*
X137386440Y-87927311D01*
X137252337Y-88039837D01*
X137139811Y-88173940D01*
X137052274Y-88325556D01*
X137052273Y-88325558D01*
X136992398Y-88490061D01*
X136992398Y-88490063D01*
X136962001Y-88662463D01*
X136962000Y-88662468D01*
X132913000Y-88662468D01*
X132882601Y-88490062D01*
X132822725Y-88325555D01*
X132735192Y-88173945D01*
X132622663Y-88039837D01*
X132488555Y-87927308D01*
X132336945Y-87839775D01*
X132336944Y-87839774D01*
X132336943Y-87839774D01*
X132336941Y-87839773D01*
X132172437Y-87779898D01*
X132030430Y-87754859D01*
X132000032Y-87749500D01*
X131978392Y-87749500D01*
X118978392Y-87749500D01*
X118912500Y-87749500D01*
X118824968Y-87749500D01*
X118794570Y-87754859D01*
X118652563Y-87779898D01*
X118652561Y-87779898D01*
X118488058Y-87839773D01*
X118488056Y-87839774D01*
X118488001Y-87839806D01*
X118336456Y-87927302D01*
X118336440Y-87927311D01*
X118202337Y-88039837D01*
X118089811Y-88173940D01*
X118002274Y-88325556D01*
X118002273Y-88325558D01*
X117942398Y-88490061D01*
X117942398Y-88490063D01*
X117912001Y-88662463D01*
X117912000Y-88662468D01*
X113863000Y-88662468D01*
X113832601Y-88490062D01*
X113772725Y-88325555D01*
X113685192Y-88173945D01*
X113572663Y-88039837D01*
X113438555Y-87927308D01*
X113286945Y-87839775D01*
X113286944Y-87839774D01*
X113286943Y-87839774D01*
X113286941Y-87839773D01*
X113122437Y-87779898D01*
X112980430Y-87754859D01*
X112950032Y-87749500D01*
X112928392Y-87749500D01*
X99928392Y-87749500D01*
X99862500Y-87749500D01*
X99774968Y-87749500D01*
X99744570Y-87754859D01*
X99602563Y-87779898D01*
X99602561Y-87779898D01*
X99438058Y-87839773D01*
X99438056Y-87839774D01*
X99438001Y-87839806D01*
X99286456Y-87927302D01*
X99286440Y-87927311D01*
X99152337Y-88039837D01*
X99039811Y-88173940D01*
X98952274Y-88325556D01*
X98952273Y-88325558D01*
X98892398Y-88490061D01*
X98892398Y-88490063D01*
X98862001Y-88662463D01*
X98862000Y-88662468D01*
X94813000Y-88662468D01*
X94782601Y-88490062D01*
X94722725Y-88325555D01*
X94635192Y-88173945D01*
X94522663Y-88039837D01*
X94388555Y-87927308D01*
X94236945Y-87839775D01*
X94236944Y-87839774D01*
X94236943Y-87839774D01*
X94236941Y-87839773D01*
X94072437Y-87779898D01*
X93930430Y-87754859D01*
X93900032Y-87749500D01*
X93878392Y-87749500D01*
X80878392Y-87749500D01*
X80812500Y-87749500D01*
X80724968Y-87749500D01*
X80694570Y-87754859D01*
X80552563Y-87779898D01*
X80552561Y-87779898D01*
X80388058Y-87839773D01*
X80388056Y-87839774D01*
X80388001Y-87839806D01*
X80236456Y-87927302D01*
X80236440Y-87927311D01*
X80102337Y-88039837D01*
X79989811Y-88173940D01*
X79902274Y-88325556D01*
X79902273Y-88325558D01*
X79842398Y-88490061D01*
X79842398Y-88490063D01*
X79812001Y-88662463D01*
X79812000Y-88662468D01*
X68619200Y-88662468D01*
X68588805Y-88490079D01*
X68588800Y-88490066D01*
X68528936Y-88325577D01*
X68441418Y-88173982D01*
X68441417Y-88173981D01*
X68441415Y-88173977D01*
X68328898Y-88039873D01*
X68328896Y-88039871D01*
X68328895Y-88039870D01*
X68194807Y-87927344D01*
X68194806Y-87927343D01*
X68130749Y-87890353D01*
X68043212Y-87839806D01*
X67878721Y-87779921D01*
X67706328Y-87749508D01*
X67693072Y-87749506D01*
X67692970Y-87749500D01*
X67684642Y-87749500D01*
X67618800Y-87749500D01*
X67618736Y-87749499D01*
X67544682Y-87749492D01*
X67544562Y-87749500D01*
X54692938Y-87749500D01*
X54692817Y-87749492D01*
X54670943Y-87749494D01*
X54670776Y-87749445D01*
X54531165Y-87749458D01*
X54358766Y-87779873D01*
X54194268Y-87839759D01*
X54194256Y-87839765D01*
X54042667Y-87927300D01*
X54042663Y-87927303D01*
X53908571Y-88039832D01*
X53908565Y-88039837D01*
X53796045Y-88173945D01*
X53708517Y-88325559D01*
X53648647Y-88490062D01*
X53648647Y-88490064D01*
X53618250Y-88662463D01*
X53618250Y-88662468D01*
X53618249Y-88662474D01*
X44375500Y-88662474D01*
X44375500Y-69612474D01*
X48855749Y-69612474D01*
X48855750Y-69666373D01*
X48855750Y-82765891D01*
X48856828Y-82774082D01*
X48856714Y-82774096D01*
X48858148Y-82782232D01*
X48858513Y-82786405D01*
X48888907Y-82958807D01*
X48888911Y-82958822D01*
X48948780Y-83123318D01*
X48948782Y-83123323D01*
X48949429Y-83124443D01*
X49036316Y-83274939D01*
X49036318Y-83274941D01*
X49036319Y-83274943D01*
X49148839Y-83409042D01*
X49148844Y-83409046D01*
X49148847Y-83409050D01*
X49198721Y-83450899D01*
X49282951Y-83521577D01*
X49282956Y-83521581D01*
X49323576Y-83545033D01*
X49434572Y-83609115D01*
X49599084Y-83668990D01*
X49599088Y-83668990D01*
X49599089Y-83668991D01*
X49605533Y-83670127D01*
X49771494Y-83699386D01*
X49773630Y-83699385D01*
X49790096Y-83700465D01*
X49790354Y-83700498D01*
X49790358Y-83700500D01*
X62782062Y-83700500D01*
X62782182Y-83700507D01*
X62790405Y-83700506D01*
X62790408Y-83700507D01*
X62804051Y-83700505D01*
X62804220Y-83700554D01*
X62856300Y-83700549D01*
X62856300Y-83700550D01*
X62943831Y-83700542D01*
X63116231Y-83670127D01*
X63280732Y-83610240D01*
X63280738Y-83610236D01*
X63280743Y-83610234D01*
X63432332Y-83522699D01*
X63432331Y-83522699D01*
X63432334Y-83522698D01*
X63566434Y-83410163D01*
X63678956Y-83276052D01*
X63766482Y-83124441D01*
X63826353Y-82959934D01*
X63856751Y-82787531D01*
X63856750Y-82700000D01*
X63856750Y-82634108D01*
X63856750Y-69634108D01*
X63856750Y-69626107D01*
X63856700Y-69625358D01*
X63856701Y-69612473D01*
X63856700Y-69612468D01*
X70287000Y-69612468D01*
X70287000Y-69634108D01*
X70287000Y-82765892D01*
X70287001Y-82765895D01*
X70288078Y-82774075D01*
X70287987Y-82774086D01*
X70289473Y-82782511D01*
X70289812Y-82786390D01*
X70289813Y-82786395D01*
X70289813Y-82786397D01*
X70290013Y-82787530D01*
X70320204Y-82958794D01*
X70380067Y-83123291D01*
X70380071Y-83123300D01*
X70467593Y-83274907D01*
X70580110Y-83409014D01*
X70714203Y-83521545D01*
X70716200Y-83522698D01*
X70865807Y-83609085D01*
X71030303Y-83668968D01*
X71030307Y-83668968D01*
X71030308Y-83668969D01*
X71030307Y-83668969D01*
X71202697Y-83699378D01*
X71202699Y-83699378D01*
X71204833Y-83699378D01*
X71221284Y-83700457D01*
X71221606Y-83700499D01*
X71221608Y-83700500D01*
X71221610Y-83700500D01*
X84375031Y-83700500D01*
X84375032Y-83700500D01*
X84547438Y-83670101D01*
X84711945Y-83610225D01*
X84863555Y-83522692D01*
X84997663Y-83410163D01*
X85110192Y-83276055D01*
X85197725Y-83124445D01*
X85257601Y-82959938D01*
X85288000Y-82787532D01*
X85288000Y-82700000D01*
X85288000Y-82634108D01*
X85288000Y-76200000D01*
X85656896Y-76200000D01*
X85677279Y-76458994D01*
X85737927Y-76711610D01*
X85837346Y-76951628D01*
X85837347Y-76951629D01*
X85973085Y-77173136D01*
X85973090Y-77173143D01*
X86141810Y-77370689D01*
X86339356Y-77539409D01*
X86339360Y-77539412D01*
X86560872Y-77675154D01*
X86800890Y-77774573D01*
X87053506Y-77835221D01*
X87312500Y-77855604D01*
X87571494Y-77835221D01*
X87824110Y-77774573D01*
X88064128Y-77675154D01*
X88285640Y-77539412D01*
X88483189Y-77370689D01*
X88651912Y-77173140D01*
X88787654Y-76951628D01*
X88887073Y-76711610D01*
X88947721Y-76458994D01*
X88968104Y-76200000D01*
X88947721Y-75941006D01*
X88887073Y-75688390D01*
X88787654Y-75448372D01*
X88651912Y-75226860D01*
X88651909Y-75226856D01*
X88483189Y-75029310D01*
X88285643Y-74860590D01*
X88285636Y-74860585D01*
X88155760Y-74780998D01*
X88064128Y-74724846D01*
X87824110Y-74625427D01*
X87571494Y-74564779D01*
X87312500Y-74544396D01*
X87053506Y-74564779D01*
X86800889Y-74625427D01*
X86560870Y-74724847D01*
X86339363Y-74860585D01*
X86339356Y-74860590D01*
X86141810Y-75029310D01*
X85973090Y-75226856D01*
X85973085Y-75226863D01*
X85837347Y-75448370D01*
X85737927Y-75688389D01*
X85687565Y-75898162D01*
X85677279Y-75941006D01*
X85656896Y-76200000D01*
X85288000Y-76200000D01*
X85288000Y-69634108D01*
X85288000Y-69612468D01*
X89337000Y-69612468D01*
X89337000Y-69634108D01*
X89337000Y-82765892D01*
X89337001Y-82765895D01*
X89338078Y-82774075D01*
X89337987Y-82774086D01*
X89339473Y-82782511D01*
X89339812Y-82786390D01*
X89339813Y-82786395D01*
X89339813Y-82786397D01*
X89340013Y-82787530D01*
X89370204Y-82958794D01*
X89430067Y-83123291D01*
X89430071Y-83123300D01*
X89517593Y-83274907D01*
X89630110Y-83409014D01*
X89764203Y-83521545D01*
X89766200Y-83522698D01*
X89915807Y-83609085D01*
X90080303Y-83668968D01*
X90080307Y-83668968D01*
X90080308Y-83668969D01*
X90080307Y-83668969D01*
X90252697Y-83699378D01*
X90252699Y-83699378D01*
X90254833Y-83699378D01*
X90271284Y-83700457D01*
X90271606Y-83700499D01*
X90271608Y-83700500D01*
X90271610Y-83700500D01*
X103425031Y-83700500D01*
X103425032Y-83700500D01*
X103597438Y-83670101D01*
X103761945Y-83610225D01*
X103913555Y-83522692D01*
X104047663Y-83410163D01*
X104160192Y-83276055D01*
X104247725Y-83124445D01*
X104307601Y-82959938D01*
X104338000Y-82787532D01*
X104338000Y-82700000D01*
X104338000Y-82634108D01*
X104338000Y-69634108D01*
X104338000Y-69612468D01*
X108387000Y-69612468D01*
X108387000Y-69634108D01*
X108387000Y-82765892D01*
X108387001Y-82765895D01*
X108388078Y-82774075D01*
X108387987Y-82774086D01*
X108389473Y-82782511D01*
X108389812Y-82786390D01*
X108389813Y-82786395D01*
X108389813Y-82786397D01*
X108390013Y-82787530D01*
X108420204Y-82958794D01*
X108480067Y-83123291D01*
X108480071Y-83123300D01*
X108567593Y-83274907D01*
X108680110Y-83409014D01*
X108814203Y-83521545D01*
X108816200Y-83522698D01*
X108965807Y-83609085D01*
X109130303Y-83668968D01*
X109130307Y-83668968D01*
X109130308Y-83668969D01*
X109130307Y-83668969D01*
X109302697Y-83699378D01*
X109302699Y-83699378D01*
X109304833Y-83699378D01*
X109321284Y-83700457D01*
X109321606Y-83700499D01*
X109321608Y-83700500D01*
X109321610Y-83700500D01*
X122475031Y-83700500D01*
X122475032Y-83700500D01*
X122647438Y-83670101D01*
X122811945Y-83610225D01*
X122963555Y-83522692D01*
X123097663Y-83410163D01*
X123210192Y-83276055D01*
X123297725Y-83124445D01*
X123357601Y-82959938D01*
X123388000Y-82787532D01*
X123388000Y-82700000D01*
X123388000Y-82634108D01*
X123388000Y-76200000D01*
X123756896Y-76200000D01*
X123777279Y-76458994D01*
X123837927Y-76711610D01*
X123937346Y-76951628D01*
X123937347Y-76951629D01*
X124073085Y-77173136D01*
X124073090Y-77173143D01*
X124241810Y-77370689D01*
X124439356Y-77539409D01*
X124439360Y-77539412D01*
X124660872Y-77675154D01*
X124900890Y-77774573D01*
X125153506Y-77835221D01*
X125412500Y-77855604D01*
X125671494Y-77835221D01*
X125924110Y-77774573D01*
X126164128Y-77675154D01*
X126385640Y-77539412D01*
X126583189Y-77370689D01*
X126751912Y-77173140D01*
X126887654Y-76951628D01*
X126987073Y-76711610D01*
X127047721Y-76458994D01*
X127068104Y-76200000D01*
X127047721Y-75941006D01*
X126987073Y-75688390D01*
X126887654Y-75448372D01*
X126751912Y-75226860D01*
X126751909Y-75226856D01*
X126583189Y-75029310D01*
X126385643Y-74860590D01*
X126385636Y-74860585D01*
X126255760Y-74780998D01*
X126164128Y-74724846D01*
X125924110Y-74625427D01*
X125671494Y-74564779D01*
X125412500Y-74544396D01*
X125153506Y-74564779D01*
X124900889Y-74625427D01*
X124660870Y-74724847D01*
X124439363Y-74860585D01*
X124439356Y-74860590D01*
X124241810Y-75029310D01*
X124073090Y-75226856D01*
X124073085Y-75226863D01*
X123937347Y-75448370D01*
X123837927Y-75688389D01*
X123787565Y-75898162D01*
X123777279Y-75941006D01*
X123756896Y-76200000D01*
X123388000Y-76200000D01*
X123388000Y-69634108D01*
X123388000Y-69612468D01*
X127437000Y-69612468D01*
X127437000Y-69634108D01*
X127437000Y-82765892D01*
X127437001Y-82765895D01*
X127438078Y-82774075D01*
X127437987Y-82774086D01*
X127439473Y-82782511D01*
X127439812Y-82786390D01*
X127439813Y-82786395D01*
X127439813Y-82786397D01*
X127440013Y-82787530D01*
X127470204Y-82958794D01*
X127530067Y-83123291D01*
X127530071Y-83123300D01*
X127617593Y-83274907D01*
X127730110Y-83409014D01*
X127864203Y-83521545D01*
X127866200Y-83522698D01*
X128015807Y-83609085D01*
X128180303Y-83668968D01*
X128180307Y-83668968D01*
X128180308Y-83668969D01*
X128180307Y-83668969D01*
X128352697Y-83699378D01*
X128352699Y-83699378D01*
X128354833Y-83699378D01*
X128371284Y-83700457D01*
X128371606Y-83700499D01*
X128371608Y-83700500D01*
X128371610Y-83700500D01*
X141525031Y-83700500D01*
X141525032Y-83700500D01*
X141697438Y-83670101D01*
X141861945Y-83610225D01*
X142013555Y-83522692D01*
X142147663Y-83410163D01*
X142260192Y-83276055D01*
X142347725Y-83124445D01*
X142407601Y-82959938D01*
X142438000Y-82787532D01*
X142438000Y-82700000D01*
X142438000Y-82634108D01*
X142438000Y-69634108D01*
X142438000Y-69612468D01*
X146487000Y-69612468D01*
X146487000Y-69634108D01*
X146487000Y-82765892D01*
X146487001Y-82765895D01*
X146488078Y-82774075D01*
X146487987Y-82774086D01*
X146489473Y-82782511D01*
X146489812Y-82786390D01*
X146489813Y-82786395D01*
X146489813Y-82786397D01*
X146490013Y-82787530D01*
X146520204Y-82958794D01*
X146580067Y-83123291D01*
X146580071Y-83123300D01*
X146667593Y-83274907D01*
X146780110Y-83409014D01*
X146914203Y-83521545D01*
X146916200Y-83522698D01*
X147065807Y-83609085D01*
X147230303Y-83668968D01*
X147230307Y-83668968D01*
X147230308Y-83668969D01*
X147230307Y-83668969D01*
X147402697Y-83699378D01*
X147402699Y-83699378D01*
X147404833Y-83699378D01*
X147421284Y-83700457D01*
X147421606Y-83700499D01*
X147421608Y-83700500D01*
X147421610Y-83700500D01*
X160575031Y-83700500D01*
X160575032Y-83700500D01*
X160747438Y-83670101D01*
X160911945Y-83610225D01*
X161063555Y-83522692D01*
X161197663Y-83410163D01*
X161310192Y-83276055D01*
X161397725Y-83124445D01*
X161457601Y-82959938D01*
X161488000Y-82787532D01*
X161488000Y-82700000D01*
X161488000Y-82634108D01*
X161488000Y-69634108D01*
X161488000Y-69612468D01*
X165537000Y-69612468D01*
X165537000Y-69634108D01*
X165537000Y-82765892D01*
X165537001Y-82765895D01*
X165538078Y-82774075D01*
X165537987Y-82774086D01*
X165539473Y-82782511D01*
X165539812Y-82786390D01*
X165539813Y-82786395D01*
X165539813Y-82786397D01*
X165540013Y-82787530D01*
X165570204Y-82958794D01*
X165630067Y-83123291D01*
X165630071Y-83123300D01*
X165717593Y-83274907D01*
X165830110Y-83409014D01*
X165964203Y-83521545D01*
X165966200Y-83522698D01*
X166115807Y-83609085D01*
X166280303Y-83668968D01*
X166280307Y-83668968D01*
X166280308Y-83668969D01*
X166280307Y-83668969D01*
X166452697Y-83699378D01*
X166452699Y-83699378D01*
X166454833Y-83699378D01*
X166471284Y-83700457D01*
X166471606Y-83700499D01*
X166471608Y-83700500D01*
X166471610Y-83700500D01*
X179625031Y-83700500D01*
X179625032Y-83700500D01*
X179797438Y-83670101D01*
X179961945Y-83610225D01*
X180113555Y-83522692D01*
X180247663Y-83410163D01*
X180360192Y-83276055D01*
X180447725Y-83124445D01*
X180507601Y-82959938D01*
X180538000Y-82787532D01*
X180538000Y-82700000D01*
X180538000Y-82634108D01*
X180538000Y-76200000D01*
X180906896Y-76200000D01*
X180927279Y-76458994D01*
X180987927Y-76711610D01*
X181087346Y-76951628D01*
X181087347Y-76951629D01*
X181223085Y-77173136D01*
X181223090Y-77173143D01*
X181391810Y-77370689D01*
X181589356Y-77539409D01*
X181589360Y-77539412D01*
X181810872Y-77675154D01*
X182050890Y-77774573D01*
X182303506Y-77835221D01*
X182562500Y-77855604D01*
X182821494Y-77835221D01*
X183074110Y-77774573D01*
X183314128Y-77675154D01*
X183535640Y-77539412D01*
X183733189Y-77370689D01*
X183901912Y-77173140D01*
X184037654Y-76951628D01*
X184137073Y-76711610D01*
X184197721Y-76458994D01*
X184218104Y-76200000D01*
X184197721Y-75941006D01*
X184137073Y-75688390D01*
X184037654Y-75448372D01*
X183901912Y-75226860D01*
X183901909Y-75226856D01*
X183733189Y-75029310D01*
X183535643Y-74860590D01*
X183535636Y-74860585D01*
X183405760Y-74780998D01*
X183314128Y-74724846D01*
X183074110Y-74625427D01*
X182821494Y-74564779D01*
X182562500Y-74544396D01*
X182303506Y-74564779D01*
X182050889Y-74625427D01*
X181810870Y-74724847D01*
X181589363Y-74860585D01*
X181589356Y-74860590D01*
X181391810Y-75029310D01*
X181223090Y-75226856D01*
X181223085Y-75226863D01*
X181087347Y-75448370D01*
X180987927Y-75688389D01*
X180937565Y-75898162D01*
X180927279Y-75941006D01*
X180906896Y-76200000D01*
X180538000Y-76200000D01*
X180538000Y-69634108D01*
X180538000Y-69612468D01*
X184587000Y-69612468D01*
X184587000Y-69634108D01*
X184587000Y-82765892D01*
X184587001Y-82765895D01*
X184588078Y-82774075D01*
X184587987Y-82774086D01*
X184589473Y-82782511D01*
X184589812Y-82786390D01*
X184589813Y-82786395D01*
X184589813Y-82786397D01*
X184590013Y-82787530D01*
X184620204Y-82958794D01*
X184680067Y-83123291D01*
X184680071Y-83123300D01*
X184767593Y-83274907D01*
X184880110Y-83409014D01*
X185014203Y-83521545D01*
X185016200Y-83522698D01*
X185165807Y-83609085D01*
X185330303Y-83668968D01*
X185330307Y-83668968D01*
X185330308Y-83668969D01*
X185330307Y-83668969D01*
X185502697Y-83699378D01*
X185502699Y-83699378D01*
X185504833Y-83699378D01*
X185521284Y-83700457D01*
X185521606Y-83700499D01*
X185521608Y-83700500D01*
X185521610Y-83700500D01*
X198675031Y-83700500D01*
X198675032Y-83700500D01*
X198847438Y-83670101D01*
X199011945Y-83610225D01*
X199163555Y-83522692D01*
X199297663Y-83410163D01*
X199410192Y-83276055D01*
X199497725Y-83124445D01*
X199557601Y-82959938D01*
X199588000Y-82787532D01*
X199588000Y-82700000D01*
X199588000Y-82634108D01*
X199588000Y-69634108D01*
X199588000Y-69612468D01*
X203637000Y-69612468D01*
X203637000Y-69634108D01*
X203637000Y-82765892D01*
X203637001Y-82765895D01*
X203638078Y-82774075D01*
X203637987Y-82774086D01*
X203639473Y-82782511D01*
X203639812Y-82786390D01*
X203639813Y-82786395D01*
X203639813Y-82786397D01*
X203640013Y-82787530D01*
X203670204Y-82958794D01*
X203730067Y-83123291D01*
X203730071Y-83123300D01*
X203817593Y-83274907D01*
X203930110Y-83409014D01*
X204064203Y-83521545D01*
X204066200Y-83522698D01*
X204215807Y-83609085D01*
X204380303Y-83668968D01*
X204380307Y-83668968D01*
X204380308Y-83668969D01*
X204380307Y-83668969D01*
X204552697Y-83699378D01*
X204552699Y-83699378D01*
X204554833Y-83699378D01*
X204571284Y-83700457D01*
X204571606Y-83700499D01*
X204571608Y-83700500D01*
X204571610Y-83700500D01*
X217725031Y-83700500D01*
X217725032Y-83700500D01*
X217897438Y-83670101D01*
X218061945Y-83610225D01*
X218213555Y-83522692D01*
X218347663Y-83410163D01*
X218460192Y-83276055D01*
X218547725Y-83124445D01*
X218607601Y-82959938D01*
X218638000Y-82787532D01*
X218638000Y-82700000D01*
X218638000Y-82634108D01*
X218638000Y-76200000D01*
X219006896Y-76200000D01*
X219027279Y-76458994D01*
X219087927Y-76711610D01*
X219187346Y-76951628D01*
X219187347Y-76951629D01*
X219323085Y-77173136D01*
X219323090Y-77173143D01*
X219491810Y-77370689D01*
X219689356Y-77539409D01*
X219689360Y-77539412D01*
X219910872Y-77675154D01*
X220150890Y-77774573D01*
X220403506Y-77835221D01*
X220662500Y-77855604D01*
X220921494Y-77835221D01*
X221174110Y-77774573D01*
X221414128Y-77675154D01*
X221635640Y-77539412D01*
X221833189Y-77370689D01*
X222001912Y-77173140D01*
X222137654Y-76951628D01*
X222237073Y-76711610D01*
X222297721Y-76458994D01*
X222318104Y-76200000D01*
X222297721Y-75941006D01*
X222237073Y-75688390D01*
X222137654Y-75448372D01*
X222001912Y-75226860D01*
X222001909Y-75226856D01*
X221833189Y-75029310D01*
X221635643Y-74860590D01*
X221635636Y-74860585D01*
X221505760Y-74780998D01*
X221414128Y-74724846D01*
X221174110Y-74625427D01*
X220921494Y-74564779D01*
X220662500Y-74544396D01*
X220403506Y-74564779D01*
X220150889Y-74625427D01*
X219910870Y-74724847D01*
X219689363Y-74860585D01*
X219689356Y-74860590D01*
X219491810Y-75029310D01*
X219323090Y-75226856D01*
X219323085Y-75226863D01*
X219187347Y-75448370D01*
X219087927Y-75688389D01*
X219037565Y-75898162D01*
X219027279Y-75941006D01*
X219006896Y-76200000D01*
X218638000Y-76200000D01*
X218638000Y-69634108D01*
X218638000Y-69612474D01*
X229830749Y-69612474D01*
X229830750Y-69666373D01*
X229830750Y-82765891D01*
X229831828Y-82774082D01*
X229831714Y-82774096D01*
X229833148Y-82782232D01*
X229833513Y-82786405D01*
X229863907Y-82958807D01*
X229863911Y-82958822D01*
X229923780Y-83123318D01*
X229923782Y-83123323D01*
X229924429Y-83124443D01*
X230011316Y-83274939D01*
X230011318Y-83274941D01*
X230011319Y-83274943D01*
X230123839Y-83409042D01*
X230123844Y-83409046D01*
X230123847Y-83409050D01*
X230173721Y-83450899D01*
X230257951Y-83521577D01*
X230257956Y-83521581D01*
X230298576Y-83545033D01*
X230409572Y-83609115D01*
X230574084Y-83668990D01*
X230574088Y-83668990D01*
X230574089Y-83668991D01*
X230580533Y-83670127D01*
X230746494Y-83699386D01*
X230748630Y-83699385D01*
X230765096Y-83700465D01*
X230765354Y-83700498D01*
X230765358Y-83700500D01*
X243757062Y-83700500D01*
X243757182Y-83700507D01*
X243765405Y-83700506D01*
X243765408Y-83700507D01*
X243779051Y-83700505D01*
X243779220Y-83700554D01*
X243831300Y-83700549D01*
X243831300Y-83700550D01*
X243918831Y-83700542D01*
X244091231Y-83670127D01*
X244255732Y-83610240D01*
X244255738Y-83610236D01*
X244255743Y-83610234D01*
X244407332Y-83522699D01*
X244407331Y-83522699D01*
X244407334Y-83522698D01*
X244541434Y-83410163D01*
X244653956Y-83276052D01*
X244741482Y-83124441D01*
X244801353Y-82959934D01*
X244831751Y-82787531D01*
X244831750Y-82700000D01*
X244831750Y-82634108D01*
X244831750Y-69634108D01*
X244831750Y-69626107D01*
X244831700Y-69625358D01*
X244831701Y-69612473D01*
X244801305Y-69440079D01*
X244801300Y-69440066D01*
X244741436Y-69275577D01*
X244653918Y-69123982D01*
X244653917Y-69123981D01*
X244653915Y-69123977D01*
X244541398Y-68989873D01*
X244541396Y-68989871D01*
X244541395Y-68989870D01*
X244407307Y-68877344D01*
X244407306Y-68877343D01*
X244343249Y-68840353D01*
X244255712Y-68789806D01*
X244091221Y-68729921D01*
X243918828Y-68699508D01*
X243905572Y-68699506D01*
X243905470Y-68699500D01*
X243897142Y-68699500D01*
X243831300Y-68699500D01*
X243831236Y-68699499D01*
X243757182Y-68699492D01*
X243757062Y-68699500D01*
X230905438Y-68699500D01*
X230905317Y-68699492D01*
X230883443Y-68699494D01*
X230883276Y-68699445D01*
X230743665Y-68699458D01*
X230571266Y-68729873D01*
X230406768Y-68789759D01*
X230406756Y-68789765D01*
X230255167Y-68877300D01*
X230255163Y-68877303D01*
X230121071Y-68989832D01*
X230121065Y-68989837D01*
X230008545Y-69123945D01*
X229921017Y-69275559D01*
X229861147Y-69440062D01*
X229861147Y-69440064D01*
X229830750Y-69612463D01*
X229830750Y-69612468D01*
X229830749Y-69612474D01*
X218638000Y-69612474D01*
X218638000Y-69612468D01*
X218607601Y-69440062D01*
X218547725Y-69275555D01*
X218460192Y-69123945D01*
X218347663Y-68989837D01*
X218213555Y-68877308D01*
X218061945Y-68789775D01*
X218061944Y-68789774D01*
X218061943Y-68789774D01*
X218061941Y-68789773D01*
X217897437Y-68729898D01*
X217755430Y-68704859D01*
X217725032Y-68699500D01*
X217703392Y-68699500D01*
X204703392Y-68699500D01*
X204637500Y-68699500D01*
X204549968Y-68699500D01*
X204519570Y-68704859D01*
X204377563Y-68729898D01*
X204377561Y-68729898D01*
X204213058Y-68789773D01*
X204213056Y-68789774D01*
X204213001Y-68789806D01*
X204061456Y-68877302D01*
X204061440Y-68877311D01*
X203927337Y-68989837D01*
X203814811Y-69123940D01*
X203727274Y-69275556D01*
X203727273Y-69275558D01*
X203667398Y-69440061D01*
X203667398Y-69440063D01*
X203637001Y-69612463D01*
X203637000Y-69612468D01*
X199588000Y-69612468D01*
X199557601Y-69440062D01*
X199497725Y-69275555D01*
X199410192Y-69123945D01*
X199297663Y-68989837D01*
X199163555Y-68877308D01*
X199011945Y-68789775D01*
X199011944Y-68789774D01*
X199011943Y-68789774D01*
X199011941Y-68789773D01*
X198847437Y-68729898D01*
X198705430Y-68704859D01*
X198675032Y-68699500D01*
X198653392Y-68699500D01*
X185653392Y-68699500D01*
X185587500Y-68699500D01*
X185499968Y-68699500D01*
X185469570Y-68704859D01*
X185327563Y-68729898D01*
X185327561Y-68729898D01*
X185163058Y-68789773D01*
X185163056Y-68789774D01*
X185163001Y-68789806D01*
X185011456Y-68877302D01*
X185011440Y-68877311D01*
X184877337Y-68989837D01*
X184764811Y-69123940D01*
X184677274Y-69275556D01*
X184677273Y-69275558D01*
X184617398Y-69440061D01*
X184617398Y-69440063D01*
X184587001Y-69612463D01*
X184587000Y-69612468D01*
X180538000Y-69612468D01*
X180507601Y-69440062D01*
X180447725Y-69275555D01*
X180360192Y-69123945D01*
X180247663Y-68989837D01*
X180113555Y-68877308D01*
X179961945Y-68789775D01*
X179961944Y-68789774D01*
X179961943Y-68789774D01*
X179961941Y-68789773D01*
X179797437Y-68729898D01*
X179655430Y-68704859D01*
X179625032Y-68699500D01*
X179603392Y-68699500D01*
X166603392Y-68699500D01*
X166537500Y-68699500D01*
X166449968Y-68699500D01*
X166419570Y-68704859D01*
X166277563Y-68729898D01*
X166277561Y-68729898D01*
X166113058Y-68789773D01*
X166113056Y-68789774D01*
X166113001Y-68789806D01*
X165961456Y-68877302D01*
X165961440Y-68877311D01*
X165827337Y-68989837D01*
X165714811Y-69123940D01*
X165627274Y-69275556D01*
X165627273Y-69275558D01*
X165567398Y-69440061D01*
X165567398Y-69440063D01*
X165537001Y-69612463D01*
X165537000Y-69612468D01*
X161488000Y-69612468D01*
X161457601Y-69440062D01*
X161397725Y-69275555D01*
X161310192Y-69123945D01*
X161197663Y-68989837D01*
X161063555Y-68877308D01*
X160911945Y-68789775D01*
X160911944Y-68789774D01*
X160911943Y-68789774D01*
X160911941Y-68789773D01*
X160747437Y-68729898D01*
X160605430Y-68704859D01*
X160575032Y-68699500D01*
X160553392Y-68699500D01*
X147553392Y-68699500D01*
X147487500Y-68699500D01*
X147399968Y-68699500D01*
X147369570Y-68704859D01*
X147227563Y-68729898D01*
X147227561Y-68729898D01*
X147063058Y-68789773D01*
X147063056Y-68789774D01*
X147063001Y-68789806D01*
X146911456Y-68877302D01*
X146911440Y-68877311D01*
X146777337Y-68989837D01*
X146664811Y-69123940D01*
X146577274Y-69275556D01*
X146577273Y-69275558D01*
X146517398Y-69440061D01*
X146517398Y-69440063D01*
X146487001Y-69612463D01*
X146487000Y-69612468D01*
X142438000Y-69612468D01*
X142407601Y-69440062D01*
X142347725Y-69275555D01*
X142260192Y-69123945D01*
X142147663Y-68989837D01*
X142013555Y-68877308D01*
X141861945Y-68789775D01*
X141861944Y-68789774D01*
X141861943Y-68789774D01*
X141861941Y-68789773D01*
X141697437Y-68729898D01*
X141555430Y-68704859D01*
X141525032Y-68699500D01*
X141503392Y-68699500D01*
X128503392Y-68699500D01*
X128437500Y-68699500D01*
X128349968Y-68699500D01*
X128319570Y-68704859D01*
X128177563Y-68729898D01*
X128177561Y-68729898D01*
X128013058Y-68789773D01*
X128013056Y-68789774D01*
X128013001Y-68789806D01*
X127861456Y-68877302D01*
X127861440Y-68877311D01*
X127727337Y-68989837D01*
X127614811Y-69123940D01*
X127527274Y-69275556D01*
X127527273Y-69275558D01*
X127467398Y-69440061D01*
X127467398Y-69440063D01*
X127437001Y-69612463D01*
X127437000Y-69612468D01*
X123388000Y-69612468D01*
X123357601Y-69440062D01*
X123297725Y-69275555D01*
X123210192Y-69123945D01*
X123097663Y-68989837D01*
X122963555Y-68877308D01*
X122811945Y-68789775D01*
X122811944Y-68789774D01*
X122811943Y-68789774D01*
X122811941Y-68789773D01*
X122647437Y-68729898D01*
X122505430Y-68704859D01*
X122475032Y-68699500D01*
X122453392Y-68699500D01*
X109453392Y-68699500D01*
X109387500Y-68699500D01*
X109299968Y-68699500D01*
X109269570Y-68704859D01*
X109127563Y-68729898D01*
X109127561Y-68729898D01*
X108963058Y-68789773D01*
X108963056Y-68789774D01*
X108963001Y-68789806D01*
X108811456Y-68877302D01*
X108811440Y-68877311D01*
X108677337Y-68989837D01*
X108564811Y-69123940D01*
X108477274Y-69275556D01*
X108477273Y-69275558D01*
X108417398Y-69440061D01*
X108417398Y-69440063D01*
X108387001Y-69612463D01*
X108387000Y-69612468D01*
X104338000Y-69612468D01*
X104307601Y-69440062D01*
X104247725Y-69275555D01*
X104160192Y-69123945D01*
X104047663Y-68989837D01*
X103913555Y-68877308D01*
X103761945Y-68789775D01*
X103761944Y-68789774D01*
X103761943Y-68789774D01*
X103761941Y-68789773D01*
X103597437Y-68729898D01*
X103455430Y-68704859D01*
X103425032Y-68699500D01*
X103403392Y-68699500D01*
X90403392Y-68699500D01*
X90337500Y-68699500D01*
X90249968Y-68699500D01*
X90219570Y-68704859D01*
X90077563Y-68729898D01*
X90077561Y-68729898D01*
X89913058Y-68789773D01*
X89913056Y-68789774D01*
X89913001Y-68789806D01*
X89761456Y-68877302D01*
X89761440Y-68877311D01*
X89627337Y-68989837D01*
X89514811Y-69123940D01*
X89427274Y-69275556D01*
X89427273Y-69275558D01*
X89367398Y-69440061D01*
X89367398Y-69440063D01*
X89337001Y-69612463D01*
X89337000Y-69612468D01*
X85288000Y-69612468D01*
X85257601Y-69440062D01*
X85197725Y-69275555D01*
X85110192Y-69123945D01*
X84997663Y-68989837D01*
X84863555Y-68877308D01*
X84711945Y-68789775D01*
X84711944Y-68789774D01*
X84711943Y-68789774D01*
X84711941Y-68789773D01*
X84547437Y-68729898D01*
X84405430Y-68704859D01*
X84375032Y-68699500D01*
X84353392Y-68699500D01*
X71353392Y-68699500D01*
X71287500Y-68699500D01*
X71199968Y-68699500D01*
X71169570Y-68704859D01*
X71027563Y-68729898D01*
X71027561Y-68729898D01*
X70863058Y-68789773D01*
X70863056Y-68789774D01*
X70863001Y-68789806D01*
X70711456Y-68877302D01*
X70711440Y-68877311D01*
X70577337Y-68989837D01*
X70464811Y-69123940D01*
X70377274Y-69275556D01*
X70377273Y-69275558D01*
X70317398Y-69440061D01*
X70317398Y-69440063D01*
X70287001Y-69612463D01*
X70287000Y-69612468D01*
X63856700Y-69612468D01*
X63826305Y-69440079D01*
X63826300Y-69440066D01*
X63766436Y-69275577D01*
X63678918Y-69123982D01*
X63678917Y-69123981D01*
X63678915Y-69123977D01*
X63566398Y-68989873D01*
X63566396Y-68989871D01*
X63566395Y-68989870D01*
X63432307Y-68877344D01*
X63432306Y-68877343D01*
X63368249Y-68840353D01*
X63280712Y-68789806D01*
X63116221Y-68729921D01*
X62943828Y-68699508D01*
X62930572Y-68699506D01*
X62930470Y-68699500D01*
X62922142Y-68699500D01*
X62856300Y-68699500D01*
X62856236Y-68699499D01*
X62782182Y-68699492D01*
X62782062Y-68699500D01*
X49930438Y-68699500D01*
X49930317Y-68699492D01*
X49908443Y-68699494D01*
X49908276Y-68699445D01*
X49768665Y-68699458D01*
X49596266Y-68729873D01*
X49431768Y-68789759D01*
X49431756Y-68789765D01*
X49280167Y-68877300D01*
X49280163Y-68877303D01*
X49146071Y-68989832D01*
X49146065Y-68989837D01*
X49033545Y-69123945D01*
X48946017Y-69275559D01*
X48886147Y-69440062D01*
X48886147Y-69440064D01*
X48855750Y-69612463D01*
X48855750Y-69612468D01*
X48855749Y-69612474D01*
X44375500Y-69612474D01*
X44375500Y-50578538D01*
X44375698Y-50571473D01*
X44376204Y-50562468D01*
X46474500Y-50562468D01*
X46474500Y-50584108D01*
X46474500Y-63715892D01*
X46474501Y-63715895D01*
X46475578Y-63724075D01*
X46475487Y-63724086D01*
X46476973Y-63732511D01*
X46477312Y-63736390D01*
X46507704Y-63908794D01*
X46567567Y-64073291D01*
X46567571Y-64073300D01*
X46655093Y-64224907D01*
X46767610Y-64359014D01*
X46901703Y-64471545D01*
X46930697Y-64488286D01*
X47053307Y-64559085D01*
X47217803Y-64618968D01*
X47217807Y-64618968D01*
X47217808Y-64618969D01*
X47217807Y-64618969D01*
X47390197Y-64649378D01*
X47390199Y-64649378D01*
X47392333Y-64649378D01*
X47408784Y-64650457D01*
X47409106Y-64650499D01*
X47409108Y-64650500D01*
X47409110Y-64650500D01*
X60562531Y-64650500D01*
X60562532Y-64650500D01*
X60734938Y-64620101D01*
X60899445Y-64560225D01*
X61051055Y-64472692D01*
X61185163Y-64360163D01*
X61297692Y-64226055D01*
X61385225Y-64074445D01*
X61445101Y-63909938D01*
X61475500Y-63737532D01*
X61475500Y-63650000D01*
X61475500Y-63584108D01*
X61475500Y-57150000D01*
X61844396Y-57150000D01*
X61864779Y-57408994D01*
X61925427Y-57661610D01*
X62024846Y-57901628D01*
X62024847Y-57901629D01*
X62160585Y-58123136D01*
X62160590Y-58123143D01*
X62329310Y-58320689D01*
X62526856Y-58489409D01*
X62526860Y-58489412D01*
X62748372Y-58625154D01*
X62988390Y-58724573D01*
X63241006Y-58785221D01*
X63500000Y-58805604D01*
X63758994Y-58785221D01*
X64011610Y-58724573D01*
X64251628Y-58625154D01*
X64473140Y-58489412D01*
X64670689Y-58320689D01*
X64839412Y-58123140D01*
X64975154Y-57901628D01*
X65074573Y-57661610D01*
X65135221Y-57408994D01*
X65155604Y-57150000D01*
X65135221Y-56891006D01*
X65074573Y-56638390D01*
X64975154Y-56398372D01*
X64839412Y-56176860D01*
X64839409Y-56176856D01*
X64670689Y-55979310D01*
X64473143Y-55810590D01*
X64473136Y-55810585D01*
X64343260Y-55730998D01*
X64251628Y-55674846D01*
X64011610Y-55575427D01*
X63758994Y-55514779D01*
X63500000Y-55494396D01*
X63241006Y-55514779D01*
X62988389Y-55575427D01*
X62748370Y-55674847D01*
X62526863Y-55810585D01*
X62526856Y-55810590D01*
X62329310Y-55979310D01*
X62160590Y-56176856D01*
X62160585Y-56176863D01*
X62024847Y-56398370D01*
X61925427Y-56638389D01*
X61875065Y-56848162D01*
X61864779Y-56891006D01*
X61844396Y-57150000D01*
X61475500Y-57150000D01*
X61475500Y-51288860D01*
X61492381Y-51225860D01*
X61517535Y-51182292D01*
X61553392Y-51120186D01*
X61587500Y-50992892D01*
X61587500Y-50861108D01*
X61553392Y-50733814D01*
X61551441Y-50730435D01*
X61492381Y-50628138D01*
X61478142Y-50574999D01*
X61844396Y-50574999D01*
X61864779Y-50833993D01*
X61925427Y-51086609D01*
X62024846Y-51326627D01*
X62024847Y-51326628D01*
X62160585Y-51548135D01*
X62160590Y-51548142D01*
X62329310Y-51745688D01*
X62526856Y-51914408D01*
X62526860Y-51914411D01*
X62748372Y-52050153D01*
X62988390Y-52149572D01*
X63241006Y-52210220D01*
X63500000Y-52230603D01*
X63758994Y-52210220D01*
X64011610Y-52149572D01*
X64251628Y-52050153D01*
X64473140Y-51914411D01*
X64670689Y-51745688D01*
X64839412Y-51548139D01*
X64975154Y-51326627D01*
X65074573Y-51086609D01*
X65135221Y-50833993D01*
X65155604Y-50574999D01*
X65154618Y-50562468D01*
X65524500Y-50562468D01*
X65524500Y-50584108D01*
X65524500Y-63715892D01*
X65524501Y-63715895D01*
X65525578Y-63724075D01*
X65525487Y-63724086D01*
X65526973Y-63732511D01*
X65527312Y-63736390D01*
X65557704Y-63908794D01*
X65617567Y-64073291D01*
X65617571Y-64073300D01*
X65705093Y-64224907D01*
X65817610Y-64359014D01*
X65951703Y-64471545D01*
X65980697Y-64488286D01*
X66103307Y-64559085D01*
X66267803Y-64618968D01*
X66267807Y-64618968D01*
X66267808Y-64618969D01*
X66267807Y-64618969D01*
X66440197Y-64649378D01*
X66440199Y-64649378D01*
X66442333Y-64649378D01*
X66458784Y-64650457D01*
X66459106Y-64650499D01*
X66459108Y-64650500D01*
X66459110Y-64650500D01*
X79612531Y-64650500D01*
X79612532Y-64650500D01*
X79784938Y-64620101D01*
X79949445Y-64560225D01*
X80101055Y-64472692D01*
X80235163Y-64360163D01*
X80347692Y-64226055D01*
X80435225Y-64074445D01*
X80495101Y-63909938D01*
X80525500Y-63737532D01*
X80525500Y-63650000D01*
X80525500Y-63584108D01*
X80525500Y-50584108D01*
X80525500Y-50562468D01*
X84574500Y-50562468D01*
X84574500Y-50584108D01*
X84574500Y-63715892D01*
X84574501Y-63715895D01*
X84575578Y-63724075D01*
X84575487Y-63724086D01*
X84576973Y-63732511D01*
X84577312Y-63736390D01*
X84607704Y-63908794D01*
X84667567Y-64073291D01*
X84667571Y-64073300D01*
X84755093Y-64224907D01*
X84867610Y-64359014D01*
X85001703Y-64471545D01*
X85030697Y-64488286D01*
X85153307Y-64559085D01*
X85317803Y-64618968D01*
X85317807Y-64618968D01*
X85317808Y-64618969D01*
X85317807Y-64618969D01*
X85490197Y-64649378D01*
X85490199Y-64649378D01*
X85492333Y-64649378D01*
X85508784Y-64650457D01*
X85509106Y-64650499D01*
X85509108Y-64650500D01*
X85509110Y-64650500D01*
X98662531Y-64650500D01*
X98662532Y-64650500D01*
X98834938Y-64620101D01*
X98999445Y-64560225D01*
X99151055Y-64472692D01*
X99285163Y-64360163D01*
X99397692Y-64226055D01*
X99485225Y-64074445D01*
X99545101Y-63909938D01*
X99575500Y-63737532D01*
X99575500Y-63650000D01*
X99575500Y-63584108D01*
X99575500Y-50584108D01*
X99575500Y-50562468D01*
X103624500Y-50562468D01*
X103624500Y-50584108D01*
X103624500Y-63715892D01*
X103624501Y-63715895D01*
X103625578Y-63724075D01*
X103625487Y-63724086D01*
X103626973Y-63732511D01*
X103627312Y-63736390D01*
X103657704Y-63908794D01*
X103717567Y-64073291D01*
X103717571Y-64073300D01*
X103805093Y-64224907D01*
X103917610Y-64359014D01*
X104051703Y-64471545D01*
X104080697Y-64488286D01*
X104203307Y-64559085D01*
X104367803Y-64618968D01*
X104367807Y-64618968D01*
X104367808Y-64618969D01*
X104367807Y-64618969D01*
X104540197Y-64649378D01*
X104540199Y-64649378D01*
X104542333Y-64649378D01*
X104558784Y-64650457D01*
X104559106Y-64650499D01*
X104559108Y-64650500D01*
X104559110Y-64650500D01*
X117712531Y-64650500D01*
X117712532Y-64650500D01*
X117884938Y-64620101D01*
X118049445Y-64560225D01*
X118201055Y-64472692D01*
X118335163Y-64360163D01*
X118447692Y-64226055D01*
X118535225Y-64074445D01*
X118595101Y-63909938D01*
X118625500Y-63737532D01*
X118625500Y-63650000D01*
X118625500Y-63584108D01*
X118625500Y-57150000D01*
X118994396Y-57150000D01*
X119014779Y-57408994D01*
X119075427Y-57661610D01*
X119174846Y-57901628D01*
X119174847Y-57901629D01*
X119310585Y-58123136D01*
X119310590Y-58123143D01*
X119479310Y-58320689D01*
X119676856Y-58489409D01*
X119676860Y-58489412D01*
X119898372Y-58625154D01*
X120138390Y-58724573D01*
X120391006Y-58785221D01*
X120650000Y-58805604D01*
X120908994Y-58785221D01*
X121161610Y-58724573D01*
X121401628Y-58625154D01*
X121623140Y-58489412D01*
X121820689Y-58320689D01*
X121989412Y-58123140D01*
X122125154Y-57901628D01*
X122224573Y-57661610D01*
X122285221Y-57408994D01*
X122305604Y-57150000D01*
X122285221Y-56891006D01*
X122224573Y-56638390D01*
X122125154Y-56398372D01*
X121989412Y-56176860D01*
X121989409Y-56176856D01*
X121820689Y-55979310D01*
X121623143Y-55810590D01*
X121623136Y-55810585D01*
X121493260Y-55730998D01*
X121401628Y-55674846D01*
X121161610Y-55575427D01*
X120908994Y-55514779D01*
X120650000Y-55494396D01*
X120391006Y-55514779D01*
X120138389Y-55575427D01*
X119898370Y-55674847D01*
X119676863Y-55810585D01*
X119676856Y-55810590D01*
X119479310Y-55979310D01*
X119310590Y-56176856D01*
X119310585Y-56176863D01*
X119174847Y-56398370D01*
X119075427Y-56638389D01*
X119025065Y-56848162D01*
X119014779Y-56891006D01*
X118994396Y-57150000D01*
X118625500Y-57150000D01*
X118625500Y-50584108D01*
X118625500Y-50562468D01*
X122674500Y-50562468D01*
X122674500Y-50584108D01*
X122674500Y-63715892D01*
X122674501Y-63715895D01*
X122675578Y-63724075D01*
X122675487Y-63724086D01*
X122676973Y-63732511D01*
X122677312Y-63736390D01*
X122707704Y-63908794D01*
X122767567Y-64073291D01*
X122767571Y-64073300D01*
X122855093Y-64224907D01*
X122967610Y-64359014D01*
X123101703Y-64471545D01*
X123130697Y-64488286D01*
X123253307Y-64559085D01*
X123417803Y-64618968D01*
X123417807Y-64618968D01*
X123417808Y-64618969D01*
X123417807Y-64618969D01*
X123590197Y-64649378D01*
X123590199Y-64649378D01*
X123592333Y-64649378D01*
X123608784Y-64650457D01*
X123609106Y-64650499D01*
X123609108Y-64650500D01*
X123609110Y-64650500D01*
X136762531Y-64650500D01*
X136762532Y-64650500D01*
X136934938Y-64620101D01*
X137099445Y-64560225D01*
X137251055Y-64472692D01*
X137385163Y-64360163D01*
X137497692Y-64226055D01*
X137585225Y-64074445D01*
X137645101Y-63909938D01*
X137675500Y-63737532D01*
X137675500Y-63650000D01*
X137675500Y-63584108D01*
X137675500Y-50584108D01*
X137675500Y-50562468D01*
X141724500Y-50562468D01*
X141724500Y-50584108D01*
X141724500Y-63715892D01*
X141724501Y-63715895D01*
X141725578Y-63724075D01*
X141725487Y-63724086D01*
X141726973Y-63732511D01*
X141727312Y-63736390D01*
X141757704Y-63908794D01*
X141817567Y-64073291D01*
X141817571Y-64073300D01*
X141905093Y-64224907D01*
X142017610Y-64359014D01*
X142151703Y-64471545D01*
X142180697Y-64488286D01*
X142303307Y-64559085D01*
X142467803Y-64618968D01*
X142467807Y-64618968D01*
X142467808Y-64618969D01*
X142467807Y-64618969D01*
X142640197Y-64649378D01*
X142640199Y-64649378D01*
X142642333Y-64649378D01*
X142658784Y-64650457D01*
X142659106Y-64650499D01*
X142659108Y-64650500D01*
X142659110Y-64650500D01*
X155812531Y-64650500D01*
X155812532Y-64650500D01*
X155984938Y-64620101D01*
X156149445Y-64560225D01*
X156301055Y-64472692D01*
X156435163Y-64360163D01*
X156547692Y-64226055D01*
X156635225Y-64074445D01*
X156695101Y-63909938D01*
X156725500Y-63737532D01*
X156725500Y-63650000D01*
X156725500Y-63584108D01*
X156725500Y-50584108D01*
X156725500Y-50562468D01*
X160774500Y-50562468D01*
X160774500Y-50584108D01*
X160774500Y-63715892D01*
X160774501Y-63715895D01*
X160775578Y-63724075D01*
X160775487Y-63724086D01*
X160776973Y-63732511D01*
X160777312Y-63736390D01*
X160807704Y-63908794D01*
X160867567Y-64073291D01*
X160867571Y-64073300D01*
X160955093Y-64224907D01*
X161067610Y-64359014D01*
X161201703Y-64471545D01*
X161230697Y-64488286D01*
X161353307Y-64559085D01*
X161517803Y-64618968D01*
X161517807Y-64618968D01*
X161517808Y-64618969D01*
X161517807Y-64618969D01*
X161690197Y-64649378D01*
X161690199Y-64649378D01*
X161692333Y-64649378D01*
X161708784Y-64650457D01*
X161709106Y-64650499D01*
X161709108Y-64650500D01*
X161709110Y-64650500D01*
X174862531Y-64650500D01*
X174862532Y-64650500D01*
X175034938Y-64620101D01*
X175199445Y-64560225D01*
X175351055Y-64472692D01*
X175485163Y-64360163D01*
X175597692Y-64226055D01*
X175685225Y-64074445D01*
X175745101Y-63909938D01*
X175775500Y-63737532D01*
X175775500Y-63650000D01*
X175775500Y-63584108D01*
X175775500Y-57150000D01*
X176144396Y-57150000D01*
X176164779Y-57408994D01*
X176225427Y-57661610D01*
X176324846Y-57901628D01*
X176324847Y-57901629D01*
X176460585Y-58123136D01*
X176460590Y-58123143D01*
X176629310Y-58320689D01*
X176826856Y-58489409D01*
X176826860Y-58489412D01*
X177048372Y-58625154D01*
X177288390Y-58724573D01*
X177541006Y-58785221D01*
X177800000Y-58805604D01*
X178058994Y-58785221D01*
X178311610Y-58724573D01*
X178551628Y-58625154D01*
X178773140Y-58489412D01*
X178970689Y-58320689D01*
X179139412Y-58123140D01*
X179275154Y-57901628D01*
X179374573Y-57661610D01*
X179435221Y-57408994D01*
X179455604Y-57150000D01*
X179435221Y-56891006D01*
X179374573Y-56638390D01*
X179275154Y-56398372D01*
X179139412Y-56176860D01*
X179139409Y-56176856D01*
X178970689Y-55979310D01*
X178773143Y-55810590D01*
X178773136Y-55810585D01*
X178643260Y-55730998D01*
X178551628Y-55674846D01*
X178311610Y-55575427D01*
X178058994Y-55514779D01*
X177800000Y-55494396D01*
X177541006Y-55514779D01*
X177288389Y-55575427D01*
X177048370Y-55674847D01*
X176826863Y-55810585D01*
X176826856Y-55810590D01*
X176629310Y-55979310D01*
X176460590Y-56176856D01*
X176460585Y-56176863D01*
X176324847Y-56398370D01*
X176225427Y-56638389D01*
X176175065Y-56848162D01*
X176164779Y-56891006D01*
X176144396Y-57150000D01*
X175775500Y-57150000D01*
X175775500Y-50584108D01*
X175775500Y-50562468D01*
X179824500Y-50562468D01*
X179824500Y-50584108D01*
X179824500Y-63715892D01*
X179824501Y-63715895D01*
X179825578Y-63724075D01*
X179825487Y-63724086D01*
X179826973Y-63732511D01*
X179827312Y-63736390D01*
X179857704Y-63908794D01*
X179917567Y-64073291D01*
X179917571Y-64073300D01*
X180005093Y-64224907D01*
X180117610Y-64359014D01*
X180251703Y-64471545D01*
X180280697Y-64488286D01*
X180403307Y-64559085D01*
X180567803Y-64618968D01*
X180567807Y-64618968D01*
X180567808Y-64618969D01*
X180567807Y-64618969D01*
X180740197Y-64649378D01*
X180740199Y-64649378D01*
X180742333Y-64649378D01*
X180758784Y-64650457D01*
X180759106Y-64650499D01*
X180759108Y-64650500D01*
X180759110Y-64650500D01*
X193912531Y-64650500D01*
X193912532Y-64650500D01*
X194084938Y-64620101D01*
X194249445Y-64560225D01*
X194401055Y-64472692D01*
X194535163Y-64360163D01*
X194647692Y-64226055D01*
X194735225Y-64074445D01*
X194795101Y-63909938D01*
X194825500Y-63737532D01*
X194825500Y-63650000D01*
X194825500Y-63584108D01*
X194825500Y-50584108D01*
X194825500Y-50562468D01*
X198874500Y-50562468D01*
X198874500Y-50584108D01*
X198874500Y-63715892D01*
X198874501Y-63715895D01*
X198875578Y-63724075D01*
X198875487Y-63724086D01*
X198876973Y-63732511D01*
X198877312Y-63736390D01*
X198907704Y-63908794D01*
X198967567Y-64073291D01*
X198967571Y-64073300D01*
X199055093Y-64224907D01*
X199167610Y-64359014D01*
X199301703Y-64471545D01*
X199330697Y-64488286D01*
X199453307Y-64559085D01*
X199617803Y-64618968D01*
X199617807Y-64618968D01*
X199617808Y-64618969D01*
X199617807Y-64618969D01*
X199790197Y-64649378D01*
X199790199Y-64649378D01*
X199792333Y-64649378D01*
X199808784Y-64650457D01*
X199809106Y-64650499D01*
X199809108Y-64650500D01*
X199809110Y-64650500D01*
X212962531Y-64650500D01*
X212962532Y-64650500D01*
X213134938Y-64620101D01*
X213299445Y-64560225D01*
X213451055Y-64472692D01*
X213585163Y-64360163D01*
X213697692Y-64226055D01*
X213785225Y-64074445D01*
X213845101Y-63909938D01*
X213875500Y-63737532D01*
X213875500Y-63650000D01*
X213875500Y-63584108D01*
X213875500Y-50584108D01*
X213875500Y-50562468D01*
X217924500Y-50562468D01*
X217924500Y-50584108D01*
X217924500Y-63715892D01*
X217924501Y-63715895D01*
X217925578Y-63724075D01*
X217925487Y-63724086D01*
X217926973Y-63732511D01*
X217927312Y-63736390D01*
X217957704Y-63908794D01*
X218017567Y-64073291D01*
X218017571Y-64073300D01*
X218105093Y-64224907D01*
X218217610Y-64359014D01*
X218351703Y-64471545D01*
X218380697Y-64488286D01*
X218503307Y-64559085D01*
X218667803Y-64618968D01*
X218667807Y-64618968D01*
X218667808Y-64618969D01*
X218667807Y-64618969D01*
X218840197Y-64649378D01*
X218840199Y-64649378D01*
X218842333Y-64649378D01*
X218858784Y-64650457D01*
X218859106Y-64650499D01*
X218859108Y-64650500D01*
X218859110Y-64650500D01*
X232012531Y-64650500D01*
X232012532Y-64650500D01*
X232184938Y-64620101D01*
X232349445Y-64560225D01*
X232501055Y-64472692D01*
X232635163Y-64360163D01*
X232747692Y-64226055D01*
X232835225Y-64074445D01*
X232895101Y-63909938D01*
X232925500Y-63737532D01*
X232925500Y-63650000D01*
X232925500Y-63584108D01*
X232925500Y-57150000D01*
X233294396Y-57150000D01*
X233314779Y-57408994D01*
X233375427Y-57661610D01*
X233474846Y-57901628D01*
X233474847Y-57901629D01*
X233610585Y-58123136D01*
X233610590Y-58123143D01*
X233779310Y-58320689D01*
X233976856Y-58489409D01*
X233976860Y-58489412D01*
X234198372Y-58625154D01*
X234438390Y-58724573D01*
X234691006Y-58785221D01*
X234950000Y-58805604D01*
X235208994Y-58785221D01*
X235461610Y-58724573D01*
X235701628Y-58625154D01*
X235923140Y-58489412D01*
X236120689Y-58320689D01*
X236289412Y-58123140D01*
X236425154Y-57901628D01*
X236524573Y-57661610D01*
X236585221Y-57408994D01*
X236605604Y-57150000D01*
X236585221Y-56891006D01*
X236524573Y-56638390D01*
X236425154Y-56398372D01*
X236289412Y-56176860D01*
X236289409Y-56176856D01*
X236120689Y-55979310D01*
X235923143Y-55810590D01*
X235923136Y-55810585D01*
X235793260Y-55730998D01*
X235701628Y-55674846D01*
X235461610Y-55575427D01*
X235208994Y-55514779D01*
X234950000Y-55494396D01*
X234691006Y-55514779D01*
X234438389Y-55575427D01*
X234198370Y-55674847D01*
X233976863Y-55810585D01*
X233976856Y-55810590D01*
X233779310Y-55979310D01*
X233610590Y-56176856D01*
X233610585Y-56176863D01*
X233474847Y-56398370D01*
X233375427Y-56638389D01*
X233325065Y-56848162D01*
X233314779Y-56891006D01*
X233294396Y-57150000D01*
X232925500Y-57150000D01*
X232925500Y-50584108D01*
X232925500Y-50574999D01*
X233294396Y-50574999D01*
X233314779Y-50833993D01*
X233375427Y-51086609D01*
X233474846Y-51326627D01*
X233474847Y-51326628D01*
X233610585Y-51548135D01*
X233610590Y-51548142D01*
X233779310Y-51745688D01*
X233976856Y-51914408D01*
X233976860Y-51914411D01*
X234198372Y-52050153D01*
X234438390Y-52149572D01*
X234691006Y-52210220D01*
X234950000Y-52230603D01*
X235208994Y-52210220D01*
X235461610Y-52149572D01*
X235701628Y-52050153D01*
X235923140Y-51914411D01*
X236120689Y-51745688D01*
X236289412Y-51548139D01*
X236425154Y-51326627D01*
X236524573Y-51086609D01*
X236585221Y-50833993D01*
X236605604Y-50574999D01*
X236604618Y-50562468D01*
X236974500Y-50562468D01*
X236974500Y-50584108D01*
X236974500Y-63715892D01*
X236974501Y-63715895D01*
X236975578Y-63724075D01*
X236975487Y-63724086D01*
X236976973Y-63732511D01*
X236977312Y-63736390D01*
X237007704Y-63908794D01*
X237067567Y-64073291D01*
X237067571Y-64073300D01*
X237155093Y-64224907D01*
X237267610Y-64359014D01*
X237401703Y-64471545D01*
X237430697Y-64488286D01*
X237553307Y-64559085D01*
X237717803Y-64618968D01*
X237717807Y-64618968D01*
X237717808Y-64618969D01*
X237717807Y-64618969D01*
X237890197Y-64649378D01*
X237890199Y-64649378D01*
X237892333Y-64649378D01*
X237908784Y-64650457D01*
X237909106Y-64650499D01*
X237909108Y-64650500D01*
X237909110Y-64650500D01*
X251062531Y-64650500D01*
X251062532Y-64650500D01*
X251234938Y-64620101D01*
X251399445Y-64560225D01*
X251551055Y-64472692D01*
X251685163Y-64360163D01*
X251797692Y-64226055D01*
X251885225Y-64074445D01*
X251945101Y-63909938D01*
X251975500Y-63737532D01*
X251975500Y-63650000D01*
X251975500Y-63584108D01*
X251975500Y-50584108D01*
X251975500Y-50562468D01*
X251945101Y-50390062D01*
X251906478Y-50283948D01*
X251885226Y-50225558D01*
X251885225Y-50225556D01*
X251885225Y-50225555D01*
X251797692Y-50073945D01*
X251685163Y-49939837D01*
X251551055Y-49827308D01*
X251399445Y-49739775D01*
X251399444Y-49739774D01*
X251399443Y-49739774D01*
X251399441Y-49739773D01*
X251234937Y-49679898D01*
X251092930Y-49654859D01*
X251062532Y-49649500D01*
X251040892Y-49649500D01*
X238040892Y-49649500D01*
X237975000Y-49649500D01*
X237887468Y-49649500D01*
X237857070Y-49654859D01*
X237715063Y-49679898D01*
X237715061Y-49679898D01*
X237550558Y-49739773D01*
X237550556Y-49739774D01*
X237430973Y-49808815D01*
X237405768Y-49823369D01*
X237398940Y-49827311D01*
X237264837Y-49939837D01*
X237152311Y-50073940D01*
X237064774Y-50225556D01*
X237064773Y-50225558D01*
X237004898Y-50390061D01*
X237004898Y-50390063D01*
X236974500Y-50562468D01*
X236604618Y-50562468D01*
X236585221Y-50316005D01*
X236524573Y-50063389D01*
X236425154Y-49823371D01*
X236289412Y-49601859D01*
X236162834Y-49453655D01*
X236120689Y-49404309D01*
X235923143Y-49235589D01*
X235923136Y-49235584D01*
X235793260Y-49155997D01*
X235701628Y-49099845D01*
X235461610Y-49000426D01*
X235208994Y-48939778D01*
X234950000Y-48919395D01*
X234691006Y-48939778D01*
X234438389Y-49000426D01*
X234198370Y-49099846D01*
X233976863Y-49235584D01*
X233976856Y-49235589D01*
X233779310Y-49404309D01*
X233610590Y-49601855D01*
X233610585Y-49601862D01*
X233474847Y-49823369D01*
X233375427Y-50063388D01*
X233336494Y-50225555D01*
X233314779Y-50316005D01*
X233294396Y-50574999D01*
X232925500Y-50574999D01*
X232925500Y-50562468D01*
X232895101Y-50390062D01*
X232856478Y-50283948D01*
X232835226Y-50225558D01*
X232835225Y-50225556D01*
X232835225Y-50225555D01*
X232747692Y-50073945D01*
X232635163Y-49939837D01*
X232501055Y-49827308D01*
X232349445Y-49739775D01*
X232349444Y-49739774D01*
X232349443Y-49739774D01*
X232349441Y-49739773D01*
X232184937Y-49679898D01*
X232042930Y-49654859D01*
X232012532Y-49649500D01*
X231990892Y-49649500D01*
X218990892Y-49649500D01*
X218925000Y-49649500D01*
X218837468Y-49649500D01*
X218807070Y-49654859D01*
X218665063Y-49679898D01*
X218665061Y-49679898D01*
X218500558Y-49739773D01*
X218500556Y-49739774D01*
X218380973Y-49808815D01*
X218355768Y-49823369D01*
X218348940Y-49827311D01*
X218214837Y-49939837D01*
X218102311Y-50073940D01*
X218014774Y-50225556D01*
X218014773Y-50225558D01*
X217954898Y-50390061D01*
X217954898Y-50390063D01*
X217924500Y-50562468D01*
X213875500Y-50562468D01*
X213845101Y-50390062D01*
X213806478Y-50283948D01*
X213785226Y-50225558D01*
X213785225Y-50225556D01*
X213785225Y-50225555D01*
X213697692Y-50073945D01*
X213585163Y-49939837D01*
X213451055Y-49827308D01*
X213299445Y-49739775D01*
X213299444Y-49739774D01*
X213299443Y-49739774D01*
X213299441Y-49739773D01*
X213134937Y-49679898D01*
X212992930Y-49654859D01*
X212962532Y-49649500D01*
X212940892Y-49649500D01*
X199940892Y-49649500D01*
X199875000Y-49649500D01*
X199787468Y-49649500D01*
X199757070Y-49654859D01*
X199615063Y-49679898D01*
X199615061Y-49679898D01*
X199450558Y-49739773D01*
X199450556Y-49739774D01*
X199330973Y-49808815D01*
X199305768Y-49823369D01*
X199298940Y-49827311D01*
X199164837Y-49939837D01*
X199052311Y-50073940D01*
X198964774Y-50225556D01*
X198964773Y-50225558D01*
X198904898Y-50390061D01*
X198904898Y-50390063D01*
X198874500Y-50562468D01*
X194825500Y-50562468D01*
X194795101Y-50390062D01*
X194756478Y-50283948D01*
X194735226Y-50225558D01*
X194735225Y-50225556D01*
X194735225Y-50225555D01*
X194647692Y-50073945D01*
X194535163Y-49939837D01*
X194401055Y-49827308D01*
X194249445Y-49739775D01*
X194249444Y-49739774D01*
X194249443Y-49739774D01*
X194249441Y-49739773D01*
X194084937Y-49679898D01*
X193942930Y-49654859D01*
X193912532Y-49649500D01*
X193890892Y-49649500D01*
X180890892Y-49649500D01*
X180825000Y-49649500D01*
X180737468Y-49649500D01*
X180707070Y-49654859D01*
X180565063Y-49679898D01*
X180565061Y-49679898D01*
X180400558Y-49739773D01*
X180400556Y-49739774D01*
X180280973Y-49808815D01*
X180255768Y-49823369D01*
X180248940Y-49827311D01*
X180114837Y-49939837D01*
X180002311Y-50073940D01*
X179914774Y-50225556D01*
X179914773Y-50225558D01*
X179854898Y-50390061D01*
X179854898Y-50390063D01*
X179824500Y-50562468D01*
X175775500Y-50562468D01*
X175745101Y-50390062D01*
X175706478Y-50283948D01*
X175685226Y-50225558D01*
X175685225Y-50225556D01*
X175685225Y-50225555D01*
X175597692Y-50073945D01*
X175485163Y-49939837D01*
X175351055Y-49827308D01*
X175199445Y-49739775D01*
X175199444Y-49739774D01*
X175199443Y-49739774D01*
X175199441Y-49739773D01*
X175034937Y-49679898D01*
X174892930Y-49654859D01*
X174862532Y-49649500D01*
X174840892Y-49649500D01*
X161840892Y-49649500D01*
X161775000Y-49649500D01*
X161687468Y-49649500D01*
X161657070Y-49654859D01*
X161515063Y-49679898D01*
X161515061Y-49679898D01*
X161350558Y-49739773D01*
X161350556Y-49739774D01*
X161230973Y-49808815D01*
X161205768Y-49823369D01*
X161198940Y-49827311D01*
X161064837Y-49939837D01*
X160952311Y-50073940D01*
X160864774Y-50225556D01*
X160864773Y-50225558D01*
X160804898Y-50390061D01*
X160804898Y-50390063D01*
X160774500Y-50562468D01*
X156725500Y-50562468D01*
X156695101Y-50390062D01*
X156656478Y-50283948D01*
X156635226Y-50225558D01*
X156635225Y-50225556D01*
X156635225Y-50225555D01*
X156547692Y-50073945D01*
X156435163Y-49939837D01*
X156301055Y-49827308D01*
X156149445Y-49739775D01*
X156149444Y-49739774D01*
X156149443Y-49739774D01*
X156149441Y-49739773D01*
X155984937Y-49679898D01*
X155842930Y-49654859D01*
X155812532Y-49649500D01*
X155790892Y-49649500D01*
X142790892Y-49649500D01*
X142725000Y-49649500D01*
X142637468Y-49649500D01*
X142607070Y-49654859D01*
X142465063Y-49679898D01*
X142465061Y-49679898D01*
X142300558Y-49739773D01*
X142300556Y-49739774D01*
X142180973Y-49808815D01*
X142155768Y-49823369D01*
X142148940Y-49827311D01*
X142014837Y-49939837D01*
X141902311Y-50073940D01*
X141814774Y-50225556D01*
X141814773Y-50225558D01*
X141754898Y-50390061D01*
X141754898Y-50390063D01*
X141724500Y-50562468D01*
X137675500Y-50562468D01*
X137645101Y-50390062D01*
X137606478Y-50283948D01*
X137585226Y-50225558D01*
X137585225Y-50225556D01*
X137585225Y-50225555D01*
X137497692Y-50073945D01*
X137385163Y-49939837D01*
X137251055Y-49827308D01*
X137099445Y-49739775D01*
X137099444Y-49739774D01*
X137099443Y-49739774D01*
X137099441Y-49739773D01*
X136934937Y-49679898D01*
X136792930Y-49654859D01*
X136762532Y-49649500D01*
X136740892Y-49649500D01*
X123740892Y-49649500D01*
X123675000Y-49649500D01*
X123587468Y-49649500D01*
X123557070Y-49654859D01*
X123415063Y-49679898D01*
X123415061Y-49679898D01*
X123250558Y-49739773D01*
X123250556Y-49739774D01*
X123130973Y-49808815D01*
X123105768Y-49823369D01*
X123098940Y-49827311D01*
X122964837Y-49939837D01*
X122852311Y-50073940D01*
X122764774Y-50225556D01*
X122764773Y-50225558D01*
X122704898Y-50390061D01*
X122704898Y-50390063D01*
X122674500Y-50562468D01*
X118625500Y-50562468D01*
X118595101Y-50390062D01*
X118556478Y-50283948D01*
X118535226Y-50225558D01*
X118535225Y-50225556D01*
X118535225Y-50225555D01*
X118447692Y-50073945D01*
X118335163Y-49939837D01*
X118201055Y-49827308D01*
X118049445Y-49739775D01*
X118049444Y-49739774D01*
X118049443Y-49739774D01*
X118049441Y-49739773D01*
X117884937Y-49679898D01*
X117742930Y-49654859D01*
X117712532Y-49649500D01*
X117690892Y-49649500D01*
X104690892Y-49649500D01*
X104625000Y-49649500D01*
X104537468Y-49649500D01*
X104507070Y-49654859D01*
X104365063Y-49679898D01*
X104365061Y-49679898D01*
X104200558Y-49739773D01*
X104200556Y-49739774D01*
X104080973Y-49808815D01*
X104055768Y-49823369D01*
X104048940Y-49827311D01*
X103914837Y-49939837D01*
X103802311Y-50073940D01*
X103714774Y-50225556D01*
X103714773Y-50225558D01*
X103654898Y-50390061D01*
X103654898Y-50390063D01*
X103624500Y-50562468D01*
X99575500Y-50562468D01*
X99545101Y-50390062D01*
X99506478Y-50283948D01*
X99485226Y-50225558D01*
X99485225Y-50225556D01*
X99485225Y-50225555D01*
X99397692Y-50073945D01*
X99285163Y-49939837D01*
X99151055Y-49827308D01*
X98999445Y-49739775D01*
X98999444Y-49739774D01*
X98999443Y-49739774D01*
X98999441Y-49739773D01*
X98834937Y-49679898D01*
X98692930Y-49654859D01*
X98662532Y-49649500D01*
X98640892Y-49649500D01*
X85640892Y-49649500D01*
X85575000Y-49649500D01*
X85487468Y-49649500D01*
X85457070Y-49654859D01*
X85315063Y-49679898D01*
X85315061Y-49679898D01*
X85150558Y-49739773D01*
X85150556Y-49739774D01*
X85030973Y-49808815D01*
X85005768Y-49823369D01*
X84998940Y-49827311D01*
X84864837Y-49939837D01*
X84752311Y-50073940D01*
X84664774Y-50225556D01*
X84664773Y-50225558D01*
X84604898Y-50390061D01*
X84604898Y-50390063D01*
X84574500Y-50562468D01*
X80525500Y-50562468D01*
X80495101Y-50390062D01*
X80456478Y-50283948D01*
X80435226Y-50225558D01*
X80435225Y-50225556D01*
X80435225Y-50225555D01*
X80347692Y-50073945D01*
X80235163Y-49939837D01*
X80101055Y-49827308D01*
X79949445Y-49739775D01*
X79949444Y-49739774D01*
X79949443Y-49739774D01*
X79949441Y-49739773D01*
X79784937Y-49679898D01*
X79642930Y-49654859D01*
X79612532Y-49649500D01*
X79590892Y-49649500D01*
X66590892Y-49649500D01*
X66525000Y-49649500D01*
X66437468Y-49649500D01*
X66407070Y-49654859D01*
X66265063Y-49679898D01*
X66265061Y-49679898D01*
X66100558Y-49739773D01*
X66100556Y-49739774D01*
X65980973Y-49808815D01*
X65955768Y-49823369D01*
X65948940Y-49827311D01*
X65814837Y-49939837D01*
X65702311Y-50073940D01*
X65614774Y-50225556D01*
X65614773Y-50225558D01*
X65554898Y-50390061D01*
X65554898Y-50390063D01*
X65524500Y-50562468D01*
X65154618Y-50562468D01*
X65135221Y-50316005D01*
X65074573Y-50063389D01*
X64975154Y-49823371D01*
X64839412Y-49601859D01*
X64712834Y-49453655D01*
X64670689Y-49404309D01*
X64473143Y-49235589D01*
X64473136Y-49235584D01*
X64343260Y-49155997D01*
X64251628Y-49099845D01*
X64011610Y-49000426D01*
X63758994Y-48939778D01*
X63500000Y-48919395D01*
X63241006Y-48939778D01*
X62988389Y-49000426D01*
X62748370Y-49099846D01*
X62526863Y-49235584D01*
X62526856Y-49235589D01*
X62329310Y-49404309D01*
X62160590Y-49601855D01*
X62160585Y-49601862D01*
X62024847Y-49823369D01*
X61925427Y-50063388D01*
X61886494Y-50225555D01*
X61864779Y-50316005D01*
X61844396Y-50574999D01*
X61478142Y-50574999D01*
X61476246Y-50567925D01*
X61475980Y-50567949D01*
X61475847Y-50566436D01*
X61475500Y-50565139D01*
X61475500Y-50562468D01*
X61445101Y-50390063D01*
X61445101Y-50390061D01*
X61385226Y-50225558D01*
X61385225Y-50225556D01*
X61385225Y-50225555D01*
X61297692Y-50073945D01*
X61185163Y-49939837D01*
X61051055Y-49827308D01*
X60899445Y-49739775D01*
X60899444Y-49739774D01*
X60899443Y-49739774D01*
X60899441Y-49739773D01*
X60734937Y-49679898D01*
X60592930Y-49654859D01*
X60562532Y-49649500D01*
X60540892Y-49649500D01*
X47540892Y-49649500D01*
X47475000Y-49649500D01*
X47387468Y-49649500D01*
X47357070Y-49654859D01*
X47215063Y-49679898D01*
X47215061Y-49679898D01*
X47050558Y-49739773D01*
X47050556Y-49739774D01*
X46930973Y-49808815D01*
X46905768Y-49823369D01*
X46898940Y-49827311D01*
X46764837Y-49939837D01*
X46652311Y-50073940D01*
X46564774Y-50225556D01*
X46564773Y-50225558D01*
X46504898Y-50390061D01*
X46504898Y-50390063D01*
X46474500Y-50562468D01*
X44376204Y-50562468D01*
X44391448Y-50291013D01*
X44393030Y-50276972D01*
X44427527Y-50073940D01*
X44439490Y-50003527D01*
X44442633Y-49989759D01*
X44519420Y-49723227D01*
X44524080Y-49709909D01*
X44630226Y-49453651D01*
X44636355Y-49440926D01*
X44770519Y-49198174D01*
X44778027Y-49186223D01*
X44938539Y-48960001D01*
X44947342Y-48948964D01*
X45132170Y-48742141D01*
X45142152Y-48732161D01*
X45348962Y-48547345D01*
X45360000Y-48538540D01*
X45586222Y-48378027D01*
X45598171Y-48370519D01*
X45840929Y-48236351D01*
X45853651Y-48230225D01*
X46109914Y-48124077D01*
X46123223Y-48119420D01*
X46389770Y-48042630D01*
X46403520Y-48039491D01*
X46676976Y-47993029D01*
X46691008Y-47991448D01*
X46971494Y-47975696D01*
X46978555Y-47975499D01*
X47040892Y-47975499D01*
X251409108Y-47975499D01*
X251471461Y-47975499D01*
X251478525Y-47975696D01*
G37*
%TD.AperFunction*%
%TD*%
M02*
