%TF.GenerationSoftware,KiCad,Pcbnew,8.0.9*%
%TF.CreationDate,2026-02-07T17:36:23+01:00*%
%TF.ProjectId,travaulta plate topre fr4,74726176-6175-46c7-9461-20706c617465,rev?*%
%TF.SameCoordinates,Original*%
%TF.FileFunction,Copper,L2,Bot*%
%TF.FilePolarity,Positive*%
%FSLAX46Y46*%
G04 Gerber Fmt 4.6, Leading zero omitted, Abs format (unit mm)*
G04 Created by KiCad (PCBNEW 8.0.9) date 2026-02-07 17:36:23*
%MOMM*%
%LPD*%
G01*
G04 APERTURE LIST*
G04 APERTURE END LIST*
%TA.AperFunction,Conductor*%
%TO.N,GND*%
G36*
X65162793Y-51249733D02*
G01*
X65211172Y-51301695D01*
X65224500Y-51358096D01*
X65224500Y-56366902D01*
X65204498Y-56435023D01*
X65150842Y-56481516D01*
X65080568Y-56491620D01*
X65015988Y-56462126D01*
X64982092Y-56415123D01*
X64975154Y-56398372D01*
X64839412Y-56176860D01*
X64839409Y-56176856D01*
X64670689Y-55979310D01*
X64473143Y-55810590D01*
X64473136Y-55810585D01*
X64343260Y-55730998D01*
X64251628Y-55674846D01*
X64011610Y-55575427D01*
X63758994Y-55514779D01*
X63500000Y-55494396D01*
X63241006Y-55514779D01*
X62988389Y-55575427D01*
X62748370Y-55674847D01*
X62526863Y-55810585D01*
X62526856Y-55810590D01*
X62329310Y-55979310D01*
X62160590Y-56176856D01*
X62160585Y-56176863D01*
X62024848Y-56398368D01*
X62024846Y-56398372D01*
X62017907Y-56415122D01*
X61973360Y-56470401D01*
X61905997Y-56492822D01*
X61837205Y-56475263D01*
X61788827Y-56423301D01*
X61775500Y-56366902D01*
X61775500Y-51358096D01*
X61795502Y-51289975D01*
X61849158Y-51243482D01*
X61919432Y-51233378D01*
X61984012Y-51262872D01*
X62017909Y-51309879D01*
X62024846Y-51326627D01*
X62160585Y-51548135D01*
X62160590Y-51548142D01*
X62329310Y-51745688D01*
X62526856Y-51914408D01*
X62526860Y-51914411D01*
X62748372Y-52050153D01*
X62988390Y-52149572D01*
X63241006Y-52210220D01*
X63500000Y-52230603D01*
X63758994Y-52210220D01*
X64011610Y-52149572D01*
X64251628Y-52050153D01*
X64473140Y-51914411D01*
X64670689Y-51745688D01*
X64839412Y-51548139D01*
X64975154Y-51326627D01*
X64982091Y-51309878D01*
X65026638Y-51254598D01*
X65094001Y-51232176D01*
X65162793Y-51249733D01*
G37*
%TD.AperFunction*%
%TA.AperFunction,Conductor*%
G36*
X236612793Y-51249733D02*
G01*
X236661172Y-51301695D01*
X236674500Y-51358096D01*
X236674500Y-56366902D01*
X236654498Y-56435023D01*
X236600842Y-56481516D01*
X236530568Y-56491620D01*
X236465988Y-56462126D01*
X236432092Y-56415123D01*
X236425154Y-56398372D01*
X236289412Y-56176860D01*
X236289409Y-56176856D01*
X236120689Y-55979310D01*
X235923143Y-55810590D01*
X235923136Y-55810585D01*
X235793260Y-55730998D01*
X235701628Y-55674846D01*
X235461610Y-55575427D01*
X235208994Y-55514779D01*
X234950000Y-55494396D01*
X234691006Y-55514779D01*
X234438389Y-55575427D01*
X234198370Y-55674847D01*
X233976863Y-55810585D01*
X233976856Y-55810590D01*
X233779310Y-55979310D01*
X233610590Y-56176856D01*
X233610585Y-56176863D01*
X233474848Y-56398368D01*
X233474846Y-56398372D01*
X233467907Y-56415122D01*
X233423360Y-56470401D01*
X233355997Y-56492822D01*
X233287205Y-56475263D01*
X233238827Y-56423301D01*
X233225500Y-56366902D01*
X233225500Y-51358096D01*
X233245502Y-51289975D01*
X233299158Y-51243482D01*
X233369432Y-51233378D01*
X233434012Y-51262872D01*
X233467909Y-51309879D01*
X233474846Y-51326627D01*
X233610585Y-51548135D01*
X233610590Y-51548142D01*
X233779310Y-51745688D01*
X233976856Y-51914408D01*
X233976860Y-51914411D01*
X234198372Y-52050153D01*
X234438390Y-52149572D01*
X234691006Y-52210220D01*
X234950000Y-52230603D01*
X235208994Y-52210220D01*
X235461610Y-52149572D01*
X235701628Y-52050153D01*
X235923140Y-51914411D01*
X236120689Y-51745688D01*
X236289412Y-51548139D01*
X236425154Y-51326627D01*
X236432091Y-51309878D01*
X236476638Y-51254598D01*
X236544001Y-51232176D01*
X236612793Y-51249733D01*
G37*
%TD.AperFunction*%
%TA.AperFunction,Conductor*%
G36*
X251478525Y-47975696D02*
G01*
X251758989Y-47991447D01*
X251773025Y-47993028D01*
X252046475Y-48039490D01*
X252060233Y-48042630D01*
X252326771Y-48119418D01*
X252340091Y-48124079D01*
X252547321Y-48209916D01*
X252596343Y-48230222D01*
X252609073Y-48236353D01*
X252851820Y-48370514D01*
X252863785Y-48378031D01*
X253089992Y-48538534D01*
X253101039Y-48547344D01*
X253307847Y-48732160D01*
X253317838Y-48742151D01*
X253502654Y-48948959D01*
X253511464Y-48960006D01*
X253671967Y-49186214D01*
X253679484Y-49198178D01*
X253813645Y-49440924D01*
X253819776Y-49453655D01*
X253925915Y-49709897D01*
X253930582Y-49723234D01*
X254007367Y-49989759D01*
X254010511Y-50003534D01*
X254056970Y-50276971D01*
X254058552Y-50291012D01*
X254074302Y-50571455D01*
X254074500Y-50578520D01*
X254074500Y-102671459D01*
X254074302Y-102678524D01*
X254058551Y-102958985D01*
X254056969Y-102973026D01*
X254010510Y-103246465D01*
X254007366Y-103260240D01*
X253930583Y-103526762D01*
X253925916Y-103540099D01*
X253819776Y-103796342D01*
X253813645Y-103809072D01*
X253679484Y-104051819D01*
X253671967Y-104063784D01*
X253511464Y-104289991D01*
X253502654Y-104301037D01*
X253317838Y-104507847D01*
X253307847Y-104517839D01*
X253101035Y-104702657D01*
X253089988Y-104711467D01*
X252863790Y-104871963D01*
X252851825Y-104879480D01*
X252609073Y-105013644D01*
X252596344Y-105019775D01*
X252340100Y-105125916D01*
X252326762Y-105130583D01*
X252060241Y-105207366D01*
X252046466Y-105210510D01*
X251773027Y-105256969D01*
X251758986Y-105258551D01*
X251478544Y-105274301D01*
X251471479Y-105274499D01*
X227126390Y-105274499D01*
X227126374Y-105274500D01*
X227078378Y-105274500D01*
X226917866Y-105297578D01*
X226837608Y-105309117D01*
X226837601Y-105309119D01*
X226604218Y-105377646D01*
X226382954Y-105478694D01*
X226178330Y-105610198D01*
X225994493Y-105769493D01*
X225835202Y-105953324D01*
X225703697Y-106157950D01*
X225602646Y-106379218D01*
X225534118Y-106612603D01*
X225534117Y-106612608D01*
X225502343Y-106833608D01*
X225499500Y-106853379D01*
X225499500Y-121721459D01*
X225499302Y-121728524D01*
X225483551Y-122008985D01*
X225481969Y-122023026D01*
X225435510Y-122296465D01*
X225432366Y-122310240D01*
X225355583Y-122576762D01*
X225350916Y-122590099D01*
X225244776Y-122846342D01*
X225238645Y-122859072D01*
X225104484Y-123101819D01*
X225096967Y-123113784D01*
X224936464Y-123339991D01*
X224927654Y-123351037D01*
X224742838Y-123557847D01*
X224732847Y-123567839D01*
X224526035Y-123752657D01*
X224514988Y-123761467D01*
X224288790Y-123921963D01*
X224276825Y-123929480D01*
X224034073Y-124063644D01*
X224021344Y-124069775D01*
X223765100Y-124175916D01*
X223751762Y-124180583D01*
X223485241Y-124257366D01*
X223471466Y-124260510D01*
X223198027Y-124306969D01*
X223183986Y-124308551D01*
X222903544Y-124324301D01*
X222896479Y-124324499D01*
X75553539Y-124324499D01*
X75546474Y-124324301D01*
X75266013Y-124308550D01*
X75251972Y-124306968D01*
X74978533Y-124260509D01*
X74964758Y-124257365D01*
X74698237Y-124180582D01*
X74684900Y-124175915D01*
X74428656Y-124069775D01*
X74415925Y-124063644D01*
X74173179Y-123929483D01*
X74161215Y-123921966D01*
X73935008Y-123761463D01*
X73923961Y-123752653D01*
X73717152Y-123567837D01*
X73707161Y-123557846D01*
X73522346Y-123351038D01*
X73513536Y-123339991D01*
X73353033Y-123113783D01*
X73345516Y-123101819D01*
X73211355Y-122859073D01*
X73205224Y-122846342D01*
X73185930Y-122799764D01*
X73099081Y-122590089D01*
X73094420Y-122576769D01*
X73017632Y-122310232D01*
X73014492Y-122296474D01*
X72968030Y-122023024D01*
X72966449Y-122008985D01*
X72954201Y-121790894D01*
X72950697Y-121728505D01*
X72950500Y-121721443D01*
X72950500Y-108234108D01*
X74749500Y-108234108D01*
X74749500Y-120234107D01*
X74749500Y-120234108D01*
X74749500Y-120365892D01*
X74774467Y-120459073D01*
X74783607Y-120493183D01*
X74783610Y-120493190D01*
X74849497Y-120607310D01*
X74849505Y-120607320D01*
X75849500Y-121607314D01*
X75942686Y-121700500D01*
X76056814Y-121766392D01*
X76184108Y-121800500D01*
X76184110Y-121800500D01*
X88915890Y-121800500D01*
X88915892Y-121800500D01*
X89043186Y-121766392D01*
X89157314Y-121700500D01*
X90250500Y-120607314D01*
X90316392Y-120493186D01*
X90350500Y-120365892D01*
X90350500Y-120234107D01*
X90350500Y-115083097D01*
X90370502Y-115014976D01*
X90424158Y-114968483D01*
X90494432Y-114958379D01*
X90559012Y-114987873D01*
X90592909Y-115034880D01*
X90599846Y-115051628D01*
X90735585Y-115273136D01*
X90735590Y-115273143D01*
X90904310Y-115470689D01*
X91101856Y-115639409D01*
X91101860Y-115639412D01*
X91323372Y-115775154D01*
X91563390Y-115874573D01*
X91816006Y-115935221D01*
X92075000Y-115955604D01*
X92333994Y-115935221D01*
X92586610Y-115874573D01*
X92826628Y-115775154D01*
X93048140Y-115639412D01*
X93245689Y-115470689D01*
X93414412Y-115273140D01*
X93550154Y-115051628D01*
X93649573Y-114811610D01*
X93710221Y-114558994D01*
X93730604Y-114300000D01*
X93710221Y-114041006D01*
X93649573Y-113788390D01*
X93550154Y-113548372D01*
X93414412Y-113326860D01*
X93414409Y-113326856D01*
X93245689Y-113129310D01*
X93048143Y-112960590D01*
X93048136Y-112960585D01*
X92918260Y-112880998D01*
X92826628Y-112824846D01*
X92586610Y-112725427D01*
X92333994Y-112664779D01*
X92075000Y-112644396D01*
X91816006Y-112664779D01*
X91563389Y-112725427D01*
X91323370Y-112824847D01*
X91101863Y-112960585D01*
X91101856Y-112960590D01*
X90904310Y-113129310D01*
X90735590Y-113326856D01*
X90735585Y-113326863D01*
X90599848Y-113548368D01*
X90599846Y-113548372D01*
X90592907Y-113565122D01*
X90548360Y-113620401D01*
X90480997Y-113642822D01*
X90412205Y-113625263D01*
X90363827Y-113573301D01*
X90350500Y-113516902D01*
X90350500Y-108234109D01*
X90350500Y-108234108D01*
X96179500Y-108234108D01*
X96179500Y-120234107D01*
X96179500Y-120234108D01*
X96179500Y-120365892D01*
X96204467Y-120459073D01*
X96213607Y-120493183D01*
X96213610Y-120493190D01*
X96279497Y-120607310D01*
X96279505Y-120607320D01*
X97279500Y-121607314D01*
X97372686Y-121700500D01*
X97486814Y-121766392D01*
X97614108Y-121800500D01*
X97614110Y-121800500D01*
X110345890Y-121800500D01*
X110345892Y-121800500D01*
X110473186Y-121766392D01*
X110587314Y-121700500D01*
X111680500Y-120607314D01*
X111746392Y-120493186D01*
X111780500Y-120365892D01*
X111780500Y-120234107D01*
X111780500Y-114300000D01*
X121375646Y-114300000D01*
X121396029Y-114558994D01*
X121456677Y-114811610D01*
X121556096Y-115051628D01*
X121556097Y-115051629D01*
X121691835Y-115273136D01*
X121691840Y-115273143D01*
X121860560Y-115470689D01*
X122058106Y-115639409D01*
X122058110Y-115639412D01*
X122279622Y-115775154D01*
X122519640Y-115874573D01*
X122772256Y-115935221D01*
X123031250Y-115955604D01*
X123290244Y-115935221D01*
X123542860Y-115874573D01*
X123782878Y-115775154D01*
X124004390Y-115639412D01*
X124201939Y-115470689D01*
X124370662Y-115273140D01*
X124506404Y-115051628D01*
X124512091Y-115037897D01*
X124556638Y-114982617D01*
X124624002Y-114960195D01*
X124692793Y-114977753D01*
X124741172Y-115029714D01*
X124754500Y-115086115D01*
X124754500Y-120234107D01*
X124754500Y-120234108D01*
X124754500Y-120365892D01*
X124779467Y-120459073D01*
X124788607Y-120493183D01*
X124788610Y-120493190D01*
X124854497Y-120607310D01*
X124854505Y-120607320D01*
X125854500Y-121607314D01*
X125947686Y-121700500D01*
X126061814Y-121766392D01*
X126189108Y-121800500D01*
X126189110Y-121800500D01*
X138920890Y-121800500D01*
X138920892Y-121800500D01*
X139048186Y-121766392D01*
X139162314Y-121700500D01*
X140255500Y-120607314D01*
X140321392Y-120493186D01*
X140355500Y-120365892D01*
X140355500Y-120234107D01*
X140355500Y-108234108D01*
X158091500Y-108234108D01*
X158091500Y-120234107D01*
X158091500Y-120234108D01*
X158091500Y-120365892D01*
X158116467Y-120459073D01*
X158125607Y-120493183D01*
X158125610Y-120493190D01*
X158191497Y-120607310D01*
X158191505Y-120607320D01*
X159191500Y-121607314D01*
X159284686Y-121700500D01*
X159398814Y-121766392D01*
X159526108Y-121800500D01*
X159526110Y-121800500D01*
X172257890Y-121800500D01*
X172257892Y-121800500D01*
X172385186Y-121766392D01*
X172499314Y-121700500D01*
X173592500Y-120607314D01*
X173658392Y-120493186D01*
X173692500Y-120365892D01*
X173692500Y-120234107D01*
X173692500Y-115078872D01*
X173712502Y-115010751D01*
X173766158Y-114964258D01*
X173836432Y-114954154D01*
X173901012Y-114983648D01*
X173934909Y-115030655D01*
X173943596Y-115051628D01*
X174079335Y-115273136D01*
X174079340Y-115273143D01*
X174248060Y-115470689D01*
X174445606Y-115639409D01*
X174445610Y-115639412D01*
X174667122Y-115775154D01*
X174907140Y-115874573D01*
X175159756Y-115935221D01*
X175418750Y-115955604D01*
X175677744Y-115935221D01*
X175930360Y-115874573D01*
X176170378Y-115775154D01*
X176391890Y-115639412D01*
X176589439Y-115470689D01*
X176758162Y-115273140D01*
X176893904Y-115051628D01*
X176993323Y-114811610D01*
X177053971Y-114558994D01*
X177074354Y-114300000D01*
X177053971Y-114041006D01*
X176993323Y-113788390D01*
X176893904Y-113548372D01*
X176758162Y-113326860D01*
X176758159Y-113326856D01*
X176589439Y-113129310D01*
X176391893Y-112960590D01*
X176391886Y-112960585D01*
X176262010Y-112880998D01*
X176170378Y-112824846D01*
X175930360Y-112725427D01*
X175677744Y-112664779D01*
X175418750Y-112644396D01*
X175159756Y-112664779D01*
X174907139Y-112725427D01*
X174667120Y-112824847D01*
X174445613Y-112960585D01*
X174445606Y-112960590D01*
X174248060Y-113129310D01*
X174079340Y-113326856D01*
X174079335Y-113326863D01*
X173943598Y-113548368D01*
X173943596Y-113548372D01*
X173936659Y-113565121D01*
X173934909Y-113569345D01*
X173890360Y-113624626D01*
X173822997Y-113647047D01*
X173754206Y-113629489D01*
X173705827Y-113577526D01*
X173692500Y-113521127D01*
X173692500Y-111149535D01*
X178667661Y-111149535D01*
X178667661Y-117424066D01*
X178692628Y-117517247D01*
X178701768Y-117551357D01*
X178701771Y-117551364D01*
X178767658Y-117665484D01*
X178767666Y-117665494D01*
X178860840Y-117758668D01*
X178860845Y-117758672D01*
X178860847Y-117758674D01*
X178974975Y-117824566D01*
X179102269Y-117858674D01*
X179102271Y-117858674D01*
X182829282Y-117858674D01*
X182829284Y-117858674D01*
X182956578Y-117824566D01*
X183070706Y-117758674D01*
X183163892Y-117665488D01*
X183229784Y-117551360D01*
X183263892Y-117424066D01*
X183263892Y-111149535D01*
X183229784Y-111022241D01*
X183163892Y-110908113D01*
X183163890Y-110908111D01*
X183163886Y-110908106D01*
X183070712Y-110814932D01*
X183070702Y-110814924D01*
X182956582Y-110749037D01*
X182956579Y-110749036D01*
X182956578Y-110749035D01*
X182956576Y-110749034D01*
X182956575Y-110749034D01*
X182922465Y-110739894D01*
X182829284Y-110714927D01*
X179234053Y-110714927D01*
X179102269Y-110714927D01*
X179034055Y-110733204D01*
X178974977Y-110749034D01*
X178974970Y-110749037D01*
X178860850Y-110814924D01*
X178860840Y-110814932D01*
X178767666Y-110908106D01*
X178767658Y-110908116D01*
X178701771Y-111022236D01*
X178701769Y-111022241D01*
X178667661Y-111149535D01*
X173692500Y-111149535D01*
X173692500Y-108234109D01*
X173692500Y-108234108D01*
X186669500Y-108234108D01*
X186669500Y-120234107D01*
X186669500Y-120234108D01*
X186669500Y-120365892D01*
X186694467Y-120459073D01*
X186703607Y-120493183D01*
X186703610Y-120493190D01*
X186769497Y-120607310D01*
X186769505Y-120607320D01*
X187769500Y-121607314D01*
X187862686Y-121700500D01*
X187976814Y-121766392D01*
X188104108Y-121800500D01*
X188104110Y-121800500D01*
X200835890Y-121800500D01*
X200835892Y-121800500D01*
X200963186Y-121766392D01*
X201077314Y-121700500D01*
X202170500Y-120607314D01*
X202236392Y-120493186D01*
X202270500Y-120365892D01*
X202270500Y-120234107D01*
X202270500Y-114300000D01*
X204719396Y-114300000D01*
X204739779Y-114558994D01*
X204800427Y-114811610D01*
X204899846Y-115051628D01*
X204899847Y-115051629D01*
X205035585Y-115273136D01*
X205035590Y-115273143D01*
X205204310Y-115470689D01*
X205401856Y-115639409D01*
X205401860Y-115639412D01*
X205623372Y-115775154D01*
X205863390Y-115874573D01*
X206116006Y-115935221D01*
X206375000Y-115955604D01*
X206633994Y-115935221D01*
X206886610Y-115874573D01*
X207126628Y-115775154D01*
X207348140Y-115639412D01*
X207545689Y-115470689D01*
X207714412Y-115273140D01*
X207850154Y-115051628D01*
X207857091Y-115034879D01*
X207901638Y-114979599D01*
X207969001Y-114957177D01*
X208037793Y-114974734D01*
X208086172Y-115026696D01*
X208099500Y-115083097D01*
X208099500Y-120234107D01*
X208099500Y-120234108D01*
X208099500Y-120365892D01*
X208124467Y-120459073D01*
X208133607Y-120493183D01*
X208133610Y-120493190D01*
X208199497Y-120607310D01*
X208199505Y-120607320D01*
X209199500Y-121607314D01*
X209292686Y-121700500D01*
X209406814Y-121766392D01*
X209534108Y-121800500D01*
X209534110Y-121800500D01*
X222265890Y-121800500D01*
X222265892Y-121800500D01*
X222393186Y-121766392D01*
X222507314Y-121700500D01*
X223600500Y-120607314D01*
X223666392Y-120493186D01*
X223700500Y-120365892D01*
X223700500Y-120234107D01*
X223700500Y-108234108D01*
X223666392Y-108106814D01*
X223600500Y-107992686D01*
X223507314Y-107899500D01*
X223408314Y-107800500D01*
X222507320Y-106899505D01*
X222507310Y-106899497D01*
X222393190Y-106833610D01*
X222393187Y-106833609D01*
X222393186Y-106833608D01*
X222393184Y-106833607D01*
X222393183Y-106833607D01*
X222359073Y-106824467D01*
X222265892Y-106799500D01*
X209665893Y-106799500D01*
X209534108Y-106799500D01*
X209465894Y-106817777D01*
X209406816Y-106833607D01*
X209406809Y-106833610D01*
X209292689Y-106899497D01*
X209292679Y-106899505D01*
X208391686Y-107800500D01*
X208292686Y-107899500D01*
X208246093Y-107946092D01*
X208199501Y-107992684D01*
X208199497Y-107992689D01*
X208133610Y-108106809D01*
X208133607Y-108106816D01*
X208099500Y-108234109D01*
X208099500Y-113516902D01*
X208079498Y-113585023D01*
X208025842Y-113631516D01*
X207955568Y-113641620D01*
X207890988Y-113612126D01*
X207857092Y-113565123D01*
X207850154Y-113548372D01*
X207714412Y-113326860D01*
X207714409Y-113326856D01*
X207545689Y-113129310D01*
X207348143Y-112960590D01*
X207348136Y-112960585D01*
X207218260Y-112880998D01*
X207126628Y-112824846D01*
X206886610Y-112725427D01*
X206633994Y-112664779D01*
X206375000Y-112644396D01*
X206116006Y-112664779D01*
X205863389Y-112725427D01*
X205623370Y-112824847D01*
X205401863Y-112960585D01*
X205401856Y-112960590D01*
X205204310Y-113129310D01*
X205035590Y-113326856D01*
X205035585Y-113326863D01*
X204899848Y-113548368D01*
X204899846Y-113548372D01*
X204892908Y-113565121D01*
X204800427Y-113788389D01*
X204750065Y-113998162D01*
X204739779Y-114041006D01*
X204719396Y-114300000D01*
X202270500Y-114300000D01*
X202270500Y-108234108D01*
X202236392Y-108106814D01*
X202170500Y-107992686D01*
X202077314Y-107899500D01*
X201978314Y-107800500D01*
X201077320Y-106899505D01*
X201077310Y-106899497D01*
X200963190Y-106833610D01*
X200963187Y-106833609D01*
X200963186Y-106833608D01*
X200963184Y-106833607D01*
X200963183Y-106833607D01*
X200929073Y-106824467D01*
X200835892Y-106799500D01*
X188235893Y-106799500D01*
X188104108Y-106799500D01*
X188035894Y-106817777D01*
X187976816Y-106833607D01*
X187976809Y-106833610D01*
X187862689Y-106899497D01*
X187862679Y-106899505D01*
X186961686Y-107800500D01*
X186862686Y-107899500D01*
X186816093Y-107946092D01*
X186769501Y-107992684D01*
X186769497Y-107992689D01*
X186703610Y-108106809D01*
X186703608Y-108106814D01*
X186669500Y-108234108D01*
X173692500Y-108234108D01*
X173658392Y-108106814D01*
X173592500Y-107992686D01*
X173499314Y-107899500D01*
X173400314Y-107800500D01*
X172499320Y-106899505D01*
X172499310Y-106899497D01*
X172385190Y-106833610D01*
X172385187Y-106833609D01*
X172385186Y-106833608D01*
X172385184Y-106833607D01*
X172385183Y-106833607D01*
X172351073Y-106824467D01*
X172257892Y-106799500D01*
X159657893Y-106799500D01*
X159526108Y-106799500D01*
X159457894Y-106817777D01*
X159398816Y-106833607D01*
X159398809Y-106833610D01*
X159284689Y-106899497D01*
X159284679Y-106899505D01*
X158383686Y-107800500D01*
X158284686Y-107899500D01*
X158238093Y-107946092D01*
X158191501Y-107992684D01*
X158191497Y-107992689D01*
X158125610Y-108106809D01*
X158125608Y-108106814D01*
X158091500Y-108234108D01*
X140355500Y-108234108D01*
X140321392Y-108106814D01*
X140255500Y-107992686D01*
X140162314Y-107899500D01*
X140063314Y-107800500D01*
X139162320Y-106899505D01*
X139162310Y-106899497D01*
X139048190Y-106833610D01*
X139048187Y-106833609D01*
X139048186Y-106833608D01*
X139048184Y-106833607D01*
X139048183Y-106833607D01*
X139014073Y-106824467D01*
X138920892Y-106799500D01*
X126320893Y-106799500D01*
X126189108Y-106799500D01*
X126120894Y-106817777D01*
X126061816Y-106833607D01*
X126061809Y-106833610D01*
X125947689Y-106899497D01*
X125947679Y-106899505D01*
X125046686Y-107800500D01*
X124947686Y-107899500D01*
X124901093Y-107946092D01*
X124854501Y-107992684D01*
X124854497Y-107992689D01*
X124788610Y-108106809D01*
X124788607Y-108106816D01*
X124754500Y-108234109D01*
X124754500Y-113513884D01*
X124734498Y-113582005D01*
X124680842Y-113628498D01*
X124610568Y-113638602D01*
X124545988Y-113609108D01*
X124512092Y-113562103D01*
X124506405Y-113548374D01*
X124506404Y-113548372D01*
X124370664Y-113326863D01*
X124370659Y-113326856D01*
X124201939Y-113129310D01*
X124004393Y-112960590D01*
X124004386Y-112960585D01*
X123874510Y-112880998D01*
X123782878Y-112824846D01*
X123542860Y-112725427D01*
X123290244Y-112664779D01*
X123031250Y-112644396D01*
X122772256Y-112664779D01*
X122519639Y-112725427D01*
X122279620Y-112824847D01*
X122058113Y-112960585D01*
X122058106Y-112960590D01*
X121860560Y-113129310D01*
X121691840Y-113326856D01*
X121691835Y-113326863D01*
X121556098Y-113548368D01*
X121556096Y-113548372D01*
X121549158Y-113565121D01*
X121456677Y-113788389D01*
X121406315Y-113998162D01*
X121396029Y-114041006D01*
X121375646Y-114300000D01*
X111780500Y-114300000D01*
X111780500Y-108234108D01*
X111746392Y-108106814D01*
X111680500Y-107992686D01*
X111587314Y-107899500D01*
X111488314Y-107800500D01*
X110587320Y-106899505D01*
X110587310Y-106899497D01*
X110473190Y-106833610D01*
X110473187Y-106833609D01*
X110473186Y-106833608D01*
X110473184Y-106833607D01*
X110473183Y-106833607D01*
X110439073Y-106824467D01*
X110345892Y-106799500D01*
X97745893Y-106799500D01*
X97614108Y-106799500D01*
X97545894Y-106817777D01*
X97486816Y-106833607D01*
X97486809Y-106833610D01*
X97372689Y-106899497D01*
X97372679Y-106899505D01*
X96471686Y-107800500D01*
X96372686Y-107899500D01*
X96326093Y-107946092D01*
X96279501Y-107992684D01*
X96279497Y-107992689D01*
X96213610Y-108106809D01*
X96213608Y-108106814D01*
X96179500Y-108234108D01*
X90350500Y-108234108D01*
X90316392Y-108106814D01*
X90250500Y-107992686D01*
X90157314Y-107899500D01*
X90058314Y-107800500D01*
X89157320Y-106899505D01*
X89157310Y-106899497D01*
X89043190Y-106833610D01*
X89043187Y-106833609D01*
X89043186Y-106833608D01*
X89043184Y-106833607D01*
X89043183Y-106833607D01*
X89009073Y-106824467D01*
X88915892Y-106799500D01*
X76315893Y-106799500D01*
X76184108Y-106799500D01*
X76115894Y-106817777D01*
X76056816Y-106833607D01*
X76056809Y-106833610D01*
X75942689Y-106899497D01*
X75942679Y-106899505D01*
X75041686Y-107800500D01*
X74942686Y-107899500D01*
X74896093Y-107946092D01*
X74849501Y-107992684D01*
X74849497Y-107992689D01*
X74783610Y-108106809D01*
X74783608Y-108106814D01*
X74749500Y-108234108D01*
X72950500Y-108234108D01*
X72950500Y-107027191D01*
X72950501Y-107027187D01*
X72950501Y-106853379D01*
X72947659Y-106833610D01*
X72915884Y-106612608D01*
X72847354Y-106379217D01*
X72746306Y-106157954D01*
X72614798Y-105953324D01*
X72455507Y-105769492D01*
X72271675Y-105610201D01*
X72271673Y-105610200D01*
X72271670Y-105610197D01*
X72067046Y-105478693D01*
X71845783Y-105377646D01*
X71612395Y-105309117D01*
X71612393Y-105309116D01*
X71612391Y-105309116D01*
X71371622Y-105274499D01*
X71371618Y-105274499D01*
X46978539Y-105274499D01*
X46971474Y-105274301D01*
X46691013Y-105258550D01*
X46676972Y-105256968D01*
X46403533Y-105210509D01*
X46389758Y-105207365D01*
X46123237Y-105130582D01*
X46109900Y-105125915D01*
X45853656Y-105019775D01*
X45840925Y-105013644D01*
X45598179Y-104879483D01*
X45586215Y-104871966D01*
X45360008Y-104711463D01*
X45348961Y-104702653D01*
X45142152Y-104517837D01*
X45132161Y-104507846D01*
X44947346Y-104301038D01*
X44938536Y-104289991D01*
X44778033Y-104063783D01*
X44770516Y-104051819D01*
X44636355Y-103809073D01*
X44630224Y-103796342D01*
X44540100Y-103578763D01*
X44524081Y-103540089D01*
X44519420Y-103526769D01*
X44442632Y-103260232D01*
X44439492Y-103246474D01*
X44393030Y-102973024D01*
X44391449Y-102958985D01*
X44390046Y-102933999D01*
X45060396Y-102933999D01*
X45080779Y-103192993D01*
X45141427Y-103445609D01*
X45240846Y-103685627D01*
X45240847Y-103685628D01*
X45376585Y-103907135D01*
X45376590Y-103907142D01*
X45545310Y-104104688D01*
X45675954Y-104216268D01*
X45742860Y-104273411D01*
X45964372Y-104409153D01*
X46204390Y-104508572D01*
X46457006Y-104569220D01*
X46716000Y-104589603D01*
X46974994Y-104569220D01*
X47227610Y-104508572D01*
X47467628Y-104409153D01*
X47689140Y-104273411D01*
X47886689Y-104104688D01*
X48055412Y-103907139D01*
X48191154Y-103685627D01*
X48290573Y-103445609D01*
X48351221Y-103192993D01*
X48371604Y-102933999D01*
X250078771Y-102933999D01*
X250099154Y-103192993D01*
X250159802Y-103445609D01*
X250259221Y-103685627D01*
X250259222Y-103685628D01*
X250394960Y-103907135D01*
X250394965Y-103907142D01*
X250563685Y-104104688D01*
X250694329Y-104216268D01*
X250761235Y-104273411D01*
X250982747Y-104409153D01*
X251222765Y-104508572D01*
X251475381Y-104569220D01*
X251734375Y-104589603D01*
X251993369Y-104569220D01*
X252245985Y-104508572D01*
X252486003Y-104409153D01*
X252707515Y-104273411D01*
X252905064Y-104104688D01*
X253073787Y-103907139D01*
X253209529Y-103685627D01*
X253308948Y-103445609D01*
X253369596Y-103192993D01*
X253389979Y-102933999D01*
X253369596Y-102675005D01*
X253308948Y-102422389D01*
X253209529Y-102182371D01*
X253073787Y-101960859D01*
X253073784Y-101960855D01*
X252905064Y-101763309D01*
X252707518Y-101594589D01*
X252707511Y-101594584D01*
X252577635Y-101514997D01*
X252486003Y-101458845D01*
X252245985Y-101359426D01*
X251993369Y-101298778D01*
X251734375Y-101278395D01*
X251475381Y-101298778D01*
X251222764Y-101359426D01*
X251053044Y-101429726D01*
X251020542Y-101443190D01*
X250982745Y-101458846D01*
X250761238Y-101594584D01*
X250761231Y-101594589D01*
X250563685Y-101763309D01*
X250394965Y-101960855D01*
X250394960Y-101960862D01*
X250259222Y-102182369D01*
X250159802Y-102422388D01*
X250127409Y-102557314D01*
X250099154Y-102675005D01*
X250078771Y-102933999D01*
X48371604Y-102933999D01*
X48351221Y-102675005D01*
X48290573Y-102422389D01*
X48191154Y-102182371D01*
X48055412Y-101960859D01*
X48055409Y-101960855D01*
X47886689Y-101763309D01*
X47689143Y-101594589D01*
X47689136Y-101594584D01*
X47559260Y-101514997D01*
X47467628Y-101458845D01*
X47227610Y-101359426D01*
X46974994Y-101298778D01*
X46716000Y-101278395D01*
X46457006Y-101298778D01*
X46204389Y-101359426D01*
X46034669Y-101429726D01*
X46002167Y-101443190D01*
X45964370Y-101458846D01*
X45742863Y-101594584D01*
X45742856Y-101594589D01*
X45545310Y-101763309D01*
X45376590Y-101960855D01*
X45376585Y-101960862D01*
X45240847Y-102182369D01*
X45141427Y-102422388D01*
X45109034Y-102557314D01*
X45080779Y-102675005D01*
X45060396Y-102933999D01*
X44390046Y-102933999D01*
X44379201Y-102740894D01*
X44375697Y-102678505D01*
X44375500Y-102671443D01*
X44375500Y-89184108D01*
X53319500Y-89184108D01*
X53319500Y-101184107D01*
X53319500Y-101184108D01*
X53319500Y-101315892D01*
X53331165Y-101359426D01*
X53353607Y-101443183D01*
X53353610Y-101443190D01*
X53419497Y-101557310D01*
X53419505Y-101557320D01*
X54419500Y-102557314D01*
X54512686Y-102650500D01*
X54626814Y-102716392D01*
X54754108Y-102750500D01*
X54754110Y-102750500D01*
X67485890Y-102750500D01*
X67485892Y-102750500D01*
X67613186Y-102716392D01*
X67727314Y-102650500D01*
X68820500Y-101557314D01*
X68886392Y-101443186D01*
X68920500Y-101315892D01*
X68920500Y-101184107D01*
X68920500Y-96036115D01*
X68940502Y-95967994D01*
X68994158Y-95921501D01*
X69064432Y-95911397D01*
X69129012Y-95940891D01*
X69162909Y-95987898D01*
X69168596Y-96001628D01*
X69304335Y-96223136D01*
X69304340Y-96223143D01*
X69473060Y-96420689D01*
X69670606Y-96589409D01*
X69670610Y-96589412D01*
X69892122Y-96725154D01*
X70132140Y-96824573D01*
X70384756Y-96885221D01*
X70643750Y-96905604D01*
X70902744Y-96885221D01*
X71155360Y-96824573D01*
X71395378Y-96725154D01*
X71616890Y-96589412D01*
X71814439Y-96420689D01*
X71983162Y-96223140D01*
X72118904Y-96001628D01*
X72218323Y-95761610D01*
X72278971Y-95508994D01*
X72299354Y-95250000D01*
X72278971Y-94991006D01*
X72218323Y-94738390D01*
X72118904Y-94498372D01*
X71983162Y-94276860D01*
X71983159Y-94276856D01*
X71814439Y-94079310D01*
X71616893Y-93910590D01*
X71616886Y-93910585D01*
X71487010Y-93830998D01*
X71395378Y-93774846D01*
X71155360Y-93675427D01*
X70902744Y-93614779D01*
X70643750Y-93594396D01*
X70384756Y-93614779D01*
X70132139Y-93675427D01*
X69892120Y-93774847D01*
X69670613Y-93910585D01*
X69670606Y-93910590D01*
X69473060Y-94079310D01*
X69304340Y-94276856D01*
X69304335Y-94276863D01*
X69168595Y-94498372D01*
X69168594Y-94498374D01*
X69162908Y-94512103D01*
X69118360Y-94567384D01*
X69050996Y-94589804D01*
X68982205Y-94572245D01*
X68933827Y-94520283D01*
X68920500Y-94463884D01*
X68920500Y-89184109D01*
X68920500Y-89184108D01*
X79512000Y-89184108D01*
X79512000Y-101184107D01*
X79512000Y-101184108D01*
X79512000Y-101315892D01*
X79523665Y-101359426D01*
X79546107Y-101443183D01*
X79546110Y-101443190D01*
X79611997Y-101557310D01*
X79612005Y-101557320D01*
X80612000Y-102557314D01*
X80705186Y-102650500D01*
X80819314Y-102716392D01*
X80946608Y-102750500D01*
X80946610Y-102750500D01*
X93678390Y-102750500D01*
X93678392Y-102750500D01*
X93805686Y-102716392D01*
X93919814Y-102650500D01*
X95013000Y-101557314D01*
X95078892Y-101443186D01*
X95113000Y-101315892D01*
X95113000Y-101184107D01*
X95113000Y-89184108D01*
X98562000Y-89184108D01*
X98562000Y-101184107D01*
X98562000Y-101184108D01*
X98562000Y-101315892D01*
X98573665Y-101359426D01*
X98596107Y-101443183D01*
X98596110Y-101443190D01*
X98661997Y-101557310D01*
X98662005Y-101557320D01*
X99662000Y-102557314D01*
X99755186Y-102650500D01*
X99869314Y-102716392D01*
X99996608Y-102750500D01*
X99996610Y-102750500D01*
X112728390Y-102750500D01*
X112728392Y-102750500D01*
X112855686Y-102716392D01*
X112969814Y-102650500D01*
X114063000Y-101557314D01*
X114128892Y-101443186D01*
X114163000Y-101315892D01*
X114163000Y-101184107D01*
X114163000Y-96033097D01*
X114183002Y-95964976D01*
X114236658Y-95918483D01*
X114306932Y-95908379D01*
X114371512Y-95937873D01*
X114405409Y-95984880D01*
X114412346Y-96001628D01*
X114548085Y-96223136D01*
X114548090Y-96223143D01*
X114716810Y-96420689D01*
X114914356Y-96589409D01*
X114914360Y-96589412D01*
X115135872Y-96725154D01*
X115375890Y-96824573D01*
X115628506Y-96885221D01*
X115887500Y-96905604D01*
X116146494Y-96885221D01*
X116399110Y-96824573D01*
X116639128Y-96725154D01*
X116860640Y-96589412D01*
X117058189Y-96420689D01*
X117226912Y-96223140D01*
X117362654Y-96001628D01*
X117369591Y-95984879D01*
X117414138Y-95929599D01*
X117481501Y-95907177D01*
X117550293Y-95924734D01*
X117598672Y-95976696D01*
X117612000Y-96033097D01*
X117612000Y-101184107D01*
X117612000Y-101184108D01*
X117612000Y-101315892D01*
X117623665Y-101359426D01*
X117646107Y-101443183D01*
X117646110Y-101443190D01*
X117711997Y-101557310D01*
X117712005Y-101557320D01*
X118712000Y-102557314D01*
X118805186Y-102650500D01*
X118919314Y-102716392D01*
X119046608Y-102750500D01*
X119046610Y-102750500D01*
X131778390Y-102750500D01*
X131778392Y-102750500D01*
X131905686Y-102716392D01*
X132019814Y-102650500D01*
X133113000Y-101557314D01*
X133178892Y-101443186D01*
X133213000Y-101315892D01*
X133213000Y-101184107D01*
X133213000Y-89184108D01*
X136662000Y-89184108D01*
X136662000Y-101184107D01*
X136662000Y-101184108D01*
X136662000Y-101315892D01*
X136673665Y-101359426D01*
X136696107Y-101443183D01*
X136696110Y-101443190D01*
X136761997Y-101557310D01*
X136762005Y-101557320D01*
X137762000Y-102557314D01*
X137855186Y-102650500D01*
X137969314Y-102716392D01*
X138096608Y-102750500D01*
X138096610Y-102750500D01*
X150828390Y-102750500D01*
X150828392Y-102750500D01*
X150955686Y-102716392D01*
X151069814Y-102650500D01*
X152163000Y-101557314D01*
X152228892Y-101443186D01*
X152263000Y-101315892D01*
X152263000Y-101184107D01*
X152263000Y-96033097D01*
X152283002Y-95964976D01*
X152336658Y-95918483D01*
X152406932Y-95908379D01*
X152471512Y-95937873D01*
X152505409Y-95984880D01*
X152512346Y-96001628D01*
X152648085Y-96223136D01*
X152648090Y-96223143D01*
X152816810Y-96420689D01*
X153014356Y-96589409D01*
X153014360Y-96589412D01*
X153235872Y-96725154D01*
X153475890Y-96824573D01*
X153728506Y-96885221D01*
X153987500Y-96905604D01*
X154246494Y-96885221D01*
X154499110Y-96824573D01*
X154739128Y-96725154D01*
X154960640Y-96589412D01*
X155158189Y-96420689D01*
X155326912Y-96223140D01*
X155462654Y-96001628D01*
X155469591Y-95984879D01*
X155514138Y-95929599D01*
X155581501Y-95907177D01*
X155650293Y-95924734D01*
X155698672Y-95976696D01*
X155712000Y-96033097D01*
X155712000Y-101184107D01*
X155712000Y-101184108D01*
X155712000Y-101315892D01*
X155723665Y-101359426D01*
X155746107Y-101443183D01*
X155746110Y-101443190D01*
X155811997Y-101557310D01*
X155812005Y-101557320D01*
X156812000Y-102557314D01*
X156905186Y-102650500D01*
X157019314Y-102716392D01*
X157146608Y-102750500D01*
X157146610Y-102750500D01*
X169878390Y-102750500D01*
X169878392Y-102750500D01*
X170005686Y-102716392D01*
X170119814Y-102650500D01*
X171213000Y-101557314D01*
X171278892Y-101443186D01*
X171313000Y-101315892D01*
X171313000Y-101184107D01*
X171313000Y-89184108D01*
X174762000Y-89184108D01*
X174762000Y-101184107D01*
X174762000Y-101184108D01*
X174762000Y-101315892D01*
X174773665Y-101359426D01*
X174796107Y-101443183D01*
X174796110Y-101443190D01*
X174861997Y-101557310D01*
X174862005Y-101557320D01*
X175862000Y-102557314D01*
X175955186Y-102650500D01*
X176069314Y-102716392D01*
X176196608Y-102750500D01*
X176196610Y-102750500D01*
X188928390Y-102750500D01*
X188928392Y-102750500D01*
X189055686Y-102716392D01*
X189169814Y-102650500D01*
X190263000Y-101557314D01*
X190328892Y-101443186D01*
X190363000Y-101315892D01*
X190363000Y-101184107D01*
X190363000Y-96033097D01*
X190383002Y-95964976D01*
X190436658Y-95918483D01*
X190506932Y-95908379D01*
X190571512Y-95937873D01*
X190605409Y-95984880D01*
X190612346Y-96001628D01*
X190748085Y-96223136D01*
X190748090Y-96223143D01*
X190916810Y-96420689D01*
X191114356Y-96589409D01*
X191114360Y-96589412D01*
X191335872Y-96725154D01*
X191575890Y-96824573D01*
X191828506Y-96885221D01*
X192087500Y-96905604D01*
X192346494Y-96885221D01*
X192599110Y-96824573D01*
X192839128Y-96725154D01*
X193060640Y-96589412D01*
X193258189Y-96420689D01*
X193426912Y-96223140D01*
X193562654Y-96001628D01*
X193569591Y-95984879D01*
X193614138Y-95929599D01*
X193681501Y-95907177D01*
X193750293Y-95924734D01*
X193798672Y-95976696D01*
X193812000Y-96033097D01*
X193812000Y-101184107D01*
X193812000Y-101184108D01*
X193812000Y-101315892D01*
X193823665Y-101359426D01*
X193846107Y-101443183D01*
X193846110Y-101443190D01*
X193911997Y-101557310D01*
X193912005Y-101557320D01*
X194912000Y-102557314D01*
X195005186Y-102650500D01*
X195119314Y-102716392D01*
X195246608Y-102750500D01*
X195246610Y-102750500D01*
X207978390Y-102750500D01*
X207978392Y-102750500D01*
X208105686Y-102716392D01*
X208219814Y-102650500D01*
X209313000Y-101557314D01*
X209378892Y-101443186D01*
X209413000Y-101315892D01*
X209413000Y-101184107D01*
X209413000Y-89184108D01*
X212862000Y-89184108D01*
X212862000Y-101184107D01*
X212862000Y-101184108D01*
X212862000Y-101315892D01*
X212873665Y-101359426D01*
X212896107Y-101443183D01*
X212896110Y-101443190D01*
X212961997Y-101557310D01*
X212962005Y-101557320D01*
X213962000Y-102557314D01*
X214055186Y-102650500D01*
X214169314Y-102716392D01*
X214296608Y-102750500D01*
X214296610Y-102750500D01*
X227028390Y-102750500D01*
X227028392Y-102750500D01*
X227155686Y-102716392D01*
X227269814Y-102650500D01*
X228363000Y-101557314D01*
X228428892Y-101443186D01*
X228463000Y-101315892D01*
X228463000Y-101184107D01*
X228463000Y-95250000D01*
X230913146Y-95250000D01*
X230933529Y-95508994D01*
X230994177Y-95761610D01*
X231093596Y-96001628D01*
X231112880Y-96033097D01*
X231229335Y-96223136D01*
X231229340Y-96223143D01*
X231398060Y-96420689D01*
X231595606Y-96589409D01*
X231595610Y-96589412D01*
X231817122Y-96725154D01*
X232057140Y-96824573D01*
X232309756Y-96885221D01*
X232568750Y-96905604D01*
X232827744Y-96885221D01*
X233080360Y-96824573D01*
X233320378Y-96725154D01*
X233541890Y-96589412D01*
X233739439Y-96420689D01*
X233908162Y-96223140D01*
X234043904Y-96001628D01*
X234052091Y-95981861D01*
X234096639Y-95926581D01*
X234164003Y-95904160D01*
X234232794Y-95921718D01*
X234281172Y-95973680D01*
X234294500Y-96030080D01*
X234294500Y-101184107D01*
X234294500Y-101184108D01*
X234294500Y-101315892D01*
X234306165Y-101359426D01*
X234328607Y-101443183D01*
X234328610Y-101443190D01*
X234394497Y-101557310D01*
X234394505Y-101557320D01*
X235394500Y-102557314D01*
X235487686Y-102650500D01*
X235601814Y-102716392D01*
X235729108Y-102750500D01*
X235729110Y-102750500D01*
X248460890Y-102750500D01*
X248460892Y-102750500D01*
X248588186Y-102716392D01*
X248702314Y-102650500D01*
X249795500Y-101557314D01*
X249861392Y-101443186D01*
X249895500Y-101315892D01*
X249895500Y-101184107D01*
X249895500Y-89184108D01*
X249861392Y-89056814D01*
X249795500Y-88942686D01*
X249702314Y-88849500D01*
X249603314Y-88750500D01*
X248702320Y-87849505D01*
X248702310Y-87849497D01*
X248588190Y-87783610D01*
X248588187Y-87783609D01*
X248588186Y-87783608D01*
X248588184Y-87783607D01*
X248588183Y-87783607D01*
X248554073Y-87774467D01*
X248460892Y-87749500D01*
X235860893Y-87749500D01*
X235729108Y-87749500D01*
X235660894Y-87767777D01*
X235601816Y-87783607D01*
X235601809Y-87783610D01*
X235487689Y-87849497D01*
X235487679Y-87849505D01*
X234586686Y-88750500D01*
X234487686Y-88849500D01*
X234441093Y-88896092D01*
X234394501Y-88942684D01*
X234394497Y-88942689D01*
X234328610Y-89056809D01*
X234328607Y-89056816D01*
X234294500Y-89184109D01*
X234294500Y-94469919D01*
X234274498Y-94538040D01*
X234220842Y-94584533D01*
X234150568Y-94594637D01*
X234085988Y-94565143D01*
X234052092Y-94518139D01*
X234049592Y-94512103D01*
X234043904Y-94498372D01*
X233908162Y-94276860D01*
X233908159Y-94276856D01*
X233739439Y-94079310D01*
X233541893Y-93910590D01*
X233541886Y-93910585D01*
X233412010Y-93830998D01*
X233320378Y-93774846D01*
X233080360Y-93675427D01*
X232827744Y-93614779D01*
X232568750Y-93594396D01*
X232309756Y-93614779D01*
X232057139Y-93675427D01*
X231817120Y-93774847D01*
X231595613Y-93910585D01*
X231595606Y-93910590D01*
X231398060Y-94079310D01*
X231229340Y-94276856D01*
X231229335Y-94276863D01*
X231111032Y-94469919D01*
X231093596Y-94498372D01*
X231086658Y-94515121D01*
X230994177Y-94738389D01*
X230943815Y-94948162D01*
X230933529Y-94991006D01*
X230913146Y-95250000D01*
X228463000Y-95250000D01*
X228463000Y-89184108D01*
X228428892Y-89056814D01*
X228363000Y-88942686D01*
X228269814Y-88849500D01*
X228170814Y-88750500D01*
X227269820Y-87849505D01*
X227269810Y-87849497D01*
X227155690Y-87783610D01*
X227155687Y-87783609D01*
X227155686Y-87783608D01*
X227155684Y-87783607D01*
X227155683Y-87783607D01*
X227121573Y-87774467D01*
X227028392Y-87749500D01*
X214428393Y-87749500D01*
X214296608Y-87749500D01*
X214228394Y-87767777D01*
X214169316Y-87783607D01*
X214169309Y-87783610D01*
X214055189Y-87849497D01*
X214055179Y-87849505D01*
X213154186Y-88750500D01*
X213055186Y-88849500D01*
X213008593Y-88896092D01*
X212962001Y-88942684D01*
X212961997Y-88942689D01*
X212896110Y-89056809D01*
X212896108Y-89056814D01*
X212862000Y-89184108D01*
X209413000Y-89184108D01*
X209378892Y-89056814D01*
X209313000Y-88942686D01*
X209219814Y-88849500D01*
X209120814Y-88750500D01*
X208219820Y-87849505D01*
X208219810Y-87849497D01*
X208105690Y-87783610D01*
X208105687Y-87783609D01*
X208105686Y-87783608D01*
X208105684Y-87783607D01*
X208105683Y-87783607D01*
X208071573Y-87774467D01*
X207978392Y-87749500D01*
X195378393Y-87749500D01*
X195246608Y-87749500D01*
X195178394Y-87767777D01*
X195119316Y-87783607D01*
X195119309Y-87783610D01*
X195005189Y-87849497D01*
X195005179Y-87849505D01*
X194104186Y-88750500D01*
X194005186Y-88849500D01*
X193958593Y-88896092D01*
X193912001Y-88942684D01*
X193911997Y-88942689D01*
X193846110Y-89056809D01*
X193846107Y-89056816D01*
X193812000Y-89184109D01*
X193812000Y-94466902D01*
X193791998Y-94535023D01*
X193738342Y-94581516D01*
X193668068Y-94591620D01*
X193603488Y-94562126D01*
X193569592Y-94515123D01*
X193562654Y-94498372D01*
X193426912Y-94276860D01*
X193426909Y-94276856D01*
X193258189Y-94079310D01*
X193060643Y-93910590D01*
X193060636Y-93910585D01*
X192930760Y-93830998D01*
X192839128Y-93774846D01*
X192599110Y-93675427D01*
X192346494Y-93614779D01*
X192087500Y-93594396D01*
X191828506Y-93614779D01*
X191575889Y-93675427D01*
X191335870Y-93774847D01*
X191114363Y-93910585D01*
X191114356Y-93910590D01*
X190916810Y-94079310D01*
X190748090Y-94276856D01*
X190748085Y-94276863D01*
X190612348Y-94498368D01*
X190612346Y-94498372D01*
X190605407Y-94515122D01*
X190560860Y-94570401D01*
X190493497Y-94592822D01*
X190424705Y-94575263D01*
X190376327Y-94523301D01*
X190363000Y-94466902D01*
X190363000Y-89184109D01*
X190363000Y-89184108D01*
X190328892Y-89056814D01*
X190263000Y-88942686D01*
X190169814Y-88849500D01*
X190070814Y-88750500D01*
X189169820Y-87849505D01*
X189169810Y-87849497D01*
X189055690Y-87783610D01*
X189055687Y-87783609D01*
X189055686Y-87783608D01*
X189055684Y-87783607D01*
X189055683Y-87783607D01*
X189021573Y-87774467D01*
X188928392Y-87749500D01*
X176328393Y-87749500D01*
X176196608Y-87749500D01*
X176128394Y-87767777D01*
X176069316Y-87783607D01*
X176069309Y-87783610D01*
X175955189Y-87849497D01*
X175955179Y-87849505D01*
X175054186Y-88750500D01*
X174955186Y-88849500D01*
X174908593Y-88896092D01*
X174862001Y-88942684D01*
X174861997Y-88942689D01*
X174796110Y-89056809D01*
X174796108Y-89056814D01*
X174762000Y-89184108D01*
X171313000Y-89184108D01*
X171278892Y-89056814D01*
X171213000Y-88942686D01*
X171119814Y-88849500D01*
X171020814Y-88750500D01*
X170119820Y-87849505D01*
X170119810Y-87849497D01*
X170005690Y-87783610D01*
X170005687Y-87783609D01*
X170005686Y-87783608D01*
X170005684Y-87783607D01*
X170005683Y-87783607D01*
X169971573Y-87774467D01*
X169878392Y-87749500D01*
X157278393Y-87749500D01*
X157146608Y-87749500D01*
X157078394Y-87767777D01*
X157019316Y-87783607D01*
X157019309Y-87783610D01*
X156905189Y-87849497D01*
X156905179Y-87849505D01*
X156004186Y-88750500D01*
X155905186Y-88849500D01*
X155858593Y-88896092D01*
X155812001Y-88942684D01*
X155811997Y-88942689D01*
X155746110Y-89056809D01*
X155746107Y-89056816D01*
X155712000Y-89184109D01*
X155712000Y-94466902D01*
X155691998Y-94535023D01*
X155638342Y-94581516D01*
X155568068Y-94591620D01*
X155503488Y-94562126D01*
X155469592Y-94515123D01*
X155462654Y-94498372D01*
X155326912Y-94276860D01*
X155326909Y-94276856D01*
X155158189Y-94079310D01*
X154960643Y-93910590D01*
X154960636Y-93910585D01*
X154830760Y-93830998D01*
X154739128Y-93774846D01*
X154499110Y-93675427D01*
X154246494Y-93614779D01*
X153987500Y-93594396D01*
X153728506Y-93614779D01*
X153475889Y-93675427D01*
X153235870Y-93774847D01*
X153014363Y-93910585D01*
X153014356Y-93910590D01*
X152816810Y-94079310D01*
X152648090Y-94276856D01*
X152648085Y-94276863D01*
X152512348Y-94498368D01*
X152512346Y-94498372D01*
X152505407Y-94515122D01*
X152460860Y-94570401D01*
X152393497Y-94592822D01*
X152324705Y-94575263D01*
X152276327Y-94523301D01*
X152263000Y-94466902D01*
X152263000Y-89184109D01*
X152263000Y-89184108D01*
X152228892Y-89056814D01*
X152163000Y-88942686D01*
X152069814Y-88849500D01*
X151970814Y-88750500D01*
X151069820Y-87849505D01*
X151069810Y-87849497D01*
X150955690Y-87783610D01*
X150955687Y-87783609D01*
X150955686Y-87783608D01*
X150955684Y-87783607D01*
X150955683Y-87783607D01*
X150921573Y-87774467D01*
X150828392Y-87749500D01*
X138228393Y-87749500D01*
X138096608Y-87749500D01*
X138028394Y-87767777D01*
X137969316Y-87783607D01*
X137969309Y-87783610D01*
X137855189Y-87849497D01*
X137855179Y-87849505D01*
X136954186Y-88750500D01*
X136855186Y-88849500D01*
X136808593Y-88896092D01*
X136762001Y-88942684D01*
X136761997Y-88942689D01*
X136696110Y-89056809D01*
X136696108Y-89056814D01*
X136662000Y-89184108D01*
X133213000Y-89184108D01*
X133178892Y-89056814D01*
X133113000Y-88942686D01*
X133019814Y-88849500D01*
X132920814Y-88750500D01*
X132019820Y-87849505D01*
X132019810Y-87849497D01*
X131905690Y-87783610D01*
X131905687Y-87783609D01*
X131905686Y-87783608D01*
X131905684Y-87783607D01*
X131905683Y-87783607D01*
X131871573Y-87774467D01*
X131778392Y-87749500D01*
X119178393Y-87749500D01*
X119046608Y-87749500D01*
X118978394Y-87767777D01*
X118919316Y-87783607D01*
X118919309Y-87783610D01*
X118805189Y-87849497D01*
X118805179Y-87849505D01*
X117904186Y-88750500D01*
X117805186Y-88849500D01*
X117758593Y-88896092D01*
X117712001Y-88942684D01*
X117711997Y-88942689D01*
X117646110Y-89056809D01*
X117646107Y-89056816D01*
X117612000Y-89184109D01*
X117612000Y-94466902D01*
X117591998Y-94535023D01*
X117538342Y-94581516D01*
X117468068Y-94591620D01*
X117403488Y-94562126D01*
X117369592Y-94515123D01*
X117362654Y-94498372D01*
X117226912Y-94276860D01*
X117226909Y-94276856D01*
X117058189Y-94079310D01*
X116860643Y-93910590D01*
X116860636Y-93910585D01*
X116730760Y-93830998D01*
X116639128Y-93774846D01*
X116399110Y-93675427D01*
X116146494Y-93614779D01*
X115887500Y-93594396D01*
X115628506Y-93614779D01*
X115375889Y-93675427D01*
X115135870Y-93774847D01*
X114914363Y-93910585D01*
X114914356Y-93910590D01*
X114716810Y-94079310D01*
X114548090Y-94276856D01*
X114548085Y-94276863D01*
X114412348Y-94498368D01*
X114412346Y-94498372D01*
X114405407Y-94515122D01*
X114360860Y-94570401D01*
X114293497Y-94592822D01*
X114224705Y-94575263D01*
X114176327Y-94523301D01*
X114163000Y-94466902D01*
X114163000Y-89184109D01*
X114163000Y-89184108D01*
X114128892Y-89056814D01*
X114063000Y-88942686D01*
X113969814Y-88849500D01*
X113870814Y-88750500D01*
X112969820Y-87849505D01*
X112969810Y-87849497D01*
X112855690Y-87783610D01*
X112855687Y-87783609D01*
X112855686Y-87783608D01*
X112855684Y-87783607D01*
X112855683Y-87783607D01*
X112821573Y-87774467D01*
X112728392Y-87749500D01*
X100128393Y-87749500D01*
X99996608Y-87749500D01*
X99928394Y-87767777D01*
X99869316Y-87783607D01*
X99869309Y-87783610D01*
X99755189Y-87849497D01*
X99755179Y-87849505D01*
X98854186Y-88750500D01*
X98755186Y-88849500D01*
X98708593Y-88896092D01*
X98662001Y-88942684D01*
X98661997Y-88942689D01*
X98596110Y-89056809D01*
X98596108Y-89056814D01*
X98562000Y-89184108D01*
X95113000Y-89184108D01*
X95078892Y-89056814D01*
X95013000Y-88942686D01*
X94919814Y-88849500D01*
X94820814Y-88750500D01*
X93919820Y-87849505D01*
X93919810Y-87849497D01*
X93805690Y-87783610D01*
X93805687Y-87783609D01*
X93805686Y-87783608D01*
X93805684Y-87783607D01*
X93805683Y-87783607D01*
X93771573Y-87774467D01*
X93678392Y-87749500D01*
X81078393Y-87749500D01*
X80946608Y-87749500D01*
X80878394Y-87767777D01*
X80819316Y-87783607D01*
X80819309Y-87783610D01*
X80705189Y-87849497D01*
X80705179Y-87849505D01*
X79804186Y-88750500D01*
X79705186Y-88849500D01*
X79658593Y-88896092D01*
X79612001Y-88942684D01*
X79611997Y-88942689D01*
X79546110Y-89056809D01*
X79546108Y-89056814D01*
X79512000Y-89184108D01*
X68920500Y-89184108D01*
X68886392Y-89056814D01*
X68820500Y-88942686D01*
X68727314Y-88849500D01*
X68628314Y-88750500D01*
X67727320Y-87849505D01*
X67727310Y-87849497D01*
X67613190Y-87783610D01*
X67613187Y-87783609D01*
X67613186Y-87783608D01*
X67613184Y-87783607D01*
X67613183Y-87783607D01*
X67579073Y-87774467D01*
X67485892Y-87749500D01*
X54885893Y-87749500D01*
X54754108Y-87749500D01*
X54685894Y-87767777D01*
X54626816Y-87783607D01*
X54626809Y-87783610D01*
X54512689Y-87849497D01*
X54512679Y-87849505D01*
X53611686Y-88750500D01*
X53512686Y-88849500D01*
X53466093Y-88896092D01*
X53419501Y-88942684D01*
X53419497Y-88942689D01*
X53353610Y-89056809D01*
X53353608Y-89056814D01*
X53319500Y-89184108D01*
X44375500Y-89184108D01*
X44375500Y-70134108D01*
X48557500Y-70134108D01*
X48557500Y-82134107D01*
X48557500Y-82134108D01*
X48557500Y-82265892D01*
X48582467Y-82359073D01*
X48591607Y-82393183D01*
X48591610Y-82393190D01*
X48657497Y-82507310D01*
X48657505Y-82507320D01*
X49657500Y-83507314D01*
X49750686Y-83600500D01*
X49864814Y-83666392D01*
X49992108Y-83700500D01*
X49992110Y-83700500D01*
X62723890Y-83700500D01*
X62723892Y-83700500D01*
X62851186Y-83666392D01*
X62965314Y-83600500D01*
X64058500Y-82507314D01*
X64124392Y-82393186D01*
X64158500Y-82265892D01*
X64158500Y-82134107D01*
X64158500Y-70134108D01*
X69987000Y-70134108D01*
X69987000Y-82134107D01*
X69987000Y-82134108D01*
X69987000Y-82265892D01*
X70011967Y-82359073D01*
X70021107Y-82393183D01*
X70021110Y-82393190D01*
X70086997Y-82507310D01*
X70087005Y-82507320D01*
X71087000Y-83507314D01*
X71180186Y-83600500D01*
X71294314Y-83666392D01*
X71421608Y-83700500D01*
X71421610Y-83700500D01*
X84153390Y-83700500D01*
X84153392Y-83700500D01*
X84280686Y-83666392D01*
X84394814Y-83600500D01*
X85488000Y-82507314D01*
X85553892Y-82393186D01*
X85588000Y-82265892D01*
X85588000Y-82134107D01*
X85588000Y-76983097D01*
X85608002Y-76914976D01*
X85661658Y-76868483D01*
X85731932Y-76858379D01*
X85796512Y-76887873D01*
X85830409Y-76934880D01*
X85837346Y-76951628D01*
X85973085Y-77173136D01*
X85973090Y-77173143D01*
X86141810Y-77370689D01*
X86339356Y-77539409D01*
X86339360Y-77539412D01*
X86560872Y-77675154D01*
X86800890Y-77774573D01*
X87053506Y-77835221D01*
X87312500Y-77855604D01*
X87571494Y-77835221D01*
X87824110Y-77774573D01*
X88064128Y-77675154D01*
X88285640Y-77539412D01*
X88483189Y-77370689D01*
X88651912Y-77173140D01*
X88787654Y-76951628D01*
X88794591Y-76934879D01*
X88839138Y-76879599D01*
X88906501Y-76857177D01*
X88975293Y-76874734D01*
X89023672Y-76926696D01*
X89037000Y-76983097D01*
X89037000Y-82134107D01*
X89037000Y-82134108D01*
X89037000Y-82265892D01*
X89061967Y-82359073D01*
X89071107Y-82393183D01*
X89071110Y-82393190D01*
X89136997Y-82507310D01*
X89137005Y-82507320D01*
X90137000Y-83507314D01*
X90230186Y-83600500D01*
X90344314Y-83666392D01*
X90471608Y-83700500D01*
X90471610Y-83700500D01*
X103203390Y-83700500D01*
X103203392Y-83700500D01*
X103330686Y-83666392D01*
X103444814Y-83600500D01*
X104538000Y-82507314D01*
X104603892Y-82393186D01*
X104638000Y-82265892D01*
X104638000Y-82134107D01*
X104638000Y-70134108D01*
X108087000Y-70134108D01*
X108087000Y-82134107D01*
X108087000Y-82134108D01*
X108087000Y-82265892D01*
X108111967Y-82359073D01*
X108121107Y-82393183D01*
X108121110Y-82393190D01*
X108186997Y-82507310D01*
X108187005Y-82507320D01*
X109187000Y-83507314D01*
X109280186Y-83600500D01*
X109394314Y-83666392D01*
X109521608Y-83700500D01*
X109521610Y-83700500D01*
X122253390Y-83700500D01*
X122253392Y-83700500D01*
X122380686Y-83666392D01*
X122494814Y-83600500D01*
X123588000Y-82507314D01*
X123653892Y-82393186D01*
X123688000Y-82265892D01*
X123688000Y-82134107D01*
X123688000Y-76983097D01*
X123708002Y-76914976D01*
X123761658Y-76868483D01*
X123831932Y-76858379D01*
X123896512Y-76887873D01*
X123930409Y-76934880D01*
X123937346Y-76951628D01*
X124073085Y-77173136D01*
X124073090Y-77173143D01*
X124241810Y-77370689D01*
X124439356Y-77539409D01*
X124439360Y-77539412D01*
X124660872Y-77675154D01*
X124900890Y-77774573D01*
X125153506Y-77835221D01*
X125412500Y-77855604D01*
X125671494Y-77835221D01*
X125924110Y-77774573D01*
X126164128Y-77675154D01*
X126385640Y-77539412D01*
X126583189Y-77370689D01*
X126751912Y-77173140D01*
X126887654Y-76951628D01*
X126894591Y-76934879D01*
X126939138Y-76879599D01*
X127006501Y-76857177D01*
X127075293Y-76874734D01*
X127123672Y-76926696D01*
X127137000Y-76983097D01*
X127137000Y-82134107D01*
X127137000Y-82134108D01*
X127137000Y-82265892D01*
X127161967Y-82359073D01*
X127171107Y-82393183D01*
X127171110Y-82393190D01*
X127236997Y-82507310D01*
X127237005Y-82507320D01*
X128237000Y-83507314D01*
X128330186Y-83600500D01*
X128444314Y-83666392D01*
X128571608Y-83700500D01*
X128571610Y-83700500D01*
X141303390Y-83700500D01*
X141303392Y-83700500D01*
X141430686Y-83666392D01*
X141544814Y-83600500D01*
X142638000Y-82507314D01*
X142703892Y-82393186D01*
X142738000Y-82265892D01*
X142738000Y-82134107D01*
X142738000Y-70134108D01*
X146187000Y-70134108D01*
X146187000Y-82134107D01*
X146187000Y-82134108D01*
X146187000Y-82265892D01*
X146211967Y-82359073D01*
X146221107Y-82393183D01*
X146221110Y-82393190D01*
X146286997Y-82507310D01*
X146287005Y-82507320D01*
X147287000Y-83507314D01*
X147380186Y-83600500D01*
X147494314Y-83666392D01*
X147621608Y-83700500D01*
X147621610Y-83700500D01*
X160353390Y-83700500D01*
X160353392Y-83700500D01*
X160480686Y-83666392D01*
X160594814Y-83600500D01*
X161688000Y-82507314D01*
X161753892Y-82393186D01*
X161788000Y-82265892D01*
X161788000Y-82134107D01*
X161788000Y-70134108D01*
X165237000Y-70134108D01*
X165237000Y-82134107D01*
X165237000Y-82134108D01*
X165237000Y-82265892D01*
X165261967Y-82359073D01*
X165271107Y-82393183D01*
X165271110Y-82393190D01*
X165336997Y-82507310D01*
X165337005Y-82507320D01*
X166337000Y-83507314D01*
X166430186Y-83600500D01*
X166544314Y-83666392D01*
X166671608Y-83700500D01*
X166671610Y-83700500D01*
X179403390Y-83700500D01*
X179403392Y-83700500D01*
X179530686Y-83666392D01*
X179644814Y-83600500D01*
X180738000Y-82507314D01*
X180803892Y-82393186D01*
X180838000Y-82265892D01*
X180838000Y-82134107D01*
X180838000Y-76983097D01*
X180858002Y-76914976D01*
X180911658Y-76868483D01*
X180981932Y-76858379D01*
X181046512Y-76887873D01*
X181080409Y-76934880D01*
X181087346Y-76951628D01*
X181223085Y-77173136D01*
X181223090Y-77173143D01*
X181391810Y-77370689D01*
X181589356Y-77539409D01*
X181589360Y-77539412D01*
X181810872Y-77675154D01*
X182050890Y-77774573D01*
X182303506Y-77835221D01*
X182562500Y-77855604D01*
X182821494Y-77835221D01*
X183074110Y-77774573D01*
X183314128Y-77675154D01*
X183535640Y-77539412D01*
X183733189Y-77370689D01*
X183901912Y-77173140D01*
X184037654Y-76951628D01*
X184044591Y-76934879D01*
X184089138Y-76879599D01*
X184156501Y-76857177D01*
X184225293Y-76874734D01*
X184273672Y-76926696D01*
X184287000Y-76983097D01*
X184287000Y-82134107D01*
X184287000Y-82134108D01*
X184287000Y-82265892D01*
X184311967Y-82359073D01*
X184321107Y-82393183D01*
X184321110Y-82393190D01*
X184386997Y-82507310D01*
X184387005Y-82507320D01*
X185387000Y-83507314D01*
X185480186Y-83600500D01*
X185594314Y-83666392D01*
X185721608Y-83700500D01*
X185721610Y-83700500D01*
X198453390Y-83700500D01*
X198453392Y-83700500D01*
X198580686Y-83666392D01*
X198694814Y-83600500D01*
X199788000Y-82507314D01*
X199853892Y-82393186D01*
X199888000Y-82265892D01*
X199888000Y-82134107D01*
X199888000Y-70134108D01*
X203337000Y-70134108D01*
X203337000Y-82134107D01*
X203337000Y-82134108D01*
X203337000Y-82265892D01*
X203361967Y-82359073D01*
X203371107Y-82393183D01*
X203371110Y-82393190D01*
X203436997Y-82507310D01*
X203437005Y-82507320D01*
X204437000Y-83507314D01*
X204530186Y-83600500D01*
X204644314Y-83666392D01*
X204771608Y-83700500D01*
X204771610Y-83700500D01*
X217503390Y-83700500D01*
X217503392Y-83700500D01*
X217630686Y-83666392D01*
X217744814Y-83600500D01*
X218838000Y-82507314D01*
X218903892Y-82393186D01*
X218938000Y-82265892D01*
X218938000Y-82134107D01*
X218938000Y-76983097D01*
X218958002Y-76914976D01*
X219011658Y-76868483D01*
X219081932Y-76858379D01*
X219146512Y-76887873D01*
X219180409Y-76934880D01*
X219187346Y-76951628D01*
X219323085Y-77173136D01*
X219323090Y-77173143D01*
X219491810Y-77370689D01*
X219689356Y-77539409D01*
X219689360Y-77539412D01*
X219910872Y-77675154D01*
X220150890Y-77774573D01*
X220403506Y-77835221D01*
X220662500Y-77855604D01*
X220921494Y-77835221D01*
X221174110Y-77774573D01*
X221414128Y-77675154D01*
X221635640Y-77539412D01*
X221833189Y-77370689D01*
X222001912Y-77173140D01*
X222137654Y-76951628D01*
X222237073Y-76711610D01*
X222297721Y-76458994D01*
X222318104Y-76200000D01*
X222297721Y-75941006D01*
X222237073Y-75688390D01*
X222137654Y-75448372D01*
X222001912Y-75226860D01*
X222001909Y-75226856D01*
X221833189Y-75029310D01*
X221635643Y-74860590D01*
X221635636Y-74860585D01*
X221505760Y-74780998D01*
X221414128Y-74724846D01*
X221174110Y-74625427D01*
X220921494Y-74564779D01*
X220662500Y-74544396D01*
X220403506Y-74564779D01*
X220150889Y-74625427D01*
X219910870Y-74724847D01*
X219689363Y-74860585D01*
X219689356Y-74860590D01*
X219491810Y-75029310D01*
X219323090Y-75226856D01*
X219323085Y-75226863D01*
X219187348Y-75448368D01*
X219187346Y-75448372D01*
X219180407Y-75465122D01*
X219135860Y-75520401D01*
X219068497Y-75542822D01*
X218999705Y-75525263D01*
X218951327Y-75473301D01*
X218938000Y-75416902D01*
X218938000Y-70134109D01*
X218938000Y-70134108D01*
X229529500Y-70134108D01*
X229529500Y-82134107D01*
X229529500Y-82134108D01*
X229529500Y-82265892D01*
X229554467Y-82359073D01*
X229563607Y-82393183D01*
X229563610Y-82393190D01*
X229629497Y-82507310D01*
X229629505Y-82507320D01*
X230629500Y-83507314D01*
X230722686Y-83600500D01*
X230836814Y-83666392D01*
X230964108Y-83700500D01*
X230964110Y-83700500D01*
X243695890Y-83700500D01*
X243695892Y-83700500D01*
X243823186Y-83666392D01*
X243937314Y-83600500D01*
X245030500Y-82507314D01*
X245096392Y-82393186D01*
X245130500Y-82265892D01*
X245130500Y-82134107D01*
X245130500Y-70134108D01*
X245096392Y-70006814D01*
X245030500Y-69892686D01*
X244937314Y-69799500D01*
X244838314Y-69700500D01*
X243937320Y-68799505D01*
X243937310Y-68799497D01*
X243823190Y-68733610D01*
X243823187Y-68733609D01*
X243823186Y-68733608D01*
X243823184Y-68733607D01*
X243823183Y-68733607D01*
X243789073Y-68724467D01*
X243695892Y-68699500D01*
X231095893Y-68699500D01*
X230964108Y-68699500D01*
X230895894Y-68717777D01*
X230836816Y-68733607D01*
X230836809Y-68733610D01*
X230722689Y-68799497D01*
X230722679Y-68799505D01*
X229821686Y-69700500D01*
X229722686Y-69799500D01*
X229676093Y-69846092D01*
X229629501Y-69892684D01*
X229629497Y-69892689D01*
X229563610Y-70006809D01*
X229563608Y-70006814D01*
X229529500Y-70134108D01*
X218938000Y-70134108D01*
X218903892Y-70006814D01*
X218838000Y-69892686D01*
X218744814Y-69799500D01*
X218645814Y-69700500D01*
X217744820Y-68799505D01*
X217744810Y-68799497D01*
X217630690Y-68733610D01*
X217630687Y-68733609D01*
X217630686Y-68733608D01*
X217630684Y-68733607D01*
X217630683Y-68733607D01*
X217596573Y-68724467D01*
X217503392Y-68699500D01*
X204903393Y-68699500D01*
X204771608Y-68699500D01*
X204703394Y-68717777D01*
X204644316Y-68733607D01*
X204644309Y-68733610D01*
X204530189Y-68799497D01*
X204530179Y-68799505D01*
X203629186Y-69700500D01*
X203530186Y-69799500D01*
X203483593Y-69846092D01*
X203437001Y-69892684D01*
X203436997Y-69892689D01*
X203371110Y-70006809D01*
X203371108Y-70006814D01*
X203337000Y-70134108D01*
X199888000Y-70134108D01*
X199853892Y-70006814D01*
X199788000Y-69892686D01*
X199694814Y-69799500D01*
X199595814Y-69700500D01*
X198694820Y-68799505D01*
X198694810Y-68799497D01*
X198580690Y-68733610D01*
X198580687Y-68733609D01*
X198580686Y-68733608D01*
X198580684Y-68733607D01*
X198580683Y-68733607D01*
X198546573Y-68724467D01*
X198453392Y-68699500D01*
X185853393Y-68699500D01*
X185721608Y-68699500D01*
X185653394Y-68717777D01*
X185594316Y-68733607D01*
X185594309Y-68733610D01*
X185480189Y-68799497D01*
X185480179Y-68799505D01*
X184579186Y-69700500D01*
X184480186Y-69799500D01*
X184433593Y-69846092D01*
X184387001Y-69892684D01*
X184386997Y-69892689D01*
X184321110Y-70006809D01*
X184321107Y-70006816D01*
X184287000Y-70134109D01*
X184287000Y-75416902D01*
X184266998Y-75485023D01*
X184213342Y-75531516D01*
X184143068Y-75541620D01*
X184078488Y-75512126D01*
X184044592Y-75465123D01*
X184037654Y-75448372D01*
X183901912Y-75226860D01*
X183901909Y-75226856D01*
X183733189Y-75029310D01*
X183535643Y-74860590D01*
X183535636Y-74860585D01*
X183405760Y-74780998D01*
X183314128Y-74724846D01*
X183074110Y-74625427D01*
X182821494Y-74564779D01*
X182562500Y-74544396D01*
X182303506Y-74564779D01*
X182050889Y-74625427D01*
X181810870Y-74724847D01*
X181589363Y-74860585D01*
X181589356Y-74860590D01*
X181391810Y-75029310D01*
X181223090Y-75226856D01*
X181223085Y-75226863D01*
X181087348Y-75448368D01*
X181087346Y-75448372D01*
X181080407Y-75465122D01*
X181035860Y-75520401D01*
X180968497Y-75542822D01*
X180899705Y-75525263D01*
X180851327Y-75473301D01*
X180838000Y-75416902D01*
X180838000Y-70134109D01*
X180838000Y-70134108D01*
X180803892Y-70006814D01*
X180738000Y-69892686D01*
X180644814Y-69799500D01*
X180545814Y-69700500D01*
X179644820Y-68799505D01*
X179644810Y-68799497D01*
X179530690Y-68733610D01*
X179530687Y-68733609D01*
X179530686Y-68733608D01*
X179530684Y-68733607D01*
X179530683Y-68733607D01*
X179496573Y-68724467D01*
X179403392Y-68699500D01*
X166803393Y-68699500D01*
X166671608Y-68699500D01*
X166603394Y-68717777D01*
X166544316Y-68733607D01*
X166544309Y-68733610D01*
X166430189Y-68799497D01*
X166430179Y-68799505D01*
X165529186Y-69700500D01*
X165430186Y-69799500D01*
X165383593Y-69846092D01*
X165337001Y-69892684D01*
X165336997Y-69892689D01*
X165271110Y-70006809D01*
X165271108Y-70006814D01*
X165237000Y-70134108D01*
X161788000Y-70134108D01*
X161753892Y-70006814D01*
X161688000Y-69892686D01*
X161594814Y-69799500D01*
X161495814Y-69700500D01*
X160594820Y-68799505D01*
X160594810Y-68799497D01*
X160480690Y-68733610D01*
X160480687Y-68733609D01*
X160480686Y-68733608D01*
X160480684Y-68733607D01*
X160480683Y-68733607D01*
X160446573Y-68724467D01*
X160353392Y-68699500D01*
X147753393Y-68699500D01*
X147621608Y-68699500D01*
X147553394Y-68717777D01*
X147494316Y-68733607D01*
X147494309Y-68733610D01*
X147380189Y-68799497D01*
X147380179Y-68799505D01*
X146479186Y-69700500D01*
X146380186Y-69799500D01*
X146333593Y-69846092D01*
X146287001Y-69892684D01*
X146286997Y-69892689D01*
X146221110Y-70006809D01*
X146221108Y-70006814D01*
X146187000Y-70134108D01*
X142738000Y-70134108D01*
X142703892Y-70006814D01*
X142638000Y-69892686D01*
X142544814Y-69799500D01*
X142445814Y-69700500D01*
X141544820Y-68799505D01*
X141544810Y-68799497D01*
X141430690Y-68733610D01*
X141430687Y-68733609D01*
X141430686Y-68733608D01*
X141430684Y-68733607D01*
X141430683Y-68733607D01*
X141396573Y-68724467D01*
X141303392Y-68699500D01*
X128703393Y-68699500D01*
X128571608Y-68699500D01*
X128503394Y-68717777D01*
X128444316Y-68733607D01*
X128444309Y-68733610D01*
X128330189Y-68799497D01*
X128330179Y-68799505D01*
X127429186Y-69700500D01*
X127330186Y-69799500D01*
X127283593Y-69846092D01*
X127237001Y-69892684D01*
X127236997Y-69892689D01*
X127171110Y-70006809D01*
X127171107Y-70006816D01*
X127137000Y-70134109D01*
X127137000Y-75416902D01*
X127116998Y-75485023D01*
X127063342Y-75531516D01*
X126993068Y-75541620D01*
X126928488Y-75512126D01*
X126894592Y-75465123D01*
X126887654Y-75448372D01*
X126751912Y-75226860D01*
X126751909Y-75226856D01*
X126583189Y-75029310D01*
X126385643Y-74860590D01*
X126385636Y-74860585D01*
X126255760Y-74780998D01*
X126164128Y-74724846D01*
X125924110Y-74625427D01*
X125671494Y-74564779D01*
X125412500Y-74544396D01*
X125153506Y-74564779D01*
X124900889Y-74625427D01*
X124660870Y-74724847D01*
X124439363Y-74860585D01*
X124439356Y-74860590D01*
X124241810Y-75029310D01*
X124073090Y-75226856D01*
X124073085Y-75226863D01*
X123937348Y-75448368D01*
X123937346Y-75448372D01*
X123930407Y-75465122D01*
X123885860Y-75520401D01*
X123818497Y-75542822D01*
X123749705Y-75525263D01*
X123701327Y-75473301D01*
X123688000Y-75416902D01*
X123688000Y-70134109D01*
X123688000Y-70134108D01*
X123653892Y-70006814D01*
X123588000Y-69892686D01*
X123494814Y-69799500D01*
X123395814Y-69700500D01*
X122494820Y-68799505D01*
X122494810Y-68799497D01*
X122380690Y-68733610D01*
X122380687Y-68733609D01*
X122380686Y-68733608D01*
X122380684Y-68733607D01*
X122380683Y-68733607D01*
X122346573Y-68724467D01*
X122253392Y-68699500D01*
X109653393Y-68699500D01*
X109521608Y-68699500D01*
X109453394Y-68717777D01*
X109394316Y-68733607D01*
X109394309Y-68733610D01*
X109280189Y-68799497D01*
X109280179Y-68799505D01*
X108379186Y-69700500D01*
X108280186Y-69799500D01*
X108233593Y-69846092D01*
X108187001Y-69892684D01*
X108186997Y-69892689D01*
X108121110Y-70006809D01*
X108121108Y-70006814D01*
X108087000Y-70134108D01*
X104638000Y-70134108D01*
X104603892Y-70006814D01*
X104538000Y-69892686D01*
X104444814Y-69799500D01*
X104345814Y-69700500D01*
X103444820Y-68799505D01*
X103444810Y-68799497D01*
X103330690Y-68733610D01*
X103330687Y-68733609D01*
X103330686Y-68733608D01*
X103330684Y-68733607D01*
X103330683Y-68733607D01*
X103296573Y-68724467D01*
X103203392Y-68699500D01*
X90603393Y-68699500D01*
X90471608Y-68699500D01*
X90403394Y-68717777D01*
X90344316Y-68733607D01*
X90344309Y-68733610D01*
X90230189Y-68799497D01*
X90230179Y-68799505D01*
X89329186Y-69700500D01*
X89230186Y-69799500D01*
X89183593Y-69846092D01*
X89137001Y-69892684D01*
X89136997Y-69892689D01*
X89071110Y-70006809D01*
X89071107Y-70006816D01*
X89037000Y-70134109D01*
X89037000Y-75416902D01*
X89016998Y-75485023D01*
X88963342Y-75531516D01*
X88893068Y-75541620D01*
X88828488Y-75512126D01*
X88794592Y-75465123D01*
X88787654Y-75448372D01*
X88651912Y-75226860D01*
X88651909Y-75226856D01*
X88483189Y-75029310D01*
X88285643Y-74860590D01*
X88285636Y-74860585D01*
X88155760Y-74780998D01*
X88064128Y-74724846D01*
X87824110Y-74625427D01*
X87571494Y-74564779D01*
X87312500Y-74544396D01*
X87053506Y-74564779D01*
X86800889Y-74625427D01*
X86560870Y-74724847D01*
X86339363Y-74860585D01*
X86339356Y-74860590D01*
X86141810Y-75029310D01*
X85973090Y-75226856D01*
X85973085Y-75226863D01*
X85837348Y-75448368D01*
X85837346Y-75448372D01*
X85830407Y-75465122D01*
X85785860Y-75520401D01*
X85718497Y-75542822D01*
X85649705Y-75525263D01*
X85601327Y-75473301D01*
X85588000Y-75416902D01*
X85588000Y-70134109D01*
X85588000Y-70134108D01*
X85553892Y-70006814D01*
X85488000Y-69892686D01*
X85394814Y-69799500D01*
X85295814Y-69700500D01*
X84394820Y-68799505D01*
X84394810Y-68799497D01*
X84280690Y-68733610D01*
X84280687Y-68733609D01*
X84280686Y-68733608D01*
X84280684Y-68733607D01*
X84280683Y-68733607D01*
X84246573Y-68724467D01*
X84153392Y-68699500D01*
X71553393Y-68699500D01*
X71421608Y-68699500D01*
X71353394Y-68717777D01*
X71294316Y-68733607D01*
X71294309Y-68733610D01*
X71180189Y-68799497D01*
X71180179Y-68799505D01*
X70279186Y-69700500D01*
X70180186Y-69799500D01*
X70133593Y-69846092D01*
X70087001Y-69892684D01*
X70086997Y-69892689D01*
X70021110Y-70006809D01*
X70021108Y-70006814D01*
X69987000Y-70134108D01*
X64158500Y-70134108D01*
X64124392Y-70006814D01*
X64058500Y-69892686D01*
X63965314Y-69799500D01*
X63866314Y-69700500D01*
X62965320Y-68799505D01*
X62965310Y-68799497D01*
X62851190Y-68733610D01*
X62851187Y-68733609D01*
X62851186Y-68733608D01*
X62851184Y-68733607D01*
X62851183Y-68733607D01*
X62817073Y-68724467D01*
X62723892Y-68699500D01*
X50123893Y-68699500D01*
X49992108Y-68699500D01*
X49923894Y-68717777D01*
X49864816Y-68733607D01*
X49864809Y-68733610D01*
X49750689Y-68799497D01*
X49750679Y-68799505D01*
X48849686Y-69700500D01*
X48750686Y-69799500D01*
X48704093Y-69846092D01*
X48657501Y-69892684D01*
X48657497Y-69892689D01*
X48591610Y-70006809D01*
X48591608Y-70006814D01*
X48557500Y-70134108D01*
X44375500Y-70134108D01*
X44375500Y-51084108D01*
X46174500Y-51084108D01*
X46174500Y-63084107D01*
X46174500Y-63084108D01*
X46174500Y-63215892D01*
X46199467Y-63309073D01*
X46208607Y-63343183D01*
X46208610Y-63343190D01*
X46274497Y-63457310D01*
X46274505Y-63457320D01*
X47274500Y-64457314D01*
X47367686Y-64550500D01*
X47481814Y-64616392D01*
X47609108Y-64650500D01*
X47609110Y-64650500D01*
X60340890Y-64650500D01*
X60340892Y-64650500D01*
X60468186Y-64616392D01*
X60582314Y-64550500D01*
X61675500Y-63457314D01*
X61741392Y-63343186D01*
X61775500Y-63215892D01*
X61775500Y-63084107D01*
X61775500Y-57933097D01*
X61795502Y-57864976D01*
X61849158Y-57818483D01*
X61919432Y-57808379D01*
X61984012Y-57837873D01*
X62017909Y-57884880D01*
X62024846Y-57901628D01*
X62160585Y-58123136D01*
X62160590Y-58123143D01*
X62329310Y-58320689D01*
X62526856Y-58489409D01*
X62526860Y-58489412D01*
X62748372Y-58625154D01*
X62988390Y-58724573D01*
X63241006Y-58785221D01*
X63500000Y-58805604D01*
X63758994Y-58785221D01*
X64011610Y-58724573D01*
X64251628Y-58625154D01*
X64473140Y-58489412D01*
X64670689Y-58320689D01*
X64839412Y-58123140D01*
X64975154Y-57901628D01*
X64982091Y-57884879D01*
X65026638Y-57829599D01*
X65094001Y-57807177D01*
X65162793Y-57824734D01*
X65211172Y-57876696D01*
X65224500Y-57933097D01*
X65224500Y-63084107D01*
X65224500Y-63084108D01*
X65224500Y-63215892D01*
X65249467Y-63309073D01*
X65258607Y-63343183D01*
X65258610Y-63343190D01*
X65324497Y-63457310D01*
X65324505Y-63457320D01*
X66324500Y-64457314D01*
X66417686Y-64550500D01*
X66531814Y-64616392D01*
X66659108Y-64650500D01*
X66659110Y-64650500D01*
X79390890Y-64650500D01*
X79390892Y-64650500D01*
X79518186Y-64616392D01*
X79632314Y-64550500D01*
X80725500Y-63457314D01*
X80791392Y-63343186D01*
X80825500Y-63215892D01*
X80825500Y-63084107D01*
X80825500Y-51084108D01*
X84274500Y-51084108D01*
X84274500Y-63084107D01*
X84274500Y-63084108D01*
X84274500Y-63215892D01*
X84299467Y-63309073D01*
X84308607Y-63343183D01*
X84308610Y-63343190D01*
X84374497Y-63457310D01*
X84374505Y-63457320D01*
X85374500Y-64457314D01*
X85467686Y-64550500D01*
X85581814Y-64616392D01*
X85709108Y-64650500D01*
X85709110Y-64650500D01*
X98440890Y-64650500D01*
X98440892Y-64650500D01*
X98568186Y-64616392D01*
X98682314Y-64550500D01*
X99775500Y-63457314D01*
X99841392Y-63343186D01*
X99875500Y-63215892D01*
X99875500Y-63084107D01*
X99875500Y-51084108D01*
X103324500Y-51084108D01*
X103324500Y-63084107D01*
X103324500Y-63084108D01*
X103324500Y-63215892D01*
X103349467Y-63309073D01*
X103358607Y-63343183D01*
X103358610Y-63343190D01*
X103424497Y-63457310D01*
X103424505Y-63457320D01*
X104424500Y-64457314D01*
X104517686Y-64550500D01*
X104631814Y-64616392D01*
X104759108Y-64650500D01*
X104759110Y-64650500D01*
X117490890Y-64650500D01*
X117490892Y-64650500D01*
X117618186Y-64616392D01*
X117732314Y-64550500D01*
X118825500Y-63457314D01*
X118891392Y-63343186D01*
X118925500Y-63215892D01*
X118925500Y-63084107D01*
X118925500Y-57933097D01*
X118945502Y-57864976D01*
X118999158Y-57818483D01*
X119069432Y-57808379D01*
X119134012Y-57837873D01*
X119167909Y-57884880D01*
X119174846Y-57901628D01*
X119310585Y-58123136D01*
X119310590Y-58123143D01*
X119479310Y-58320689D01*
X119676856Y-58489409D01*
X119676860Y-58489412D01*
X119898372Y-58625154D01*
X120138390Y-58724573D01*
X120391006Y-58785221D01*
X120650000Y-58805604D01*
X120908994Y-58785221D01*
X121161610Y-58724573D01*
X121401628Y-58625154D01*
X121623140Y-58489412D01*
X121820689Y-58320689D01*
X121989412Y-58123140D01*
X122125154Y-57901628D01*
X122132091Y-57884879D01*
X122176638Y-57829599D01*
X122244001Y-57807177D01*
X122312793Y-57824734D01*
X122361172Y-57876696D01*
X122374500Y-57933097D01*
X122374500Y-63084107D01*
X122374500Y-63084108D01*
X122374500Y-63215892D01*
X122399467Y-63309073D01*
X122408607Y-63343183D01*
X122408610Y-63343190D01*
X122474497Y-63457310D01*
X122474505Y-63457320D01*
X123474500Y-64457314D01*
X123567686Y-64550500D01*
X123681814Y-64616392D01*
X123809108Y-64650500D01*
X123809110Y-64650500D01*
X136540890Y-64650500D01*
X136540892Y-64650500D01*
X136668186Y-64616392D01*
X136782314Y-64550500D01*
X137875500Y-63457314D01*
X137941392Y-63343186D01*
X137975500Y-63215892D01*
X137975500Y-63084107D01*
X137975500Y-51084108D01*
X141424500Y-51084108D01*
X141424500Y-63084107D01*
X141424500Y-63084108D01*
X141424500Y-63215892D01*
X141449467Y-63309073D01*
X141458607Y-63343183D01*
X141458610Y-63343190D01*
X141524497Y-63457310D01*
X141524505Y-63457320D01*
X142524500Y-64457314D01*
X142617686Y-64550500D01*
X142731814Y-64616392D01*
X142859108Y-64650500D01*
X142859110Y-64650500D01*
X155590890Y-64650500D01*
X155590892Y-64650500D01*
X155718186Y-64616392D01*
X155832314Y-64550500D01*
X156925500Y-63457314D01*
X156991392Y-63343186D01*
X157025500Y-63215892D01*
X157025500Y-63084107D01*
X157025500Y-51084108D01*
X160474500Y-51084108D01*
X160474500Y-63084107D01*
X160474500Y-63084108D01*
X160474500Y-63215892D01*
X160499467Y-63309073D01*
X160508607Y-63343183D01*
X160508610Y-63343190D01*
X160574497Y-63457310D01*
X160574505Y-63457320D01*
X161574500Y-64457314D01*
X161667686Y-64550500D01*
X161781814Y-64616392D01*
X161909108Y-64650500D01*
X161909110Y-64650500D01*
X174640890Y-64650500D01*
X174640892Y-64650500D01*
X174768186Y-64616392D01*
X174882314Y-64550500D01*
X175975500Y-63457314D01*
X176041392Y-63343186D01*
X176075500Y-63215892D01*
X176075500Y-63084107D01*
X176075500Y-57933097D01*
X176095502Y-57864976D01*
X176149158Y-57818483D01*
X176219432Y-57808379D01*
X176284012Y-57837873D01*
X176317909Y-57884880D01*
X176324846Y-57901628D01*
X176460585Y-58123136D01*
X176460590Y-58123143D01*
X176629310Y-58320689D01*
X176826856Y-58489409D01*
X176826860Y-58489412D01*
X177048372Y-58625154D01*
X177288390Y-58724573D01*
X177541006Y-58785221D01*
X177800000Y-58805604D01*
X178058994Y-58785221D01*
X178311610Y-58724573D01*
X178551628Y-58625154D01*
X178773140Y-58489412D01*
X178970689Y-58320689D01*
X179139412Y-58123140D01*
X179275154Y-57901628D01*
X179282091Y-57884879D01*
X179326638Y-57829599D01*
X179394001Y-57807177D01*
X179462793Y-57824734D01*
X179511172Y-57876696D01*
X179524500Y-57933097D01*
X179524500Y-63084107D01*
X179524500Y-63084108D01*
X179524500Y-63215892D01*
X179549467Y-63309073D01*
X179558607Y-63343183D01*
X179558610Y-63343190D01*
X179624497Y-63457310D01*
X179624505Y-63457320D01*
X180624500Y-64457314D01*
X180717686Y-64550500D01*
X180831814Y-64616392D01*
X180959108Y-64650500D01*
X180959110Y-64650500D01*
X193690890Y-64650500D01*
X193690892Y-64650500D01*
X193818186Y-64616392D01*
X193932314Y-64550500D01*
X195025500Y-63457314D01*
X195091392Y-63343186D01*
X195125500Y-63215892D01*
X195125500Y-63084107D01*
X195125500Y-51084108D01*
X198574500Y-51084108D01*
X198574500Y-63084107D01*
X198574500Y-63084108D01*
X198574500Y-63215892D01*
X198599467Y-63309073D01*
X198608607Y-63343183D01*
X198608610Y-63343190D01*
X198674497Y-63457310D01*
X198674505Y-63457320D01*
X199674500Y-64457314D01*
X199767686Y-64550500D01*
X199881814Y-64616392D01*
X200009108Y-64650500D01*
X200009110Y-64650500D01*
X212740890Y-64650500D01*
X212740892Y-64650500D01*
X212868186Y-64616392D01*
X212982314Y-64550500D01*
X214075500Y-63457314D01*
X214141392Y-63343186D01*
X214175500Y-63215892D01*
X214175500Y-63084107D01*
X214175500Y-51084108D01*
X217624500Y-51084108D01*
X217624500Y-63084107D01*
X217624500Y-63084108D01*
X217624500Y-63215892D01*
X217649467Y-63309073D01*
X217658607Y-63343183D01*
X217658610Y-63343190D01*
X217724497Y-63457310D01*
X217724505Y-63457320D01*
X218724500Y-64457314D01*
X218817686Y-64550500D01*
X218931814Y-64616392D01*
X219059108Y-64650500D01*
X219059110Y-64650500D01*
X231790890Y-64650500D01*
X231790892Y-64650500D01*
X231918186Y-64616392D01*
X232032314Y-64550500D01*
X233125500Y-63457314D01*
X233191392Y-63343186D01*
X233225500Y-63215892D01*
X233225500Y-63084107D01*
X233225500Y-57933097D01*
X233245502Y-57864976D01*
X233299158Y-57818483D01*
X233369432Y-57808379D01*
X233434012Y-57837873D01*
X233467909Y-57884880D01*
X233474846Y-57901628D01*
X233610585Y-58123136D01*
X233610590Y-58123143D01*
X233779310Y-58320689D01*
X233976856Y-58489409D01*
X233976860Y-58489412D01*
X234198372Y-58625154D01*
X234438390Y-58724573D01*
X234691006Y-58785221D01*
X234950000Y-58805604D01*
X235208994Y-58785221D01*
X235461610Y-58724573D01*
X235701628Y-58625154D01*
X235923140Y-58489412D01*
X236120689Y-58320689D01*
X236289412Y-58123140D01*
X236425154Y-57901628D01*
X236432091Y-57884879D01*
X236476638Y-57829599D01*
X236544001Y-57807177D01*
X236612793Y-57824734D01*
X236661172Y-57876696D01*
X236674500Y-57933097D01*
X236674500Y-63084107D01*
X236674500Y-63084108D01*
X236674500Y-63215892D01*
X236699467Y-63309073D01*
X236708607Y-63343183D01*
X236708610Y-63343190D01*
X236774497Y-63457310D01*
X236774505Y-63457320D01*
X237774500Y-64457314D01*
X237867686Y-64550500D01*
X237981814Y-64616392D01*
X238109108Y-64650500D01*
X238109110Y-64650500D01*
X250840890Y-64650500D01*
X250840892Y-64650500D01*
X250968186Y-64616392D01*
X251082314Y-64550500D01*
X252175500Y-63457314D01*
X252241392Y-63343186D01*
X252275500Y-63215892D01*
X252275500Y-63084107D01*
X252275500Y-51084108D01*
X252241392Y-50956814D01*
X252175500Y-50842686D01*
X252082314Y-50749500D01*
X251605975Y-50273161D01*
X251082320Y-49749505D01*
X251082310Y-49749497D01*
X250968190Y-49683610D01*
X250968187Y-49683609D01*
X250968186Y-49683608D01*
X250968184Y-49683607D01*
X250968183Y-49683607D01*
X250934073Y-49674467D01*
X250840892Y-49649500D01*
X238240893Y-49649500D01*
X238109108Y-49649500D01*
X238040894Y-49667777D01*
X237981816Y-49683607D01*
X237981809Y-49683610D01*
X237867689Y-49749497D01*
X237867679Y-49749505D01*
X237108079Y-50509107D01*
X236867686Y-50749500D01*
X236823400Y-50793786D01*
X236809812Y-50807374D01*
X236747499Y-50841399D01*
X236676683Y-50836333D01*
X236619848Y-50793786D01*
X236595038Y-50727266D01*
X236595104Y-50708403D01*
X236605604Y-50574999D01*
X236585221Y-50316005D01*
X236524573Y-50063389D01*
X236425154Y-49823371D01*
X236289412Y-49601859D01*
X236162834Y-49453655D01*
X236120689Y-49404309D01*
X235923143Y-49235589D01*
X235923136Y-49235584D01*
X235793260Y-49155997D01*
X235701628Y-49099845D01*
X235461610Y-49000426D01*
X235208994Y-48939778D01*
X234950000Y-48919395D01*
X234691006Y-48939778D01*
X234438389Y-49000426D01*
X234198370Y-49099846D01*
X233976863Y-49235584D01*
X233976856Y-49235589D01*
X233779310Y-49404309D01*
X233610590Y-49601855D01*
X233610585Y-49601862D01*
X233474847Y-49823369D01*
X233375427Y-50063388D01*
X233314779Y-50316005D01*
X233294396Y-50574999D01*
X233304894Y-50708393D01*
X233290298Y-50777873D01*
X233240455Y-50828432D01*
X233171190Y-50844018D01*
X233104495Y-50819682D01*
X233090187Y-50807373D01*
X233032314Y-50749500D01*
X232032320Y-49749505D01*
X232032310Y-49749497D01*
X231918190Y-49683610D01*
X231918187Y-49683609D01*
X231918186Y-49683608D01*
X231918184Y-49683607D01*
X231918183Y-49683607D01*
X231884073Y-49674467D01*
X231790892Y-49649500D01*
X219190893Y-49649500D01*
X219059108Y-49649500D01*
X218990894Y-49667777D01*
X218931816Y-49683607D01*
X218931809Y-49683610D01*
X218817689Y-49749497D01*
X218817679Y-49749505D01*
X218058079Y-50509107D01*
X217817686Y-50749500D01*
X217789313Y-50777873D01*
X217724501Y-50842684D01*
X217724497Y-50842689D01*
X217658610Y-50956809D01*
X217658608Y-50956814D01*
X217624500Y-51084108D01*
X214175500Y-51084108D01*
X214141392Y-50956814D01*
X214075500Y-50842686D01*
X213982314Y-50749500D01*
X213505975Y-50273161D01*
X212982320Y-49749505D01*
X212982310Y-49749497D01*
X212868190Y-49683610D01*
X212868187Y-49683609D01*
X212868186Y-49683608D01*
X212868184Y-49683607D01*
X212868183Y-49683607D01*
X212834073Y-49674467D01*
X212740892Y-49649500D01*
X200140893Y-49649500D01*
X200009108Y-49649500D01*
X199940894Y-49667777D01*
X199881816Y-49683607D01*
X199881809Y-49683610D01*
X199767689Y-49749497D01*
X199767679Y-49749505D01*
X199008079Y-50509107D01*
X198767686Y-50749500D01*
X198739313Y-50777873D01*
X198674501Y-50842684D01*
X198674497Y-50842689D01*
X198608610Y-50956809D01*
X198608608Y-50956814D01*
X198574500Y-51084108D01*
X195125500Y-51084108D01*
X195091392Y-50956814D01*
X195025500Y-50842686D01*
X194932314Y-50749500D01*
X194455975Y-50273161D01*
X193932320Y-49749505D01*
X193932310Y-49749497D01*
X193818190Y-49683610D01*
X193818187Y-49683609D01*
X193818186Y-49683608D01*
X193818184Y-49683607D01*
X193818183Y-49683607D01*
X193784073Y-49674467D01*
X193690892Y-49649500D01*
X181090893Y-49649500D01*
X180959108Y-49649500D01*
X180890894Y-49667777D01*
X180831816Y-49683607D01*
X180831809Y-49683610D01*
X180717689Y-49749497D01*
X180717679Y-49749505D01*
X179958079Y-50509107D01*
X179717686Y-50749500D01*
X179689313Y-50777873D01*
X179624501Y-50842684D01*
X179624497Y-50842689D01*
X179558610Y-50956809D01*
X179558607Y-50956816D01*
X179524500Y-51084109D01*
X179524500Y-56366902D01*
X179504498Y-56435023D01*
X179450842Y-56481516D01*
X179380568Y-56491620D01*
X179315988Y-56462126D01*
X179282092Y-56415123D01*
X179275154Y-56398372D01*
X179139412Y-56176860D01*
X179139409Y-56176856D01*
X178970689Y-55979310D01*
X178773143Y-55810590D01*
X178773136Y-55810585D01*
X178643260Y-55730998D01*
X178551628Y-55674846D01*
X178311610Y-55575427D01*
X178058994Y-55514779D01*
X177800000Y-55494396D01*
X177541006Y-55514779D01*
X177288389Y-55575427D01*
X177048370Y-55674847D01*
X176826863Y-55810585D01*
X176826856Y-55810590D01*
X176629310Y-55979310D01*
X176460590Y-56176856D01*
X176460585Y-56176863D01*
X176324848Y-56398368D01*
X176324846Y-56398372D01*
X176317907Y-56415122D01*
X176273360Y-56470401D01*
X176205997Y-56492822D01*
X176137205Y-56475263D01*
X176088827Y-56423301D01*
X176075500Y-56366902D01*
X176075500Y-51084109D01*
X176054490Y-51005697D01*
X176041392Y-50956814D01*
X175975500Y-50842686D01*
X175882314Y-50749500D01*
X175405975Y-50273161D01*
X174882320Y-49749505D01*
X174882310Y-49749497D01*
X174768190Y-49683610D01*
X174768187Y-49683609D01*
X174768186Y-49683608D01*
X174768184Y-49683607D01*
X174768183Y-49683607D01*
X174734073Y-49674467D01*
X174640892Y-49649500D01*
X162040893Y-49649500D01*
X161909108Y-49649500D01*
X161840894Y-49667777D01*
X161781816Y-49683607D01*
X161781809Y-49683610D01*
X161667689Y-49749497D01*
X161667679Y-49749505D01*
X160908079Y-50509107D01*
X160667686Y-50749500D01*
X160639313Y-50777873D01*
X160574501Y-50842684D01*
X160574497Y-50842689D01*
X160508610Y-50956809D01*
X160508608Y-50956814D01*
X160474500Y-51084108D01*
X157025500Y-51084108D01*
X156991392Y-50956814D01*
X156925500Y-50842686D01*
X156832314Y-50749500D01*
X156355975Y-50273161D01*
X155832320Y-49749505D01*
X155832310Y-49749497D01*
X155718190Y-49683610D01*
X155718187Y-49683609D01*
X155718186Y-49683608D01*
X155718184Y-49683607D01*
X155718183Y-49683607D01*
X155684073Y-49674467D01*
X155590892Y-49649500D01*
X142990893Y-49649500D01*
X142859108Y-49649500D01*
X142790894Y-49667777D01*
X142731816Y-49683607D01*
X142731809Y-49683610D01*
X142617689Y-49749497D01*
X142617679Y-49749505D01*
X141858079Y-50509107D01*
X141617686Y-50749500D01*
X141589313Y-50777873D01*
X141524501Y-50842684D01*
X141524497Y-50842689D01*
X141458610Y-50956809D01*
X141458608Y-50956814D01*
X141424500Y-51084108D01*
X137975500Y-51084108D01*
X137941392Y-50956814D01*
X137875500Y-50842686D01*
X137782314Y-50749500D01*
X137305975Y-50273161D01*
X136782320Y-49749505D01*
X136782310Y-49749497D01*
X136668190Y-49683610D01*
X136668187Y-49683609D01*
X136668186Y-49683608D01*
X136668184Y-49683607D01*
X136668183Y-49683607D01*
X136634073Y-49674467D01*
X136540892Y-49649500D01*
X123940893Y-49649500D01*
X123809108Y-49649500D01*
X123740894Y-49667777D01*
X123681816Y-49683607D01*
X123681809Y-49683610D01*
X123567689Y-49749497D01*
X123567679Y-49749505D01*
X122808079Y-50509107D01*
X122567686Y-50749500D01*
X122539313Y-50777873D01*
X122474501Y-50842684D01*
X122474497Y-50842689D01*
X122408610Y-50956809D01*
X122408607Y-50956816D01*
X122374500Y-51084109D01*
X122374500Y-56366902D01*
X122354498Y-56435023D01*
X122300842Y-56481516D01*
X122230568Y-56491620D01*
X122165988Y-56462126D01*
X122132092Y-56415123D01*
X122125154Y-56398372D01*
X121989412Y-56176860D01*
X121989409Y-56176856D01*
X121820689Y-55979310D01*
X121623143Y-55810590D01*
X121623136Y-55810585D01*
X121493260Y-55730998D01*
X121401628Y-55674846D01*
X121161610Y-55575427D01*
X120908994Y-55514779D01*
X120650000Y-55494396D01*
X120391006Y-55514779D01*
X120138389Y-55575427D01*
X119898370Y-55674847D01*
X119676863Y-55810585D01*
X119676856Y-55810590D01*
X119479310Y-55979310D01*
X119310590Y-56176856D01*
X119310585Y-56176863D01*
X119174848Y-56398368D01*
X119174846Y-56398372D01*
X119167907Y-56415122D01*
X119123360Y-56470401D01*
X119055997Y-56492822D01*
X118987205Y-56475263D01*
X118938827Y-56423301D01*
X118925500Y-56366902D01*
X118925500Y-51084109D01*
X118904490Y-51005697D01*
X118891392Y-50956814D01*
X118825500Y-50842686D01*
X118732314Y-50749500D01*
X118255975Y-50273161D01*
X117732320Y-49749505D01*
X117732310Y-49749497D01*
X117618190Y-49683610D01*
X117618187Y-49683609D01*
X117618186Y-49683608D01*
X117618184Y-49683607D01*
X117618183Y-49683607D01*
X117584073Y-49674467D01*
X117490892Y-49649500D01*
X104890893Y-49649500D01*
X104759108Y-49649500D01*
X104690894Y-49667777D01*
X104631816Y-49683607D01*
X104631809Y-49683610D01*
X104517689Y-49749497D01*
X104517679Y-49749505D01*
X103758079Y-50509107D01*
X103517686Y-50749500D01*
X103489313Y-50777873D01*
X103424501Y-50842684D01*
X103424497Y-50842689D01*
X103358610Y-50956809D01*
X103358608Y-50956814D01*
X103324500Y-51084108D01*
X99875500Y-51084108D01*
X99841392Y-50956814D01*
X99775500Y-50842686D01*
X99682314Y-50749500D01*
X99205975Y-50273161D01*
X98682320Y-49749505D01*
X98682310Y-49749497D01*
X98568190Y-49683610D01*
X98568187Y-49683609D01*
X98568186Y-49683608D01*
X98568184Y-49683607D01*
X98568183Y-49683607D01*
X98534073Y-49674467D01*
X98440892Y-49649500D01*
X85840893Y-49649500D01*
X85709108Y-49649500D01*
X85640894Y-49667777D01*
X85581816Y-49683607D01*
X85581809Y-49683610D01*
X85467689Y-49749497D01*
X85467679Y-49749505D01*
X84708079Y-50509107D01*
X84467686Y-50749500D01*
X84439313Y-50777873D01*
X84374501Y-50842684D01*
X84374497Y-50842689D01*
X84308610Y-50956809D01*
X84308608Y-50956814D01*
X84274500Y-51084108D01*
X80825500Y-51084108D01*
X80791392Y-50956814D01*
X80725500Y-50842686D01*
X80632314Y-50749500D01*
X80155975Y-50273161D01*
X79632320Y-49749505D01*
X79632310Y-49749497D01*
X79518190Y-49683610D01*
X79518187Y-49683609D01*
X79518186Y-49683608D01*
X79518184Y-49683607D01*
X79518183Y-49683607D01*
X79484073Y-49674467D01*
X79390892Y-49649500D01*
X66790893Y-49649500D01*
X66659108Y-49649500D01*
X66590894Y-49667777D01*
X66531816Y-49683607D01*
X66531809Y-49683610D01*
X66417689Y-49749497D01*
X66417679Y-49749505D01*
X65658079Y-50509107D01*
X65417686Y-50749500D01*
X65373400Y-50793786D01*
X65359812Y-50807374D01*
X65297499Y-50841399D01*
X65226683Y-50836333D01*
X65169848Y-50793786D01*
X65145038Y-50727266D01*
X65145104Y-50708403D01*
X65155604Y-50574999D01*
X65135221Y-50316005D01*
X65074573Y-50063389D01*
X64975154Y-49823371D01*
X64839412Y-49601859D01*
X64712834Y-49453655D01*
X64670689Y-49404309D01*
X64473143Y-49235589D01*
X64473136Y-49235584D01*
X64343260Y-49155997D01*
X64251628Y-49099845D01*
X64011610Y-49000426D01*
X63758994Y-48939778D01*
X63500000Y-48919395D01*
X63241006Y-48939778D01*
X62988389Y-49000426D01*
X62748370Y-49099846D01*
X62526863Y-49235584D01*
X62526856Y-49235589D01*
X62329310Y-49404309D01*
X62160590Y-49601855D01*
X62160585Y-49601862D01*
X62024847Y-49823369D01*
X61925427Y-50063388D01*
X61864779Y-50316005D01*
X61844396Y-50574999D01*
X61854894Y-50708393D01*
X61840298Y-50777873D01*
X61790455Y-50828432D01*
X61721190Y-50844018D01*
X61654495Y-50819682D01*
X61640187Y-50807373D01*
X61547041Y-50714227D01*
X61527019Y-50688135D01*
X61487500Y-50619686D01*
X61487497Y-50619683D01*
X61487494Y-50619679D01*
X61394320Y-50526505D01*
X61394310Y-50526497D01*
X61325866Y-50486981D01*
X61299774Y-50466960D01*
X60582314Y-49749500D01*
X60582312Y-49749499D01*
X60582310Y-49749497D01*
X60468190Y-49683610D01*
X60468187Y-49683609D01*
X60468186Y-49683608D01*
X60468184Y-49683607D01*
X60468183Y-49683607D01*
X60434073Y-49674467D01*
X60340892Y-49649500D01*
X47740893Y-49649500D01*
X47609108Y-49649500D01*
X47540894Y-49667777D01*
X47481816Y-49683607D01*
X47481809Y-49683610D01*
X47367689Y-49749497D01*
X47367679Y-49749505D01*
X46608079Y-50509107D01*
X46367686Y-50749500D01*
X46339313Y-50777873D01*
X46274501Y-50842684D01*
X46274497Y-50842689D01*
X46208610Y-50956809D01*
X46208608Y-50956814D01*
X46174500Y-51084108D01*
X44375500Y-51084108D01*
X44375500Y-50578538D01*
X44375698Y-50571473D01*
X44391448Y-50291013D01*
X44393030Y-50276972D01*
X44415572Y-50144301D01*
X44439490Y-50003527D01*
X44442633Y-49989759D01*
X44519420Y-49723227D01*
X44524080Y-49709909D01*
X44630226Y-49453651D01*
X44636355Y-49440926D01*
X44770519Y-49198174D01*
X44778027Y-49186223D01*
X44938539Y-48960001D01*
X44947342Y-48948964D01*
X45132170Y-48742141D01*
X45142152Y-48732161D01*
X45348962Y-48547345D01*
X45360000Y-48538540D01*
X45586222Y-48378027D01*
X45598171Y-48370519D01*
X45840929Y-48236351D01*
X45853651Y-48230225D01*
X46109914Y-48124077D01*
X46123223Y-48119420D01*
X46389770Y-48042630D01*
X46403520Y-48039491D01*
X46676976Y-47993029D01*
X46691008Y-47991448D01*
X46971494Y-47975696D01*
X46978555Y-47975499D01*
X47040892Y-47975499D01*
X251409108Y-47975499D01*
X251471461Y-47975499D01*
X251478525Y-47975696D01*
G37*
%TD.AperFunction*%
%TD*%
M02*
