0
SECTION
2
HEADER
9
$INSUNITS
70
4
9
$ACADVER
1
AC1014
9
$HANDSEED
5
FFFF
0
ENDSEC
0
SECTION
2
TABLES
0
TABLE
2
VPORT
5
8
100
AcDbSymbolTable
0
ENDTAB
0
TABLE
2
LTYPE
5
5
100
AcDbSymbolTable
0
LTYPE
5
14
100
AcDbSymbolTableRecord
100
AcDbLinetypeTableRecord
2
BYBLOCK
70
0
0
LTYPE
5
15
100
AcDbSymbolTableRecord
100
AcDbLinetypeTableRecord
2
BYLAYER
70
0
0
LTYPE
5
16
100
AcDbSymbolTableRecord
100
AcDbLinetypeTableRecord
2
DASHED
70
0
3
Dashed __ __ __ __ __ __ __ __ __ __ __ __ __ _
72
65
73
2
40
0.75
49
0.5
74
0
49
-0.25
74
0
0
ENDTAB
0
TABLE
2
LAYER
5
2
100
AcDbSymbolTable
70
2
0
LAYER
5
50
100
AcDbSymbolTableRecord
100
AcDbLayerTableRecord
2
0
70
0
62
7
6
CONTINUOUS
0
ENDTAB
0
TABLE
2
STYLE
5
3
100
AcDbSymbolTable
70
1
0
STYLE
5
11
100
AcDbSymbolTableRecord
100
AcDbTextStyleTableRecord
2
STANDARD
70
0
0
ENDTAB
0
TABLE
2
VIEW
5
6
100
AcDbSymbolTable
70
0
0
ENDTAB
0
TABLE
2
UCS
5
7
100
AcDbSymbolTable
70
0
0
ENDTAB
0
TABLE
2
APPID
5
9
100
AcDbSymbolTable
70
2
0
APPID
5
12
100
AcDbSymbolTableRecord
100
AcDbRegAppTableRecord
2
ACAD
70
0
0
ENDTAB
0
TABLE
2
DIMSTYLE
5
A
100
AcDbSymbolTable
70
1
0
ENDTAB
0
TABLE
2
BLOCK_RECORD
5
1
100
AcDbSymbolTable
70
1
0
BLOCK_RECORD
5
1F
100
AcDbSymbolTableRecord
100
AcDbBlockTableRecord
2
*MODEL_SPACE
0
BLOCK_RECORD
5
1B
100
AcDbSymbolTableRecord
100
AcDbBlockTableRecord
2
*PAPER_SPACE
0
ENDTAB
0
ENDSEC
0
SECTION
2
BLOCKS
0
BLOCK
5
20
100
AcDbEntity
100
AcDbBlockBegin
2
*MODEL_SPACE
0
ENDBLK
5
21
100
AcDbEntity
100
AcDbBlockEnd
0
BLOCK
5
1C
100
AcDbEntity
100
AcDbBlockBegin
2
*PAPER_SPACE
0
ENDBLK
5
1D
100
AcDbEntity
100
AcDbBlockEnd
0
ENDSEC
0
SECTION
2
ENTITIES
0
LWPOLYLINE
5
100
100
AcDbEntity
8
0
100
AcDbPolyline
90
16
70
1
43
0.0
10
-254.57499999999399
20
50.574998999999998
42
0.41421354838697044
10
-251.47500000000002
20
47.474998999996018
10
-46.975000000000016
20
47.474999000000004
42
0.41421354838753938
10
-43.875
20
50.574998999999998
10
-43.875
20
102.67499900000001
42
0.41421354837903446
10
-46.975000000000009
20
105.77499899991402
10
-71.25
20
105.77499899990508
42
-0.41421333335633703
10
-72.449999999999918
20
106.974999
10
-72.450000000000017
20
121.724999
42
0.41421354837903446
10
-75.549999999999997
20
124.82499899991397
10
-222.90000000000003
20
124.82499900000001
42
0.41421354837846969
10
-225.99999999999397
20
121.724999
10
-225.99999999999511
20
106.974999
42
-0.41421333335755101
10
-227.19999999999999
20
105.77499899990508
10
-251.47500000000002
20
105.77499899999999
42
0.41421354837846969
10
-254.57499999999396
20
102.67499900000001
0
LWPOLYLINE
5
101
100
AcDbEntity
8
0
100
AcDbPolyline
90
8
70
1
43
0.0
10
-77.271600000000007
20
107.24639999992553
42
0.41421397591411291
10
-75.196599999999506
20
109.32140000000001
10
-75.196599999999506
20
119.27140000000001
42
0.41421397589999631
10
-77.271600000000007
20
121.34640000000002
10
-87.821600000000018
20
121.34639999997448
42
0.41421397589999381
10
-89.896600000000007
20
119.27140000000001
10
-89.896600000000504
20
109.32140000000001
42
0.41421397591411047
10
-87.821600000000018
20
107.24640000000001
0
LWPOLYLINE
5
102
100
AcDbEntity
8
0
100
AcDbPolyline
90
8
70
1
43
0.0
10
-98.688495999999475
20
107.24639999992488
42
0.41216212643390226
10
-96.627849999999427
20
109.32140000000001
10
-96.627850000000549
20
119.27140000000001
42
0.41423053280884353
10
-98.702800000000011
20
121.34640000000002
10
-109.26705999999962
20
121.34639999994307
42
0.41219685968176401
10
-111.32785
20
119.2713
10
-111.32784999999646
20
109.32140000000001
42
0.41423053282253736
10
-109.25290000000001
20
107.24640000000001
0
LWPOLYLINE
5
103
100
AcDbEntity
8
0
100
AcDbPolyline
90
8
70
1
43
0.0
10
-127.26349599999989
20
107.24639999998104
42
0.41217622091849632
10
-125.2028499999937
20
109.3215
10
-125.20284999999355
20
119.27140000000001
42
0.41423053280983152
10
-127.27780000000001
20
121.34640000000002
10
-137.84205999999961
20
121.34639999994307
42
0.41219685968176656
10
-139.90285
20
119.2713
10
-139.90284999999645
20
109.32140000000001
42
0.4142305328225348
10
-137.8279
20
107.24640000000001
0
LWPOLYLINE
5
104
100
AcDbEntity
8
0
100
AcDbPolyline
90
8
70
1
43
0.0
10
-160.60099599999987
20
107.24639999998104
42
0.41217622091849632
10
-158.54034999999368
20
109.3215
10
-158.54034999999357
20
119.27140000000001
42
0.41423053280982897
10
-160.61530000000002
20
121.34640000000002
10
-171.17955999999964
20
121.34639999994307
42
0.41219685968176151
10
-173.24035000000003
20
119.2713
10
-173.24034999999645
20
109.32140000000001
42
0.41423053282253736
10
-171.16540000000001
20
107.24640000000001
0
LWPOLYLINE
5
105
100
AcDbEntity
8
0
100
AcDbPolyline
90
8
70
1
43
0.0
10
-189.17599599999986
20
107.24639999998104
42
0.41217622091849132
10
-187.1153499999937
20
109.3215
10
-187.11534999999355
20
119.27140000000001
42
0.41423053280983402
10
-189.19030000000004
20
121.34640000000002
10
-199.75455999999963
20
121.34639999994307
42
0.41219685968176656
10
-201.81535
20
119.2713
10
-201.8153499999965
20
109.32140000000001
42
0.41423053282253736
10
-199.74040000000002
20
107.24640000000001
0
LWPOLYLINE
5
106
100
AcDbEntity
8
0
100
AcDbPolyline
90
8
70
1
43
0.0
10
-210.62160000000003
20
107.24639999992553
42
0.41421397591467457
10
-208.54659999999555
20
109.32140000000001
10
-208.54659999999555
20
119.27140000000001
42
0.41421397590055797
10
-210.62160000000003
20
121.34640000000002
10
-221.17160000000001
20
121.34639999997448
42
0.41421397589914377
10
-223.2466
20
119.27140000000001
10
-223.24659999999449
20
109.32140000000001
42
0.41421397591326042
10
-221.17160000000001
20
107.24640000000001
0
LWPOLYLINE
5
107
100
AcDbEntity
8
0
100
AcDbPolyline
90
4
70
1
43
0.0
10
-182.77444200000002
20
117.36537400000002
10
-179.17921100000001
20
117.36537400000002
10
-179.17921100000001
20
111.222627
10
-182.77444200000002
20
111.222627
0
CIRCLE
5
108
100
AcDbEntity
8
0
100
AcDbCircle
10
-92.075000000000017
20
114.3
30
0
40
0.80000000000000016
210
0
220
0
230
1
0
CIRCLE
5
109
100
AcDbEntity
8
0
100
AcDbCircle
10
-123.03125000000001
20
114.3
30
0
40
0.80000000000000016
210
0
220
0
230
1
0
CIRCLE
5
110
100
AcDbEntity
8
0
100
AcDbCircle
10
-175.41875000000002
20
114.3
30
0
40
0.80000000000000016
210
0
220
0
230
1
0
CIRCLE
5
111
100
AcDbEntity
8
0
100
AcDbCircle
10
-206.37500000000003
20
114.3
30
0
40
0.80000000000000016
210
0
220
0
230
1
0
CIRCLE
5
112
100
AcDbEntity
8
0
100
AcDbCircle
10
-46.716000000000008
20
102.933999
30
0
40
1.1499999999999999
210
0
220
0
230
1
0
CIRCLE
5
113
100
AcDbEntity
8
0
100
AcDbCircle
10
-251.73437500000003
20
102.933999
30
0
40
1.1499999999999999
210
0
220
0
230
1
0
LWPOLYLINE
5
114
100
AcDbEntity
8
0
100
AcDbPolyline
90
8
70
1
43
0.0
10
-55.840350000000001
20
88.196399999995506
42
0.41421397590423509
10
-53.765349999999529
20
90.271400000000028
10
-53.765349999999529
20
100.2214
42
0.41421397589999503
10
-55.840350000000001
20
102.29640000000002
10
-66.390349999999998
20
102.29639999997448
42
0.41421397589999631
10
-68.465350000000001
20
100.2214
10
-68.465350000000484
20
90.271400000000014
42
0.41421397590423376
10
-66.390349999999998
20
88.196399999999997
0
LWPOLYLINE
5
115
100
AcDbEntity
8
0
100
AcDbPolyline
90
8
70
1
43
0.0
10
-82.034099999999995
20
88.196399999995506
42
0.41421397590423376
10
-79.959099999999509
20
90.271400000000014
10
-79.959099999999509
20
100.2214
42
0.41421397589999631
10
-82.034099999999995
20
102.29640000000002
10
-92.584100000000007
20
102.29639999997448
42
0.41421397589999631
10
-94.659099999999995
20
100.2214
10
-94.659100000000507
20
90.271400000000014
42
0.41421397590423376
10
-92.584100000000007
20
88.196399999999997
0
LWPOLYLINE
5
116
100
AcDbEntity
8
0
100
AcDbPolyline
90
8
70
1
43
0.0
10
-101.08410000000001
20
88.196399999995506
42
0.41421397590479797
10
-99.009099999995541
20
90.271400000000014
10
-99.009099999995527
20
100.2214
42
0.41421397590056047
10
-101.08410000000001
20
102.29640000000002
10
-111.6341
20
102.29639999997448
42
0.41421397589914877
10
-113.70910000000002
20
100.2214
10
-113.70909999999449
20
90.271400000000014
42
0.41421397590338632
10
-111.6341
20
88.196399999999997
0
LWPOLYLINE
5
117
100
AcDbEntity
8
0
100
AcDbPolyline
90
8
70
1
43
0.0
10
-120.1341
20
88.196399999995506
42
0.41421397590479797
10
-118.05909999999554
20
90.271400000000014
10
-118.05909999999551
20
100.2214
42
0.41421397590056047
10
-120.1341
20
102.29640000000002
10
-130.6841
20
102.29639999997448
42
0.41421397589915132
10
-132.75909999999999
20
100.2214
10
-132.7590999999945
20
90.271400000000014
42
0.41421397590338882
10
-130.6841
20
88.196399999999997
0
LWPOLYLINE
5
118
100
AcDbEntity
8
0
100
AcDbPolyline
90
8
70
1
43
0.0
10
-139.1841
20
88.196399999995506
42
0.41421397590480047
10
-137.10909999999552
20
90.271400000000014
10
-137.10909999999552
20
100.2214
42
0.41421397590056297
10
-139.1841
20
102.29640000000002
10
-149.73410000000001
20
102.29639999997448
42
0.41421397589914632
10
-151.8091
20
100.2214
10
-151.80909999999449
20
90.271400000000014
42
0.41421397590338382
10
-149.73410000000001
20
88.196399999999997
0
LWPOLYLINE
5
119
100
AcDbEntity
8
0
100
AcDbPolyline
90
8
70
1
43
0.0
10
-158.23410000000001
20
88.196399999995506
42
0.41421397590480047
10
-156.15909999999553
20
90.271400000000014
10
-156.15909999999553
20
100.2214
42
0.41421397590056297
10
-158.23410000000001
20
102.29640000000002
10
-168.7841
20
102.29639999997448
42
0.41421397589915132
10
-170.85910000000001
20
100.2214
10
-170.85909999999447
20
90.271400000000014
42
0.41421397590338882
10
-168.7841
20
88.196399999999997
0
LWPOLYLINE
5
120
100
AcDbEntity
8
0
100
AcDbPolyline
90
8
70
1
43
0.0
10
-177.2841
20
88.196399999995506
42
0.41421397590479797
10
-175.20909999999554
20
90.271400000000014
10
-175.20909999999554
20
100.2214
42
0.41421397590056047
10
-177.2841
20
102.29640000000002
10
-187.83410000000001
20
102.29639999997448
42
0.41421397589915132
10
-189.9091
20
100.2214
10
-189.90909999999448
20
90.271400000000014
42
0.41421397590338882
10
-187.83410000000001
20
88.196399999999997
0
LWPOLYLINE
5
121
100
AcDbEntity
8
0
100
AcDbPolyline
90
8
70
1
43
0.0
10
-196.33410000000001
20
88.196399999995506
42
0.41421397590479797
10
-194.25909999999556
20
90.271400000000014
10
-194.25909999999556
20
100.2214
42
0.41421397590056047
10
-196.33410000000001
20
102.29640000000002
10
-206.88410000000002
20
102.29639999997448
42
0.41421397589914632
10
-208.95910000000001
20
100.2214
10
-208.95909999999446
20
90.271400000000014
42
0.41421397590338382
10
-206.88410000000002
20
88.196399999999997
0
LWPOLYLINE
5
122
100
AcDbEntity
8
0
100
AcDbPolyline
90
8
70
1
43
0.0
10
-215.38409999999999
20
88.196399999995506
42
0.41421397590479297
10
-213.30909999999557
20
90.271400000000014
10
-213.30909999999557
20
100.2214
42
0.41421397590055542
10
-215.38409999999999
20
102.29640000000002
10
-225.93410000000003
20
102.29639999997448
42
0.41421397589914632
10
-228.00910000000002
20
100.2214
10
-228.00909999999448
20
90.271400000000014
42
0.41421397590338382
10
-225.93410000000003
20
88.196399999999997
0
LWPOLYLINE
5
123
100
AcDbEntity
8
0
100
AcDbPolyline
90
8
70
1
43
0.0
10
-236.80099599999994
20
88.19639999999103
42
0.41217622091709427
10
-234.74034999999373
20
90.271500000000003
10
-234.74034999999355
20
100.2214
42
0.41423053280983402
10
-236.81530000000004
20
102.29640000000002
10
-247.37955999999963
20
102.29639999994308
42
0.41219685968176656
10
-249.44035
20
100.22130000000001
10
-249.44034999999647
20
90.271400000000014
42
0.4142305328140668
10
-247.36540000000002
20
88.196399999999997
0
CIRCLE
5
124
100
AcDbEntity
8
0
100
AcDbCircle
10
-70.643749999999997
20
95.25
30
0
40
0.80000000000000016
210
0
220
0
230
1
0
CIRCLE
5
125
100
AcDbEntity
8
0
100
AcDbCircle
10
-115.88750000000002
20
95.25
30
0
40
0.80000000000000016
210
0
220
0
230
1
0
CIRCLE
5
126
100
AcDbEntity
8
0
100
AcDbCircle
10
-153.98750000000001
20
95.25
30
0
40
0.80000000000000016
210
0
220
0
230
1
0
CIRCLE
5
127
100
AcDbEntity
8
0
100
AcDbCircle
10
-192.08750000000003
20
95.25
30
0
40
0.80000000000000016
210
0
220
0
230
1
0
CIRCLE
5
128
100
AcDbEntity
8
0
100
AcDbCircle
10
-232.56875000000002
20
95.25
30
0
40
0.80000000000000016
210
0
220
0
230
1
0
LWPOLYLINE
5
129
100
AcDbEntity
8
0
100
AcDbPolyline
90
8
70
1
43
0.0
10
-51.077849999999998
20
69.146399999995523
42
0.41421397590423131
10
-49.002849999999526
20
71.221400000000003
10
-49.002849999999526
20
81.171400000000006
42
0.41421397590281589
10
-51.077849999999998
20
83.246400000000008
10
-61.627850000000002
20
83.24639999999448
42
0.41421397590281711
10
-63.702849999999998
20
81.171400000000006
10
-63.702850000000488
20
71.221400000000003
42
0.41421397590423253
10
-61.627850000000002
20
69.1464
0
LWPOLYLINE
5
130
100
AcDbEntity
8
0
100
AcDbPolyline
90
8
70
1
43
0.0
10
-72.509100000000018
20
69.146399999995523
42
0.41421397590423253
10
-70.434099999999532
20
71.221400000000003
10
-70.434099999999532
20
81.171400000000006
42
0.41421397590281711
10
-72.509100000000018
20
83.246400000000008
10
-83.059100000000001
20
83.24639999999448
42
0.41421397590281711
10
-85.134100000000004
20
81.171400000000006
10
-85.134100000000501
20
71.221400000000003
42
0.41421397590423253
10
-83.059100000000001
20
69.1464
0
LWPOLYLINE
5
131
100
AcDbEntity
8
0
100
AcDbPolyline
90
8
70
1
43
0.0
10
-91.559100000000001
20
69.146399999995523
42
0.41421397590423253
10
-89.484099999999529
20
71.221400000000003
10
-89.484099999999515
20
81.171400000000006
42
0.41421397590281711
10
-91.559100000000001
20
83.246400000000008
10
-102.1091
20
83.24639999999448
42
0.41421397590196962
10
-104.18410000000002
20
81.171400000000006
10
-104.18409999999449
20
71.221400000000003
42
0.41421397590338505
10
-102.1091
20
69.1464
0
LWPOLYLINE
5
132
100
AcDbEntity
8
0
100
AcDbPolyline
90
8
70
1
43
0.0
10
-110.6091
20
69.146399999995523
42
0.4142139759047942
10
-108.53409999999555
20
71.221400000000003
10
-108.53409999999553
20
81.171400000000006
42
0.41421397590337877
10
-110.6091
20
83.246400000000008
10
-121.1591
20
83.24639999999448
42
0.41421397590197212
10
-123.23410000000001
20
81.171400000000006
10
-123.2340999999945
20
71.221400000000003
42
0.41421397590338754
10
-121.1591
20
69.1464
0
LWPOLYLINE
5
133
100
AcDbEntity
8
0
100
AcDbPolyline
90
8
70
1
43
0.0
10
-129.65910000000002
20
69.146399999995523
42
0.41421397590479919
10
-127.58409999999552
20
71.221400000000003
10
-127.5840999999955
20
81.171400000000006
42
0.41421397590338377
10
-129.65910000000002
20
83.246400000000008
10
-140.20910000000001
20
83.24639999999448
42
0.41421397590197212
10
-142.2841
20
81.171400000000006
10
-142.28409999999451
20
71.221400000000003
42
0.41421397590338754
10
-140.20910000000001
20
69.1464
0
LWPOLYLINE
5
134
100
AcDbEntity
8
0
100
AcDbPolyline
90
8
70
1
43
0.0
10
-148.70910000000003
20
69.146399999995523
42
0.41421397590479919
10
-146.63409999999553
20
71.221400000000003
10
-146.6340999999955
20
81.171400000000006
42
0.41421397590338377
10
-148.70910000000003
20
83.246400000000008
10
-159.25909999999999
20
83.24639999999448
42
0.41421397590196962
10
-161.33410000000001
20
81.171400000000006
10
-161.33409999999446
20
71.221400000000003
42
0.41421397590338505
10
-159.25909999999999
20
69.1464
0
LWPOLYLINE
5
135
100
AcDbEntity
8
0
100
AcDbPolyline
90
8
70
1
43
0.0
10
-167.75909999999999
20
69.146399999995523
42
0.4142139759047917
10
-165.68409999999557
20
71.221400000000003
10
-165.68409999999557
20
81.171400000000006
42
0.41421397590337627
10
-167.75909999999999
20
83.246400000000008
10
-178.3091
20
83.24639999999448
42
0.41421397590197212
10
-180.38409999999999
20
81.171400000000006
10
-180.38409999999448
20
71.221400000000003
42
0.41421397590338754
10
-178.3091
20
69.1464
0
LWPOLYLINE
5
136
100
AcDbEntity
8
0
100
AcDbPolyline
90
8
70
1
43
0.0
10
-186.8091
20
69.146399999995523
42
0.41421397590479669
10
-184.73409999999552
20
71.221400000000003
10
-184.73409999999552
20
81.171400000000006
42
0.41421397590338127
10
-186.8091
20
83.246400000000008
10
-197.35910000000004
20
83.24639999999448
42
0.41421397590196207
10
-199.4341
20
81.171400000000006
10
-199.43409999999446
20
71.221400000000003
42
0.4142139759033775
10
-197.35910000000004
20
69.1464
0
LWPOLYLINE
5
137
100
AcDbEntity
8
0
100
AcDbPolyline
90
8
70
1
43
0.0
10
-205.85910000000001
20
69.146399999995523
42
0.41421397590479669
10
-203.78409999999553
20
71.221400000000003
10
-203.78409999999553
20
81.171400000000006
42
0.41421397590338127
10
-205.85910000000001
20
83.246400000000008
10
-216.40910000000002
20
83.24639999999448
42
0.41421397590196712
10
-218.48410000000001
20
81.171400000000006
10
-218.48409999999447
20
71.221400000000003
42
0.41421397590338255
10
-216.40910000000002
20
69.1464
0
LWPOLYLINE
5
138
100
AcDbEntity
8
0
100
AcDbPolyline
90
8
70
1
43
0.0
10
-232.03849599999995
20
69.146399999991019
42
0.4121762209171006
10
-229.97784999999368
20
71.22150000000002
10
-229.97784999999357
20
81.171400000000006
42
0.41423053281406425
10
-232.05280000000002
20
83.246400000000008
10
-242.61706000000001
20
83.246399999993073
42
0.4121968596887568
10
-244.67785000000003
20
81.171300000000016
10
-244.67784999999648
20
71.221400000000003
42
0.4142305328140668
10
-242.60290000000001
20
69.1464
0
CIRCLE
5
139
100
AcDbEntity
8
0
100
AcDbCircle
10
-87.312500000000014
20
76.200000000000017
30
0
40
0.80000000000000016
210
0
220
0
230
1
0
CIRCLE
5
140
100
AcDbEntity
8
0
100
AcDbCircle
10
-125.41249999999999
20
76.200000000000017
30
0
40
0.80000000000000016
210
0
220
0
230
1
0
CIRCLE
5
141
100
AcDbEntity
8
0
100
AcDbCircle
10
-182.5625
20
76.200000000000017
30
0
40
0.80000000000000016
210
0
220
0
230
1
0
CIRCLE
5
142
100
AcDbEntity
8
0
100
AcDbCircle
10
-220.66249999999999
20
76.200000000000017
30
0
40
0.80000000000000016
210
0
220
0
230
1
0
LWPOLYLINE
5
143
100
AcDbEntity
8
0
100
AcDbPolyline
90
8
70
1
43
0.0
10
-48.696599999999997
20
50.096399999995526
42
0.41421397590423009
10
-46.621599999999518
20
52.171400000000006
10
-46.621599999999518
20
62.121400000000008
42
0.41421397590281839
10
-48.696599999999997
20
64.196399999999997
10
-59.246600000000001
20
64.196399999994483
42
0.41421397590281966
10
-61.321599999999997
20
62.121400000000008
10
-61.321600000000487
20
52.171400000000006
42
0.41421397590423131
10
-59.246600000000001
20
50.09640000000001
0
LWPOLYLINE
5
144
100
AcDbEntity
8
0
100
AcDbPolyline
90
8
70
1
43
0.0
10
-67.746600000000001
20
50.096399999995526
42
0.41421397590423131
10
-65.671599999999529
20
52.171400000000006
10
-65.671599999999529
20
62.121400000000008
42
0.41421397590281966
10
-67.746600000000001
20
64.196399999999997
10
-78.296600000000012
20
64.196399999994483
42
0.41421397590281839
10
-80.371600000000001
20
62.121400000000008
10
-80.371600000000484
20
52.171400000000006
42
0.41421397590423009
10
-78.296600000000012
20
50.09640000000001
0
LWPOLYLINE
5
145
100
AcDbEntity
8
0
100
AcDbPolyline
90
8
70
1
43
0.0
10
-86.796599999999998
20
50.096399999995526
42
0.41421397590423131
10
-84.721599999999526
20
52.171400000000006
10
-84.721599999999512
20
62.121400000000008
42
0.41421397590281966
10
-86.796599999999998
20
64.196399999999997
10
-97.346599999999995
20
64.196399999994483
42
0.41421397590281966
10
-99.421600000000012
20
62.121400000000008
10
-99.421600000000495
20
52.171400000000006
42
0.41421397590423131
10
-97.346599999999995
20
50.09640000000001
0
LWPOLYLINE
5
146
100
AcDbEntity
8
0
100
AcDbPolyline
90
8
70
1
43
0.0
10
-105.8466
20
50.096399999995526
42
0.41421397590479297
10
-103.77159999999554
20
52.171400000000006
10
-103.77159999999552
20
62.121400000000008
42
0.41421397590338127
10
-105.8466
20
64.196399999999997
10
-116.39660000000001
20
64.196399999994483
42
0.41421397590197212
10
-118.47160000000001
20
62.121400000000008
10
-118.4715999999945
20
52.171400000000006
42
0.41421397590338382
10
-116.39660000000001
20
50.09640000000001
0
LWPOLYLINE
5
147
100
AcDbEntity
8
0
100
AcDbPolyline
90
8
70
1
43
0.0
10
-124.89660000000001
20
50.096399999995526
42
0.41421397590479547
10
-122.82159999999553
20
52.171400000000006
10
-122.82159999999551
20
62.121400000000008
42
0.41421397590338377
10
-124.89660000000001
20
64.196399999999997
10
-135.44659999999999
20
64.196399999994483
42
0.41421397590197212
10
-137.52160000000001
20
62.121400000000008
10
-137.52159999999449
20
52.171400000000006
42
0.41421397590338382
10
-135.44659999999999
20
50.09640000000001
0
LWPOLYLINE
5
148
100
AcDbEntity
8
0
100
AcDbPolyline
90
8
70
1
43
0.0
10
-143.94659999999999
20
50.096399999995526
42
0.41421397590479297
10
-141.87159999999554
20
52.171400000000006
10
-141.87159999999554
20
62.121400000000008
42
0.41421397590338127
10
-143.94659999999999
20
64.196399999999997
10
-154.4966
20
64.196399999994483
42
0.41421397590197212
10
-156.57159999999999
20
62.121400000000008
10
-156.5715999999945
20
52.171400000000006
42
0.41421397590338382
10
-154.4966
20
50.09640000000001
0
LWPOLYLINE
5
149
100
AcDbEntity
8
0
100
AcDbPolyline
90
8
70
1
43
0.0
10
-162.9966
20
50.096399999995526
42
0.41421397590479547
10
-160.92159999999552
20
52.171400000000006
10
-160.92159999999552
20
62.121400000000008
42
0.41421397590338377
10
-162.9966
20
64.196399999999997
10
-173.54660000000001
20
64.196399999994483
42
0.41421397590196962
10
-175.62160000000003
20
62.121400000000008
10
-175.62159999999449
20
52.171400000000006
42
0.41421397590338127
10
-173.54660000000001
20
50.09640000000001
0
LWPOLYLINE
5
150
100
AcDbEntity
8
0
100
AcDbPolyline
90
8
70
1
43
0.0
10
-182.04660000000001
20
50.096399999995526
42
0.41421397590479547
10
-179.97159999999553
20
52.171400000000006
10
-179.97159999999553
20
62.121400000000008
42
0.41421397590338377
10
-182.04660000000001
20
64.196399999999997
10
-192.5966
20
64.196399999994483
42
0.41421397590197462
10
-194.67160000000004
20
62.121400000000008
10
-194.6715999999945
20
52.171400000000006
42
0.41421397590338632
10
-192.5966
20
50.09640000000001
0
LWPOLYLINE
5
151
100
AcDbEntity
8
0
100
AcDbPolyline
90
8
70
1
43
0.0
10
-201.09660000000002
20
50.096399999995526
42
0.41421397590479547
10
-199.02159999999554
20
52.171400000000006
10
-199.02159999999554
20
62.121400000000008
42
0.41421397590338377
10
-201.09660000000002
20
64.196399999999997
10
-211.64660000000001
20
64.196399999994483
42
0.41421397590197462
10
-213.72160000000002
20
62.121400000000008
10
-213.72159999999451
20
52.171400000000006
42
0.41421397590338632
10
-211.64660000000001
20
50.09640000000001
0
LWPOLYLINE
5
152
100
AcDbEntity
8
0
100
AcDbPolyline
90
8
70
1
43
0.0
10
-220.14660000000003
20
50.096399999995526
42
0.41421397590479547
10
-218.07159999999556
20
52.171400000000006
10
-218.07159999999556
20
62.121400000000008
42
0.41421397590338377
10
-220.14660000000003
20
64.196399999999997
10
-230.69659999999999
20
64.196399999994483
42
0.41421397590197462
10
-232.77160000000003
20
62.121400000000008
10
-232.77159999999446
20
52.171400000000006
42
0.41421397590338632
10
-230.69659999999999
20
50.09640000000001
0
LWPOLYLINE
5
153
100
AcDbEntity
8
0
100
AcDbPolyline
90
8
70
1
43
0.0
10
-239.19659999999999
20
50.096399999995526
42
0.41421397590479042
10
-237.12159999999557
20
52.171400000000006
10
-237.12159999999557
20
62.121400000000008
42
0.41421397590337877
10
-239.19659999999999
20
64.196399999999997
10
-249.7466
20
64.196399999994483
42
0.41421397590197462
10
-251.82159999999999
20
62.121400000000008
10
-251.82159999999448
20
52.171400000000006
42
0.41421397590338632
10
-249.7466
20
50.09640000000001
0
CIRCLE
5
154
100
AcDbEntity
8
0
100
AcDbCircle
10
-63.500000000000007
20
57.149999999999999
30
0
40
0.80000000000000016
210
0
220
0
230
1
0
CIRCLE
5
155
100
AcDbEntity
8
0
100
AcDbCircle
10
-120.65000000000001
20
57.149999999999999
30
0
40
0.80000000000000016
210
0
220
0
230
1
0
CIRCLE
5
156
100
AcDbEntity
8
0
100
AcDbCircle
10
-177.80000000000001
20
57.149999999999999
30
0
40
0.80000000000000016
210
0
220
0
230
1
0
CIRCLE
5
157
100
AcDbEntity
8
0
100
AcDbCircle
10
-234.95000000000002
20
57.149999999999999
30
0
40
0.80000000000000016
210
0
220
0
230
1
0
CIRCLE
5
158
100
AcDbEntity
8
0
100
AcDbCircle
10
-63.500000000000007
20
50.574998999999998
30
0
40
1.1499999999999999
210
0
220
0
230
1
0
CIRCLE
5
159
100
AcDbEntity
8
0
100
AcDbCircle
10
-234.95000000000002
20
50.574998999999998
30
0
40
1.1499999999999999
210
0
220
0
230
1
0
ENDSEC
0
SECTION
2
OBJECTS
0
DICTIONARY
5
C
100
AcDbDictionary
3
ACAD_GROUP
350
D
3
ACAD_MLINESTYLE
350
17
0
DICTIONARY
5
D
100
AcDbDictionary
0
DICTIONARY
5
1A
330
C
100
AcDbDictionary
0
DICTIONARY
5
17
100
AcDbDictionary
0
ENDSEC
0
EOF
