0
SECTION
2
HEADER
9
$INSUNITS
70
4
9
$ACADVER
1
AC1014
9
$HANDSEED
5
FFFF
0
ENDSEC
0
SECTION
2
TABLES
0
TABLE
2
VPORT
5
8
100
AcDbSymbolTable
0
ENDTAB
0
TABLE
2
LTYPE
5
5
100
AcDbSymbolTable
0
LTYPE
5
14
100
AcDbSymbolTableRecord
100
AcDbLinetypeTableRecord
2
BYBLOCK
70
0
0
LTYPE
5
15
100
AcDbSymbolTableRecord
100
AcDbLinetypeTableRecord
2
BYLAYER
70
0
0
LTYPE
5
16
100
AcDbSymbolTableRecord
100
AcDbLinetypeTableRecord
2
DASHED
70
0
3
Dashed __ __ __ __ __ __ __ __ __ __ __ __ __ _
72
65
73
2
40
0.75
49
0.5
74
0
49
-0.25
74
0
0
ENDTAB
0
TABLE
2
LAYER
5
2
100
AcDbSymbolTable
70
2
0
LAYER
5
50
100
AcDbSymbolTableRecord
100
AcDbLayerTableRecord
2
0
70
0
62
7
6
CONTINUOUS
0
ENDTAB
0
TABLE
2
STYLE
5
3
100
AcDbSymbolTable
70
1
0
STYLE
5
11
100
AcDbSymbolTableRecord
100
AcDbTextStyleTableRecord
2
STANDARD
70
0
0
ENDTAB
0
TABLE
2
VIEW
5
6
100
AcDbSymbolTable
70
0
0
ENDTAB
0
TABLE
2
UCS
5
7
100
AcDbSymbolTable
70
0
0
ENDTAB
0
TABLE
2
APPID
5
9
100
AcDbSymbolTable
70
2
0
APPID
5
12
100
AcDbSymbolTableRecord
100
AcDbRegAppTableRecord
2
ACAD
70
0
0
ENDTAB
0
TABLE
2
DIMSTYLE
5
A
100
AcDbSymbolTable
70
1
0
ENDTAB
0
TABLE
2
BLOCK_RECORD
5
1
100
AcDbSymbolTable
70
1
0
BLOCK_RECORD
5
1F
100
AcDbSymbolTableRecord
100
AcDbBlockTableRecord
2
*MODEL_SPACE
0
BLOCK_RECORD
5
1B
100
AcDbSymbolTableRecord
100
AcDbBlockTableRecord
2
*PAPER_SPACE
0
ENDTAB
0
ENDSEC
0
SECTION
2
BLOCKS
0
BLOCK
5
20
100
AcDbEntity
100
AcDbBlockBegin
2
*MODEL_SPACE
0
ENDBLK
5
21
100
AcDbEntity
100
AcDbBlockEnd
0
BLOCK
5
1C
100
AcDbEntity
100
AcDbBlockBegin
2
*PAPER_SPACE
0
ENDBLK
5
1D
100
AcDbEntity
100
AcDbBlockEnd
0
ENDSEC
0
SECTION
2
ENTITIES
0
LWPOLYLINE
5
100
100
AcDbEntity
8
0
100
AcDbPolyline
90
16
70
1
43
0.0
10
-254.57499999999399
20
50.574998999999998
42
0.41421354838697044
10
-251.47500000000002
20
47.474998999996018
10
-46.975000000000016
20
47.474999000000004
42
0.41421354838753938
10
-43.875
20
50.574998999999998
10
-43.875
20
102.67499900000001
42
0.41421354837903446
10
-46.975000000000009
20
105.77499899991402
10
-71.25
20
105.77499899990508
42
-0.41421333335633703
10
-72.449999999999918
20
106.974999
10
-72.450000000000017
20
121.724999
42
0.41421354837903446
10
-75.549999999999997
20
124.82499899991397
10
-222.90000000000003
20
124.82499900000001
42
0.41421354837846969
10
-225.99999999999397
20
121.724999
10
-225.99999999999511
20
106.974999
42
-0.41421333335755101
10
-227.19999999999999
20
105.77499899990508
10
-251.47500000000002
20
105.77499899999999
42
0.41421354837846969
10
-254.57499999999396
20
102.67499900000001
0
LWPOLYLINE
5
101
100
AcDbEntity
8
0
100
AcDbPolyline
90
8
70
1
43
0.0
10
-76.050000000000011
20
107.29999999992678
42
0.41421200004293984
10
-75.54999999999977
20
107.80000000000001
10
-75.55276400000065
20
120.79888400000002
42
0.41100042959480948
10
-76.050000000000011
20
121.30000000000001
10
-89.049999999999997
20
121.29999999997324
42
0.4142119999843718
10
-89.549999999999997
20
120.8
10
-89.550000000000239
20
107.80000000000001
42
0.41421200004294489
10
-89.049999999999997
20
107.30000000000001
0
LWPOLYLINE
5
102
100
AcDbEntity
8
0
100
AcDbPolyline
90
8
70
1
43
0.0
10
-97.481250000000017
20
107.29999999992678
42
0.41421200004294501
10
-96.98124999999979
20
107.80000000000001
10
-96.984014000000656
20
120.79888400000002
42
0.4110004295948198
10
-97.481250000000017
20
121.30000000000001
10
-110.48125
20
121.29999999997324
42
0.41421199998026154
10
-110.98125000000002
20
120.8
10
-110.98124999999322
20
107.80000000000001
42
0.41421200003883468
10
-110.48125
20
107.30000000000001
0
LWPOLYLINE
5
103
100
AcDbEntity
8
0
100
AcDbPolyline
90
8
70
1
43
0.0
10
-126.05625000000002
20
107.29999999992678
42
0.41421200004469316
10
-125.55624999999681
20
107.80000000000001
10
-125.55624999999546
20
120.80000000000005
42
0.4064557895085647
10
-126.05625000000002
20
121.30000000000001
10
-139.05625000000001
20
121.29999999997324
42
0.41421199998026154
10
-139.55625000000001
20
120.8
10
-139.55624999999321
20
107.80000000000001
42
0.41421200003883468
10
-139.05625000000001
20
107.30000000000001
0
LWPOLYLINE
5
104
100
AcDbEntity
8
0
100
AcDbPolyline
90
8
70
1
43
0.0
10
-159.39375000000001
20
107.29999999992678
42
0.41421200004469316
10
-158.89374999999683
20
107.80000000000001
10
-158.89651399999363
20
120.79888400000003
42
0.41100042959889432
10
-159.39375000000001
20
121.30000000000001
10
-172.39375000000001
20
121.29999999997324
42
0.41421199998026154
10
-172.89375000000004
20
120.8
10
-172.89374999999325
20
107.80000000000001
42
0.41421200003883468
10
-172.39375000000001
20
107.30000000000001
0
LWPOLYLINE
5
105
100
AcDbEntity
8
0
100
AcDbPolyline
90
8
70
1
43
0.0
10
-187.96875
20
107.29999999992678
42
0.41421200004468278
10
-187.46874999999679
20
107.80000000000001
10
-187.47151399999368
20
120.79888400000003
42
0.41100042959886335
10
-187.96875
20
121.30000000000001
10
-200.96875
20
121.29999999997324
42
0.41421199998026154
10
-201.46875
20
120.8
10
-201.46874999999324
20
107.80000000000001
42
0.41421200003883468
10
-200.96875
20
107.30000000000001
0
LWPOLYLINE
5
106
100
AcDbEntity
8
0
100
AcDbPolyline
90
8
70
1
43
0.0
10
-209.40000000000001
20
107.29999999992678
42
0.41421200004468278
10
-208.89999999999679
20
107.80000000000001
10
-208.90276399999368
20
120.79888400000003
42
0.41100042959886335
10
-209.40000000000001
20
121.30000000000001
10
-222.40000000000003
20
121.29999999997324
42
0.41421199998026154
10
-222.90000000000003
20
120.8
10
-222.89999999999324
20
107.80000000000001
42
0.41421200003883468
10
-222.40000000000003
20
107.30000000000001
0
LWPOLYLINE
5
107
100
AcDbEntity
8
0
100
AcDbPolyline
90
4
70
1
43
0.0
10
-182.77444200000002
20
117.36537400000002
10
-179.17921100000001
20
117.36537400000002
10
-179.17921100000001
20
111.222627
10
-182.77444200000002
20
111.222627
0
CIRCLE
5
108
100
AcDbEntity
8
0
100
AcDbCircle
10
-92.075000000000017
20
114.3
30
0
40
0.80000000000000016
210
0
220
0
230
1
0
CIRCLE
5
109
100
AcDbEntity
8
0
100
AcDbCircle
10
-123.03125000000001
20
114.3
30
0
40
0.80000000000000016
210
0
220
0
230
1
0
CIRCLE
5
110
100
AcDbEntity
8
0
100
AcDbCircle
10
-175.41875000000002
20
114.3
30
0
40
0.80000000000000016
210
0
220
0
230
1
0
CIRCLE
5
111
100
AcDbEntity
8
0
100
AcDbCircle
10
-206.37500000000003
20
114.3
30
0
40
0.80000000000000016
210
0
220
0
230
1
0
CIRCLE
5
112
100
AcDbEntity
8
0
100
AcDbCircle
10
-46.716000000000008
20
102.933999
30
0
40
1.1499999999999999
210
0
220
0
230
1
0
CIRCLE
5
113
100
AcDbEntity
8
0
100
AcDbCircle
10
-251.73437500000003
20
102.933999
30
0
40
1.1499999999999999
210
0
220
0
230
1
0
LWPOLYLINE
5
114
100
AcDbEntity
8
0
100
AcDbPolyline
90
8
70
1
43
0.0
10
-54.618749999999999
20
88.249999999996774
42
0.41421200000192604
10
-54.118749999999778
20
88.75
10
-54.11875000000046
20
101.75
42
0.40645578950571609
10
-54.618749999999999
20
102.25000000000001
10
-67.618750000000006
20
102.24999999997323
42
0.41421199998434577
10
-68.118750000000006
20
101.75
10
-68.118750000000219
20
88.75
42
0.41421200000192082
10
-67.618750000000006
20
88.250000000000014
0
LWPOLYLINE
5
115
100
AcDbEntity
8
0
100
AcDbPolyline
90
8
70
1
43
0.0
10
-80.8125
20
88.249999999996774
42
0.41421200000193642
10
-80.312499999999787
20
88.75
10
-80.312500000000455
20
101.75
42
0.40645578950571615
10
-80.8125
20
102.25000000000001
10
-93.8125
20
102.24999999997323
42
0.41421199998436137
10
-94.3125
20
101.75
10
-94.312500000000227
20
88.75
42
0.41421200000193642
10
-93.8125
20
88.250000000000014
0
LWPOLYLINE
5
116
100
AcDbEntity
8
0
100
AcDbPolyline
90
8
70
1
43
0.0
10
-99.862499999999997
20
88.249999999996774
42
0.41421200000192604
10
-99.362499999999798
20
88.75
10
-99.362500000001319
20
101.74999999999999
42
0.4096571129504894
10
-99.86526400000001
20
102.248884
10
-112.86250000000001
20
102.24999999997323
42
0.41421199998025116
10
-113.3625
20
101.75
10
-113.36249999999323
20
88.75
42
0.41421199999782621
10
-112.86250000000001
20
88.250000000000014
0
LWPOLYLINE
5
117
100
AcDbEntity
8
0
100
AcDbPolyline
90
8
70
1
43
0.0
10
-118.91249999999999
20
88.249999999996774
42
0.4142120000036742
10
-118.41249999999681
20
88.75
10
-118.41249999999546
20
101.75000000000006
42
0.40645578950855449
10
-118.91249999999999
20
102.25000000000001
10
-131.91249999999999
20
102.24999999997323
42
0.41421199998025116
10
-132.41250000000002
20
101.75
10
-132.41249999999323
20
88.75
42
0.41421199999782621
10
-131.91249999999999
20
88.250000000000014
0
LWPOLYLINE
5
118
100
AcDbEntity
8
0
100
AcDbPolyline
90
8
70
1
43
0.0
10
-137.96250000000001
20
88.249999999996774
42
0.41421200000368458
10
-137.46249999999679
20
88.75
10
-137.46249999999546
20
101.75000000000006
42
0.4064557895085647
10
-137.96250000000001
20
102.25000000000001
10
-150.96250000000001
20
102.24999999997323
42
0.41421199998025116
10
-151.46250000000003
20
101.75
10
-151.46249999999324
20
88.75
42
0.41421199999782621
10
-150.96250000000001
20
88.250000000000014
0
LWPOLYLINE
5
119
100
AcDbEntity
8
0
100
AcDbPolyline
90
8
70
1
43
0.0
10
-157.01249999999999
20
88.249999999996774
42
0.41421200000368458
10
-156.51249999999681
20
88.75
10
-156.51526399999366
20
101.74888400000002
42
0.41100042959887378
10
-157.01249999999999
20
102.25000000000001
10
-170.01249999999999
20
102.24999999997323
42
0.41421199998025116
10
-170.51249999999999
20
101.75
10
-170.51249999999322
20
88.75
42
0.41421199999782621
10
-170.01249999999999
20
88.250000000000014
0
LWPOLYLINE
5
120
100
AcDbEntity
8
0
100
AcDbPolyline
90
8
70
1
43
0.0
10
-176.0625
20
88.249999999996774
42
0.4142120000036742
10
-175.56249999999679
20
88.75
10
-175.56250000000134
20
101.74999999999999
42
0.40965711295049967
10
-176.06526400000004
20
102.248884
10
-189.0625
20
102.24999999997323
42
0.41421199998025116
10
-189.5625
20
101.75
10
-189.56249999999324
20
88.75
42
0.41421199999782621
10
-189.0625
20
88.250000000000014
0
LWPOLYLINE
5
121
100
AcDbEntity
8
0
100
AcDbPolyline
90
8
70
1
43
0.0
10
-195.11250000000004
20
88.249999999996774
42
0.41421200000369501
10
-194.6124999999968
20
88.75
10
-194.61249999999546
20
101.75000000000006
42
0.40645578950858513
10
-195.11250000000004
20
102.25000000000001
10
-208.11250000000001
20
102.24999999997323
42
0.41421199998025116
10
-208.61250000000001
20
101.75
10
-208.61249999999325
20
88.75
42
0.41421199999782621
10
-208.11250000000001
20
88.250000000000014
0
LWPOLYLINE
5
122
100
AcDbEntity
8
0
100
AcDbPolyline
90
8
70
1
43
0.0
10
-214.16250000000002
20
88.249999999996774
42
0.41421200000369501
10
-213.66249999999678
20
88.75
10
-213.66526399999367
20
101.74888400000002
42
0.41100042959888411
10
-214.16250000000002
20
102.25000000000001
10
-227.16250000000002
20
102.24999999997323
42
0.41421199998025116
10
-227.66249999999999
20
101.75
10
-227.66249999999326
20
88.75
42
0.41421199999782621
10
-227.16250000000002
20
88.250000000000014
0
LWPOLYLINE
5
123
100
AcDbEntity
8
0
100
AcDbPolyline
90
8
70
1
43
0.0
10
-235.59375000000003
20
88.249999999996774
42
0.41421200000369501
10
-235.09374999999679
20
88.75
10
-235.09651399999368
20
101.74888400000002
42
0.41100042959888411
10
-235.59375000000003
20
102.25000000000001
10
-248.59375
20
102.24999999997323
42
0.41421199998025116
10
-249.09375
20
101.75
10
-249.09374999999324
20
88.75
42
0.41421199999782621
10
-248.59375
20
88.250000000000014
0
CIRCLE
5
124
100
AcDbEntity
8
0
100
AcDbCircle
10
-70.643749999999997
20
95.25
30
0
40
0.80000000000000016
210
0
220
0
230
1
0
CIRCLE
5
125
100
AcDbEntity
8
0
100
AcDbCircle
10
-115.88750000000002
20
95.25
30
0
40
0.80000000000000016
210
0
220
0
230
1
0
CIRCLE
5
126
100
AcDbEntity
8
0
100
AcDbCircle
10
-153.98750000000001
20
95.25
30
0
40
0.80000000000000016
210
0
220
0
230
1
0
CIRCLE
5
127
100
AcDbEntity
8
0
100
AcDbCircle
10
-192.08750000000003
20
95.25
30
0
40
0.80000000000000016
210
0
220
0
230
1
0
CIRCLE
5
128
100
AcDbEntity
8
0
100
AcDbCircle
10
-232.56875000000002
20
95.25
30
0
40
0.80000000000000016
210
0
220
0
230
1
0
LWPOLYLINE
5
129
100
AcDbEntity
8
0
100
AcDbPolyline
90
8
70
1
43
0.0
10
-49.856250000000003
20
69.199999999996777
42
0.41421200000193126
10
-49.356249999999775
20
69.700000000000003
10
-49.356249999999932
20
82.700000000000017
42
0.40645578952840233
10
-49.856250000000003
20
83.200000000000003
10
-62.856250000000003
20
83.199999999993238
42
0.41421199999606773
10
-63.356250000000003
20
82.700000000000017
10
-63.356250000000223
20
69.700000000000003
42
0.41421200000192604
10
-62.856250000000003
20
69.200000000000003
0
LWPOLYLINE
5
130
100
AcDbEntity
8
0
100
AcDbPolyline
90
8
70
1
43
0.0
10
-71.287499999999994
20
69.199999999996777
42
0.41421200000192604
10
-70.787499999999781
20
69.700000000000003
10
-70.787499999999937
20
82.700000000000017
42
0.40645578952839723
10
-71.287499999999994
20
83.200000000000003
10
-84.287499999999994
20
83.199999999993238
42
0.41421199999607811
10
-84.787499999999994
20
82.700000000000017
10
-84.787500000000222
20
69.700000000000003
42
0.41421200000193642
10
-84.287499999999994
20
69.200000000000003
0
LWPOLYLINE
5
131
100
AcDbEntity
8
0
100
AcDbPolyline
90
8
70
1
43
0.0
10
-90.337500000000006
20
69.199999999996777
42
0.41421200000193642
10
-89.837499999999793
20
69.700000000000003
10
-89.83749999999992
20
82.700000000000017
42
0.4064557895284075
10
-90.337500000000006
20
83.200000000000003
10
-103.33750000000002
20
83.199999999993238
42
0.41421199999196789
10
-103.83750000000001
20
82.700000000000017
10
-103.83749999999324
20
69.700000000000003
42
0.41421199999782621
10
-103.33750000000002
20
69.200000000000003
0
LWPOLYLINE
5
132
100
AcDbEntity
8
0
100
AcDbPolyline
90
8
70
1
43
0.0
10
-109.3875
20
69.199999999996777
42
0.41421200000368458
10
-108.88749999999681
20
69.700000000000003
10
-108.89026399999365
20
82.698884000000021
42
0.41100042960464156
10
-109.3875
20
83.200000000000003
10
-122.38750000000002
20
83.199999999993238
42
0.41421199999196789
10
-122.8875
20
82.700000000000017
10
-122.88749999999324
20
69.700000000000003
42
0.41421199999782621
10
-122.38750000000002
20
69.200000000000003
0
LWPOLYLINE
5
133
100
AcDbEntity
8
0
100
AcDbPolyline
90
8
70
1
43
0.0
10
-128.4375
20
69.199999999996777
42
0.41421200000368458
10
-127.93749999999679
20
69.700000000000003
10
-127.94026399999365
20
82.698884000000021
42
0.41100042960464156
10
-128.4375
20
83.200000000000003
10
-141.4375
20
83.199999999993238
42
0.41421199999196789
10
-141.9375
20
82.700000000000017
10
-141.93749999999324
20
69.700000000000003
42
0.41421199999782621
10
-141.4375
20
69.200000000000003
0
LWPOLYLINE
5
134
100
AcDbEntity
8
0
100
AcDbPolyline
90
8
70
1
43
0.0
10
-147.48750000000001
20
69.199999999996777
42
0.41421200000368458
10
-146.9874999999968
20
69.700000000000003
10
-146.99026399999363
20
82.698884000000021
42
0.41100042960465194
10
-147.48750000000001
20
83.200000000000003
10
-160.48750000000001
20
83.199999999993238
42
0.41421199999196789
10
-160.98750000000001
20
82.700000000000017
10
-160.98749999999325
20
69.700000000000003
42
0.41421199999782621
10
-160.48750000000001
20
69.200000000000003
0
LWPOLYLINE
5
135
100
AcDbEntity
8
0
100
AcDbPolyline
90
8
70
1
43
0.0
10
-166.53749999999999
20
69.199999999996777
42
0.4142120000036742
10
-166.03749999999678
20
69.700000000000003
10
-166.03750000000042
20
82.700000000000017
42
0.40965711299657587
10
-166.54026400000004
20
83.198884000000021
10
-179.53749999999999
20
83.199999999993238
42
0.41421199999196789
10
-180.03749999999999
20
82.700000000000017
10
-180.0374999999932
20
69.700000000000003
42
0.41421199999782621
10
-179.53749999999999
20
69.200000000000003
0
LWPOLYLINE
5
136
100
AcDbEntity
8
0
100
AcDbPolyline
90
8
70
1
43
0.0
10
-185.58750000000001
20
69.199999999996777
42
0.4142120000036742
10
-185.08749999999679
20
69.700000000000003
10
-185.08749999999492
20
82.700000000000088
42
0.40645578953123568
10
-185.58750000000001
20
83.200000000000003
10
-198.58750000000001
20
83.199999999993238
42
0.41421199999196789
10
-199.08750000000001
20
82.700000000000017
10
-199.08749999999321
20
69.700000000000003
42
0.41421199999782621
10
-198.58750000000001
20
69.200000000000003
0
LWPOLYLINE
5
137
100
AcDbEntity
8
0
100
AcDbPolyline
90
8
70
1
43
0.0
10
-204.63750000000002
20
69.199999999996777
42
0.41421200000369501
10
-204.13749999999678
20
69.700000000000003
10
-204.14026399999361
20
82.698884000000021
42
0.41100042960465194
10
-204.63750000000002
20
83.200000000000003
10
-217.63750000000002
20
83.199999999993238
42
0.41421199999196789
10
-218.13749999999999
20
82.700000000000017
10
-218.13749999999322
20
69.700000000000003
42
0.41421199999782621
10
-217.63750000000002
20
69.200000000000003
0
LWPOLYLINE
5
138
100
AcDbEntity
8
0
100
AcDbPolyline
90
8
70
1
43
0.0
10
-230.83125000000001
20
69.199999999996777
42
0.41421200000369501
10
-230.33124999999677
20
69.700000000000003
10
-230.33125000000038
20
82.700000000000017
42
0.40965711299657587
10
-230.834014
20
83.198884000000021
10
-243.83125000000004
20
83.199999999993238
42
0.41421199999196789
10
-244.33125000000004
20
82.700000000000017
10
-244.33124999999325
20
69.700000000000003
42
0.41421199999782621
10
-243.83125000000004
20
69.200000000000003
0
CIRCLE
5
139
100
AcDbEntity
8
0
100
AcDbCircle
10
-87.312500000000014
20
76.200000000000017
30
0
40
0.80000000000000016
210
0
220
0
230
1
0
CIRCLE
5
140
100
AcDbEntity
8
0
100
AcDbCircle
10
-125.41249999999999
20
76.200000000000017
30
0
40
0.80000000000000016
210
0
220
0
230
1
0
CIRCLE
5
141
100
AcDbEntity
8
0
100
AcDbCircle
10
-182.5625
20
76.200000000000017
30
0
40
0.80000000000000016
210
0
220
0
230
1
0
CIRCLE
5
142
100
AcDbEntity
8
0
100
AcDbCircle
10
-220.66249999999999
20
76.200000000000017
30
0
40
0.80000000000000016
210
0
220
0
230
1
0
LWPOLYLINE
5
143
100
AcDbEntity
8
0
100
AcDbPolyline
90
8
70
1
43
0.0
10
-47.475000000000009
20
50.14999999999678
42
0.41421200000193126
10
-46.974999999999774
20
50.650000000000006
10
-46.977764000000633
20
63.64888400000001
42
0.41100042960057748
10
-47.475000000000009
20
64.150000000000006
10
-60.475000000000001
20
64.149999999993227
42
0.41421199999606773
10
-60.975000000000001
20
63.650000000000006
10
-60.975000000000222
20
50.650000000000006
42
0.41421200000192604
10
-60.475000000000001
20
50.150000000000006
0
LWPOLYLINE
5
144
100
AcDbEntity
8
0
100
AcDbPolyline
90
8
70
1
43
0.0
10
-66.525000000000006
20
50.14999999999678
42
0.41421200000193126
10
-66.024999999999778
20
50.650000000000006
10
-66.025000000000375
20
63.650000000000006
42
0.40965711299658103
10
-66.527764000000005
20
64.148883999999995
10
-79.525000000000006
20
64.149999999993227
42
0.41421199999606773
10
-80.025000000000006
20
63.650000000000006
10
-80.025000000000233
20
50.650000000000006
42
0.41421200000192604
10
-79.525000000000006
20
50.150000000000006
0
LWPOLYLINE
5
145
100
AcDbEntity
8
0
100
AcDbPolyline
90
8
70
1
43
0.0
10
-85.575000000000017
20
50.14999999999678
42
0.41421200000193642
10
-85.07499999999979
20
50.650000000000006
10
-85.074999999999932
20
63.650000000000006
42
0.4064557895284075
10
-85.575000000000017
20
64.150000000000006
10
-98.575000000000017
20
64.149999999993227
42
0.41421199999606773
10
-99.075000000000003
20
63.650000000000006
10
-99.075000000000244
20
50.650000000000006
42
0.41421200000192604
10
-98.575000000000017
20
50.150000000000006
0
LWPOLYLINE
5
146
100
AcDbEntity
8
0
100
AcDbPolyline
90
8
70
1
43
0.0
10
-104.625
20
50.14999999999678
42
0.41421200000368458
10
-104.1249999999968
20
50.650000000000006
10
-104.12500000000037
20
63.650000000000006
42
0.40965711299658114
10
-104.62776400000001
20
64.148883999999995
10
-117.62500000000001
20
64.149999999993227
42
0.41421199999196789
10
-118.125
20
63.650000000000006
10
-118.12499999999324
20
50.650000000000006
42
0.41421199999782621
10
-117.62500000000001
20
50.150000000000006
0
LWPOLYLINE
5
147
100
AcDbEntity
8
0
100
AcDbPolyline
90
8
70
1
43
0.0
10
-123.675
20
50.14999999999678
42
0.41421200000368458
10
-123.1749999999968
20
50.650000000000006
10
-123.17776399999363
20
63.648884000000017
42
0.41100042960464167
10
-123.675
20
64.150000000000006
10
-136.67500000000001
20
64.149999999993227
42
0.41421199999196789
10
-137.17500000000001
20
63.650000000000006
10
-137.17499999999325
20
50.650000000000006
42
0.41421199999782621
10
-136.67500000000001
20
50.150000000000006
0
LWPOLYLINE
5
148
100
AcDbEntity
8
0
100
AcDbPolyline
90
8
70
1
43
0.0
10
-142.72500000000002
20
50.14999999999678
42
0.41421200000369501
10
-142.22499999999678
20
50.650000000000006
10
-142.22500000000036
20
63.650000000000006
42
0.40965711299658114
10
-142.72776400000001
20
64.148883999999995
10
-155.72499999999999
20
64.149999999993227
42
0.41421199999196789
10
-156.22499999999999
20
63.650000000000006
10
-156.22499999999323
20
50.650000000000006
42
0.41421199999782621
10
-155.72499999999999
20
50.150000000000006
0
LWPOLYLINE
5
149
100
AcDbEntity
8
0
100
AcDbPolyline
90
8
70
1
43
0.0
10
-161.77500000000003
20
50.14999999999678
42
0.41421200000369501
10
-161.27499999999679
20
50.650000000000006
10
-161.2750000000004
20
63.650000000000006
42
0.40965711299656044
10
-161.77776399999999
20
64.148883999999995
10
-174.77500000000003
20
64.149999999993227
42
0.41421199999196789
10
-175.27500000000001
20
63.650000000000006
10
-175.27499999999324
20
50.650000000000006
42
0.41421199999782621
10
-174.77500000000003
20
50.150000000000006
0
LWPOLYLINE
5
150
100
AcDbEntity
8
0
100
AcDbPolyline
90
8
70
1
43
0.0
10
-180.82499999999999
20
50.14999999999678
42
0.41421200000369501
10
-180.32499999999675
20
50.650000000000006
10
-180.32500000000039
20
63.650000000000006
42
0.40965711299658097
10
-180.827764
20
64.148883999999995
10
-193.82499999999999
20
64.149999999993227
42
0.41421199999196789
10
-194.32500000000002
20
63.650000000000006
10
-194.32499999999322
20
50.650000000000006
42
0.41421199999782621
10
-193.82499999999999
20
50.150000000000006
0
LWPOLYLINE
5
151
100
AcDbEntity
8
0
100
AcDbPolyline
90
8
70
1
43
0.0
10
-199.875
20
50.14999999999678
42
0.4142120000036742
10
-199.37499999999682
20
50.650000000000006
10
-199.3750000000004
20
63.650000000000006
42
0.40965711299658097
10
-199.87776400000001
20
64.148883999999995
10
-212.875
20
64.149999999993227
42
0.41421199999196789
10
-213.37500000000003
20
63.650000000000006
10
-213.37499999999324
20
50.650000000000006
42
0.41421199999782621
10
-212.875
20
50.150000000000006
0
LWPOLYLINE
5
152
100
AcDbEntity
8
0
100
AcDbPolyline
90
8
70
1
43
0.0
10
-218.92500000000001
20
50.14999999999678
42
0.4142120000036742
10
-218.42499999999683
20
50.650000000000006
10
-218.42776399999363
20
63.648884000000017
42
0.41100042960465205
10
-218.92500000000001
20
64.150000000000006
10
-231.92500000000001
20
64.149999999993227
42
0.41421199999196789
10
-232.42500000000004
20
63.650000000000006
10
-232.42499999999325
20
50.650000000000006
42
0.41421199999782621
10
-231.92500000000001
20
50.150000000000006
0
LWPOLYLINE
5
153
100
AcDbEntity
8
0
100
AcDbPolyline
90
8
70
1
43
0.0
10
-237.97499999999999
20
50.14999999999678
42
0.4142120000036742
10
-237.47499999999678
20
50.650000000000006
10
-237.4777639999968
20
63.64888400000001
42
0.4142119999978367
10
-237.97776400000004
20
64.148883999999995
10
-250.97499999999999
20
64.149999999993227
42
0.41421199999196789
10
-251.47500000000002
20
63.650000000000006
10
-251.47499999999323
20
50.650000000000006
42
0.41421199999782621
10
-250.97499999999999
20
50.150000000000006
0
CIRCLE
5
154
100
AcDbEntity
8
0
100
AcDbCircle
10
-63.500000000000007
20
57.149999999999999
30
0
40
0.80000000000000016
210
0
220
0
230
1
0
CIRCLE
5
155
100
AcDbEntity
8
0
100
AcDbCircle
10
-120.65000000000001
20
57.149999999999999
30
0
40
0.80000000000000016
210
0
220
0
230
1
0
CIRCLE
5
156
100
AcDbEntity
8
0
100
AcDbCircle
10
-177.80000000000001
20
57.149999999999999
30
0
40
0.80000000000000016
210
0
220
0
230
1
0
CIRCLE
5
157
100
AcDbEntity
8
0
100
AcDbCircle
10
-234.95000000000002
20
57.149999999999999
30
0
40
0.80000000000000016
210
0
220
0
230
1
0
CIRCLE
5
158
100
AcDbEntity
8
0
100
AcDbCircle
10
-63.500000000000007
20
50.574998999999998
30
0
40
1.1499999999999999
210
0
220
0
230
1
0
CIRCLE
5
159
100
AcDbEntity
8
0
100
AcDbCircle
10
-234.95000000000002
20
50.574998999999998
30
0
40
1.1499999999999999
210
0
220
0
230
1
0
ENDSEC
0
SECTION
2
OBJECTS
0
DICTIONARY
5
C
100
AcDbDictionary
3
ACAD_GROUP
350
D
3
ACAD_MLINESTYLE
350
17
0
DICTIONARY
5
D
100
AcDbDictionary
0
DICTIONARY
5
1A
330
C
100
AcDbDictionary
0
DICTIONARY
5
17
100
AcDbDictionary
0
ENDSEC
0
EOF
