0
SECTION
2
HEADER
9
$INSUNITS
70
4
9
$ACADVER
1
AC1014
9
$HANDSEED
5
FFFF
0
ENDSEC
0
SECTION
2
TABLES
0
TABLE
2
VPORT
5
8
100
AcDbSymbolTable
0
ENDTAB
0
TABLE
2
LTYPE
5
5
100
AcDbSymbolTable
0
LTYPE
5
14
100
AcDbSymbolTableRecord
100
AcDbLinetypeTableRecord
2
BYBLOCK
70
0
0
LTYPE
5
15
100
AcDbSymbolTableRecord
100
AcDbLinetypeTableRecord
2
BYLAYER
70
0
0
ENDTAB
0
TABLE
2
LAYER
5
2
100
AcDbSymbolTable
70
2
0
LAYER
5
50
100
AcDbSymbolTableRecord
100
AcDbLayerTableRecord
2
0
70
0
6
CONTINUOUS
0
ENDTAB
0
TABLE
2
STYLE
5
3
100
AcDbSymbolTable
70
1
0
STYLE
5
11
100
AcDbSymbolTableRecord
100
AcDbTextStyleTableRecord
2
STANDARD
70
0
0
ENDTAB
0
TABLE
2
VIEW
5
6
100
AcDbSymbolTable
70
0
0
ENDTAB
0
TABLE
2
UCS
5
7
100
AcDbSymbolTable
70
0
0
ENDTAB
0
TABLE
2
APPID
5
9
100
AcDbSymbolTable
70
2
0
APPID
5
12
100
AcDbSymbolTableRecord
100
AcDbRegAppTableRecord
2
ACAD
70
0
0
ENDTAB
0
TABLE
2
DIMSTYLE
5
A
100
AcDbSymbolTable
70
1
0
ENDTAB
0
TABLE
2
BLOCK_RECORD
5
1
100
AcDbSymbolTable
70
1
0
BLOCK_RECORD
5
1F
100
AcDbSymbolTableRecord
100
AcDbBlockTableRecord
2
*MODEL_SPACE
0
BLOCK_RECORD
5
1B
100
AcDbSymbolTableRecord
100
AcDbBlockTableRecord
2
*PAPER_SPACE
0
ENDTAB
0
ENDSEC
0
SECTION
2
BLOCKS
0
BLOCK
5
20
100
AcDbEntity
100
AcDbBlockBegin
2
*MODEL_SPACE
0
ENDBLK
5
21
100
AcDbEntity
100
AcDbBlockEnd
0
BLOCK
5
1C
100
AcDbEntity
100
AcDbBlockBegin
2
*PAPER_SPACE
0
ENDBLK
5
1D
100
AcDbEntity
100
AcDbBlockEnd
0
ENDSEC
0
SECTION
2
ENTITIES
0
LWPOLYLINE
5
100
100
AcDbEntity
8
0
100
AcDbPolyline
90
110
70
1
43
0.0
10
-252.164815
20
47.552723000000007
10
-251.82209
20
47.494492000000001
10
-251.47500000000002
20
47.474999000000004
10
-46.975000000000016
20
47.474999000000004
10
-46.62791
20
47.494490999999996
10
-46.285184999999998
20
47.552722000000003
10
-45.951135000000001
20
47.648961000000007
10
-45.629959999999997
20
47.781995000000002
10
-45.325699999999998
20
47.950153999999998
10
-45.042180999999999
20
48.151321000000003
10
-44.782969000000001
20
48.382968000000005
10
-44.551322000000006
20
48.642181000000008
10
-44.350154000000003
20
48.925699000000009
10
-44.181996000000005
20
49.229959000000001
10
-44.048961000000006
20
49.551134000000005
10
-43.952723000000006
20
49.885184000000002
10
-43.894491000000002
20
50.227909000000004
10
-43.875
20
50.574998999999998
10
-43.875
20
102.67499900000001
10
-43.894492000000007
20
103.02208899999999
10
-43.952723000000006
20
103.364814
10
-44.048961000000006
20
103.698864
10
-44.181996000000005
20
104.020039
10
-44.350155000000001
20
104.32429900000001
10
-44.551322000000006
20
104.60781799999999
10
-44.782969000000001
20
104.867031
10
-45.042180999999999
20
105.09867700000001
10
-45.325699999999998
20
105.299845
10
-45.629959999999997
20
105.46800300000001
10
-45.951135000000001
20
105.601038
10
-46.285184999999998
20
105.697276
10
-46.62791
20
105.75550800000002
10
-46.975000000000009
20
105.77499899999999
10
-71.25
20
105.77499899999999
10
-71.458377999999996
20
105.79323000000001
10
-71.660424000000006
20
105.84736800000002
10
-71.849999999999994
20
105.93576800000001
10
-72.021344999999997
20
106.055746
10
-72.169253999999995
20
106.203654
10
-72.289231000000001
20
106.37499900000002
10
-72.377632000000006
20
106.56457500000002
10
-72.43177
20
106.76662100000001
10
-72.450000000000017
20
106.974999
10
-72.450000000000017
20
121.724999
10
-72.469492000000002
20
122.07208900000001
10
-72.527723000000009
20
122.41481400000001
10
-72.623961000000008
20
122.748864
10
-72.756996000000001
20
123.07003899999999
10
-72.925155000000004
20
123.37429900000001
10
-73.126322000000002
20
123.65781800000001
10
-73.357968999999997
20
123.91703100000001
10
-73.617181000000016
20
124.14867700000002
10
-73.900700000000001
20
124.349845
10
-74.20496
20
124.51800300000001
10
-74.526134999999996
20
124.65103800000001
10
-74.860185000000001
20
124.74727600000001
10
-75.202910000000003
20
124.80550800000002
10
-75.549999999999997
20
124.82499900000001
10
-222.90000000000003
20
124.82499900000001
10
-223.24708999999999
20
124.80550700000002
10
-223.58981499999999
20
124.74727600000001
10
-223.92386500000001
20
124.651037
10
-224.24503900000002
20
124.51800200000001
10
-224.54929899999999
20
124.34984400000002
10
-224.832818
20
124.14867700000002
10
-225.09203100000002
20
123.91703
10
-225.32367700000003
20
123.65781699999999
10
-225.52484500000003
20
123.37429800000001
10
-225.69300300000003
20
123.07003899999999
10
-225.82603800000001
20
122.748864
10
-225.92227600000001
20
122.41481400000001
10
-225.98050700000002
20
122.07208900000001
10
-226
20
121.724999
10
-226
20
106.974999
10
-226.01823100000001
20
106.76662100000001
10
-226.07236900000004
20
106.56457500000002
10
-226.16077000000004
20
106.37499900000002
10
-226.28074699999999
20
106.203654
10
-226.42865499999999
20
106.055746
10
-226.59999999999999
20
105.93576900000001
10
-226.78957600000004
20
105.84736900000001
10
-226.99162200000004
20
105.79323100000002
10
-227.19999999999999
20
105.77499899999999
10
-251.47500000000002
20
105.77499899999999
10
-251.82209
20
105.75550700000001
10
-252.164815
20
105.697276
10
-252.49886500000002
20
105.60103700000001
10
-252.82003900000004
20
105.468002
10
-253.12429900000001
20
105.29984400000001
10
-253.40781800000002
20
105.09867700000001
10
-253.66703100000001
20
104.86703
10
-253.89867699999999
20
104.607817
10
-254.09984500000002
20
104.32429800000001
10
-254.26800299999999
20
104.020039
10
-254.40103800000003
20
103.698864
10
-254.49727600000003
20
103.364814
10
-254.55550700000003
20
103.02208899999999
10
-254.57499999999999
20
102.67499900000001
10
-254.57499999999999
20
50.574998999999998
10
-254.555508
20
50.227909000000004
10
-254.49727600000003
20
49.885184000000002
10
-254.40103800000003
20
49.551134000000005
10
-254.26800299999999
20
49.229960000000005
10
-254.09984500000002
20
48.925699999999999
10
-253.89867699999999
20
48.642181000000008
10
-253.66703100000001
20
48.382969000000003
10
-253.40781800000002
20
48.151322000000008
10
-253.12429900000001
20
47.950155000000009
10
-252.82003900000004
20
47.781995999999999
10
-252.49886500000002
20
47.648961999999997
0
LWPOLYLINE
5
101
100
AcDbEntity
8
0
100
AcDbPolyline
90
8
70
1
43
0.0
10
-208.59999999999999
20
108.3
10
-209.60000000000002
20
107.30000000000001
10
-222.19999999999999
20
107.30000000000001
10
-223.19999999999999
20
108.3
10
-223.19999999999999
20
120.30000000000001
10
-222.19999999999999
20
121.30000000000001
10
-209.60000000000002
20
121.30000000000001
10
-208.59999999999999
20
120.30000000000001
0
LWPOLYLINE
5
102
100
AcDbEntity
8
0
100
AcDbPolyline
90
28
70
1
43
0.0
10
-206.19698299999999
20
113.52005800000001
10
-206.37500000000003
20
113.50000000000001
10
-206.55301700000001
20
113.52005800000001
10
-206.72210699999999
20
113.57922500000001
10
-206.87379200000004
20
113.67453500000002
10
-207.00046499999999
20
113.801208
10
-207.095775
20
113.95289300000002
10
-207.15494200000001
20
114.121983
10
-207.17500000000001
20
114.3
10
-207.15494200000001
20
114.47801699999999
10
-207.095775
20
114.64710700000001
10
-207.00046499999999
20
114.79879200000001
10
-206.87379200000004
20
114.92546500000002
10
-206.72210699999999
20
115.020775
10
-206.55301700000001
20
115.079942
10
-206.37500000000003
20
115.09999999999999
10
-206.19698299999999
20
115.079942
10
-206.02789300000001
20
115.020775
10
-205.87620799999999
20
114.92546500000002
10
-205.74953500000004
20
114.79879200000001
10
-205.654225
20
114.64710700000001
10
-205.59505799999999
20
114.47801699999999
10
-205.57500000000002
20
114.3
10
-205.59505799999999
20
114.121983
10
-205.654225
20
113.95289300000002
10
-205.74953500000004
20
113.801208
10
-205.87620799999999
20
113.67453500000002
10
-206.02789300000001
20
113.57922500000001
0
LWPOLYLINE
5
103
100
AcDbEntity
8
0
100
AcDbPolyline
90
8
70
1
43
0.0
10
-187.16999999999999
20
108.3
10
-188.17000000000002
20
107.30000000000001
10
-200.77000000000001
20
107.30000000000001
10
-201.77000000000004
20
108.3
10
-201.77000000000004
20
120.30000000000001
10
-200.77000000000001
20
121.30000000000001
10
-188.17000000000002
20
121.30000000000001
10
-187.16999999999999
20
120.30000000000001
0
LWPOLYLINE
5
104
100
AcDbEntity
8
0
100
AcDbPolyline
90
4
70
1
43
0.0
10
-179.17921100000001
20
117.36537400000002
10
-179.17921100000001
20
111.222627
10
-182.77444200000002
20
111.222627
10
-182.77444200000002
20
117.36537400000002
0
LWPOLYLINE
5
105
100
AcDbEntity
8
0
100
AcDbPolyline
90
28
70
1
43
0.0
10
-175.24073300000001
20
113.52005800000001
10
-175.41875000000002
20
113.50000000000001
10
-175.596767
20
113.52005800000001
10
-175.76585700000004
20
113.57922500000001
10
-175.917542
20
113.67453500000002
10
-176.04421500000001
20
113.801208
10
-176.13952499999999
20
113.95289300000002
10
-176.19869199999999
20
114.121983
10
-176.21875
20
114.3
10
-176.19869199999999
20
114.47801699999999
10
-176.13952499999999
20
114.64710700000001
10
-176.04421500000001
20
114.79879200000001
10
-175.917542
20
114.92546500000002
10
-175.76585700000004
20
115.020775
10
-175.596767
20
115.079942
10
-175.41875000000002
20
115.09999999999999
10
-175.24073300000001
20
115.079942
10
-175.07164299999999
20
115.020775
10
-174.91995800000001
20
114.92546500000002
10
-174.79328500000003
20
114.79879200000001
10
-174.69797500000001
20
114.64710700000001
10
-174.63880800000001
20
114.47801699999999
10
-174.61875000000003
20
114.3
10
-174.63880800000001
20
114.121983
10
-174.69797500000001
20
113.95289300000002
10
-174.79328500000003
20
113.801208
10
-174.91995800000001
20
113.67453500000002
10
-175.07164299999999
20
113.57922500000001
0
LWPOLYLINE
5
106
100
AcDbEntity
8
0
100
AcDbPolyline
90
8
70
1
43
0.0
10
-158.59200000000001
20
108.3
10
-159.59200000000004
20
107.30000000000001
10
-172.19200000000001
20
107.30000000000001
10
-173.19200000000001
20
108.3
10
-173.19200000000001
20
120.30000000000001
10
-172.19200000000001
20
121.30000000000001
10
-159.59200000000004
20
121.30000000000001
10
-158.59200000000001
20
120.30000000000001
0
LWPOLYLINE
5
107
100
AcDbEntity
8
0
100
AcDbPolyline
90
34
70
1
43
0.0
10
-251.41966300000004
20
101.8279
10
-251.62826600000002
20
101.78890500000001
10
-251.840484
20
101.78890500000001
10
-252.04908700000001
20
101.8279
10
-252.24697399999999
20
101.904561
10
-252.42740499999999
20
102.016279
10
-252.58423500000004
20
102.15924900000002
10
-252.71212500000001
20
102.32860200000002
10
-252.80671799999999
20
102.51857100000001
10
-252.86479400000002
20
102.72268699999999
10
-252.88437500000001
20
102.933999
10
-252.86479400000002
20
103.14531100000002
10
-252.80671799999999
20
103.34942700000001
10
-252.71212500000001
20
103.53939600000001
10
-252.58423500000004
20
103.70874900000001
10
-252.42740499999999
20
103.85171900000002
10
-252.24697399999999
20
103.96343700000001
10
-252.04908700000001
20
104.040098
10
-251.840484
20
104.079093
10
-251.62826600000002
20
104.079093
10
-251.41966300000004
20
104.040098
10
-251.22177600000001
20
103.96343700000001
10
-251.04134500000001
20
103.85171900000002
10
-250.88451500000002
20
103.70874900000001
10
-250.75662500000004
20
103.53939600000001
10
-250.66203200000004
20
103.34942700000001
10
-250.60395600000004
20
103.14531100000002
10
-250.58437499999999
20
102.933999
10
-250.60395600000004
20
102.72268699999999
10
-250.66203200000004
20
102.51857100000001
10
-250.75662500000004
20
102.32860200000002
10
-250.88451500000002
20
102.15924900000002
10
-251.04134500000001
20
102.016279
10
-251.22177600000001
20
101.904561
0
LWPOLYLINE
5
108
100
AcDbEntity
8
0
100
AcDbPolyline
90
8
70
1
43
0.0
10
-234.79500000000002
20
89.25
10
-235.79499999999999
20
88.250000000000014
10
-248.39500000000001
20
88.250000000000014
10
-249.39500000000004
20
89.25
10
-249.39500000000004
20
101.25
10
-248.39500000000001
20
102.25000000000001
10
-235.79499999999999
20
102.25000000000001
10
-234.79500000000002
20
101.25
0
LWPOLYLINE
5
109
100
AcDbEntity
8
0
100
AcDbPolyline
90
28
70
1
43
0.0
10
-232.39073300000001
20
94.470057999999995
10
-232.56875000000002
20
94.450000000000003
10
-232.74676700000001
20
94.470057999999995
10
-232.91585699999999
20
94.529224999999997
10
-233.067542
20
94.624535000000009
10
-233.19421500000004
20
94.751208000000005
10
-233.289525
20
94.902893000000006
10
-233.348692
20
95.071983000000003
10
-233.36875000000003
20
95.25
10
-233.348692
20
95.428016999999997
10
-233.289525
20
95.597106999999994
10
-233.19421500000004
20
95.748791999999995
10
-233.067542
20
95.875465000000005
10
-232.91585699999999
20
95.970775000000003
10
-232.74676700000001
20
96.029942000000005
10
-232.56875000000002
20
96.050000000000011
10
-232.39073300000001
20
96.029942000000005
10
-232.22164300000003
20
95.970775000000003
10
-232.06995800000001
20
95.875465000000005
10
-231.943285
20
95.748791999999995
10
-231.84797500000002
20
95.597106999999994
10
-231.78880800000002
20
95.428016999999997
10
-231.76875000000001
20
95.25
10
-231.78880800000002
20
95.071983000000003
10
-231.84797500000002
20
94.902893000000006
10
-231.943285
20
94.751208000000005
10
-232.06995800000001
20
94.624535000000009
10
-232.22164300000003
20
94.529224999999997
0
LWPOLYLINE
5
110
100
AcDbEntity
8
0
100
AcDbPolyline
90
8
70
1
43
0.0
10
-213.36250000000004
20
89.25
10
-214.36250000000001
20
88.250000000000014
10
-226.96250000000003
20
88.250000000000014
10
-227.96250000000001
20
89.25
10
-227.96250000000001
20
101.25
10
-226.96250000000003
20
102.25000000000001
10
-214.36250000000001
20
102.25000000000001
10
-213.36250000000004
20
101.25
0
LWPOLYLINE
5
111
100
AcDbEntity
8
0
100
AcDbPolyline
90
8
70
1
43
0.0
10
-194.31250000000003
20
89.25
10
-195.3125
20
88.250000000000014
10
-207.91250000000002
20
88.250000000000014
10
-208.91249999999999
20
89.25
10
-208.91249999999999
20
101.25
10
-207.91250000000002
20
102.25000000000001
10
-195.3125
20
102.25000000000001
10
-194.31250000000003
20
101.25
0
LWPOLYLINE
5
112
100
AcDbEntity
8
0
100
AcDbPolyline
90
28
70
1
43
0.0
10
-191.90948299999999
20
94.470057999999995
10
-192.08750000000003
20
94.450000000000003
10
-192.26551700000002
20
94.470057999999995
10
-192.434607
20
94.529224999999997
10
-192.58629200000001
20
94.624535000000009
10
-192.71296500000003
20
94.751208000000005
10
-192.80827500000001
20
94.902893000000006
10
-192.86744200000001
20
95.071983000000003
10
-192.88749999999999
20
95.25
10
-192.86744200000001
20
95.428016999999997
10
-192.80827500000001
20
95.597106999999994
10
-192.71296500000003
20
95.748791999999995
10
-192.58629200000001
20
95.875465000000005
10
-192.434607
20
95.970775000000003
10
-192.26551700000002
20
96.029942000000005
10
-192.08750000000003
20
96.050000000000011
10
-191.90948299999999
20
96.029942000000005
10
-191.74039300000001
20
95.970775000000003
10
-191.588708
20
95.875465000000005
10
-191.46203499999999
20
95.748791999999995
10
-191.366725
20
95.597106999999994
10
-191.307558
20
95.428016999999997
10
-191.28749999999999
20
95.25
10
-191.307558
20
95.071983000000003
10
-191.366725
20
94.902893000000006
10
-191.46203499999999
20
94.751208000000005
10
-191.588708
20
94.624535000000009
10
-191.74039300000001
20
94.529224999999997
0
LWPOLYLINE
5
113
100
AcDbEntity
8
0
100
AcDbPolyline
90
8
70
1
43
0.0
10
-175.26250000000002
20
89.25
10
-176.26249999999999
20
88.250000000000014
10
-188.86250000000001
20
88.250000000000014
10
-189.86250000000001
20
89.25
10
-189.86250000000001
20
101.25
10
-188.86250000000001
20
102.25000000000001
10
-176.26249999999999
20
102.25000000000001
10
-175.26250000000002
20
101.25
0
LWPOLYLINE
5
114
100
AcDbEntity
8
0
100
AcDbPolyline
90
8
70
1
43
0.0
10
-156.21250000000001
20
89.25
10
-157.21250000000001
20
88.250000000000014
10
-169.8125
20
88.250000000000014
10
-170.8125
20
89.25
10
-170.8125
20
101.25
10
-169.8125
20
102.25000000000001
10
-157.21250000000001
20
102.25000000000001
10
-156.21250000000001
20
101.25
0
LWPOLYLINE
5
115
100
AcDbEntity
8
0
100
AcDbPolyline
90
28
70
1
43
0.0
10
-153.809483
20
94.470057999999995
10
-153.98750000000001
20
94.450000000000003
10
-154.16551699999999
20
94.470057999999995
10
-154.33460700000001
20
94.529224999999997
10
-154.48629199999999
20
94.624535000000009
10
-154.612965
20
94.751208000000005
10
-154.70827499999999
20
94.902893000000006
10
-154.76744199999999
20
95.071983000000003
10
-154.78749999999999
20
95.25
10
-154.76744199999999
20
95.428016999999997
10
-154.70827499999999
20
95.597106999999994
10
-154.612965
20
95.748791999999995
10
-154.48629199999999
20
95.875465000000005
10
-154.33460700000001
20
95.970775000000003
10
-154.16551699999999
20
96.029942000000005
10
-153.98750000000001
20
96.050000000000011
10
-153.809483
20
96.029942000000005
10
-153.64039299999999
20
95.970775000000003
10
-153.488708
20
95.875465000000005
10
-153.36203499999999
20
95.748791999999995
10
-153.26672500000001
20
95.597106999999994
10
-153.20755800000001
20
95.428016999999997
10
-153.1875
20
95.25
10
-153.20755800000001
20
95.071983000000003
10
-153.26672500000001
20
94.902893000000006
10
-153.36203499999999
20
94.751208000000005
10
-153.488708
20
94.624535000000009
10
-153.64039299999999
20
94.529224999999997
0
LWPOLYLINE
5
116
100
AcDbEntity
8
0
100
AcDbPolyline
90
8
70
1
43
0.0
10
-125.25500000000001
20
108.3
10
-126.25500000000001
20
107.30000000000001
10
-138.85500000000002
20
107.30000000000001
10
-139.85499999999999
20
108.3
10
-139.85499999999999
20
120.30000000000001
10
-138.85500000000002
20
121.30000000000001
10
-126.25500000000001
20
121.30000000000001
10
-125.25500000000001
20
120.30000000000001
0
LWPOLYLINE
5
117
100
AcDbEntity
8
0
100
AcDbPolyline
90
28
70
1
43
0.0
10
-122.85323300000002
20
113.52005800000001
10
-123.03125000000001
20
113.50000000000001
10
-123.20926700000001
20
113.52005800000001
10
-123.37835699999999
20
113.57922500000001
10
-123.53004200000001
20
113.67453500000002
10
-123.65671500000002
20
113.801208
10
-123.752025
20
113.95289300000002
10
-123.81119200000001
20
114.121983
10
-123.83125
20
114.3
10
-123.81119200000001
20
114.47801699999999
10
-123.752025
20
114.64710700000001
10
-123.65671500000002
20
114.79879200000001
10
-123.53004200000001
20
114.92546500000002
10
-123.37835699999999
20
115.020775
10
-123.20926700000001
20
115.079942
10
-123.03125000000001
20
115.09999999999999
10
-122.85323300000002
20
115.079942
10
-122.68414300000002
20
115.020775
10
-122.53245800000002
20
114.92546500000002
10
-122.40578499999999
20
114.79879200000001
10
-122.31047500000001
20
114.64710700000001
10
-122.25130800000001
20
114.47801699999999
10
-122.23125000000002
20
114.3
10
-122.25130800000001
20
114.121983
10
-122.31047500000001
20
113.95289300000002
10
-122.40578499999999
20
113.801208
10
-122.53245800000002
20
113.67453500000002
10
-122.68414300000002
20
113.57922500000001
0
LWPOLYLINE
5
118
100
AcDbEntity
8
0
100
AcDbPolyline
90
8
70
1
43
0.0
10
-96.680000000000007
20
108.3
10
-97.680000000000007
20
107.30000000000001
10
-110.28
20
107.30000000000001
10
-111.28
20
108.3
10
-111.28
20
120.30000000000001
10
-110.28
20
121.30000000000001
10
-97.680000000000007
20
121.30000000000001
10
-96.680000000000007
20
120.30000000000001
0
LWPOLYLINE
5
119
100
AcDbEntity
8
0
100
AcDbPolyline
90
28
70
1
43
0.0
10
-91.89698300000002
20
113.52005800000001
10
-92.075000000000017
20
113.50000000000001
10
-92.253017000000014
20
113.52005800000001
10
-92.422106999999997
20
113.57922500000001
10
-92.573792000000012
20
113.67453500000002
10
-92.700464999999994
20
113.801208
10
-92.795775000000006
20
113.95289300000002
10
-92.854942000000008
20
114.121983
10
-92.875
20
114.3
10
-92.854942000000008
20
114.47801699999999
10
-92.795775000000006
20
114.64710700000001
10
-92.700464999999994
20
114.79879200000001
10
-92.573792000000012
20
114.92546500000002
10
-92.422106999999997
20
115.020775
10
-92.253017000000014
20
115.079942
10
-92.075000000000017
20
115.09999999999999
10
-91.89698300000002
20
115.079942
10
-91.727892999999995
20
115.020775
10
-91.576208000000008
20
114.92546500000002
10
-91.449534999999997
20
114.79879200000001
10
-91.354225000000014
20
114.64710700000001
10
-91.295058000000012
20
114.47801699999999
10
-91.275000000000006
20
114.3
10
-91.295058000000012
20
114.121983
10
-91.354225000000014
20
113.95289300000002
10
-91.449534999999997
20
113.801208
10
-91.576208000000008
20
113.67453500000002
10
-91.727892999999995
20
113.57922500000001
0
LWPOLYLINE
5
120
100
AcDbEntity
8
0
100
AcDbPolyline
90
8
70
1
43
0.0
10
-75.25
20
108.3
10
-76.25
20
107.30000000000001
10
-88.849999999999994
20
107.30000000000001
10
-89.849999999999994
20
108.3
10
-89.849999999999994
20
120.30000000000001
10
-88.849999999999994
20
121.30000000000001
10
-76.25
20
121.30000000000001
10
-75.25
20
120.30000000000001
0
LWPOLYLINE
5
121
100
AcDbEntity
8
0
100
AcDbPolyline
90
8
70
1
43
0.0
10
-137.16249999999999
20
89.25
10
-138.16249999999999
20
88.250000000000014
10
-150.76249999999999
20
88.250000000000014
10
-151.76249999999999
20
89.25
10
-151.76249999999999
20
101.25
10
-150.76249999999999
20
102.25000000000001
10
-138.16249999999999
20
102.25000000000001
10
-137.16249999999999
20
101.25
0
LWPOLYLINE
5
122
100
AcDbEntity
8
0
100
AcDbPolyline
90
8
70
1
43
0.0
10
-118.11250000000001
20
89.25
10
-119.11250000000001
20
88.250000000000014
10
-131.71250000000001
20
88.250000000000014
10
-132.71250000000003
20
89.25
10
-132.71250000000003
20
101.25
10
-131.71250000000001
20
102.25000000000001
10
-119.11250000000001
20
102.25000000000001
10
-118.11250000000001
20
101.25
0
LWPOLYLINE
5
123
100
AcDbEntity
8
0
100
AcDbPolyline
90
28
70
1
43
0.0
10
-115.70948300000001
20
94.470057999999995
10
-115.88750000000002
20
94.450000000000003
10
-116.065517
20
94.470057999999995
10
-116.23460700000001
20
94.529224999999997
10
-116.386292
20
94.624535000000009
10
-116.51296500000001
20
94.751208000000005
10
-116.60827500000002
20
94.902893000000006
10
-116.66744199999999
20
95.071983000000003
10
-116.68750000000001
20
95.25
10
-116.66744199999999
20
95.428016999999997
10
-116.60827500000002
20
95.597106999999994
10
-116.51296500000001
20
95.748791999999995
10
-116.386292
20
95.875465000000005
10
-116.23460700000001
20
95.970775000000003
10
-116.065517
20
96.029942000000005
10
-115.88750000000002
20
96.050000000000011
10
-115.70948300000001
20
96.029942000000005
10
-115.54039299999999
20
95.970775000000003
10
-115.38870799999999
20
95.875465000000005
10
-115.26203500000001
20
95.748791999999995
10
-115.166725
20
95.597106999999994
10
-115.107558
20
95.428016999999997
10
-115.08750000000001
20
95.25
10
-115.107558
20
95.071983000000003
10
-115.166725
20
94.902893000000006
10
-115.26203500000001
20
94.751208000000005
10
-115.38870799999999
20
94.624535000000009
10
-115.54039299999999
20
94.529224999999997
0
LWPOLYLINE
5
124
100
AcDbEntity
8
0
100
AcDbPolyline
90
8
70
1
43
0.0
10
-99.0625
20
89.25
10
-100.06250000000001
20
88.250000000000014
10
-112.66249999999999
20
88.250000000000014
10
-113.66250000000001
20
89.25
10
-113.66250000000001
20
101.25
10
-112.66249999999999
20
102.25000000000001
10
-100.06250000000001
20
102.25000000000001
10
-99.0625
20
101.25
0
LWPOLYLINE
5
125
100
AcDbEntity
8
0
100
AcDbPolyline
90
8
70
1
43
0.0
10
-80.012500000000003
20
89.25
10
-81.012500000000003
20
88.250000000000014
10
-93.612499999999997
20
88.250000000000014
10
-94.612499999999997
20
89.25
10
-94.612499999999997
20
101.25
10
-93.612499999999997
20
102.25000000000001
10
-81.012500000000003
20
102.25000000000001
10
-80.012500000000003
20
101.25
0
LWPOLYLINE
5
126
100
AcDbEntity
8
0
100
AcDbPolyline
90
34
70
1
43
0.0
10
-46.401288000000001
20
101.8279
10
-46.609891000000005
20
101.78890500000001
10
-46.822109000000005
20
101.78890500000001
10
-47.030712000000001
20
101.8279
10
-47.228599000000003
20
101.904561
10
-47.409030000000001
20
102.016279
10
-47.565860000000001
20
102.15924900000002
10
-47.693750000000001
20
102.32860200000002
10
-47.788342999999998
20
102.51857100000001
10
-47.846418999999997
20
102.72268699999999
10
-47.866
20
102.933999
10
-47.846418999999997
20
103.14531100000002
10
-47.788342999999998
20
103.34942700000001
10
-47.693750000000001
20
103.53939600000001
10
-47.565860000000001
20
103.70874900000001
10
-47.409030000000001
20
103.85171900000002
10
-47.228599000000003
20
103.96343700000001
10
-47.030712000000001
20
104.040098
10
-46.822109000000005
20
104.079093
10
-46.609891000000005
20
104.079093
10
-46.401288000000001
20
104.040098
10
-46.203400999999999
20
103.96343700000001
10
-46.022970000000001
20
103.85171900000002
10
-45.866140000000001
20
103.70874900000001
10
-45.738250000000001
20
103.53939600000001
10
-45.643656999999997
20
103.34942700000001
10
-45.585580999999998
20
103.14531100000002
10
-45.566000000000003
20
102.933999
10
-45.585580999999998
20
102.72268699999999
10
-45.643656999999997
20
102.51857100000001
10
-45.738250000000001
20
102.32860200000002
10
-45.866140000000001
20
102.15924900000002
10
-46.022970000000001
20
102.016279
10
-46.203400999999999
20
101.904561
0
LWPOLYLINE
5
127
100
AcDbEntity
8
0
100
AcDbPolyline
90
28
70
1
43
0.0
10
-70.465733
20
94.470057999999995
10
-70.643749999999997
20
94.450000000000003
10
-70.821766999999994
20
94.470057999999995
10
-70.990857000000005
20
94.529224999999997
10
-71.14254200000002
20
94.624535000000009
10
-71.269215000000003
20
94.751208000000005
10
-71.364525000000015
20
94.902893000000006
10
-71.423692000000017
20
95.071983000000003
10
-71.443749999999994
20
95.25
10
-71.423692000000017
20
95.428016999999997
10
-71.364525000000015
20
95.597106999999994
10
-71.269215000000003
20
95.748791999999995
10
-71.14254200000002
20
95.875465000000005
10
-70.990857000000005
20
95.970775000000003
10
-70.821766999999994
20
96.029942000000005
10
-70.643749999999997
20
96.050000000000011
10
-70.465733
20
96.029942000000005
10
-70.296643000000003
20
95.970775000000003
10
-70.144958000000003
20
95.875465000000005
10
-70.018285000000006
20
95.748791999999995
10
-69.922974999999994
20
95.597106999999994
10
-69.863808000000006
20
95.428016999999997
10
-69.84375
20
95.25
10
-69.863808000000006
20
95.071983000000003
10
-69.922974999999994
20
94.902893000000006
10
-70.018285000000006
20
94.751208000000005
10
-70.144958000000003
20
94.624535000000009
10
-70.296643000000003
20
94.529224999999997
0
LWPOLYLINE
5
128
100
AcDbEntity
8
0
100
AcDbPolyline
90
8
70
1
43
0.0
10
-53.820000000000007
20
89.25
10
-54.82
20
88.250000000000014
10
-67.420000000000016
20
88.250000000000014
10
-68.420000000000002
20
89.25
10
-68.420000000000002
20
101.25
10
-67.420000000000016
20
102.25000000000001
10
-54.82
20
102.25000000000001
10
-53.820000000000007
20
101.25
0
LWPOLYLINE
5
129
100
AcDbEntity
8
0
100
AcDbPolyline
90
8
70
1
43
0.0
10
-230.03
20
70.200000000000003
10
-231.03000000000003
20
69.200000000000003
10
-243.63
20
69.200000000000003
10
-244.63
20
70.200000000000003
10
-244.63
20
82.200000000000003
10
-243.63
20
83.200000000000003
10
-231.03000000000003
20
83.200000000000003
10
-230.03
20
82.200000000000003
0
LWPOLYLINE
5
130
100
AcDbEntity
8
0
100
AcDbPolyline
90
28
70
1
43
0.0
10
-220.48448300000004
20
75.420057999999997
10
-220.66249999999999
20
75.400000000000006
10
-220.84051700000003
20
75.420057999999997
10
-221.00960700000002
20
75.479225
10
-221.16129200000003
20
75.574534999999997
10
-221.28796500000004
20
75.701207999999994
10
-221.38327500000003
20
75.852892999999995
10
-221.44244200000003
20
76.021983000000006
10
-221.46250000000003
20
76.200000000000017
10
-221.44244200000003
20
76.378017
10
-221.38327500000003
20
76.547106999999997
10
-221.28796500000004
20
76.698791999999997
10
-221.16129200000003
20
76.825464999999994
10
-221.00960700000002
20
76.920775000000006
10
-220.84051700000003
20
76.979941999999994
10
-220.66249999999999
20
77
10
-220.48448300000004
20
76.979941999999994
10
-220.31539300000003
20
76.920775000000006
10
-220.16370800000004
20
76.825464999999994
10
-220.037035
20
76.698791999999997
10
-219.94172500000002
20
76.547106999999997
10
-219.88255800000002
20
76.378017
10
-219.86250000000001
20
76.200000000000017
10
-219.88255800000002
20
76.021983000000006
10
-219.94172500000002
20
75.852892999999995
10
-220.037035
20
75.701207999999994
10
-220.16370800000004
20
75.574534999999997
10
-220.31539300000003
20
75.479225
0
LWPOLYLINE
5
131
100
AcDbEntity
8
0
100
AcDbPolyline
90
8
70
1
43
0.0
10
-203.83750000000003
20
70.200000000000003
10
-204.83750000000001
20
69.200000000000003
10
-217.43750000000003
20
69.200000000000003
10
-218.4375
20
70.200000000000003
10
-218.4375
20
82.200000000000003
10
-217.43750000000003
20
83.200000000000003
10
-204.83750000000001
20
83.200000000000003
10
-203.83750000000003
20
82.200000000000003
0
LWPOLYLINE
5
132
100
AcDbEntity
8
0
100
AcDbPolyline
90
8
70
1
43
0.0
10
-184.78750000000002
20
70.200000000000003
10
-185.78749999999999
20
69.200000000000003
10
-198.38750000000002
20
69.200000000000003
10
-199.38749999999999
20
70.200000000000003
10
-199.38749999999999
20
82.200000000000003
10
-198.38750000000002
20
83.200000000000003
10
-185.78749999999999
20
83.200000000000003
10
-184.78750000000002
20
82.200000000000003
0
LWPOLYLINE
5
133
100
AcDbEntity
8
0
100
AcDbPolyline
90
28
70
1
43
0.0
10
-182.38448299999999
20
75.420057999999997
10
-182.5625
20
75.400000000000006
10
-182.74051700000001
20
75.420057999999997
10
-182.90960699999999
20
75.479225
10
-183.06129200000001
20
75.574534999999997
10
-183.18796500000002
20
75.701207999999994
10
-183.283275
20
75.852892999999995
10
-183.34244200000001
20
76.021983000000006
10
-183.36250000000004
20
76.200000000000017
10
-183.34244200000001
20
76.378017
10
-183.283275
20
76.547106999999997
10
-183.18796500000002
20
76.698791999999997
10
-183.06129200000001
20
76.825464999999994
10
-182.90960699999999
20
76.920775000000006
10
-182.74051700000001
20
76.979941999999994
10
-182.5625
20
77
10
-182.38448299999999
20
76.979941999999994
10
-182.21539300000001
20
76.920775000000006
10
-182.06370799999999
20
76.825464999999994
10
-181.93703500000001
20
76.698791999999997
10
-181.841725
20
76.547106999999997
10
-181.78255799999999
20
76.378017
10
-181.76249999999999
20
76.200000000000017
10
-181.78255799999999
20
76.021983000000006
10
-181.841725
20
75.852892999999995
10
-181.93703500000001
20
75.701207999999994
10
-182.06370799999999
20
75.574534999999997
10
-182.21539300000001
20
75.479225
0
LWPOLYLINE
5
134
100
AcDbEntity
8
0
100
AcDbPolyline
90
8
70
1
43
0.0
10
-165.73750000000001
20
70.200000000000003
10
-166.73750000000001
20
69.200000000000003
10
-179.33750000000001
20
69.200000000000003
10
-180.33750000000001
20
70.200000000000003
10
-180.33750000000001
20
82.200000000000003
10
-179.33750000000001
20
83.200000000000003
10
-166.73750000000001
20
83.200000000000003
10
-165.73750000000001
20
82.200000000000003
0
LWPOLYLINE
5
135
100
AcDbEntity
8
0
100
AcDbPolyline
90
8
70
1
43
0.0
10
-146.6875
20
70.200000000000003
10
-147.6875
20
69.200000000000003
10
-160.28749999999999
20
69.200000000000003
10
-161.28749999999999
20
70.200000000000003
10
-161.28749999999999
20
82.200000000000003
10
-160.28749999999999
20
83.200000000000003
10
-147.6875
20
83.200000000000003
10
-146.6875
20
82.200000000000003
0
LWPOLYLINE
5
136
100
AcDbEntity
8
0
100
AcDbPolyline
90
8
70
1
43
0.0
10
-237.17500000000001
20
51.150000000000006
10
-238.17500000000001
20
50.150000000000006
10
-250.77500000000001
20
50.150000000000006
10
-251.77500000000003
20
51.150000000000006
10
-251.77500000000003
20
63.150000000000006
10
-250.77500000000001
20
64.150000000000006
10
-238.17500000000001
20
64.150000000000006
10
-237.17500000000001
20
63.150000000000006
0
LWPOLYLINE
5
137
100
AcDbEntity
8
0
100
AcDbPolyline
90
28
70
1
43
0.0
10
-234.77198300000001
20
56.370058000000007
10
-234.95000000000002
20
56.350000000000009
10
-235.128017
20
56.370058000000007
10
-235.29710700000004
20
56.42922500000001
10
-235.448792
20
56.524535
10
-235.57546500000001
20
56.651208000000004
10
-235.67077499999999
20
56.802892999999997
10
-235.72994199999999
20
56.971983000000002
10
-235.75000000000003
20
57.149999999999999
10
-235.72994199999999
20
57.328017000000003
10
-235.67077499999999
20
57.497107000000007
10
-235.57546500000001
20
57.648792
10
-235.448792
20
57.775464999999997
10
-235.29710700000004
20
57.870775000000009
10
-235.128017
20
57.929941999999997
10
-234.95000000000002
20
57.95000000000001
10
-234.77198300000001
20
57.929941999999997
10
-234.60289299999999
20
57.870775000000009
10
-234.45120800000001
20
57.775464999999997
10
-234.32453500000003
20
57.648792
10
-234.22922500000001
20
57.497107000000007
10
-234.17005800000001
20
57.328017000000003
10
-234.15000000000003
20
57.149999999999999
10
-234.17005800000001
20
56.971983000000002
10
-234.22922500000001
20
56.802892999999997
10
-234.32453500000003
20
56.651208000000004
10
-234.45120800000001
20
56.524535
10
-234.60289299999999
20
56.42922500000001
0
LWPOLYLINE
5
138
100
AcDbEntity
8
0
100
AcDbPolyline
90
34
70
1
43
0.0
10
-234.63528800000003
20
49.468899999999998
10
-234.84389100000001
20
49.429905000000005
10
-235.05610899999999
20
49.429905000000005
10
-235.26471200000003
20
49.468899999999998
10
-235.46259900000001
20
49.545561000000006
10
-235.64303000000001
20
49.65727900000001
10
-235.79986000000002
20
49.800249000000001
10
-235.92775000000003
20
49.969602000000002
10
-236.02234300000003
20
50.159571000000007
10
-236.08041900000003
20
50.363687000000006
10
-236.09999999999999
20
50.574998999999998
10
-236.08041900000003
20
50.786310999999998
10
-236.02234300000003
20
50.990426999999997
10
-235.92775000000003
20
51.180396000000002
10
-235.79986000000002
20
51.349749000000003
10
-235.64303000000001
20
51.492719000000008
10
-235.46259900000001
20
51.604437000000004
10
-235.26471200000003
20
51.681097999999999
10
-235.05610899999999
20
51.720092999999999
10
-234.84389100000001
20
51.720092999999999
10
-234.63528800000003
20
51.681097999999999
10
-234.43740099999999
20
51.604437000000004
10
-234.25697
20
51.492719000000008
10
-234.10014000000004
20
51.349749000000003
10
-233.97225000000003
20
51.180396000000002
10
-233.87765700000003
20
50.990426999999997
10
-233.81958100000003
20
50.786310999999998
10
-233.80000000000001
20
50.574998999999998
10
-233.81958100000003
20
50.363687000000006
10
-233.87765700000003
20
50.159571000000007
10
-233.97225000000003
20
49.969602000000002
10
-234.10014000000004
20
49.800249000000001
10
-234.25697
20
49.65727900000001
10
-234.43740099999999
20
49.545561000000006
0
LWPOLYLINE
5
139
100
AcDbEntity
8
0
100
AcDbPolyline
90
8
70
1
43
0.0
10
-218.125
20
51.150000000000006
10
-219.125
20
50.150000000000006
10
-231.72499999999999
20
50.150000000000006
10
-232.72500000000002
20
51.150000000000006
10
-232.72500000000002
20
63.150000000000006
10
-231.72499999999999
20
64.150000000000006
10
-219.125
20
64.150000000000006
10
-218.125
20
63.150000000000006
0
LWPOLYLINE
5
140
100
AcDbEntity
8
0
100
AcDbPolyline
90
8
70
1
43
0.0
10
-199.07499999999999
20
51.150000000000006
10
-200.07499999999999
20
50.150000000000006
10
-212.67500000000001
20
50.150000000000006
10
-213.67500000000004
20
51.150000000000006
10
-213.67500000000004
20
63.150000000000006
10
-212.67500000000001
20
64.150000000000006
10
-200.07499999999999
20
64.150000000000006
10
-199.07499999999999
20
63.150000000000006
0
LWPOLYLINE
5
141
100
AcDbEntity
8
0
100
AcDbPolyline
90
8
70
1
43
0.0
10
-180.02500000000001
20
51.150000000000006
10
-181.02500000000003
20
50.150000000000006
10
-193.625
20
50.150000000000006
10
-194.62500000000003
20
51.150000000000006
10
-194.62500000000003
20
63.150000000000006
10
-193.625
20
64.150000000000006
10
-181.02500000000003
20
64.150000000000006
10
-180.02500000000001
20
63.150000000000006
0
LWPOLYLINE
5
142
100
AcDbEntity
8
0
100
AcDbPolyline
90
28
70
1
43
0.0
10
-177.621983
20
56.370058000000007
10
-177.80000000000001
20
56.350000000000009
10
-177.97801700000002
20
56.370058000000007
10
-178.14710700000003
20
56.42922500000001
10
-178.29879199999999
20
56.524535
10
-178.425465
20
56.651208000000004
10
-178.52077500000001
20
56.802892999999997
10
-178.57994200000002
20
56.971983000000002
10
-178.59999999999999
20
57.149999999999999
10
-178.57994200000002
20
57.328017000000003
10
-178.52077500000001
20
57.497107000000007
10
-178.425465
20
57.648792
10
-178.29879199999999
20
57.775464999999997
10
-178.14710700000003
20
57.870775000000009
10
-177.97801700000002
20
57.929941999999997
10
-177.80000000000001
20
57.95000000000001
10
-177.621983
20
57.929941999999997
10
-177.45289299999999
20
57.870775000000009
10
-177.30120800000003
20
57.775464999999997
10
-177.17453500000002
20
57.648792
10
-177.07922500000001
20
57.497107000000007
10
-177.02005800000001
20
57.328017000000003
10
-177
20
57.149999999999999
10
-177.02005800000001
20
56.971983000000002
10
-177.07922500000001
20
56.802892999999997
10
-177.17453500000002
20
56.651208000000004
10
-177.30120800000003
20
56.524535
10
-177.45289299999999
20
56.42922500000001
0
LWPOLYLINE
5
143
100
AcDbEntity
8
0
100
AcDbPolyline
90
8
70
1
43
0.0
10
-160.97499999999999
20
51.150000000000006
10
-161.97500000000002
20
50.150000000000006
10
-174.57499999999999
20
50.150000000000006
10
-175.57500000000002
20
51.150000000000006
10
-175.57500000000002
20
63.150000000000006
10
-174.57499999999999
20
64.150000000000006
10
-161.97500000000002
20
64.150000000000006
10
-160.97499999999999
20
63.150000000000006
0
LWPOLYLINE
5
144
100
AcDbEntity
8
0
100
AcDbPolyline
90
8
70
1
43
0.0
10
-127.63750000000002
20
70.200000000000003
10
-128.63749999999999
20
69.200000000000003
10
-141.23750000000001
20
69.200000000000003
10
-142.23750000000001
20
70.200000000000003
10
-142.23750000000001
20
82.200000000000003
10
-141.23750000000001
20
83.200000000000003
10
-128.63749999999999
20
83.200000000000003
10
-127.63750000000002
20
82.200000000000003
0
LWPOLYLINE
5
145
100
AcDbEntity
8
0
100
AcDbPolyline
90
28
70
1
43
0.0
10
-125.234483
20
75.420057999999997
10
-125.41249999999999
20
75.400000000000006
10
-125.59051700000001
20
75.420057999999997
10
-125.75960700000002
20
75.479225
10
-125.911292
20
75.574534999999997
10
-126.03796500000001
20
75.701207999999994
10
-126.133275
20
75.852892999999995
10
-126.192442
20
76.021983000000006
10
-126.21250000000002
20
76.200000000000017
10
-126.192442
20
76.378017
10
-126.133275
20
76.547106999999997
10
-126.03796500000001
20
76.698791999999997
10
-125.911292
20
76.825464999999994
10
-125.75960700000002
20
76.920775000000006
10
-125.59051700000001
20
76.979941999999994
10
-125.41249999999999
20
77
10
-125.234483
20
76.979941999999994
10
-125.065393
20
76.920775000000006
10
-124.913708
20
76.825464999999994
10
-124.78703500000002
20
76.698791999999997
10
-124.69172500000001
20
76.547106999999997
10
-124.632558
20
76.378017
10
-124.6125
20
76.200000000000017
10
-124.632558
20
76.021983000000006
10
-124.69172500000001
20
75.852892999999995
10
-124.78703500000002
20
75.701207999999994
10
-124.913708
20
75.574534999999997
10
-125.065393
20
75.479225
0
LWPOLYLINE
5
146
100
AcDbEntity
8
0
100
AcDbPolyline
90
8
70
1
43
0.0
10
-108.58750000000001
20
70.200000000000003
10
-109.58750000000002
20
69.200000000000003
10
-122.1875
20
69.200000000000003
10
-123.18750000000001
20
70.200000000000003
10
-123.18750000000001
20
82.200000000000003
10
-122.1875
20
83.200000000000003
10
-109.58750000000002
20
83.200000000000003
10
-108.58750000000001
20
82.200000000000003
0
LWPOLYLINE
5
147
100
AcDbEntity
8
0
100
AcDbPolyline
90
8
70
1
43
0.0
10
-89.537499999999994
20
70.200000000000003
10
-90.537499999999994
20
69.200000000000003
10
-103.1375
20
69.200000000000003
10
-104.1375
20
70.200000000000003
10
-104.1375
20
82.200000000000003
10
-103.1375
20
83.200000000000003
10
-90.537499999999994
20
83.200000000000003
10
-89.537499999999994
20
82.200000000000003
0
LWPOLYLINE
5
148
100
AcDbEntity
8
0
100
AcDbPolyline
90
28
70
1
43
0.0
10
-87.134483000000017
20
75.420057999999997
10
-87.312500000000014
20
75.400000000000006
10
-87.490517000000011
20
75.420057999999997
10
-87.659606999999994
20
75.479225
10
-87.811292000000009
20
75.574534999999997
10
-87.937965000000005
20
75.701207999999994
10
-88.033275000000003
20
75.852892999999995
10
-88.092442000000005
20
76.021983000000006
10
-88.112499999999997
20
76.200000000000017
10
-88.092442000000005
20
76.378017
10
-88.033275000000003
20
76.547106999999997
10
-87.937965000000005
20
76.698791999999997
10
-87.811292000000009
20
76.825464999999994
10
-87.659606999999994
20
76.920775000000006
10
-87.490517000000011
20
76.979941999999994
10
-87.312500000000014
20
77
10
-87.134483000000017
20
76.979941999999994
10
-86.965393000000006
20
76.920775000000006
10
-86.81370800000002
20
76.825464999999994
10
-86.687034999999995
20
76.698791999999997
10
-86.591724999999997
20
76.547106999999997
10
-86.532557999999995
20
76.378017
10
-86.512500000000017
20
76.200000000000017
10
-86.532557999999995
20
76.021983000000006
10
-86.591724999999997
20
75.852892999999995
10
-86.687034999999995
20
75.701207999999994
10
-86.81370800000002
20
75.574534999999997
10
-86.965393000000006
20
75.479225
0
LWPOLYLINE
5
149
100
AcDbEntity
8
0
100
AcDbPolyline
90
8
70
1
43
0.0
10
-70.487499999999997
20
70.200000000000003
10
-71.487499999999997
20
69.200000000000003
10
-84.087500000000006
20
69.200000000000003
10
-85.087500000000006
20
70.200000000000003
10
-85.087500000000006
20
82.200000000000003
10
-84.087500000000006
20
83.200000000000003
10
-71.487499999999997
20
83.200000000000003
10
-70.487499999999997
20
82.200000000000003
0
LWPOLYLINE
5
150
100
AcDbEntity
8
0
100
AcDbPolyline
90
8
70
1
43
0.0
10
-49.058
20
70.200000000000003
10
-50.058000000000007
20
69.200000000000003
10
-62.658000000000001
20
69.200000000000003
10
-63.658000000000001
20
70.200000000000003
10
-63.658000000000001
20
82.200000000000003
10
-62.658000000000001
20
83.200000000000003
10
-50.058000000000007
20
83.200000000000003
10
-49.058
20
82.200000000000003
0
LWPOLYLINE
5
151
100
AcDbEntity
8
0
100
AcDbPolyline
90
8
70
1
43
0.0
10
-141.92500000000001
20
51.150000000000006
10
-142.92500000000001
20
50.150000000000006
10
-155.52500000000003
20
50.150000000000006
10
-156.52500000000001
20
51.150000000000006
10
-156.52500000000001
20
63.150000000000006
10
-155.52500000000003
20
64.150000000000006
10
-142.92500000000001
20
64.150000000000006
10
-141.92500000000001
20
63.150000000000006
0
LWPOLYLINE
5
152
100
AcDbEntity
8
0
100
AcDbPolyline
90
8
70
1
43
0.0
10
-122.87500000000001
20
51.150000000000006
10
-123.87500000000001
20
50.150000000000006
10
-136.47500000000002
20
50.150000000000006
10
-137.47499999999999
20
51.150000000000006
10
-137.47499999999999
20
63.150000000000006
10
-136.47500000000002
20
64.150000000000006
10
-123.87500000000001
20
64.150000000000006
10
-122.87500000000001
20
63.150000000000006
0
LWPOLYLINE
5
153
100
AcDbEntity
8
0
100
AcDbPolyline
90
28
70
1
43
0.0
10
-120.47198299999999
20
56.370058000000007
10
-120.65000000000001
20
56.350000000000009
10
-120.82801700000002
20
56.370058000000007
10
-120.99710700000001
20
56.42922500000001
10
-121.14879200000001
20
56.524535
10
-121.27546500000001
20
56.651208000000004
10
-121.37077500000001
20
56.802892999999997
10
-121.42994200000001
20
56.971983000000002
10
-121.45000000000002
20
57.149999999999999
10
-121.42994200000001
20
57.328017000000003
10
-121.37077500000001
20
57.497107000000007
10
-121.27546500000001
20
57.648792
10
-121.14879200000001
20
57.775464999999997
10
-120.99710700000001
20
57.870775000000009
10
-120.82801700000002
20
57.929941999999997
10
-120.65000000000001
20
57.95000000000001
10
-120.47198299999999
20
57.929941999999997
10
-120.302893
20
57.870775000000009
10
-120.151208
20
57.775464999999997
10
-120.02453500000001
20
57.648792
10
-119.929225
20
57.497107000000007
10
-119.870058
20
57.328017000000003
10
-119.84999999999999
20
57.149999999999999
10
-119.870058
20
56.971983000000002
10
-119.929225
20
56.802892999999997
10
-120.02453500000001
20
56.651208000000004
10
-120.151208
20
56.524535
10
-120.302893
20
56.42922500000001
0
LWPOLYLINE
5
154
100
AcDbEntity
8
0
100
AcDbPolyline
90
8
70
1
43
0.0
10
-103.825
20
51.150000000000006
10
-104.82500000000002
20
50.150000000000006
10
-117.425
20
50.150000000000006
10
-118.42500000000001
20
51.150000000000006
10
-118.42500000000001
20
63.150000000000006
10
-117.425
20
64.150000000000006
10
-104.82500000000002
20
64.150000000000006
10
-103.825
20
63.150000000000006
0
LWPOLYLINE
5
155
100
AcDbEntity
8
0
100
AcDbPolyline
90
8
70
1
43
0.0
10
-84.775000000000006
20
51.150000000000006
10
-85.775000000000006
20
50.150000000000006
10
-98.375
20
50.150000000000006
10
-99.375
20
51.150000000000006
10
-99.375
20
63.150000000000006
10
-98.375
20
64.150000000000006
10
-85.775000000000006
20
64.150000000000006
10
-84.775000000000006
20
63.150000000000006
0
LWPOLYLINE
5
156
100
AcDbEntity
8
0
100
AcDbPolyline
90
8
70
1
43
0.0
10
-65.724999999999994
20
51.150000000000006
10
-66.724999999999994
20
50.150000000000006
10
-79.325000000000017
20
50.150000000000006
10
-80.325000000000003
20
51.150000000000006
10
-80.325000000000003
20
63.150000000000006
10
-79.325000000000017
20
64.150000000000006
10
-66.724999999999994
20
64.150000000000006
10
-65.724999999999994
20
63.150000000000006
0
LWPOLYLINE
5
157
100
AcDbEntity
8
0
100
AcDbPolyline
90
28
70
1
43
0.0
10
-63.32198300000001
20
56.370058000000007
10
-63.500000000000007
20
56.350000000000009
10
-63.678017000000004
20
56.370058000000007
10
-63.847107000000001
20
56.42922500000001
10
-63.998792000000009
20
56.524535
10
-64.12546500000002
20
56.651208000000004
10
-64.220775000000003
20
56.802892999999997
10
-64.279942000000005
20
56.971983000000002
10
-64.299999999999997
20
57.149999999999999
10
-64.279942000000005
20
57.328017000000003
10
-64.220775000000003
20
57.497107000000007
10
-64.12546500000002
20
57.648792
10
-63.998792000000009
20
57.775464999999997
10
-63.847107000000001
20
57.870775000000009
10
-63.678017000000004
20
57.929941999999997
10
-63.500000000000007
20
57.95000000000001
10
-63.32198300000001
20
57.929941999999997
10
-63.152892999999999
20
57.870775000000009
10
-63.001208000000005
20
57.775464999999997
10
-62.874535000000009
20
57.648792
10
-62.779224999999997
20
57.497107000000007
10
-62.720058000000009
20
57.328017000000003
10
-62.700000000000003
20
57.149999999999999
10
-62.720058000000009
20
56.971983000000002
10
-62.779224999999997
20
56.802892999999997
10
-62.874535000000009
20
56.651208000000004
10
-63.001208000000005
20
56.524535
10
-63.152892999999999
20
56.42922500000001
0
LWPOLYLINE
5
158
100
AcDbEntity
8
0
100
AcDbPolyline
90
8
70
1
43
0.0
10
-46.674999999999997
20
51.150000000000006
10
-47.674999999999997
20
50.150000000000006
10
-60.274999999999999
20
50.150000000000006
10
-61.275000000000006
20
51.150000000000006
10
-61.275000000000006
20
63.150000000000006
10
-60.274999999999999
20
64.150000000000006
10
-47.674999999999997
20
64.150000000000006
10
-46.674999999999997
20
63.150000000000006
0
LWPOLYLINE
5
159
100
AcDbEntity
8
0
100
AcDbPolyline
90
34
70
1
43
0.0
10
-63.185288
20
49.468899999999998
10
-63.393891000000011
20
49.429905000000005
10
-63.606109000000004
20
49.429905000000005
10
-63.814712
20
49.468899999999998
10
-64.012598999999994
20
49.545561000000006
10
-64.193029999999993
20
49.65727900000001
10
-64.349860000000007
20
49.800249000000001
10
-64.47775
20
49.969602000000002
10
-64.572343000000004
20
50.159571000000007
10
-64.630419000000003
20
50.363687000000006
10
-64.650000000000006
20
50.574998999999998
10
-64.630419000000003
20
50.786310999999998
10
-64.572343000000004
20
50.990426999999997
10
-64.47775
20
51.180396000000002
10
-64.349860000000007
20
51.349749000000003
10
-64.193029999999993
20
51.492719000000008
10
-64.012598999999994
20
51.604437000000004
10
-63.814712
20
51.681097999999999
10
-63.606109000000004
20
51.720092999999999
10
-63.393891000000011
20
51.720092999999999
10
-63.185288
20
51.681097999999999
10
-62.987400999999998
20
51.604437000000004
10
-62.80697
20
51.492719000000008
10
-62.650140000000007
20
51.349749000000003
10
-62.52225
20
51.180396000000002
10
-62.427657000000004
20
50.990426999999997
10
-62.369580999999997
20
50.786310999999998
10
-62.350000000000001
20
50.574998999999998
10
-62.369580999999997
20
50.363687000000006
10
-62.427657000000004
20
50.159571000000007
10
-62.52225
20
49.969602000000002
10
-62.650140000000007
20
49.800249000000001
10
-62.80697
20
49.65727900000001
10
-62.987400999999998
20
49.545561000000006
0
ENDSEC
0
SECTION
2
OBJECTS
0
DICTIONARY
5
C
100
AcDbDictionary
3
ACAD_GROUP
350
D
3
ACAD_MLINESTYLE
350
17
0
DICTIONARY
5
D
100
AcDbDictionary
0
DICTIONARY
5
1A
330
C
100
AcDbDictionary
0
DICTIONARY
5
17
100
AcDbDictionary
0
ENDSEC
0
EOF
