%TF.GenerationSoftware,KiCad,Pcbnew,8.0.8*%
%TF.CreationDate,2025-03-01T19:11:54+01:00*%
%TF.ProjectId,travaulta WKL,74726176-6175-46c7-9461-20574b4c2e6b,rev?*%
%TF.SameCoordinates,Original*%
%TF.FileFunction,Profile,NP*%
%FSLAX46Y46*%
G04 Gerber Fmt 4.6, Leading zero omitted, Abs format (unit mm)*
G04 Created by KiCad (PCBNEW 8.0.8) date 2025-03-01 19:11:54*
%MOMM*%
%LPD*%
G01*
G04 APERTURE LIST*
%TA.AperFunction,Profile*%
%ADD10C,0.050000*%
%TD*%
G04 APERTURE END LIST*
D10*
X238200000Y-49750000D02*
G75*
G02*
X239700000Y-48250000I1500000J0D01*
G01*
X46575000Y-110759000D02*
G75*
G02*
X45075000Y-109259000I0J1500000D01*
G01*
X88835496Y-48250000D02*
G75*
G02*
X87605918Y-47827380I4J2000000D01*
G01*
X74900000Y-105050000D02*
X90200000Y-105050000D01*
X251734375Y-117259000D02*
G75*
G02*
X251734375Y-110759000I25J3250000D01*
G01*
X251734375Y-110759000D02*
X251875000Y-110759000D01*
X226050000Y-107550000D02*
X226050000Y-121700000D01*
X72400000Y-107550000D02*
G75*
G02*
X74900000Y-105050000I2500000J0D01*
G01*
X253375000Y-121700000D02*
G75*
G02*
X251875000Y-123200000I-1500000J0D01*
G01*
X106703125Y-122616430D02*
G75*
G02*
X105515625Y-123199980I-1187425J916330D01*
G01*
X46716000Y-110759000D02*
G75*
G02*
X46716000Y-117259000I0J-3250000D01*
G01*
X106703125Y-122616430D02*
G75*
G02*
X113828125Y-122616430I3562500J-2749291D01*
G01*
X251475000Y-48250000D02*
G75*
G02*
X253375000Y-50150000I0J-1900000D01*
G01*
X76221573Y-48250000D02*
X68250000Y-48250000D01*
X231700000Y-50150000D02*
X231700000Y-49750000D01*
X253375000Y-109259000D02*
X253375000Y-50150000D01*
X94200000Y-123200000D02*
G75*
G02*
X92700000Y-121700000I0J1500000D01*
G01*
X66750000Y-50150000D02*
G75*
G02*
X60250000Y-50150000I-3250000J0D01*
G01*
X192934375Y-123200000D02*
G75*
G02*
X191746860Y-122616442I25J1500100D01*
G01*
X58750000Y-48250000D02*
G75*
G02*
X60250000Y-49750000I0J-1500000D01*
G01*
X46575000Y-110759000D02*
X46716000Y-110759000D01*
X230200000Y-48250000D02*
G75*
G02*
X231700000Y-49750000I0J-1500000D01*
G01*
X115015625Y-123200000D02*
X183434375Y-123200000D01*
X227550000Y-123200000D02*
G75*
G02*
X226050000Y-121700000I0J1500000D01*
G01*
X184621875Y-122616430D02*
G75*
G02*
X183434375Y-123200021I-1187575J916530D01*
G01*
X184621875Y-122616430D02*
G75*
G02*
X191746875Y-122616430I3562500J-2749291D01*
G01*
X253375000Y-109259000D02*
G75*
G02*
X251875000Y-110759000I-1500000J0D01*
G01*
X205750000Y-107550000D02*
G75*
G02*
X208250000Y-105050000I2500000J0D01*
G01*
X72400000Y-121700000D02*
G75*
G02*
X70900000Y-123200000I-1500000J0D01*
G01*
X77451153Y-47827382D02*
G75*
G02*
X78680733Y-47404772I1229647J-1577618D01*
G01*
X227550000Y-123200000D02*
X251875000Y-123200000D01*
X45075000Y-50150000D02*
G75*
G02*
X46975000Y-48250000I1900000J0D01*
G01*
X86376336Y-47404763D02*
X78680733Y-47404763D01*
X77451153Y-47827382D02*
G75*
G02*
X76221573Y-48250024I-1229653J1577482D01*
G01*
X199934375Y-123200000D02*
X204250000Y-123200000D01*
X60250000Y-50150000D02*
X60250000Y-49750000D01*
X92700000Y-107550000D02*
X92700000Y-121700000D01*
X94200000Y-123200000D02*
X98515625Y-123200000D01*
X208250000Y-105050000D02*
X223550000Y-105050000D01*
X251875000Y-117259000D02*
G75*
G02*
X253375000Y-118759000I0J-1500000D01*
G01*
X238200000Y-50150000D02*
G75*
G02*
X231700000Y-50150000I-3250000J0D01*
G01*
X205750000Y-121700000D02*
G75*
G02*
X204250000Y-123200000I-1500000J0D01*
G01*
X115015625Y-123200000D02*
G75*
G02*
X113828140Y-122616418I-25J1499900D01*
G01*
X192934375Y-123200000D02*
X199934375Y-123200000D01*
X46575000Y-123200000D02*
X70900000Y-123200000D01*
X238200000Y-49750000D02*
X238200000Y-50150000D01*
X98515625Y-123200000D02*
X105515625Y-123200000D01*
X66750000Y-49750000D02*
X66750000Y-50150000D01*
X86376336Y-47404763D02*
G75*
G02*
X87605921Y-47827376I-36J-2000137D01*
G01*
X45075000Y-118759000D02*
X45075000Y-121700000D01*
X230200000Y-48250000D02*
X88835496Y-48250000D01*
X251875000Y-117259000D02*
X251734375Y-117259000D01*
X251475000Y-48250000D02*
X239700000Y-48250000D01*
X45075000Y-50150000D02*
X45075000Y-109259000D01*
X90200000Y-105050000D02*
G75*
G02*
X92700000Y-107550000I0J-2500000D01*
G01*
X45075000Y-118759000D02*
G75*
G02*
X46575000Y-117259000I1500000J0D01*
G01*
X46716000Y-117259000D02*
X46575000Y-117259000D01*
X223550000Y-105050000D02*
G75*
G02*
X226050000Y-107550000I0J-2500000D01*
G01*
X205750000Y-121700000D02*
X205750000Y-107550000D01*
X72400000Y-121700000D02*
X72400000Y-107550000D01*
X253375000Y-121700000D02*
X253375000Y-118759000D01*
X46575000Y-123200000D02*
G75*
G02*
X45075000Y-121700000I0J1500000D01*
G01*
X66750000Y-49750000D02*
G75*
G02*
X68250000Y-48250000I1500000J0D01*
G01*
X58750000Y-48250000D02*
X46975000Y-48250000D01*
M02*
