%TF.GenerationSoftware,KiCad,Pcbnew,8.0.8*%
%TF.CreationDate,2025-03-01T19:11:54+01:00*%
%TF.ProjectId,travaulta WKL,74726176-6175-46c7-9461-20574b4c2e6b,rev?*%
%TF.SameCoordinates,Original*%
%TF.FileFunction,Legend,Top*%
%TF.FilePolarity,Positive*%
%FSLAX46Y46*%
G04 Gerber Fmt 4.6, Leading zero omitted, Abs format (unit mm)*
G04 Created by KiCad (PCBNEW 8.0.8) date 2025-03-01 19:11:54*
%MOMM*%
%LPD*%
G01*
G04 APERTURE LIST*
%ADD10C,0.900000*%
%ADD11C,0.000000*%
%ADD12C,2.200000*%
G04 APERTURE END LIST*
D10*
%TO.C,SW20*%
X217604500Y-76200000D02*
G75*
G02*
X204670500Y-76200000I-6467000J0D01*
G01*
X204670500Y-76200000D02*
G75*
G02*
X217604500Y-76200000I6467000J0D01*
G01*
%TO.C,SW27*%
X169979500Y-95250000D02*
G75*
G02*
X157045500Y-95250000I-6467000J0D01*
G01*
X157045500Y-95250000D02*
G75*
G02*
X169979500Y-95250000I6467000J0D01*
G01*
%TO.C,SW15*%
X122354500Y-76200000D02*
G75*
G02*
X109420500Y-76200000I-6467000J0D01*
G01*
X109420500Y-76200000D02*
G75*
G02*
X122354500Y-76200000I6467000J0D01*
G01*
%TO.C,SW18*%
X179504500Y-76200000D02*
G75*
G02*
X166570500Y-76200000I-6467000J0D01*
G01*
X166570500Y-76200000D02*
G75*
G02*
X179504500Y-76200000I6467000J0D01*
G01*
%TO.C,SW1*%
X60442000Y-57150000D02*
G75*
G02*
X47508000Y-57150000I-6467000J0D01*
G01*
X47508000Y-57150000D02*
G75*
G02*
X60442000Y-57150000I6467000J0D01*
G01*
%TO.C,SW9*%
X212842000Y-57150000D02*
G75*
G02*
X199908000Y-57150000I-6467000J0D01*
G01*
X199908000Y-57150000D02*
G75*
G02*
X212842000Y-57150000I6467000J0D01*
G01*
%TO.C,SW28*%
X189029500Y-95250000D02*
G75*
G02*
X176095500Y-95250000I-6467000J0D01*
G01*
X176095500Y-95250000D02*
G75*
G02*
X189029500Y-95250000I6467000J0D01*
G01*
%TO.C,SW4*%
X117592000Y-57150000D02*
G75*
G02*
X104658000Y-57150000I-6467000J0D01*
G01*
X104658000Y-57150000D02*
G75*
G02*
X117592000Y-57150000I6467000J0D01*
G01*
%TO.C,SW17*%
X160454500Y-76200000D02*
G75*
G02*
X147520500Y-76200000I-6467000J0D01*
G01*
X147520500Y-76200000D02*
G75*
G02*
X160454500Y-76200000I6467000J0D01*
G01*
%TO.C,SW12*%
X62825000Y-76200000D02*
G75*
G02*
X49891000Y-76200000I-6467000J0D01*
G01*
X49891000Y-76200000D02*
G75*
G02*
X62825000Y-76200000I6467000J0D01*
G01*
%TO.C,SW23*%
X93779500Y-95250000D02*
G75*
G02*
X80845500Y-95250000I-6467000J0D01*
G01*
X80845500Y-95250000D02*
G75*
G02*
X93779500Y-95250000I6467000J0D01*
G01*
%TO.C,SW34*%
X139022000Y-114300000D02*
G75*
G02*
X126088000Y-114300000I-6467000J0D01*
G01*
X126088000Y-114300000D02*
G75*
G02*
X139022000Y-114300000I6467000J0D01*
G01*
%TO.C,SW22*%
X67587000Y-95250000D02*
G75*
G02*
X54653000Y-95250000I-6467000J0D01*
G01*
X54653000Y-95250000D02*
G75*
G02*
X67587000Y-95250000I6467000J0D01*
G01*
%TO.C,SW16*%
X141404500Y-76200000D02*
G75*
G02*
X128470500Y-76200000I-6467000J0D01*
G01*
X128470500Y-76200000D02*
G75*
G02*
X141404500Y-76200000I6467000J0D01*
G01*
%TO.C,SW14*%
X103304500Y-76200000D02*
G75*
G02*
X90370500Y-76200000I-6467000J0D01*
G01*
X90370500Y-76200000D02*
G75*
G02*
X103304500Y-76200000I6467000J0D01*
G01*
%TO.C,SW7*%
X174742000Y-57150000D02*
G75*
G02*
X161808000Y-57150000I-6467000J0D01*
G01*
X161808000Y-57150000D02*
G75*
G02*
X174742000Y-57150000I6467000J0D01*
G01*
%TO.C,SW24*%
X112829500Y-95250000D02*
G75*
G02*
X99895500Y-95250000I-6467000J0D01*
G01*
X99895500Y-95250000D02*
G75*
G02*
X112829500Y-95250000I6467000J0D01*
G01*
%TO.C,SW11*%
X250942000Y-57150000D02*
G75*
G02*
X238008000Y-57150000I-6467000J0D01*
G01*
X238008000Y-57150000D02*
G75*
G02*
X250942000Y-57150000I6467000J0D01*
G01*
%TO.C,SW31*%
X248562000Y-95250000D02*
G75*
G02*
X235628000Y-95250000I-6467000J0D01*
G01*
X235628000Y-95250000D02*
G75*
G02*
X248562000Y-95250000I6467000J0D01*
G01*
%TO.C,SW2*%
X79492000Y-57150000D02*
G75*
G02*
X66558000Y-57150000I-6467000J0D01*
G01*
X66558000Y-57150000D02*
G75*
G02*
X79492000Y-57150000I6467000J0D01*
G01*
D11*
%TO.C,G\u002A\u002A\u002A*%
G36*
X242180616Y-58716357D02*
G01*
X242173263Y-58723711D01*
X242165909Y-58716357D01*
X242173263Y-58709004D01*
X242180616Y-58716357D01*
G37*
G36*
X242827750Y-62393254D02*
G01*
X242820396Y-62400608D01*
X242813042Y-62393254D01*
X242820396Y-62385900D01*
X242827750Y-62393254D01*
G37*
G36*
X242842458Y-62496207D02*
G01*
X242835104Y-62503561D01*
X242827750Y-62496207D01*
X242835104Y-62488853D01*
X242842458Y-62496207D01*
G37*
G36*
X243313100Y-61599044D02*
G01*
X243305747Y-61606398D01*
X243298393Y-61599044D01*
X243305747Y-61591690D01*
X243313100Y-61599044D01*
G37*
G36*
X243357223Y-54054053D02*
G01*
X243349869Y-54061407D01*
X243342516Y-54054053D01*
X243349869Y-54046699D01*
X243357223Y-54054053D01*
G37*
G36*
X243710205Y-53892269D02*
G01*
X243702851Y-53899623D01*
X243695498Y-53892269D01*
X243702851Y-53884916D01*
X243710205Y-53892269D01*
G37*
G36*
X244151433Y-54274667D02*
G01*
X244144079Y-54282020D01*
X244136725Y-54274667D01*
X244144079Y-54267313D01*
X244151433Y-54274667D01*
G37*
G36*
X244313216Y-58378083D02*
G01*
X244305862Y-58385437D01*
X244298509Y-58378083D01*
X244305862Y-58370729D01*
X244313216Y-58378083D01*
G37*
G36*
X244430877Y-58525159D02*
G01*
X244423523Y-58532513D01*
X244416169Y-58525159D01*
X244423523Y-58517805D01*
X244430877Y-58525159D01*
G37*
G36*
X244975058Y-54230544D02*
G01*
X244967704Y-54237898D01*
X244960350Y-54230544D01*
X244967704Y-54223190D01*
X244975058Y-54230544D01*
G37*
G36*
X242190421Y-58684491D02*
G01*
X242188402Y-58693235D01*
X242180616Y-58694296D01*
X242168510Y-58688915D01*
X242170811Y-58684491D01*
X242188266Y-58682731D01*
X242190421Y-58684491D01*
G37*
G36*
X242219837Y-60728845D02*
G01*
X242217818Y-60737589D01*
X242210031Y-60738650D01*
X242197925Y-60733269D01*
X242200226Y-60728845D01*
X242217681Y-60727085D01*
X242219837Y-60728845D01*
G37*
G36*
X243219952Y-53830988D02*
G01*
X243221713Y-53848442D01*
X243219952Y-53850598D01*
X243211209Y-53848579D01*
X243210147Y-53840793D01*
X243215529Y-53828687D01*
X243219952Y-53830988D01*
G37*
G36*
X243596221Y-51786698D02*
G01*
X243598069Y-51792066D01*
X243577837Y-51794116D01*
X243556958Y-51791805D01*
X243559452Y-51786698D01*
X243589564Y-51784755D01*
X243596221Y-51786698D01*
G37*
G36*
X243661180Y-53889818D02*
G01*
X243662940Y-53907273D01*
X243661180Y-53909428D01*
X243652436Y-53907409D01*
X243651375Y-53899623D01*
X243656756Y-53887517D01*
X243661180Y-53889818D01*
G37*
G36*
X244058285Y-60596477D02*
G01*
X244056266Y-60605221D01*
X244048480Y-60606282D01*
X244036374Y-60600901D01*
X244038675Y-60596477D01*
X244056129Y-60594717D01*
X244058285Y-60596477D01*
G37*
G36*
X242599583Y-59763980D02*
G01*
X242592236Y-59786685D01*
X242577524Y-59797365D01*
X242571192Y-59785620D01*
X242573416Y-59768115D01*
X242584439Y-59747853D01*
X242593458Y-59746525D01*
X242599583Y-59763980D01*
G37*
G36*
X242709662Y-55160960D02*
G01*
X242710089Y-55164476D01*
X242698897Y-55178756D01*
X242695382Y-55179183D01*
X242681102Y-55167991D01*
X242680674Y-55164476D01*
X242691866Y-55150195D01*
X242695382Y-55149768D01*
X242709662Y-55160960D01*
G37*
G36*
X242780869Y-62412926D02*
G01*
X242783627Y-62430023D01*
X242777468Y-62453922D01*
X242768920Y-62459438D01*
X242756970Y-62447120D01*
X242754212Y-62430023D01*
X242760371Y-62406123D01*
X242768920Y-62400608D01*
X242780869Y-62412926D01*
G37*
G36*
X242825798Y-62319135D02*
G01*
X242824992Y-62327989D01*
X242806371Y-62350278D01*
X242799254Y-62353727D01*
X242785579Y-62349712D01*
X242786385Y-62340858D01*
X242805006Y-62318569D01*
X242812123Y-62315120D01*
X242825798Y-62319135D01*
G37*
G36*
X242881525Y-62439033D02*
G01*
X242879227Y-62444730D01*
X242866010Y-62458761D01*
X242863651Y-62459438D01*
X242857334Y-62448059D01*
X242857165Y-62444730D01*
X242868472Y-62430588D01*
X242872741Y-62430023D01*
X242881525Y-62439033D01*
G37*
G36*
X243327156Y-59320402D02*
G01*
X243330749Y-59323781D01*
X243340826Y-59343795D01*
X243330749Y-59359079D01*
X243317578Y-59366319D01*
X243313208Y-59348509D01*
X243313100Y-59341430D01*
X243316066Y-59318053D01*
X243327156Y-59320402D01*
G37*
G36*
X245190674Y-54732310D02*
G01*
X245188318Y-54737956D01*
X245168834Y-54752114D01*
X245164520Y-54752663D01*
X245156546Y-54743601D01*
X245158902Y-54737956D01*
X245178386Y-54723797D01*
X245182700Y-54723248D01*
X245190674Y-54732310D01*
G37*
G36*
X244091958Y-52803510D02*
G01*
X244106933Y-52824830D01*
X244100433Y-52846589D01*
X244078763Y-52855385D01*
X244051156Y-52849433D01*
X244042156Y-52842344D01*
X244044386Y-52823925D01*
X244062832Y-52807067D01*
X244085371Y-52801222D01*
X244091958Y-52803510D01*
G37*
G36*
X242623773Y-55016216D02*
G01*
X242624588Y-55020279D01*
X242627563Y-55054895D01*
X242625336Y-55073108D01*
X242612112Y-55090447D01*
X242598461Y-55083566D01*
X242592654Y-55057846D01*
X242598205Y-55022252D01*
X242605388Y-55005017D01*
X242616102Y-54997101D01*
X242623773Y-55016216D01*
G37*
G36*
X243435021Y-51690657D02*
G01*
X243453338Y-51696419D01*
X243452705Y-51701026D01*
X243429939Y-51705460D01*
X243381853Y-51710699D01*
X243364577Y-51712336D01*
X243276331Y-51720565D01*
X243342516Y-51702329D01*
X243388149Y-51692613D01*
X243425349Y-51689561D01*
X243435021Y-51690657D01*
G37*
G36*
X242456376Y-57879067D02*
G01*
X242482988Y-57892265D01*
X242500306Y-57907147D01*
X242494918Y-57913057D01*
X242465576Y-57914326D01*
X242415271Y-57917827D01*
X242373653Y-57923986D01*
X242339175Y-57926433D01*
X242327692Y-57917150D01*
X242340424Y-57893499D01*
X242372368Y-57878266D01*
X242414145Y-57872955D01*
X242456376Y-57879067D01*
G37*
G36*
X243405023Y-52104103D02*
G01*
X243415949Y-52116532D01*
X243416053Y-52118336D01*
X243403553Y-52128583D01*
X243374863Y-52137028D01*
X243343196Y-52141083D01*
X243321766Y-52138158D01*
X243320370Y-52137081D01*
X243313298Y-52117388D01*
X243313100Y-52113392D01*
X243323067Y-52103027D01*
X243355220Y-52100339D01*
X243405023Y-52104103D01*
G37*
G36*
X242080759Y-60623842D02*
G01*
X242123343Y-60631035D01*
X242158657Y-60640522D01*
X242178537Y-60650258D01*
X242178979Y-60656058D01*
X242152987Y-60665227D01*
X242110759Y-60669351D01*
X242065137Y-60667800D01*
X242037941Y-60662968D01*
X241996252Y-60647642D01*
X241982972Y-60634075D01*
X241998041Y-60624462D01*
X242039069Y-60620990D01*
X242080759Y-60623842D01*
G37*
G36*
X244035813Y-60112480D02*
G01*
X244038001Y-60135334D01*
X244032524Y-60176085D01*
X244023950Y-60226458D01*
X244016505Y-60270555D01*
X244014473Y-60282715D01*
X244011368Y-60287412D01*
X244008595Y-60266983D01*
X244006653Y-60225717D01*
X244006360Y-60212854D01*
X244006668Y-60154673D01*
X244010829Y-60121039D01*
X244019641Y-60107244D01*
X244024410Y-60106224D01*
X244035813Y-60112480D01*
G37*
G36*
X240590779Y-61219368D02*
G01*
X240616414Y-61236412D01*
X240618361Y-61263844D01*
X240597399Y-61295725D01*
X240578727Y-61311365D01*
X240541725Y-61332412D01*
X240501846Y-61347474D01*
X240467568Y-61354367D01*
X240447368Y-61350909D01*
X240445121Y-61345779D01*
X240455013Y-61326124D01*
X240474161Y-61305232D01*
X240499694Y-61275262D01*
X240511490Y-61252835D01*
X240533899Y-61222984D01*
X240573313Y-61216099D01*
X240590779Y-61219368D01*
G37*
G36*
X243189972Y-53647823D02*
G01*
X243205318Y-53680682D01*
X243209791Y-53724538D01*
X243203214Y-53763544D01*
X243189823Y-53795722D01*
X243176880Y-53811146D01*
X243175560Y-53811378D01*
X243168647Y-53800607D01*
X243170979Y-53790267D01*
X243169774Y-53768946D01*
X243163190Y-53763859D01*
X243152882Y-53747240D01*
X243146103Y-53711938D01*
X243145084Y-53696725D01*
X243146323Y-53655928D01*
X243155374Y-53637669D01*
X243166314Y-53634887D01*
X243189972Y-53647823D01*
G37*
G36*
X242625232Y-57748540D02*
G01*
X242700287Y-57770442D01*
X242732151Y-57782992D01*
X242747829Y-57791321D01*
X242738516Y-57795101D01*
X242715512Y-57796138D01*
X242677058Y-57804694D01*
X242643195Y-57832637D01*
X242630195Y-57848610D01*
X242604267Y-57881286D01*
X242584681Y-57895105D01*
X242560109Y-57893063D01*
X242519222Y-57878152D01*
X242518891Y-57878025D01*
X242475116Y-57864273D01*
X242437188Y-57857239D01*
X242434322Y-57857083D01*
X242406578Y-57850337D01*
X242406052Y-57833300D01*
X242432642Y-57806572D01*
X242444702Y-57797597D01*
X242505106Y-57761728D01*
X242562727Y-57745506D01*
X242625232Y-57748540D01*
G37*
G36*
X243280266Y-53875704D02*
G01*
X243270511Y-53883657D01*
X243258479Y-53903398D01*
X243261999Y-53926882D01*
X243277524Y-53940378D01*
X243285114Y-53940206D01*
X243304818Y-53947898D01*
X243308814Y-53954787D01*
X243305104Y-53967028D01*
X243288591Y-53964617D01*
X243270328Y-53960009D01*
X243276454Y-53968196D01*
X243285984Y-53976251D01*
X243302069Y-54000735D01*
X243296284Y-54021575D01*
X243277530Y-54039852D01*
X243254822Y-54047094D01*
X243240208Y-54040328D01*
X243239212Y-54035668D01*
X243235914Y-54015319D01*
X243228192Y-53978829D01*
X243225961Y-53969078D01*
X243223201Y-53919538D01*
X243238688Y-53884818D01*
X243269712Y-53870522D01*
X243273705Y-53870433D01*
X243280266Y-53875704D01*
G37*
G36*
X242973817Y-54279140D02*
G01*
X242984076Y-54305761D01*
X242996204Y-54356590D01*
X243002027Y-54387535D01*
X243015140Y-54450876D01*
X243033731Y-54526880D01*
X243054040Y-54600282D01*
X243056400Y-54608148D01*
X243085289Y-54716399D01*
X243099521Y-54801825D01*
X243099101Y-54863755D01*
X243084036Y-54901519D01*
X243054329Y-54914445D01*
X243053917Y-54914447D01*
X243041895Y-54905758D01*
X243035482Y-54876698D01*
X243033656Y-54825234D01*
X243031490Y-54773011D01*
X243025886Y-54730148D01*
X243020069Y-54710634D01*
X243011078Y-54681959D01*
X243000663Y-54629550D01*
X242989668Y-54559001D01*
X242978936Y-54475906D01*
X242969311Y-54385858D01*
X242966520Y-54355558D01*
X242963812Y-54302934D01*
X242966654Y-54277829D01*
X242973817Y-54279140D01*
G37*
G36*
X244768407Y-62097331D02*
G01*
X244770641Y-62113562D01*
X244745593Y-62139672D01*
X244744543Y-62140502D01*
X244706224Y-62170644D01*
X244717216Y-62333425D01*
X244726054Y-62464641D01*
X244733048Y-62569448D01*
X244738373Y-62650783D01*
X244742202Y-62711583D01*
X244744710Y-62754785D01*
X244746070Y-62783326D01*
X244746458Y-62800142D01*
X244746048Y-62808172D01*
X244745485Y-62810003D01*
X244737104Y-62802699D01*
X244724535Y-62782083D01*
X244716005Y-62750060D01*
X244710442Y-62694767D01*
X244708390Y-62622250D01*
X244708476Y-62603341D01*
X244707587Y-62531820D01*
X244703923Y-62463219D01*
X244698165Y-62408264D01*
X244694942Y-62390258D01*
X244688457Y-62338872D01*
X244688406Y-62279008D01*
X244693758Y-62217644D01*
X244703484Y-62161761D01*
X244716555Y-62118336D01*
X244731941Y-62094349D01*
X244738977Y-62091748D01*
X244768407Y-62097331D01*
G37*
G36*
X243769036Y-51573132D02*
G01*
X243756333Y-51586271D01*
X243728590Y-51594706D01*
X243705599Y-51598877D01*
X243708888Y-51601451D01*
X243739620Y-51603682D01*
X243791097Y-51606531D01*
X243732267Y-51627725D01*
X243687960Y-51641342D01*
X243650866Y-51648875D01*
X243644021Y-51649366D01*
X243624702Y-51651925D01*
X243632586Y-51661362D01*
X243636667Y-51664070D01*
X243648516Y-51674902D01*
X243634014Y-51678413D01*
X243626862Y-51678553D01*
X243598568Y-51686196D01*
X243588338Y-51697162D01*
X243577213Y-51708106D01*
X243553369Y-51698882D01*
X243552231Y-51698216D01*
X243523454Y-51688465D01*
X243506186Y-51697481D01*
X243492049Y-51704868D01*
X243489591Y-51699699D01*
X243498209Y-51675110D01*
X243518003Y-51646026D01*
X243539881Y-51624389D01*
X243550306Y-51619948D01*
X243571947Y-51610522D01*
X243587292Y-51597886D01*
X243621960Y-51597886D01*
X243629313Y-51605240D01*
X243636667Y-51597886D01*
X243629313Y-51590532D01*
X243621960Y-51597886D01*
X243587292Y-51597886D01*
X243617253Y-51582038D01*
X243656102Y-51575624D01*
X243701055Y-51572620D01*
X243735943Y-51566555D01*
X243761759Y-51565166D01*
X243769036Y-51573132D01*
G37*
G36*
X244995525Y-54266015D02*
G01*
X244997119Y-54267313D01*
X245015596Y-54288325D01*
X245019180Y-54298093D01*
X245024896Y-54317245D01*
X245039716Y-54354170D01*
X245055949Y-54390949D01*
X245075485Y-54434868D01*
X245088820Y-54467159D01*
X245092718Y-54479195D01*
X245098306Y-54495822D01*
X245112762Y-54530708D01*
X245127761Y-54564706D01*
X245156601Y-54631109D01*
X245172023Y-54675156D01*
X245174118Y-54700622D01*
X245162978Y-54711280D01*
X245138695Y-54710902D01*
X245131285Y-54709656D01*
X245124097Y-54719351D01*
X245126129Y-54736939D01*
X245122127Y-54766709D01*
X245096025Y-54808262D01*
X245075282Y-54833165D01*
X245041717Y-54868597D01*
X245014297Y-54892744D01*
X245001295Y-54899739D01*
X244994067Y-54885234D01*
X244990893Y-54841975D01*
X244991795Y-54770343D01*
X244992875Y-54743129D01*
X244997143Y-54668842D01*
X245002731Y-54618808D01*
X245010566Y-54587867D01*
X245021579Y-54570858D01*
X245024316Y-54568622D01*
X245035345Y-54557917D01*
X245039635Y-54542475D01*
X245036657Y-54516103D01*
X245025881Y-54472607D01*
X245011925Y-54423504D01*
X244990742Y-54347642D01*
X244978780Y-54296793D01*
X244975768Y-54268126D01*
X244981439Y-54258810D01*
X244995525Y-54266015D01*
G37*
G36*
X242705769Y-54325096D02*
G01*
X242714180Y-54361887D01*
X242720624Y-54415526D01*
X242724202Y-54479730D01*
X242724635Y-54509253D01*
X242723465Y-54557532D01*
X242719063Y-54580448D01*
X242710436Y-54581964D01*
X242707148Y-54579114D01*
X242683461Y-54562605D01*
X242672602Y-54570780D01*
X242673497Y-54587203D01*
X242678353Y-54614890D01*
X242679549Y-54623377D01*
X242689874Y-54639901D01*
X242713383Y-54665767D01*
X242715144Y-54667499D01*
X242744615Y-54703996D01*
X242767518Y-54752165D01*
X242786475Y-54818624D01*
X242798458Y-54877678D01*
X242809443Y-54938032D01*
X242822767Y-55011444D01*
X242835547Y-55082026D01*
X242835552Y-55082053D01*
X242846579Y-55140556D01*
X242856760Y-55190273D01*
X242864199Y-55222032D01*
X242865200Y-55225452D01*
X242865361Y-55248264D01*
X242850355Y-55250518D01*
X242831019Y-55234337D01*
X242819134Y-55215018D01*
X242796946Y-55174757D01*
X242767328Y-55118909D01*
X242733152Y-55052832D01*
X242722588Y-55032107D01*
X242629198Y-54848263D01*
X242630280Y-54685841D01*
X242633091Y-54613679D01*
X242639938Y-54538297D01*
X242649815Y-54465398D01*
X242661719Y-54400683D01*
X242674643Y-54349851D01*
X242687582Y-54318605D01*
X242696293Y-54311436D01*
X242705769Y-54325096D01*
G37*
G36*
X243831416Y-59538708D02*
G01*
X243860586Y-59561059D01*
X243863801Y-59565316D01*
X243878491Y-59602038D01*
X243886369Y-59654236D01*
X243886966Y-59671946D01*
X243889229Y-59718798D01*
X243895091Y-59784260D01*
X243903534Y-59857891D01*
X243909227Y-59900318D01*
X243920096Y-59986695D01*
X243930044Y-60083340D01*
X243937421Y-60173648D01*
X243939152Y-60201824D01*
X243943997Y-60272389D01*
X243950366Y-60338867D01*
X243957216Y-60391154D01*
X243960526Y-60408953D01*
X243969185Y-60464856D01*
X243973111Y-60524740D01*
X243973118Y-60533968D01*
X243974075Y-60571873D01*
X243978300Y-60619048D01*
X243986455Y-60680583D01*
X243999200Y-60761564D01*
X244014044Y-60848957D01*
X244019516Y-60888337D01*
X244025456Y-60942723D01*
X244028968Y-60981326D01*
X244036241Y-61069571D01*
X243972500Y-61094701D01*
X243929895Y-61110374D01*
X243869357Y-61131235D01*
X243801062Y-61153813D01*
X243768681Y-61164188D01*
X243705635Y-61185315D01*
X243650845Y-61205788D01*
X243612046Y-61222614D01*
X243599944Y-61229503D01*
X243581116Y-61247505D01*
X243581710Y-61267786D01*
X243591845Y-61288878D01*
X243604259Y-61318045D01*
X243598471Y-61336300D01*
X243584091Y-61348719D01*
X243552647Y-61367857D01*
X243533770Y-61364493D01*
X243523133Y-61345338D01*
X243504542Y-61315037D01*
X243494158Y-61304893D01*
X243474269Y-61278360D01*
X243452857Y-61232712D01*
X243433384Y-61177821D01*
X243419315Y-61123559D01*
X243414112Y-61079800D01*
X243414188Y-61076925D01*
X243420362Y-61029886D01*
X243433099Y-60975172D01*
X243437913Y-60959264D01*
X243447203Y-60919352D01*
X243457051Y-60858071D01*
X243466348Y-60783425D01*
X243473980Y-60703412D01*
X243474678Y-60694528D01*
X243482747Y-60592442D01*
X243489909Y-60511676D01*
X243497166Y-60444197D01*
X243505521Y-60381971D01*
X243515979Y-60316965D01*
X243529542Y-60241146D01*
X243534922Y-60212108D01*
X243547623Y-60129991D01*
X243557356Y-60040603D01*
X243562615Y-59958910D01*
X243563129Y-59931656D01*
X243570308Y-59811813D01*
X243591500Y-59714335D01*
X243626187Y-59640389D01*
X243673852Y-59591136D01*
X243724131Y-59569569D01*
X243758185Y-59558618D01*
X243777089Y-59546205D01*
X243799842Y-59532932D01*
X243831416Y-59538708D01*
G37*
G36*
X244512244Y-60114657D02*
G01*
X244531490Y-60124521D01*
X244549418Y-60146122D01*
X244568712Y-60184243D01*
X244592059Y-60243666D01*
X244605052Y-60279905D01*
X244622912Y-60325748D01*
X244639919Y-60361600D01*
X244647429Y-60373420D01*
X244662900Y-60401759D01*
X244674777Y-60436790D01*
X244690228Y-60480312D01*
X244712675Y-60526055D01*
X244713899Y-60528152D01*
X244734746Y-60569220D01*
X244737810Y-60596935D01*
X244720157Y-60614301D01*
X244678857Y-60624325D01*
X244614722Y-60629802D01*
X244545207Y-60635063D01*
X244474799Y-60642513D01*
X244418425Y-60650568D01*
X244417145Y-60650796D01*
X244366658Y-60657807D01*
X244311003Y-60662402D01*
X244256407Y-60664549D01*
X244209095Y-60664217D01*
X244175293Y-60661376D01*
X244161226Y-60655994D01*
X244163982Y-60652050D01*
X244176219Y-60638004D01*
X244170336Y-60615454D01*
X244164573Y-60604476D01*
X244151260Y-60572332D01*
X244148737Y-60552238D01*
X244141583Y-60529335D01*
X244137115Y-60525632D01*
X244124426Y-60504662D01*
X244122018Y-60487754D01*
X244116171Y-60464322D01*
X244108437Y-60459206D01*
X244104987Y-60447959D01*
X244114312Y-60420384D01*
X244116708Y-60415405D01*
X244130230Y-60391264D01*
X244145594Y-60379100D01*
X244171458Y-60376176D01*
X244216479Y-60379754D01*
X244226244Y-60380768D01*
X244274799Y-60384858D01*
X244299915Y-60383509D01*
X244307220Y-60375783D01*
X244305356Y-60367591D01*
X244287508Y-60347109D01*
X244253669Y-60323712D01*
X244242492Y-60317659D01*
X244206780Y-60298465D01*
X244183809Y-60284181D01*
X244180848Y-60281643D01*
X244162368Y-60270127D01*
X244144311Y-60262398D01*
X244128012Y-60253968D01*
X244132959Y-60244505D01*
X244162021Y-60228868D01*
X244163428Y-60228187D01*
X244195179Y-60207040D01*
X244204796Y-60187188D01*
X244204284Y-60185395D01*
X244203806Y-60163211D01*
X244223921Y-60158584D01*
X244261417Y-60171791D01*
X244275498Y-60179229D01*
X244309199Y-60196294D01*
X244324637Y-60197693D01*
X244327924Y-60186865D01*
X244337956Y-60171633D01*
X244370920Y-60165406D01*
X244386754Y-60165055D01*
X244425243Y-60162588D01*
X244442254Y-60152618D01*
X244445584Y-60135639D01*
X244447600Y-60128286D01*
X244475000Y-60128286D01*
X244482353Y-60135639D01*
X244489707Y-60128286D01*
X244482353Y-60120932D01*
X244475000Y-60128286D01*
X244447600Y-60128286D01*
X244451730Y-60113221D01*
X244473791Y-60107250D01*
X244512244Y-60114657D01*
G37*
G36*
X242425934Y-58037994D02*
G01*
X242437377Y-58046156D01*
X242433599Y-58063920D01*
X242417539Y-58079684D01*
X242377135Y-58115607D01*
X242335585Y-58165155D01*
X242296424Y-58222210D01*
X242263193Y-58280657D01*
X242239427Y-58334377D01*
X242228665Y-58377253D01*
X242232149Y-58400236D01*
X242248237Y-58408900D01*
X242266385Y-58393797D01*
X242282618Y-58359948D01*
X242291066Y-58325760D01*
X242301236Y-58289285D01*
X242314635Y-58269158D01*
X242318746Y-58267776D01*
X242343687Y-58279323D01*
X242375478Y-58308422D01*
X242406958Y-58346758D01*
X242430971Y-58386016D01*
X242439046Y-58407498D01*
X242454174Y-58455292D01*
X242470035Y-58492413D01*
X242479912Y-58516169D01*
X242480031Y-58537516D01*
X242468097Y-58564875D01*
X242441816Y-58606667D01*
X242436870Y-58614135D01*
X242391799Y-58675163D01*
X242355764Y-58708642D01*
X242328373Y-58714888D01*
X242318661Y-58708797D01*
X242296891Y-58701878D01*
X242267350Y-58705414D01*
X242244272Y-58716416D01*
X242239447Y-58725427D01*
X242252172Y-58735496D01*
X242279893Y-58740422D01*
X242305140Y-58742427D01*
X242302381Y-58745575D01*
X242287246Y-58748798D01*
X242260416Y-58764096D01*
X242254154Y-58790918D01*
X242245279Y-58820113D01*
X242221374Y-58825058D01*
X242201225Y-58815408D01*
X242186813Y-58790695D01*
X242189005Y-58757293D01*
X242206754Y-58730040D01*
X242207291Y-58729637D01*
X242220858Y-58712331D01*
X242218857Y-58686942D01*
X242254154Y-58686942D01*
X242261508Y-58694296D01*
X242268862Y-58686942D01*
X242261508Y-58679589D01*
X242254154Y-58686942D01*
X242218857Y-58686942D01*
X242218716Y-58685153D01*
X242213019Y-58667130D01*
X242208302Y-58650173D01*
X242239447Y-58650173D01*
X242244465Y-58664499D01*
X242245932Y-58664881D01*
X242258489Y-58654575D01*
X242261508Y-58650173D01*
X242260342Y-58636621D01*
X242255022Y-58635466D01*
X242240045Y-58646142D01*
X242239447Y-58650173D01*
X242208302Y-58650173D01*
X242204123Y-58635148D01*
X242208679Y-58622330D01*
X242218150Y-58620758D01*
X242237181Y-58609976D01*
X242239447Y-58601244D01*
X242228490Y-58588100D01*
X242193793Y-58588432D01*
X242192995Y-58588548D01*
X242146542Y-58595365D01*
X242148195Y-58554574D01*
X242239447Y-58554574D01*
X242246800Y-58561928D01*
X242254154Y-58554574D01*
X242246800Y-58547220D01*
X242239447Y-58554574D01*
X242148195Y-58554574D01*
X242149021Y-58534182D01*
X242268862Y-58534182D01*
X242280938Y-58544370D01*
X242309068Y-58546341D01*
X242341110Y-58540246D01*
X242356681Y-58533087D01*
X242371731Y-58518527D01*
X242371389Y-58512994D01*
X242352380Y-58509621D01*
X242320663Y-58513300D01*
X242288993Y-58521395D01*
X242270121Y-58531271D01*
X242268862Y-58534182D01*
X242149021Y-58534182D01*
X242155313Y-58378906D01*
X242159998Y-58283559D01*
X242166285Y-58212630D01*
X242175799Y-58161121D01*
X242190167Y-58124035D01*
X242211013Y-58096372D01*
X242239962Y-58073137D01*
X242258630Y-58061223D01*
X242297761Y-58044908D01*
X242345338Y-58035038D01*
X242391388Y-58032453D01*
X242425934Y-58037994D01*
G37*
G36*
X243795726Y-51452425D02*
G01*
X243873184Y-51458146D01*
X243935031Y-51469284D01*
X243988102Y-51487152D01*
X244039234Y-51513062D01*
X244048480Y-51518513D01*
X244073790Y-51531969D01*
X244114940Y-51552226D01*
X244144867Y-51566405D01*
X244233472Y-51618137D01*
X244303869Y-51680531D01*
X244353248Y-51749764D01*
X244378797Y-51822013D01*
X244379320Y-51885157D01*
X244376155Y-51917312D01*
X244380089Y-51948446D01*
X244393395Y-51986339D01*
X244418349Y-52038770D01*
X244431997Y-52065354D01*
X244467556Y-52130369D01*
X244506181Y-52195482D01*
X244540845Y-52248970D01*
X244548489Y-52259727D01*
X244592808Y-52328020D01*
X244623931Y-52391925D01*
X244639745Y-52445937D01*
X244638136Y-52484547D01*
X244636320Y-52488561D01*
X244622862Y-52534868D01*
X244631263Y-52575206D01*
X244643750Y-52590327D01*
X244657135Y-52606385D01*
X244654647Y-52627114D01*
X244643750Y-52650228D01*
X244624202Y-52711669D01*
X244631683Y-52766024D01*
X244644605Y-52788335D01*
X244661650Y-52819004D01*
X244666198Y-52837855D01*
X244676115Y-52859250D01*
X244701562Y-52891554D01*
X244723343Y-52914284D01*
X244760409Y-52957401D01*
X244789762Y-53004030D01*
X244798523Y-53024389D01*
X244808529Y-53063273D01*
X244804117Y-53091349D01*
X244783057Y-53124352D01*
X244749555Y-53169665D01*
X244783273Y-53228250D01*
X244795667Y-53251018D01*
X244804334Y-53272781D01*
X244809676Y-53298755D01*
X244812096Y-53334152D01*
X244811996Y-53384186D01*
X244809779Y-53454070D01*
X244806626Y-53530722D01*
X244800267Y-53647534D01*
X244792357Y-53735236D01*
X244782909Y-53793729D01*
X244775289Y-53817442D01*
X244761974Y-53847568D01*
X244757851Y-53863120D01*
X244758057Y-53863434D01*
X244798927Y-53887325D01*
X244859172Y-53909842D01*
X244928807Y-53927809D01*
X244990552Y-53937396D01*
X245062730Y-53947159D01*
X245139973Y-53961745D01*
X245195625Y-53975340D01*
X245254082Y-53989717D01*
X245309548Y-53999587D01*
X245344040Y-54002576D01*
X245390677Y-54007104D01*
X245446653Y-54018525D01*
X245469101Y-54024765D01*
X245509568Y-54035716D01*
X245571532Y-54050676D01*
X245647635Y-54067947D01*
X245730519Y-54085830D01*
X245761368Y-54092248D01*
X245861694Y-54113730D01*
X245939351Y-54133172D01*
X246000696Y-54153323D01*
X246052084Y-54176930D01*
X246099870Y-54206742D01*
X246150409Y-54245506D01*
X246187298Y-54276424D01*
X246246434Y-54329463D01*
X246286140Y-54373631D01*
X246311135Y-54416860D01*
X246326135Y-54467079D01*
X246334974Y-54524696D01*
X246349470Y-54597057D01*
X246376549Y-54687938D01*
X246413472Y-54790745D01*
X246457499Y-54898887D01*
X246505891Y-55005773D01*
X246555909Y-55104812D01*
X246604815Y-55189412D01*
X246622228Y-55215952D01*
X246655494Y-55266390D01*
X246690803Y-55322636D01*
X246701868Y-55340967D01*
X246735387Y-55394497D01*
X246772329Y-55449476D01*
X246784084Y-55465981D01*
X246827549Y-55538746D01*
X246868358Y-55630835D01*
X246902752Y-55732177D01*
X246926974Y-55832702D01*
X246931779Y-55861772D01*
X246949081Y-55954506D01*
X246971157Y-56021453D01*
X246999584Y-56066067D01*
X247035940Y-56091801D01*
X247037056Y-56092270D01*
X247112956Y-56137251D01*
X247168815Y-56202544D01*
X247183224Y-56228489D01*
X247230978Y-56304865D01*
X247284316Y-56356013D01*
X247338284Y-56379321D01*
X247379891Y-56395293D01*
X247419327Y-56428984D01*
X247459177Y-56483564D01*
X247502027Y-56562206D01*
X247522593Y-56605455D01*
X247580874Y-56712907D01*
X247650592Y-56803339D01*
X247664949Y-56818715D01*
X247717917Y-56879169D01*
X247752882Y-56933459D01*
X247776272Y-56991424D01*
X247804023Y-57058433D01*
X247838917Y-57099125D01*
X247884746Y-57116405D01*
X247936983Y-57114576D01*
X247977735Y-57108508D01*
X248037962Y-57099812D01*
X248107998Y-57089874D01*
X248150056Y-57083984D01*
X248217368Y-57073019D01*
X248276561Y-57060491D01*
X248319708Y-57048230D01*
X248335594Y-57041141D01*
X248359538Y-57030920D01*
X248404463Y-57015973D01*
X248462741Y-56998423D01*
X248526748Y-56980394D01*
X248588856Y-56964011D01*
X248641440Y-56951397D01*
X248676874Y-56944677D01*
X248683995Y-56944109D01*
X248707821Y-56956784D01*
X248728766Y-56987479D01*
X248739799Y-57025093D01*
X248740199Y-57032878D01*
X248731578Y-57065486D01*
X248710005Y-57105366D01*
X248681914Y-57143552D01*
X248653739Y-57171081D01*
X248635012Y-57179415D01*
X248614476Y-57185555D01*
X248578492Y-57201093D01*
X248559321Y-57210376D01*
X248498693Y-57231841D01*
X248421116Y-57246170D01*
X248390971Y-57249074D01*
X248330639Y-57255181D01*
X248290801Y-57264667D01*
X248262543Y-57280304D01*
X248247572Y-57293657D01*
X248222995Y-57321037D01*
X248210968Y-57339939D01*
X248210726Y-57341430D01*
X248220064Y-57357360D01*
X248244082Y-57386702D01*
X248265880Y-57410624D01*
X248302504Y-57452881D01*
X248333625Y-57494829D01*
X248344394Y-57512400D01*
X248371199Y-57545084D01*
X248416756Y-57573024D01*
X248454701Y-57588993D01*
X248511521Y-57613051D01*
X248565785Y-57639977D01*
X248594276Y-57656666D01*
X248630268Y-57677926D01*
X248684303Y-57706998D01*
X248747740Y-57739313D01*
X248787021Y-57758506D01*
X248856325Y-57792443D01*
X248903658Y-57818347D01*
X248933860Y-57840284D01*
X248951771Y-57862318D01*
X248962232Y-57888516D01*
X248967396Y-57910019D01*
X248971444Y-57938108D01*
X248964492Y-57956345D01*
X248940680Y-57972294D01*
X248907149Y-57987784D01*
X248851683Y-58005725D01*
X248795345Y-58008405D01*
X248732071Y-57994827D01*
X248655794Y-57963993D01*
X248603086Y-57937746D01*
X248551241Y-57912916D01*
X248506166Y-57895199D01*
X248471948Y-57885422D01*
X248452672Y-57884411D01*
X248452424Y-57892991D01*
X248475144Y-57911889D01*
X248529818Y-57954993D01*
X248557748Y-57993451D01*
X248560180Y-58031660D01*
X248538360Y-58074021D01*
X248525632Y-58090157D01*
X248479831Y-58126421D01*
X248429381Y-58136826D01*
X248380801Y-58121049D01*
X248355053Y-58098639D01*
X248324442Y-58072144D01*
X248296636Y-58061478D01*
X248278401Y-58067187D01*
X248276501Y-58089818D01*
X248277245Y-58092339D01*
X248275458Y-58127670D01*
X248251802Y-58157930D01*
X248213782Y-58179624D01*
X248168903Y-58189258D01*
X248124669Y-58183337D01*
X248104312Y-58172879D01*
X248074033Y-58155573D01*
X248050375Y-58155048D01*
X248028461Y-58174393D01*
X248003417Y-58216699D01*
X247988852Y-58246068D01*
X247959843Y-58295709D01*
X247920961Y-58348366D01*
X247877577Y-58398237D01*
X247835063Y-58439522D01*
X247798791Y-58466420D01*
X247778072Y-58473682D01*
X247743447Y-58464433D01*
X247697587Y-58440787D01*
X247650303Y-58408895D01*
X247611406Y-58374910D01*
X247600630Y-58362421D01*
X247563271Y-58324632D01*
X247514143Y-58288479D01*
X247492820Y-58276299D01*
X247447901Y-58251123D01*
X247389785Y-58215467D01*
X247329195Y-58175967D01*
X247313564Y-58165340D01*
X247251526Y-58123023D01*
X247186852Y-58079400D01*
X247131666Y-58042640D01*
X247122365Y-58036523D01*
X247072286Y-57999508D01*
X247013996Y-57950234D01*
X246958862Y-57898395D01*
X246950902Y-57890314D01*
X246908811Y-57848605D01*
X246873501Y-57816542D01*
X246850474Y-57798999D01*
X246845762Y-57797133D01*
X246827971Y-57787226D01*
X246797275Y-57761820D01*
X246760323Y-57727393D01*
X246723766Y-57690420D01*
X246694254Y-57657378D01*
X246678436Y-57634742D01*
X246678047Y-57633802D01*
X246660359Y-57617885D01*
X246623408Y-57599397D01*
X246590146Y-57587260D01*
X246509112Y-57550752D01*
X246453503Y-57499982D01*
X246422623Y-57434211D01*
X246417044Y-57403579D01*
X246409021Y-57358697D01*
X246395994Y-57335989D01*
X246379632Y-57328962D01*
X246335244Y-57315358D01*
X246278793Y-57290294D01*
X246218747Y-57258481D01*
X246163574Y-57224628D01*
X246121739Y-57193445D01*
X246105413Y-57176425D01*
X246073826Y-57132065D01*
X246105540Y-57041756D01*
X246126788Y-56974897D01*
X246135369Y-56927497D01*
X246131654Y-56892649D01*
X246116014Y-56863446D01*
X246115175Y-56862336D01*
X246097137Y-56843507D01*
X246084162Y-56848333D01*
X246078631Y-56855848D01*
X246071199Y-56882374D01*
X246066212Y-56931563D01*
X246063576Y-56996771D01*
X246063198Y-57071356D01*
X246064983Y-57148673D01*
X246068838Y-57222081D01*
X246074670Y-57284937D01*
X246082384Y-57330597D01*
X246085480Y-57341198D01*
X246097931Y-57395839D01*
X246105576Y-57472093D01*
X246107685Y-57545277D01*
X246108987Y-57617962D01*
X246113793Y-57670965D01*
X246123720Y-57713957D01*
X246140381Y-57756610D01*
X246144454Y-57765502D01*
X246164993Y-57818498D01*
X246178283Y-57869825D01*
X246181080Y-57895420D01*
X246188197Y-57967004D01*
X246208465Y-58058978D01*
X246240260Y-58166296D01*
X246281956Y-58283912D01*
X246331928Y-58406781D01*
X246379156Y-58510451D01*
X246407350Y-58570406D01*
X246431213Y-58623263D01*
X246447413Y-58661533D01*
X246451984Y-58674095D01*
X246466426Y-58734119D01*
X246480539Y-58812783D01*
X246492845Y-58899338D01*
X246501869Y-58983032D01*
X246506133Y-59053113D01*
X246506269Y-59069340D01*
X246508417Y-59136005D01*
X246514953Y-59215321D01*
X246524511Y-59291090D01*
X246525493Y-59297307D01*
X246529687Y-59329529D01*
X246533267Y-59371616D01*
X246536265Y-59425620D01*
X246538715Y-59493596D01*
X246540650Y-59577597D01*
X246542102Y-59679675D01*
X246543104Y-59801885D01*
X246543689Y-59946279D01*
X246543891Y-60114911D01*
X246543742Y-60309834D01*
X246543536Y-60422437D01*
X246543134Y-60618190D01*
X246542858Y-60786739D01*
X246542771Y-60930296D01*
X246542933Y-61051072D01*
X246543408Y-61151281D01*
X246544255Y-61233132D01*
X246545537Y-61298838D01*
X246547315Y-61350610D01*
X246549651Y-61390660D01*
X246552606Y-61421200D01*
X246556242Y-61444441D01*
X246560621Y-61462595D01*
X246565803Y-61477873D01*
X246571851Y-61492487D01*
X246573416Y-61496091D01*
X246590869Y-61546890D01*
X246607700Y-61613831D01*
X246620677Y-61683758D01*
X246622220Y-61694644D01*
X246630930Y-61759474D01*
X246638991Y-61819524D01*
X246644944Y-61863927D01*
X246645909Y-61871135D01*
X246652186Y-61911462D01*
X246662142Y-61968565D01*
X246673671Y-62030378D01*
X246674162Y-62032918D01*
X246687841Y-62103913D01*
X246703672Y-62186634D01*
X246718367Y-62263896D01*
X246719189Y-62268239D01*
X246733290Y-62341406D01*
X246748476Y-62418109D01*
X246761700Y-62482981D01*
X246762929Y-62488853D01*
X246772707Y-62551230D01*
X246780014Y-62627811D01*
X246783456Y-62703403D01*
X246783550Y-62713144D01*
X246784091Y-62841835D01*
X246745941Y-62841835D01*
X246723467Y-62840192D01*
X246713593Y-62830226D01*
X246713338Y-62804384D01*
X246717653Y-62770139D01*
X246719022Y-62721638D01*
X246713952Y-62649937D01*
X246703176Y-62560364D01*
X246687423Y-62458250D01*
X246667423Y-62348922D01*
X246645819Y-62246178D01*
X246600766Y-62042406D01*
X246562910Y-61863876D01*
X246531880Y-61707404D01*
X246507305Y-61569805D01*
X246488814Y-61447897D01*
X246476036Y-61338495D01*
X246468600Y-61238416D01*
X246466137Y-61144476D01*
X246468274Y-61053492D01*
X246474641Y-60962279D01*
X246484868Y-60867654D01*
X246485072Y-60866008D01*
X246486602Y-60839169D01*
X246488033Y-60786095D01*
X246489331Y-60709965D01*
X246490467Y-60613959D01*
X246491406Y-60501258D01*
X246492119Y-60375040D01*
X246492572Y-60238485D01*
X246492735Y-60098871D01*
X246492583Y-59925248D01*
X246492030Y-59777977D01*
X246490992Y-59653998D01*
X246489385Y-59550247D01*
X246487123Y-59463665D01*
X246484122Y-59391190D01*
X246480298Y-59329760D01*
X246475567Y-59276314D01*
X246469843Y-59227791D01*
X246468407Y-59217221D01*
X246458442Y-59148294D01*
X246449315Y-59090262D01*
X246442034Y-59049200D01*
X246437604Y-59031182D01*
X246437586Y-59031153D01*
X246433300Y-59012742D01*
X246427283Y-58972323D01*
X246420565Y-58917176D01*
X246417658Y-58890172D01*
X246410336Y-58832644D01*
X246399813Y-58780148D01*
X246383861Y-58725353D01*
X246360250Y-58660928D01*
X246326750Y-58579542D01*
X246314444Y-58550734D01*
X246280436Y-58468451D01*
X246250276Y-58387793D01*
X246221952Y-58302403D01*
X246193457Y-58205929D01*
X246162781Y-58092013D01*
X246135542Y-57984945D01*
X246110390Y-57882356D01*
X246087466Y-57785178D01*
X246067864Y-57698339D01*
X246052676Y-57626768D01*
X246042994Y-57575390D01*
X246040109Y-57554458D01*
X246038186Y-57519295D01*
X246036108Y-57459754D01*
X246034001Y-57380869D01*
X246031988Y-57287677D01*
X246030194Y-57185214D01*
X246029138Y-57110905D01*
X246024399Y-56740890D01*
X246124800Y-56830782D01*
X246168914Y-56871463D01*
X246203155Y-56905296D01*
X246222585Y-56927289D01*
X246225202Y-56932256D01*
X246216919Y-56949389D01*
X246195509Y-56981644D01*
X246173726Y-57011277D01*
X246135993Y-57072348D01*
X246124109Y-57124519D01*
X246138844Y-57169308D01*
X246180971Y-57208232D01*
X246251261Y-57242807D01*
X246300250Y-57259904D01*
X246359504Y-57277292D01*
X246411949Y-57290329D01*
X246448272Y-57296762D01*
X246453929Y-57297075D01*
X246476654Y-57300177D01*
X246487146Y-57314848D01*
X246490067Y-57349133D01*
X246490156Y-57359583D01*
X246495370Y-57417802D01*
X246513742Y-57461997D01*
X246550068Y-57498635D01*
X246609144Y-57534181D01*
X246625905Y-57542613D01*
X246704279Y-57588675D01*
X246753680Y-57635595D01*
X246758274Y-57642197D01*
X246787343Y-57679233D01*
X246817136Y-57706367D01*
X246822660Y-57709776D01*
X246848929Y-57730151D01*
X246884014Y-57765147D01*
X246910062Y-57794937D01*
X246947462Y-57837909D01*
X246983784Y-57875569D01*
X247002748Y-57892733D01*
X247033755Y-57917651D01*
X247077315Y-57952572D01*
X247115680Y-57983281D01*
X247168220Y-58021137D01*
X247233676Y-58062545D01*
X247298233Y-58098783D01*
X247300638Y-58100021D01*
X247374446Y-58144180D01*
X247454480Y-58202510D01*
X247521394Y-58259501D01*
X247577742Y-58308872D01*
X247635651Y-58355009D01*
X247686205Y-58390988D01*
X247706654Y-58403398D01*
X247779682Y-58443421D01*
X247870190Y-58357031D01*
X247913199Y-58312388D01*
X247944169Y-58273249D01*
X247960972Y-58243434D01*
X247961479Y-58226765D01*
X247943564Y-58227060D01*
X247942313Y-58227525D01*
X247918070Y-58228219D01*
X247873179Y-58222704D01*
X247815351Y-58212583D01*
X247752298Y-58199458D01*
X247691730Y-58184930D01*
X247641358Y-58170602D01*
X247609466Y-58158374D01*
X247544316Y-58116235D01*
X247487938Y-58064361D01*
X247450975Y-58013279D01*
X247438126Y-57964445D01*
X247436474Y-57894387D01*
X247444901Y-57808594D01*
X247462292Y-57712557D01*
X247487530Y-57611765D01*
X247519499Y-57511708D01*
X247557083Y-57417877D01*
X247582763Y-57365145D01*
X247603634Y-57328113D01*
X247625452Y-57297139D01*
X247653122Y-57267411D01*
X247691548Y-57234115D01*
X247745633Y-57192441D01*
X247798465Y-57153492D01*
X247792565Y-57142361D01*
X247769453Y-57120621D01*
X247758859Y-57112045D01*
X247725277Y-57077608D01*
X247707157Y-57033795D01*
X247701979Y-57006496D01*
X247692194Y-56964385D01*
X247673514Y-56926851D01*
X247640623Y-56884847D01*
X247612772Y-56854695D01*
X247560384Y-56793364D01*
X247524223Y-56732787D01*
X247499121Y-56669686D01*
X247464344Y-56576176D01*
X247430739Y-56507330D01*
X247394901Y-56458752D01*
X247353429Y-56426050D01*
X247302919Y-56404828D01*
X247291502Y-56401593D01*
X247235000Y-56381448D01*
X247191917Y-56356309D01*
X247168736Y-56330368D01*
X247166488Y-56320709D01*
X247155940Y-56287939D01*
X247128031Y-56243719D01*
X247088366Y-56194981D01*
X247042546Y-56148658D01*
X246999171Y-56113715D01*
X246958561Y-56084655D01*
X246933768Y-56060643D01*
X246919033Y-56032213D01*
X246908598Y-55989901D01*
X246902033Y-55954071D01*
X246880067Y-55853062D01*
X246850744Y-55750320D01*
X246817176Y-55655361D01*
X246782475Y-55577703D01*
X246773686Y-55561580D01*
X246750766Y-55523566D01*
X246716092Y-55468389D01*
X246674291Y-55403321D01*
X246629988Y-55335632D01*
X246628096Y-55332771D01*
X246522403Y-55162545D01*
X246440894Y-55007768D01*
X246383192Y-54867702D01*
X246372028Y-54833555D01*
X246340587Y-54731999D01*
X246315778Y-54653450D01*
X246295813Y-54592729D01*
X246278903Y-54544661D01*
X246263259Y-54504066D01*
X246247092Y-54465769D01*
X246237462Y-54444104D01*
X246210898Y-54390372D01*
X246183385Y-54343070D01*
X246162086Y-54313913D01*
X246132614Y-54290117D01*
X246085827Y-54260542D01*
X246029549Y-54229237D01*
X245971603Y-54200251D01*
X245919812Y-54177631D01*
X245881998Y-54165426D01*
X245873091Y-54164360D01*
X245842827Y-54159105D01*
X245798330Y-54145719D01*
X245772439Y-54136195D01*
X245731027Y-54123585D01*
X245668329Y-54109034D01*
X245592257Y-54094190D01*
X245510720Y-54080700D01*
X245495202Y-54078418D01*
X245405876Y-54064228D01*
X245313110Y-54047239D01*
X245227637Y-54029545D01*
X245160191Y-54013238D01*
X245157977Y-54012633D01*
X245080293Y-53992136D01*
X244995090Y-53971019D01*
X244918854Y-53953347D01*
X244908004Y-53950985D01*
X244831662Y-53931174D01*
X244776677Y-53908109D01*
X244738866Y-53881913D01*
X244712785Y-53858304D01*
X244702752Y-53846754D01*
X244705628Y-53847148D01*
X244727192Y-53846196D01*
X244732234Y-53841033D01*
X244732596Y-53828184D01*
X244716717Y-53827045D01*
X244694688Y-53836214D01*
X244680906Y-53848147D01*
X244671061Y-53866422D01*
X244679105Y-53870208D01*
X244696413Y-53874707D01*
X244687544Y-53887355D01*
X244654187Y-53906878D01*
X244598031Y-53932004D01*
X244596156Y-53932772D01*
X244535334Y-53957706D01*
X244496939Y-53976509D01*
X244476642Y-53995274D01*
X244470115Y-54020095D01*
X244473030Y-54057064D01*
X244478996Y-54097719D01*
X244486534Y-54211521D01*
X244479657Y-54347622D01*
X244479645Y-54347748D01*
X244473617Y-54457762D01*
X244474100Y-54587316D01*
X244480807Y-54727332D01*
X244493451Y-54868730D01*
X244497077Y-54899739D01*
X244499423Y-54951632D01*
X244497289Y-55032378D01*
X244490670Y-55142016D01*
X244479563Y-55280584D01*
X244463966Y-55448122D01*
X244443876Y-55644668D01*
X244430836Y-55765820D01*
X244419421Y-55875818D01*
X244407197Y-56002978D01*
X244395280Y-56135110D01*
X244384784Y-56260024D01*
X244379760Y-56324709D01*
X244371238Y-56433984D01*
X244361403Y-56552103D01*
X244351156Y-56668725D01*
X244341399Y-56773512D01*
X244335393Y-56833787D01*
X244325146Y-56935204D01*
X244314054Y-57049051D01*
X244303440Y-57161518D01*
X244294629Y-57258795D01*
X244294497Y-57260307D01*
X244287037Y-57341988D01*
X244280711Y-57398914D01*
X244274459Y-57435663D01*
X244267222Y-57456813D01*
X244257941Y-57466942D01*
X244245853Y-57470585D01*
X244227456Y-57468060D01*
X244209815Y-57451431D01*
X244188966Y-57415732D01*
X244169540Y-57374986D01*
X244119842Y-57264259D01*
X244072296Y-57154478D01*
X244028406Y-57049457D01*
X243989678Y-56953009D01*
X243957617Y-56868951D01*
X243933727Y-56801095D01*
X243919515Y-56753256D01*
X243916111Y-56732719D01*
X243909661Y-56692312D01*
X243894050Y-56674038D01*
X243877331Y-56652028D01*
X243871989Y-56606281D01*
X243868617Y-56565702D01*
X243857116Y-56548523D01*
X243849118Y-56546989D01*
X243840402Y-56544912D01*
X243830797Y-56536860D01*
X243818990Y-56520102D01*
X243803668Y-56491908D01*
X243783519Y-56449547D01*
X243757230Y-56390288D01*
X243723488Y-56311400D01*
X243680982Y-56210152D01*
X243640572Y-56113115D01*
X243586218Y-55980711D01*
X243530032Y-55840872D01*
X243473262Y-55696936D01*
X243417153Y-55552242D01*
X243362953Y-55410129D01*
X243361837Y-55407151D01*
X243886696Y-55407151D01*
X243894050Y-55414505D01*
X243901404Y-55407151D01*
X243894050Y-55399797D01*
X243886696Y-55407151D01*
X243361837Y-55407151D01*
X243311908Y-55273933D01*
X243265265Y-55146995D01*
X243224271Y-55032652D01*
X243206291Y-54980763D01*
X243862167Y-54980763D01*
X243863251Y-54999015D01*
X243866967Y-55043616D01*
X243869776Y-55079461D01*
X243869985Y-55082358D01*
X243874060Y-55104162D01*
X243880295Y-55100156D01*
X243887350Y-55073736D01*
X243893885Y-55028299D01*
X243894791Y-55019510D01*
X243897570Y-54973761D01*
X243893522Y-54950634D01*
X243881456Y-54943883D01*
X243880363Y-54943862D01*
X243865921Y-54952144D01*
X243862167Y-54980763D01*
X243206291Y-54980763D01*
X243190172Y-54934242D01*
X243164215Y-54855105D01*
X243147647Y-54798577D01*
X243144036Y-54783547D01*
X243138714Y-54750846D01*
X243143980Y-54740012D01*
X243159013Y-54743406D01*
X243171258Y-54748134D01*
X243176947Y-54748235D01*
X243173904Y-54739615D01*
X243172574Y-54737572D01*
X243794394Y-54737572D01*
X243805908Y-54787087D01*
X243808310Y-54793109D01*
X243829361Y-54829984D01*
X243853270Y-54838769D01*
X243884464Y-54820748D01*
X243889215Y-54816568D01*
X243912655Y-54780838D01*
X243915247Y-54742303D01*
X243900135Y-54709159D01*
X243870464Y-54689604D01*
X243840230Y-54688849D01*
X243805652Y-54705422D01*
X243794394Y-54737572D01*
X243172574Y-54737572D01*
X243159952Y-54718182D01*
X243132915Y-54679845D01*
X243102627Y-54637375D01*
X243074829Y-54581075D01*
X243921014Y-54581075D01*
X243923033Y-54589818D01*
X243930819Y-54590880D01*
X243942925Y-54585499D01*
X243940624Y-54581075D01*
X243923170Y-54579315D01*
X243921014Y-54581075D01*
X243074829Y-54581075D01*
X243064471Y-54560097D01*
X243057963Y-54532049D01*
X243791097Y-54532049D01*
X243796889Y-54542426D01*
X243825637Y-54546745D01*
X243827662Y-54546757D01*
X243872836Y-54535656D01*
X243936766Y-54502495D01*
X243979844Y-54474873D01*
X244042824Y-54428092D01*
X244108489Y-54372508D01*
X244163356Y-54319587D01*
X244166701Y-54316001D01*
X244214169Y-54260080D01*
X244256648Y-54201823D01*
X244290871Y-54146716D01*
X244313570Y-54100246D01*
X244321476Y-54067901D01*
X244319429Y-54059561D01*
X244306334Y-54053721D01*
X244295743Y-54066872D01*
X244275954Y-54087323D01*
X244264686Y-54091004D01*
X244246285Y-54102473D01*
X244221753Y-54130909D01*
X244213805Y-54142480D01*
X244196845Y-54173707D01*
X244193295Y-54191887D01*
X244196288Y-54193775D01*
X244205126Y-54202810D01*
X244202761Y-54208722D01*
X244185135Y-54217207D01*
X244179832Y-54215208D01*
X244166966Y-54215880D01*
X244166140Y-54219837D01*
X244154560Y-54235549D01*
X244129371Y-54252605D01*
X244102525Y-54271987D01*
X244092446Y-54288183D01*
X244081219Y-54307869D01*
X244051624Y-54339607D01*
X244009430Y-54378634D01*
X243960406Y-54420194D01*
X243910323Y-54459524D01*
X243864951Y-54491866D01*
X243830059Y-54512460D01*
X243814654Y-54517342D01*
X243794104Y-54528063D01*
X243791097Y-54532049D01*
X243057963Y-54532049D01*
X243047244Y-54485851D01*
X243040326Y-54423549D01*
X243035946Y-54349828D01*
X243033960Y-54269997D01*
X243034229Y-54189367D01*
X243036610Y-54113248D01*
X243040962Y-54046949D01*
X243047144Y-53995782D01*
X243055014Y-53965055D01*
X243061289Y-53958547D01*
X243075680Y-53971996D01*
X243101110Y-54011544D01*
X243137018Y-54076259D01*
X243169883Y-54139556D01*
X243197562Y-54184448D01*
X243233474Y-54229648D01*
X243273318Y-54271468D01*
X243312797Y-54306215D01*
X243347614Y-54330199D01*
X243373469Y-54339730D01*
X243386065Y-54331116D01*
X243386638Y-54325682D01*
X243374885Y-54307771D01*
X243364577Y-54302047D01*
X243345591Y-54281900D01*
X243342516Y-54267455D01*
X243331954Y-54246908D01*
X243421109Y-54246908D01*
X243423407Y-54252605D01*
X243436624Y-54266636D01*
X243438983Y-54267313D01*
X243445300Y-54255934D01*
X243445469Y-54252605D01*
X243434162Y-54238463D01*
X243429893Y-54237898D01*
X243421109Y-54246908D01*
X243331954Y-54246908D01*
X243330103Y-54243308D01*
X243311621Y-54233249D01*
X243291553Y-54220001D01*
X243294913Y-54203766D01*
X243318490Y-54194033D01*
X243324999Y-54193702D01*
X243335623Y-54188908D01*
X243323097Y-54172917D01*
X243307051Y-54159367D01*
X243278677Y-54130719D01*
X243276670Y-54117663D01*
X243298684Y-54117663D01*
X243308794Y-54132824D01*
X243319993Y-54134945D01*
X243334836Y-54125185D01*
X243333159Y-54112968D01*
X243319315Y-54098033D01*
X243311559Y-54099128D01*
X243298684Y-54117663D01*
X243276670Y-54117663D01*
X243275254Y-54108457D01*
X243277411Y-54104287D01*
X243289182Y-54079989D01*
X243290814Y-54072437D01*
X243297137Y-54059995D01*
X243318045Y-54065624D01*
X243346931Y-54082895D01*
X243374302Y-54107981D01*
X243380261Y-54130346D01*
X243380189Y-54130537D01*
X243381395Y-54154135D01*
X243394041Y-54183402D01*
X243411821Y-54207768D01*
X243428430Y-54216661D01*
X243430989Y-54215695D01*
X243437310Y-54197510D01*
X243435062Y-54179218D01*
X243423798Y-54159134D01*
X243414381Y-54158039D01*
X243402103Y-54155270D01*
X243401346Y-54150520D01*
X243412643Y-54135572D01*
X243417045Y-54134945D01*
X243424260Y-54123714D01*
X243421701Y-54098605D01*
X243411818Y-54072492D01*
X243403040Y-54061407D01*
X243397911Y-54046699D01*
X243666082Y-54046699D01*
X243677995Y-54059747D01*
X243688144Y-54061407D01*
X243707716Y-54053465D01*
X243710205Y-54046699D01*
X243698293Y-54033651D01*
X243688144Y-54031992D01*
X243668571Y-54039933D01*
X243666082Y-54046699D01*
X243397911Y-54046699D01*
X243395821Y-54040706D01*
X243395738Y-54006164D01*
X243402171Y-53972310D01*
X243407343Y-53960649D01*
X243412548Y-53935836D01*
X243412807Y-53893558D01*
X243410518Y-53865419D01*
X243404226Y-53807168D01*
X243397222Y-53738129D01*
X243392966Y-53693904D01*
X243386980Y-53642402D01*
X243384545Y-53628078D01*
X243410425Y-53628078D01*
X243414483Y-53641270D01*
X243425976Y-53661787D01*
X243430761Y-53696998D01*
X243430761Y-53697028D01*
X243431853Y-53720978D01*
X243437754Y-53741309D01*
X243452405Y-53764099D01*
X243479745Y-53795426D01*
X243523713Y-53841367D01*
X243525533Y-53843244D01*
X243555809Y-53879254D01*
X243574693Y-53910943D01*
X243577837Y-53922977D01*
X243591041Y-53961750D01*
X243624843Y-53990731D01*
X243670526Y-54002563D01*
X243672117Y-54002576D01*
X243704476Y-53998297D01*
X243722889Y-53979778D01*
X243731394Y-53957534D01*
X243757086Y-53957534D01*
X243761100Y-53971209D01*
X243769955Y-53970404D01*
X243792244Y-53951782D01*
X243795693Y-53944665D01*
X243791678Y-53930991D01*
X243782824Y-53931796D01*
X243760535Y-53950417D01*
X243757086Y-53957534D01*
X243731394Y-53957534D01*
X243733706Y-53951488D01*
X243742207Y-53914721D01*
X243735650Y-53890369D01*
X243715301Y-53868087D01*
X243689096Y-53848619D01*
X243671864Y-53844953D01*
X243671171Y-53845510D01*
X243653609Y-53847531D01*
X243635242Y-53829791D01*
X243623311Y-53800822D01*
X243621960Y-53787516D01*
X243613957Y-53759296D01*
X243599898Y-53752547D01*
X243580341Y-53743697D01*
X243577837Y-53736119D01*
X243567946Y-53717968D01*
X243543275Y-53688477D01*
X243525475Y-53669963D01*
X244529161Y-53669963D01*
X244532582Y-53680250D01*
X244556861Y-53682461D01*
X244593675Y-53678879D01*
X244641922Y-53675516D01*
X244666957Y-53681596D01*
X244672374Y-53688598D01*
X244670572Y-53711093D01*
X244665516Y-53716200D01*
X244658601Y-53733696D01*
X244669474Y-53757086D01*
X244691209Y-53776316D01*
X244710838Y-53781963D01*
X244734455Y-53788220D01*
X244739736Y-53796670D01*
X244743280Y-53811001D01*
X244744307Y-53811378D01*
X244746547Y-53797871D01*
X244748303Y-53762152D01*
X244749246Y-53711423D01*
X244749303Y-53701463D01*
X244749729Y-53591548D01*
X244703521Y-53597464D01*
X244655890Y-53607627D01*
X244605670Y-53624498D01*
X244562008Y-53644273D01*
X244534048Y-53663150D01*
X244529161Y-53669963D01*
X243525475Y-53669963D01*
X243511327Y-53655247D01*
X243479605Y-53625882D01*
X243455612Y-53607985D01*
X243449129Y-53605697D01*
X243424777Y-53613083D01*
X243410425Y-53628078D01*
X243384545Y-53628078D01*
X243380161Y-53602294D01*
X243374544Y-53583597D01*
X243365222Y-53562123D01*
X243365121Y-53561349D01*
X243423407Y-53561349D01*
X243426741Y-53573940D01*
X243437247Y-53576056D01*
X243457370Y-53568378D01*
X243460176Y-53561349D01*
X243455658Y-53555234D01*
X244372047Y-53555234D01*
X244384695Y-53558104D01*
X244422017Y-53546826D01*
X244483079Y-53521721D01*
X244529540Y-53500705D01*
X244583296Y-53478772D01*
X244633048Y-53463481D01*
X244664893Y-53458396D01*
X244712070Y-53452430D01*
X244753205Y-53437264D01*
X244779242Y-53416995D01*
X244783859Y-53404558D01*
X244782483Y-53392558D01*
X244775016Y-53387195D01*
X244756450Y-53389260D01*
X244721778Y-53399544D01*
X244665993Y-53418837D01*
X244644016Y-53426634D01*
X244578786Y-53451321D01*
X244513939Y-53478430D01*
X244455208Y-53505248D01*
X244408329Y-53529066D01*
X244379033Y-53547171D01*
X244372047Y-53555234D01*
X243455658Y-53555234D01*
X243449620Y-53547062D01*
X243446337Y-53546641D01*
X243426418Y-53557332D01*
X243423407Y-53561349D01*
X243365121Y-53561349D01*
X243364802Y-53558898D01*
X243355700Y-53540399D01*
X243353546Y-53538062D01*
X243344093Y-53536239D01*
X243343756Y-53553177D01*
X243351953Y-53579866D01*
X243356914Y-53590186D01*
X243362230Y-53618578D01*
X243349560Y-53635143D01*
X243322617Y-53643297D01*
X243299463Y-53630103D01*
X243289478Y-53603090D01*
X243291698Y-53588688D01*
X243291295Y-53566007D01*
X243277323Y-53561349D01*
X243258522Y-53548746D01*
X243254270Y-53525772D01*
X243252827Y-53517226D01*
X243386638Y-53517226D01*
X243398488Y-53530418D01*
X243407832Y-53531934D01*
X243432872Y-53522970D01*
X243438115Y-53517226D01*
X243433612Y-53505650D01*
X243416921Y-53502518D01*
X243392555Y-53508519D01*
X243386638Y-53517226D01*
X243252827Y-53517226D01*
X243247769Y-53487259D01*
X243232209Y-53444880D01*
X243200805Y-53380070D01*
X243182071Y-53337635D01*
X243176161Y-53313329D01*
X243183228Y-53302907D01*
X243203425Y-53302124D01*
X243236906Y-53306735D01*
X243237199Y-53306778D01*
X243291039Y-53314668D01*
X243249749Y-53274847D01*
X243221236Y-53237298D01*
X243210555Y-53201458D01*
X243217441Y-53173989D01*
X243241626Y-53161552D01*
X243254270Y-53162002D01*
X243291374Y-53171570D01*
X243315696Y-53192618D01*
X243334985Y-53232885D01*
X243340277Y-53247882D01*
X243358357Y-53296628D01*
X243379725Y-53347832D01*
X243401017Y-53394208D01*
X243418870Y-53428468D01*
X243429919Y-53443325D01*
X243430556Y-53443463D01*
X243447273Y-53437370D01*
X243464308Y-53425390D01*
X243470967Y-53415814D01*
X243467929Y-53414498D01*
X243468788Y-53405799D01*
X243487402Y-53384039D01*
X243501021Y-53370979D01*
X243530601Y-53340892D01*
X243544474Y-53313808D01*
X243543584Y-53281061D01*
X243540376Y-53270792D01*
X244452938Y-53270792D01*
X244541561Y-53261284D01*
X244599162Y-53257606D01*
X244636634Y-53262275D01*
X244659222Y-53273726D01*
X244687512Y-53288749D01*
X244717219Y-53296341D01*
X244737044Y-53294299D01*
X244739736Y-53289427D01*
X244730908Y-53273623D01*
X244708934Y-53244854D01*
X244680578Y-53211804D01*
X244672370Y-53202917D01*
X244661522Y-53177601D01*
X244662565Y-53167790D01*
X244659566Y-53151638D01*
X244638090Y-53150207D01*
X244603681Y-53161242D01*
X244561884Y-53182488D01*
X244518243Y-53211690D01*
X244484928Y-53240034D01*
X244452938Y-53270792D01*
X243540376Y-53270792D01*
X243528876Y-53233984D01*
X243518800Y-53207842D01*
X243503857Y-53163756D01*
X243496925Y-53130279D01*
X243497971Y-53118461D01*
X243496675Y-53098393D01*
X243483857Y-53062275D01*
X243470945Y-53034962D01*
X243440617Y-52970691D01*
X243426002Y-52919764D01*
X243426005Y-52902233D01*
X243895735Y-52902233D01*
X243915570Y-52909865D01*
X243943574Y-52906210D01*
X243981662Y-52899247D01*
X244033090Y-52894122D01*
X244056383Y-52892918D01*
X244103099Y-52889272D01*
X244138767Y-52882824D01*
X244149142Y-52878862D01*
X244177055Y-52873188D01*
X244203069Y-52876172D01*
X244239888Y-52874379D01*
X244268418Y-52852722D01*
X244289888Y-52826445D01*
X244298509Y-52809692D01*
X244303253Y-52787867D01*
X244307467Y-52775616D01*
X244304819Y-52755861D01*
X244278276Y-52736350D01*
X244259667Y-52727584D01*
X244221240Y-52712640D01*
X244190758Y-52708351D01*
X244159418Y-52716377D01*
X244118419Y-52738379D01*
X244082289Y-52761044D01*
X244039411Y-52787218D01*
X244005902Y-52805384D01*
X243990492Y-52811262D01*
X243968612Y-52820330D01*
X243940157Y-52842189D01*
X243913478Y-52868825D01*
X243896923Y-52892222D01*
X243895735Y-52902233D01*
X243426005Y-52902233D01*
X243426010Y-52871382D01*
X243439555Y-52814745D01*
X243446579Y-52793088D01*
X243453015Y-52775419D01*
X243890162Y-52775419D01*
X243896595Y-52781063D01*
X243902270Y-52781379D01*
X243931569Y-52773314D01*
X243953746Y-52760253D01*
X243971476Y-52744151D01*
X243965042Y-52738508D01*
X243959368Y-52738192D01*
X243930069Y-52746257D01*
X243907892Y-52759318D01*
X243890162Y-52775419D01*
X243453015Y-52775419D01*
X243465032Y-52742432D01*
X243467774Y-52736009D01*
X244025231Y-52736009D01*
X244042769Y-52733849D01*
X244063187Y-52723016D01*
X244076970Y-52711594D01*
X244063723Y-52708584D01*
X244060378Y-52708534D01*
X244033785Y-52716029D01*
X244026418Y-52723016D01*
X244025231Y-52736009D01*
X243467774Y-52736009D01*
X243482474Y-52701568D01*
X243493985Y-52681058D01*
X243494647Y-52679184D01*
X244129551Y-52679184D01*
X244144444Y-52687759D01*
X244174608Y-52684407D01*
X244224772Y-52668389D01*
X244243355Y-52661416D01*
X244274736Y-52644381D01*
X244281465Y-52630915D01*
X244462874Y-52630915D01*
X244478781Y-52656442D01*
X244496968Y-52670127D01*
X244522536Y-52690406D01*
X244531996Y-52704910D01*
X244535205Y-52730960D01*
X244555524Y-52737724D01*
X244570060Y-52729579D01*
X244569871Y-52701365D01*
X244568765Y-52695462D01*
X244568356Y-52658753D01*
X244589107Y-52633105D01*
X244592472Y-52630675D01*
X244624632Y-52608149D01*
X244593973Y-52598419D01*
X244567430Y-52577724D01*
X244553696Y-52550367D01*
X244544078Y-52512047D01*
X244502185Y-52558933D01*
X244470583Y-52600370D01*
X244462874Y-52630915D01*
X244281465Y-52630915D01*
X244282294Y-52629257D01*
X244264846Y-52620673D01*
X244253913Y-52620063D01*
X244218343Y-52625409D01*
X244179886Y-52638641D01*
X244147398Y-52655550D01*
X244129734Y-52671924D01*
X244129551Y-52679184D01*
X243494647Y-52679184D01*
X243504336Y-52651762D01*
X243508397Y-52603532D01*
X243506828Y-52546018D01*
X243500290Y-52488869D01*
X243500220Y-52488563D01*
X244563245Y-52488563D01*
X244574463Y-52502007D01*
X244577953Y-52502403D01*
X244590860Y-52490431D01*
X244592660Y-52479473D01*
X244585530Y-52464250D01*
X244577953Y-52465634D01*
X244563806Y-52484437D01*
X244563245Y-52488563D01*
X243500220Y-52488563D01*
X243489444Y-52441735D01*
X243475786Y-52415060D01*
X243455215Y-52378778D01*
X243441544Y-52324211D01*
X243435994Y-52261936D01*
X243439788Y-52202529D01*
X243447606Y-52171109D01*
X243458585Y-52128418D01*
X243453424Y-52098606D01*
X243449734Y-52091954D01*
X243442272Y-52070921D01*
X243453650Y-52051499D01*
X243475980Y-52033275D01*
X243504593Y-52006612D01*
X243518696Y-51982667D01*
X243519007Y-51979843D01*
X243529127Y-51960590D01*
X243537530Y-51958222D01*
X243558919Y-51946952D01*
X243575102Y-51927721D01*
X243595801Y-51907210D01*
X243628878Y-51885235D01*
X243664637Y-51866958D01*
X243693376Y-51857545D01*
X243704144Y-51859012D01*
X243698838Y-51872039D01*
X243678501Y-51897028D01*
X243650305Y-51926655D01*
X243621428Y-51953592D01*
X243599043Y-51970514D01*
X243592577Y-51972930D01*
X243579105Y-51984660D01*
X243577837Y-51992630D01*
X243565780Y-52012333D01*
X243538831Y-52030103D01*
X243513259Y-52047502D01*
X243513864Y-52061915D01*
X243534909Y-52063163D01*
X243577546Y-52048879D01*
X243630085Y-52024488D01*
X243690969Y-51995053D01*
X243733194Y-51979071D01*
X243763666Y-51975447D01*
X243789292Y-51983085D01*
X243810072Y-51995956D01*
X243834684Y-52006966D01*
X243875052Y-52014835D01*
X243935691Y-52020150D01*
X244021116Y-52023494D01*
X244022928Y-52023541D01*
X244098313Y-52025261D01*
X244150167Y-52025264D01*
X244184366Y-52022584D01*
X244206785Y-52016254D01*
X244223299Y-52005308D01*
X244239783Y-51988781D01*
X244240778Y-51987721D01*
X244288903Y-51920700D01*
X244307650Y-51853174D01*
X244297041Y-51784484D01*
X244257102Y-51713975D01*
X244250979Y-51706155D01*
X244218288Y-51673935D01*
X244176097Y-51643614D01*
X244130569Y-51618054D01*
X244087865Y-51600117D01*
X244054148Y-51592666D01*
X244035578Y-51598565D01*
X244033772Y-51605240D01*
X244045622Y-51618431D01*
X244054965Y-51619948D01*
X244077335Y-51628140D01*
X244091235Y-51645172D01*
X244089327Y-51657541D01*
X244071631Y-51657605D01*
X244043670Y-51645152D01*
X244017344Y-51627002D01*
X244004554Y-51609974D01*
X244004472Y-51608917D01*
X243992630Y-51590354D01*
X243985972Y-51588292D01*
X243957032Y-51583538D01*
X243952880Y-51582635D01*
X243928896Y-51579780D01*
X243891143Y-51577580D01*
X243889505Y-51577521D01*
X243857641Y-51572508D01*
X243849599Y-51561823D01*
X243850206Y-51560666D01*
X243869686Y-51552586D01*
X243905836Y-51552368D01*
X243913581Y-51553328D01*
X243967588Y-51561149D01*
X243923465Y-51539898D01*
X243832689Y-51509035D01*
X243723444Y-51492728D01*
X243602836Y-51491003D01*
X243477972Y-51503886D01*
X243355957Y-51531400D01*
X243335162Y-51537807D01*
X243223843Y-51579071D01*
X243123095Y-51629247D01*
X243026031Y-51692692D01*
X242925763Y-51773762D01*
X242845646Y-51847479D01*
X242768486Y-51923987D01*
X242709860Y-51989245D01*
X242664963Y-52049909D01*
X242628989Y-52112634D01*
X242597134Y-52184074D01*
X242590483Y-52200897D01*
X242560096Y-52297184D01*
X242538168Y-52403639D01*
X242525800Y-52510946D01*
X242524095Y-52609786D01*
X242533108Y-52686247D01*
X242543729Y-52741013D01*
X242555022Y-52808628D01*
X242562918Y-52862738D01*
X242575940Y-52932649D01*
X242596849Y-53014119D01*
X242623114Y-53099703D01*
X242652206Y-53181960D01*
X242681595Y-53253445D01*
X242708751Y-53306716D01*
X242719024Y-53322053D01*
X242757021Y-53371870D01*
X242719928Y-53426164D01*
X242690677Y-53474941D01*
X242657896Y-53538618D01*
X242626343Y-53606937D01*
X242600779Y-53669639D01*
X242586700Y-53713301D01*
X242572781Y-53748267D01*
X242547518Y-53794765D01*
X242525663Y-53828935D01*
X242498139Y-53872335D01*
X242478981Y-53908960D01*
X242473074Y-53927012D01*
X242476404Y-53986188D01*
X242497786Y-54028128D01*
X242505610Y-54036241D01*
X242529375Y-54064108D01*
X242531647Y-54078622D01*
X242514562Y-54075495D01*
X242493153Y-54061239D01*
X242441487Y-54006645D01*
X242417620Y-53947450D01*
X242421960Y-53886603D01*
X242454911Y-53827051D01*
X242460060Y-53820979D01*
X242486550Y-53788793D01*
X242502291Y-53765772D01*
X242504183Y-53760726D01*
X242510035Y-53742501D01*
X242525687Y-53704307D01*
X242548287Y-53652731D01*
X242574982Y-53594357D01*
X242590563Y-53561349D01*
X242609343Y-53525663D01*
X242635163Y-53480673D01*
X242644162Y-53465749D01*
X242671836Y-53406657D01*
X242679264Y-53355786D01*
X242665911Y-53318455D01*
X242659558Y-53312104D01*
X242640937Y-53285309D01*
X242629113Y-53252104D01*
X242616551Y-53211324D01*
X242596921Y-53162747D01*
X242591217Y-53150501D01*
X242577462Y-53119423D01*
X242565635Y-53085243D01*
X242554324Y-53042228D01*
X242542113Y-52984643D01*
X242527592Y-52906752D01*
X242518494Y-52855385D01*
X242507405Y-52794405D01*
X242496028Y-52735446D01*
X242488896Y-52700955D01*
X242473821Y-52575683D01*
X242478594Y-52438557D01*
X242501895Y-52298151D01*
X242542407Y-52163039D01*
X242586937Y-52063359D01*
X242637816Y-51970242D01*
X242680449Y-51900185D01*
X242718005Y-51849135D01*
X242753654Y-51813044D01*
X242790567Y-51787860D01*
X242810084Y-51778271D01*
X242889707Y-51737762D01*
X242975267Y-51685707D01*
X243054063Y-51630205D01*
X243095555Y-51596191D01*
X243156527Y-51555421D01*
X243231288Y-51525589D01*
X243235278Y-51524482D01*
X243300440Y-51506560D01*
X243372496Y-51486385D01*
X243408700Y-51476094D01*
X243465743Y-51463499D01*
X243535815Y-51455478D01*
X243625042Y-51451493D01*
X243695821Y-51450810D01*
X243795726Y-51452425D01*
G37*
G36*
X242599310Y-54172579D02*
G01*
X242627743Y-54196915D01*
X242649175Y-54208357D01*
X242650591Y-54208483D01*
X242665432Y-54216978D01*
X242665967Y-54219977D01*
X242653123Y-54230860D01*
X242617188Y-54251575D01*
X242562058Y-54280251D01*
X242491629Y-54315015D01*
X242409797Y-54353998D01*
X242320457Y-54395326D01*
X242227504Y-54437128D01*
X242134835Y-54477532D01*
X242092371Y-54495556D01*
X241912809Y-54575010D01*
X241762000Y-54650410D01*
X241639596Y-54721986D01*
X241545247Y-54789973D01*
X241478607Y-54854602D01*
X241439326Y-54916106D01*
X241432096Y-54936508D01*
X241420606Y-54986870D01*
X241410127Y-55047752D01*
X241406352Y-55076230D01*
X241397737Y-55129235D01*
X241385998Y-55175550D01*
X241378984Y-55193891D01*
X241364918Y-55231722D01*
X241345946Y-55297937D01*
X241322026Y-55392703D01*
X241293115Y-55516185D01*
X241274639Y-55598349D01*
X241258519Y-55663779D01*
X241240316Y-55726945D01*
X241223688Y-55775257D01*
X241222070Y-55779225D01*
X241173907Y-55929492D01*
X241151405Y-56084989D01*
X241150075Y-56121388D01*
X241146756Y-56176002D01*
X241138641Y-56253448D01*
X241126641Y-56347703D01*
X241111671Y-56452743D01*
X241094643Y-56562545D01*
X241076472Y-56671085D01*
X241058069Y-56772341D01*
X241040349Y-56860288D01*
X241033142Y-56892617D01*
X241007605Y-57030754D01*
X240996277Y-57160101D01*
X240999473Y-57274516D01*
X241010174Y-57340961D01*
X241020680Y-57391616D01*
X241023897Y-57431544D01*
X241019443Y-57473002D01*
X241006931Y-57528244D01*
X241003923Y-57540090D01*
X240989034Y-57607473D01*
X240984542Y-57656507D01*
X240989697Y-57696066D01*
X240990490Y-57699041D01*
X241006583Y-57732422D01*
X241035516Y-57773293D01*
X241070822Y-57814402D01*
X241106030Y-57848499D01*
X241134672Y-57868332D01*
X241143606Y-57870671D01*
X241158187Y-57858681D01*
X241179694Y-57827880D01*
X241195017Y-57800810D01*
X241234648Y-57740957D01*
X241294768Y-57670721D01*
X241370552Y-57594704D01*
X241457178Y-57517507D01*
X241549820Y-57443732D01*
X241563037Y-57434346D01*
X242317887Y-57434346D01*
X242319906Y-57443090D01*
X242327692Y-57444151D01*
X242339798Y-57438770D01*
X242337497Y-57434346D01*
X242320043Y-57432586D01*
X242317887Y-57434346D01*
X241563037Y-57434346D01*
X241580295Y-57422090D01*
X242357107Y-57422090D01*
X242364461Y-57429444D01*
X242371815Y-57422090D01*
X242364461Y-57414736D01*
X242357107Y-57422090D01*
X241580295Y-57422090D01*
X241626471Y-57389298D01*
X241701336Y-57340932D01*
X242305559Y-57340932D01*
X242310532Y-57349219D01*
X242339355Y-57355644D01*
X242351000Y-57357496D01*
X242405382Y-57363749D01*
X242465645Y-57367316D01*
X242524156Y-57368190D01*
X242573284Y-57366362D01*
X242605394Y-57361826D01*
X242613355Y-57357742D01*
X242606252Y-57346200D01*
X242577258Y-57333217D01*
X242533701Y-57320748D01*
X242482908Y-57310751D01*
X242432206Y-57305184D01*
X242414521Y-57304637D01*
X242364719Y-57309460D01*
X242326662Y-57322128D01*
X242320168Y-57326491D01*
X242305559Y-57340932D01*
X241701336Y-57340932D01*
X241713705Y-57332941D01*
X241783063Y-57293595D01*
X241839446Y-57269656D01*
X241887753Y-57259522D01*
X241932885Y-57261589D01*
X241978923Y-57273965D01*
X242017394Y-57286517D01*
X242046303Y-57290762D01*
X242076360Y-57285869D01*
X242118275Y-57271006D01*
X242142864Y-57261242D01*
X242213212Y-57236089D01*
X242294009Y-57211862D01*
X242376708Y-57190672D01*
X242452761Y-57174628D01*
X242513620Y-57165838D01*
X242533598Y-57164813D01*
X242571981Y-57167632D01*
X242630427Y-57175261D01*
X242700247Y-57186305D01*
X242772750Y-57199370D01*
X242839247Y-57213061D01*
X242850967Y-57215730D01*
X242880749Y-57233963D01*
X242897009Y-57256277D01*
X242942061Y-57324979D01*
X243011046Y-57392525D01*
X243098698Y-57454231D01*
X243153457Y-57484234D01*
X243215461Y-57519343D01*
X243282198Y-57564157D01*
X243348276Y-57614222D01*
X243408303Y-57665083D01*
X243456887Y-57712285D01*
X243488636Y-57751373D01*
X243497073Y-57768122D01*
X243503868Y-57781418D01*
X243517843Y-57789913D01*
X243544668Y-57794660D01*
X243590014Y-57796714D01*
X243652986Y-57797133D01*
X243732355Y-57794581D01*
X243816225Y-57787780D01*
X243890162Y-57778017D01*
X243910897Y-57774163D01*
X243978642Y-57762252D01*
X244026543Y-57759454D01*
X244062599Y-57765392D01*
X244066902Y-57766809D01*
X244115422Y-57778499D01*
X244157304Y-57782651D01*
X244207142Y-57787168D01*
X244230880Y-57802684D01*
X244230960Y-57833090D01*
X244214309Y-57873433D01*
X244197990Y-57906751D01*
X244171601Y-57961162D01*
X244137770Y-58031225D01*
X244099123Y-58111500D01*
X244058566Y-58195965D01*
X244019450Y-58276472D01*
X243983853Y-58347735D01*
X243953968Y-58405524D01*
X243931986Y-58445607D01*
X243920101Y-58463756D01*
X243919520Y-58464222D01*
X243921299Y-58479570D01*
X243936872Y-58515922D01*
X243964324Y-58569413D01*
X244001741Y-58636179D01*
X244020652Y-58668401D01*
X244080638Y-58775038D01*
X244141890Y-58894345D01*
X244202822Y-59022305D01*
X244261849Y-59154900D01*
X244317387Y-59288112D01*
X244367850Y-59417925D01*
X244411653Y-59540320D01*
X244447212Y-59651280D01*
X244472941Y-59746787D01*
X244487256Y-59822823D01*
X244489707Y-59857410D01*
X244489800Y-59874510D01*
X244488532Y-59885868D01*
X244483582Y-59889300D01*
X244472626Y-59882620D01*
X244453345Y-59863646D01*
X244423417Y-59830192D01*
X244380520Y-59780075D01*
X244322332Y-59711110D01*
X244277071Y-59657351D01*
X244220161Y-59590127D01*
X244168394Y-59529623D01*
X244125290Y-59479900D01*
X244094367Y-59445021D01*
X244079855Y-59429675D01*
X244054197Y-59400992D01*
X244030481Y-59368284D01*
X244003628Y-59337326D01*
X243976649Y-59319910D01*
X243939514Y-59293748D01*
X243908767Y-59240423D01*
X243883984Y-59159147D01*
X243879476Y-59138347D01*
X243864937Y-59075400D01*
X243847898Y-59013178D01*
X243835360Y-58974618D01*
X243822481Y-58928329D01*
X243818179Y-58888351D01*
X243819478Y-58877025D01*
X243817619Y-58843176D01*
X243807161Y-58827790D01*
X243782104Y-58823725D01*
X243742299Y-58833327D01*
X243696414Y-58852461D01*
X243653115Y-58876988D01*
X243621070Y-58902774D01*
X243609212Y-58922264D01*
X243586275Y-58973724D01*
X243540572Y-59023206D01*
X243478669Y-59066555D01*
X243407135Y-59099611D01*
X243332536Y-59118218D01*
X243295584Y-59120804D01*
X243252957Y-59118052D01*
X243223904Y-59111065D01*
X243217898Y-59106751D01*
X243198765Y-59098738D01*
X243187615Y-59100971D01*
X243168966Y-59101048D01*
X243166025Y-59095032D01*
X243152757Y-59085802D01*
X243118599Y-59077111D01*
X243086932Y-59072646D01*
X243013349Y-59059177D01*
X242965164Y-59035727D01*
X242939589Y-59000724D01*
X242935875Y-58987572D01*
X242932074Y-58979879D01*
X242985560Y-58979879D01*
X243004847Y-58995227D01*
X243049814Y-59006077D01*
X243088137Y-59010744D01*
X243146048Y-59018069D01*
X243203651Y-59027864D01*
X243217501Y-59030760D01*
X243272788Y-59041814D01*
X243307352Y-59044360D01*
X243328706Y-59038130D01*
X243341614Y-59026303D01*
X243364644Y-59010944D01*
X243405988Y-58993130D01*
X243442691Y-58980970D01*
X243504573Y-58961933D01*
X243543411Y-58946862D01*
X243564814Y-58933074D01*
X243574352Y-58918012D01*
X243565614Y-58911386D01*
X243531114Y-58917624D01*
X243501689Y-58926416D01*
X243467480Y-58935995D01*
X243430378Y-58942678D01*
X243385661Y-58946629D01*
X243328608Y-58948012D01*
X243254498Y-58946990D01*
X243158608Y-58943728D01*
X243088264Y-58940745D01*
X243033540Y-58940899D01*
X243001830Y-58948111D01*
X242989655Y-58958821D01*
X242985560Y-58979879D01*
X242932074Y-58979879D01*
X242920350Y-58956147D01*
X242889631Y-58918815D01*
X242870595Y-58900929D01*
X242836302Y-58865508D01*
X242816480Y-58832567D01*
X242813329Y-58807905D01*
X242829052Y-58797315D01*
X242831209Y-58797249D01*
X242830874Y-58791345D01*
X242809438Y-58776356D01*
X242798661Y-58770261D01*
X242930703Y-58770261D01*
X242944300Y-58774700D01*
X242980917Y-58776614D01*
X243034291Y-58776278D01*
X243098160Y-58773968D01*
X243166262Y-58769958D01*
X243232335Y-58764524D01*
X243290116Y-58757941D01*
X243320454Y-58753139D01*
X243336656Y-58748364D01*
X243326423Y-58744826D01*
X243288840Y-58742430D01*
X243222991Y-58741080D01*
X243202793Y-58740901D01*
X243096131Y-58741428D01*
X243017216Y-58744868D01*
X242964511Y-58751388D01*
X242936476Y-58761154D01*
X242930703Y-58770261D01*
X242798661Y-58770261D01*
X242792115Y-58766559D01*
X242751590Y-58742694D01*
X242720119Y-58720469D01*
X242714067Y-58715083D01*
X242691600Y-58697753D01*
X242674746Y-58701199D01*
X242659188Y-58728429D01*
X242647304Y-58761577D01*
X242635036Y-58803282D01*
X242633698Y-58825420D01*
X242643105Y-58835656D01*
X242645518Y-58836672D01*
X242664150Y-58852616D01*
X242691148Y-58885706D01*
X242712978Y-58917168D01*
X242768202Y-58982781D01*
X242834045Y-59022854D01*
X242886580Y-59037068D01*
X242891355Y-59040230D01*
X242870998Y-59043044D01*
X242829793Y-59044998D01*
X242817677Y-59045275D01*
X242743931Y-59044705D01*
X242692925Y-59037435D01*
X242658174Y-59020089D01*
X242633189Y-58989288D01*
X242611485Y-58941658D01*
X242609688Y-58936997D01*
X242594689Y-58891950D01*
X242585087Y-58845559D01*
X242579823Y-58789445D01*
X242577838Y-58715229D01*
X242577721Y-58684080D01*
X242578049Y-58677511D01*
X243629313Y-58677511D01*
X243682628Y-58678550D01*
X243733451Y-58676656D01*
X243780602Y-58670657D01*
X243818569Y-58653719D01*
X243832971Y-58632239D01*
X243834469Y-58611826D01*
X243818565Y-58607853D01*
X243801182Y-58610720D01*
X243763595Y-58621612D01*
X243715198Y-58639714D01*
X243695498Y-58648099D01*
X243629313Y-58677511D01*
X242578049Y-58677511D01*
X242585419Y-58529785D01*
X242586364Y-58524520D01*
X242876008Y-58524520D01*
X242880634Y-58532447D01*
X242907019Y-58545971D01*
X242957876Y-58566791D01*
X242974826Y-58573371D01*
X243035397Y-58597487D01*
X243089314Y-58620299D01*
X243127801Y-58638046D01*
X243136609Y-58642711D01*
X243187059Y-58662501D01*
X243224762Y-58656241D01*
X243238325Y-58644311D01*
X243263565Y-58628828D01*
X243303263Y-58617638D01*
X243309987Y-58616628D01*
X243362128Y-58608308D01*
X243427306Y-58595688D01*
X243499134Y-58580277D01*
X243571223Y-58563585D01*
X243637184Y-58547121D01*
X243690630Y-58532396D01*
X243725170Y-58520917D01*
X243733882Y-58516465D01*
X243750194Y-58496956D01*
X243741234Y-58487956D01*
X243709314Y-58489763D01*
X243656748Y-58502674D01*
X243647769Y-58505416D01*
X243586735Y-58521124D01*
X243509460Y-58536174D01*
X243423476Y-58549622D01*
X243336312Y-58560522D01*
X243255499Y-58567930D01*
X243188568Y-58570900D01*
X243143963Y-58568637D01*
X243093865Y-58558825D01*
X243034392Y-58544648D01*
X243008090Y-58537570D01*
X242956170Y-58525886D01*
X242909238Y-58520221D01*
X242890430Y-58520488D01*
X242876008Y-58524520D01*
X242586364Y-58524520D01*
X242604733Y-58422208D01*
X243774819Y-58422208D01*
X243776389Y-58429560D01*
X243797606Y-58442945D01*
X243807540Y-58444267D01*
X243822082Y-58436911D01*
X243820512Y-58429560D01*
X243799295Y-58416175D01*
X243789361Y-58414852D01*
X243774819Y-58422208D01*
X242604733Y-58422208D01*
X242608724Y-58399979D01*
X242647953Y-58294022D01*
X242703422Y-58211274D01*
X242775447Y-58151095D01*
X242859668Y-58114195D01*
X242906704Y-58096452D01*
X242924668Y-58079117D01*
X242913879Y-58061398D01*
X242886636Y-58047185D01*
X242845284Y-58022705D01*
X242814104Y-57993695D01*
X242788985Y-57974227D01*
X243001383Y-57974227D01*
X243015295Y-58000946D01*
X243042067Y-58030458D01*
X243075529Y-58056578D01*
X243109509Y-58073117D01*
X243125579Y-58075882D01*
X243154953Y-58074459D01*
X243166025Y-58070443D01*
X243159733Y-58048494D01*
X243144261Y-58012331D01*
X243124710Y-57972393D01*
X243106184Y-57939122D01*
X243094008Y-57923088D01*
X243073892Y-57920721D01*
X243041551Y-57934563D01*
X243006502Y-57956491D01*
X243001383Y-57974227D01*
X242788985Y-57974227D01*
X242778186Y-57965857D01*
X242748419Y-57958917D01*
X242720039Y-57954167D01*
X242710089Y-57944507D01*
X242715478Y-57919475D01*
X242728639Y-57883518D01*
X242745071Y-57846872D01*
X242760268Y-57819771D01*
X242768464Y-57811841D01*
X242786388Y-57819447D01*
X242818541Y-57838604D01*
X242833705Y-57848610D01*
X242883250Y-57877204D01*
X242914874Y-57883217D01*
X242929450Y-57866697D01*
X242930703Y-57853921D01*
X242932892Y-57836620D01*
X242944030Y-57828204D01*
X242970974Y-57826820D01*
X243017822Y-57830363D01*
X243094029Y-57843213D01*
X243152363Y-57869006D01*
X243198250Y-57912255D01*
X243237114Y-57977475D01*
X243260660Y-58032455D01*
X243264427Y-58034958D01*
X243262989Y-58013530D01*
X243261773Y-58004901D01*
X243252160Y-57968081D01*
X243233378Y-57914879D01*
X243209067Y-57855391D01*
X243202798Y-57841266D01*
X243175431Y-57779606D01*
X243159458Y-57738768D01*
X243153820Y-57712925D01*
X243157458Y-57696251D01*
X243169312Y-57682919D01*
X243173378Y-57679473D01*
X243192728Y-57653410D01*
X243188160Y-57623708D01*
X243158631Y-57586012D01*
X243148683Y-57576215D01*
X243119363Y-57550685D01*
X243093415Y-57538651D01*
X243059094Y-57536836D01*
X243019992Y-57540294D01*
X242947862Y-57541653D01*
X242862923Y-57533385D01*
X242824684Y-57526844D01*
X242762481Y-57517061D01*
X242704393Y-57512014D01*
X242662099Y-57512674D01*
X242659224Y-57513085D01*
X242623164Y-57513833D01*
X242605946Y-57504308D01*
X242611971Y-57488285D01*
X242621765Y-57480969D01*
X242640195Y-57461464D01*
X242651697Y-57443332D01*
X242660482Y-57418688D01*
X242650990Y-57413781D01*
X242625541Y-57427346D01*
X242586456Y-57458119D01*
X242536053Y-57504837D01*
X242532614Y-57508224D01*
X242477290Y-57559511D01*
X242416765Y-57610374D01*
X242362568Y-57651213D01*
X242353774Y-57657154D01*
X242288247Y-57709076D01*
X242234794Y-57767965D01*
X242224275Y-57783150D01*
X242194937Y-57825897D01*
X242168084Y-57860108D01*
X242155364Y-57873218D01*
X242136396Y-57894537D01*
X242107608Y-57933285D01*
X242074604Y-57981842D01*
X242068023Y-57992009D01*
X242036546Y-58038373D01*
X242009638Y-58073170D01*
X241992030Y-58090414D01*
X241989514Y-58091285D01*
X241977339Y-58103554D01*
X241974710Y-58119633D01*
X241963815Y-58148272D01*
X241937836Y-58176986D01*
X241913250Y-58204607D01*
X241909267Y-58227633D01*
X241907285Y-58255441D01*
X241898341Y-58269557D01*
X241882922Y-58298562D01*
X241874942Y-58333960D01*
X241866630Y-58367244D01*
X241848119Y-58417486D01*
X241822872Y-58475600D01*
X241813268Y-58495744D01*
X241790474Y-58544582D01*
X241769253Y-58595560D01*
X241748271Y-58652849D01*
X241726190Y-58720624D01*
X241701675Y-58803059D01*
X241673389Y-58904328D01*
X241639997Y-59028603D01*
X241627281Y-59076693D01*
X241607600Y-59144897D01*
X241583897Y-59218217D01*
X241568819Y-59260538D01*
X241546603Y-59323571D01*
X241522921Y-59397005D01*
X241506688Y-59451737D01*
X241488079Y-59514954D01*
X241468247Y-59577482D01*
X241453249Y-59620874D01*
X241435681Y-59669935D01*
X241414066Y-59732689D01*
X241394915Y-59790011D01*
X241378743Y-59838666D01*
X241364561Y-59878804D01*
X241349413Y-59917732D01*
X241330345Y-59962752D01*
X241304401Y-60021172D01*
X241275708Y-60084671D01*
X241249551Y-60144037D01*
X241225517Y-60201400D01*
X241208688Y-60244622D01*
X241208336Y-60245604D01*
X241191709Y-60286994D01*
X241166678Y-60343329D01*
X241138257Y-60403380D01*
X241134216Y-60411599D01*
X241106486Y-60472165D01*
X241095692Y-60510637D01*
X241102921Y-60529702D01*
X241129259Y-60532046D01*
X241175792Y-60520355D01*
X241177928Y-60519684D01*
X241221350Y-60494238D01*
X241272723Y-60444186D01*
X241329531Y-60372414D01*
X241389255Y-60281805D01*
X241397571Y-60268008D01*
X241419190Y-60225212D01*
X241446785Y-60161048D01*
X241477861Y-60082314D01*
X241509921Y-59995812D01*
X241540472Y-59908340D01*
X241567015Y-59826700D01*
X241587057Y-59757690D01*
X241591894Y-59738535D01*
X241624351Y-59601703D01*
X241650914Y-59486827D01*
X241672961Y-59387361D01*
X241691869Y-59296759D01*
X241709016Y-59208475D01*
X241725780Y-59115962D01*
X241738920Y-59039924D01*
X241771347Y-58860541D01*
X241802692Y-58709996D01*
X241833095Y-58587738D01*
X241862696Y-58493216D01*
X241891635Y-58425879D01*
X241897812Y-58414852D01*
X241922442Y-58370629D01*
X241953891Y-58310495D01*
X241986577Y-58245210D01*
X241997027Y-58223653D01*
X242036061Y-58143287D01*
X242066323Y-58083898D01*
X242091182Y-58039673D01*
X242114006Y-58004795D01*
X242138163Y-57973452D01*
X242150396Y-57958917D01*
X242194533Y-57907440D01*
X242194393Y-57951563D01*
X242190502Y-57983483D01*
X242180072Y-58035837D01*
X242164787Y-58100818D01*
X242149972Y-58157469D01*
X242112047Y-58308675D01*
X242079594Y-58466768D01*
X242051436Y-58638423D01*
X242026396Y-58830316D01*
X242017710Y-58907556D01*
X242007296Y-59011477D01*
X242001615Y-59089144D01*
X242000684Y-59143334D01*
X242004522Y-59176830D01*
X242013147Y-59192410D01*
X242019583Y-59194354D01*
X242034699Y-59182085D01*
X242052631Y-59151707D01*
X242056550Y-59142877D01*
X242071889Y-59109785D01*
X242082966Y-59092246D01*
X242084477Y-59091401D01*
X242102554Y-59099490D01*
X242133768Y-59119608D01*
X242169689Y-59145536D01*
X242201882Y-59171050D01*
X242221916Y-59189930D01*
X242224739Y-59194884D01*
X242233701Y-59213017D01*
X242256317Y-59243461D01*
X242268824Y-59258248D01*
X242296055Y-59293177D01*
X242306699Y-59323648D01*
X242305138Y-59364554D01*
X242303594Y-59376421D01*
X242294761Y-59416469D01*
X242282927Y-59440885D01*
X242276982Y-59444383D01*
X242253952Y-59457171D01*
X242226253Y-59490926D01*
X242198593Y-59538734D01*
X242176056Y-59592576D01*
X242159172Y-59640366D01*
X242136650Y-59701859D01*
X242114561Y-59760596D01*
X242089160Y-59831250D01*
X242063269Y-59909808D01*
X242046191Y-59966502D01*
X242029215Y-60026342D01*
X242013142Y-60082447D01*
X242001960Y-60120932D01*
X241991218Y-60169872D01*
X241983724Y-60226292D01*
X241982801Y-60238593D01*
X241978658Y-60292393D01*
X241971804Y-60365386D01*
X241963240Y-60447584D01*
X241953964Y-60529001D01*
X241952626Y-60540098D01*
X241948702Y-60573027D01*
X241947172Y-60586349D01*
X241934665Y-60596076D01*
X241898920Y-60592656D01*
X241891856Y-60591132D01*
X241858501Y-60586357D01*
X241829213Y-60591617D01*
X241793689Y-60610020D01*
X241763164Y-60629970D01*
X241690573Y-60680607D01*
X241630047Y-60725864D01*
X241588017Y-60760926D01*
X241586823Y-60762037D01*
X241565227Y-60775983D01*
X241525380Y-60796873D01*
X241478054Y-60819199D01*
X241432180Y-60841309D01*
X241399307Y-60860057D01*
X241386413Y-60871454D01*
X241386407Y-60871588D01*
X241373476Y-60884534D01*
X241341268Y-60898213D01*
X241299655Y-60909430D01*
X241258511Y-60914988D01*
X241251844Y-60915142D01*
X241218753Y-60908567D01*
X241209916Y-60891507D01*
X241202164Y-60875222D01*
X241184177Y-60878303D01*
X241150949Y-60891171D01*
X241117993Y-60903377D01*
X241089072Y-60917427D01*
X241077547Y-60929849D01*
X241065288Y-60942540D01*
X241035229Y-60958176D01*
X241029748Y-60960401D01*
X240981948Y-60979122D01*
X241023345Y-60984970D01*
X241066109Y-60982020D01*
X241096883Y-60969800D01*
X241130240Y-60958063D01*
X241188752Y-60948627D01*
X241268203Y-60942143D01*
X241279218Y-60941581D01*
X241344246Y-60937079D01*
X241399130Y-60930719D01*
X241436632Y-60923480D01*
X241448355Y-60918688D01*
X241469706Y-60906092D01*
X241510916Y-60885581D01*
X241564746Y-60860686D01*
X241592313Y-60848490D01*
X241656869Y-60820252D01*
X241719484Y-60792710D01*
X241769412Y-60770595D01*
X241781271Y-60765294D01*
X241833138Y-60747431D01*
X241869287Y-60746218D01*
X241885838Y-60761578D01*
X241886465Y-60767395D01*
X241873583Y-60788055D01*
X241839825Y-60813045D01*
X241792520Y-60838349D01*
X241738999Y-60859950D01*
X241695266Y-60872156D01*
X241635210Y-60886004D01*
X241602987Y-60897325D01*
X241597291Y-60907645D01*
X241616822Y-60918492D01*
X241647605Y-60927991D01*
X241693285Y-60940863D01*
X241729244Y-60951518D01*
X241739389Y-60954778D01*
X241749543Y-60958479D01*
X241752114Y-60962402D01*
X241742953Y-60968754D01*
X241717913Y-60979745D01*
X241672846Y-60997584D01*
X241621728Y-61017438D01*
X241572527Y-61040817D01*
X241531911Y-61067589D01*
X241514949Y-61084233D01*
X241489063Y-61119621D01*
X241529657Y-61107298D01*
X241564836Y-61099115D01*
X241615848Y-61090240D01*
X241675363Y-61081574D01*
X241736051Y-61074021D01*
X241790584Y-61068485D01*
X241831631Y-61065867D01*
X241851863Y-61067072D01*
X241852539Y-61067512D01*
X241843681Y-61076332D01*
X241814503Y-61093576D01*
X241771691Y-61116013D01*
X241721934Y-61140410D01*
X241671918Y-61163536D01*
X241628330Y-61182160D01*
X241597858Y-61193051D01*
X241589579Y-61194586D01*
X241579451Y-61200088D01*
X241581522Y-61203405D01*
X241600215Y-61204690D01*
X241637961Y-61197085D01*
X241686515Y-61182653D01*
X241732035Y-61165779D01*
X241785321Y-61147812D01*
X241852371Y-61130430D01*
X241921441Y-61116196D01*
X241980785Y-61107669D01*
X242004572Y-61106340D01*
X242033196Y-61105466D01*
X242055943Y-61100232D01*
X242078457Y-61086719D01*
X242106385Y-61061010D01*
X242145369Y-61019187D01*
X242170832Y-60990941D01*
X242201293Y-60962003D01*
X242226981Y-60945805D01*
X242232759Y-60944557D01*
X242251242Y-60954512D01*
X242283457Y-60980550D01*
X242323535Y-61016930D01*
X242365610Y-61057910D01*
X242403812Y-61097750D01*
X242432276Y-61130707D01*
X242445132Y-61151042D01*
X242445353Y-61152568D01*
X242454761Y-61174130D01*
X242466789Y-61188708D01*
X242480819Y-61215665D01*
X242479923Y-61231780D01*
X242481536Y-61250368D01*
X242489476Y-61253416D01*
X242500654Y-61264048D01*
X242498865Y-61275477D01*
X242498559Y-61294416D01*
X242504645Y-61297539D01*
X242516282Y-61309841D01*
X242518891Y-61326492D01*
X242525497Y-61347362D01*
X242542914Y-61346227D01*
X242554917Y-61337647D01*
X242560694Y-61319419D01*
X242560939Y-61285143D01*
X242556349Y-61228417D01*
X242556051Y-61225351D01*
X242550416Y-61157940D01*
X242544888Y-61075648D01*
X242540411Y-60992997D01*
X242539290Y-60967261D01*
X242535399Y-60903644D01*
X242529678Y-60850805D01*
X242523029Y-60815840D01*
X242518799Y-60806213D01*
X242506019Y-60779764D01*
X242504183Y-60765124D01*
X242500111Y-60745132D01*
X242485745Y-60741608D01*
X242457867Y-60755724D01*
X242413253Y-60788654D01*
X242391491Y-60806142D01*
X242326153Y-60856106D01*
X242275798Y-60887691D01*
X242242413Y-60899776D01*
X242230805Y-60896695D01*
X242232575Y-60880651D01*
X242245604Y-60861214D01*
X242306548Y-60789567D01*
X242351113Y-60734215D01*
X242383216Y-60690162D01*
X242399319Y-60665113D01*
X242416490Y-60643051D01*
X243033656Y-60643051D01*
X243041010Y-60650405D01*
X243048364Y-60643051D01*
X243046563Y-60641250D01*
X243063071Y-60641250D01*
X243074082Y-60661881D01*
X243085133Y-60665113D01*
X243104757Y-60662089D01*
X243107194Y-60659560D01*
X243097448Y-60646870D01*
X243085133Y-60635697D01*
X243067736Y-60625443D01*
X243063092Y-60638955D01*
X243063071Y-60641250D01*
X243046563Y-60641250D01*
X243041010Y-60635697D01*
X243033656Y-60643051D01*
X242416490Y-60643051D01*
X242427726Y-60628614D01*
X242458491Y-60614475D01*
X242471024Y-60613636D01*
X242492207Y-60612423D01*
X242504498Y-60604508D01*
X242506109Y-60598928D01*
X243018949Y-60598928D01*
X243026302Y-60606282D01*
X243033656Y-60598928D01*
X243026302Y-60591575D01*
X243018949Y-60598928D01*
X242506109Y-60598928D01*
X242510571Y-60583474D01*
X242513100Y-60542905D01*
X242513931Y-60510683D01*
X242514357Y-60498920D01*
X242978518Y-60498920D01*
X242984017Y-60534013D01*
X243002351Y-60548965D01*
X243010135Y-60550611D01*
X243039684Y-60548119D01*
X243051664Y-60540313D01*
X243049005Y-60526279D01*
X243035181Y-60520940D01*
X243008059Y-60505056D01*
X242992911Y-60484171D01*
X242986122Y-60471446D01*
X243050079Y-60471446D01*
X243052239Y-60484307D01*
X243063071Y-60481268D01*
X243075869Y-60460278D01*
X243077554Y-60447308D01*
X243075174Y-60430848D01*
X243065006Y-60441539D01*
X243063071Y-60444499D01*
X243050079Y-60471446D01*
X242986122Y-60471446D01*
X242982692Y-60465017D01*
X242978777Y-60470122D01*
X242978518Y-60498920D01*
X242514357Y-60498920D01*
X242516263Y-60446235D01*
X242901288Y-60446235D01*
X242910350Y-60454209D01*
X242915996Y-60451853D01*
X242930154Y-60432369D01*
X242930703Y-60428055D01*
X242921641Y-60420081D01*
X242915996Y-60422437D01*
X242901837Y-60441921D01*
X242901288Y-60446235D01*
X242516263Y-60446235D01*
X242517844Y-60402552D01*
X242524304Y-60293247D01*
X242532765Y-60188350D01*
X242534675Y-60170067D01*
X242786170Y-60170067D01*
X242789206Y-60190570D01*
X242808030Y-60191927D01*
X242830680Y-60177644D01*
X242835104Y-60164853D01*
X242825923Y-60146120D01*
X242806610Y-60145048D01*
X242789508Y-60160320D01*
X242786170Y-60170067D01*
X242534675Y-60170067D01*
X242542681Y-60093439D01*
X242553506Y-60014095D01*
X242564694Y-59955900D01*
X242570043Y-59937087D01*
X242595421Y-59881894D01*
X242629869Y-59829044D01*
X242644330Y-59812073D01*
X242673036Y-59777659D01*
X242690061Y-59742355D01*
X242700075Y-59694582D01*
X242703637Y-59664997D01*
X242718087Y-59574593D01*
X242739938Y-59510343D01*
X242770271Y-59469674D01*
X242791270Y-59456283D01*
X242827401Y-59449246D01*
X242849216Y-59467770D01*
X242856927Y-59512035D01*
X242856940Y-59513376D01*
X242862443Y-59542569D01*
X242870244Y-59553683D01*
X242883096Y-59572679D01*
X242893450Y-59602351D01*
X242923652Y-59667481D01*
X242976958Y-59725483D01*
X243035330Y-59763627D01*
X243087202Y-59792315D01*
X243137883Y-59824457D01*
X243150497Y-59833419D01*
X243189826Y-59857136D01*
X243225453Y-59870088D01*
X243233193Y-59870903D01*
X243262862Y-59882323D01*
X243300103Y-59911401D01*
X243337704Y-59950363D01*
X243368456Y-59991435D01*
X243385149Y-60026843D01*
X243386343Y-60036035D01*
X243382065Y-60104274D01*
X243371622Y-60171530D01*
X243356842Y-60229865D01*
X243339554Y-60271341D01*
X243329072Y-60284566D01*
X243310172Y-60305221D01*
X243308477Y-60317312D01*
X243305029Y-60328947D01*
X243293855Y-60335146D01*
X243273893Y-60354247D01*
X243255632Y-60389307D01*
X243253536Y-60395245D01*
X243244253Y-60433298D01*
X243249481Y-60458168D01*
X243260179Y-60472317D01*
X243280425Y-60503687D01*
X243278565Y-60535497D01*
X243259932Y-60570031D01*
X243244754Y-60598311D01*
X243247325Y-60620961D01*
X243260837Y-60643915D01*
X243275906Y-60684336D01*
X243278084Y-60742287D01*
X243267286Y-60821178D01*
X243255014Y-60878001D01*
X243249005Y-60917348D01*
X243251674Y-60941658D01*
X243254016Y-60944400D01*
X243263680Y-60964763D01*
X243261528Y-60995255D01*
X243249044Y-61019767D01*
X243246916Y-61021546D01*
X243243401Y-61031072D01*
X243252167Y-61032577D01*
X243265422Y-61043034D01*
X243263659Y-61054864D01*
X243261595Y-61073951D01*
X243265762Y-61077040D01*
X243282131Y-61089772D01*
X243294760Y-61118970D01*
X243299560Y-61151687D01*
X243295431Y-61170985D01*
X243288934Y-61199192D01*
X243292270Y-61211285D01*
X243299736Y-61237040D01*
X243305308Y-61281112D01*
X243308617Y-61333949D01*
X243309293Y-61386002D01*
X243306967Y-61427722D01*
X243301471Y-61449312D01*
X243280495Y-61492367D01*
X243283678Y-61531670D01*
X243303013Y-61555032D01*
X243324216Y-61571175D01*
X243321648Y-61577149D01*
X243305342Y-61578679D01*
X243273704Y-61581743D01*
X243261624Y-61583793D01*
X243235963Y-61587492D01*
X243213824Y-61589450D01*
X243186730Y-61599745D01*
X243181517Y-61617995D01*
X243197740Y-61633001D01*
X243215663Y-61635813D01*
X243241982Y-61641991D01*
X243250390Y-61666119D01*
X243250593Y-61674255D01*
X243257063Y-61707378D01*
X243269126Y-61724151D01*
X243276713Y-61736624D01*
X243257549Y-61751719D01*
X243257224Y-61751893D01*
X243224792Y-61766246D01*
X243211994Y-61761780D01*
X243214628Y-61737926D01*
X243215320Y-61716066D01*
X243207887Y-61712556D01*
X243195438Y-61726676D01*
X243195551Y-61729954D01*
X243186276Y-61746075D01*
X243161570Y-61766356D01*
X243137963Y-61785925D01*
X243138291Y-61801374D01*
X243144081Y-61807743D01*
X243165283Y-61817801D01*
X243173803Y-61815097D01*
X243176314Y-61818140D01*
X243167499Y-61838042D01*
X243149456Y-61863158D01*
X243136092Y-61871135D01*
X243123636Y-61883113D01*
X243121902Y-61894064D01*
X243128954Y-61909342D01*
X243136433Y-61908013D01*
X243155528Y-61911182D01*
X243184418Y-61930373D01*
X243191436Y-61936560D01*
X243242245Y-61967662D01*
X243286344Y-61974088D01*
X243323794Y-61977035D01*
X243346486Y-61984303D01*
X243348198Y-61986091D01*
X243349109Y-62009794D01*
X243338525Y-62047390D01*
X243320812Y-62088001D01*
X243300339Y-62120747D01*
X243289964Y-62131122D01*
X243256237Y-62147161D01*
X243236290Y-62150579D01*
X243209391Y-62160681D01*
X243201077Y-62171811D01*
X243182487Y-62184553D01*
X243146393Y-62190890D01*
X243104064Y-62190523D01*
X243066769Y-62183156D01*
X243052114Y-62175735D01*
X243024267Y-62172695D01*
X242995576Y-62186855D01*
X242950138Y-62204179D01*
X242921964Y-62203022D01*
X242892884Y-62199585D01*
X242889428Y-62210549D01*
X242906646Y-62231575D01*
X242927810Y-62243755D01*
X242944286Y-62234202D01*
X242956200Y-62225593D01*
X242952511Y-62241332D01*
X242952499Y-62241364D01*
X242934529Y-62266608D01*
X242924104Y-62273268D01*
X242911210Y-62292076D01*
X242909547Y-62321339D01*
X242907986Y-62360629D01*
X242897079Y-62392439D01*
X242880739Y-62408354D01*
X242869853Y-62406713D01*
X242863212Y-62391349D01*
X242870591Y-62381299D01*
X242882669Y-62355427D01*
X242886580Y-62325505D01*
X242882673Y-62297379D01*
X242866873Y-62291418D01*
X242857165Y-62293393D01*
X242833257Y-62292514D01*
X242827750Y-62276230D01*
X242817421Y-62257132D01*
X242802012Y-62256332D01*
X242780026Y-62267434D01*
X242776048Y-62275795D01*
X242766689Y-62307661D01*
X242745788Y-62318421D01*
X242722131Y-62308227D01*
X242704504Y-62277236D01*
X242703783Y-62274529D01*
X242689141Y-62247422D01*
X242672485Y-62238824D01*
X242666377Y-62235892D01*
X242732151Y-62235892D01*
X242768920Y-62236324D01*
X242810543Y-62231507D01*
X242835104Y-62224117D01*
X242864519Y-62211476D01*
X242835104Y-62211909D01*
X242797759Y-62216790D01*
X242768920Y-62224117D01*
X242732151Y-62235892D01*
X242666377Y-62235892D01*
X242658347Y-62232037D01*
X242654831Y-62207329D01*
X242656104Y-62192634D01*
X242732151Y-62192634D01*
X242761566Y-62192634D01*
X242800233Y-62186712D01*
X242820396Y-62179994D01*
X242849811Y-62167354D01*
X242820396Y-62167354D01*
X242781729Y-62173276D01*
X242761566Y-62179994D01*
X242732151Y-62192634D01*
X242656104Y-62192634D01*
X242657094Y-62181198D01*
X242658027Y-62143225D01*
X242886580Y-62143225D01*
X242893934Y-62150579D01*
X242901288Y-62143225D01*
X242893934Y-62135871D01*
X242886580Y-62143225D01*
X242658027Y-62143225D01*
X242658149Y-62138271D01*
X242647163Y-62117578D01*
X242643190Y-62115570D01*
X242629335Y-62097534D01*
X242630749Y-62085656D01*
X242630777Y-62084395D01*
X242710089Y-62084395D01*
X242717443Y-62091748D01*
X242724797Y-62084395D01*
X242717443Y-62077041D01*
X242710089Y-62084395D01*
X242630777Y-62084395D01*
X242631437Y-62054919D01*
X242627095Y-62044653D01*
X242616437Y-62015508D01*
X242611988Y-61988795D01*
X242604623Y-61913632D01*
X242595792Y-61859344D01*
X242583426Y-61817398D01*
X242565458Y-61779261D01*
X242558042Y-61766220D01*
X242534464Y-61718772D01*
X242530983Y-61690612D01*
X242534351Y-61685067D01*
X242539567Y-61665228D01*
X243180732Y-61665228D01*
X243186113Y-61677334D01*
X243190537Y-61675033D01*
X243192297Y-61657579D01*
X243190537Y-61655423D01*
X243181794Y-61657442D01*
X243180732Y-61665228D01*
X242539567Y-61665228D01*
X242540071Y-61663310D01*
X242535030Y-61631600D01*
X242522945Y-61603251D01*
X242508224Y-61591559D01*
X242491516Y-61597727D01*
X242453762Y-61614710D01*
X242400179Y-61640077D01*
X242335984Y-61671397D01*
X242320338Y-61679151D01*
X242120888Y-61765377D01*
X241906808Y-61832529D01*
X241674561Y-61881571D01*
X241482006Y-61907504D01*
X241400621Y-61916974D01*
X241345870Y-61925613D01*
X241315009Y-61934018D01*
X241305290Y-61942791D01*
X241306261Y-61945879D01*
X241304727Y-61964981D01*
X241292826Y-62001812D01*
X241276717Y-62040301D01*
X241256981Y-62084778D01*
X241243433Y-62117855D01*
X241239331Y-62130805D01*
X241233223Y-62146454D01*
X241216417Y-62183612D01*
X241191189Y-62237392D01*
X241159814Y-62302902D01*
X241144868Y-62333731D01*
X241081235Y-62465884D01*
X241027848Y-62579614D01*
X240985394Y-62673364D01*
X240954562Y-62745579D01*
X240936043Y-62794701D01*
X240930472Y-62818039D01*
X240918212Y-62837863D01*
X240901056Y-62841835D01*
X240882380Y-62837307D01*
X240873743Y-62818675D01*
X240871641Y-62778366D01*
X240871641Y-62778300D01*
X240877263Y-62727998D01*
X240898403Y-62686705D01*
X240916859Y-62664316D01*
X240945186Y-62626037D01*
X240978261Y-62571516D01*
X241009529Y-62511672D01*
X241013357Y-62503561D01*
X241039135Y-62448645D01*
X241061677Y-62401578D01*
X241076950Y-62370753D01*
X241079143Y-62366599D01*
X241090129Y-62342241D01*
X241108456Y-62297295D01*
X241131312Y-62238778D01*
X241149776Y-62190108D01*
X241173834Y-62126188D01*
X241194943Y-62070666D01*
X241210448Y-62030492D01*
X241216836Y-62014534D01*
X241219783Y-61999244D01*
X241207716Y-61991540D01*
X241174645Y-61988952D01*
X241154410Y-61988795D01*
X241095448Y-61995019D01*
X241025690Y-62011498D01*
X240983707Y-62025435D01*
X240842628Y-62063862D01*
X240701621Y-62072887D01*
X240560596Y-62052507D01*
X240419465Y-62002716D01*
X240411594Y-61999075D01*
X240355915Y-61971196D01*
X240314033Y-61944030D01*
X240284765Y-61917222D01*
X240445293Y-61917222D01*
X240454846Y-61934787D01*
X240454926Y-61934867D01*
X240474280Y-61941759D01*
X240508005Y-61944781D01*
X240546422Y-61944277D01*
X240579854Y-61940593D01*
X240598621Y-61934073D01*
X240599403Y-61929725D01*
X240584029Y-61919809D01*
X240580023Y-61921045D01*
X240560487Y-61922471D01*
X240523542Y-61918577D01*
X240507501Y-61915906D01*
X240462863Y-61910922D01*
X240445293Y-61917222D01*
X240284765Y-61917222D01*
X240277157Y-61910254D01*
X240236498Y-61862546D01*
X240215472Y-61835678D01*
X240191609Y-61802499D01*
X240597100Y-61802499D01*
X240599119Y-61811243D01*
X240606905Y-61812304D01*
X240619011Y-61806923D01*
X240616710Y-61802499D01*
X240599255Y-61800739D01*
X240597100Y-61802499D01*
X240191609Y-61802499D01*
X240145195Y-61737964D01*
X240078156Y-61632532D01*
X240021118Y-61530404D01*
X240015196Y-61518153D01*
X240856934Y-61518153D01*
X240868126Y-61532433D01*
X240871641Y-61532860D01*
X240885921Y-61521668D01*
X240886349Y-61518153D01*
X240875157Y-61503872D01*
X240871641Y-61503445D01*
X240857361Y-61514637D01*
X240856934Y-61518153D01*
X240015196Y-61518153D01*
X239997423Y-61481384D01*
X242474768Y-61481384D01*
X242482122Y-61488737D01*
X242489476Y-61481384D01*
X242482122Y-61474030D01*
X242474768Y-61481384D01*
X239997423Y-61481384D01*
X239994864Y-61476091D01*
X239981876Y-61436541D01*
X239981659Y-61422553D01*
X242533598Y-61422553D01*
X242540952Y-61429907D01*
X242548306Y-61422553D01*
X242540952Y-61415199D01*
X242533598Y-61422553D01*
X239981659Y-61422553D01*
X239981230Y-61394958D01*
X239988314Y-61354030D01*
X239997286Y-61296017D01*
X240000156Y-61261607D01*
X240350510Y-61261607D01*
X240352833Y-61310031D01*
X240383236Y-61356704D01*
X240383392Y-61356869D01*
X240425219Y-61386689D01*
X240476534Y-61394819D01*
X240537622Y-61382268D01*
X242510562Y-61382268D01*
X242525019Y-61384623D01*
X242544095Y-61381919D01*
X242544323Y-61376898D01*
X242524638Y-61373387D01*
X242516133Y-61375737D01*
X242510562Y-61382268D01*
X240537622Y-61382268D01*
X240541628Y-61381445D01*
X240583664Y-61365497D01*
X240625057Y-61343346D01*
X240656255Y-61318659D01*
X240661160Y-61312742D01*
X240675323Y-61296470D01*
X240692952Y-61291649D01*
X240723533Y-61297491D01*
X240750527Y-61305330D01*
X240793526Y-61316918D01*
X240819001Y-61318160D01*
X240837139Y-61308579D01*
X240845365Y-61300865D01*
X240858706Y-61272500D01*
X240868319Y-61223135D01*
X240869112Y-61214196D01*
X241538385Y-61214196D01*
X241540404Y-61222939D01*
X241548190Y-61224001D01*
X241560296Y-61218620D01*
X241557995Y-61214196D01*
X241540541Y-61212436D01*
X241538385Y-61214196D01*
X240869112Y-61214196D01*
X240873830Y-61160994D01*
X240874866Y-61094302D01*
X240871055Y-61031281D01*
X240862025Y-60980155D01*
X240860181Y-60973972D01*
X240847999Y-60922495D01*
X240989302Y-60922495D01*
X240996656Y-60929849D01*
X241004009Y-60922495D01*
X241001558Y-60920044D01*
X241023620Y-60920044D01*
X241025638Y-60928788D01*
X241033425Y-60929849D01*
X241045531Y-60924468D01*
X241043230Y-60920044D01*
X241025775Y-60918284D01*
X241023620Y-60920044D01*
X241001558Y-60920044D01*
X240996656Y-60915142D01*
X240989302Y-60922495D01*
X240847999Y-60922495D01*
X240830331Y-60847832D01*
X240813936Y-60698724D01*
X240812682Y-60643909D01*
X241092255Y-60643909D01*
X241096719Y-60655427D01*
X241113825Y-60646474D01*
X241122777Y-60639230D01*
X241152330Y-60608767D01*
X241168602Y-60585684D01*
X241175824Y-60569616D01*
X241168344Y-60570030D01*
X241142023Y-60587561D01*
X241138080Y-60590363D01*
X241108276Y-60616645D01*
X241092847Y-60640136D01*
X241092255Y-60643909D01*
X240812682Y-60643909D01*
X240810812Y-60562159D01*
X240812689Y-60393022D01*
X240772304Y-60440954D01*
X240742617Y-60470754D01*
X240717089Y-60487449D01*
X240711083Y-60488754D01*
X240697639Y-60493515D01*
X240699533Y-60497907D01*
X240699167Y-60515336D01*
X240687277Y-60537949D01*
X240670165Y-60575876D01*
X240665735Y-60602931D01*
X240658941Y-60640768D01*
X240643778Y-60679619D01*
X240630925Y-60716048D01*
X240630518Y-60744736D01*
X240630644Y-60745073D01*
X240630705Y-60763470D01*
X240609698Y-60765689D01*
X240566289Y-60751635D01*
X240535438Y-60738327D01*
X240491092Y-60720808D01*
X240453775Y-60710443D01*
X240443075Y-60709235D01*
X240425897Y-60710988D01*
X240425251Y-60720841D01*
X240441797Y-60745686D01*
X240447284Y-60753138D01*
X240467948Y-60786398D01*
X240470399Y-60812410D01*
X240462432Y-60834030D01*
X240442261Y-60877198D01*
X240428459Y-60906796D01*
X240418775Y-60941623D01*
X240420231Y-60964551D01*
X240417462Y-60991241D01*
X240407297Y-61004263D01*
X240394051Y-61024702D01*
X240402459Y-61041916D01*
X240411757Y-61073798D01*
X240407582Y-61102472D01*
X240400188Y-61136291D01*
X240399156Y-61155851D01*
X240393770Y-61175856D01*
X240376638Y-61206474D01*
X240376066Y-61207327D01*
X240350510Y-61261607D01*
X240000156Y-61261607D01*
X240002918Y-61228494D01*
X240003384Y-61211701D01*
X240291141Y-61211701D01*
X240291426Y-61219210D01*
X240298045Y-61224001D01*
X240327573Y-61237545D01*
X240345919Y-61229159D01*
X240349522Y-61224001D01*
X240344051Y-61213410D01*
X240317298Y-61209518D01*
X240291141Y-61211701D01*
X240003384Y-61211701D01*
X240003894Y-61193344D01*
X240007214Y-61134349D01*
X240019885Y-61086200D01*
X240045969Y-61040104D01*
X240089530Y-60987266D01*
X240108653Y-60966618D01*
X240154140Y-60914464D01*
X240194101Y-60861611D01*
X240224720Y-60813897D01*
X240242179Y-60777161D01*
X240244074Y-60759515D01*
X240245686Y-60735255D01*
X240258777Y-60699573D01*
X240261565Y-60693970D01*
X240295627Y-60610990D01*
X240322233Y-60506881D01*
X240341828Y-60382409D01*
X240354541Y-60302633D01*
X240362265Y-60265749D01*
X240643772Y-60265749D01*
X240668615Y-60277990D01*
X240710717Y-60288788D01*
X240757929Y-60296104D01*
X240798099Y-60297900D01*
X240815855Y-60294623D01*
X240835308Y-60272457D01*
X240847535Y-60235912D01*
X240847708Y-60234737D01*
X240853486Y-60193979D01*
X240861399Y-60138187D01*
X240867555Y-60094797D01*
X240873498Y-60046177D01*
X240876048Y-60010636D01*
X240874897Y-59996722D01*
X240858522Y-59996917D01*
X240827875Y-60005351D01*
X240798383Y-60021552D01*
X240793178Y-60044289D01*
X240794098Y-60048375D01*
X240792233Y-60095761D01*
X240766366Y-60146956D01*
X240720133Y-60195703D01*
X240699384Y-60211324D01*
X240665053Y-60237643D01*
X240645491Y-60258052D01*
X240643772Y-60265749D01*
X240362265Y-60265749D01*
X240373039Y-60214296D01*
X240393432Y-60135863D01*
X240394478Y-60132380D01*
X240429355Y-60016729D01*
X240456598Y-59924938D01*
X240457724Y-59921022D01*
X240711786Y-59921022D01*
X240721431Y-59935367D01*
X240756816Y-59941561D01*
X240808617Y-59943280D01*
X240858118Y-59941446D01*
X240886371Y-59932606D01*
X240899468Y-59917994D01*
X240909674Y-59891699D01*
X240924051Y-59845675D01*
X240939873Y-59788789D01*
X240943560Y-59774595D01*
X240963769Y-59703148D01*
X240988073Y-59627872D01*
X241011241Y-59564965D01*
X241011425Y-59564512D01*
X241034124Y-59502415D01*
X241053736Y-59437797D01*
X241063572Y-59396397D01*
X241075614Y-59348516D01*
X241090371Y-59310459D01*
X241097981Y-59298330D01*
X241110148Y-59277033D01*
X241130339Y-59233592D01*
X241156207Y-59173385D01*
X241185405Y-59101794D01*
X241201074Y-59061986D01*
X241245820Y-58948298D01*
X241283356Y-58856705D01*
X241316294Y-58781575D01*
X241347241Y-58717274D01*
X241378808Y-58658169D01*
X241413605Y-58598628D01*
X241422517Y-58583989D01*
X241457094Y-58522505D01*
X241488644Y-58457751D01*
X241510677Y-58403111D01*
X241511652Y-58400144D01*
X241529614Y-58350043D01*
X241547853Y-58307913D01*
X241557665Y-58290242D01*
X241573881Y-58252951D01*
X241577605Y-58228603D01*
X241583643Y-58198704D01*
X241592536Y-58186747D01*
X241610740Y-58163778D01*
X241630455Y-58120986D01*
X241647956Y-58067492D01*
X241656684Y-58029692D01*
X241666655Y-57999496D01*
X241687799Y-57964810D01*
X241723508Y-57921124D01*
X241777174Y-57863926D01*
X241795037Y-57845729D01*
X241853985Y-57788622D01*
X241915308Y-57733462D01*
X241971099Y-57687145D01*
X242007802Y-57660183D01*
X242050095Y-57630389D01*
X242080421Y-57605441D01*
X242092363Y-57590632D01*
X242092371Y-57590441D01*
X242082567Y-57576962D01*
X242058568Y-57580385D01*
X242028494Y-57598450D01*
X242013599Y-57612391D01*
X241980875Y-57638169D01*
X241933175Y-57665224D01*
X241901552Y-57679323D01*
X241848687Y-57703630D01*
X241800350Y-57731549D01*
X241779940Y-57746405D01*
X241746976Y-57770020D01*
X241720612Y-57782040D01*
X241717249Y-57782426D01*
X241684704Y-57796299D01*
X241655866Y-57834582D01*
X241636436Y-57885379D01*
X241611878Y-57945885D01*
X241577384Y-57979645D01*
X241539786Y-57988332D01*
X241511268Y-57997004D01*
X241504526Y-58019436D01*
X241518994Y-58050258D01*
X241549503Y-58080589D01*
X241594939Y-58116148D01*
X241534796Y-58163783D01*
X241499839Y-58196724D01*
X241478253Y-58227331D01*
X241474652Y-58240058D01*
X241464682Y-58267809D01*
X241452591Y-58277165D01*
X241433456Y-58297346D01*
X241430529Y-58311112D01*
X241418376Y-58335274D01*
X241392469Y-58353934D01*
X241354408Y-58371276D01*
X241386127Y-58396960D01*
X241417846Y-58422645D01*
X241344253Y-58565461D01*
X241308289Y-58633019D01*
X241271242Y-58698905D01*
X241238518Y-58753664D01*
X241222947Y-58777624D01*
X241195860Y-58822083D01*
X241188600Y-58847537D01*
X241192978Y-58852885D01*
X241195968Y-58867435D01*
X241179166Y-58901017D01*
X241160086Y-58929280D01*
X241129453Y-58977916D01*
X241121006Y-59007617D01*
X241124122Y-59014431D01*
X241130820Y-59026541D01*
X241127940Y-59045496D01*
X241113445Y-59077663D01*
X241090100Y-59120816D01*
X241076251Y-59146225D01*
X241054748Y-59186222D01*
X241042057Y-59209985D01*
X241016822Y-59252760D01*
X240992784Y-59286200D01*
X240983095Y-59296355D01*
X240961988Y-59321174D01*
X240968688Y-59336558D01*
X240999597Y-59341430D01*
X241024547Y-59345353D01*
X241025499Y-59354515D01*
X241006412Y-59365007D01*
X240971244Y-59372918D01*
X240967241Y-59373390D01*
X240932652Y-59383882D01*
X240918805Y-59408813D01*
X240918434Y-59411166D01*
X240905265Y-59442520D01*
X240878482Y-59478939D01*
X240870635Y-59487250D01*
X240843641Y-59517151D01*
X240828621Y-59539434D01*
X240827518Y-59543481D01*
X240839525Y-59557601D01*
X240869332Y-59576302D01*
X240878995Y-59581143D01*
X240914563Y-59602793D01*
X240930086Y-59622156D01*
X240922964Y-59634830D01*
X240912087Y-59637145D01*
X240882247Y-59639496D01*
X240864287Y-59640822D01*
X240841376Y-59651782D01*
X240839444Y-59669765D01*
X240835393Y-59702734D01*
X240828160Y-59715700D01*
X240818566Y-59744000D01*
X240820586Y-59756390D01*
X240815515Y-59779145D01*
X240791916Y-59816175D01*
X240761809Y-59852561D01*
X240725904Y-59894697D01*
X240711786Y-59921022D01*
X240457724Y-59921022D01*
X240477338Y-59852790D01*
X240492702Y-59796066D01*
X240503821Y-59750547D01*
X240511824Y-59712015D01*
X240517841Y-59676250D01*
X240519361Y-59665889D01*
X240537754Y-59566266D01*
X240563014Y-59470595D01*
X240592970Y-59384926D01*
X240625449Y-59315311D01*
X240658278Y-59267798D01*
X240664518Y-59261639D01*
X240684463Y-59231674D01*
X240701908Y-59185465D01*
X240708096Y-59159601D01*
X240722476Y-59078347D01*
X240735318Y-58995981D01*
X240745550Y-58920315D01*
X240752103Y-58859161D01*
X240753981Y-58824783D01*
X240757671Y-58790238D01*
X240767646Y-58734564D01*
X240782259Y-58664960D01*
X240799863Y-58588624D01*
X240818812Y-58512752D01*
X240837458Y-58444544D01*
X240851114Y-58400144D01*
X240870366Y-58354890D01*
X240889100Y-58319253D01*
X241371699Y-58319253D01*
X241379053Y-58326606D01*
X241386407Y-58319253D01*
X241379053Y-58311899D01*
X241371699Y-58319253D01*
X240889100Y-58319253D01*
X240900560Y-58297453D01*
X240935489Y-58239551D01*
X240938912Y-58234324D01*
X240980750Y-58164823D01*
X241459945Y-58164823D01*
X241465326Y-58176929D01*
X241469750Y-58174628D01*
X241471510Y-58157174D01*
X241469750Y-58155018D01*
X241461006Y-58157037D01*
X241459945Y-58164823D01*
X240980750Y-58164823D01*
X240991165Y-58147521D01*
X241031763Y-58064433D01*
X241057521Y-57992071D01*
X241064326Y-57958425D01*
X241058836Y-57923079D01*
X241038901Y-57876909D01*
X241027566Y-57857618D01*
X240989345Y-57786940D01*
X240959530Y-57710897D01*
X240940800Y-57638277D01*
X240935837Y-57577869D01*
X240937574Y-57562664D01*
X240953821Y-57427138D01*
X240953691Y-57293398D01*
X240946079Y-57222897D01*
X240940322Y-57143564D01*
X240943183Y-57044794D01*
X240953762Y-56934981D01*
X240971157Y-56822522D01*
X240994466Y-56715810D01*
X241004440Y-56679357D01*
X241025595Y-56592318D01*
X241045250Y-56484609D01*
X241062246Y-56364971D01*
X241075420Y-56242148D01*
X241083611Y-56124881D01*
X241085516Y-56068992D01*
X241087694Y-55995947D01*
X241092327Y-55939146D01*
X241101392Y-55888427D01*
X241116866Y-55833622D01*
X241140725Y-55764567D01*
X241149330Y-55740875D01*
X241174957Y-55671814D01*
X241198836Y-55609478D01*
X241218167Y-55561050D01*
X241229524Y-55534969D01*
X241240049Y-55503064D01*
X241251882Y-55450876D01*
X241263114Y-55387362D01*
X241267707Y-55355674D01*
X241277696Y-55292595D01*
X241288973Y-55239202D01*
X241299770Y-55203229D01*
X241304677Y-55193891D01*
X241315900Y-55169192D01*
X241328611Y-55124460D01*
X241340273Y-55068805D01*
X241341532Y-55061523D01*
X241357951Y-54969215D01*
X241373220Y-54900189D01*
X241389951Y-54848553D01*
X241410761Y-54808413D01*
X241438262Y-54773878D01*
X241475070Y-54739057D01*
X241490462Y-54725857D01*
X241534137Y-54690224D01*
X241569811Y-54663514D01*
X241591220Y-54650346D01*
X241593670Y-54649710D01*
X241615128Y-54643527D01*
X241656405Y-54626965D01*
X241711113Y-54603003D01*
X241772865Y-54574622D01*
X241835273Y-54544801D01*
X241891950Y-54516520D01*
X241936508Y-54492760D01*
X241958187Y-54479660D01*
X241995932Y-54457292D01*
X242026613Y-54444652D01*
X242033278Y-54443618D01*
X242057452Y-54437171D01*
X242098135Y-54420567D01*
X242140137Y-54400557D01*
X242201745Y-54373346D01*
X242268970Y-54349609D01*
X242307021Y-54339254D01*
X242385473Y-54315123D01*
X242455207Y-54281443D01*
X242510234Y-54242028D01*
X242544568Y-54200692D01*
X242551394Y-54183609D01*
X242563406Y-54136674D01*
X242599310Y-54172579D01*
G37*
D10*
%TO.C,SW5*%
X136642000Y-57150000D02*
G75*
G02*
X123708000Y-57150000I-6467000J0D01*
G01*
X123708000Y-57150000D02*
G75*
G02*
X136642000Y-57150000I6467000J0D01*
G01*
%TO.C,SW8*%
X193792000Y-57150000D02*
G75*
G02*
X180858000Y-57150000I-6467000J0D01*
G01*
X180858000Y-57150000D02*
G75*
G02*
X193792000Y-57150000I6467000J0D01*
G01*
%TO.C,SW13*%
X84254500Y-76200000D02*
G75*
G02*
X71320500Y-76200000I-6467000J0D01*
G01*
X71320500Y-76200000D02*
G75*
G02*
X84254500Y-76200000I6467000J0D01*
G01*
%TO.C,SW21*%
X243797000Y-76200000D02*
G75*
G02*
X230863000Y-76200000I-6467000J0D01*
G01*
X230863000Y-76200000D02*
G75*
G02*
X243797000Y-76200000I6467000J0D01*
G01*
%TO.C,SW36*%
X200937000Y-114300000D02*
G75*
G02*
X188003000Y-114300000I-6467000J0D01*
G01*
X188003000Y-114300000D02*
G75*
G02*
X200937000Y-114300000I6467000J0D01*
G01*
%TO.C,SW35*%
X172359000Y-114300000D02*
G75*
G02*
X159425000Y-114300000I-6467000J0D01*
G01*
X159425000Y-114300000D02*
G75*
G02*
X172359000Y-114300000I6467000J0D01*
G01*
%TO.C,SW25*%
X131879500Y-95250000D02*
G75*
G02*
X118945500Y-95250000I-6467000J0D01*
G01*
X118945500Y-95250000D02*
G75*
G02*
X131879500Y-95250000I6467000J0D01*
G01*
%TO.C,SW33*%
X110447000Y-114300000D02*
G75*
G02*
X97513000Y-114300000I-6467000J0D01*
G01*
X97513000Y-114300000D02*
G75*
G02*
X110447000Y-114300000I6467000J0D01*
G01*
%TO.C,SW32*%
X64998250Y-114300000D02*
G75*
G02*
X52064250Y-114300000I-6467000J0D01*
G01*
X52064250Y-114300000D02*
G75*
G02*
X64998250Y-114300000I6467000J0D01*
G01*
%TO.C,SW3*%
X98542000Y-57150000D02*
G75*
G02*
X85608000Y-57150000I-6467000J0D01*
G01*
X85608000Y-57150000D02*
G75*
G02*
X98542000Y-57150000I6467000J0D01*
G01*
%TO.C,SW26*%
X150929500Y-95250000D02*
G75*
G02*
X137995500Y-95250000I-6467000J0D01*
G01*
X137995500Y-95250000D02*
G75*
G02*
X150929500Y-95250000I6467000J0D01*
G01*
%TO.C,SW6*%
X155692000Y-57150000D02*
G75*
G02*
X142758000Y-57150000I-6467000J0D01*
G01*
X142758000Y-57150000D02*
G75*
G02*
X155692000Y-57150000I6467000J0D01*
G01*
%TO.C,SW30*%
X227129500Y-95250000D02*
G75*
G02*
X214195500Y-95250000I-6467000J0D01*
G01*
X214195500Y-95250000D02*
G75*
G02*
X227129500Y-95250000I6467000J0D01*
G01*
%TO.C,SW29*%
X208079500Y-95250000D02*
G75*
G02*
X195145500Y-95250000I-6467000J0D01*
G01*
X195145500Y-95250000D02*
G75*
G02*
X208079500Y-95250000I6467000J0D01*
G01*
%TO.C,SW37*%
X246179500Y-114300000D02*
G75*
G02*
X233245500Y-114300000I-6467000J0D01*
G01*
X233245500Y-114300000D02*
G75*
G02*
X246179500Y-114300000I6467000J0D01*
G01*
%TO.C,SW10*%
X231892000Y-57150000D02*
G75*
G02*
X218958000Y-57150000I-6467000J0D01*
G01*
X218958000Y-57150000D02*
G75*
G02*
X231892000Y-57150000I6467000J0D01*
G01*
%TO.C,SW19*%
X198554500Y-76200000D02*
G75*
G02*
X185620500Y-76200000I-6467000J0D01*
G01*
X185620500Y-76200000D02*
G75*
G02*
X198554500Y-76200000I6467000J0D01*
G01*
%TD*%
D12*
%TO.C,H2*%
X120650000Y-57150000D03*
%TD*%
%TO.C,H11*%
X153987500Y-95250000D03*
%TD*%
%TO.C,H1*%
X63500000Y-57150000D03*
%TD*%
%TO.C,H9*%
X70643750Y-95250000D03*
%TD*%
%TO.C,H13*%
X232568750Y-95250000D03*
%TD*%
%TO.C,H5*%
X87312500Y-76200000D03*
%TD*%
%TO.C,H10*%
X115887500Y-95250000D03*
%TD*%
%TO.C,H8*%
X220662500Y-76200000D03*
%TD*%
%TO.C,H15*%
X123031250Y-114300000D03*
%TD*%
%TO.C,H3*%
X177800000Y-57150000D03*
%TD*%
%TO.C,H17*%
X230187500Y-114300000D03*
%TD*%
%TO.C,H4*%
X234950000Y-57150000D03*
%TD*%
%TO.C,H6*%
X125412500Y-76200000D03*
%TD*%
%TO.C,H16*%
X175418750Y-114300000D03*
%TD*%
%TO.C,H12*%
X192087500Y-95250000D03*
%TD*%
%TO.C,H7*%
X182562500Y-76200000D03*
%TD*%
%TO.C,H14*%
X68262500Y-114300000D03*
%TD*%
M02*
