M48
; DRILL file {KiCad (7.0.0)} date Sat Mar  4 00:29:44 2023
; FORMAT={-:-/ absolute / inch / decimal}
; #@! TF.CreationDate,2023-03-04T00:29:44+01:00
; #@! TF.GenerationSoftware,Kicad,Pcbnew,(7.0.0)
; #@! TF.FileFunction,Plated,1,4,PTH
FMAT,2
INCH
; #@! TA.AperFunction,Plated,PTH,ViaDrill
T1C0.0157
; #@! TA.AperFunction,Plated,PTH,ComponentDrill
T2C0.0394
%
G90
G05
T1
X1.855Y-3.0
X1.865Y-2.0
X1.95Y-2.75
X2.025Y-3.75
X2.085Y-2.25
X2.14Y-3.5
X2.165Y-2.25
X2.18Y-3.0
X2.255Y-3.0
X2.365Y-2.585
X2.365Y-2.665
X2.365Y-3.75
X2.445Y-2.585
X2.445Y-2.665
X2.445Y-3.75
X2.53Y-3.34
X2.53Y-3.42
X2.585Y-3.0
X2.61Y-3.34
X2.61Y-3.42
X2.695Y-3.0
X2.835Y-2.25
X2.915Y-2.25
X2.925Y-3.595
X2.925Y-3.91
X2.98Y-1.925
X2.985Y-4.25
X2.985Y-4.755
X3.005Y-2.59
X3.005Y-2.67
X3.02Y-3.0
X3.045Y-4.085
X3.045Y-4.165
X3.0484Y-2.0116
X3.065Y-3.75
X3.085Y-2.59
X3.085Y-2.67
X3.105Y-3.0
X3.125Y-4.085
X3.16Y-2.165
X3.18Y-2.565
X3.2Y-2.255
X3.2106Y-4.5
X3.25Y-1.9685
X3.25Y-2.525
X3.25Y-3.335
X3.25Y-3.415
X3.2894Y-4.5
X3.31Y-2.75
X3.33Y-3.335
X3.33Y-3.415
X3.335Y-2.29
X3.345Y-2.165
X3.375Y-2.525
X3.375Y-2.59
X3.395Y-3.75
X3.415Y-4.085
X3.415Y-4.185
X3.435Y-2.86
X3.435Y-3.15
X3.4478Y-2.0125
X3.465Y-4.05
X3.4769Y-3.75
X3.495Y-4.8
X3.52Y-1.925
X3.585Y-2.25
X3.62Y-4.39
X3.62Y-4.585
X3.62Y-4.715
X3.65Y-4.0
X3.65Y-4.21
X3.6644Y-2.25
X3.74Y-4.5
X3.755Y-3.99
X3.775Y-3.0
X3.81Y-3.75
X3.82Y-3.99
X3.85Y-3.0
X3.875Y-4.09
X3.875Y-4.225
X3.89Y-2.0
X3.925Y-2.59
X3.935Y-2.73
X3.98Y-3.335
X3.98Y-3.415
X3.98Y-4.0
X3.98Y-4.09
X3.985Y-4.225
X4.0Y-2.25
X4.005Y-2.59
X4.005Y-2.735
X4.0543Y-4.5
X4.06Y-3.335
X4.06Y-3.415
X4.1331Y-4.5
X4.1481Y-3.75
X4.185Y-4.09
X4.19Y-3.0
X4.205Y-4.225
X4.2269Y-3.75
X4.325Y-4.79
X4.335Y-2.25
X4.4144Y-2.25
X4.42Y-4.005
X4.42Y-4.09
X4.42Y-4.225
X4.43Y-4.79
X4.46Y-4.5
X4.51Y-4.005
X4.515Y-4.09
X4.515Y-4.225
X4.525Y-3.0
X4.56Y-3.595
X4.56Y-3.91
X4.6019Y-3.0
X4.685Y-2.59
X4.73Y-3.335
X4.73Y-3.415
X4.75Y-2.095
X4.75Y-2.4
X4.76Y-4.005
X4.76Y-4.09
X4.76Y-4.225
X4.765Y-2.59
X4.765Y-2.735
X4.81Y-3.335
X4.81Y-3.415
X4.85Y-4.09
X4.865Y-4.225
X4.8981Y-3.75
X4.935Y-2.855
X4.935Y-3.15
X4.9769Y-3.75
X5.085Y-2.25
X5.1644Y-2.25
X5.175Y-4.01
X5.175Y-4.09
X5.1793Y-4.5
X5.2581Y-4.5
X5.275Y-3.0
X5.275Y-4.005
X5.275Y-4.09
X5.31Y-3.75
X5.3519Y-3.0
X5.405Y-4.09
X5.42Y-2.585
X5.445Y-4.015
X5.475Y-4.225
X5.48Y-3.335
X5.48Y-3.415
X5.485Y-4.09
X5.5Y-2.25
X5.51Y-2.585
X5.51Y-2.735
X5.5184Y-4.4841
X5.52Y-4.1584
X5.56Y-3.335
X5.56Y-3.415
X5.56Y-4.1585
X5.56Y-4.2235
X5.585Y-2.855
X5.585Y-3.15
X5.59Y-4.795
X5.595Y-4.355
X5.6Y-4.525
X5.645Y-4.225
X5.6481Y-3.75
X5.685Y-4.795
X5.6874Y-4.66
X5.695Y-2.585
X5.695Y-2.665
X5.695Y-2.855
X5.695Y-3.0
X5.695Y-3.15
X5.725Y-4.2
X5.725Y-4.525
X5.7269Y-3.75
X5.735Y-3.3416
X5.775Y-2.585
X5.775Y-2.665
X5.775Y-2.855
X5.775Y-3.15
X5.785Y-4.79
X5.79Y-4.225
X5.795Y-3.34
X5.8227Y-4.3021
X5.835Y-2.25
X5.835Y-4.015
X5.87Y-4.755
X5.8722Y-4.265
X5.8724Y-4.5876
X5.8736Y-4.7043
X5.8856Y-4.02
X5.915Y-2.25
X5.9222Y-4.53
X5.925Y-4.02
X5.9272Y-4.3628
X5.945Y-3.91
X5.955Y-4.755
X5.9984Y-4.05
X6.0072Y-4.445
X6.025Y-3.0
X6.025Y-4.015
X6.035Y-4.3625
X6.035Y-4.755
X6.0372Y-4.53
X6.06Y-3.455
X6.06Y-3.595
X6.06Y-3.91
X6.08Y-4.17
X6.1Y-3.0
X6.1Y-4.015
X6.1636Y-4.6114
X6.165Y-2.585
X6.165Y-2.665
X6.1773Y-4.1584
X6.1787Y-4.1978
X6.185Y-3.91
X6.1926Y-4.2639
X6.195Y-4.36
X6.195Y-4.44
X6.195Y-4.725
X6.195Y-4.7702
X6.195Y-4.8116
X6.1952Y-4.3998
X6.21Y-4.085
X6.21Y-4.225
X6.24Y-4.015
X6.245Y-2.585
X6.245Y-2.665
X6.245Y-3.335
X6.245Y-3.415
X6.25Y-2.25
X6.26Y-4.36
X6.3Y-4.74
X6.325Y-3.335
X6.325Y-3.415
X6.335Y-4.08
X6.335Y-4.225
X6.3981Y-3.75
X6.44Y-3.0
X6.4769Y-3.75
X6.48Y-4.085
X6.49Y-4.5
X6.57Y-4.5
X6.585Y-2.25
X6.665Y-2.25
X6.675Y-4.015
X6.675Y-4.08
X6.765Y-4.015
X6.765Y-4.08
X6.77Y-3.0
X6.815Y-3.75
X6.85Y-3.0
X6.875Y-4.08
X6.875Y-4.225
X6.92Y-2.585
X6.92Y-2.665
X6.925Y-4.015
X6.975Y-3.335
X6.975Y-3.415
X6.975Y-4.325
X6.975Y-4.69
X7.0Y-2.095
X7.0Y-2.4
X7.0Y-2.585
X7.0Y-2.665
X7.055Y-3.335
X7.055Y-3.415
X7.09Y-4.23
X7.1481Y-3.75
X7.165Y-4.09
X7.17Y-4.23
X7.185Y-2.85
X7.185Y-3.15
X7.22Y-4.325
X7.2269Y-3.75
X7.29Y-4.5
X7.325Y-4.76
X7.335Y-2.25
X7.355Y-4.235
X7.375Y-4.02
X7.375Y-4.085
X7.405Y-4.1954
X7.41Y-4.81
X7.4144Y-2.25
X7.455Y-4.02
X7.455Y-4.085
X7.525Y-3.0
X7.56Y-3.595
X7.565Y-3.91
X7.565Y-4.085
X7.6Y-3.0
X7.615Y-4.5
X7.625Y-4.0916
X7.68Y-2.585
X7.68Y-2.665
X7.69Y-4.02
X7.695Y-4.5
X7.73Y-3.335
X7.73Y-3.415
X7.75Y-2.25
X7.76Y-2.585
X7.76Y-2.665
X7.81Y-3.335
X7.81Y-3.415
X7.845Y-4.81
X7.88Y-4.1612
X7.8981Y-3.75
X7.915Y-4.05
X7.915Y-4.8
X7.94Y-3.0
X7.9769Y-3.75
X7.99Y-4.35
X8.025Y-4.5
X8.03Y-4.265
X8.075Y-4.16
X8.0758Y-4.0785
X8.085Y-2.25
X8.0996Y-4.1907
X8.165Y-2.25
X8.165Y-3.995
X8.165Y-4.05
X8.245Y-4.05
X8.26Y-4.28
X8.275Y-3.0
X8.3Y-4.065
X8.3Y-4.16
X8.315Y-3.75
X8.35Y-3.0
X8.385Y-4.16
X8.39Y-4.065
X8.415Y-2.585
X8.415Y-2.665
X8.46Y-4.5
X8.475Y-3.335
X8.475Y-3.415
X8.495Y-2.585
X8.495Y-2.665
X8.5Y-2.25
X8.54Y-4.5
X8.555Y-3.335
X8.555Y-3.415
X8.6481Y-3.75
X8.7269Y-3.75
X8.77Y-4.245
X8.77Y-4.75
X8.83Y-2.85
X8.83Y-3.155
X8.835Y-2.25
X8.895Y-4.06
X8.915Y-2.25
X8.975Y-3.0
X8.995Y-4.06
X9.025Y-3.75
X9.115Y-3.59
X9.115Y-3.91
X9.13Y-2.585
X9.13Y-2.665
X9.14Y-3.335
X9.14Y-3.415
X9.17Y-4.045
X9.21Y-2.585
X9.21Y-2.665
X9.22Y-3.335
X9.22Y-3.415
X9.25Y-2.1
X9.25Y-2.405
X9.27Y-4.065
X9.305Y-3.0
X9.38Y-3.0
X9.47Y-3.415
X9.4919Y-3.75
X9.57Y-3.75
X9.585Y-2.25
X9.605Y-3.375
X9.61Y-2.745
X9.665Y-2.25
X9.6875Y-3.0
X9.6875Y-3.375
X9.8Y-3.5
X9.81Y-3.375
X9.885Y-2.0
X9.885Y-3.745
X9.89Y-2.5
T2
X7.125Y-4.4498
X7.125Y-4.5498
T0
M30
