%TF.GenerationSoftware,KiCad,Pcbnew,8.0.8*%
%TF.CreationDate,2025-03-01T19:05:57+01:00*%
%TF.ProjectId,numbpad,6e756d62-7061-4642-9e6b-696361645f70,rev?*%
%TF.SameCoordinates,Original*%
%TF.FileFunction,Soldermask,Bot*%
%TF.FilePolarity,Negative*%
%FSLAX46Y46*%
G04 Gerber Fmt 4.6, Leading zero omitted, Abs format (unit mm)*
G04 Created by KiCad (PCBNEW 8.0.8) date 2025-03-01 19:05:57*
%MOMM*%
%LPD*%
G01*
G04 APERTURE LIST*
G04 Aperture macros list*
%AMRoundRect*
0 Rectangle with rounded corners*
0 $1 Rounding radius*
0 $2 $3 $4 $5 $6 $7 $8 $9 X,Y pos of 4 corners*
0 Add a 4 corners polygon primitive as box body*
4,1,4,$2,$3,$4,$5,$6,$7,$8,$9,$2,$3,0*
0 Add four circle primitives for the rounded corners*
1,1,$1+$1,$2,$3*
1,1,$1+$1,$4,$5*
1,1,$1+$1,$6,$7*
1,1,$1+$1,$8,$9*
0 Add four rect primitives between the rounded corners*
20,1,$1+$1,$2,$3,$4,$5,0*
20,1,$1+$1,$4,$5,$6,$7,0*
20,1,$1+$1,$6,$7,$8,$9,0*
20,1,$1+$1,$8,$9,$2,$3,0*%
%AMRotRect*
0 Rectangle, with rotation*
0 The origin of the aperture is its center*
0 $1 length*
0 $2 width*
0 $3 Rotation angle, in degrees counterclockwise*
0 Add horizontal line*
21,1,$1,$2,0,0,$3*%
G04 Aperture macros list end*
%ADD10C,2.200000*%
%ADD11RoundRect,0.140000X-0.170000X0.140000X-0.170000X-0.140000X0.170000X-0.140000X0.170000X0.140000X0*%
%ADD12R,0.419100X1.778000*%
%ADD13RoundRect,0.135000X-0.185000X0.135000X-0.185000X-0.135000X0.185000X-0.135000X0.185000X0.135000X0*%
%ADD14RoundRect,0.135000X-0.135000X-0.185000X0.135000X-0.185000X0.135000X0.185000X-0.135000X0.185000X0*%
%ADD15RoundRect,0.140000X0.140000X0.170000X-0.140000X0.170000X-0.140000X-0.170000X0.140000X-0.170000X0*%
%ADD16RoundRect,0.140000X-0.140000X-0.170000X0.140000X-0.170000X0.140000X0.170000X-0.140000X0.170000X0*%
%ADD17RoundRect,0.140000X0.170000X-0.140000X0.170000X0.140000X-0.170000X0.140000X-0.170000X-0.140000X0*%
%ADD18RoundRect,0.135000X0.135000X0.185000X-0.135000X0.185000X-0.135000X-0.185000X0.135000X-0.185000X0*%
%ADD19RoundRect,0.062500X0.309359X-0.220971X-0.220971X0.309359X-0.309359X0.220971X0.220971X-0.309359X0*%
%ADD20RoundRect,0.062500X0.309359X0.220971X0.220971X0.309359X-0.309359X-0.220971X-0.220971X-0.309359X0*%
%ADD21RotRect,5.600000X5.600000X135.000000*%
%ADD22R,1.700000X1.700000*%
%ADD23O,1.700000X1.700000*%
%ADD24C,0.750000*%
%ADD25RoundRect,0.050000X-0.300000X-0.725000X0.300000X-0.725000X0.300000X0.725000X-0.300000X0.725000X0*%
%ADD26RoundRect,0.050000X-0.150000X-0.725000X0.150000X-0.725000X0.150000X0.725000X-0.150000X0.725000X0*%
%ADD27RoundRect,0.050000X-0.850000X-0.850000X0.850000X-0.850000X0.850000X0.850000X-0.850000X0.850000X0*%
%ADD28O,1.100000X1.700000*%
%ADD29RoundRect,0.150000X0.150000X-0.512500X0.150000X0.512500X-0.150000X0.512500X-0.150000X-0.512500X0*%
%ADD30RoundRect,0.150000X0.150000X-0.587500X0.150000X0.587500X-0.150000X0.587500X-0.150000X-0.587500X0*%
%ADD31RoundRect,0.243750X0.243750X0.456250X-0.243750X0.456250X-0.243750X-0.456250X0.243750X-0.456250X0*%
%ADD32RoundRect,0.175000X0.175000X0.325000X-0.175000X0.325000X-0.175000X-0.325000X0.175000X-0.325000X0*%
%ADD33RoundRect,0.150000X0.200000X0.150000X-0.200000X0.150000X-0.200000X-0.150000X0.200000X-0.150000X0*%
G04 APERTURE END LIST*
D10*
%TO.C,H6*%
X123031250Y-100012500D03*
%TD*%
D11*
%TO.C,C7*%
X144462500Y-105402500D03*
X144462500Y-106362500D03*
%TD*%
%TO.C,C8*%
X143468750Y-105402500D03*
X143468750Y-106362500D03*
%TD*%
D12*
%TO.C,U4*%
X140601700Y-119263160D03*
X141251940Y-119263160D03*
X141902180Y-119263160D03*
X142552420Y-119263160D03*
X143197580Y-119263160D03*
X143847820Y-119263160D03*
X144498060Y-119263160D03*
X145148300Y-119263160D03*
X145148300Y-125211840D03*
X144498060Y-125211840D03*
X143847820Y-125211840D03*
X143197580Y-125211840D03*
X142552420Y-125211840D03*
X141902180Y-125211840D03*
X141251940Y-125211840D03*
X140601700Y-125211840D03*
%TD*%
D10*
%TO.C,H1*%
X123031250Y-80962500D03*
%TD*%
D13*
%TO.C,R_USB2*%
X144164150Y-69784850D03*
X144164150Y-70804850D03*
%TD*%
%TO.C,R9*%
X144462500Y-128077500D03*
X144462500Y-129097500D03*
%TD*%
%TO.C,R7*%
X142875000Y-128077500D03*
X142875000Y-129097500D03*
%TD*%
D10*
%TO.C,H2*%
X161131250Y-80962500D03*
%TD*%
D14*
%TO.C,R1*%
X150240872Y-98228801D03*
X151260872Y-98228801D03*
%TD*%
D15*
%TO.C,C5*%
X136525000Y-99618750D03*
X135565000Y-99618750D03*
%TD*%
D16*
%TO.C,C1*%
X150240872Y-101403801D03*
X151200872Y-101403801D03*
%TD*%
%TO.C,C11*%
X140541987Y-115462072D03*
X141501987Y-115462072D03*
%TD*%
%TO.C,C_LDO1*%
X140013750Y-77931250D03*
X140973750Y-77931250D03*
%TD*%
D17*
%TO.C,C3*%
X142575000Y-92672551D03*
X142575000Y-91712551D03*
%TD*%
D16*
%TO.C,C4*%
X150246844Y-100429031D03*
X151206844Y-100429031D03*
%TD*%
D18*
%TO.C,R5*%
X130401250Y-98825000D03*
X129381250Y-98825000D03*
%TD*%
D10*
%TO.C,H3*%
X123031250Y-119062500D03*
%TD*%
%TO.C,H4*%
X161131250Y-119062500D03*
%TD*%
D15*
%TO.C,C10*%
X142051250Y-109912072D03*
X141091250Y-109912072D03*
%TD*%
D18*
%TO.C,R13*%
X142072427Y-106362500D03*
X141052427Y-106362500D03*
%TD*%
D19*
%TO.C,U1*%
X147290927Y-99508687D03*
X146937374Y-99862240D03*
X146583820Y-100215794D03*
X146230267Y-100569347D03*
X145876714Y-100922900D03*
X145523160Y-101276454D03*
X145169607Y-101630007D03*
X144816053Y-101983561D03*
X144462500Y-102337114D03*
X144108947Y-102690667D03*
X143755393Y-103044221D03*
X143401840Y-103397774D03*
D20*
X142429568Y-103397774D03*
X142076015Y-103044221D03*
X141722461Y-102690667D03*
X141368908Y-102337114D03*
X141015355Y-101983561D03*
X140661801Y-101630007D03*
X140308248Y-101276454D03*
X139954694Y-100922900D03*
X139601141Y-100569347D03*
X139247588Y-100215794D03*
X138894034Y-99862240D03*
X138540481Y-99508687D03*
D19*
X138540481Y-98536415D03*
X138894034Y-98182862D03*
X139247588Y-97829308D03*
X139601141Y-97475755D03*
X139954694Y-97122202D03*
X140308248Y-96768648D03*
X140661801Y-96415095D03*
X141015355Y-96061541D03*
X141368908Y-95707988D03*
X141722461Y-95354435D03*
X142076015Y-95000881D03*
X142429568Y-94647328D03*
D20*
X143401840Y-94647328D03*
X143755393Y-95000881D03*
X144108947Y-95354435D03*
X144462500Y-95707988D03*
X144816053Y-96061541D03*
X145169607Y-96415095D03*
X145523160Y-96768648D03*
X145876714Y-97122202D03*
X146230267Y-97475755D03*
X146583820Y-97829308D03*
X146937374Y-98182862D03*
X147290927Y-98536415D03*
D21*
X142915704Y-99022551D03*
%TD*%
D10*
%TO.C,H5*%
X161131250Y-100012500D03*
%TD*%
D14*
%TO.C,R12*%
X141061250Y-108743750D03*
X142081250Y-108743750D03*
%TD*%
D11*
%TO.C,C9*%
X139306250Y-123345000D03*
X139306250Y-124305000D03*
%TD*%
D22*
%TO.C,SW17*%
X156393750Y-102056250D03*
D23*
X156393750Y-99516250D03*
%TD*%
D16*
%TO.C,C_LDO2*%
X140013750Y-82693750D03*
X140973750Y-82693750D03*
%TD*%
D18*
%TO.C,R3*%
X130391710Y-101837418D03*
X129371710Y-101837418D03*
%TD*%
D24*
%TO.C,USB1*%
X139191250Y-66232000D03*
X144971250Y-66232000D03*
D25*
X138856250Y-67677000D03*
X139631250Y-67677000D03*
D26*
X140331250Y-67677000D03*
X140831250Y-67677000D03*
X141331250Y-67677000D03*
X141831250Y-67677000D03*
X142331250Y-67677000D03*
X142831250Y-67677000D03*
X143331250Y-67677000D03*
X143831250Y-67677000D03*
D25*
X144531250Y-67677000D03*
X145306250Y-67677000D03*
D27*
X137081250Y-66782000D03*
D28*
X137761250Y-62582000D03*
X146401250Y-62582000D03*
D27*
X147081250Y-66782000D03*
%TD*%
D17*
%TO.C,C6*%
X143668750Y-92673365D03*
X143668750Y-91713365D03*
%TD*%
D29*
%TO.C,U5*%
X142451987Y-113624572D03*
X141501987Y-113624572D03*
X140551987Y-113624572D03*
X140551987Y-111349572D03*
X142451987Y-111349572D03*
%TD*%
D18*
%TO.C,R11*%
X142081250Y-107550000D03*
X141061250Y-107550000D03*
%TD*%
D13*
%TO.C,R6*%
X139700000Y-128077500D03*
X139700000Y-129097500D03*
%TD*%
D30*
%TO.C,U3*%
X141443750Y-81250000D03*
X139543750Y-81250000D03*
X140493750Y-79375000D03*
%TD*%
D13*
%TO.C,R8*%
X141287500Y-128077500D03*
X141287500Y-129097500D03*
%TD*%
D18*
%TO.C,R4*%
X130401250Y-99806250D03*
X129381250Y-99806250D03*
%TD*%
%TO.C,R2*%
X130401250Y-100806250D03*
X129381250Y-100806250D03*
%TD*%
D16*
%TO.C,C2*%
X150252792Y-99231581D03*
X151212792Y-99231581D03*
%TD*%
D31*
%TO.C,F1*%
X141332900Y-75741100D03*
X139457900Y-75741100D03*
%TD*%
D13*
%TO.C,R_USB1*%
X140989150Y-69784850D03*
X140989150Y-70804850D03*
%TD*%
D32*
%TO.C,U2*%
X143576650Y-72309850D03*
D33*
X143576650Y-74009850D03*
X141576650Y-74009850D03*
X141576650Y-72109850D03*
%TD*%
M02*
