0
SECTION
2
HEADER
9
$INSUNITS
70
4
9
$ACADVER
1
AC1014
9
$HANDSEED
5
FFFF
0
ENDSEC
0
SECTION
2
TABLES
0
TABLE
2
VPORT
5
8
100
AcDbSymbolTable
0
ENDTAB
0
TABLE
2
LTYPE
5
5
100
AcDbSymbolTable
0
LTYPE
5
14
100
AcDbSymbolTableRecord
100
AcDbLinetypeTableRecord
2
BYBLOCK
70
0
0
LTYPE
5
15
100
AcDbSymbolTableRecord
100
AcDbLinetypeTableRecord
2
BYLAYER
70
0
0
ENDTAB
0
TABLE
2
LAYER
5
2
100
AcDbSymbolTable
70
2
0
LAYER
5
50
100
AcDbSymbolTableRecord
100
AcDbLayerTableRecord
2
0
70
0
6
CONTINUOUS
0
ENDTAB
0
TABLE
2
STYLE
5
3
100
AcDbSymbolTable
70
1
0
STYLE
5
11
100
AcDbSymbolTableRecord
100
AcDbTextStyleTableRecord
2
STANDARD
70
0
0
ENDTAB
0
TABLE
2
VIEW
5
6
100
AcDbSymbolTable
70
0
0
ENDTAB
0
TABLE
2
UCS
5
7
100
AcDbSymbolTable
70
0
0
ENDTAB
0
TABLE
2
APPID
5
9
100
AcDbSymbolTable
70
2
0
APPID
5
12
100
AcDbSymbolTableRecord
100
AcDbRegAppTableRecord
2
ACAD
70
0
0
ENDTAB
0
TABLE
2
DIMSTYLE
5
A
100
AcDbSymbolTable
70
1
0
ENDTAB
0
TABLE
2
BLOCK_RECORD
5
1
100
AcDbSymbolTable
70
1
0
BLOCK_RECORD
5
1F
100
AcDbSymbolTableRecord
100
AcDbBlockTableRecord
2
*MODEL_SPACE
0
BLOCK_RECORD
5
1B
100
AcDbSymbolTableRecord
100
AcDbBlockTableRecord
2
*PAPER_SPACE
0
ENDTAB
0
ENDSEC
0
SECTION
2
BLOCKS
0
BLOCK
5
20
100
AcDbEntity
100
AcDbBlockBegin
2
*MODEL_SPACE
0
ENDBLK
5
21
100
AcDbEntity
100
AcDbBlockEnd
0
BLOCK
5
1C
100
AcDbEntity
100
AcDbBlockBegin
2
*PAPER_SPACE
0
ENDBLK
5
1D
100
AcDbEntity
100
AcDbBlockEnd
0
ENDSEC
0
SECTION
2
ENTITIES
0
LWPOLYLINE
5
100
100
AcDbEntity
8
0
100
AcDbPolyline
90
8
70
1
43
0.0
10
-146.174999999996
20
32.6875
42
0.41421358490597987
10
-143.52500000000001
20
30.037499999994001
10
-72.375
20
30.037500000000001
42
0.41421358490642263
10
-69.724999999999994
20
32.6875
10
-69.724999999999994
20
103.83750000000001
42
0.41421358490200122
10
-72.375
20
106.48749999996602
10
-143.52500000000001
20
106.4875
42
0.41421358490155846
10
-146.17499999999603
20
103.83750000000001
0
LWPOLYLINE
5
101
100
AcDbEntity
8
0
100
AcDbPolyline
90
8
70
1
43
0.0
10
-72.575000000000003
20
89.837499999996794
42
0.41421200000192604
10
-72.07499999999979
20
90.337500000000006
10
-72.07499999999979
20
103.33750000000002
42
0.41421199998434061
10
-72.575000000000003
20
103.83750000000001
10
-86.174999999999997
20
103.83749999997322
42
0.41421199998435099
10
-86.675000000000011
20
103.33750000000002
10
-86.675000000000239
20
90.337500000000006
42
0.41421200000193642
10
-86.174999999999997
20
89.837500000000006
0
LWPOLYLINE
5
102
100
AcDbEntity
8
0
100
AcDbPolyline
90
8
70
1
43
0.0
10
-91.625
20
89.837499999996794
42
0.41421200000192604
10
-91.124999999999801
20
90.337500000000006
10
-91.124999999999773
20
103.33750000000002
42
0.41421199998434061
10
-91.625
20
103.83750000000001
10
-105.22500000000001
20
103.83749999997322
42
0.41421199998024072
10
-105.72499999999999
20
103.33750000000002
10
-105.72499999999323
20
90.337500000000006
42
0.41421199999782621
10
-105.22500000000001
20
89.837500000000006
0
LWPOLYLINE
5
103
100
AcDbEntity
8
0
100
AcDbPolyline
90
8
70
1
43
0.0
10
-110.67500000000001
20
89.837499999996794
42
0.41421200000368458
10
-110.1749999999968
20
90.337500000000006
10
-110.17499999999679
20
103.33750000000002
42
0.4142119999860992
10
-110.67500000000001
20
103.83750000000001
10
-124.27500000000002
20
103.83749999997322
42
0.41421199998024072
10
-124.77500000000001
20
103.33750000000002
10
-124.77499999999324
20
90.337500000000006
42
0.41421199999782621
10
-124.27500000000002
20
89.837500000000006
0
LWPOLYLINE
5
104
100
AcDbEntity
8
0
100
AcDbPolyline
90
8
70
1
43
0.0
10
-129.72499999999999
20
89.837499999996794
42
0.41421200000368458
10
-129.22499999999678
20
90.337500000000006
10
-129.22499999999678
20
103.33750000000002
42
0.4142119999860992
10
-129.72499999999999
20
103.83750000000001
10
-143.32499999999999
20
103.83749999997322
42
0.41421199998024072
10
-143.82499999999999
20
103.33750000000002
10
-143.82499999999322
20
90.337500000000006
42
0.41421199999782621
10
-143.32499999999999
20
89.837500000000006
0
LWPOLYLINE
5
105
100
AcDbEntity
8
0
100
AcDbPolyline
90
8
70
1
43
0.0
10
-72.575000000000003
20
70.787499999996783
42
0.41421200000192082
10
-72.07499999999979
20
71.287499999999994
10
-72.07499999999979
20
84.287499999999994
42
0.41421199999607811
10
-72.575000000000003
20
84.787499999999994
10
-86.174999999999997
20
84.78749999999323
42
0.41421199999608854
10
-86.675000000000011
20
84.287499999999994
10
-86.675000000000239
20
71.287499999999994
42
0.41421200000193126
10
-86.174999999999997
20
70.787499999999994
0
LWPOLYLINE
5
106
100
AcDbEntity
8
0
100
AcDbPolyline
90
8
70
1
43
0.0
10
-91.625
20
70.787499999996783
42
0.41421200000192082
10
-91.124999999999801
20
71.287499999999994
10
-91.124999999999773
20
84.287499999999994
42
0.41421199999607811
10
-91.625
20
84.787499999999994
10
-105.22500000000001
20
84.78749999999323
42
0.41421199999197833
10
-105.72499999999999
20
84.287499999999994
10
-105.72499999999323
20
71.287499999999994
42
0.41421199999782099
10
-105.22500000000001
20
70.787499999999994
0
LWPOLYLINE
5
107
100
AcDbEntity
8
0
100
AcDbPolyline
90
8
70
1
43
0.0
10
-110.67500000000001
20
70.787499999996783
42
0.41421200000367941
10
-110.1749999999968
20
71.287499999999994
10
-110.17499999999679
20
84.287499999999994
42
0.4142119999978367
10
-110.67500000000001
20
84.787499999999994
10
-124.27500000000002
20
84.78749999999323
42
0.41421199999197833
10
-124.77500000000001
20
84.287499999999994
10
-124.77499999999324
20
71.287499999999994
42
0.41421199999782099
10
-124.27500000000002
20
70.787499999999994
0
LWPOLYLINE
5
108
100
AcDbEntity
8
0
100
AcDbPolyline
90
8
70
1
43
0.0
10
-129.72499999999999
20
70.787499999996783
42
0.41421200000367941
10
-129.22499999999678
20
71.287499999999994
10
-129.22499999999678
20
84.287499999999994
42
0.4142119999978367
10
-129.72499999999999
20
84.787499999999994
10
-143.32499999999999
20
84.78749999999323
42
0.41421199999197833
10
-143.82499999999999
20
84.287499999999994
10
-143.82499999999322
20
71.287499999999994
42
0.41421199999782099
10
-143.32499999999999
20
70.787499999999994
0
LWPOLYLINE
5
109
100
AcDbEntity
8
0
100
AcDbPolyline
90
8
70
1
43
0.0
10
-72.575000000000003
20
51.737499999996786
42
0.41421200000192082
10
-72.07499999999979
20
52.237499999999997
10
-72.07499999999979
20
65.237499999999997
42
0.41421199999606773
10
-72.575000000000003
20
65.737500000000011
10
-86.174999999999997
20
65.737499999993219
42
0.41421199999607811
10
-86.675000000000011
20
65.237499999999997
10
-86.675000000000239
20
52.237499999999997
42
0.41421200000193126
10
-86.174999999999997
20
51.737499999999997
0
LWPOLYLINE
5
110
100
AcDbEntity
8
0
100
AcDbPolyline
90
8
70
1
43
0.0
10
-91.625
20
51.737499999996786
42
0.41421200000192082
10
-91.124999999999801
20
52.237499999999997
10
-91.124999999999773
20
65.237499999999997
42
0.41421199999606773
10
-91.625
20
65.737500000000011
10
-105.22500000000001
20
65.737499999993219
42
0.41421199999196789
10
-105.72499999999999
20
65.237499999999997
10
-105.72499999999323
20
52.237499999999997
42
0.41421199999782099
10
-105.22500000000001
20
51.737499999999997
0
LWPOLYLINE
5
111
100
AcDbEntity
8
0
100
AcDbPolyline
90
8
70
1
43
0.0
10
-110.67500000000001
20
51.737499999996786
42
0.41421200000367941
10
-110.1749999999968
20
52.237499999999997
10
-110.17499999999679
20
65.237499999999997
42
0.41421199999782626
10
-110.67500000000001
20
65.737500000000011
10
-124.27500000000002
20
65.737499999993219
42
0.41421199999196789
10
-124.77500000000001
20
65.237499999999997
10
-124.77499999999324
20
52.237499999999997
42
0.41421199999782099
10
-124.27500000000002
20
51.737499999999997
0
LWPOLYLINE
5
112
100
AcDbEntity
8
0
100
AcDbPolyline
90
8
70
1
43
0.0
10
-129.72499999999999
20
51.737499999996786
42
0.41421200000367941
10
-129.22499999999678
20
52.237499999999997
10
-129.22499999999678
20
65.237499999999997
42
0.41421199999782626
10
-129.72499999999999
20
65.737500000000011
10
-143.32499999999999
20
65.737499999993219
42
0.41421199999196789
10
-143.82499999999999
20
65.237499999999997
10
-143.82499999999322
20
52.237499999999997
42
0.41421199999782099
10
-143.32499999999999
20
51.737499999999997
0
LWPOLYLINE
5
113
100
AcDbEntity
8
0
100
AcDbPolyline
90
8
70
1
43
0.0
10
-72.575000000000003
20
32.687499999996774
42
0.41421200000192865
10
-72.07499999999979
20
33.1875
10
-72.07499999999979
20
46.1875
42
0.41421199999606773
10
-72.575000000000003
20
46.6875
10
-86.174999999999997
20
46.687499999993221
42
0.41421199999607811
10
-86.675000000000011
20
46.1875
10
-86.675000000000239
20
33.1875
42
0.41421200000193903
10
-86.174999999999997
20
32.6875
0
LWPOLYLINE
5
114
100
AcDbEntity
8
0
100
AcDbPolyline
90
8
70
1
43
0.0
10
-91.625
20
32.687499999996774
42
0.41421200000192865
10
-91.124999999999801
20
33.1875
10
-91.124999999999773
20
46.1875
42
0.41421199999606773
10
-91.625
20
46.6875
10
-105.22500000000001
20
46.687499999993221
42
0.41421199999196789
10
-105.72499999999999
20
46.1875
10
-105.72499999999323
20
33.1875
42
0.41421199999782882
10
-105.22500000000001
20
32.6875
0
LWPOLYLINE
5
115
100
AcDbEntity
8
0
100
AcDbPolyline
90
8
70
1
43
0.0
10
-110.67500000000001
20
32.687499999996774
42
0.41421200000368719
10
-110.1749999999968
20
33.1875
10
-110.17499999999679
20
46.1875
42
0.41421199999782626
10
-110.67500000000001
20
46.6875
10
-124.27500000000002
20
46.687499999993221
42
0.41421199999196789
10
-124.77500000000001
20
46.1875
10
-124.77499999999324
20
33.1875
42
0.41421199999782882
10
-124.27500000000002
20
32.6875
0
LWPOLYLINE
5
116
100
AcDbEntity
8
0
100
AcDbPolyline
90
8
70
1
43
0.0
10
-129.72499999999999
20
32.687499999996774
42
0.41421200000368719
10
-129.22499999999678
20
33.1875
10
-129.22499999999678
20
46.1875
42
0.41421199999782626
10
-129.72499999999999
20
46.6875
10
-143.32499999999999
20
46.687499999993221
42
0.41421199999196789
10
-143.82499999999999
20
46.1875
10
-143.82499999999322
20
33.1875
42
0.41421199999782882
10
-143.32499999999999
20
32.6875
0
CIRCLE
5
117
100
AcDbEntity
8
0
100
AcDbCircle
10
-88.900000000000006
20
87.312500000000014
30
0
40
0.80000000000000016
210
0
220
0
230
1
0
CIRCLE
5
118
100
AcDbEntity
8
0
100
AcDbCircle
10
-127.00000000000001
20
87.312500000000014
30
0
40
0.80000000000000016
210
0
220
0
230
1
0
CIRCLE
5
119
100
AcDbEntity
8
0
100
AcDbCircle
10
-71.974999999999994
20
68.262500000000003
30
0
40
1.1499999999999999
210
0
220
0
230
1
0
CIRCLE
5
120
100
AcDbEntity
8
0
100
AcDbCircle
10
-143.92500000000001
20
68.262500000000003
30
0
40
1.1499999999999999
210
0
220
0
230
1
0
CIRCLE
5
121
100
AcDbEntity
8
0
100
AcDbCircle
10
-88.900000000000006
20
68.262500000000003
30
0
40
0.80000000000000016
210
0
220
0
230
1
0
CIRCLE
5
122
100
AcDbEntity
8
0
100
AcDbCircle
10
-127.00000000000001
20
68.262500000000003
30
0
40
0.80000000000000016
210
0
220
0
230
1
0
CIRCLE
5
123
100
AcDbEntity
8
0
100
AcDbCircle
10
-88.900000000000006
20
49.212500000000006
30
0
40
0.80000000000000016
210
0
220
0
230
1
0
CIRCLE
5
124
100
AcDbEntity
8
0
100
AcDbCircle
10
-127.00000000000001
20
49.212500000000006
30
0
40
0.80000000000000016
210
0
220
0
230
1
0
ENDSEC
0
SECTION
2
OBJECTS
0
DICTIONARY
5
C
100
AcDbDictionary
3
ACAD_GROUP
350
D
3
ACAD_MLINESTYLE
350
17
0
DICTIONARY
5
D
100
AcDbDictionary
0
DICTIONARY
5
1A
330
C
100
AcDbDictionary
0
DICTIONARY
5
17
100
AcDbDictionary
0
ENDSEC
0
EOF
