0
SECTION
2
HEADER
9
$INSUNITS
70
4
9
$ACADVER
1
AC1014
9
$HANDSEED
5
FFFF
0
ENDSEC
0
SECTION
2
TABLES
0
TABLE
2
VPORT
5
8
100
AcDbSymbolTable
0
ENDTAB
0
TABLE
2
LTYPE
5
5
100
AcDbSymbolTable
0
LTYPE
5
14
100
AcDbSymbolTableRecord
100
AcDbLinetypeTableRecord
2
BYBLOCK
70
0
0
LTYPE
5
15
100
AcDbSymbolTableRecord
100
AcDbLinetypeTableRecord
2
BYLAYER
70
0
0
ENDTAB
0
TABLE
2
LAYER
5
2
100
AcDbSymbolTable
70
2
0
LAYER
5
50
100
AcDbSymbolTableRecord
100
AcDbLayerTableRecord
2
0
70
0
6
CONTINUOUS
0
ENDTAB
0
TABLE
2
STYLE
5
3
100
AcDbSymbolTable
70
1
0
STYLE
5
11
100
AcDbSymbolTableRecord
100
AcDbTextStyleTableRecord
2
STANDARD
70
0
0
ENDTAB
0
TABLE
2
VIEW
5
6
100
AcDbSymbolTable
70
0
0
ENDTAB
0
TABLE
2
UCS
5
7
100
AcDbSymbolTable
70
0
0
ENDTAB
0
TABLE
2
APPID
5
9
100
AcDbSymbolTable
70
2
0
APPID
5
12
100
AcDbSymbolTableRecord
100
AcDbRegAppTableRecord
2
ACAD
70
0
0
ENDTAB
0
TABLE
2
DIMSTYLE
5
A
100
AcDbSymbolTable
70
1
0
ENDTAB
0
TABLE
2
BLOCK_RECORD
5
1
100
AcDbSymbolTable
70
1
0
BLOCK_RECORD
5
1F
100
AcDbSymbolTableRecord
100
AcDbBlockTableRecord
2
*MODEL_SPACE
0
BLOCK_RECORD
5
1B
100
AcDbSymbolTableRecord
100
AcDbBlockTableRecord
2
*PAPER_SPACE
0
ENDTAB
0
ENDSEC
0
SECTION
2
BLOCKS
0
BLOCK
5
20
100
AcDbEntity
100
AcDbBlockBegin
2
*MODEL_SPACE
0
ENDBLK
5
21
100
AcDbEntity
100
AcDbBlockEnd
0
BLOCK
5
1C
100
AcDbEntity
100
AcDbBlockBegin
2
*PAPER_SPACE
0
ENDBLK
5
1D
100
AcDbEntity
100
AcDbBlockEnd
0
ENDSEC
0
SECTION
2
ENTITIES
0
LWPOLYLINE
5
100
100
AcDbEntity
8
0
100
AcDbPolyline
90
8
70
1
43
0.0
10
-179.51249999999604
20
61.262500000000003
42
0.41421358490598181
10
-176.86250000000001
20
58.612499999994007
10
-105.71250000000001
20
58.612499999999997
42
0.41421358490708521
10
-103.062499999994
20
61.262500000000003
10
-103.0625
20
132.41250000000002
42
0.4142135849026638
10
-105.71250000000001
20
135.06249999996601
10
-176.86250000000001
20
135.0625
42
0.41421358490156041
10
-179.51249999999604
20
132.41250000000002
0
LWPOLYLINE
5
101
100
AcDbEntity
8
0
100
AcDbPolyline
90
8
70
1
43
0.0
10
-144.01249999999999
20
118.41249999992678
42
0.41421200004468278
10
-143.51249999999678
20
118.91249999999999
10
-143.51249999999678
20
131.91249999999999
42
0.41421199998612002
10
-144.01249999999999
20
132.41250000000002
10
-157.61250000000001
20
132.41249999997325
42
0.41421199998026154
10
-158.11250000000001
20
131.91249999999999
10
-158.11249999999325
20
118.91249999999999
42
0.41421200003882425
10
-157.61250000000001
20
118.41250000000001
0
LWPOLYLINE
5
102
100
AcDbEntity
8
0
100
AcDbPolyline
90
8
70
1
43
0.0
10
-106.7375
20
118.43749999992679
42
0.41421200004469316
10
-106.2374999999968
20
118.9375
10
-106.23750000000001
20
130.65549999999999
10
-109.2375
20
132.38749999999999
10
-135.23750000000001
20
132.38749999999999
10
-138.23750000000001
20
130.65549999999999
10
-138.23749999999325
20
118.9375
42
0.41421200003883468
10
-137.73750000000001
20
118.4375
0
LWPOLYLINE
5
103
100
AcDbEntity
8
0
100
AcDbPolyline
90
8
70
1
43
0.0
10
-163.38750000000002
20
99.887499999926774
42
0.4142120000447036
10
-162.88749999999678
20
100.3875
10
-162.88749999999678
20
131.38749999999999
42
0.4142119999861304
10
-163.38750000000002
20
131.88749999999999
10
-175.10550000000001
20
131.88749999999999
10
-176.83750000000001
20
128.88749999999999
10
-176.83750000000001
20
102.8875
10
-175.10550000000001
20
99.887500000000017
0
LWPOLYLINE
5
104
100
AcDbEntity
8
0
100
AcDbPolyline
90
8
70
1
43
0.0
10
-105.91250000000001
20
99.362499999996771
42
0.41421200000368458
10
-105.4124999999968
20
99.862499999999997
10
-105.41249999999678
20
112.86250000000001
42
0.41421199998610958
10
-105.91250000000001
20
113.3625
10
-119.51250000000002
20
113.36249999997322
42
0.41421199998025116
10
-120.0125
20
112.86250000000001
10
-120.01249999999324
20
99.862499999999997
42
0.41421199999782621
10
-119.51250000000002
20
99.362500000000011
0
LWPOLYLINE
5
105
100
AcDbEntity
8
0
100
AcDbPolyline
90
8
70
1
43
0.0
10
-124.96250000000002
20
99.362499999996771
42
0.41421200000368458
10
-124.46249999999681
20
99.862499999999997
10
-124.46249999999679
20
112.86250000000001
42
0.41421199998610958
10
-124.96250000000002
20
113.3625
10
-138.5625
20
113.36249999997322
42
0.41421199998025116
10
-139.0625
20
112.86250000000001
10
-139.06249999999324
20
99.862499999999997
42
0.41421199999782621
10
-138.5625
20
99.362500000000011
0
LWPOLYLINE
5
106
100
AcDbEntity
8
0
100
AcDbPolyline
90
8
70
1
43
0.0
10
-144.01249999999999
20
99.362499999996771
42
0.41421200000368458
10
-143.51249999999678
20
99.862499999999997
10
-143.51249999999678
20
112.86250000000001
42
0.41421199998610958
10
-144.01249999999999
20
113.3625
10
-157.61250000000001
20
113.36249999997322
42
0.41421199998025116
10
-158.11250000000001
20
112.86250000000001
10
-158.11249999999325
20
99.862499999999997
42
0.41421199999782621
10
-157.61250000000001
20
99.362500000000011
0
LWPOLYLINE
5
107
100
AcDbEntity
8
0
100
AcDbPolyline
90
8
70
1
43
0.0
10
-105.91250000000001
20
80.312499999996788
42
0.41421200000368458
10
-105.4124999999968
20
80.8125
10
-105.41249999999678
20
93.8125
42
0.41421199999782626
10
-105.91250000000001
20
94.3125
10
-119.51250000000002
20
94.312499999993221
42
0.41421199999196789
10
-120.0125
20
93.8125
10
-120.01249999999324
20
80.8125
42
0.41421199999782621
10
-119.51250000000002
20
80.3125
0
LWPOLYLINE
5
108
100
AcDbEntity
8
0
100
AcDbPolyline
90
8
70
1
43
0.0
10
-124.96250000000002
20
80.312499999996788
42
0.41421200000368458
10
-124.46249999999681
20
80.8125
10
-124.46249999999679
20
93.8125
42
0.41421199999782626
10
-124.96250000000002
20
94.3125
10
-138.5625
20
94.312499999993221
42
0.41421199999196789
10
-139.0625
20
93.8125
10
-139.06249999999324
20
80.8125
42
0.41421199999782621
10
-138.5625
20
80.3125
0
LWPOLYLINE
5
109
100
AcDbEntity
8
0
100
AcDbPolyline
90
8
70
1
43
0.0
10
-144.01249999999999
20
80.312499999996788
42
0.41421200000368458
10
-143.51249999999678
20
80.8125
10
-143.51249999999678
20
93.8125
42
0.41421199999782626
10
-144.01249999999999
20
94.3125
10
-157.61250000000001
20
94.312499999993221
42
0.41421199999196789
10
-158.11250000000001
20
93.8125
10
-158.11249999999325
20
80.8125
42
0.41421199999782621
10
-157.61250000000001
20
80.3125
0
LWPOLYLINE
5
110
100
AcDbEntity
8
0
100
AcDbPolyline
90
8
70
1
43
0.0
10
-163.38750000000002
20
61.787499999996776
42
0.41421200000370018
10
-162.88749999999678
20
62.287500000000009
10
-162.88749999999678
20
93.287499999999994
42
0.41421199999784708
10
-163.38750000000002
20
93.787499999999994
10
-175.10550000000001
20
93.787499999999994
10
-176.83750000000001
20
90.787499999999994
10
-176.83750000000001
20
64.787499999999994
10
-175.10550000000001
20
61.787500000000009
0
LWPOLYLINE
5
111
100
AcDbEntity
8
0
100
AcDbPolyline
90
8
70
1
43
0.0
10
-105.91250000000001
20
61.262499999996784
42
0.41421200000368458
10
-105.4124999999968
20
61.762500000000003
10
-105.41249999999678
20
74.762500000000003
42
0.41421199999782626
10
-105.91250000000001
20
75.262500000000017
10
-119.51250000000002
20
75.262499999993224
42
0.41421199999196789
10
-120.0125
20
74.762500000000003
10
-120.01249999999324
20
61.762500000000003
42
0.41421199999782621
10
-119.51250000000002
20
61.262500000000003
0
LWPOLYLINE
5
112
100
AcDbEntity
8
0
100
AcDbPolyline
90
8
70
1
43
0.0
10
-124.96250000000002
20
61.262499999996784
42
0.41421200000368458
10
-124.46249999999681
20
61.762500000000003
10
-124.46249999999679
20
74.762500000000003
42
0.41421199999782626
10
-124.96250000000002
20
75.262500000000017
10
-138.5625
20
75.262499999993224
42
0.41421199999196789
10
-139.0625
20
74.762500000000003
10
-139.06249999999324
20
61.762500000000003
42
0.41421199999782621
10
-138.5625
20
61.262500000000003
0
LWPOLYLINE
5
113
100
AcDbEntity
8
0
100
AcDbPolyline
90
8
70
1
43
0.0
10
-144.01249999999999
20
61.262499999996784
42
0.41421200000368458
10
-143.51249999999678
20
61.762500000000003
10
-143.51249999999678
20
74.762500000000003
42
0.41421199999782626
10
-144.01249999999999
20
75.262500000000017
10
-157.61250000000001
20
75.262499999993224
42
0.41421199999196789
10
-158.11250000000001
20
74.762500000000003
10
-158.11249999999325
20
61.762500000000003
42
0.41421199999782621
10
-157.61250000000001
20
61.262500000000003
0
CIRCLE
5
114
100
AcDbEntity
8
0
100
AcDbCircle
10
-122.23750000000001
20
115.88750000000002
30
0
40
0.80000000000000016
210
0
220
0
230
1
0
CIRCLE
5
115
100
AcDbEntity
8
0
100
AcDbCircle
10
-160.33750000000001
20
115.88750000000002
30
0
40
0.80000000000000016
210
0
220
0
230
1
0
CIRCLE
5
116
100
AcDbEntity
8
0
100
AcDbCircle
10
-105.3125
20
96.83750000000002
30
0
40
1.1499999999999999
210
0
220
0
230
1
0
CIRCLE
5
117
100
AcDbEntity
8
0
100
AcDbCircle
10
-177.26249999999999
20
96.83750000000002
30
0
40
1.1499999999999999
210
0
220
0
230
1
0
CIRCLE
5
118
100
AcDbEntity
8
0
100
AcDbCircle
10
-122.23750000000001
20
96.83750000000002
30
0
40
0.80000000000000016
210
0
220
0
230
1
0
CIRCLE
5
119
100
AcDbEntity
8
0
100
AcDbCircle
10
-160.33750000000001
20
96.83750000000002
30
0
40
0.80000000000000016
210
0
220
0
230
1
0
CIRCLE
5
120
100
AcDbEntity
8
0
100
AcDbCircle
10
-122.23750000000001
20
77.787499999999994
30
0
40
0.80000000000000016
210
0
220
0
230
1
0
CIRCLE
5
121
100
AcDbEntity
8
0
100
AcDbCircle
10
-160.33750000000001
20
77.787499999999994
30
0
40
0.80000000000000016
210
0
220
0
230
1
0
ENDSEC
0
SECTION
2
OBJECTS
0
DICTIONARY
5
C
100
AcDbDictionary
3
ACAD_GROUP
350
D
3
ACAD_MLINESTYLE
350
17
0
DICTIONARY
5
D
100
AcDbDictionary
0
DICTIONARY
5
1A
330
C
100
AcDbDictionary
0
DICTIONARY
5
17
100
AcDbDictionary
0
ENDSEC
0
EOF
